<?xml version="1.0" encoding="utf-8"?>
<!-- Generator: Adobe Illustrator 27.5.0, SVG Export Plug-In . SVG Version: 6.00 Build 0)  -->
<svg version="1.1" xmlns="http://www.w3.org/2000/svg" xmlns:xlink="http://www.w3.org/1999/xlink" x="0px" y="0px"
	 viewBox="0 0 500 500" style="enable-background:new 0 0 500 500;" xml:space="preserve">
<g id="Floor">
	<path id="Floor_00000008139853004621475930000009151777234591036292_" style="fill:#FAFAFA;" d="M83.53,247.259
		c-91.936,53.079-91.934,139.138,0.005,192.218c91.939,53.079,240.999,53.079,332.934,0c91.936-53.079,91.934-139.138-0.005-192.218
		C324.526,194.179,175.466,194.179,83.53,247.259z"/>
</g>
<g id="Shadows">
	
		<ellipse id="Shadow_00000148662961973152432380000004449291763273671093_" style="fill:#E0E0E0;" cx="417.457" cy="416.016" rx="69.964" ry="40.394"/>
	<path id="Shadow_00000183954363755706660880000001025906368203678392_" style="fill:#E0E0E0;" d="M231.363,338.535L54.271,440.722
		c-1.763,1.018-1.763,2.668,0,3.685l23.58,13.579c1.763,1.018,4.62,1.018,6.383,0l177.093-102.188c1.763-1.018,1.763-2.668,0-3.685
		l-23.581-13.579C235.984,337.517,233.126,337.517,231.363,338.535z"/>
</g>
<g id="Gears">
	<g id="Gears_00000020363677785598272470000006975844621360917134_">
		<path id="XMLID_00000057862964721691552090000013980813524459587738_" style="fill:#E6E6E6;" d="M241.437,421.355L233.568,425
			c-0.485,0.225-1.289,0.267-1.8,0.108c-1.96-0.613-4.009-1.096-6.109-1.452c-0.527-0.09-1.038-0.579-1.137-1.105l-0.984-5.185
			c-0.1-0.526-0.614-0.952-1.149-0.952l-11.414,0c-0.535,0-1.05,0.426-1.149,0.952l-0.985,5.185c-0.1,0.526-0.61,1.015-1.137,1.105
			c-2.099,0.356-4.148,0.839-6.108,1.452c-0.511,0.16-1.315,0.118-1.801-0.107l-7.869-3.645c-0.485-0.225-1.254-0.19-1.718,0.077
			l-7.763,4.482c-0.463,0.267-0.487,0.738-0.052,1.05l6.152,4.427c0.434,0.312,0.475,0.868,0.114,1.263
			c-0.899,0.983-1.63,2.003-2.197,3.047c-0.256,0.47-0.864,0.895-1.398,0.928l-10.344,0.655c-0.534,0.034-0.967,0.495-0.967,1.03
			l0,5.771c0,0.535,0.433,0.996,0.967,1.03l10.344,0.655c0.534,0.034,1.142,0.458,1.398,0.928c0.567,1.044,1.298,2.064,2.197,3.047
			c0.361,0.395,0.32,0.951-0.114,1.263l-6.152,4.426c-0.434,0.312-0.411,0.783,0.052,1.05l7.763,4.482
			c0.463,0.268,1.232,0.302,1.718,0.077l7.869-3.646c0.485-0.225,1.289-0.267,1.8-0.108c1.96,0.613,4.009,1.096,6.109,1.453
			c0.528,0.089,1.038,0.579,1.138,1.105l0.984,5.185c0.1,0.526,0.615,0.952,1.149,0.952l11.414,0c0.535,0,1.05-0.426,1.149-0.952
			l0.985-5.186c0.1-0.525,0.609-1.015,1.137-1.105c2.1-0.357,4.149-0.84,6.109-1.452c0.511-0.159,1.315-0.117,1.801,0.107
			l7.869,3.645c0.485,0.225,1.254,0.19,1.718-0.077l7.763-4.482c0.463-0.267,0.487-0.738,0.053-1.05l-6.152-4.427
			c-0.434-0.312-0.475-0.868-0.114-1.262c0.899-0.983,1.63-2.003,2.197-3.047c0.255-0.47,0.864-0.895,1.398-0.929l10.345-0.655
			c0.534-0.034,0.967-0.495,0.967-1.03v-5.771c0-0.535-0.433-0.996-0.967-1.03l-10.345-0.654c-0.534-0.034-1.142-0.458-1.397-0.928
			c-0.567-1.044-1.298-2.064-2.196-3.047c-0.361-0.395-0.32-0.951,0.114-1.263l6.152-4.426c0.434-0.312,0.411-0.783-0.053-1.05
			l-7.763-4.482C242.691,421.165,241.922,421.13,241.437,421.355z M229.795,433.627c7.243,4.182,7.243,10.961,0,15.143
			c-7.243,4.181-18.986,4.182-26.229,0c-7.242-4.181-7.242-10.962,0.001-15.143C210.81,429.446,222.552,429.446,229.795,433.627z"/>
		<path id="XMLID_00000168093346189802519350000013257031746414592149_" style="fill:#E6E6E6;" d="M301.957,401.712l-5.83,2.701
			c-0.36,0.167-0.955,0.198-1.333,0.08c-1.452-0.454-2.97-0.812-4.526-1.076c-0.391-0.066-0.769-0.429-0.843-0.819l-0.729-3.842
			c-0.074-0.389-0.455-0.705-0.851-0.705l-8.456,0c-0.396,0-0.778,0.316-0.852,0.705l-0.73,3.842
			c-0.074,0.389-0.452,0.752-0.843,0.819c-1.555,0.264-3.073,0.622-4.525,1.076c-0.378,0.118-0.974,0.087-1.334-0.079l-5.83-2.701
			c-0.36-0.167-0.929-0.141-1.273,0.057l-5.751,3.321c-0.343,0.198-0.361,0.546-0.039,0.778l4.558,3.28
			c0.322,0.231,0.352,0.643,0.085,0.935c-0.666,0.728-1.208,1.484-1.628,2.257c-0.189,0.348-0.64,0.663-1.036,0.688l-7.664,0.485
			c-0.396,0.025-0.716,0.367-0.716,0.763l0,4.275c0,0.396,0.321,0.738,0.716,0.763l7.664,0.485c0.396,0.025,0.846,0.339,1.036,0.688
			c0.42,0.773,0.962,1.529,1.628,2.257c0.267,0.293,0.237,0.704-0.084,0.936l-4.558,3.279c-0.322,0.232-0.304,0.58,0.039,0.778
			l5.751,3.32c0.343,0.198,0.913,0.224,1.273,0.057l5.83-2.701c0.36-0.166,0.955-0.198,1.333-0.08
			c1.452,0.454,2.97,0.812,4.526,1.076c0.391,0.066,0.769,0.429,0.843,0.819l0.729,3.842c0.074,0.389,0.455,0.705,0.852,0.705
			l8.456,0c0.396,0,0.778-0.316,0.852-0.705l0.729-3.842c0.074-0.389,0.451-0.752,0.842-0.818c1.556-0.264,3.074-0.622,4.526-1.076
			c0.378-0.118,0.974-0.087,1.334,0.079l5.83,2.701c0.359,0.167,0.929,0.141,1.273-0.057l5.751-3.32
			c0.343-0.198,0.361-0.546,0.039-0.778l-4.558-3.28c-0.322-0.232-0.352-0.643-0.085-0.935c0.666-0.728,1.208-1.484,1.628-2.257
			c0.189-0.348,0.64-0.663,1.035-0.688l7.664-0.485c0.396-0.025,0.716-0.367,0.716-0.763v-4.276c0-0.396-0.321-0.738-0.716-0.763
			l-7.664-0.485c-0.396-0.025-0.846-0.339-1.035-0.688c-0.42-0.773-0.962-1.529-1.627-2.258c-0.267-0.292-0.237-0.704,0.085-0.936
			l4.558-3.279c0.322-0.231,0.304-0.58-0.039-0.778l-5.752-3.321C302.886,401.571,302.317,401.545,301.957,401.712z
			 M293.332,410.804c5.366,3.098,5.366,8.121,0,11.219c-5.366,3.098-14.066,3.098-19.432,0c-5.366-3.098-5.366-8.121,0-11.219
			C279.266,407.706,287.966,407.706,293.332,410.804z"/>
	</g>
</g>
<g id="Plants">
	<g id="Plants_1_">
		<g id="XMLID_00000006687790328527846840000013758388484074357937_">
			<g id="XMLID_00000016047532555728134570000012214407795756843176_">
				<path id="XMLID_1085_" style="fill:#BA68C8;" d="M63.766,448.407l11.147-6.441c0,0,6.634-27.567,3.991-52.372
					c-3.717-34.875-26.674-47.998-35.403-44.99c-8.729,3.008-11.257,13.156,3.187,33.927
					C55.209,390.786,65.678,416.312,63.766,448.407z"/>
			</g>
			<g id="XMLID_00000107561789029438799510000011202710443911869344_" style="opacity:0.65;">
				<path id="XMLID_00000176760673678195975060000005122582842707721089_" style="fill:#FFFFFF;" d="M63.766,448.407l11.147-6.441
					c0,0,6.634-27.567,3.991-52.372c-3.717-34.875-26.674-47.998-35.403-44.99c-8.729,3.008-11.257,13.156,3.187,33.927
					C55.209,390.786,65.678,416.312,63.766,448.407z"/>
			</g>
			<g id="XMLID_1048_">
				<path id="XMLID_1049_" style="fill:#FFFFFF;" d="M68.385,434.864c-0.036-0.002-0.071-0.007-0.107-0.013
					c-0.419-0.08-0.695-0.484-0.615-0.903c6.11-32.167-5.127-68.313-19.042-83.354c-0.29-0.312-0.271-0.803,0.043-1.092
					c0.314-0.286,0.803-0.271,1.093,0.043c14.168,15.315,25.625,52.051,19.424,84.691C69.11,434.619,68.764,434.883,68.385,434.864z
					"/>
			</g>
		</g>
		<g id="XMLID_00000162310698975534516280000004944899359169903251_">
			<g id="XMLID_00000155130164313230616750000011373830478737658247_">
				<path id="XMLID_00000074410226743393399850000012870097997179284139_" style="fill:#BA68C8;" d="M35.712,464.604
					c-1.665,0.848-6.094-2.943-7.328-3.865c-2.113-1.578-3.781-3.745-4.839-6.155c-1.232-2.805-1.429-5.753-0.848-8.758
					c0.302-1.558,0.818-3.065,1.333-4.567c0.506-1.474,1.011-2.948,1.516-4.422c0.499-1.454,1.004-2.959,0.886-4.492
					c-0.238-3.088-2.853-5.375-5.236-7.355c-2.635-2.188-5.35-5.039-5.148-8.732c0.156-2.85,1.765-5.422,3.645-7.571
					c1.879-2.148,4.075-4.018,5.791-6.299c1.235-1.642,2.232-3.594,2.149-5.647c-0.052-1.275-0.518-2.498-1.069-3.649
					c-1.183-2.471-2.793-4.761-3.562-7.391c-0.77-2.629-0.479-5.837,1.631-7.584c1.732-1.434,4.203-1.522,6.436-1.261
					c2.066,0.242,4.044,1.279,5.807,2.379c5.7,3.557,8.697,10.672,14.794,13.495c2.352,1.089,4.971,1.434,7.44,2.221
					c2.469,0.788,4.956,2.194,5.998,4.567c2.054,4.678-2.469,10.088-1.107,15.012c1.205,4.358,5.287,6.209,7.432,10.19
					c0.938,1.741,1.075,3.706,0.811,5.666c-0.448,3.318-1.059,5.738-2.844,9.363c-1.476,2.995-5.631,8.657-5.631,8.657
					S35.967,464.474,35.712,464.604z"/>
			</g>
			<g id="XMLID_00000096744945403115106880000008699267350103333265_" style="opacity:0.3;">
				<path id="XMLID_00000017501320074041377370000000134957267383465360_" style="fill:#FFFFFF;" d="M35.712,464.604
					c-1.665,0.848-6.094-2.943-7.328-3.865c-2.113-1.578-3.781-3.745-4.839-6.155c-1.232-2.805-1.429-5.753-0.848-8.758
					c0.302-1.558,0.818-3.065,1.333-4.567c0.506-1.474,1.011-2.948,1.516-4.422c0.499-1.454,1.004-2.959,0.886-4.492
					c-0.238-3.088-2.853-5.375-5.236-7.355c-2.635-2.188-5.35-5.039-5.148-8.732c0.156-2.85,1.765-5.422,3.645-7.571
					c1.879-2.148,4.075-4.018,5.791-6.299c1.235-1.642,2.232-3.594,2.149-5.647c-0.052-1.275-0.518-2.498-1.069-3.649
					c-1.183-2.471-2.793-4.761-3.562-7.391c-0.77-2.629-0.479-5.837,1.631-7.584c1.732-1.434,4.203-1.522,6.436-1.261
					c2.066,0.242,4.044,1.279,5.807,2.379c5.7,3.557,8.697,10.672,14.794,13.495c2.352,1.089,4.971,1.434,7.44,2.221
					c2.469,0.788,4.956,2.194,5.998,4.567c2.054,4.678-2.469,10.088-1.107,15.012c1.205,4.358,5.287,6.209,7.432,10.19
					c0.938,1.741,1.075,3.706,0.811,5.666c-0.448,3.318-1.059,5.738-2.844,9.363c-1.476,2.995-5.631,8.657-5.631,8.657
					S35.967,464.474,35.712,464.604z"/>
			</g>
			<g id="XMLID_1186_">
				<path id="XMLID_00000088110240148185522860000000928962073810347693_" style="fill:#FFFFFF;" d="M51.847,456.195
					c-0.01-0.001-0.02-0.001-0.02-0.001c-0.413-0.038-0.708-0.395-0.672-0.796c2.669-28.932-9.378-61.63-18.842-71.43
					c-0.28-0.29-0.272-0.753,0.018-1.034c0.292-0.28,0.753-0.271,1.034,0.018c9.655,9.997,21.953,43.24,19.248,72.58
					C52.576,455.924,52.236,456.214,51.847,456.195z"/>
			</g>
			<g id="XMLID_1184_">
				<path id="XMLID_1185_" style="fill:#FFFFFF;" d="M48.973,420.521c-0.071-0.004-0.144-0.017-0.214-0.044
					c-9.17-3.349-20.754-4.443-20.869-4.453c-0.403-0.037-0.698-0.394-0.662-0.796c0.038-0.401,0.359-0.704,0.796-0.662
					c0.118,0.012,11.886,1.121,21.237,4.537c0.379,0.138,0.575,0.558,0.436,0.937C49.584,420.35,49.286,420.536,48.973,420.521z"/>
			</g>
		</g>
	</g>
</g>
<g id="Clipboard_00000098215405256971109020000012829568973864461494_">
	<g id="Clipboard">
		<g id="Board_00000043436751827063725590000014950621575217693880_">
			<g id="Window_16_">
				<path style="fill:#BA68C8;" d="M248.67,27.552L78.451,125.71c-1.759,1.014-3.184,3.482-3.184,5.512v312.073
					c0,2.03,1.428,4.493,3.19,5.501l0.647,0.369c1.762,1.008,4.616,1.002,6.374-0.013l170.222-98.286
					c1.758-1.015,3.183-3.484,3.183-5.514V33.411c0-2.03-1.428-4.493-3.19-5.501l-0.647-0.369
					C253.283,26.533,250.429,26.537,248.67,27.552z"/>
				<path style="opacity:0.45;" d="M248.67,27.552L78.451,125.71c-1.759,1.014-3.184,3.482-3.184,5.512v312.073
					c0,2.03,1.428,4.493,3.19,5.501l0.647,0.369c1.762,1.008,4.616,1.002,6.374-0.013l170.222-98.286
					c1.758-1.015,3.183-3.484,3.183-5.514V33.411c0-2.03-1.428-4.493-3.19-5.501l-0.647-0.369
					C253.283,26.533,250.429,26.537,248.67,27.552z"/>
				<g id="XMLID_00000111171270640543197070000000991487099271001764_">
					<path style="fill:#BA68C8;" d="M258.882,345.58c0,2.799-1.965,4.582-4.399,5.982l-167.789,96.87
						c-2.422,1.399-4.4,0.269-4.4-2.543V136.624l0,0c0-3.13,1.67-6.022,4.38-7.588l167.805-96.91
						c1.957-1.13,4.404,0.282,4.404,2.542l0,0V345.58z"/>
				</g>
				<path id="XMLID_00000000911366107835880820000009670309326150020275_" style="opacity:0.3;" d="M258.882,345.58
					c0,2.799-1.965,4.582-4.399,5.982l-167.789,96.87c-2.422,1.399-4.4,0.269-4.4-2.543V136.624l0,0c0-3.13,1.67-6.022,4.38-7.588
					l167.805-96.91c1.957-1.13,4.404,0.282,4.404,2.542l0,0V345.58z"/>
				<path style="fill:#BA68C8;" d="M258.884,33.414v1.25c0-2.255-2.451-3.664-4.411-2.536L86.673,129.041
					c-1.36,0.772-2.451,1.887-3.198,3.198c-0.024,0.037-0.037,0.061-0.049,0.098l-7.262-4.194c0.588-1.017,1.385-1.912,2.291-2.426
					l170.215-98.163c1.764-1.017,4.619-1.017,6.371-0.012l0.645,0.372C257.451,28.917,258.884,31.38,258.884,33.414z"/>
				<path style="opacity:0.2;" d="M258.884,33.414v1.25c0-2.255-2.451-3.664-4.411-2.536L86.673,129.041
					c-1.36,0.772-2.451,1.887-3.198,3.198c-0.024,0.037-0.037,0.061-0.049,0.098l-7.262-4.194c0.588-1.017,1.385-1.912,2.291-2.426
					l170.215-98.163c1.764-1.017,4.619-1.017,6.371-0.012l0.645,0.372C257.451,28.917,258.884,31.38,258.884,33.414z"/>
			</g>
		</g>
		<path id="Shadow_32_" style="opacity:0.25;" d="M254.732,332.689c0,2.883-2.023,4.72-4.532,6.161L91.615,430.409
			c-2.494,1.441-4.532,0.277-4.532-2.619V152.854l0,0c0-3.224,1.72-6.203,4.511-7.815l158.602-91.601
			c2.016-1.164,4.536,0.29,4.536,2.618v3.366V332.689z"/>
		<g id="Form">
			<g id="Paper">
				<path id="XMLID_1287_" style="fill:#F5F5F5;" d="M91.143,148.469L249.15,57.245c0.747-0.431,1.958-0.431,2.705,0l1.524,0.88
					c0.747,0.431,1.353,1.48,1.353,2.342v276.215c0,0.863-0.606,1.911-1.352,2.343L95.375,430.249c-0.747,0.431-1.958,0.431-2.705,0
					l-1.527-0.882c-0.747-0.431-1.353-1.48-1.353-2.343V150.812C89.79,149.949,90.396,148.901,91.143,148.469z"/>
				<path id="XMLID_965_" style="fill:#E0E0E0;" d="M95.052,430.396c-0.156,0.062-0.323,0.104-0.5,0.135
					c-0.083,0.01-0.177,0.021-0.26,0.031c-0.271,0.021-0.552,0.01-0.822-0.031c-0.177-0.031-0.344-0.073-0.5-0.135
					c-0.104-0.042-0.208-0.094-0.302-0.146l-1.52-0.875c-0.75-0.437-1.354-1.478-1.354-2.342V150.821
					c0-0.437,0.146-0.916,0.396-1.333l4.227,2.436c-0.239,0.427-0.395,0.906-0.395,1.333v276.212
					C94.022,430.208,94.459,430.573,95.052,430.396z"/>
				<g>
					<g>
						<path style="fill:#BA68C8;" d="M253.38,58.124l-1.524-0.88c-0.747-0.431-1.958-0.431-2.705,0L91.143,148.469
							c-0.747,0.431-1.353,1.48-1.353,2.343v17.057l4.231,2.458l160.71-92.786V60.466C254.732,59.604,254.126,58.555,253.38,58.124z
							"/>
						<path style="opacity:0.4;fill:#FFFFFF;" d="M253.38,58.124l-1.524-0.88c-0.747-0.431-1.958-0.431-2.705,0L91.143,148.469
							c-0.747,0.431-1.353,1.48-1.353,2.343v17.057l4.231,2.458l160.71-92.786V60.466C254.732,59.604,254.126,58.555,253.38,58.124z
							"/>
					</g>
					<g>
						<path id="XMLID_961_" style="fill:#BA68C8;" d="M254.683,60.057c-0.167-0.552-0.687-0.729-1.301-0.375L95.375,150.909
							c-0.375,0.219-0.719,0.583-0.958,1.01l-4.227-2.436c0.239-0.427,0.583-0.802,0.958-1.01l158.007-91.227
							c0.739-0.437,1.958-0.437,2.697,0l1.531,0.875C254.017,58.496,254.548,59.297,254.683,60.057z"/>
						<path id="XMLID_00000173852306930367634640000017539501489570949538_" style="opacity:0.6;fill:#FFFFFF;" d="M254.683,60.057
							c-0.167-0.552-0.687-0.729-1.301-0.375L95.375,150.909c-0.375,0.219-0.719,0.583-0.958,1.01l-4.227-2.436
							c0.239-0.427,0.583-0.802,0.958-1.01l158.007-91.227c0.739-0.437,1.958-0.437,2.697,0l1.531,0.875
							C254.017,58.496,254.548,59.297,254.683,60.057z"/>
					</g>
					<path style="fill:#BA68C8;" d="M89.794,150.816v17.071l4.227,2.44v-17.075c0-0.427,0.156-0.906,0.395-1.333l-4.227-2.436
						C89.94,149.899,89.794,150.378,89.794,150.816z"/>
				</g>
			</g>
		</g>
		<g id="Clip">
			<g id="Shadow_31_" style="opacity:0.25;">
				<path d="M218.182,68.666v13.583c0,3.441-2.349,7.5-5.327,9.22l-26.293,15.176c-1.301,0.75-2.04,2.25-2.823,3.827
					c-0.573,1.158-1.169,2.349-2.029,3.32c-2.041,2.316-6.496,4.731-9.64,5.735c-1.059,0.342-2.118,0.585-3.154,0.728
					c-0.397,0.066-0.838,0.121-1.29,0.177c-2.868,0.386-6.441,0.871-8.536,2.085l-30.771,17.757c-0.926,0.54-1.842,0.805-2.68,0.805
					c-0.651,0-1.257-0.154-1.798-0.463c-1.257-0.728-1.952-2.173-1.952-4.048v-13.583c0-3.441,2.338-7.5,5.327-9.22l10.334-5.967
					c0.044-0.022,0.088-0.044,0.143-0.055c0.496-0.221,1.081-0.022,1.368,0.463c0.276,0.474,0.144,1.092-0.286,1.401
					c-0.033,0.044-0.077,0.077-0.121,0.099l-10.334,5.967c-2.283,1.324-4.224,4.676-4.224,7.312v13.583
					c0,1.048,0.309,1.82,0.849,2.129c0.54,0.32,1.368,0.188,2.272-0.331l30.771-17.768c2.47-1.423,6.287-1.941,9.341-2.349
					c0.452-0.055,0.883-0.121,1.279-0.177c0.904-0.132,1.853-0.342,2.801-0.651c2.79-0.882,6.937-3.143,8.647-5.084
					c0.673-0.75,1.169-1.776,1.709-2.845c0.893-1.809,1.82-3.673,3.695-4.754l26.294-15.176c2.283-1.323,4.224-4.676,4.224-7.312
					V68.666c0-1.037-0.309-1.82-0.849-2.129c-0.54-0.32-1.379-0.188-2.272,0.331l-8.956,5.173c-0.298-0.673-0.684-1.323-1.125-1.897
					l8.978-5.184c1.621-0.948,3.22-1.059,4.478-0.342C217.487,65.346,218.182,66.791,218.182,68.666z"/>
			</g>
			<g id="Clip_1_">
				<g>
					<g>
						<path style="fill:#37474F;" d="M199.003,68.917l0.001,0.002c0.708-0.416,1.689-0.362,2.775,0.265
							c2.158,1.246,3.908,4.277,3.908,6.769c0,1.254-0.444,2.131-1.159,2.536l0.001,0.002l-62.381,36.022l-5.526-9.574
							L199.003,68.917z"/>
					</g>
					<path style="fill:#455A64;" d="M139.398,109.747l65.156-37.624c-0.708-1.234-1.689-2.313-2.775-2.94
						c-0.129-0.075-0.251-0.115-0.377-0.173l-64.14,37.037L139.398,109.747z"/>
					<path style="fill:#263238;" d="M139.398,105.205c-2.158-1.246-3.908-0.236-3.908,2.256c0,2.492,1.75,5.523,3.908,6.769
						c2.158,1.246,3.908,0.236,3.908-2.256C143.306,109.482,141.556,106.451,139.398,105.205z"/>
				</g>
				<g>
					<path style="fill:#455A64;" d="M219.29,69.632v13.583c0,3.441-2.349,7.5-5.327,9.22l-26.293,15.176
						c-1.301,0.75-2.04,2.25-2.824,3.827c-0.573,1.158-1.169,2.349-2.029,3.32c-2.04,2.316-6.496,4.731-9.639,5.735
						c-1.059,0.342-2.118,0.585-3.154,0.728c-0.397,0.066-0.838,0.121-1.29,0.177c-2.868,0.386-6.441,0.871-8.536,2.084
						l-30.771,17.757c-0.926,0.54-1.842,0.805-2.68,0.805c-0.651,0-1.257-0.154-1.798-0.463c-1.257-0.728-1.952-2.173-1.952-4.048
						V123.95c0-3.441,2.338-7.5,5.327-9.22l10.334-5.967c0.044-0.022,0.088-0.044,0.143-0.055c0.496-0.221,1.081-0.022,1.367,0.463
						c0.276,0.474,0.144,1.092-0.287,1.401c-0.033,0.044-0.077,0.077-0.121,0.099l-10.334,5.967
						c-2.283,1.324-4.224,4.676-4.224,7.312v13.583c0,1.048,0.309,1.82,0.849,2.129c0.54,0.32,1.368,0.188,2.272-0.331
						l30.771-17.768c2.47-1.423,6.286-1.941,9.342-2.349c0.452-0.055,0.882-0.122,1.279-0.177c0.904-0.132,1.853-0.342,2.801-0.651
						c2.79-0.882,6.937-3.143,8.647-5.084c0.673-0.75,1.169-1.776,1.709-2.845c0.893-1.809,1.82-3.673,3.695-4.754l26.293-15.176
						c2.283-1.323,4.224-4.676,4.224-7.312V69.632c0-1.037-0.309-1.82-0.849-2.129c-0.54-0.32-1.379-0.187-2.272,0.331l-8.956,5.173
						c-0.298-0.673-0.684-1.323-1.125-1.897l8.978-5.184c1.621-0.949,3.221-1.059,4.478-0.342
						C218.595,66.312,219.29,67.757,219.29,69.632z"/>
				</g>
			</g>
		</g>
		<g id="Title">
			<path style="fill:#455A64;" d="M122.884,166.712c0.174-0.101,0.304-0.113,0.39-0.041c0.088,0.073,0.164,0.213,0.23,0.421
				l3.989,11.417c0.01,0.037,0.016,0.085,0.016,0.142c0,0.16-0.045,0.323-0.131,0.489c-0.086,0.165-0.19,0.284-0.308,0.352
				l-1.172,0.677c-0.217,0.125-0.369,0.151-0.457,0.078c-0.086-0.073-0.147-0.157-0.179-0.255l-0.7-2.004l-5.145,2.971l-0.7,2.813
				c-0.032,0.136-0.092,0.289-0.179,0.462c-0.088,0.174-0.239,0.323-0.457,0.449l-1.172,0.676c-0.12,0.069-0.222,0.07-0.308,0.005
				c-0.088-0.064-0.131-0.178-0.131-0.338c0-0.057,0.006-0.111,0.016-0.16l3.989-16.023c0.065-0.283,0.142-0.511,0.229-0.685
				c0.086-0.173,0.217-0.311,0.39-0.41L122.884,166.712z M123.781,175.724l-1.791-5.151l-1.792,7.22L123.781,175.724z"/>
			<path style="fill:#455A64;" d="M133.451,160.611c0.802-0.463,1.501-0.723,2.092-0.784c0.591-0.059,1.086,0.057,1.482,0.349
				c0.395,0.294,0.7,0.747,0.912,1.362c0.211,0.616,0.338,1.367,0.383,2.254c0.042,1.047,0.042,2.118,0,3.212
				c-0.045,0.937-0.172,1.835-0.383,2.695c-0.212,0.861-0.513,1.665-0.905,2.411c-0.39,0.747-0.876,1.428-1.456,2.045
				c-0.581,0.618-1.263,1.153-2.044,1.604l-4.104,2.368c-0.118,0.068-0.222,0.07-0.309,0.004c-0.086-0.064-0.131-0.178-0.131-0.336
				v-14.025c0-0.158,0.044-0.321,0.131-0.486c0.086-0.167,0.19-0.284,0.309-0.353L133.451,160.611z M136.121,165.061
				c-0.021-0.449-0.09-0.842-0.202-1.175c-0.115-0.331-0.283-0.58-0.505-0.75c-0.223-0.167-0.502-0.237-0.839-0.21
				c-0.337,0.03-0.738,0.178-1.204,0.447l-2.182,1.259v9.768l2.263-1.307c0.444-0.257,0.831-0.561,1.156-0.916
				c0.325-0.355,0.596-0.738,0.813-1.154c0.217-0.413,0.382-0.858,0.497-1.329c0.112-0.471,0.181-0.943,0.202-1.419
				C136.165,167.179,136.165,166.108,136.121,165.061z"/>
			<path style="fill:#455A64;" d="M144.213,165.296l2.736-11.934c0.032-0.135,0.089-0.286,0.17-0.457s0.204-0.302,0.367-0.396
				l1.238-0.715c0.12-0.069,0.222-0.07,0.309-0.005c0.088,0.067,0.13,0.178,0.13,0.338c0,0.03,0,0.054,0,0.076
				c0,0.02-0.01,0.074-0.032,0.158l-3.646,15.76c-0.065,0.284-0.143,0.513-0.23,0.686c-0.086,0.173-0.217,0.31-0.39,0.41
				l-1.303,0.753c-0.174,0.1-0.302,0.114-0.39,0.039c-0.088-0.071-0.163-0.212-0.228-0.421l-3.647-11.549
				c-0.021-0.059-0.032-0.101-0.032-0.122c0-0.022,0-0.047,0-0.076c0-0.159,0.043-0.321,0.13-0.486
				c0.088-0.168,0.19-0.284,0.31-0.353l1.238-0.716c0.163-0.094,0.284-0.101,0.365-0.025c0.081,0.076,0.139,0.16,0.172,0.259
				L144.213,165.296z"/>
			<path style="fill:#455A64;" d="M155.414,147.931c0.173-0.1,0.304-0.113,0.39-0.04c0.088,0.072,0.163,0.212,0.228,0.42
				l3.989,11.418c0.011,0.037,0.016,0.084,0.016,0.142c0,0.159-0.043,0.322-0.13,0.487c-0.088,0.165-0.191,0.284-0.31,0.353
				l-1.172,0.676c-0.217,0.126-0.368,0.151-0.457,0.079c-0.086-0.073-0.146-0.158-0.178-0.255l-0.7-2.005l-5.145,2.972l-0.701,2.813
				c-0.032,0.135-0.091,0.289-0.178,0.46c-0.088,0.175-0.239,0.323-0.457,0.449l-1.172,0.676c-0.12,0.069-0.222,0.071-0.309,0.005
				c-0.088-0.064-0.131-0.178-0.131-0.337c0-0.058,0.005-0.112,0.016-0.162l3.989-16.022c0.065-0.284,0.141-0.511,0.228-0.686
				c0.086-0.173,0.217-0.31,0.39-0.41L155.414,147.931z M156.31,156.944l-1.792-5.153l-1.791,7.221L156.31,156.944z"/>
			<path style="fill:#455A64;" d="M168.911,155.335c-0.185,0.107-0.326,0.122-0.423,0.049c-0.098-0.075-0.169-0.135-0.211-0.183
				l-4.559-6.399v8.945c0,0.158-0.044,0.322-0.131,0.486c-0.088,0.168-0.19,0.284-0.31,0.353l-1.318,0.763
				c-0.12,0.068-0.223,0.069-0.31,0.004s-0.13-0.178-0.13-0.337v-14.024c0-0.159,0.043-0.322,0.13-0.488
				c0.086-0.165,0.19-0.284,0.31-0.353l1.14-0.658c0.184-0.106,0.325-0.122,0.422-0.048c0.098,0.074,0.168,0.133,0.212,0.182
				l4.559,6.399v-8.945c0-0.158,0.043-0.321,0.13-0.486c0.086-0.167,0.19-0.284,0.31-0.353l1.318-0.761
				c0.12-0.069,0.222-0.07,0.31-0.005c0.086,0.065,0.131,0.178,0.131,0.337v14.024c0,0.159-0.044,0.322-0.131,0.488
				c-0.088,0.167-0.19,0.284-0.31,0.353L168.911,155.335z"/>
			<path style="fill:#455A64;" d="M180.618,133.381c0.118-0.069,0.222-0.072,0.309-0.005c0.086,0.067,0.131,0.178,0.131,0.337v1.541
				c0,0.159-0.044,0.323-0.131,0.487c-0.086,0.167-0.19,0.284-0.309,0.352l-2.931,1.693v11.895c0,0.161-0.045,0.323-0.131,0.489
				c-0.086,0.165-0.19,0.284-0.309,0.352l-1.319,0.762c-0.12,0.069-0.223,0.072-0.31,0.005c-0.086-0.064-0.13-0.178-0.13-0.337
				v-11.896l-2.931,1.692c-0.118,0.068-0.222,0.07-0.309,0.004c-0.088-0.064-0.131-0.178-0.131-0.336v-1.543
				c0-0.158,0.043-0.321,0.131-0.486c0.086-0.167,0.19-0.284,0.309-0.353L180.618,133.381z"/>
			<path style="fill:#455A64;" d="M186.885,129.762c0.173-0.101,0.304-0.114,0.39-0.041c0.088,0.073,0.164,0.214,0.228,0.421
				l3.989,11.417c0.011,0.037,0.016,0.085,0.016,0.142c0,0.16-0.043,0.323-0.13,0.489c-0.086,0.165-0.19,0.284-0.31,0.352
				l-1.173,0.678c-0.216,0.125-0.368,0.15-0.455,0.078c-0.088-0.073-0.147-0.157-0.179-0.255l-0.7-2.004l-5.145,2.971l-0.701,2.813
				c-0.032,0.136-0.091,0.289-0.178,0.462c-0.088,0.174-0.239,0.323-0.457,0.449l-1.172,0.676c-0.12,0.069-0.222,0.07-0.309,0.005
				c-0.088-0.064-0.131-0.178-0.131-0.338c0-0.057,0.005-0.111,0.016-0.161l3.989-16.023c0.066-0.283,0.141-0.511,0.228-0.685
				c0.088-0.173,0.217-0.311,0.39-0.41L186.885,129.762z M187.781,138.774l-1.792-5.151l-1.791,7.22L187.781,138.774z"/>
			<path style="fill:#455A64;" d="M192.354,132.225c0.022-0.881,0.142-1.743,0.358-2.583c0.218-0.843,0.533-1.639,0.945-2.391
				c0.412-0.752,0.921-1.444,1.522-2.073c0.604-0.629,1.306-1.177,2.109-1.641c0.944-0.544,1.723-0.832,2.336-0.859
				c0.613-0.03,1.102,0.08,1.465,0.326c0.364,0.246,0.62,0.57,0.765,0.969c0.147,0.401,0.231,0.761,0.253,1.081
				c0.01,0.168-0.031,0.332-0.122,0.494c-0.093,0.162-0.199,0.278-0.317,0.347l-1.319,0.76c-0.12,0.069-0.215,0.085-0.285,0.046
				c-0.07-0.038-0.122-0.093-0.156-0.159c-0.021-0.047-0.078-0.139-0.169-0.283c-0.094-0.142-0.239-0.259-0.441-0.353
				c-0.201-0.094-0.464-0.131-0.79-0.11c-0.325,0.022-0.732,0.174-1.22,0.457c-0.815,0.469-1.465,1.139-1.954,2.007
				s-0.749,1.804-0.781,2.806c-0.023,0.563-0.033,1.158-0.033,1.787c0,0.632,0.01,1.214,0.033,1.751
				c0.032,1.184,0.293,1.904,0.781,2.166c0.489,0.259,1.139,0.155,1.954-0.316c0.401-0.232,0.77-0.502,1.107-0.812
				c0.336-0.309,0.627-0.666,0.871-1.068c0.243-0.401,0.433-0.854,0.569-1.359c0.136-0.506,0.204-1.069,0.204-1.693v-0.173
				l-1.986,1.148c-0.12,0.069-0.222,0.069-0.31,0.005c-0.086-0.067-0.13-0.179-0.13-0.338v-1.541c0-0.159,0.043-0.321,0.13-0.488
				c0.088-0.165,0.19-0.284,0.31-0.353l3.744-2.162c0.12-0.068,0.223-0.069,0.31-0.004c0.086,0.065,0.13,0.178,0.13,0.337v2.388
				c0,0.868-0.104,1.727-0.31,2.577c-0.206,0.85-0.515,1.659-0.927,2.425c-0.413,0.766-0.928,1.476-1.548,2.13
				c-0.618,0.654-1.34,1.219-2.165,1.696c-0.826,0.476-1.542,0.745-2.15,0.806c-0.609,0.063-1.112-0.053-1.513-0.342
				c-0.402-0.289-0.708-0.738-0.921-1.345c-0.211-0.61-0.328-1.341-0.35-2.197c-0.01-0.269-0.018-0.568-0.023-0.898
				c-0.006-0.328-0.009-0.669-0.009-1.017c0-0.346,0.002-0.686,0.009-1.024C192.336,132.815,192.345,132.507,192.354,132.225z"/>
			<path style="fill:#455A64;" d="M211.876,127.815c0.118-0.069,0.222-0.07,0.309-0.005c0.088,0.067,0.131,0.178,0.131,0.338v1.54
				c0,0.161-0.043,0.323-0.131,0.489c-0.086,0.165-0.19,0.284-0.309,0.352l-7.148,4.127c-0.118,0.068-0.222,0.07-0.309,0.004
				c-0.086-0.064-0.131-0.178-0.131-0.336v-14.025c0-0.158,0.044-0.321,0.131-0.486c0.086-0.167,0.19-0.284,0.309-0.353l7.019-4.052
				c0.12-0.069,0.222-0.07,0.309-0.004c0.086,0.065,0.13,0.178,0.13,0.336v1.543c0,0.158-0.043,0.322-0.13,0.486
				c-0.086,0.167-0.189,0.284-0.309,0.353l-5.259,3.036v3.452l4.9-2.83c0.12-0.068,0.223-0.069,0.31-0.005
				c0.086,0.067,0.13,0.179,0.13,0.338v1.542c0,0.159-0.043,0.322-0.13,0.487c-0.086,0.165-0.19,0.283-0.31,0.351l-4.9,2.83v3.604
				L211.876,127.815z"/>
			<path style="fill:#455A64;" d="M218.242,111.44c0.727-0.42,1.369-0.659,1.922-0.718c0.554-0.059,1.014,0,1.383,0.179
				c0.37,0.176,0.649,0.445,0.839,0.806c0.189,0.362,0.295,0.745,0.317,1.153c0.011,0.168-0.03,0.332-0.122,0.494
				c-0.093,0.163-0.199,0.278-0.317,0.346l-1.14,0.659c-0.184,0.106-0.322,0.14-0.415,0.098c-0.091-0.041-0.176-0.117-0.252-0.233
				c-0.164-0.267-0.411-0.439-0.741-0.516c-0.332-0.077-0.823,0.071-1.475,0.448c-0.281,0.163-0.55,0.359-0.806,0.585
				c-0.255,0.226-0.478,0.47-0.666,0.732c-0.19,0.262-0.341,0.533-0.448,0.812c-0.109,0.281-0.163,0.558-0.163,0.833
				c0,0.333,0.051,0.575,0.154,0.724c0.102,0.151,0.276,0.231,0.521,0.242c0.244,0.01,0.568-0.035,0.969-0.136
				c0.401-0.101,0.901-0.238,1.498-0.409c0.652-0.189,1.213-0.293,1.685-0.312c0.473-0.02,0.858,0.064,1.156,0.246
				c0.299,0.182,0.521,0.462,0.668,0.84c0.146,0.379,0.22,0.864,0.22,1.459c0,0.649-0.109,1.318-0.326,1.999
				c-0.217,0.684-0.527,1.34-0.928,1.968c-0.401,0.631-0.895,1.231-1.482,1.801c-0.585,0.57-1.242,1.064-1.97,1.485
				c-0.608,0.352-1.189,0.589-1.743,0.712c-0.553,0.125-1.044,0.126-1.472,0.004c-0.429-0.121-0.774-0.367-1.034-0.737
				c-0.26-0.37-0.406-0.865-0.439-1.483c-0.011-0.168,0.03-0.333,0.122-0.494c0.092-0.162,0.199-0.276,0.317-0.345l1.14-0.659
				c0.184-0.106,0.325-0.143,0.423-0.113c0.098,0.03,0.178,0.113,0.243,0.249c0.076,0.144,0.169,0.279,0.278,0.405
				s0.254,0.207,0.439,0.246c0.184,0.038,0.415,0.025,0.692-0.041c0.277-0.067,0.621-0.219,1.033-0.457
				c0.326-0.188,0.641-0.402,0.945-0.643c0.304-0.241,0.569-0.502,0.797-0.786c0.227-0.284,0.412-0.578,0.553-0.884
				c0.142-0.306,0.212-0.624,0.212-0.958c0-0.318-0.077-0.536-0.228-0.652c-0.152-0.114-0.383-0.153-0.692-0.121
				c-0.309,0.035-0.691,0.118-1.146,0.25c-0.457,0.135-0.984,0.271-1.58,0.413c-0.543,0.139-1.018,0.207-1.426,0.202
				c-0.406-0.002-0.743-0.101-1.008-0.296c-0.266-0.194-0.465-0.487-0.595-0.884c-0.13-0.395-0.195-0.917-0.195-1.569
				c0-0.652,0.107-1.314,0.325-1.989c0.218-0.676,0.517-1.319,0.896-1.928c0.38-0.611,0.833-1.18,1.36-1.708
				C217.068,112.23,217.633,111.791,218.242,111.44z"/>
		</g>
		<g>
			<g>
				<g id="Image">
					<g style="opacity:0.2;">
						<path d="M106.394,201.674l150.175-86.741c0.634-0.366,1.147-0.069,1.147,0.663l0,35.836c0,0.732-0.514,1.622-1.147,1.987
							L106.394,240.16c-0.634,0.366-1.147,0.069-1.147-0.662l0-35.836C105.246,202.93,105.76,202.04,106.394,201.674z"/>
					</g>
					<g id="XMLID_3827_">
						<path id="XMLID_00000058565216822914025640000003909829283754977468_" style="fill:#BA68C8;" d="M264.54,119.678
							c-0.356-0.159-0.833-0.112-1.348,0.187l-148.434,85.736c-1.113,0.646-2.021,2.218-2.021,3.509v33.979
							c0,0.617,0.206,1.067,0.552,1.291c-0.346-0.225-3.406-1.956-3.78-2.18c-0.356-0.215-0.58-0.664-0.58-1.301V206.92
							c0-1.291,0.908-2.863,2.03-3.509l148.425-85.745c0.571-0.327,1.085-0.346,1.45-0.131
							C261.162,117.731,263.819,119.238,264.54,119.678z"/>
						<g id="XMLID_3828_" style="opacity:0.2;">
							<path style="fill:#FFFFFF;" d="M264.54,119.678c-0.721-0.44-3.378-1.946-3.706-2.143c-0.365-0.215-0.88-0.197-1.45,0.131
								l-148.425,85.745c-0.56,0.322-1.067,0.875-1.434,1.509l3.804,2.196c0.366-0.636,0.872-1.192,1.429-1.515l148.434-85.736
								C263.707,119.565,264.184,119.519,264.54,119.678z"/>
						</g>
						<g>
							<path id="XMLID_3830_" style="fill:#FAFAFA;" d="M114.759,205.602l148.43-85.737c1.119-0.646,2.026-0.122,2.026,1.17v33.981
								c0,1.292-0.907,2.863-2.026,3.509l-148.43,85.737c-1.119,0.646-2.026,0.122-2.026-1.17v-33.98
								C112.733,207.819,113.64,206.248,114.759,205.602z"/>
						</g>
						<path id="XMLID_3829_" style="fill:#BA68C8;" d="M113.329,207.116l-3.804-2.196c-0.369,0.636-0.597,1.354-0.597,2V240.9
							c0,0.636,0.225,1.085,0.58,1.301c0.374,0.225,3.434,1.956,3.78,2.18c-0.346-0.225-0.552-0.674-0.552-1.291V209.11
							C112.737,208.465,112.964,207.75,113.329,207.116z"/>
						<path id="XMLID_00000013194044898479972820000017584842303494603962_" style="opacity:0.15;" d="M113.329,207.116
							l-3.804-2.196c-0.369,0.636-0.597,1.354-0.597,2V240.9c0,0.636,0.225,1.085,0.58,1.301c0.374,0.225,3.434,1.956,3.78,2.18
							c-0.346-0.225-0.552-0.674-0.552-1.291V209.11C112.737,208.465,112.964,207.75,113.329,207.116z"/>
					</g>
					<path id="XMLID_3824_" style="fill:#BA68C8;" d="M264.094,120.524c0.18,0,0.185,0.458,0.185,0.511v33.981
						c0,0.958-0.728,2.219-1.558,2.699l-148.43,85.737c-0.236,0.136-0.384,0.151-0.437,0.151c-0.18,0-0.185-0.458-0.185-0.511
						v-33.98c0-0.958,0.728-2.22,1.558-2.699l148.43-85.737C263.893,120.539,264.041,120.524,264.094,120.524 M264.094,119.588
						c-0.272,0-0.58,0.089-0.905,0.277l-148.43,85.737c-1.119,0.646-2.026,2.217-2.026,3.509v33.98c0,0.916,0.456,1.446,1.121,1.446
						c0.272,0,0.58-0.089,0.905-0.277l148.43-85.737c1.119-0.646,2.026-2.217,2.026-3.509v-33.981
						C265.215,120.118,264.758,119.588,264.094,119.588L264.094,119.588z"/>
				</g>
				<g>
					<g>
						<path style="fill:#BA68C8;" d="M141.33,202.666c2.017,1.164,3.264,3.661,3.264,7.215c0,7.107-4.99,15.749-11.144,19.302
							c-3.077,1.777-5.863,1.945-7.88,0.781c-1.225-0.707-2.329-1.344-3.553-2.051c-2.017-1.164-3.264-3.662-3.264-7.215
							c0-7.107,4.99-15.749,11.145-19.303c3.077-1.777,5.863-1.945,7.88-0.78C139.002,201.322,140.106,201.959,141.33,202.666z"/>
						<path style="opacity:0.2;" d="M141.33,202.666c2.017,1.164,3.264,3.661,3.264,7.215c0,7.107-4.99,15.749-11.144,19.302
							c-3.077,1.777-5.863,1.945-7.88,0.781c-1.225-0.707-2.329-1.344-3.553-2.051c-2.017-1.164-3.264-3.662-3.264-7.215
							c0-7.107,4.99-15.749,11.145-19.303c3.077-1.777,5.863-1.945,7.88-0.78C139.002,201.322,140.106,201.959,141.33,202.666z"/>
						<path style="fill:#BA68C8;" d="M133.45,229.184c-3.077,1.777-5.863,1.945-7.88,0.78c-2.017-1.164-3.264-3.661-3.264-7.215
							c0-7.107,4.99-15.749,11.144-19.303c3.077-1.777,5.864-1.945,7.88-0.781c2.017,1.164,3.264,3.661,3.264,7.215
							C144.594,216.988,139.605,225.63,133.45,229.184z"/>
					</g>
					<path style="fill:#FAFAFA;" d="M139.37,211.297l-4.72,2.725v-6.293c0-0.884-0.537-1.29-1.2-0.907s-1.2,1.409-1.2,2.293v6.293
						l-4.72,2.725c-0.663,0.383-1.2,1.409-1.2,2.293c0,0.884,0.537,1.29,1.2,0.907l4.72-2.725v6.293c0,0.884,0.537,1.29,1.2,0.907
						c0.663-0.383,1.2-1.409,1.2-2.293v-6.293l4.72-2.725c0.663-0.383,1.2-1.409,1.2-2.293
						C140.57,211.321,140.033,210.914,139.37,211.297z"/>
				</g>
				<path style="fill:#E0E0E0;" d="M152.264,199.686l104.517-60.366c1.377-0.795,2.494-2.929,2.494-4.765
					c0-1.837-1.116-2.681-2.494-1.885l-104.517,60.366c-1.377,0.795-2.494,2.929-2.494,4.765
					C149.77,199.637,150.887,200.482,152.264,199.686z M256.781,146.668l-104.517,60.366c-1.377,0.795-2.494,2.929-2.494,4.765
					s1.117,2.681,2.494,1.885l104.517-60.366c1.377-0.795,2.494-2.929,2.494-4.765v0
					C259.275,146.717,258.159,145.873,256.781,146.668z"/>
			</g>
			<g>
				<g id="Image_00000180358050758612745440000013239158506222870456_">
					<g style="opacity:0.2;">
						<path d="M106.394,256.251l150.175-86.741c0.634-0.366,1.147-0.069,1.147,0.663l0,35.836c0,0.732-0.514,1.622-1.147,1.987
							l-150.175,86.741c-0.634,0.366-1.147,0.069-1.147-0.663l0-35.836C105.246,257.507,105.76,256.617,106.394,256.251z"/>
					</g>
					<g id="XMLID_00000045619778887093191140000005521726163055697043_">
						<path id="XMLID_00000124137004472259909160000008242059925686657209_" style="fill:#BA68C8;" d="M264.54,174.254
							c-0.356-0.159-0.833-0.112-1.348,0.187l-148.434,85.736c-1.113,0.646-2.021,2.218-2.021,3.509v33.979
							c0,0.618,0.206,1.067,0.552,1.291c-0.346-0.225-3.406-1.956-3.78-2.18c-0.356-0.215-0.58-0.664-0.58-1.301v-33.979
							c0-1.291,0.908-2.863,2.03-3.509l148.425-85.745c0.571-0.327,1.085-0.346,1.45-0.131
							C261.162,172.308,263.819,173.814,264.54,174.254z"/>
						<g id="XMLID_00000165213969585195760390000005709824323905308600_" style="opacity:0.2;">
							<path style="fill:#FFFFFF;" d="M264.54,174.254c-0.721-0.44-3.378-1.946-3.706-2.143c-0.365-0.215-0.88-0.197-1.45,0.131
								l-148.425,85.745c-0.56,0.322-1.067,0.875-1.434,1.509l3.804,2.196c0.366-0.636,0.872-1.192,1.429-1.515l148.434-85.736
								C263.707,174.142,264.184,174.095,264.54,174.254z"/>
						</g>
						<g>
							<path id="XMLID_00000062164308427389708260000002196050764173846435_" style="fill:#FAFAFA;" d="M114.759,260.178
								l148.43-85.737c1.119-0.646,2.026-0.122,2.026,1.17v33.981c0,1.292-0.907,2.863-2.026,3.509l-148.43,85.737
								c-1.119,0.646-2.026,0.122-2.026-1.17v-33.981C112.733,262.396,113.64,260.824,114.759,260.178z"/>
						</g>
						<path id="XMLID_00000088105658184771197660000001947039554586632870_" style="fill:#BA68C8;" d="M113.329,261.692
							l-3.804-2.196c-0.369,0.636-0.597,1.353-0.597,2v33.979c0,0.636,0.225,1.086,0.58,1.301c0.374,0.225,3.434,1.956,3.78,2.18
							c-0.346-0.225-0.552-0.674-0.552-1.291v-33.979C112.737,263.042,112.964,262.327,113.329,261.692z"/>
						<path id="XMLID_00000143599005638242608140000008427694130833330077_" style="opacity:0.15;" d="M113.329,261.692
							l-3.804-2.196c-0.369,0.636-0.597,1.353-0.597,2v33.979c0,0.636,0.225,1.086,0.58,1.301c0.374,0.225,3.434,1.956,3.78,2.18
							c-0.346-0.225-0.552-0.674-0.552-1.291v-33.979C112.737,263.042,112.964,262.327,113.329,261.692z"/>
					</g>
					<path id="XMLID_00000097495358838513232150000012498245457521533080_" style="fill:#BA68C8;" d="M264.094,175.1
						c0.18,0,0.185,0.458,0.185,0.511v33.981c0,0.958-0.728,2.219-1.558,2.699l-148.43,85.737c-0.236,0.137-0.384,0.151-0.437,0.151
						c-0.18,0-0.185-0.458-0.185-0.511v-33.981c0-0.958,0.728-2.219,1.558-2.699l148.43-85.737
						C263.893,175.115,264.041,175.1,264.094,175.1 M264.094,174.165c-0.272,0-0.58,0.089-0.905,0.277l-148.43,85.737
						c-1.119,0.646-2.026,2.217-2.026,3.509v33.981c0,0.916,0.456,1.446,1.121,1.446c0.272,0,0.58-0.089,0.905-0.277l148.43-85.737
						c1.119-0.646,2.026-2.217,2.026-3.509v-33.981C265.215,174.694,264.758,174.165,264.094,174.165L264.094,174.165z"/>
				</g>
				<g>
					<g>
						<path style="fill:#BA68C8;" d="M141.33,257.242c2.017,1.164,3.264,3.661,3.264,7.215c0,7.107-4.99,15.749-11.144,19.302
							c-3.077,1.777-5.863,1.945-7.88,0.781c-1.225-0.707-2.329-1.344-3.553-2.051c-2.017-1.164-3.264-3.662-3.264-7.215
							c0-7.108,4.99-15.749,11.145-19.303c3.077-1.777,5.863-1.945,7.88-0.78C139.002,255.898,140.106,256.535,141.33,257.242z"/>
						<path style="opacity:0.2;" d="M141.33,257.242c2.017,1.164,3.264,3.661,3.264,7.215c0,7.107-4.99,15.749-11.144,19.302
							c-3.077,1.777-5.863,1.945-7.88,0.781c-1.225-0.707-2.329-1.344-3.553-2.051c-2.017-1.164-3.264-3.662-3.264-7.215
							c0-7.108,4.99-15.749,11.145-19.303c3.077-1.777,5.863-1.945,7.88-0.78C139.002,255.898,140.106,256.535,141.33,257.242z"/>
						<path style="fill:#BA68C8;" d="M133.45,283.76c-3.077,1.777-5.863,1.945-7.88,0.78c-2.017-1.164-3.264-3.661-3.264-7.215
							c0-7.107,4.99-15.749,11.144-19.303c3.077-1.777,5.864-1.945,7.88-0.78c2.017,1.164,3.264,3.661,3.264,7.215
							C144.594,271.564,139.605,280.207,133.45,283.76z"/>
					</g>
					<path style="fill:#FAFAFA;" d="M139.37,265.873l-4.72,2.725v-6.293c0-0.884-0.537-1.29-1.2-0.907s-1.2,1.409-1.2,2.293v6.293
						l-4.72,2.725c-0.663,0.383-1.2,1.409-1.2,2.293s0.537,1.29,1.2,0.907l4.72-2.725v6.293c0,0.884,0.537,1.29,1.2,0.907
						c0.663-0.383,1.2-1.409,1.2-2.293v-6.293l4.72-2.725c0.663-0.383,1.2-1.409,1.2-2.293S140.033,265.491,139.37,265.873z"/>
				</g>
				<path style="fill:#E0E0E0;" d="M152.264,254.263l104.517-60.366c1.377-0.795,2.494-2.929,2.494-4.765
					c0-1.837-1.116-2.681-2.494-1.885l-104.517,60.366c-1.377,0.795-2.494,2.929-2.494,4.765
					C149.77,254.214,150.887,255.058,152.264,254.263z M256.781,201.244l-104.517,60.366c-1.377,0.795-2.494,2.929-2.494,4.765
					s1.117,2.681,2.494,1.885l104.517-60.366c1.377-0.795,2.494-2.929,2.494-4.765v0
					C259.275,201.293,258.159,200.449,256.781,201.244z"/>
			</g>
			<g>
				<g id="Image_00000137842010518300455130000006215679231586806442_">
					<g style="opacity:0.2;">
						<path d="M106.394,310.827l150.175-86.741c0.634-0.366,1.147-0.069,1.147,0.663l0,35.836c0,0.732-0.514,1.622-1.147,1.988
							l-150.175,86.741c-0.634,0.366-1.147,0.069-1.147-0.663l0-35.836C105.246,312.083,105.76,311.193,106.394,310.827z"/>
					</g>
					<g id="XMLID_00000067934953401047872410000000668940622366822542_">
						<path id="XMLID_00000062903267560388004420000004176506688672286611_" style="fill:#BA68C8;" d="M264.54,228.83
							c-0.356-0.159-0.833-0.112-1.348,0.187l-148.434,85.736c-1.113,0.646-2.021,2.218-2.021,3.509v33.979
							c0,0.617,0.206,1.067,0.552,1.291c-0.346-0.225-3.406-1.956-3.78-2.18c-0.356-0.215-0.58-0.664-0.58-1.301v-33.979
							c0-1.291,0.908-2.863,2.03-3.509l148.425-85.745c0.571-0.327,1.085-0.346,1.45-0.131
							C261.162,226.884,263.819,228.391,264.54,228.83z"/>
						<g id="XMLID_00000087380354410882412240000000651894025690008709_" style="opacity:0.2;">
							<path style="fill:#FFFFFF;" d="M264.54,228.83c-0.721-0.44-3.378-1.946-3.706-2.143c-0.365-0.215-0.88-0.197-1.45,0.131
								l-148.425,85.745c-0.56,0.322-1.067,0.875-1.434,1.509l3.804,2.196c0.366-0.636,0.872-1.192,1.429-1.515l148.434-85.736
								C263.707,228.718,264.184,228.671,264.54,228.83z"/>
						</g>
						<g>
							<path id="XMLID_00000039128156273587809710000005874536224899947656_" style="fill:#FAFAFA;" d="M114.759,314.755
								l148.43-85.737c1.119-0.646,2.026-0.122,2.026,1.17v33.981c0,1.292-0.907,2.863-2.026,3.509l-148.43,85.737
								c-1.119,0.646-2.026,0.122-2.026-1.17v-33.981C112.733,316.972,113.64,315.401,114.759,314.755z"/>
						</g>
						<path id="XMLID_00000137825674426992524910000015031501271737564324_" style="fill:#BA68C8;" d="M113.329,316.269
							l-3.804-2.196c-0.369,0.636-0.597,1.353-0.597,2v33.979c0,0.636,0.225,1.085,0.58,1.301c0.374,0.225,3.434,1.956,3.78,2.18
							c-0.346-0.225-0.552-0.674-0.552-1.291v-33.979C112.737,317.618,112.964,316.903,113.329,316.269z"/>
						<path id="XMLID_00000088845851459961615560000017156130802137725590_" style="opacity:0.15;" d="M113.329,316.269
							l-3.804-2.196c-0.369,0.636-0.597,1.353-0.597,2v33.979c0,0.636,0.225,1.085,0.58,1.301c0.374,0.225,3.434,1.956,3.78,2.18
							c-0.346-0.225-0.552-0.674-0.552-1.291v-33.979C112.737,317.618,112.964,316.903,113.329,316.269z"/>
					</g>
					<path id="XMLID_00000067945569556013034600000017297500540690208923_" style="fill:#BA68C8;" d="M264.094,229.677
						c0.18,0,0.185,0.458,0.185,0.511v33.981c0,0.958-0.728,2.219-1.558,2.699l-148.43,85.737c-0.236,0.137-0.384,0.151-0.437,0.151
						c-0.18,0-0.185-0.458-0.185-0.511v-33.981c0-0.958,0.728-2.219,1.558-2.699l148.43-85.737
						C263.893,229.692,264.041,229.677,264.094,229.677 M264.094,228.741c-0.272,0-0.58,0.089-0.905,0.277l-148.43,85.737
						c-1.119,0.646-2.026,2.217-2.026,3.509v33.981c0,0.916,0.456,1.446,1.121,1.446c0.272,0,0.58-0.089,0.905-0.277l148.43-85.737
						c1.119-0.646,2.026-2.217,2.026-3.509v-33.981C265.215,229.271,264.758,228.741,264.094,228.741L264.094,228.741z"/>
				</g>
				<g>
					<g>
						<path style="fill:#BA68C8;" d="M141.33,311.819c2.017,1.164,3.264,3.661,3.264,7.215c0,7.107-4.99,15.749-11.144,19.303
							c-3.077,1.777-5.863,1.945-7.88,0.781c-1.225-0.707-2.329-1.344-3.553-2.051c-2.017-1.164-3.264-3.662-3.264-7.215
							c0-7.107,4.99-15.749,11.145-19.303c3.077-1.777,5.863-1.945,7.88-0.78C139.002,310.474,140.106,311.112,141.33,311.819z"/>
						<path style="opacity:0.2;" d="M141.33,311.819c2.017,1.164,3.264,3.661,3.264,7.215c0,7.107-4.99,15.749-11.144,19.303
							c-3.077,1.777-5.863,1.945-7.88,0.781c-1.225-0.707-2.329-1.344-3.553-2.051c-2.017-1.164-3.264-3.662-3.264-7.215
							c0-7.107,4.99-15.749,11.145-19.303c3.077-1.777,5.863-1.945,7.88-0.78C139.002,310.474,140.106,311.112,141.33,311.819z"/>
						<path style="fill:#BA68C8;" d="M133.45,338.336c-3.077,1.777-5.863,1.945-7.88,0.78c-2.017-1.164-3.264-3.661-3.264-7.215
							c0-7.107,4.99-15.749,11.144-19.303c3.077-1.777,5.864-1.945,7.88-0.781c2.017,1.165,3.264,3.661,3.264,7.215
							C144.594,326.141,139.605,334.783,133.45,338.336z"/>
					</g>
					<path style="fill:#FAFAFA;" d="M139.37,320.45l-4.72,2.725v-6.293c0-0.884-0.537-1.29-1.2-0.907s-1.2,1.409-1.2,2.293v6.293
						l-4.72,2.725c-0.663,0.383-1.2,1.409-1.2,2.293s0.537,1.29,1.2,0.907l4.72-2.725v6.293c0,0.884,0.537,1.29,1.2,0.907
						c0.663-0.383,1.2-1.409,1.2-2.293v-6.293l4.72-2.725c0.663-0.383,1.2-1.409,1.2-2.293S140.033,320.067,139.37,320.45z"/>
				</g>
				<path style="fill:#E0E0E0;" d="M152.264,308.839l104.517-60.366c1.377-0.795,2.494-2.929,2.494-4.765
					c0-1.836-1.116-2.68-2.494-1.885l-104.517,60.366c-1.377,0.795-2.494,2.929-2.494,4.765
					C149.77,308.79,150.887,309.634,152.264,308.839z M256.781,255.821l-104.517,60.366c-1.377,0.795-2.494,2.929-2.494,4.765
					c0,1.837,1.117,2.681,2.494,1.885l104.517-60.366c1.377-0.795,2.494-2.929,2.494-4.765l0,0
					C259.275,255.87,258.159,255.025,256.781,255.821z"/>
			</g>
			<g>
				<g id="Image_00000009563351310336988450000016840850033163741613_">
					<g style="opacity:0.2;">
						<path d="M106.394,365.404l150.175-86.741c0.634-0.366,1.147-0.069,1.147,0.663l0,35.836c0,0.732-0.514,1.622-1.147,1.988
							l-150.175,86.741c-0.634,0.366-1.147,0.069-1.147-0.663l0-35.836C105.246,366.659,105.76,365.77,106.394,365.404z"/>
					</g>
					<g id="XMLID_00000030448826014601502000000013196023419603893152_">
						<path id="XMLID_00000057137122318151470680000005480417761140786101_" style="fill:#BA68C8;" d="M264.54,283.407
							c-0.356-0.159-0.833-0.112-1.348,0.187L114.758,369.33c-1.113,0.646-2.021,2.218-2.021,3.509v33.979
							c0,0.618,0.206,1.067,0.552,1.291c-0.346-0.225-3.406-1.956-3.78-2.18c-0.356-0.215-0.58-0.664-0.58-1.301v-33.979
							c0-1.291,0.908-2.863,2.03-3.509l148.425-85.745c0.571-0.327,1.085-0.346,1.45-0.131
							C261.162,281.461,263.819,282.967,264.54,283.407z"/>
						<g id="XMLID_00000085949361643556058170000018074495394443546002_" style="opacity:0.2;">
							<path style="fill:#FFFFFF;" d="M264.54,283.407c-0.721-0.44-3.378-1.946-3.706-2.143c-0.365-0.215-0.88-0.197-1.45,0.131
								L110.959,367.14c-0.56,0.322-1.067,0.875-1.434,1.509l3.804,2.196c0.366-0.636,0.872-1.192,1.429-1.515l148.434-85.736
								C263.707,283.295,264.184,283.248,264.54,283.407z"/>
						</g>
						<g>
							<path id="XMLID_00000129178473959322882020000006645496952610810803_" style="fill:#FAFAFA;" d="M114.759,369.331
								l148.43-85.737c1.119-0.646,2.026-0.122,2.026,1.17v33.981c0,1.292-0.907,2.863-2.026,3.509l-148.43,85.737
								c-1.119,0.646-2.026,0.122-2.026-1.17v-33.98C112.733,371.548,113.64,369.977,114.759,369.331z"/>
						</g>
						<path id="XMLID_00000087377490724483173190000005480950546007107760_" style="fill:#BA68C8;" d="M113.329,370.845
							l-3.804-2.196c-0.369,0.636-0.597,1.353-0.597,2v33.979c0,0.636,0.225,1.085,0.58,1.301c0.374,0.225,3.434,1.956,3.78,2.18
							c-0.346-0.225-0.552-0.674-0.552-1.291v-33.979C112.737,372.194,112.964,371.479,113.329,370.845z"/>
						<path id="XMLID_00000119817875834381030410000013392333312555959425_" style="opacity:0.15;" d="M113.329,370.845
							l-3.804-2.196c-0.369,0.636-0.597,1.353-0.597,2v33.979c0,0.636,0.225,1.085,0.58,1.301c0.374,0.225,3.434,1.956,3.78,2.18
							c-0.346-0.225-0.552-0.674-0.552-1.291v-33.979C112.737,372.194,112.964,371.479,113.329,370.845z"/>
					</g>
					<path id="XMLID_00000173855283048882211610000017987038803929516687_" style="fill:#BA68C8;" d="M264.094,284.253
						c0.18,0,0.185,0.458,0.185,0.511v33.981c0,0.958-0.728,2.219-1.558,2.699l-148.43,85.737c-0.236,0.137-0.384,0.151-0.437,0.151
						c-0.18,0-0.185-0.458-0.185-0.511v-33.98c0-0.958,0.728-2.219,1.558-2.699l148.43-85.737
						C263.893,284.268,264.041,284.253,264.094,284.253 M264.094,283.317c-0.272,0-0.58,0.089-0.905,0.277l-148.43,85.737
						c-1.119,0.646-2.026,2.217-2.026,3.509v33.98c0,0.917,0.456,1.446,1.121,1.446c0.272,0,0.58-0.089,0.905-0.277l148.43-85.737
						c1.119-0.646,2.026-2.217,2.026-3.509v-33.981C265.215,283.847,264.758,283.317,264.094,283.317L264.094,283.317z"/>
				</g>
				<g>
					<g>
						<path style="fill:#BA68C8;" d="M141.33,366.395c2.017,1.164,3.264,3.661,3.264,7.215c0,7.107-4.99,15.749-11.144,19.302
							c-3.077,1.777-5.863,1.945-7.88,0.781c-1.225-0.707-2.329-1.344-3.553-2.051c-2.017-1.164-3.264-3.662-3.264-7.215
							c0-7.108,4.99-15.749,11.145-19.303c3.077-1.777,5.863-1.944,7.88-0.78C139.002,365.051,140.106,365.688,141.33,366.395z"/>
						<path style="opacity:0.2;" d="M141.33,366.395c2.017,1.164,3.264,3.661,3.264,7.215c0,7.107-4.99,15.749-11.144,19.302
							c-3.077,1.777-5.863,1.945-7.88,0.781c-1.225-0.707-2.329-1.344-3.553-2.051c-2.017-1.164-3.264-3.662-3.264-7.215
							c0-7.108,4.99-15.749,11.145-19.303c3.077-1.777,5.863-1.944,7.88-0.78C139.002,365.051,140.106,365.688,141.33,366.395z"/>
						<path style="fill:#BA68C8;" d="M133.45,392.913c-3.077,1.777-5.863,1.945-7.88,0.78c-2.017-1.164-3.264-3.661-3.264-7.215
							c0-7.107,4.99-15.749,11.144-19.303c3.077-1.777,5.864-1.945,7.88-0.78c2.017,1.164,3.264,3.661,3.264,7.215
							C144.594,380.717,139.605,389.359,133.45,392.913z"/>
					</g>
					<path style="fill:#FAFAFA;" d="M139.37,375.026l-4.72,2.725v-6.293c0-0.884-0.537-1.29-1.2-0.907s-1.2,1.409-1.2,2.293v6.293
						l-4.72,2.725c-0.663,0.383-1.2,1.409-1.2,2.293c0,0.884,0.537,1.29,1.2,0.907l4.72-2.725v6.293c0,0.884,0.537,1.29,1.2,0.907
						s1.2-1.409,1.2-2.293v-6.293l4.72-2.725c0.663-0.383,1.2-1.409,1.2-2.293C140.57,375.05,140.033,374.644,139.37,375.026z"/>
				</g>
				<path style="fill:#E0E0E0;" d="M152.264,363.416l104.517-60.366c1.377-0.795,2.494-2.929,2.494-4.765
					c0-1.837-1.116-2.681-2.494-1.885l-104.517,60.366c-1.377,0.795-2.494,2.929-2.494,4.765
					C149.77,363.367,150.887,364.211,152.264,363.416z M256.781,310.397l-104.517,60.366c-1.377,0.795-2.494,2.929-2.494,4.765
					c0,1.836,1.117,2.681,2.494,1.885l104.517-60.366c1.377-0.795,2.494-2.929,2.494-4.765l0,0
					C259.275,310.446,258.159,309.602,256.781,310.397z"/>
			</g>
		</g>
	</g>
</g>
<g id="Arrows_00000172425085801080495440000002753498282025762455_">
	<g id="Arrows">
		<g id="Arrow_7_">
			<polygon style="fill:#BA68C8;" points="291.421,383.035 298.243,386.973 309.471,380.491 309.471,253.313 316.957,248.992 
				304.115,239.119 297.293,235.181 283.936,260.179 290.758,264.117 291.422,263.734 			"/>
			<polygon style="opacity:0.8;fill:#FFFFFF;" points="291.421,383.035 298.243,386.973 309.471,380.491 309.471,253.313 
				316.957,248.992 304.115,239.119 297.293,235.181 283.936,260.179 290.758,264.117 291.422,263.734 			"/>
			<polygon id="Down_Arrow_4_" style="fill:#BA68C8;" points="298.243,386.973 309.471,380.491 309.471,253.313 316.957,248.992 
				304.115,239.119 290.758,264.117 298.243,259.796 			"/>
			<polygon id="Down_Arrow_3_" style="opacity:0.7;fill:#FFFFFF;" points="298.243,386.973 309.471,380.491 309.471,253.313 
				316.957,248.992 304.115,239.119 290.758,264.117 298.243,259.796 			"/>
			<polygon style="fill:#BA68C8;" points="291.421,383.035 298.243,386.973 298.243,259.796 291.422,263.734 			"/>
			<polygon style="opacity:0.5;fill:#FFFFFF;" points="291.421,383.035 298.243,386.973 298.243,259.796 291.422,263.734 			"/>
		</g>
		<g id="Arrow_6_">
			<polygon style="fill:#F5F5F5;" points="323.341,366.547 328.453,369.498 336.868,364.641 336.868,290.537 342.478,287.298 
				332.854,279.9 327.742,276.948 317.732,295.682 322.844,298.634 323.341,298.346 			"/>
			<polygon id="Down_Arrow" style="fill:#EBEBEB;" points="328.453,369.498 336.868,364.641 336.868,290.537 342.478,287.298 
				332.854,279.9 322.844,298.634 328.453,295.395 			"/>
			<polygon style="fill:#E0E0E0;" points="323.341,366.547 328.453,369.498 328.453,295.395 323.341,298.346 			"/>
		</g>
	</g>
</g>
<g id="Character">
	<g id="Character_00000076603369263015456010000005331749738977898675_">
		<g id="Bottom_00000080926920958653218360000013687507972515871873_">
			<g>
				<path id="XMLID_00000146468067226165991000000010967293698051426456_" style="fill:#263238;" d="M435.747,374.673
					c0,0,4.888,0.906,7.622,4.534c2.733,3.628,8.73,14.464,9.932,15.682c0,0-1.143,1.925-2.848,2.861l-3.25-3.84
					c-0.81-0.696-2.137-2.431-2.151-0.212c-0.014,2.219,0.221,4.291,0.455,8.593c0.142,2.612,1.008,7.777-3.589,12.696
					c-4.297,4.598-9.413,7.676-12.551,8.048c-1.87,0.222-6.062-0.254-5.774-3.968c0.153-1.971,2.665-9.39,3.062-12.983
					C427.068,402.353,435.747,374.673,435.747,374.673z"/>
				<path style="fill:#FFBDA7;" d="M436.492,375.71c-0.61-0.81-2.511-4.196-3.429-5.773c-0.918-1.578-4.714-9.86-9.385-22.581
					c-6.013-16.377-16.345-28.585-19.496-34.757c-3.311-6.487-6.715-13.975-8.774-20.959l-13.376,8.496l-17.35-0.697
					c-0.232,2.573,0.748,6.025,2.598,10.068l-0.003,0.002c0.016,0.034,0.035,0.07,0.05,0.105c0.168,0.365,0.353,0.742,0.535,1.117
					c3.7,7.686,10.099,17.02,17.26,26.467c0.057,0.076,0.114,0.152,0.172,0.228c0.085,0.111,0.169,0.223,0.253,0.334
					c6.9,9.135,14.502,18.439,21.138,26.5l0.009-0.19c7.13,8.632,12.898,15.635,14.933,19.134
					c5.949,10.227,5.034,20.095,4.955,25.483c-0.049,3.367,2.564,4.063,6.149,1.204c7.306-5.825,7.99-13.974,8.028-16.021
					C441,380.922,440.023,380.396,436.492,375.71z"/>
				<path style="fill:#455A64;" d="M364.73,204.621c-1.365,10.446-2.704,20.163-3.874,47.843
					c-0.984,23.271-2.003,35.735-0.249,47.219c0.625,4.092,2.734,8.863,6.718,14.872c12.48,18.82,36.945,48.359,36.945,48.359
					s5.459-0.179,12.001-5.721c6.321-5.355,6.501-13.136,6.501-13.136s-0.699-4.331-11.022-21.69
					c-10.324-17.359-11.859-36.294-11.859-36.294l5.61-74.431C389.849,213.325,372.115,210.567,364.73,204.621z"/>
				<path style="fill:#37474F;" d="M416.272,357.192c6.321-5.355,6.501-13.136,6.501-13.136s-0.699-4.331-11.022-21.69
					c-10.323-17.359-11.859-36.294-11.859-36.294l4.295-56.981c-12.289-1.761-29.399-1.33-29.399-1.33
					c-0.217,8.146,1.661,18.204,13.1,24.09c0,0-1.574,40.056-1.687,51.77c-0.086,8.936,2.731,31.638,4.073,41.91
					c7.771,9.863,13.997,17.381,13.997,17.381S409.73,362.734,416.272,357.192z"/>
			</g>
			<g>
				<g>
					<path id="XMLID_00000089560583561233575800000000754991660983931528_" style="fill:#263238;" d="M413.849,398.299
						c0,0,3.607,3.673,3.923,8.552c0.317,4.879-0.555,18.185-0.21,19.989c0,0-2.007,1.075-3.947,0.928l-0.634-5.372
						c-0.3-1.103-0.166-1.983-1.387,0.017c-1.221,2-2.24,4.239-4.142,7.146c-1.509,2.306-3.637,7.748-10.171,9.518
						c-6.109,1.654-13.15,0.865-15.984-0.629c-1.689-0.891-4.716-2.297-2.452-5.49c1.201-1.695,7.982-8.514,10.271-11.534
						C391.495,418.285,413.849,398.299,413.849,398.299z"/>
					<path id="XMLID_00000160894246711469356570000002125216197317853568_" style="fill:#FFBDA7;" d="M397.361,397.781
						c0.58-12.727-10.145-71.219-6.32-98.507l34.195,0.333c-2.076,7.523-3.3,16.286-4.055,24.089
						c-0.719,7.425,1.298,24.503-2.577,42.834c-3.01,14.24-4.337,23.951-4.426,25.915c-0.09,1.964-0.34,6.138-0.269,7.226
						c0.409,6.302-0.626,9.863-7.751,19.681c-1.377,1.898-4.718,8.053-14.018,9.061c-4.564,0.495-6.377-1.659-4.501-4.679
						C390.639,418.905,396.781,410.509,397.361,397.781z"/>
					<path id="XMLID_00000160873321537356832060000010391189382122170500_" style="fill:#F0997A;" d="M421.181,323.697
						c-0.135,2.889-0.024,5.774,0.069,8.663c0.078,2.889,0.144,5.781,0.163,8.676c0.011,5.791-0.282,11.596-1.002,17.354
						c-0.363,2.878-0.898,5.732-1.485,8.563l-1.756,8.46c-0.576,2.822-1.118,5.652-1.625,8.49c-0.518,2.835-1.032,5.675-1.368,8.543
						c0.378-5.778,1.358-11.486,2.33-17.177c0.958-5.706,2.392-11.295,3.034-17.007c0.404-2.846,0.641-5.718,0.848-8.59
						c0.187-2.875,0.263-5.757,0.35-8.641c0.064-2.885,0.071-5.773,0.082-8.665C420.874,329.478,420.848,326.572,421.181,323.697z"
						/>
				</g>
			</g>
			<g>
				<path style="fill:#455A64;" d="M364.73,204.621c0,0,3.949,13.477,8.357,25.681c3.829,10.602,10.993,16.494,18.484,18.878
					c0,0-1.852,47.91-2.43,54.582c-0.579,6.672,1.285,30.793,2.893,46.665c1.608,15.872,2.1,21.306,2.1,21.306
					s3.334,3.529,12.547,3.567c9.213,0.038,12.082-3.934,12.082-3.934s5.581-18.46,5.638-32.882
					c0.033-8.267-1.779-12.343-0.361-20.557c1.418-8.213,12.192-44.861,13.869-62.18c1.677-17.319-1.372-32.467-13.521-49.974
					C411.684,214.61,376.508,212.919,364.73,204.621z"/>
				<path style="fill:#37474F;" d="M419.173,208.526c6.576,9.095,16.126,27.915,9.878,55.186c-1.777,7.755-3.552,15.24-5.27,22.479
					c-4.022,16.952-7.198,30.341-7.584,35.439c-0.214,2.82,0.126,5.49,0.519,8.581c0.617,4.845,1.385,10.875,0.265,20.197
					c-1.045,8.714-2.603,17.88-3.736,24.084c0.388-0.109,0.753-0.225,1.094-0.346c1.126-6.205,2.631-15.126,3.65-23.617
					c1.133-9.447,0.357-15.545-0.267-20.445c-0.386-3.036-0.72-5.659-0.515-8.376c0.38-5.018,3.549-18.374,7.56-35.281
					c1.718-7.241,3.495-14.728,5.272-22.486c6.293-27.469-3.232-46.509-9.906-55.82
					C419.818,208.259,419.498,208.395,419.173,208.526z"/>
			</g>
			<path style="fill:#37474F;" d="M364.477,201.72c0,0,14.535,6.571,31.639,6.758c19.304,0.211,28.466-5.82,28.466-5.82
				s0.017,3.205,1.854,6.176c0,0-11.075,6.643-30.26,6.081c-19.186-0.563-31.918-7.134-31.918-7.134S364.714,204.63,364.477,201.72z
				"/>
		</g>
		<g id="Top_00000061449141949380468320000003694386730798447036_">
			<path style="fill:#BA68C8;" d="M383.476,142.238c-7.998,1.441-11.813,3.933-17.823,13.575
				c-6.01,9.642-24.206,35.246-24.206,35.246s4.104,10.368,19.027,13.058c6.966-9.949,20.723-29.676,20.723-29.676L383.476,142.238z
				"/>
			<path style="opacity:0.3;" d="M383.476,142.238c-7.998,1.441-11.813,3.933-17.823,13.575
				c-6.01,9.642-24.206,35.246-24.206,35.246s4.104,10.368,19.027,13.058c6.966-9.949,20.723-29.676,20.723-29.676L383.476,142.238z
				"/>
			<g>
				<path style="fill:#FAFAFA;" d="M427.097,199.301c0.002,2.07,5.267,12.474,8.138,23.69
					c-17.256,22.245-68.359,10.107-72.099-2.412c0.804-14.878,1.491-52.452,4.749-59.248c5.829-12.155,15.653-18.643,15.653-18.643
					c4.645-0.985,9.492-1.304,10.902-1.447c2.859-0.291,8.71-0.75,16.344,0.419c4.839,0.741,12.787,2.845,12.787,2.845
					c3.027,2.56,11.427,13.346,9.483,26.345C432.163,176.818,427.085,184.605,427.097,199.301z"/>
			</g>
			<path style="fill:#BA68C8;" d="M412.649,140.903l-0.07,1.83c0,0-7.223,18.352-7.458,33.243
				c-0.235,14.891,4.573,73.094,4.573,73.094s12.194-1.572,18.994-4.738l0.469-14.087l3.166,12.797c0,0,4.104-1.29,6.214-4.338
				c0-5.511-1.407-17.001-6.214-29.195s-5.042-14.422-1.642-26.498s6.097-17.704,2.111-26.381
				c-3.987-8.676-8.658-12.632-8.658-12.632L412.649,140.903z"/>
			<path style="fill:#BA68C8;" d="M392.293,140.903l-0.065,2.149c0,0-6.609,6.772-12.557,14.965
				c-5.948,8.193-5.826,11.47-8.254,24.215c-2.428,12.745-3.319,55.241-3.319,55.241s-5.481-1.53-7.241-2.44
				c0,0,1.517-25.033,2.063-33.606c0.546-8.573,1.335-28.237,2.61-33.881c1.274-5.644,0.91-6.919,5.766-13.534
				c4.855-6.615,12.181-11.774,12.181-11.774L392.293,140.903z"/>
			<g>
				<path style="fill:#FFBDA7;" d="M383.149,212.695c-0.474-1.391-4.652-4.023-5.556-6.843c-0.536-1.671,0.565-4.092,2.344-2.43
					c3.729,3.485,6.467,3.974,8.918,5.702"/>
				<g id="Like_00000086674131868972622170000006164956138580011180_">
					<g>
						<path style="fill:#FAFAFA;" d="M289.005,186.52c-0.924,3.142,1.589,9.685,5.674,10.887c0,0-2.089,2.458-3.198,6.229
							c-1.34,4.556,1.719,10.406,8.003,12.255c6.284,1.849,48.075,14.141,48.075,14.141l6.888,2.118l16.035-54.515l-6.934-1.962
							c0,0-7.467-23.363-7.799-26.875s4.991-16.968,5.73-19.482c0.739-2.514-10.924-6.969-17.375,1.035
							c-6.451,8.003-8.983,15.452-9.28,24.583l-29.059-8.548c-6.133-1.804-10.31,3.112-11.327,6.569
							c-1.433,4.87,0.924,8.465,2.218,9.87c0,0-6.229-0.296-8.216,6.46c-1.109,3.771,0.36,8.641,4.482,10.878
							C292.923,180.161,290.391,181.806,289.005,186.52z"/>
					</g>
					<path id="XMLID_00000171701638574175094670000014428273071992487325_" style="fill:#E0E0E0;" d="M361.48,129.315
						c0.739-2.514-10.924-6.969-17.375,1.035c-6.451,8.003-8.983,15.452-9.28,24.583l0.364,0.502l5.17,1.459
						C344.741,128.767,355.943,127.837,361.48,129.315z"/>
					
						<rect id="XMLID_00000170996230677374651390000003558116507191031435_" x="361.176" y="177.875" transform="matrix(-0.9594 -0.2822 0.2822 -0.9594 669.5638 518.1263)" style="fill:#BA68C8;" width="21.835" height="65.942"/>
					
						<rect id="XMLID_00000097500727371761535770000007375187482796479637_" x="361.176" y="177.875" transform="matrix(-0.9594 -0.2822 0.2822 -0.9594 669.5638 518.1263)" style="opacity:0.2;" width="21.835" height="65.942"/>
					<path id="XMLID_00000061435049632698277430000003967772339525528757_" style="fill:#E0E0E0;" d="M292.924,180.162
						c0,0-2.532,1.645-3.919,6.358c-0.068,0.232-0.115,0.485-0.147,0.756c-0.398,3.324,2.038,9.018,5.821,10.131
						c0,0-2.089,2.458-3.198,6.229c-0.135,0.459-0.224,0.924-0.269,1.402c-0.428,4.285,2.616,9.189,8.272,10.852l9.653,2.839
						c-5.656-1.664-8.699-6.567-8.272-10.852c0.045-0.478,0.134-0.944,0.269-1.402c1.109-3.771,3.198-6.229,3.198-6.229
						c-3.783-1.113-6.219-6.807-5.821-10.131c0.032-0.271,0.079-0.523,0.147-0.756c1.386-4.713,3.919-6.358,3.919-6.358
						c-4.122-2.237-5.591-7.107-4.482-10.878c0.015-0.05,0.032-0.107,0.053-0.155c2.028-6.593,8.164-6.305,8.164-6.305
						c-1.294-1.405-3.65-5-2.218-9.87c0.059-0.201,0.127-0.407,0.21-0.621c1.303-3.386,5.342-7.646,11.118-5.948l-9.653-2.839
						c-5.775-1.699-9.814,2.562-11.118,5.948c-0.084,0.214-0.151,0.42-0.21,0.621c-1.433,4.87,0.924,8.465,2.218,9.87
						c0,0-6.135-0.289-8.164,6.305c-0.021,0.048-0.038,0.105-0.052,0.155C287.333,173.055,288.802,177.925,292.924,180.162z"/>
					<path style="fill:#455A64;" d="M347.452,230.395l-48.074-14.141c-3.029-0.891-5.543-2.765-7.079-5.278
						c-1.448-2.368-1.878-5.083-1.182-7.447c0.864-2.935,2.29-5.069,2.938-5.94c-1.747-0.717-3.343-2.411-4.435-4.736
						c-1.074-2.286-1.458-4.814-0.979-6.44c1.065-3.621,2.786-5.48,3.61-6.203c-4.077-2.533-5.213-7.497-4.174-11.033
						c1.614-5.488,5.988-6.508,7.798-6.693c-1.188-1.529-3.172-4.967-1.799-9.637c0.468-1.593,1.735-3.863,3.882-5.454
						c1.631-1.208,4.326-2.426,7.914-1.371l28.592,8.41c0.391-9.399,3.201-16.698,9.345-24.319c4.584-5.687,12.118-5.385,16-3.352
						c1.551,0.812,2.293,1.782,2.034,2.662c-0.181,0.616-0.629,1.866-1.196,3.449c-1.665,4.65-4.765,13.307-4.521,15.89
						c0.308,3.263,7.002,24.344,7.721,26.6l7.106,2.012l-16.252,55.25L347.452,230.395z M363.249,175.982l-0.061-0.194
						c-0.305-0.956-7.484-23.443-7.816-26.955c-0.26-2.75,2.759-11.18,4.563-16.217c0.563-1.572,1.007-2.813,1.182-3.408
						c0.138-0.471-0.529-1.184-1.658-1.776c-3.657-1.913-10.744-2.197-15.058,3.156c-6.138,7.614-8.889,14.899-9.195,24.357
						l-0.016,0.49l-29.53-8.686c-3.292-0.967-5.758,0.148-7.249,1.253c-1.997,1.48-3.174,3.583-3.607,5.059
						c-1.487,5.057,1.256,8.554,2.132,9.506l0.624,0.677l-0.919-0.04c-0.253-0.024-5.959-0.189-7.836,6.187
						c-0.996,3.388,0.173,8.198,4.299,10.438l0.555,0.303l-0.528,0.348c-0.024,0.016-2.438,1.646-3.762,6.148
						c-0.429,1.459-0.061,3.776,0.938,5.902c1.108,2.357,2.74,4.002,4.479,4.514l0.56,0.165l-0.376,0.445
						c-0.021,0.023-2.051,2.448-3.124,6.09c-0.635,2.159-0.234,4.652,1.102,6.838c1.438,2.352,3.797,4.108,6.644,4.946
						l48.078,14.142l6.522,2.005l15.819-53.779L363.249,175.982z"/>
					
						<rect id="XMLID_00000180324603379305295400000016989544195403305347_" x="356.524" y="210.176" transform="matrix(-0.9594 -0.2822 0.2822 -0.9594 655.9841 547.803)" style="opacity:0.2;" width="21.835" height="32.971"/>
					<path id="XMLID_00000107563283077783787350000017079156883387898800_" style="fill:#F0F0F0;" d="M368.228,235.201
						c0.493-1.677-0.466-3.436-2.143-3.929c-1.677-0.493-3.436,0.466-3.93,2.143c-0.493,1.677,0.466,3.436,2.143,3.93
						C365.976,237.838,367.735,236.878,368.228,235.201z"/>
				</g>
				<g>
					<g>
						<path style="fill:#FFBDA7;" d="M388.855,209.124c2.45,1.728,4.976,2.327,9.847,2.544c5.174,0.23,25.69-8.191,25.69-8.191
							l-3.78-27.283c0,0-4.338-20.626,3.624-31.545c12.694,2.697,13.695,6.444,15.272,11.723c1.209,4.048,2.614,9.31,4.446,26.955
							c1.644,15.828,1.821,19.979,1.643,27.958c-0.153,6.891-5.655,9.105-15.209,11.324c-9.553,2.219-15.693,3.042-29.258,5.04
							c-6.523,0.961-10.216,0.518-15.877,0.393c-2.81-0.062-4.467-0.335-6.335-0.926c-1.868-0.591-3.668-1.512-5.038-2.912
							c-0.258-0.263-0.465-0.544-0.791-0.725c-0.311-0.173-0.642-0.303-0.974-0.428c-0.629-0.237-1.282-0.449-1.823-0.861
							c-0.573-0.437-0.967-1.051-1.439-1.586c-0.22-0.25-0.392-0.523-0.645-0.747c-0.256-0.227-0.542-0.417-0.835-0.594
							c-0.754-0.456-1.598-0.869-2.153-1.57c-0.517-0.653-0.233-1.333-0.233-1.333s-1.069-0.433-1.425-0.6
							c-0.499-0.234-0.972-0.523-1.408-0.86c-0.172-0.133-0.352-0.3-0.358-0.517c-0.003-0.127,0.055-0.247,0.119-0.358
							c1.024-1.766,3.102-1.754,4.891-1.595c4.656,0.412,7.489,1.643,12.192,1.539c2.557-0.056,3.254-0.118,3.953-0.609
							c0.24-0.169,0.289-0.393,0.196-0.664"/>
						<path style="fill:#F0997A;" d="M424.392,203.477c5.429-2.706,10.278-3.855,10.278-3.855s-3.24-1.275-10.536,1.995
							L424.392,203.477z"/>
						<path style="fill:#F0997A;" d="M365.155,216.553c1.065,0.481,2.171,0.862,3.275,1.234c1.103,0.376,2.217,0.713,3.319,1.078
							c0.551,0.172,1.097,0.379,1.67,0.535c0.569,0.15,1.138,0.289,1.713,0.395c1.147,0.225,2.3,0.408,3.463,0.519l-1.696-0.424
							c-0.566-0.134-1.131-0.273-1.692-0.422c-0.56-0.154-1.123-0.293-1.673-0.464c-0.548-0.161-1.091-0.37-1.65-0.552
							c-1.113-0.357-2.232-0.683-3.357-0.983L365.155,216.553z"/>
						<path style="fill:#F0997A;" d="M368.097,219.76c0.733,0.524,1.548,0.998,2.366,1.367c0.819,0.371,1.657,0.696,2.501,1.001
							c0.847,0.296,1.701,0.575,2.567,0.813c0.864,0.242,1.742,0.449,2.633,0.573c-0.851-0.288-1.687-0.603-2.531-0.898
							l-2.523-0.899l-2.519-0.904C369.756,220.499,368.913,220.137,368.097,219.76z"/>
					</g>
				</g>
				<g>
					<path style="fill:#BA68C8;" d="M424.134,143.998c8.702,2.244,12.588,3.765,14.403,8.06c1.815,4.295,2.71,6.979,4.678,18.61
						c1.968,11.632,3.4,32.121,3.311,38.474c-0.09,6.353,0.626,9.019-6.442,11.623c-7.068,2.604-23.084,4.93-23.084,4.93
						s0.626-4.026-0.268-8.768c-0.895-4.742-3.847-9.395-3.847-9.395l10.737-4.295c0,0-3.758-24.337-4.295-28.632
						C418.789,170.311,417.311,153.117,424.134,143.998z"/>
					<path style="opacity:0.3;" d="M424.134,143.998c8.702,2.244,12.588,3.765,14.403,8.06c1.815,4.295,2.71,6.979,4.678,18.61
						c1.968,11.632,3.4,32.121,3.311,38.474c-0.09,6.353,0.626,9.019-6.442,11.623c-7.068,2.604-23.084,4.93-23.084,4.93
						s0.626-4.026-0.268-8.768c-0.895-4.742-3.847-9.395-3.847-9.395l10.737-4.295c0,0-3.758-24.337-4.295-28.632
						C418.789,170.311,417.311,153.117,424.134,143.998z"/>
				</g>
			</g>
			<g>
				<g id="Head_00000060023321011925285740000012460859322252908679_">
					<path style="fill:#37474F;" d="M379.409,116.031l-1.587-0.489c-7.128-3.828-6.769-13.126-5.038-17.971
						c3.864-10.816,15.554-14.865,22.788-15.26c13.717-0.75,20.417,2.793,21.832,9.898c1.859-0.158,4.413,1.339,5.955,3.438
						c3.374,4.593,7.387,20.593-10.396,37.469L379.409,116.031z"/>
					<g id="XMLID_00000026878342550995358650000017564451873763548556_">
						<g id="XMLID_00000145052885953090735210000008494342149905840063_">
							<path id="XMLID_00000170965492758465838820000003249051364111680440_" style="fill:#FFBDA7;" d="M416.268,127.748
								c2.484,0.365,4.401-0.935,5.833-2.641c3.178-3.786,3.34-7.519,1.694-9.936c-1.353-1.986-4.541-3.164-6.685-1.7
								c-2.293,1.566-2.32,2.771-3.143,4.471c-0.845,1.744-4.264,1.688-5.348-4.995c-1.011-6.234-0.727-12.782-3.903-15.49
								c-4.742-4.044-10.672-2.647-12.401-0.082c-1.982-2.847-5.471-3.582-8.534-1.782c-3.004,1.765-5.263,6.559-5.875,18.485
								c-0.624,12.157,2.518,19.605,5.375,21.534c2.167,1.463,4.555,2.067,9.109,2.095l-0.163,5.346c0,0-6.161,11.636-5.739,22.019
								c0,0,2.516-1.73,13.814-11.608c7.527-6.581,12.278-10.73,12.278-10.73l0.639-16.774
								C413.219,125.96,413.907,127.401,416.268,127.748z"/>
						</g>
						<g>
							<g id="XMLID_00000029044110166119076170000008474497786611050394_">
								<path id="XMLID_00000044900411996651314560000007948232242465477530_" style="fill:#263238;" d="M381.082,108.224
									l4.467-1.713c-0.43-1.261-1.779-1.901-3.013-1.427C381.303,105.557,380.651,106.963,381.082,108.224z"/>
							</g>
							<g id="XMLID_00000023278123424725781410000003686291678523313060_">
								<path id="XMLID_00000021080891269216202800000006488555410568884153_" style="fill:#263238;" d="M397.671,106.482
									l4.425,2.575c0.763-1.205,0.391-2.758-0.832-3.469C400.043,104.877,398.433,105.278,397.671,106.482z"/>
							</g>
							<path style="fill:#37474F;" d="M403.619,98.266c1.074,1.361,1.857,2.73,1.694,7.616c-0.068,2.036,0.086,6.781,1.449,9.612
								c1.193,2.476,2.43,3.947,5.067,4.409c1.319,0.231,3.544,0.082,4.759-0.481c0.935-0.433,3.563-2.285,3.243-5.002
								c-0.42,0.47-1.186,1.065-1.927,1.359c-0.559,0.221-1.146,0.385-1.746,0.418c-1.787,0.099-3.488-1.007-4.49-2.491
								c-1.773-2.626-1.655-6.169-2.197-9.181c-0.689-3.829-1.354-8.173-4.81-10.071c-4.085-2.243-11.461-1.247-12.347,2.922
								C395.107,94.71,400.853,94.76,403.619,98.266z"/>
							<g id="XMLID_00000029023363019146604650000011548793900789891485_">
								<path id="XMLID_00000003791414995414324150000001053450898036175499_" style="fill:#B16668;" d="M397.48,124.357
									l-6.682,1.85c0.445,1.88,2.491,2.975,4.587,2.311C397.211,127.939,397.926,126.235,397.48,124.357z"/>
								<path style="fill:#F0997A;" d="M393.476,128.635c0.286-1.829,1.899-3.185,3.787-3.082c0.115,0.006,0.222,0.036,0.333,0.052
									c-0.065,1.348-0.804,2.466-2.211,2.912C394.726,128.726,394.078,128.744,393.476,128.635z"/>
							</g>
							<g id="XMLID_00000137117142040665961840000009173267642244180891_">
								<polygon id="XMLID_00000165195239591893972510000002416582117888311987_" style="fill:#F0997A;" points="392.315,109.781 
									390.906,121.682 384.451,119.17 								"/>
							</g>
							<g id="XMLID_00000166649009735587912880000018377126510263724936_">
								<path id="XMLID_00000064330473198710342070000016946508415921491350_" style="fill:#F0997A;" d="M392.39,137.707
									c4.206-0.438,8.635-1.058,12.842-2.9c1.488-0.652,3.476-3.393,5.09-6.44c0,0-1.095,5.98-4.306,8.068
									c-4.882,3.174-13.701,3.927-13.701,3.927L392.39,137.707z"/>
							</g>
							<g>
								<path id="XMLID_00000071519622733904352590000011733693210777879223_" style="fill:#263238;" d="M382.196,111.781
									c-0.35,0.973,0.329,1.302,1.266,1.636c0.937,0.335,1.779,0.547,2.129-0.426c0.35-0.973-0.126-2.032-1.063-2.367
									C383.59,110.29,382.547,110.808,382.196,111.781z"/>
								<path style="fill:#263238;" d="M385.414,110.992c-0.407-0.248-0.887-0.394-1.349-0.504
									c-0.454-0.108-0.934-0.152-1.395-0.089c-0.774,0.106-1.189,0.285-1.428,0.401c-0.031,0.015-0.065,0.12-0.008,0.114
									c0.383-0.04,0.72-0.099,1.274-0.111c0.466-0.01,1.112,0.09,1.563,0.206c0.709,0.182,0.984,0.277,1.767,0.68
									c0.183,0.094,0.537,0.294,0.572,0.321c0.051,0.041,0.098-0.1,0.071-0.144C386.257,111.493,385.777,111.213,385.414,110.992z
									"/>
							</g>
							<g>
								<path id="XMLID_00000062159987760729574360000005813206815273595028_" style="fill:#263238;" d="M400.371,112.435
									c0.215,1.011-0.502,1.245-1.476,1.45c-0.974,0.204-1.836,0.301-2.051-0.711c-0.215-1.011,0.401-1.997,1.375-2.201
									C399.192,110.769,400.156,111.424,400.371,112.435z"/>
								<path style="fill:#263238;" d="M397.289,111.217c0.437-0.191,0.932-0.27,1.405-0.316c0.464-0.045,0.946-0.024,1.393,0.101
									c0.753,0.21,1.14,0.444,1.361,0.591c0.029,0.019,0.048,0.128-0.008,0.114c-0.374-0.091-0.7-0.196-1.247-0.282
									c-0.461-0.074-1.114-0.061-1.576-0.008c-0.728,0.084-1.012,0.141-1.842,0.434c-0.194,0.069-0.572,0.218-0.61,0.241
									c-0.056,0.034-0.083-0.112-0.051-0.152C396.386,111.6,396.9,111.387,397.289,111.217z"/>
							</g>
						</g>
					</g>
				</g>
			</g>
			<g>
				<path style="fill:#FFBDA7;" d="M320.64,224.708c-2.795-0.019-2.95-0.317-3.371-1.712c-0.421-1.394-0.809-4.111,1.008-6.463
					c1.222-1.581,2.376-3.236,3.412-3.758c1.036-0.521,2.274,1.462,1.217,3.911c-1.666,3.86-0.749,4.493-0.749,4.493
					s1.538-3.553,2.36-4.83c0.823-1.278,3.034-3.094,4.271-4.333c1.237-1.239,3.244-0.204,2.142,2.619c0,0,1.565-1.561,2.273-2.267
					c1.591-1.587,2.99-1.504,3.077,0.714c0.021,0.527-0.012,1.213-0.57,2.069c0,0,1.387-1.914,2.052-1.491
					c1.906,1.211,1.525,2.74-0.159,7.419c-1.434,3.984-0.878,6.015,0.703,6.623l1.023,0.3c0,0-1.942,0.857-3.815,1.515
					c-1.372,0.482-2.719,0.757-3.914-0.777c0,0-1.488,2.135-2.884,1.318c-1.395-0.817-2.422-2.536-2.422-2.536
					s-1.507,0.793-3.003-0.409c-1.496-1.201-1.732-2.428-1.732-2.428L320.64,224.708z"/>
				<path style="fill:#F0997A;" d="M330.929,214.637c-0.678,0.689-1.375,1.292-1.943,2.145c-0.541,0.905-0.703,1.862-0.923,2.775
					c-0.384,1.855-0.707,3.725-0.776,5.642c0.721-1.783,1.189-3.612,1.595-5.456c0.199-0.922,0.342-1.867,0.678-2.649
					C329.951,216.315,330.524,215.498,330.929,214.637z"/>
				<path style="fill:#F0997A;" d="M335.709,215.152c-0.819,0.627-1.485,1.504-1.906,2.465c-0.446,0.952-0.732,1.954-0.986,2.95
					c-0.47,2.001-0.795,4.024-0.84,6.092c0.698-1.945,1.169-3.926,1.655-5.893C334.124,218.796,334.522,216.855,335.709,215.152z"/>
			</g>
		</g>
	</g>
</g>
<g id="Speech_Bubble">
	<g id="Speech_Bubble_00000047060381796017063090000010929247545784885127_">
		<g id="Speech_Bubble_00000003094819084804054320000002044090927889000623_">
			<path style="fill:#FFFFFF;" d="M347.589,56.815c5.57,5.134,8.632,11.979,9.153,18.998l0.054,3.287
				c-0.263,6.571-2.76,13.09-7.56,18.297c-10.732,11.642-28.935,12.383-40.577,1.651c-5.206-4.799-8.225-11.094-9.021-17.622
				l-0.214-3.28c-0.05-7.039,2.445-14.11,7.58-19.679C317.74,46.82,335.943,46.079,347.589,56.815z"/>
			<path style="fill:#455A64;" d="M305.181,56.856c-11.621,12.651-10.783,32.4,1.868,44.021
				c11.351,10.426,28.407,10.813,40.188,1.647l9.011,3.529c1.539,0.603,3.014-1.003,2.283-2.485l-4.28-8.68
				c8.132-12.515,6.301-29.475-5.049-39.901C336.551,43.367,316.802,44.205,305.181,56.856z M347.556,56.78
				c5.578,5.124,8.652,11.963,9.186,18.982l0.059,3.287c-0.252,6.571-2.737,13.095-7.528,18.31
				c-10.711,11.661-28.914,12.433-40.574,1.722c-5.215-4.79-8.244-11.079-9.052-17.606l-0.219-3.28
				c-0.063-7.039,2.42-14.114,7.545-19.692C317.688,46.837,335.89,46.065,347.556,56.78z"/>
		</g>
		<g id="Check_00000167389107951508401800000002841546811603692959_">
			<path style="fill:#BA68C8;" d="M323.845,95.682c-1.215,0-2.381-0.502-3.215-1.394l-9.984-10.66
				c-1.663-1.775-1.571-4.562,0.204-6.226c1.776-1.663,4.563-1.57,6.226,0.204l6.484,6.924L338.901,65.1
				c1.505-1.91,4.274-2.237,6.186-0.728c1.91,1.507,2.235,4.278,0.728,6.186l-18.513,23.449c-0.795,1.008-1.989,1.617-3.271,1.671
				C323.969,95.681,323.906,95.682,323.845,95.682z"/>
		</g>
	</g>
</g>
<g id="Icons">
	<path id="Like_00000176757119499344248230000008230575284151037593_" style="fill:#E0E0E0;" d="M477.863,65.918
		c-0.426-0.899-0.922-1.49-1.333-1.864c1.098-1.338,1.146-3.183,0.549-4.439c-0.714-1.507-1.895-2.104-2.887-2.275
		c0.268-0.825,0.397-2.002-0.23-3.324c-0.727-1.534-2.968-3.264-5.446-2.08l-9.272,4.389c-0.761-3.169-2.233-5.575-4.814-7.913
		c-2.36-2.139-5.384-1.344-6.739-0.338c-1.077,0.798-0.893,1.518-0.764,1.791c0.102,0.216,0.34,0.652,0.645,1.208
		c0.729,1.335,2.438,4.462,2.489,5.29c0.057,0.896-0.742,6.515-1.291,10.074c-0.021,0.14,0,0.285,0.06,0.414l8.932,18.862
		c0.151,0.318,0.508,0.473,0.835,0.381c0.038-0.011,0.075-0.024,0.113-0.043l16.684-7.899c2.686-1.274,3.413-4.036,2.548-5.866
		c-0.339-0.715-0.753-1.286-1.089-1.683C478.082,69.383,478.402,67.062,477.863,65.918z M475.474,69.866
		c-0.218,0.103-0.368,0.31-0.4,0.547c-0.033,0.238,0.057,0.477,0.237,0.635c0.008,0.007,0.802,0.705,1.343,1.85
		c0.575,1.216-0.039,3.101-1.871,3.969l-16.041,7.593l-8.533-18.021c0.242-1.581,1.35-8.901,1.272-10.163
		c-0.066-1.057-1.296-3.386-2.662-5.885c-0.22-0.402-0.403-0.737-0.52-0.962c0.198-0.225,0.814-0.655,1.748-0.847
		c0.744-0.154,2.176-0.243,3.425,0.887c2.571,2.329,3.935,4.727,4.564,8.019c0.042,0.217,0.18,0.401,0.378,0.501
		c0.194,0.099,0.426,0.107,0.627,0.009l10.084-4.775c1.77-0.838,3.16,0.58,3.549,1.403c0.702,1.482,0.03,2.684-0.192,3.018
		c-0.159,0.24-0.159,0.554,0.003,0.793c0.16,0.239,0.449,0.357,0.733,0.298c0.069-0.014,1.712-0.328,2.573,1.489
		c0.462,0.972,0.339,2.473-0.796,3.344c-0.197,0.15-0.296,0.393-0.271,0.638c0.024,0.246,0.18,0.464,0.402,0.572
		c0.032,0.015,0.813,0.407,1.447,1.748C476.944,67.308,476.481,69.39,475.474,69.866z M447.46,66.833
		c-0.169-0.355-0.587-0.515-0.948-0.338l-7.269,3.441c-0.171,0.08-0.302,0.225-0.366,0.403c-0.062,0.178-0.053,0.374,0.028,0.545
		l10.394,21.952c0.151,0.318,0.508,0.473,0.836,0.381c0.038-0.011,0.075-0.024,0.113-0.042l7.269-3.441
		c0.171-0.08,0.302-0.226,0.366-0.404c0.062-0.178,0.052-0.374-0.028-0.545L447.46,66.833z M450.28,91.583l-9.784-20.666
		l5.982-2.831l9.784,20.665L450.28,91.583z"/>
	<path id="Like_00000035513743519909054340000011936777786734752401_" style="fill:#E0E0E0;" d="M28.627,163.087
		c-0.182,0.372-0.389,0.893-0.511,1.511c-0.31,1.58,0.791,3.569,3.111,4.027l14.411,2.832c0.033,0.007,0.064,0.01,0.096,0.011
		c0.271,0.007,0.516-0.182,0.57-0.457l3.203-16.294c0.022-0.111,0.01-0.227-0.034-0.331c-1.119-2.638-2.833-6.815-2.965-7.517
		c-0.123-0.648,0.585-3.394,0.886-4.566c0.126-0.489,0.224-0.871,0.261-1.058c0.046-0.236,0.047-0.827-0.939-1.232
		c-1.241-0.511-3.729-0.533-5.132,1.577c-1.534,2.308-2.199,4.451-2.167,7.044l-8.009-1.574c-2.143-0.429-3.533,1.343-3.794,2.668
		c-0.225,1.142,0.105,2.024,0.472,2.608c-0.732,0.325-1.527,1.016-1.782,2.318c-0.215,1.086,0.183,2.499,1.291,3.316
		c-0.243,0.369-0.51,0.922-0.664,1.698C26.739,160.657,27.44,162.385,28.627,163.087z M28.043,159.887
		c0.227-1.158,0.753-1.613,0.775-1.631c0.15-0.127,0.228-0.325,0.198-0.52c-0.028-0.194-0.152-0.362-0.333-0.439
		c-1.046-0.45-1.434-1.584-1.267-2.424c0.309-1.57,1.637-1.648,1.693-1.651c0.23-0.01,0.43-0.157,0.507-0.373
		c0.078-0.216,0.017-0.458-0.153-0.612c-0.237-0.214-0.99-1.01-0.737-2.29c0.139-0.711,0.934-2.077,2.463-1.776l8.711,1.712
		c0.174,0.036,0.352-0.015,0.482-0.129c0.133-0.115,0.204-0.285,0.193-0.46c-0.158-2.661,0.425-4.778,1.953-7.077
		c0.742-1.116,1.864-1.327,2.468-1.354c0.758-0.034,1.317,0.177,1.514,0.312c-0.046,0.196-0.122,0.49-0.213,0.843
		c-0.565,2.194-1.059,4.231-0.903,5.059c0.187,0.988,2.472,6.418,2.967,7.59l-3.059,15.567l-13.856-2.722
		c-1.583-0.312-2.425-1.646-2.219-2.696c0.194-0.989,0.67-1.682,0.675-1.689c0.108-0.157,0.131-0.359,0.059-0.536
		c-0.071-0.177-0.227-0.307-0.415-0.344C28.675,162.077,27.912,160.561,28.043,159.887z M46.832,173.396
		c-0.028,0.147,0.002,0.301,0.085,0.426c0.084,0.125,0.213,0.211,0.361,0.24l6.279,1.234c0.032,0.007,0.064,0.01,0.095,0.011
		c0.271,0.007,0.516-0.182,0.57-0.457l3.727-18.962c0.028-0.147-0.002-0.301-0.085-0.426c-0.084-0.125-0.214-0.211-0.361-0.24
		l-6.279-1.234c-0.313-0.066-0.604,0.14-0.665,0.446L46.832,173.396z M48.053,173.059l3.508-17.85l5.167,1.014l-3.508,17.851
		L48.053,173.059z"/>
	<path id="Like_00000144301994681800260890000000769270971664664762_" style="fill:#E0E0E0;" d="M458.034,239.986
		c-0.216,0.273-0.481,0.664-0.693,1.149c-0.54,1.243,0.005,3.075,1.829,3.87l11.331,4.929c0.026,0.011,0.051,0.02,0.077,0.026
		c0.221,0.055,0.457-0.056,0.551-0.273l5.574-12.81c0.038-0.088,0.049-0.185,0.032-0.278c-0.443-2.369-1.098-6.112-1.079-6.712
		c0.016-0.555,1.093-2.683,1.553-3.592c0.192-0.379,0.342-0.675,0.405-0.822c0.08-0.185,0.188-0.671-0.549-1.182
		c-0.928-0.644-2.968-1.111-4.501,0.37c-1.677,1.619-2.611,3.26-3.052,5.397l-6.297-2.739c-1.683-0.74-3.145,0.466-3.599,1.508
		c-0.391,0.897-0.28,1.682-0.083,2.229c-0.66,0.135-1.438,0.56-1.883,1.583c-0.373,0.854-0.301,2.086,0.462,2.958
		c-0.266,0.259-0.586,0.665-0.852,1.276C456.922,237.649,457.186,239.195,458.034,239.986z M458.133,237.252
		c0.396-0.911,0.91-1.189,0.931-1.2c0.146-0.077,0.246-0.226,0.257-0.391c0.012-0.165-0.06-0.325-0.195-0.421
		c-0.778-0.558-0.892-1.56-0.604-2.22c0.537-1.234,1.643-1.059,1.69-1.051c0.191,0.033,0.382-0.052,0.484-0.215
		c0.103-0.164,0.097-0.373-0.015-0.53c-0.156-0.219-0.631-1.009-0.193-2.015c0.243-0.559,1.142-1.538,2.344-1.015l6.849,2.979
		c0.136,0.061,0.292,0.051,0.419-0.019c0.13-0.071,0.219-0.197,0.242-0.343c0.35-2.216,1.212-3.849,2.883-5.462
		c0.811-0.783,1.771-0.754,2.272-0.667c0.629,0.109,1.05,0.383,1.188,0.53c-0.073,0.153-0.189,0.381-0.327,0.654
		c-0.861,1.701-1.634,3.286-1.656,3.994c-0.025,0.846,0.873,5.72,1.068,6.772l-5.325,12.239l-10.894-4.738
		c-1.244-0.542-1.695-1.79-1.336-2.616c0.338-0.777,0.854-1.261,0.859-1.266c0.117-0.109,0.173-0.271,0.145-0.43
		c-0.026-0.158-0.131-0.294-0.279-0.358C458.257,239.165,457.903,237.782,458.133,237.252z M471.133,251.745
		c-0.05,0.116-0.052,0.248-0.007,0.365c0.047,0.118,0.137,0.212,0.253,0.262l4.937,2.147c0.026,0.011,0.051,0.02,0.076,0.026
		c0.221,0.055,0.457-0.056,0.551-0.272l6.486-14.909c0.05-0.116,0.052-0.248,0.007-0.365c-0.047-0.118-0.137-0.212-0.253-0.262
		l-4.937-2.147c-0.245-0.111-0.522,0.006-0.627,0.247L471.133,251.745z M472.197,251.688l6.105-14.035l4.063,1.766l-6.105,14.035
		L472.197,251.688z"/>
	<path id="Like" style="fill:#EBEBEB;" d="M404.733,38.723c0.033-0.833,1.704-3.816,1.957-4.382
		c0.253-0.566-2.339-1.977-4.102-0.306c-1.763,1.671-2.591,3.335-2.949,5.465l-6.536-2.919c-1.379-0.616-2.513,0.404-2.86,1.181
		c-0.489,1.095-0.051,2.012,0.208,2.382c0,0-1.449-0.266-2.128,1.254c-0.379,0.848-0.188,2.035,0.706,2.689
		c0,0-0.645,0.306-1.118,1.366c-0.316,0.707,0.066,2.319,0.985,2.729c0,0-0.567,0.51-0.946,1.358
		c-0.457,1.025,0.074,2.491,1.488,3.123c1.414,0.631,10.813,4.829,10.813,4.829l5.46-12.227
		C405.712,45.264,404.701,39.557,404.733,38.723z M407.424,45.606l-6.356,14.229l4.719,2.103l6.347-14.229L407.424,45.606z
		 M404.409,59.593c-0.512,0-0.922-0.41-0.922-0.921c0-0.512,0.41-0.921,0.922-0.921s0.921,0.41,0.921,0.921
		C405.33,59.184,404.921,59.593,404.409,59.593z"/>
	<path id="Like_00000106137324736886156960000017040009565011928214_" style="fill:#EBEBEB;" d="M47.449,65.206L59.767,91.64
		c0,0,20.322-9.469,23.378-10.894c3.056-1.424,4.162-4.637,3.131-6.852c-0.855-1.834-2.107-2.924-2.107-2.924
		c1.987-0.926,2.762-4.449,2.05-5.977c-1.068-2.292-2.483-2.934-2.483-2.934c1.926-1.455,2.299-4.047,1.444-5.88
		c-1.531-3.285-4.678-2.655-4.678-2.655c0.551-0.814,1.473-2.825,0.37-5.193c-0.783-1.68-3.288-3.861-6.27-2.472l-14.13,6.585
		c-0.853-4.624-2.715-8.22-6.613-11.796c-3.899-3.577-9.492-0.413-8.922,0.81c0.57,1.223,4.314,7.661,4.415,9.473
		C49.452,52.743,47.449,65.206,47.449,65.206z M33.552,70.756l14.318,30.764l10.201-4.745L43.733,66.011L33.552,70.756z
		 M48.75,94.39c-0.018-1.114,0.859-2.02,1.974-2.038c1.114-0.018,2.021,0.86,2.039,1.974c0.018,1.115-0.86,2.021-1.974,2.039
		C49.674,96.382,48.768,95.505,48.75,94.39z"/>
	<g id="Check_00000009561589673992019440000005815548492149707945_">
		<path style="fill:#EBEBEB;" d="M460.554,154.395c-1.003,0-1.964-0.414-2.653-1.15l-8.239-8.797
			c-1.372-1.465-1.296-3.765,0.169-5.137c1.466-1.373,3.766-1.296,5.137,0.169l5.35,5.713l12.659-16.035
			c1.242-1.576,3.527-1.846,5.105-0.601c1.576,1.244,1.845,3.53,0.601,5.105l-15.277,19.35c-0.656,0.831-1.641,1.335-2.699,1.379
			C460.656,154.394,460.604,154.395,460.554,154.395z"/>
	</g>
	<g id="Check_00000170259975024745348790000013064018264642487740_">
		<path style="fill:#EBEBEB;" d="M41.377,244.984c-1.003,0-1.964-0.414-2.653-1.15l-8.239-8.797
			c-1.372-1.465-1.296-3.765,0.169-5.137c1.466-1.373,3.766-1.296,5.138,0.169l5.35,5.713l12.659-16.035
			c1.242-1.576,3.527-1.846,5.105-0.601c1.576,1.244,1.845,3.53,0.601,5.105l-15.277,19.35c-0.656,0.831-1.642,1.335-2.699,1.379
			C41.479,244.983,41.428,244.984,41.377,244.984z"/>
	</g>
	<g id="Check_00000158722997660490210020000005443293867452079265_">
		<g>
			<path style="fill:#E0E0E0;" d="M136.515,68.825c-1.36,0-2.674-0.569-3.603-1.562l-9.488-10.13
				c-1.859-1.986-1.757-5.116,0.229-6.977c0.962-0.901,2.226-1.374,3.536-1.331c1.317,0.044,2.539,0.598,3.44,1.56l5.565,5.943
				l14.039-17.782c0.816-1.034,1.986-1.689,3.296-1.844c1.305-0.157,2.6,0.212,3.636,1.028c1.035,0.817,1.69,1.988,1.844,3.298
				c0.154,1.309-0.211,2.6-1.027,3.635l-17.594,22.284c-0.891,1.13-2.227,1.813-3.666,1.872
				C136.659,68.824,136.587,68.825,136.515,68.825z M127.024,50.323c-0.875,0-1.703,0.327-2.345,0.928
				c-1.383,1.296-1.454,3.475-0.159,4.857l9.488,10.13c0.646,0.69,1.56,1.087,2.507,1.087l0.14-0.003
				c1.007-0.042,1.937-0.517,2.557-1.303l17.594-22.285c0.569-0.721,0.823-1.619,0.716-2.53c-0.107-0.911-0.563-1.727-1.284-2.295
				c-0.722-0.569-1.619-0.821-2.531-0.717c-0.91,0.107-1.725,0.563-2.293,1.284l-15.119,19.149l-6.759-7.215
				c-0.627-0.67-1.478-1.056-2.395-1.086C127.101,50.324,127.063,50.323,127.024,50.323z"/>
		</g>
	</g>
</g>
</svg>
