<svg id="OBJECTS" xmlns="http://www.w3.org/2000/svg" viewBox="0 0 470.64 447.94"><defs><style>.cls-1{fill:#ff97a5;}.cls-2{opacity:0.4;}.cls-3{fill:#ffd8bd;}.cls-11,.cls-4{fill:#fff;}.cls-5{fill:#9768ac;}.cls-6{fill:#ffc4ac;}.cls-7{fill:#ffa856;}.cls-8{fill:#3f2857;}.cls-9{fill:#ffacae;}.cls-10{fill:#b6e2fc;}.cls-11{opacity:0.6;}.cls-12{fill:#55406a;}.cls-13{fill:#ff64aa;}.cls-14{fill:#ff97c6;}.cls-15{fill:#ff95c5;}.cls-16{fill:#ffc1dd;}</style></defs><title>chat</title><path class="cls-1" d="M312.59,113.69s-5.48-45.54,11.59-67.08,44.19-14.08,42.6,8.51C364.21,91.75,312.59,113.69,312.59,113.69Z" transform="translate(-15.21 -24.45)"/><path class="cls-1" d="M444.5,117.92a29.3,29.3,0,0,1-3.71,5.32c-.45.52-.92,1-1.4,1.49-11.32,11-29.32,8.34-46.5,6.52L390,131a102.85,102.85,0,0,0-15.6-.61c-1.87.1-3.69.24-5.46.41-1,.09-2,.2-3,.31-27.33,3.12-41.4,12.79-41.4,12.79V131.2c13.55-20,28.54-33.92,43.17-42.79q1.17-.72,2.34-1.38h0A90.81,90.81,0,0,1,388.37,79a55.5,55.5,0,0,1,5.39-1.39c.76-.17,1.52-.31,2.27-.43a51.54,51.54,0,0,1,23.76,1.45c.71.23,1.41.46,2.1.71,10.88,3.91,19.1,11.34,22.82,19.55.32.69.6,1.39.85,2.09A20.31,20.31,0,0,1,444.5,117.92Z" transform="translate(-15.21 -24.45)"/><g class="cls-2"><polygon class="cls-1" points="354.84 62.58 354.83 62.59 354.85 62.58 354.84 62.58"/><path class="cls-1" d="M419.36,100.11h0a168.48,168.48,0,0,1,26.2.84l-.85-2.09a170.73,170.73,0,0,0-34.28-.11h0a45.18,45.18,0,0,1,11.46-19.44l-2.1-.71a47.16,47.16,0,0,0-11.43,20.08,1,1,0,0,0,0,.29q-8.49.91-16.86,2.67A77.89,77.89,0,0,1,396,77.15l-2.27.43a80.08,80.08,0,0,0-4.31,24.49,170.55,170.55,0,0,0-21.11,6.12A76.87,76.87,0,0,1,370.05,87l-2.34,1.37a79.66,79.66,0,0,0-1.35,20.32.57.57,0,0,0,0,.18h0a159,159,0,0,0-41.85,23.21c-.62.47-1.24,1-1.85,1.45a1,1,0,1,0,1.25,1.56l.6-.47a154.34,154.34,0,0,1,28.77-18h0a46.4,46.4,0,0,0,12.63,14.38c1-.11,2-.22,3-.31a44.44,44.44,0,0,1-13.84-14.93h0a163.75,163.75,0,0,1,25.07-9.34c-.67,4.73.69,10,4.14,16.09A64,64,0,0,0,390,131l2.87.3a60.42,60.42,0,0,1-6.82-9.66c-3.44-6.08-4.68-11.22-3.75-15.71h0a171,171,0,0,1,34.9-5.66c3.14,7.59,8.79,14.68,16.36,20.5,1.82,1.4,3.75,2.73,5.81,4,.48-.47.95-1,1.4-1.49a69.92,69.92,0,0,1-6-4.11A49.11,49.11,0,0,1,419.36,100.11Z" transform="translate(-15.21 -24.45)"/><path class="cls-1" d="M332.45,70.83c2.09.2,4.18.29,6.26.29A98.32,98.32,0,0,0,364,67.37l.81-2.29c-10.18,2.81-20.78,4.68-31.37,3.83a107.56,107.56,0,0,1,12.39-18.32.8.8,0,0,0,.31.09,64.88,64.88,0,0,0,8.25.51,88.08,88.08,0,0,0,12.26-.93l-.35-2a76,76,0,0,1-18.94.52,106.19,106.19,0,0,1,11.78-11.55l-1.78-1.1a109.48,109.48,0,0,0-18.62,20.37A62,62,0,0,1,335,37.22l-2,1.18a64.29,64.29,0,0,0,4.32,20.14A109.78,109.78,0,0,0,328,75.6a16.07,16.07,0,0,1-2.56-2.43A55.59,55.59,0,0,1,317,60.1l-.9,2.73a57.32,57.32,0,0,0,7.78,11.65,16.36,16.36,0,0,0,3.27,3,103.87,103.87,0,0,0-7.09,25.63,1,1,0,0,0,.85,1.13h.14a1,1,0,0,0,1-.86,103.42,103.42,0,0,1,10.38-32.55Z" transform="translate(-15.21 -24.45)"/></g><path class="cls-1" d="M298.55,88c-.07-.08-.25-.23-.52-.46C289.72,80.4,271.23,61,279.1,35.08l1,.29c-7.7,25.31,10.46,44.4,18.62,51.44.31.26.51.43.59.51Z" transform="translate(-15.21 -24.45)"/><path class="cls-1" d="M278.67,38.53s10-11.13,4.19-13.79S278.67,38.53,278.67,38.53Z" transform="translate(-15.21 -24.45)"/><path class="cls-1" d="M278.09,41.92s-7.22-8.84-8.25-3.64C268.73,43.9,278.09,41.92,278.09,41.92Z" transform="translate(-15.21 -24.45)"/><path class="cls-1" d="M277.69,47.42s9.58,2.7,7.89-4C284,37.16,277.69,47.42,277.69,47.42Z" transform="translate(-15.21 -24.45)"/><path class="cls-1" d="M278.17,53.94s-12.17-2.58-9.42-6.88C272,42,278.17,53.94,278.17,53.94Z" transform="translate(-15.21 -24.45)"/><path class="cls-1" d="M279.28,59s10.8-1,7.84-6.41C284.39,47.64,279.28,59,279.28,59Z" transform="translate(-15.21 -24.45)"/><path class="cls-1" d="M281.92,66.13s-13.57,2.66-11.3-5C272.7,54.15,281.92,66.13,281.92,66.13Z" transform="translate(-15.21 -24.45)"/><path class="cls-1" d="M285.59,72.74s10.82-8.41,5-12.59C285.58,56.51,285.59,72.74,285.59,72.74Z" transform="translate(-15.21 -24.45)"/><path class="cls-1" d="M288.64,77s-10.49,6.75-14.49-.32S288.64,77,288.64,77Z" transform="translate(-15.21 -24.45)"/><path class="cls-1" d="M293.69,82.83s11.34-11.67,3-16.1S293.69,82.83,293.69,82.83Z" transform="translate(-15.21 -24.45)"/><path class="cls-1" d="M361.81,175.63c-15.64-21.33-41.81-18.24-52.33-15.92-.4.08-.66.14-.77.15l-.12-1c.1,0,.32-.06.67-.14,10.72-2.36,37.37-5.49,53.35,16.31Z" transform="translate(-15.21 -24.45)"/><path class="cls-1" d="M360.12,172.63s2.92,14.65,8.52,11.62S360.12,172.63,360.12,172.63Z" transform="translate(-15.21 -24.45)"/><path class="cls-1" d="M357.74,170.13s11.41-.48,7.86-4.42C361.77,161.45,357.74,170.13,357.74,170.13Z" transform="translate(-15.21 -24.45)"/><path class="cls-1" d="M353.59,166.51s-7.91,6.06-1.57,8.69C358,177.69,353.59,166.51,353.59,166.51Z" transform="translate(-15.21 -24.45)"/><path class="cls-1" d="M348.08,163s9.36-8.19,11.15-3.41C361.36,165.25,348.08,163,348.08,163Z" transform="translate(-15.21 -24.45)"/><path class="cls-1" d="M343.33,160.82s-5.7,9.23.43,10.11C349.39,171.74,343.33,160.82,343.33,160.82Z" transform="translate(-15.21 -24.45)"/><path class="cls-1" d="M336.08,158.68s6-12.45,10.75-6.05C351.19,158.48,336.08,158.68,336.08,158.68Z" transform="translate(-15.21 -24.45)"/><rect class="cls-3" x="152.33" y="60.45" width="164.92" height="295.14" rx="16.8"/><path class="cls-4" d="M324.12,100.91V354.72a8.12,8.12,0,0,1-8.11,8.11H184a8.11,8.11,0,0,1-8.12-8.11V100.91A8.11,8.11,0,0,1,184,92.8H316A8.12,8.12,0,0,1,324.12,100.91Z" transform="translate(-15.21 -24.45)"/><path class="cls-3" d="M268,104.28H232a18.93,18.93,0,0,1-15.15-7.58l-3.63-4.83h73.6l-3.63,4.83A18.93,18.93,0,0,1,268,104.28Z" transform="translate(-15.21 -24.45)"/><path class="cls-4" d="M269.68,95.83H230.32a2.1,2.1,0,0,1-2.1-2.1h0a2.11,2.11,0,0,1,2.1-2.11h39.36a2.11,2.11,0,0,1,2.1,2.11h0A2.1,2.1,0,0,1,269.68,95.83Z" transform="translate(-15.21 -24.45)"/><path class="cls-3" d="M332.46,147.86h0a5.08,5.08,0,0,1-5.08-5.08v-11.2a5.07,5.07,0,0,1,5.08-5.08h0a5.08,5.08,0,0,1,5.08,5.08v11.2A5.09,5.09,0,0,1,332.46,147.86Z" transform="translate(-15.21 -24.45)"/><path class="cls-3" d="M167.54,147.62h0a5.09,5.09,0,0,1-5.08-5.08v-11.2a5.08,5.08,0,0,1,5.08-5.08h0a5.07,5.07,0,0,1,5.08,5.08v11.2A5.08,5.08,0,0,1,167.54,147.62Z" transform="translate(-15.21 -24.45)"/><path class="cls-3" d="M167.77,178.3h0a5.08,5.08,0,0,1-5.08-5.08V162a5.07,5.07,0,0,1,5.08-5.08h0a5.07,5.07,0,0,1,5.07,5.08v11.2A5.08,5.08,0,0,1,167.77,178.3Z" transform="translate(-15.21 -24.45)"/><path class="cls-1" d="M260.49,122.2H194.61a6,6,0,0,0-6,6v30.95a6,6,0,0,0,6,6h6.54a9.91,9.91,0,0,1-3.21,7.5c-.18.17-.37.31-.55.46a10,10,0,0,0,12.82-8h50.28a6,6,0,0,0,6-6V128.18A6,6,0,0,0,260.49,122.2Z" transform="translate(-15.21 -24.45)"/><path class="cls-1" d="M257.13,135.81H197.6a2.21,2.21,0,0,1-2.2-2.2h0a2.21,2.21,0,0,1,2.2-2.21h59.53a2.2,2.2,0,0,1,2.2,2.21h0A2.2,2.2,0,0,1,257.13,135.81Z" transform="translate(-15.21 -24.45)"/><path class="cls-1" d="M257.13,145.18H197.6a2.21,2.21,0,0,1-2.2-2.21h0a2.21,2.21,0,0,1,2.2-2.2h59.53a2.2,2.2,0,0,1,2.2,2.2h0A2.2,2.2,0,0,1,257.13,145.18Z" transform="translate(-15.21 -24.45)"/><path class="cls-1" d="M234.62,154.54h-37a2.21,2.21,0,0,1-2.2-2.2h0a2.21,2.21,0,0,1,2.2-2.21h37a2.21,2.21,0,0,1,2.21,2.21h0A2.21,2.21,0,0,1,234.62,154.54Z" transform="translate(-15.21 -24.45)"/><path class="cls-1" d="M260.49,298.18H194.61a6,6,0,0,0-6,6v30.95a6,6,0,0,0,6,6h6.54a9.93,9.93,0,0,1-3.21,7.51l-.55.46a10,10,0,0,0,12.82-8h50.28a6,6,0,0,0,6-6V304.16A6,6,0,0,0,260.49,298.18Z" transform="translate(-15.21 -24.45)"/><path class="cls-1" d="M257.13,311.79H197.6a2.2,2.2,0,0,1-2.2-2.2h0a2.2,2.2,0,0,1,2.2-2.2h59.53a2.19,2.19,0,0,1,2.2,2.2h0A2.19,2.19,0,0,1,257.13,311.79Z" transform="translate(-15.21 -24.45)"/><path class="cls-1" d="M257.13,321.16H197.6a2.21,2.21,0,0,1-2.2-2.21h0a2.21,2.21,0,0,1,2.2-2.2h59.53a2.2,2.2,0,0,1,2.2,2.2h0A2.2,2.2,0,0,1,257.13,321.16Z" transform="translate(-15.21 -24.45)"/><path class="cls-1" d="M215.55,330.52h-18a2.2,2.2,0,0,1-2.2-2.2h0a2.2,2.2,0,0,1,2.2-2.2h18a2.2,2.2,0,0,1,2.21,2.2h0A2.2,2.2,0,0,1,215.55,330.52Z" transform="translate(-15.21 -24.45)"/><path class="cls-1" d="M246.57,330.52H228.62a2.2,2.2,0,0,1-2.21-2.2h0a2.2,2.2,0,0,1,2.21-2.2h17.95a2.2,2.2,0,0,1,2.2,2.2h0A2.2,2.2,0,0,1,246.57,330.52Z" transform="translate(-15.21 -24.45)"/><path class="cls-5" d="M239,180.63H304.9a6,6,0,0,1,6,6V199a6,6,0,0,1-6,6h-6.54a9.94,9.94,0,0,0,3.22,7.51c.18.17.36.31.55.46a10,10,0,0,1-12.82-8H239a6,6,0,0,1-6-6V186.6A6,6,0,0,1,239,180.63Z" transform="translate(-15.21 -24.45)"/><path class="cls-5" d="M253,198.33s-5.8-2.62-5.8-6.71,4.77-5.07,5.8-2.41c1.13-2.66,5.65-1.91,5.65,2.36S253,198.33,253,198.33Z" transform="translate(-15.21 -24.45)"/><path class="cls-5" d="M272.23,198.33s-5.81-2.62-5.81-6.71,4.77-5.07,5.81-2.41c1.13-2.66,5.65-1.91,5.65,2.36S272.23,198.33,272.23,198.33Z" transform="translate(-15.21 -24.45)"/><path class="cls-5" d="M291.45,198.33s-5.8-2.62-5.8-6.71,4.77-5.07,5.8-2.41c1.13-2.66,5.65-1.91,5.65,2.36S291.45,198.33,291.45,198.33Z" transform="translate(-15.21 -24.45)"/><path class="cls-1" d="M241.88,217.68H194.61a6,6,0,0,0-6,6v31a6,6,0,0,0,6,6h6.54a9.93,9.93,0,0,1-3.21,7.51l-.55.46a10,10,0,0,0,12.82-8h31.67a6,6,0,0,0,6-6v-31A6,6,0,0,0,241.88,217.68Z" transform="translate(-15.21 -24.45)"/><circle class="cls-1" cx="218.25" cy="238.18" r="14.81" transform="translate(-64.1 32.06) rotate(-13.28)"/><path class="cls-1" d="M215,234.93a2.29,2.29,0,1,1-2.29-2.29A2.29,2.29,0,0,1,215,234.93Z" transform="translate(-15.21 -24.45)"/><path class="cls-1" d="M224.68,236.93a.46.46,0,0,1-.2-.05l-3.18-1.53A.42.42,0,0,1,221,235a.46.46,0,0,1,.22-.43l3.18-1.9a.47.47,0,0,1,.64.16.46.46,0,0,1-.16.63l-2.44,1.47,2.4,1.15a.47.47,0,0,1-.2.89Z" transform="translate(-15.21 -24.45)"/><path class="cls-1" d="M210.06,240.5a8.51,8.51,0,0,0,16.37,0Z" transform="translate(-15.21 -24.45)"/><path class="cls-6" d="M436.42,348.53l3.13,18.31,21.88-33a11.15,11.15,0,0,1,1.78-9.82c3.57-4.91,11.61-10.78,13.84-10.3s4,9.25,3.13,12.45-6.7,14.12-6.7,14.12S458.3,395.41,450.28,399c-6.06,2.72-21.12,5.77-34-20.13" transform="translate(-15.21 -24.45)"/><path class="cls-7" d="M388.69,260.54s-7.1-5.08-7.11-12.08,7.94-11.8,14.25-9.06c5.9-2.33,11.67-4.52,18-3.15a12.89,12.89,0,0,1,8.68,7s4.49-4,8.34-2.75,1.92,7.76,1.92,7.76,6.31-2.41,9.47,2.53-1.93,10.57-1.93,10.57,7.41,2.57,6,10.55a11.41,11.41,0,0,1-8.09,9.48s4.8,6.59-1.1,12.49a23.74,23.74,0,0,1-12.63,6.72s-1.37,8-13,4.26C399.68,296.49,388.69,260.54,388.69,260.54Z" transform="translate(-15.21 -24.45)"/><path class="cls-8" d="M354.23,402.77s-3.76-83.61,36.84-88.94c15.05-2,20.16,1.44,24.15,3.5,17.35,8.95,20.16,37.24,19,52.69-1.19,16.51-4.17,32.75-4.17,32.75Z" transform="translate(-15.21 -24.45)"/><path class="cls-3" d="M426.6,279s-5.63,24.42-14.79,26.45c-12.66,2.79-28.24-2.77-32.21-13-4.16-10.75,9.09-37.17,9.09-37.17s4.68,8.41,14,2.47c3.09,9.82,13.05,4.7,13.05,4.7S415.46,277.21,426.6,279Z" transform="translate(-15.21 -24.45)"/><path class="cls-3" d="M424.93,280.81s-3.43,7-2.15,8.27,8-.08,10.9-5.27S427.93,274.08,424.93,280.81Z" transform="translate(-15.21 -24.45)"/><path class="cls-8" d="M402,273.54a1.91,1.91,0,0,0,1.29,2.42c.9.27,1.62-.27,2-1.45a1.77,1.77,0,1,0-3.27-1Z" transform="translate(-15.21 -24.45)"/><path class="cls-8" d="M388.78,268.93a1.93,1.93,0,0,0,1.29,2.43c.9.27,1.62-.27,2-1.45a1.77,1.77,0,1,0-3.27-1Z" transform="translate(-15.21 -24.45)"/><path class="cls-9" d="M398.63,267.68a9.38,9.38,0,0,0-3.73,1.94c-1.78,1.49-3.34,6.48-4.94,7.89-1.27,1.12,4.24,4.19,5.61.63" transform="translate(-15.21 -24.45)"/><path class="cls-4" d="M397.72,283.58s-5.55-1.15-10.64-2.76C388,287.14,396.15,287.82,397.72,283.58Z" transform="translate(-15.21 -24.45)"/><path class="cls-7" d="M408.14,272.55a.56.56,0,0,1-.46-.25s-1.85-2.78-4.36-2.9a.54.54,0,0,1,.06-1.08c3.06.15,5.12,3.26,5.21,3.39a.55.55,0,0,1-.16.75A.52.52,0,0,1,408.14,272.55Z" transform="translate(-15.21 -24.45)"/><path class="cls-7" d="M388.63,264.21a.55.55,0,0,1-.49-.3.54.54,0,0,1,.25-.72,8.47,8.47,0,0,1,6.14,0,.54.54,0,1,1-.35,1,7.61,7.61,0,0,0-5.32,0A.59.59,0,0,1,388.63,264.21Z" transform="translate(-15.21 -24.45)"/><path class="cls-9" d="M402.67,282.36a3.61,3.61,0,1,0,4.5-2.43A3.62,3.62,0,0,0,402.67,282.36Z" transform="translate(-15.21 -24.45)"/><polyline class="cls-3" points="405.77 264.1 404.19 295.62 393.46 311.14 377.19 289.94 380.79 276.37"/><rect class="cls-5" x="273.4" y="421.04" width="72" height="10.83" rx="5.02"/><rect class="cls-5" x="381.93" y="437.11" width="50.41" height="10.83" rx="5.02"/><path class="cls-7" d="M421,271.85s-5.52,10.6,4,12.88c4-11.55,5.68-15.42,5.68-15.42" transform="translate(-15.21 -24.45)"/><path class="cls-8" d="M425,358l13.62-6.79s-1.2-23.42-19.26-31.14" transform="translate(-15.21 -24.45)"/><path class="cls-3" d="M346.43,340.58s-8.4,20.6-8.18,66.64c20.54,2.24,24.53.91,24.53.91l7.68-54.56Z" transform="translate(-15.21 -24.45)"/><path class="cls-8" d="M392.29,313.23s-36.43-7.39-49.62,33.07c16.39,6.56,28.12,10.63,28.12,10.63" transform="translate(-15.21 -24.45)"/><rect class="cls-8" x="462.29" y="305.14" width="16.65" height="27.48" rx="1.56" transform="translate(116.84 -162.23) rotate(19.33)"/><path class="cls-10" d="M480.54,311.87,474,330.56a1.1,1.1,0,0,1-1.4.67l-11.23-3.94a1.1,1.1,0,0,1-.67-1.4l6.55-18.68a1.09,1.09,0,0,1,1.4-.66l11.23,3.94a1.07,1.07,0,0,1,.7,1.27A.45.45,0,0,1,480.54,311.87Z" transform="translate(-15.21 -24.45)"/><polygon class="cls-11" points="464.03 291.11 462.61 295.17 449.11 303.88 446.47 302.96 464.03 291.11"/><path class="cls-11" d="M480.57,311.76l-19.43,12.85,1.77-5.06,15.25-9.66,1.71.6A1.07,1.07,0,0,1,480.57,311.76Z" transform="translate(-15.21 -24.45)"/><path class="cls-12" d="M372.82,357.87l-30.33-11.1a.49.49,0,0,1-.29-.64.5.5,0,0,1,.64-.3l29.3,10.72L376,341.82a.5.5,0,0,1,.61-.36.49.49,0,0,1,.35.61Z" transform="translate(-15.21 -24.45)"/><path class="cls-12" d="M433.52,354.33l-.09-.7a76.64,76.64,0,0,0-2.15-10.08.5.5,0,1,1,1-.28,79.27,79.27,0,0,1,2.09,9.54l4.1-2a.5.5,0,0,1,.45.89Z" transform="translate(-15.21 -24.45)"/><rect class="cls-5" x="293.23" y="377.79" width="177.41" height="22.44" rx="10.4"/><path class="cls-6" d="M95.61,261.49,76.28,275.15s-20.49-27.2-24-29-6.18-2.78-7.84-6.72,1-13.55,3.27-13S95.61,261.49,95.61,261.49Z" transform="translate(-15.21 -24.45)"/><path class="cls-8" d="M53.78,233l-11-22.43a2.69,2.69,0,0,0-3.43-1.3h0a2.68,2.68,0,0,0-1.45,3.55l9.52,22Z" transform="translate(-15.21 -24.45)"/><path class="cls-8" d="M139.27,207.34S158.35,195,136.41,158c-9-15.13-1.83-33.16-11.37-46.94C113.22,94,83.48,93.75,66,109.32c-17.22,15.34-.49,34.52-5.75,51.39-6.73,21.62-3.51,45.63,20.52,44.73S139.27,207.34,139.27,207.34Z" transform="translate(-15.21 -24.45)"/><path class="cls-13" d="M152.44,269.72s3.76-83.6-36.84-88.94c-15.06-2-20.16,1.44-24.15,3.5-17.35,8.95-19,31.76-17.85,47.21,1.19,16.51,3,38.23,3,38.23Z" transform="translate(-15.21 -24.45)"/><rect class="cls-5" y="245.26" width="177.41" height="22.44" rx="10.4"/><path class="cls-3" d="M107.75,138s6.74,23.57,1.27,30.58c-8,10.22-29.86,11.22-37.07,4.46s-7.2-42.18-7.2-42.18,8.38,8,19.43,7.78c8.66-.21,11.43-10.59,11.43-10.59S95.46,140.11,107.75,138Z" transform="translate(-15.21 -24.45)"/><path class="cls-3" d="M114.43,140.27s.15,7.81,1.86,8.34,7.08-3.73,7.29-9.67S114,132.92,114.43,140.27Z" transform="translate(-15.21 -24.45)"/><path class="cls-8" d="M85.78,148.51c.21,1.21.72-.32,1.65-.48s1.92,1.12,1.71-.1S88,145.86,87.08,146A2,2,0,0,0,85.78,148.51Z" transform="translate(-15.21 -24.45)"/><path class="cls-8" d="M71.92,150.22c.21,1.21.72-.32,1.65-.48s1.92,1.12,1.72-.1-1.13-2.07-2.06-1.91A2,2,0,0,0,71.92,150.22Z" transform="translate(-15.21 -24.45)"/><path class="cls-9" d="M79.33,146.69a3.34,3.34,0,0,0-2.52,2.57c-.5,2.09-.13,7,.11,8.23s6.25,1.42,6.12-1.05" transform="translate(-15.21 -24.45)"/><path class="cls-8" d="M90.64,144.9a.45.45,0,0,1-.25-.07s-2.91-1.68-5.23-.67a.5.5,0,0,1-.66-.26.5.5,0,0,1,.26-.66c2.79-1.22,6,.65,6.13.73a.5.5,0,0,1-.25.93Z" transform="translate(-15.21 -24.45)"/><path class="cls-8" d="M69,146.8a.49.49,0,0,1-.39-.8A8.45,8.45,0,0,1,74,143.26a.5.5,0,0,1,.13,1,7.62,7.62,0,0,0-4.8,2.36A.5.5,0,0,1,69,146.8Z" transform="translate(-15.21 -24.45)"/><path class="cls-4" d="M88.28,155.92a22.83,22.83,0,0,1-10.91,5.33C82.64,165.93,90,160.61,88.28,155.92Z" transform="translate(-15.21 -24.45)"/><path class="cls-9" d="M92,152.61a3.62,3.62,0,1,0,3-4.17A3.63,3.63,0,0,0,92,152.61Z" transform="translate(-15.21 -24.45)"/><path class="cls-3" d="M110.76,153.16l4.84,27.62a16,16,0,0,1-11.81,9.09C95,191.37,92,188.59,92,188.59l-1.76-14" transform="translate(-15.21 -24.45)"/><path class="cls-3" d="M141.3,220.67,111,227.52l3.67,20.81s-9.49-3.66-27.63-6.77c-17.46-3-27.63-8.29-27.63-8.29-5.59-4-9.34-8.82-11.15-8.54-2.49.39,2.38,4.65.81,5.94s-5.47-8.46-7.27-7.39c-.69.41-1,4.83-.33,6.31,1.24,2.91,5.34,10.77,11.16,13.13,9.49,3.84,31.8,27.17,54.36,33.84S154.12,278.73,141.3,220.67Z" transform="translate(-15.21 -24.45)"/><rect class="cls-5" x="19.14" y="281.04" width="72" height="10.83" rx="5.02"/><path class="cls-14" d="M106.79,228.69l-3.4-15.25a.54.54,0,0,1,.41-.64.52.52,0,0,1,.64.41l3.17,14.2,33.11-7.17c-.4-3.85-3.66-30.11-18.83-31.19a.55.55,0,0,1-.5-.58.53.53,0,0,1,.58-.5c7.16.51,12.87,6.35,16.51,16.89a71.8,71.8,0,0,1,3.36,15.76l0,.47Z" transform="translate(-15.21 -24.45)"/><path class="cls-7" d="M109.66,119.42S83,103.54,63.86,114.75C85.74,92.72,108.32,116.75,109.66,119.42Z" transform="translate(-15.21 -24.45)"/><path class="cls-5" d="M267.76,242.66h95.87a6,6,0,0,1,6,6v31a6,6,0,0,1-6,6H357.1a9.93,9.93,0,0,0,3.21,7.51l.55.46a10,10,0,0,1-12.82-8H267.76a6,6,0,0,1-6-6v-31A6,6,0,0,1,267.76,242.66Z" transform="translate(-15.21 -24.45)"/><path class="cls-5" d="M363.63,242.66a6,6,0,0,1,6,6v31a6,6,0,0,1-6,6H357.1a9.93,9.93,0,0,0,3.21,7.51l.55.46a10.06,10.06,0,0,1-3,.45,9.94,9.94,0,0,1-9.84-8.42H267.76a6,6,0,0,1-6-6v-31a6,6,0,0,1,6-6h95.87m0-3H267.76a9,9,0,0,0-9,9v31a9,9,0,0,0,9,9h78A12.94,12.94,0,0,0,357.88,297a13,13,0,0,0,3.87-.59l5.42-1.68-4.44-3.53-.06,0-.33-.28a6.81,6.81,0,0,1-1.65-2.3h2.94a9,9,0,0,0,9-9v-31a9,9,0,0,0-9-9Z" transform="translate(-15.21 -24.45)"/><circle class="cls-5" cx="279.15" cy="263.43" r="11.37" transform="translate(-119.72 250.1) rotate(-45)"/><path class="cls-5" d="M360.28,256.27H300.75a2.21,2.21,0,0,1-2.2-2.21h0a2.21,2.21,0,0,1,2.2-2.2h59.53a2.21,2.21,0,0,1,2.2,2.2h0A2.21,2.21,0,0,1,360.28,256.27Z" transform="translate(-15.21 -24.45)"/><path class="cls-5" d="M360.28,265.63H300.75a2.2,2.2,0,0,1-2.2-2.2h0a2.2,2.2,0,0,1,2.2-2.2h59.53a2.2,2.2,0,0,1,2.2,2.2h0A2.2,2.2,0,0,1,360.28,265.63Z" transform="translate(-15.21 -24.45)"/><path class="cls-5" d="M350.77,275h-50a2.21,2.21,0,0,1-2.2-2.21h0a2.21,2.21,0,0,1,2.2-2.2h50a2.21,2.21,0,0,1,2.21,2.2h0A2.21,2.21,0,0,1,350.77,275Z" transform="translate(-15.21 -24.45)"/><path class="cls-5" d="M114,340H84.62a5,5,0,0,1-5-5h0a5,5,0,0,1,5-5H114a5,5,0,0,1,5,5h0A5,5,0,0,1,114,340Z" transform="translate(-15.21 -24.45)"/><path class="cls-15" d="M98.9,458.83a10.29,10.29,0,0,1-5.27,5.49,14.92,14.92,0,0,1-2.16.92,22.53,22.53,0,0,1-7.26,1.07c-1.44-10.68-9.2-18.24-18.11-24.77-9.17-6.71-19.57-12.35-25.6-19.19-.53-.62-1-1.23-1.5-1.87a16.84,16.84,0,0,1-3.57-9.54,25.42,25.42,0,0,1,3.86-15.16,17.17,17.17,0,0,1,1.38-1.8,17.72,17.72,0,0,1,13.13-6.16,21,21,0,0,1,2.24,0c6.32.43,13.67,3.54,21.39,10.13.93.78,1.82,1.62,2.67,2.47.61.62,1.19,1.24,1.75,1.88,5.85,6.6,9.71,14.71,12.24,22.7.52,1.63,1,3.25,1.4,4.86s.76,3.14,1.07,4.67c.1.47.19.93.28,1.39.14.74.28,1.47.4,2.2A109.9,109.9,0,0,1,98.9,458.83Z" transform="translate(-15.21 -24.45)"/><path class="cls-16" d="M160.38,466.31H53.31s3.53-17.78,18.51-30.41c.56-.47,1.13-.93,1.72-1.38a48.57,48.57,0,0,1,5.84-3.89c.63-.36,1.26-.7,1.92-1a54,54,0,0,1,15.8-5.15c.39-.08.8-.14,1.21-.2s.81-.12,1.2-.16a41.67,41.67,0,0,1,12.62.41c.82.16,1.62.33,2.4.53,11.22,2.76,20.74,9.8,28.15,17.29q1,1.05,2,2.1a111.43,111.43,0,0,1,13.48,18c.56.92,1,1.69,1.36,2.32C160.09,465.74,160.38,466.31,160.38,466.31Z" transform="translate(-15.21 -24.45)"/><path class="cls-16" d="M247.86,466.92H177.23s.05-.22.15-.61a38.82,38.82,0,0,1,12.74-20,34.53,34.53,0,0,1,16.8-7.14c9-1.34,16.81,1.89,23.14,6.58.59.43,1.17.89,1.74,1.34a54.76,54.76,0,0,1,5.35,5q.81.86,1.56,1.71A71.42,71.42,0,0,1,247.86,466.92Z" transform="translate(-15.21 -24.45)"/><path class="cls-15" d="M193.43,466.31H102.52s3.12-22.9,15.94-40.13a50.47,50.47,0,0,1,10.64-10.76l1.9-1.34a39.93,39.93,0,0,1,19.12-6.46c.85-.07,1.67-.1,2.47-.1s1.6,0,2.38.05h0A29.68,29.68,0,0,1,170.68,413a22.15,22.15,0,0,1,1.81,1.38,45.28,45.28,0,0,1,11.37,14.82c.34.66.67,1.34,1,2a88.89,88.89,0,0,1,5.27,15.07A113.25,113.25,0,0,1,193.43,466.31Z" transform="translate(-15.21 -24.45)"/><path class="cls-15" d="M200.54,465l-1-.29c0-.11.09-.38.17-.79,2.48-12.56,11.58-42.53,42.36-49.44l.22,1c-30.21,6.78-39.16,36.28-41.6,48.65C200.64,464.59,200.58,464.89,200.54,465Z" transform="translate(-15.21 -24.45)"/><path class="cls-15" d="M238.34,416s17.06,3.72,16.43-3.69S238.34,416,238.34,416Z" transform="translate(-15.21 -24.45)"/><path class="cls-15" d="M234.56,417.34s4.82-12.44-1.07-10.48C227.15,409,234.56,417.34,234.56,417.34Z" transform="translate(-15.21 -24.45)"/><path class="cls-15" d="M228.74,420.1s2.78,11.29,8.56,5.74C242.79,420.57,228.74,420.1,228.74,420.1Z" transform="translate(-15.21 -24.45)"/><path class="cls-15" d="M222.38,424.35S218,410.49,224,410.81C231,411.18,222.38,424.35,222.38,424.35Z" transform="translate(-15.21 -24.45)"/><path class="cls-15" d="M217.84,428.42s7.22,10.42,11,4.27C232.37,427,217.84,428.42,217.84,428.42Z" transform="translate(-15.21 -24.45)"/><path class="cls-15" d="M212.16,435.18s-10.53-12.25-1.45-14.35C219,418.91,212.16,435.18,212.16,435.18Z" transform="translate(-15.21 -24.45)"/><path class="cls-15" d="M207.55,442.73s14.79,6.15,15.7-2.14C224.05,433.36,207.55,442.73,207.55,442.73Z" transform="translate(-15.21 -24.45)"/><path class="cls-15" d="M205,448.31s-12.91-6.77-8-14.91S205,448.31,205,448.31Z" transform="translate(-15.21 -24.45)"/><path class="cls-15" d="M202,456.78s18.4,4.79,18.1-6.22S202,456.78,202,456.78Z" transform="translate(-15.21 -24.45)"/><g class="cls-2"><path class="cls-4" d="M99.51,424.08a118.33,118.33,0,0,0-3.32,12.1c-.19.83-.35,1.65-.51,2.47a113.35,113.35,0,0,0-2,27.66c0,.34,0,.69.06,1a1.09,1.09,0,0,1-1,1.16h-.08a1.09,1.09,0,0,1-1.08-1c0-.39,0-.78-.07-1.17a113.39,113.39,0,0,1,.37-16.58c.06-.75.14-1.48.23-2.23a118.43,118.43,0,0,1,5-23.06c.39-.08.8-.14,1.21-.2S99.12,424.12,99.51,424.08Z" transform="translate(-15.21 -24.45)"/><path class="cls-4" d="M112.13,424.49A34.37,34.37,0,0,1,96.84,436l-.65.23c-.34.13-.67.23-1,.33a1.1,1.1,0,0,0,.32,2.15h.18l.14,0,1.42-.47A36.28,36.28,0,0,0,114.53,425Z" transform="translate(-15.21 -24.45)"/><path class="cls-4" d="M93.6,448.4a1.08,1.08,0,0,1-.93,1.24c-.26,0-.52.07-.79.09s-.72,0-1.08,0a17.73,17.73,0,0,1-10.66-3.91A36.32,36.32,0,0,1,71.85,436l0-.05c.56-.47,1.13-.93,1.72-1.38.06.1.11.2.18.3a34.74,34.74,0,0,0,7.75,9.3,15,15,0,0,0,10.64,3.38l.26,0A1.07,1.07,0,0,1,93.6,448.4Z" transform="translate(-15.21 -24.45)"/><path class="cls-4" d="M152.59,407.52a100.27,100.27,0,0,0-6.57,17.2,4.64,4.64,0,0,0-.12.47c-.7,2.45-1.28,4.91-1.77,7.4-.15.78-.31,1.56-.44,2.35q-.63,3.66-1,7.37a98.85,98.85,0,0,0,.44,24c0,.18,0,.38.08.57a1.09,1.09,0,0,0,1.08.93h.17a1.1,1.1,0,0,0,.92-1.24l0-.25a96.69,96.69,0,0,1-.65-21.9c.24-3,.62-6,1.14-9,.09-.48.17-1,.26-1.45.5-2.61,1.09-5.19,1.79-7.76.21-.78.43-1.57.67-2.35a98.52,98.52,0,0,1,6.45-16.3Z" transform="translate(-15.21 -24.45)"/><path class="cls-4" d="M172.49,414.41a49.55,49.55,0,0,1-24.61,11.81c-.25,0-.49.09-.75.12a.44.44,0,0,1-.16,0,1.08,1.08,0,0,1-1.07-.94.5.5,0,0,1,0-.17s0-.05,0-.06a1.14,1.14,0,0,1,.1-.45l0,0a1.08,1.08,0,0,1,.78-.55c.59-.08,1.17-.18,1.75-.3A48.09,48.09,0,0,0,170.68,413,22.15,22.15,0,0,1,172.49,414.41Z" transform="translate(-15.21 -24.45)"/><path class="cls-4" d="M129.1,415.42c.17.62.36,1.24.58,1.84a35.06,35.06,0,0,0,14,17.68l.91.57a1.27,1.27,0,0,0,.56.15,1.09,1.09,0,0,0,.67-.23h0a.86.86,0,0,0,.27-.3,1.07,1.07,0,0,0,0-1.14,1,1,0,0,0-.36-.36c-.55-.33-1.07-.67-1.6-1a32.89,32.89,0,0,1-12.38-16c-.29-.81-.54-1.62-.75-2.46Z" transform="translate(-15.21 -24.45)"/><path class="cls-4" d="M183.86,429.23a95.37,95.37,0,0,0-25.69,33.18c-.45.95-.88,1.93-1.3,2.9a1.1,1.1,0,0,0,.09,1,1.05,1.05,0,0,0,.51.44,1,1,0,0,0,.41.08,1.15,1.15,0,0,0,1-.52l.06-.14c.21-.49.41-1,.63-1.44a93.06,93.06,0,0,1,25.32-33.48Z" transform="translate(-15.21 -24.45)"/><path class="cls-4" d="M81.3,429.59a79.67,79.67,0,0,0-8-11.51c-.47-.57-.94-1.13-1.42-1.68a84.76,84.76,0,0,0-14.59-13.22c-.71-.5-1.43-1-2.15-1.47A81.76,81.76,0,0,0,40.67,394l-1.38,1.8a80.6,80.6,0,0,1,21,12.41c.57.46,1.14.93,1.69,1.41a79.69,79.69,0,0,1,17.41,21Z" transform="translate(-15.21 -24.45)"/><path class="cls-4" d="M56,387.85a63.23,63.23,0,0,1,1.29,15.33c0,.09,0,.16,0,.25a1.08,1.08,0,0,1-1.09,1.05h0a1.1,1.1,0,0,1-1-1.14c0-.54,0-1.08,0-1.63a61.89,61.89,0,0,0-1.38-13.89Z" transform="translate(-15.21 -24.45)"/><path class="cls-4" d="M81.85,402.33c-.12.41-.24.82-.38,1.22a37.86,37.86,0,0,1-8.13,14.53c-.16.19-.32.36-.5.54a1.09,1.09,0,0,1-1.55,0,1.11,1.11,0,0,1,0-1.56c.22-.21.43-.44.64-.67a36,36,0,0,0,7.46-13.53c.26-.8.49-1.61.72-2.42C80.71,401.07,81.29,401.69,81.85,402.33Z" transform="translate(-15.21 -24.45)"/><path class="cls-4" d="M40.5,422.35A50.23,50.23,0,0,0,62,409.6c.24-.22.48-.47.71-.71a1.1,1.1,0,0,0-1.59-1.51c-.26.28-.53.56-.81.81A47.87,47.87,0,0,1,39,420.48Z" transform="translate(-15.21 -24.45)"/><path class="cls-4" d="M221.34,466.92a71.22,71.22,0,0,1,4.19-9.95c.38-.78.78-1.53,1.22-2.27h0a55.08,55.08,0,0,1,4.15-6.42c.29-.39.59-.79.89-1.17-.57-.45-1.15-.91-1.74-1.34-.32.4-.62.79-.92,1.2a69.63,69.63,0,0,0-10.11,20Z" transform="translate(-15.21 -24.45)"/><path class="cls-4" d="M238.71,453.82A36,36,0,0,1,225.53,457l-.62,0h0a1.1,1.1,0,0,1,0-2.19c.63,0,1.26-.05,1.89-.1h0a33.3,33.3,0,0,0,10.4-2.58Z" transform="translate(-15.21 -24.45)"/></g><path class="cls-5" d="M253.24,468.81H45a2.5,2.5,0,1,1,0-5H253.24a2.5,2.5,0,0,1,0,5Z" transform="translate(-15.21 -24.45)"/></svg>