<?xml version="1.0" encoding="utf-8"?>
<!-- Generator: Adobe Illustrator 23.0.5, SVG Export Plug-In . SVG Version: 6.00 Build 0)  -->
<svg version="1.1" id="Capa_1" xmlns="http://www.w3.org/2000/svg" xmlns:xlink="http://www.w3.org/1999/xlink" x="0px" y="0px"
	 viewBox="0 0 1080 1080" style="enable-background:new 0 0 1080 1080;" xml:space="preserve">
<style type="text/css">
	.st0{fill:#FFFFFF;}
	.st1{fill:#FDFDFD;}
	.st2{fill:#A35EDF;}
	.st3{fill:#D7B3F7;}
	.st4{font-family:'Raleway-SemiBoldItalic';}
	.st5{font-size:296.0141px;}
</style>
<g>
	<g>
		<path class="st0" d="M377.17,414.44c0.01-4.14,0.02-8.28,0.03-12.41c0.26,0.49,0.73,0.98,0.74,1.48c0.07,3.15,0.07,6.31,0,9.46
			C377.91,413.46,377.43,413.95,377.17,414.44z"/>
		<g>
			<path class="st1" d="M766.43,415.23c0.77,3.78,0.78,10.23,0.01,14.23C766.44,424.72,766.44,419.97,766.43,415.23z"/>
			<path class="st1" d="M724.39,587.68c1.58-2.24,3.38-4.27,5.53-5.97c-0.07,0.42,0.01,0.96-0.23,1.24
				C728.17,584.79,726.89,586.93,724.39,587.68z"/>
			<path class="st1" d="M713.17,598.55c1.41-1.83,3.09-3.38,5.02-4.66C717.29,596.28,715.71,597.93,713.17,598.55z"/>
			<path class="st1" d="M765.57,401.17c1.01,2.71,0.85,5.51,0.72,8.31c-0.74-0.61-0.83-1.45-0.81-2.33
				C765.5,405.16,765.54,403.17,765.57,401.17z"/>
			<path class="st1" d="M764.66,393.28c0.92,1.76,0.86,3.65,0.74,5.55c-0.56-0.48-0.81-1.1-0.8-1.82
				C764.61,395.77,764.64,394.53,764.66,393.28z"/>
			<path class="st1" d="M391.11,597.44c1.35,0.66,2.44,1.61,3.24,2.88C392.56,600.16,391.46,599.22,391.11,597.44z"/>
			<path class="st1" d="M692.61,615.33c0.6-0.97,1.45-1.59,2.55-1.87C694.93,614.93,693.99,615.43,692.61,615.33z"/>
			<path class="st1" d="M410.51,613.54c1.07,0.3,1.94,0.9,2.55,1.84C411.73,615.43,410.84,614.87,410.51,613.54z"/>
			<path class="st1" d="M696.18,612.69c0.57-0.98,1.42-1.6,2.5-1.91C698.51,612.28,697.54,612.74,696.18,612.69z"/>
			<path class="st1" d="M406.97,610.86c1.06,0.32,1.91,0.92,2.51,1.87C408.17,612.75,407.27,612.2,406.97,610.86z"/>
			<path class="st1" d="M403.51,608.12c1.07,0.33,1.9,0.96,2.47,1.93C404.63,610.07,403.68,609.59,403.51,608.12z"/>
			<path class="st1" d="M700.68,609.17c0.57-0.96,1.39-1.6,2.45-1.93C702.95,608.69,702.01,609.18,700.68,609.17z"/>
			<path class="st1" d="M733.28,577.94c0.39-1.03,1.04-1.84,2-2.39C735.22,576.86,734.73,577.8,733.28,577.94z"/>
			<path class="st1" d="M398.16,603.69c1.04,0.36,1.84,1.01,2.38,1.96C399.25,605.61,398.34,605.1,398.16,603.69z"/>
			<path class="st1" d="M706.07,604.76c0.54-0.96,1.34-1.61,2.37-1.98C708.31,604.23,707.37,604.72,706.07,604.76z"/>
			<path class="st1" d="M762.79,462.76c0.09,1.34,0.12,2.67-0.78,3.8C762.01,465.24,761.49,463.81,762.79,462.76z"/>
			<path class="st1" d="M761.9,467.2c0.13,1.3,0,2.55-0.83,3.63C761.13,469.57,760.62,468.18,761.9,467.2z"/>
			<path class="st1" d="M737.73,572.64c0.35-1.06,0.99-1.9,1.96-2.47C739.68,571.5,739.19,572.45,737.73,572.64z"/>
			<path class="st1" d="M761.1,373.82c0.93,1.09,0.89,2.41,0.83,3.72C760.61,376.53,761.13,375.12,761.1,373.82z"/>
			<path class="st1" d="M681.02,623.25c0.65-0.94,1.54-1.53,2.67-1.73C683.32,622.91,682.43,623.48,681.02,623.25z"/>
			<path class="st1" d="M683.7,621.5c0.64-0.95,1.52-1.54,2.65-1.77C686,621.13,685.1,621.69,683.7,621.5z"/>
			<path class="st1" d="M762.92,382.53c0.91,1.17,0.83,2.52,0.74,3.88C762.37,385.31,762.91,383.87,762.92,382.53z"/>
			<path class="st1" d="M686.36,619.73c0.63-0.96,1.5-1.56,2.62-1.8C688.68,619.37,687.76,619.9,686.36,619.73z"/>
			<path class="st1" d="M763.8,387.71c0.92,1.22,0.81,2.62,0.7,4.02C763.24,390.57,763.82,389.09,763.8,387.71z"/>
			<path class="st1" d="M757.56,360.48c0.85,0.78,0.91,1.79,0.84,2.84C757.28,362.62,757.51,361.53,757.56,360.48z"/>
			<path class="st1" d="M758.39,363.31c0.72,0.76,0.94,1.66,0.79,2.68C758.2,365.31,758.38,364.29,758.39,363.31z"/>
			<path class="st1" d="M759.33,366.71c0.8,0.79,0.89,1.78,0.77,2.83C759.06,368.81,759.28,367.74,759.33,366.71z"/>
			<path class="st1" d="M752.16,344.71c0.79,0.69,1.02,1.6,0.97,2.6C751.99,346.75,752.17,345.7,752.16,344.71z"/>
			<path class="st1" d="M760.06,475.19c0.16,1.03-0.04,1.96-0.77,2.74C759.27,476.94,759.08,475.9,760.06,475.19z"/>
			<path class="st1" d="M760.94,471.64c0.15,1.03-0.01,1.98-0.75,2.77C760.16,473.41,759.96,472.37,760.94,471.64z"/>
			<path class="st1" d="M750.38,340.28c0.81,0.67,1.03,1.58,1.03,2.57C750.2,342.34,750.41,341.26,750.38,340.28z"/>
			<path class="st1" d="M760.23,370.21c0.81,0.82,0.87,1.82,0.74,2.88C759.94,372.33,760.17,371.25,760.23,370.21z"/>
			<path class="st1" d="M758.34,481.4c0.11,1.03-0.04,1.99-0.82,2.75C757.49,483.15,757.31,482.09,758.34,481.4z"/>
			<path class="st1" d="M762.04,378.07c0.79,0.87,0.82,1.92,0.68,3.01C761.69,380.26,761.95,379.15,762.04,378.07z"/>
			<path class="st1" d="M746.76,512.47c0.09,0.75-0.25,1.3-0.83,1.73C745.94,513.5,746.09,512.86,746.76,512.47z"/>
			<path class="st1" d="M745.92,514.24c0.07,0.76-0.24,1.34-0.86,1.77C745.05,515.28,745.22,514.63,745.92,514.24z"/>
			<path class="st1" d="M745.05,516.02c0.05,0.76-0.23,1.35-0.88,1.76C744.17,517.05,744.34,516.4,745.05,516.02z"/>
			<path class="st1" d="M744.17,517.8c0.04,0.76-0.24,1.35-0.88,1.76C743.28,518.82,743.45,518.17,744.17,517.8z"/>
			<path class="st1" d="M743.28,519.57c0.05,0.76-0.27,1.33-0.9,1.73C742.39,520.58,742.57,519.94,743.28,519.57z"/>
			<path class="st1" d="M768.88,523.04c0.03-0.79,0.15-1.54,0.92-1.99C769.88,521.9,769.81,522.67,768.88,523.04z"/>
			<path class="st1" d="M768.03,524.84c0.02-0.75,0.13-1.45,0.88-1.84C769,523.79,768.9,524.49,768.03,524.84z"/>
			<path class="st1" d="M767.17,526.62c0-0.75,0.15-1.43,0.89-1.82C768.12,525.58,767.97,526.26,767.17,526.62z"/>
			<path class="st1" d="M739.9,525.87c-0.07,0.74-0.25,1.41-1,1.77C738.87,526.84,739,526.14,739.9,525.87z"/>
			<path class="st1" d="M766.3,528.4c0-0.75,0.15-1.42,0.88-1.81C767.23,527.37,767.09,528.04,766.3,528.4z"/>
			<path class="st1" d="M738.93,527.6c-0.02,0.75-0.28,1.36-0.97,1.73C737.97,528.57,738.15,527.92,738.93,527.6z"/>
			<path class="st1" d="M765.4,530.18c0.01-0.74,0.18-1.4,0.9-1.79C766.35,529.16,766.19,529.83,765.4,530.18z"/>
			<path class="st1" d="M764.49,531.94c0.02-0.74,0.18-1.42,0.92-1.79C765.45,530.93,765.3,531.6,764.49,531.94z"/>
			<path class="st1" d="M736.32,532.07c-0.06,0.73-0.3,1.36-1.02,1.71C735.31,533.01,735.49,532.35,736.32,532.07z"/>
			<path class="st1" d="M763.57,533.7c0.04-0.74,0.19-1.42,0.94-1.79C764.56,532.7,764.41,533.38,763.57,533.7z"/>
			<path class="st1" d="M762.63,535.44c0.06-0.73,0.2-1.42,0.96-1.78C763.66,534.46,763.55,535.17,762.63,535.44z"/>
			<path class="st1" d="M761.68,537.16c0.09-0.72,0.23-1.41,0.98-1.77C762.76,536.22,762.67,536.94,761.68,537.16z"/>
			<path class="st1" d="M733.61,536.48c-0.03,0.74-0.39,1.27-1.02,1.64C732.64,537.39,732.84,536.76,733.61,536.48z"/>
			<path class="st1" d="M760.12,539.95c-0.02-0.74,0.3-1.29,0.93-1.67C761.03,539,760.85,539.63,760.12,539.95z"/>
			<path class="st1" d="M731.88,539.17c-0.07,0.73-0.39,1.29-1.05,1.63C730.87,540.06,731.07,539.42,731.88,539.17z"/>
			<path class="st1" d="M759.14,541.69c0.04-0.73,0.27-1.36,0.98-1.72C760.13,540.73,759.96,541.39,759.14,541.69z"/>
			<path class="st1" d="M730.11,541.84c-0.07,0.72-0.41,1.27-1.07,1.6C729.1,542.71,729.31,542.07,730.11,541.84z"/>
			<path class="st1" d="M758.14,543.37c0.1-0.72,0.27-1.39,1.02-1.72C759.21,542.46,759.11,543.18,758.14,543.37z"/>
			<path class="st1" d="M756.49,546.13c0.04-0.73,0.3-1.32,0.99-1.67C757.47,545.21,757.28,545.85,756.49,546.13z"/>
			<path class="st1" d="M755.46,547.79c0.11-0.71,0.3-1.37,1.05-1.69C756.55,546.91,756.44,547.62,755.46,547.79z"/>
			<path class="st1" d="M725.72,548.09c-0.1,0.71-0.44,1.25-1.11,1.56C724.67,548.91,724.88,548.28,725.72,548.09z"/>
			<path class="st1" d="M753.75,550.51c0.08-0.72,0.32-1.34,1.04-1.66C754.79,549.62,754.62,550.29,753.75,550.51z"/>
			<path class="st1" d="M723.07,551.65c-0.11,0.71-0.48,1.22-1.13,1.52C722.01,552.44,722.23,551.82,723.07,551.65z"/>
			<path class="st1" d="M752.01,553.2c0.07-0.72,0.35-1.3,1.04-1.63C753.02,552.32,752.83,552.96,752.01,553.2z"/>
			<path class="st1" d="M750.23,555.86c0.07-0.72,0.36-1.29,1.04-1.6C751.25,555,751.05,555.63,750.23,555.86z"/>
			<path class="st1" d="M719.56,556.14c-0.14,0.69-0.49,1.22-1.17,1.49C718.46,556.88,718.68,556.25,719.56,556.14z"/>
			<path class="st1" d="M748.42,558.49c0.09-0.71,0.37-1.29,1.07-1.59C749.46,557.66,749.27,558.3,748.42,558.49z"/>
			<path class="st1" d="M746.57,561.08c0.12-0.7,0.38-1.3,1.11-1.58C747.67,560.28,747.51,560.95,746.57,561.08z"/>
			<path class="st1" d="M715.12,561.47c-0.14,0.69-0.53,1.17-1.19,1.43C714.03,562.17,714.26,561.56,715.12,561.47z"/>
			<path class="st1" d="M743.95,564.67c0.11-0.7,0.4-1.27,1.1-1.54C745.02,563.89,744.83,564.52,743.95,564.67z"/>
			<path class="st1" d="M741.27,568.2c0.12-0.69,0.43-1.25,1.13-1.51C742.35,567.44,742.16,568.08,741.27,568.2z"/>
			<path class="st1" d="M406.65,578.41c-0.68-0.15-1.11-0.58-1.36-1.21C406,577.31,406.59,577.56,406.65,578.41z"/>
			<path class="st1" d="M683.69,591.44c-0.29,0.67-0.82,1.01-1.52,1.12C682.33,591.72,682.95,591.5,683.69,591.44z"/>
			<path class="st1" d="M690.03,617.16c0.25-0.72,0.84-0.97,1.53-1.08C691.46,617.02,690.79,617.16,690.03,617.16z"/>
			<path class="st1" d="M414.92,636.78c-0.02,0.74-0.28,1.35-0.97,1.72C413.96,637.75,414.14,637.1,414.92,636.78z"/>
			<path class="st1" d="M412.34,641.27c-0.07,0.73-0.27,1.4-1,1.75C411.31,642.23,411.45,641.53,412.34,641.27z"/>
			<path class="st1" d="M411.36,642.99c-0.01,0.75-0.3,1.33-0.97,1.71C410.41,643.96,410.59,643.31,411.36,642.99z"/>
			<path class="st1" d="M727.33,298.55c0.72,0.28,0.98,0.88,1.09,1.58C727.52,299.98,727.34,299.32,727.33,298.55z"/>
			<path class="st1" d="M729.14,301.15c0.74,0.28,0.98,0.91,1.1,1.61C729.25,302.65,729.13,301.94,729.14,301.15z"/>
			<path class="st1" d="M730.92,303.8c0.75,0.29,0.97,0.93,1.08,1.64C731.02,305.3,730.9,304.59,730.92,303.8z"/>
			<path class="st1" d="M732.68,306.48c0.74,0.31,0.96,0.95,1.06,1.66C732.83,307.94,732.67,307.27,732.68,306.48z"/>
			<path class="st1" d="M734.42,309.21c0.7,0.34,0.95,0.94,1.01,1.67C734.61,310.61,734.42,309.96,734.42,309.21z"/>
			<path class="st1" d="M735.4,310.85c0.75,0.31,0.93,0.98,1.05,1.69C735.44,312.38,735.34,311.66,735.4,310.85z"/>
			<path class="st1" d="M737.09,313.63c0.71,0.35,0.94,0.97,0.98,1.7C737.26,315.04,737.09,314.39,737.09,313.63z"/>
			<path class="st1" d="M738.05,315.3c0.76,0.34,0.92,1.02,1,1.74C738.11,316.81,737.99,316.1,738.05,315.3z"/>
			<path class="st1" d="M739.71,318.16c0.6,0.39,0.95,0.92,0.91,1.66C739.91,319.48,739.73,318.86,739.71,318.16z"/>
			<path class="st1" d="M740.63,319.85c0.68,0.38,0.93,0.98,0.91,1.73C740.79,321.24,740.63,320.59,740.63,319.85z"/>
			<path class="st1" d="M741.55,321.58c0.71,0.37,0.92,1.02,0.93,1.76C741.68,323.01,741.52,322.34,741.55,321.58z"/>
			<path class="st1" d="M742.46,323.32c0.74,0.37,0.9,1.04,0.92,1.79C742.57,324.77,742.41,324.1,742.46,323.32z"/>
			<path class="st1" d="M743.37,325.07c0.75,0.38,0.89,1.06,0.91,1.81C743.45,326.54,743.3,325.86,743.37,325.07z"/>
			<path class="st1" d="M744.26,326.84c0.75,0.38,0.88,1.07,0.89,1.82C744.33,328.31,744.19,327.63,744.26,326.84z"/>
			<path class="st1" d="M745.13,328.63c0.74,0.39,0.89,1.07,0.88,1.82C745.22,330.08,745.07,329.41,745.13,328.63z"/>
			<path class="st1" d="M746,330.43c0.71,0.4,0.88,1.06,0.85,1.81C746.1,331.86,745.95,331.19,746,330.43z"/>
			<path class="st1" d="M746.86,332.25c0.66,0.41,0.89,1.03,0.83,1.79C746.98,333.64,746.83,332.99,746.86,332.25z"/>
			<path class="st1" d="M747.71,334.09c0.58,0.43,0.91,0.97,0.8,1.72C747.86,335.42,747.71,334.79,747.71,334.09z"/>
			<path class="st1" d="M748.72,336.41c0.76,0.47,0.87,1.22,0.87,2.02C748.7,338.02,748.63,337.25,748.72,336.41z"/>
			<path class="st1" d="M749.57,338.39c0.72,0.42,0.86,1.1,0.8,1.85C749.64,339.83,749.5,339.15,749.57,338.39z"/>
			<path class="st1" d="M751.39,342.79c0.73,0.44,0.83,1.14,0.77,1.9C751.4,344.25,751.28,343.57,751.39,342.79z"/>
			<path class="st1" d="M753.11,347.28c0.67,0.45,0.84,1.09,0.74,1.85C753.16,348.68,753.05,348.02,753.11,347.28z"/>
			<path class="st1" d="M754.03,349.77c0.73,0.5,0.84,1.22,0.75,2.02C754,351.31,753.94,350.57,754.03,349.77z"/>
			<path class="st1" d="M754.94,352.35c0.74,0.53,0.82,1.29,0.74,2.1C754.88,353.95,754.84,353.17,754.94,352.35z"/>
			<path class="st1" d="M755.83,354.98c0.73,0.55,0.81,1.31,0.72,2.13C755.76,356.59,755.73,355.81,755.83,354.98z"/>
			<path class="st1" d="M756.71,357.7c0.7,0.53,0.8,1.27,0.69,2.07C756.64,359.26,756.61,358.5,756.71,357.7z"/>
			<path class="st1" d="M759.15,478.75c0.12,0.81,0.02,1.54-0.66,2.09C758.38,480.04,758.41,479.28,759.15,478.75z"/>
			<path class="st1" d="M757.36,484.96c0.12,0.77-0.06,1.44-0.69,1.94C756.6,486.15,756.68,485.45,757.36,484.96z"/>
			<path class="st1" d="M756.5,487.62c0.11,0.78-0.02,1.48-0.71,1.98C755.71,488.83,755.77,488.1,756.5,487.62z"/>
			<path class="st1" d="M755.62,490.28c0.11,0.78-0.06,1.46-0.73,1.96C754.82,491.47,754.89,490.75,755.62,490.28z"/>
			<path class="st1" d="M754.72,492.95c0.11,0.77-0.1,1.41-0.74,1.89C753.93,494.09,754.03,493.41,754.72,492.95z"/>
			<path class="st1" d="M753.79,495.61c0.12,0.74-0.16,1.32-0.73,1.77C753.03,496.69,753.15,496.04,753.79,495.61z"/>
			<path class="st1" d="M753.06,497.38c0.05,0.8-0.04,1.55-0.79,2.04C752.18,498.61,752.24,497.85,753.06,497.38z"/>
			<path class="st1" d="M752.08,500.05c0.1,0.76-0.13,1.38-0.77,1.82C751.27,501.13,751.39,500.47,752.08,500.05z"/>
			<path class="st1" d="M751.32,501.84c0.03,0.8-0.07,1.55-0.83,2.03C750.4,503.04,750.47,502.28,751.32,501.84z"/>
			<path class="st1" d="M750.29,504.49c0.11,0.75-0.19,1.33-0.79,1.77C749.49,505.54,749.62,504.9,750.29,504.49z"/>
			<path class="st1" d="M749.5,506.26c0.04,0.76-0.1,1.44-0.82,1.87C748.62,507.36,748.75,506.67,749.5,506.26z"/>
			<path class="st1" d="M748.71,508.07c0,0.79-0.12,1.54-0.89,1.99C747.74,509.23,747.82,508.47,748.71,508.07z"/>
			<path class="st1" d="M396.95,568.78c-0.54-0.18-0.88-0.55-0.99-1.11C396.55,567.8,396.87,568.18,396.95,568.78z"/>
			<path class="st1" d="M709.67,567.58c-0.08,0.53-0.37,0.86-0.9,0.97C708.87,568.04,709.17,567.72,709.67,567.58z"/>
			<path class="st1" d="M708.82,568.5c-0.09,0.53-0.38,0.86-0.91,0.97C708,568.94,708.3,568.62,708.82,568.5z"/>
			<path class="st1" d="M740.5,569.19c0.04-0.52,0.26-0.89,0.79-1.02C741.28,568.7,741,569.04,740.5,569.19z"/>
			<path class="st1" d="M398.02,569.95c-0.4-0.02-0.61-0.23-0.62-0.63C397.61,569.53,397.81,569.74,398.02,569.95z"/>
			<path class="st1" d="M707.96,569.41c-0.09,0.53-0.4,0.85-0.93,0.96C707.12,569.83,707.43,569.51,707.96,569.41z"/>
			<path class="st1" d="M739.72,570.13c0.02-0.52,0.28-0.85,0.8-0.97C740.44,569.64,740.17,569.96,739.72,570.13z"/>
			<path class="st1" d="M398.9,570.86c-0.44-0.05-0.68-0.29-0.72-0.74C398.42,570.37,398.66,570.61,398.9,570.86z"/>
			<path class="st1" d="M707.09,570.31c-0.1,0.52-0.4,0.85-0.93,0.96C706.24,570.72,706.55,570.41,707.09,570.31z"/>
			<path class="st1" d="M399.79,571.76c-0.46-0.04-0.7-0.29-0.74-0.75C399.29,571.26,399.54,571.51,399.79,571.76z"/>
			<path class="st1" d="M706.21,571.22c-0.1,0.53-0.41,0.84-0.94,0.94C705.35,571.61,705.67,571.3,706.21,571.22z"/>
			<path class="st1" d="M400.67,572.65c-0.46-0.04-0.71-0.29-0.75-0.75C400.17,572.15,400.42,572.4,400.67,572.65z"/>
			<path class="st1" d="M705.33,572.11c-0.1,0.53-0.41,0.84-0.94,0.94C704.47,572.5,704.78,572.18,705.33,572.11z"/>
			<path class="st1" d="M401.56,573.54c-0.46-0.04-0.71-0.29-0.75-0.75C401.06,573.04,401.31,573.29,401.56,573.54z"/>
			<path class="st1" d="M704.44,572.99c-0.1,0.53-0.41,0.84-0.94,0.94C703.58,573.39,703.89,573.07,704.44,572.99z"/>
			<path class="st1" d="M736.94,573.62c0.05-0.52,0.28-0.88,0.82-1C737.73,573.15,737.45,573.48,736.94,573.62z"/>
			<path class="st1" d="M402.45,574.43c-0.46-0.04-0.71-0.29-0.75-0.75C401.95,573.93,402.2,574.18,402.45,574.43z"/>
			<path class="st1" d="M703.55,573.88c-0.1,0.53-0.41,0.84-0.94,0.94C702.69,574.27,703,573.96,703.55,573.88z"/>
			<path class="st1" d="M736.14,574.55c0.04-0.52,0.3-0.86,0.82-0.96C736.88,574.07,736.6,574.39,736.14,574.55z"/>
			<path class="st1" d="M403.34,575.31c-0.46-0.04-0.71-0.29-0.75-0.74C402.84,574.81,403.09,575.06,403.34,575.31z"/>
			<path class="st1" d="M702.67,574.77c-0.1,0.53-0.41,0.84-0.94,0.94C701.8,575.16,702.12,574.85,702.67,574.77z"/>
			<path class="st1" d="M735.34,575.47c0.01-0.52,0.29-0.81,0.78-0.9C735.86,574.87,735.6,575.17,735.34,575.47z"/>
			<path class="st1" d="M404.23,576.18c-0.45-0.04-0.7-0.28-0.74-0.73C403.73,575.69,403.98,575.94,404.23,576.18z"/>
			<path class="st1" d="M701.78,575.66c-0.1,0.53-0.43,0.83-0.96,0.93C700.91,576.04,701.23,575.73,701.78,575.66z"/>
			<path class="st1" d="M405.12,577.05c-0.45-0.03-0.69-0.28-0.73-0.72C404.63,576.57,404.87,576.81,405.12,577.05z"/>
			<path class="st1" d="M700.88,576.53c-0.1,0.53-0.43,0.83-0.96,0.93C700.02,576.92,700.34,576.61,700.88,576.53z"/>
			<path class="st1" d="M730.8,540.86c0.02,0.54-0.22,0.89-0.74,1.04C730.31,541.55,730.55,541.21,730.8,540.86z"/>
			<path class="st1" d="M699.97,577.4c-0.11,0.53-0.44,0.83-0.97,0.91C699.12,577.79,699.44,577.49,699.97,577.4z"/>
			<path class="st1" d="M407.57,579.26c-0.52-0.09-0.85-0.37-0.97-0.9C407.16,578.41,407.48,578.71,407.57,579.26z"/>
			<path class="st1" d="M699.06,578.26c-0.11,0.53-0.44,0.82-0.97,0.9C698.22,578.67,698.54,578.36,699.06,578.26z"/>
			<path class="st1" d="M732.46,578.9c0.06-0.52,0.31-0.87,0.84-0.97C733.27,578.47,732.99,578.79,732.46,578.9z"/>
			<path class="st1" d="M408.49,580.12c-0.52-0.09-0.86-0.38-0.97-0.91C408.06,579.28,408.38,579.58,408.49,580.12z"/>
			<path class="st1" d="M698.14,579.12c-0.1,0.53-0.43,0.82-0.96,0.9C697.32,579.54,697.64,579.24,698.14,579.12z"/>
			<path class="st1" d="M731.63,579.84c0.06-0.53,0.32-0.86,0.86-0.96C732.41,579.39,732.12,579.71,731.63,579.84z"/>
			<path class="st1" d="M409.42,580.96c-0.53-0.08-0.87-0.36-0.98-0.89C408.96,580.15,409.29,580.45,409.42,580.96z"/>
			<path class="st1" d="M697.22,579.99c-0.1,0.52-0.42,0.82-0.95,0.88C696.59,580.58,696.9,580.28,697.22,579.99z"/>
			<path class="st1" d="M730.8,580.76c0.05-0.52,0.32-0.85,0.85-0.94C731.55,580.3,731.27,580.61,730.8,580.76z"/>
			<path class="st1" d="M410.34,581.81c-0.53-0.08-0.86-0.36-0.97-0.89C409.87,581.02,410.19,581.32,410.34,581.81z"/>
			<path class="st1" d="M696.28,580.86c-0.1,0.51-0.41,0.79-0.93,0.84C695.67,581.42,695.98,581.14,696.28,580.86z"/>
			<path class="st1" d="M729.96,581.66c0.04-0.52,0.32-0.81,0.83-0.9C730.69,581.23,730.42,581.53,729.96,581.66z"/>
			<path class="st1" d="M411.25,582.63c-0.53-0.05-0.85-0.34-0.96-0.86C410.62,582.06,410.94,582.35,411.25,582.63z"/>
			<path class="st1" d="M695.34,581.72c-0.09,0.49-0.37,0.78-0.89,0.8C694.74,582.25,695.04,581.98,695.34,581.72z"/>
			<path class="st1" d="M412.17,583.45c-0.52-0.04-0.82-0.33-0.92-0.83C411.55,582.9,411.86,583.18,412.17,583.45z"/>
			<path class="st1" d="M694.37,582.58c-0.08,0.47-0.34,0.74-0.83,0.75C693.82,583.08,694.1,582.83,694.37,582.58z"/>
			<path class="st1" d="M413.08,584.26c-0.53,0.01-0.8-0.27-0.87-0.77C412.5,583.74,412.79,584,413.08,584.26z"/>
			<path class="st1" d="M693.4,583.44c-0.05,0.41-0.25,0.63-0.68,0.63C692.94,583.86,693.17,583.65,693.4,583.44z"/>
			<path class="st1" d="M413.92,584.99c-0.45,0.01-0.66-0.24-0.73-0.65C413.44,584.56,413.68,584.78,413.92,584.99z"/>
			<path class="st1" d="M692.13,584.5c-0.18,0.54-0.55,0.85-1.11,0.94C691.18,584.88,691.56,584.57,692.13,584.5z"/>
			<path class="st1" d="M691.08,585.38c-0.12,0.54-0.48,0.8-1,0.86C690.24,585.75,690.57,585.46,691.08,585.38z"/>
			<path class="st1" d="M690.12,586.21c-0.12,0.52-0.44,0.8-0.97,0.83C689.48,586.77,689.8,586.49,690.12,586.21z"/>
			<path class="st1" d="M736.95,531.12c0.06,0.52-0.17,0.86-0.67,1.02C736.5,531.8,736.73,531.46,736.95,531.12z"/>
			<path class="st1" d="M689.14,587.05c-0.11,0.48-0.39,0.77-0.91,0.77C688.53,587.57,688.84,587.31,689.14,587.05z"/>
			<path class="st1" d="M688.13,587.9c-0.07,0.41-0.29,0.66-0.74,0.64C687.64,588.32,687.88,588.11,688.13,587.9z"/>
			<path class="st1" d="M723.52,588.58c0.07-0.51,0.36-0.82,0.87-0.91C724.37,588.24,724.08,588.54,723.52,588.58z"/>
			<path class="st1" d="M686.8,588.93c-0.18,0.55-0.58,0.83-1.13,0.9C685.85,589.3,686.23,589,686.8,588.93z"/>
			<path class="st1" d="M722.64,589.48c0.08-0.52,0.37-0.82,0.89-0.9C723.49,589.13,723.19,589.43,722.64,589.48z"/>
			<path class="st1" d="M685.72,589.79c-0.13,0.52-0.46,0.79-1,0.82C684.9,590.15,685.23,589.88,685.72,589.79z"/>
			<path class="st1" d="M721.76,590.37c0.08-0.52,0.37-0.82,0.89-0.89C722.6,590.02,722.3,590.32,721.76,590.37z"/>
			<path class="st1" d="M740.5,524.9c0.06,0.52-0.14,0.87-0.65,1.04C739.86,525.47,740.08,525.13,740.5,524.9z"/>
			<path class="st1" d="M684.72,590.61c-0.12,0.48-0.41,0.76-0.93,0.76C684.1,591.12,684.41,590.86,684.72,590.61z"/>
			<path class="st1" d="M720.87,591.25c0.08-0.52,0.37-0.81,0.89-0.89C721.71,590.91,721.42,591.21,720.87,591.25z"/>
			<path class="st1" d="M747.6,510.7c0.08,0.56-0.11,0.99-0.64,1.25C746.96,511.43,747.17,511,747.6,510.7z"/>
			<path class="st1" d="M719.98,592.14c0.08-0.52,0.37-0.81,0.89-0.89C720.83,591.8,720.53,592.1,719.98,592.14z"/>
			<path class="st1" d="M682.22,592.51c-0.14,0.54-0.51,0.77-1.04,0.8C681.37,592.83,681.71,592.56,682.22,592.51z"/>
			<path class="st1" d="M719.09,593.02c0.08-0.52,0.38-0.81,0.9-0.89C719.94,592.69,719.64,592.98,719.09,593.02z"/>
			<path class="st1" d="M729,543.52c0.02,0.54-0.24,0.87-0.74,1.01C728.51,544.19,728.76,543.86,729,543.52z"/>
			<path class="st1" d="M757.5,544.41c-0.03-0.52,0.14-0.91,0.67-1.08C758.18,543.83,757.95,544.18,757.5,544.41z"/>
			<path class="st1" d="M718.19,593.89c0.09-0.51,0.39-0.8,0.91-0.87C719.04,593.57,718.74,593.86,718.19,593.89z"/>
			<path class="st1" d="M728.3,544.48c-0.05,0.58-0.3,1.01-0.86,1.23C727.48,545.13,727.76,544.71,728.3,544.48z"/>
			<path class="st1" d="M390.2,596.58c0.51,0.06,0.82,0.34,0.91,0.85C390.55,597.42,390.25,597.13,390.2,596.58z"/>
			<path class="st1" d="M712.22,599.41c0.05-0.5,0.32-0.77,0.84-0.78C712.78,598.89,712.5,599.15,712.22,599.41z"/>
			<path class="st1" d="M711.28,600.29c0.08-0.51,0.37-0.78,0.89-0.82C712.03,599.91,711.73,600.19,711.28,600.29z"/>
			<path class="st1" d="M394.46,600.41c0.52,0,0.79,0.27,0.85,0.78C395.03,600.92,394.74,600.66,394.46,600.41z"/>
			<path class="st1" d="M710.33,601.14c0.09-0.53,0.41-0.79,0.93-0.84C711.12,600.76,710.81,601.04,710.33,601.14z"/>
			<path class="st1" d="M395.36,601.23c0.51,0.04,0.82,0.31,0.9,0.82C395.8,601.96,395.5,601.69,395.36,601.23z"/>
			<path class="st1" d="M709.39,601.98c0.09-0.53,0.43-0.8,0.95-0.85C710.21,601.62,709.9,601.91,709.39,601.98z"/>
			<path class="st1" d="M396.26,602.05c0.53,0.04,0.86,0.31,0.95,0.84C396.72,602.81,396.41,602.52,396.26,602.05z"/>
			<path class="st1" d="M708.45,602.78c0.1-0.53,0.45-0.77,0.96-0.82C709.3,602.48,708.99,602.76,708.45,602.78z"/>
			<path class="st1" d="M742.37,521.34c0.03,0.59-0.17,1.05-0.72,1.32C741.66,522.09,741.89,521.65,742.37,521.34z"/>
			<path class="st1" d="M397.2,602.88c0.51,0.05,0.87,0.29,0.97,0.82C397.64,603.66,397.32,603.38,397.2,602.88z"/>
			<path class="st1" d="M705.08,605.61c0.07-0.51,0.35-0.78,0.88-0.77C705.67,605.1,705.37,605.36,705.08,605.61z"/>
			<path class="st1" d="M400.67,605.75c0.52-0.02,0.81,0.25,0.87,0.75C401.26,606.25,400.96,606,400.67,605.75z"/>
			<path class="st1" d="M704.11,606.45c0.09-0.53,0.42-0.78,0.94-0.81C704.9,606.1,704.58,606.37,704.11,606.45z"/>
			<path class="st1" d="M401.58,606.53c0.52,0.03,0.85,0.28,0.95,0.81C402.05,607.26,401.74,606.99,401.58,606.53z"/>
			<path class="st1" d="M703.14,607.24c0.11-0.53,0.47-0.76,0.98-0.8C703.98,606.94,703.66,607.22,703.14,607.24z"/>
			<path class="st1" d="M402.52,607.33c0.51,0.04,0.87,0.26,0.99,0.79C402.97,608.1,402.65,607.83,402.52,607.33z"/>
			<path class="st1" d="M727.14,546.22c0.06,0.52-0.23,0.78-0.7,0.9C726.67,546.82,726.9,546.52,727.14,546.22z"/>
			<path class="st1" d="M699.68,610.01c0.1-0.52,0.43-0.76,0.94-0.78C700.47,609.68,700.16,609.95,699.68,610.01z"/>
			<path class="st1" d="M406.02,610.08c0.52,0.02,0.86,0.26,0.96,0.79C406.5,610.81,406.18,610.54,406.02,610.08z"/>
			<path class="st1" d="M698.69,610.77c0.12-0.53,0.49-0.74,0.99-0.77C699.54,610.5,699.22,610.77,698.69,610.77z"/>
			<path class="st1" d="M409.56,612.79c0.51,0.01,0.85,0.23,0.95,0.76C410.03,613.5,409.72,613.24,409.56,612.79z"/>
			<path class="st1" d="M726.44,547.11c-0.01,0.53-0.25,0.9-0.78,1.05C725.71,547.65,725.98,547.31,726.44,547.11z"/>
			<path class="st1" d="M695.16,613.47c0.12-0.54,0.49-0.74,1-0.76C696,613.18,695.68,613.45,695.16,613.47z"/>
			<path class="st1" d="M735.3,533.79c0,0.57-0.22,1-0.77,1.23C734.56,534.46,734.82,534.05,735.3,533.79z"/>
			<path class="st1" d="M739.01,316.98c0.53,0.17,0.71,0.56,0.65,1.08C739.24,317.83,739.01,317.48,739.01,316.98z"/>
			<path class="st1" d="M413.12,615.42c0.51,0.01,0.87,0.21,0.98,0.74C413.6,616.15,413.28,615.89,413.12,615.42z"/>
			<path class="st1" d="M691.58,616.07c0.13-0.53,0.52-0.7,1.02-0.72C692.44,615.83,692.11,616.09,691.58,616.07z"/>
			<path class="st1" d="M754.8,548.83c-0.02-0.52,0.16-0.91,0.7-1.08C755.51,548.27,755.27,548.62,754.8,548.83z"/>
			<path class="st1" d="M688.98,617.93c0.11-0.53,0.48-0.73,0.99-0.73C689.8,617.67,689.48,617.92,688.98,617.93z"/>
			<path class="st1" d="M724.55,549.73c0.01,0.53-0.26,0.84-0.76,0.97C724.05,550.38,724.3,550.05,724.55,549.73z"/>
			<path class="st1" d="M736.42,312.5c0.53,0.18,0.69,0.58,0.66,1.1C736.62,313.38,736.38,313.02,736.42,312.5z"/>
			<path class="st1" d="M723.81,550.68c-0.03,0.53-0.27,0.9-0.81,1.04C723.06,551.2,723.33,550.86,723.81,550.68z"/>
			<path class="st1" d="M753.08,551.51c-0.02-0.52,0.18-0.89,0.71-1.04C753.76,550.95,753.52,551.3,753.08,551.51z"/>
			<path class="st1" d="M734.26,535.56c0.05,0.52-0.2,0.82-0.68,0.97C733.81,536.21,734.03,535.88,734.26,535.56z"/>
			<path class="st1" d="M721.87,553.27c0,0.52-0.27,0.81-0.75,0.94C721.36,553.9,721.61,553.59,721.87,553.27z"/>
			<path class="st1" d="M751.32,554.18c-0.02-0.52,0.2-0.88,0.72-1.02C752.01,553.64,751.76,553.98,751.32,554.18z"/>
			<path class="st1" d="M721.11,554.21c-0.03,0.54-0.29,0.88-0.82,1.01C720.38,554.73,720.65,554.39,721.11,554.21z"/>
			<path class="st1" d="M720.34,555.16c-0.06,0.52-0.3,0.9-0.84,1.04C719.54,555.65,719.82,555.31,720.34,555.16z"/>
			<path class="st1" d="M749.53,556.83c-0.01-0.52,0.21-0.88,0.73-1.01C750.23,556.31,749.98,556.64,749.53,556.83z"/>
			<path class="st1" d="M733.7,308.1c0.53,0.16,0.72,0.54,0.7,1.07C733.95,308.95,733.7,308.6,733.7,308.1z"/>
			<path class="st1" d="M761.08,538.2c-0.05-0.52,0.12-0.92,0.65-1.1C761.74,537.61,761.52,537.97,761.08,538.2z"/>
			<path class="st1" d="M731.97,305.4c0.53,0.16,0.71,0.56,0.7,1.08C732.2,306.28,731.95,305.93,731.97,305.4z"/>
			<path class="st1" d="M741.43,523.13c0.05,0.57-0.16,0.98-0.69,1.21C740.76,523.81,740.99,523.41,741.43,523.13z"/>
			<path class="st1" d="M718.33,557.72c-0.01,0.52-0.29,0.8-0.77,0.91C717.81,558.33,718.07,558.02,718.33,557.72z"/>
			<path class="st1" d="M730.2,302.73c0.53,0.16,0.72,0.56,0.72,1.07C730.44,303.61,730.18,303.27,730.2,302.73z"/>
			<path class="st1" d="M717.54,558.64c-0.03,0.53-0.32,0.85-0.83,0.97C716.99,559.29,717.27,558.96,717.54,558.64z"/>
			<path class="st1" d="M747.7,559.48c0-0.52,0.22-0.89,0.75-1.03C748.42,558.95,748.16,559.29,747.7,559.48z"/>
			<path class="st1" d="M732.56,538.19c0.04,0.54-0.21,0.89-0.72,1.04C732.08,538.89,732.32,538.54,732.56,538.19z"/>
			<path class="st1" d="M413.94,638.52c0.02,0.58-0.2,1.01-0.75,1.26C413.22,639.23,413.46,638.8,413.94,638.52z"/>
			<path class="st1" d="M716.75,559.57c-0.06,0.53-0.33,0.88-0.86,1.01C715.96,560.06,716.25,559.73,716.75,559.57z"/>
			<path class="st1" d="M412.95,640.3c0.06,0.53-0.16,0.88-0.66,1.04C412.3,640.86,412.53,640.52,412.95,640.3z"/>
			<path class="st1" d="M715.94,560.52c-0.07,0.52-0.34,0.88-0.87,1.01C715.11,560.98,715.41,560.64,715.94,560.52z"/>
			<path class="st1" d="M390.89,562.08c-0.46-0.08-0.73-0.34-0.73-0.83C390.4,561.53,390.65,561.8,390.89,562.08z"/>
			<path class="st1" d="M745.84,562.1c0.02-0.51,0.22-0.9,0.76-1.05C746.61,561.59,746.34,561.93,745.84,562.1z"/>
			<path class="st1" d="M410.37,644.73c0.02,0.57-0.19,1-0.73,1.24C409.66,645.43,409.9,645.01,410.37,644.73z"/>
			<path class="st1" d="M728.39,300.1c0.54,0.14,0.73,0.53,0.74,1.05C728.66,300.96,728.4,300.62,728.39,300.1z"/>
			<path class="st1" d="M409.39,646.52c0.06,0.52-0.16,0.86-0.66,1.03C408.95,647.2,409.17,646.86,409.39,646.52z"/>
			<path class="st2" d="M328.52,321.95l0.25-0.2l-0.05-0.32c0.03-0.51,0.36-0.87,0.64-1.25c0.27-0.14,0.35-0.34,0.22-0.62
				c0.08-0.46,0.41-0.77,0.63-1.15c0.27-0.16,0.35-0.38,0.24-0.67c0.38-0.62,0.22-1.49,0.94-1.94l-0.04,0.06
				c0.37-0.58,0.22-1.42,0.93-1.84l-0.04,0.06c0.37-0.58,0.22-1.43,0.93-1.84l-0.05,0.07c0.19-0.35,0.4-0.69,0.62-1.02
				c0.28-0.15,0.36-0.37,0.26-0.67c0.12-0.43,0.43-0.74,0.66-1.11c0.28-0.12,0.36-0.33,0.25-0.61c0.09-0.47,0.4-0.81,0.68-1.17
				c0.27-0.09,0.35-0.26,0.23-0.52c0.04-0.54,0.39-0.9,0.72-1.27l0.02-0.04c0.58-0.42,0.38-1.27,0.94-1.71l-0.01,0.01
				c0.5-0.49,0.32-1.36,0.98-1.75l-0.04,0.06c0.21-0.33,0.43-0.67,0.66-0.99c0.28-0.11,0.37-0.31,0.27-0.59
				c0.09-0.5,0.42-0.84,0.73-1.2l0.02-0.04c0.59-0.41,0.38-1.29,0.98-1.68l-0.02,0.04c0.24-0.3,0.46-0.62,0.66-0.95
				c0.29-0.11,0.39-0.32,0.29-0.62c0.1-0.49,0.43-0.83,0.75-1.18l0.02-0.03c0.57-0.42,0.35-1.32,1.03-1.68l-0.04,0.06
				c0.21-0.35,0.44-0.69,0.69-1.01l0.27-0.15l-0.02-0.31c0.02-0.59,0.36-0.98,0.83-1.28l-0.03,0.05c0.24-0.32,0.46-0.64,0.69-0.96
				c0.28-0.07,0.38-0.25,0.28-0.52c0.05-0.56,0.39-0.93,0.82-1.23l-0.02,0.03c0.24-0.3,0.48-0.62,0.69-0.95
				c0.28-0.06,0.38-0.23,0.29-0.5c0.04-0.58,0.38-0.96,0.85-1.24l-0.03,0.05c0.18-0.38,0.54-0.64,0.74-1.01l0.05-0.09
				c0.64-0.34,0.38-1.29,1.08-1.58l-0.05,0.06c0.12-0.45,0.49-0.71,0.77-1.03l0.02-0.02c0.29-0.23,0.51-0.51,0.67-0.84
				c0.3-0.08,0.42-0.28,0.34-0.58c0.09-0.53,0.41-0.9,0.86-1.17l-0.04,0.05c0.19-0.39,0.54-0.65,0.77-0.99l0.03-0.06
				c0.6-0.36,0.34-1.35,1.14-1.56l-0.06,0.07c0.05-0.52,0.41-0.8,0.82-1.05l-0.04,0.04c0.18-0.39,0.53-0.66,0.79-0.99l0.03-0.04
				c0.3-0.22,0.52-0.49,0.69-0.82c0.3-0.05,0.41-0.22,0.34-0.51c0.06-0.59,0.37-0.98,0.92-1.19l-0.06,0.07
				c0.13-0.46,0.47-0.75,0.83-1.02l-0.02,0.02c0.23-0.35,0.56-0.61,0.79-0.96l0.04-0.06c0.3-0.2,0.53-0.47,0.69-0.8
				c0.29-0.02,0.41-0.18,0.35-0.47c0.04-0.62,0.35-1.03,0.96-1.2l-0.07,0.07c0.09-0.51,0.43-0.8,0.87-1.01l-0.05,0.05
				c0.17-0.43,0.51-0.71,0.85-0.98l-0.01,0.01c0.24-0.34,0.56-0.61,0.82-0.93l0.03-0.04c0.31-0.25,0.57-0.54,0.77-0.87l0.08-0.11
				c0.32-0.15,0.54-0.39,0.66-0.73c0.31-0.02,0.44-0.18,0.4-0.48c0.05-0.62,0.35-1.04,0.98-1.17l-0.06,0.07
				c0.07-0.54,0.4-0.84,0.9-0.98l-0.05,0.06c0.12-0.49,0.45-0.79,0.9-0.99l-0.05,0.05c0.17-0.44,0.49-0.74,0.9-0.97l-0.04,0.04
				c0.2-0.41,0.52-0.7,0.9-0.94l-0.03,0.03c0.23-0.37,0.54-0.66,0.88-0.93l-0.01,0.01c0.25-0.33,0.56-0.62,0.86-0.91l0.01-0.01
				c0.29-0.29,0.57-0.58,0.85-0.88l0.03-0.03c0.3-0.27,0.58-0.56,0.85-0.87l0.03-0.03c0.3-0.26,0.59-0.55,0.85-0.86l0.04-0.04
				c0.31-0.26,0.59-0.54,0.85-0.85l0.04-0.04c0.31-0.26,0.59-0.54,0.85-0.85l0.04-0.04c0.31-0.26,0.59-0.54,0.85-0.85l0.04-0.04
				c0.31-0.26,0.59-0.54,0.86-0.85l0.03-0.03c0.3-0.27,0.59-0.55,0.87-0.85l0.03-0.03c0.3-0.28,0.59-0.56,0.88-0.86l0.02-0.02
				c0.3-0.29,0.58-0.6,0.91-0.86l0,0c0.27-0.33,0.56-0.65,0.93-0.87l-0.03,0.03c0.24-0.38,0.54-0.69,0.94-0.9l-0.04,0.04
				c0.22-0.4,0.53-0.72,0.96-0.9l-0.05,0.05c0.2-0.44,0.5-0.77,0.99-0.89l-0.05,0.05c0.14-0.5,0.44-0.83,0.98-0.9l-0.07,0.06
				c0.13-0.63,0.55-0.92,1.16-0.98c0.31,0.04,0.47-0.1,0.49-0.4c0.33-0.11,0.57-0.33,0.71-0.65l0.12-0.09
				c0.34-0.2,0.62-0.46,0.87-0.76l0.05-0.04c0.31-0.27,0.62-0.55,0.93-0.81l-0.01,0.01c0.27-0.34,0.55-0.68,0.97-0.85l-0.05,0.04
				c0.22-0.43,0.51-0.76,1.01-0.86l-0.06,0.06c0.17-0.6,0.58-0.9,1.19-0.95c0.29,0.06,0.46-0.06,0.49-0.36
				c0.33-0.15,0.59-0.38,0.79-0.68l0.07-0.05c0.32-0.26,0.63-0.52,0.95-0.79l-0.01,0.01c0.27-0.36,0.54-0.71,1-0.83l-0.06,0.05
				c0.21-0.53,0.6-0.84,1.17-0.91c0.3,0.07,0.48-0.05,0.54-0.36c0.33-0.15,0.6-0.37,0.8-0.67l0.06-0.04
				c0.33-0.25,0.6-0.59,0.98-0.78l-0.04,0.03c0.26-0.44,0.61-0.75,1.12-0.86c0.33,0.06,0.54-0.07,0.64-0.39
				c0.33-0.11,0.59-0.32,0.76-0.63l0.08-0.05c0.35-0.22,0.61-0.57,0.98-0.76l-0.04,0.03c0.27-0.43,0.63-0.75,1.15-0.85
				c0.31,0.07,0.51-0.05,0.61-0.35c0.33-0.15,0.61-0.37,0.83-0.65l0.04-0.03c0.33-0.27,0.58-0.64,1.02-0.77l-0.05,0.04
				c0.3-0.68,1.24-0.42,1.56-1.07l0.11-0.06c0.33-0.25,0.66-0.49,0.99-0.73l-0.04,0.03c0.28-0.45,0.65-0.78,1.2-0.84
				c0.28,0.09,0.46,0,0.54-0.28c0.32-0.21,0.64-0.44,0.94-0.69l-0.02,0.02c0.29-0.43,0.66-0.76,1.2-0.82c0.28,0.09,0.46,0,0.55-0.28
				c0.32-0.21,0.64-0.44,0.94-0.68l-0.03,0.02c0.3-0.45,0.68-0.78,1.25-0.82l0.32,0.02l0.17-0.27c0.32-0.25,0.65-0.48,0.99-0.69
				l-0.05,0.03c0.36-0.66,1.25-0.43,1.66-1.01l0.06-0.03c0.34-0.3,0.68-0.62,1.14-0.75c0.3,0.08,0.52-0.01,0.65-0.3
				c0.33-0.19,0.64-0.41,0.93-0.65l-0.02,0.01c0.4-0.59,1.27-0.37,1.66-0.97l0.08-0.03c0.35-0.29,0.69-0.61,1.15-0.73
				c0.29,0.09,0.51,0,0.64-0.27c0.33-0.21,0.65-0.43,0.97-0.65l-0.04,0.03c0.4-0.64,1.26-0.45,1.73-0.96l0.02-0.01
				c0.43-0.53,1.28-0.32,1.67-0.92l0.08-0.03c0.36-0.3,0.71-0.64,1.21-0.71c0.27,0.11,0.46,0.03,0.58-0.23
				c0.36-0.25,0.67-0.57,1.12-0.68c0.29,0.1,0.51,0.01,0.66-0.25c0.36-0.21,0.66-0.51,1.07-0.65c0.3,0.09,0.54,0.01,0.71-0.26
				c0.34-0.22,0.69-0.43,1.04-0.64c0.31,0.09,0.56,0,0.74-0.27c0.34-0.2,0.68-0.41,1.01-0.63c0.32,0.09,0.57,0,0.76-0.26
				c0.35-0.2,0.69-0.41,1.02-0.62c0.31,0.1,0.56,0.01,0.75-0.25c0.35-0.22,0.7-0.43,1.05-0.63c0.3,0.1,0.54,0.02,0.72-0.24
				c0.37-0.2,0.67-0.52,1.1-0.63c0.28,0.11,0.51,0.03,0.68-0.22c0.37-0.26,0.71-0.57,1.18-0.64c0.26,0.12,0.46,0.05,0.59-0.2
				c0.49-0.45,1.29-0.24,1.72-0.81l0.06-0.02c0.51-0.49,1.32-0.34,1.83-0.83c0.28-0.08,0.56-0.16,0.85-0.23
				c0.35-0.21,0.71-0.41,1.06-0.6c0.29,0.11,0.52,0.04,0.7-0.2c0.39-0.28,0.75-0.61,1.27-0.63l0.3,0.07l0.2-0.24
				c0.53-0.51,1.34-0.35,1.89-0.8c0.31,0.11,0.57,0.05,0.78-0.2c0.39-0.25,0.74-0.58,1.24-0.62l0.31,0.07l0.22-0.24
				c0.55-0.5,1.35-0.37,1.94-0.78c0.29,0.12,0.53,0.06,0.73-0.18c0.53-0.42,1.31-0.24,1.8-0.76c0.29-0.06,0.58-0.12,0.87-0.18
				c0.4-0.24,0.75-0.57,1.25-0.6c0.47-0.11,0.95-0.22,1.42-0.32c0.4-0.18,0.71-0.54,1.17-0.58c0.5-0.11,0.99-0.21,1.49-0.32
				c0.4-0.17,0.71-0.52,1.16-0.57c0.5-0.1,1-0.2,1.5-0.31c0.4-0.2,0.74-0.53,1.22-0.57c0.48-0.1,0.96-0.19,1.45-0.29
				c0.55-0.34,1.3-0.19,1.79-0.7c0.29-0.05,0.58-0.09,0.87-0.14c0.59-0.39,1.35-0.31,1.94-0.69c0.54-0.09,1.08-0.18,1.62-0.27
				c0.56-0.31,1.29-0.17,1.78-0.68c0.29-0.04,0.58-0.08,0.87-0.13c0.65-0.39,1.41-0.41,2.09-0.67c0.49-0.08,0.97-0.16,1.46-0.23
				c0.65-0.37,1.41-0.4,2.1-0.65c0.48-0.07,0.96-0.15,1.45-0.22c0.81-0.62,1.95-0.02,2.74-0.74c0.57-0.06,1.14-0.13,1.71-0.19
				c0.66-0.33,1.41-0.37,2.09-0.63c0.78-0.09,1.57-0.18,2.35-0.26c0.7-0.3,1.45-0.42,2.18-0.62c0.75-0.08,1.5-0.16,2.25-0.24
				c0.92-0.53,2.04-0.15,2.96-0.66c1.09-0.09,2.17-0.18,3.26-0.27c0.9-0.48,1.99-0.07,2.87-0.64c1.11-0.07,2.23-0.15,3.34-0.22
				c1.23-0.61,2.67-0.01,3.89-0.65c1.01,0.25,2.01,0.21,3.01-0.03c0.84,0.63,2,0.09,2.84,0.75c0.15,0.24,0.36,0.3,0.61,0.18
				c0.46,0.09,0.8,0.4,1.16,0.67c0.11,0.27,0.29,0.34,0.56,0.24c0.54,0.08,0.91,0.4,1.17,0.86l-0.05-0.04
				c0.4,0.19,0.69,0.52,0.96,0.86l-0.01-0.01c0.34,0.26,0.66,0.56,0.88,0.93l-0.03-0.04c0.42,0.27,0.73,0.63,0.86,1.12
				c-0.09,0.3,0.01,0.51,0.3,0.63c0.2,0.33,0.41,0.67,0.62,0.99l-0.04-0.07c0.96,0.73,0.27,2,0.93,2.84
				c0.05,0.52,0.1,1.04,0.15,1.56c0.42,0.59,0.42,1.18-0.01,1.76c-0.06,0.49-0.11,0.99-0.17,1.48c-0.3,0.66-0.28,1.43-0.69,2.06
				c-0.27,0.14-0.33,0.34-0.2,0.61c-0.09,0.47-0.42,0.81-0.69,1.18l-0.05,0.11c-0.62,0.33-0.36,1.29-1.09,1.54l0.04-0.04
				c-0.12,0.48-0.44,0.77-0.89,0.94l0.02-0.02c-0.17,0.46-0.45,0.78-0.96,0.84l0.19,0.16l-0.18-0.18c-0.24,0.8-1.16,0.54-1.6,1.04
				l-0.06,0.03c-0.46,0.56-1.24,0.4-1.76,0.82l-0.01,0.01c-1.31,1.16-3.08-0.05-4.44,0.87l-0.03-0.04c-2.21,1.4-4.81-0.14-7.07,0.93
				l-0.03-0.04c-1.87,1.37-4.2-0.17-6.11,0.97l-0.07,0.01c-1.33,1.08-3.08-0.09-4.43,0.84l-0.03-0.02c-1.27,1.22-3.07-0.07-4.4,0.92
				l-0.03,0c-1.02,1.03-2.48,0.09-3.58,0.8l-0.05,0c-0.94,1.21-2.45,0.16-3.52,0.87l-0.06,0c-0.9,1.27-2.45,0.13-3.47,0.94l-0.03,0
				c-0.9,1.19-2.46,0.03-3.44,0.96l-0.07,0.02c-0.72,0.82-1.89,0.17-2.67,0.8l-0.03,0c-0.68,0.96-1.86,0.28-2.66,0.82l-0.05,0.01
				c-0.62,1.06-1.83,0.32-2.62,0.86l-0.05,0.02c-0.59,1.09-1.83,0.31-2.6,0.89l-0.04,0.01c-0.59,1.06-1.86,0.26-2.59,0.94
				l-0.03,0.01c-0.62,0.96-1.88,0.17-2.56,0.94l-0.07,0.03c-0.49,0.56-1.22,0.47-1.84,0.68l-0.06,0.03
				c-0.51,1.13-1.84,0.25-2.51,1.01l-0.04,0.02c-0.47,0.59-1.22,0.49-1.83,0.73l-0.05,0.03c-0.49,1.11-1.84,0.21-2.45,1.03
				l-0.1,0.04c-0.47,0.53-1.24,0.39-1.77,0.79L459,225.1c-0.44,0.64-1.22,0.5-1.8,0.81l-0.03,0.02c-0.38,0.74-1.16,0.58-1.78,0.79
				l-0.06,0.04c-3.47,1.9-7.05,3.57-10.6,5.3l-0.05,0.03c-0.28,0.83-1.13,0.61-1.69,0.92l-0.02,0.02c-0.33,0.74-1.18,0.53-1.7,0.94
				l-0.02,0.01c-0.38,0.64-1.22,0.44-1.68,0.92l-0.07,0.04c-0.85,0.64-1.7,1.28-2.73,1.61l-0.02,0.02c-0.3,0.75-1.18,0.53-1.66,0.98
				l-0.03,0.02c-0.81,0.71-1.71,1.28-2.71,1.67l-0.02,0.01c-0.3,0.71-1.19,0.48-1.62,0.99l-0.08,0.05c-0.26,0.34-0.6,0.56-1,0.68
				l0.14,0.21l-0.15-0.21c-0.24,0.8-1.16,0.54-1.6,1.02l-0.05,0.03c-0.25,0.36-0.59,0.59-1.01,0.69l0.13,0.23l-0.15-0.22
				c-0.21,0.82-1.14,0.56-1.58,1.04l-0.05,0.04c-0.25,0.35-0.58,0.59-1.01,0.71c-0.23,0.79-1.16,0.52-1.56,1.04l-0.09,0.06
				c-0.27,0.32-0.59,0.56-0.97,0.73l0,0c-0.66,0.89-1.7,1.24-2.57,1.84l-0.02,0.02c-0.25,0.36-0.5,0.73-1,0.75
				c-0.58,0.98-1.68,1.27-2.53,1.89l-0.02,0.02c-0.25,0.36-0.5,0.72-0.98,0.78c-0.58,0.95-1.7,1.19-2.48,1.9l-0.08,0.06
				c-0.27,0.31-0.58,0.57-0.92,0.79l0,0c-0.22,0.4-0.48,0.75-0.97,0.8c-0.54,0.96-1.71,1.15-2.4,1.93l-0.13,0.1
				c-0.29,0.24-0.57,0.49-0.85,0.75l-0.06,0.05c-0.26,0.32-0.57,0.59-0.91,0.82l0,0c-0.22,0.39-0.49,0.72-0.95,0.84l0.01-0.01
				c-0.16,0.46-0.44,0.78-0.96,0.83c-0.09,0.53-0.35,0.85-0.94,0.83l0.22,0.25l-0.23-0.24c-0.78,1.29-2.15,1.92-3.22,2.89l-0.11,0.1
				c-0.29,0.24-0.56,0.49-0.81,0.77l-0.09,0.08c-0.27,0.27-0.55,0.54-0.83,0.8l-0.06,0.06c-0.27,0.29-0.55,0.56-0.85,0.82
				l-0.04,0.04c-0.26,0.31-0.55,0.59-0.85,0.85l-0.03,0.03c-0.26,0.31-0.54,0.6-0.85,0.85l-0.03,0.03c-0.26,0.31-0.54,0.6-0.85,0.85
				l-0.03,0.03c-0.26,0.31-0.54,0.6-0.85,0.85l-0.03,0.03c-0.26,0.31-0.54,0.6-0.85,0.85l-0.03,0.03c-0.26,0.31-0.54,0.6-0.84,0.86
				l-0.04,0.04c-0.26,0.3-0.54,0.58-0.83,0.85l-0.06,0.06c-0.27,0.28-0.54,0.56-0.8,0.84l-0.07,0.08c-1.12,1.51-2.29,2.97-3.77,4.16
				c0.01,0.57-0.31,0.85-0.84,0.95l0.17,0.15l-0.16-0.17c-0.06,0.51-0.39,0.8-0.85,0.97l0.02-0.03c-0.13,0.46-0.46,0.73-0.85,0.96
				l0.01-0.01c-0.23,0.34-0.51,0.65-0.82,0.92L382.7,282c-0.27,0.27-0.52,0.56-0.76,0.86l-0.09,0.11c-0.6,0.31-0.3,1.34-1.15,1.43
				c0.05,0.58-0.3,0.85-0.8,0.99l0.03-0.03c-0.09,0.48-0.43,0.76-0.82,0.99l0.01-0.02c-0.23,0.34-0.49,0.66-0.79,0.94l-0.05,0.06
				c-0.73,0.76-0.99,1.9-1.93,2.5l0.03-0.03c-0.08,0.48-0.44,0.74-0.8,1l-0.01,0.01c-0.64,0.85-0.94,1.95-1.91,2.55l0.03-0.03
				c-0.04,0.5-0.42,0.75-0.77,1.02l-0.01,0.01c-0.62,0.86-0.99,1.92-1.86,2.6l0.03-0.04c-0.11,0.43-0.47,0.68-0.75,1l-0.04,0.06
				c-0.56,0.39-0.31,1.34-1.08,1.59l0.04-0.04c-0.03,0.5-0.42,0.74-0.74,1.04l-0.02,0.03c-0.52,0.43-0.27,1.38-1.08,1.62l0.04-0.04
				c0,0.52-0.4,0.76-0.72,1.06l-0.02,0.03c-0.51,0.44-0.28,1.37-1.05,1.64l0.04-0.05c-0.03,0.49-0.43,0.73-0.71,1.05l-0.03,0.05
				c-0.55,0.42-0.32,1.32-1.02,1.65l0.03-0.04c-0.11,0.42-0.48,0.67-0.69,1.02l-0.06,0.12c-0.63,0.35-0.39,1.22-0.96,1.61l0,0.01
				c-0.49,0.48-0.28,1.37-1.01,1.7l0.04-0.05c-0.18,0.37-0.4,0.71-0.66,1.03l-0.27,0.17l0.03,0.32c-0.02,0.56-0.37,0.93-0.75,1.28
				l-0.02,0.04c-0.53,0.45-0.34,1.31-0.95,1.71l0.01-0.02c-0.44,0.52-0.26,1.38-0.97,1.76l0.03-0.04c-0.37,0.57-0.18,1.44-0.97,1.78
				l0.04-0.06c-0.02,0.47-0.41,0.71-0.62,1.06c-0.28,0.1-0.36,0.28-0.24,0.55c-0.05,0.51-0.37,0.87-0.69,1.23l-0.26,0.18l0.05,0.31
				c-0.02,0.54-0.38,0.91-0.7,1.3l-0.03,0.08c-0.61,0.39-0.38,1.21-0.84,1.68l-0.26,0.18l0.05,0.31c-0.02,0.53-0.36,0.9-0.67,1.28
				c-0.27,0.1-0.34,0.28-0.21,0.54c-0.29,0.69-0.15,1.58-0.96,2.03l0.04-0.06c-0.29,0.62-0.17,1.43-0.86,1.87l0.03-0.05
				c-0.37,0.58-0.25,1.38-0.84,1.86l0.01-0.02c-0.45,0.53-0.34,1.31-0.81,1.82l-0.02,0.05c-0.89,0.62,0,1.98-1.06,2.54l0.03-0.06
				c-0.33,0.6-0.24,1.38-0.79,1.89l0,0c-0.5,0.49-0.34,1.26-0.77,1.79c-0.27,0.15-0.33,0.37-0.19,0.64
				c-0.33,0.65-0.27,1.44-0.79,2.02l-0.01,0.02c-0.84,0.68-0.05,1.96-0.95,2.61l0.01-0.03c-0.43,0.54-0.32,1.29-0.73,1.83
				c-0.26,0.18-0.32,0.42-0.18,0.7c-0.38,0.6-0.29,1.38-0.73,1.96c-0.26,0.17-0.32,0.4-0.17,0.67c-0.35,0.62-0.29,1.39-0.71,1.99
				c-0.26,0.18-0.31,0.42-0.16,0.7c-0.37,0.61-0.31,1.36-0.7,1.96c-0.25,0.22-0.31,0.48-0.16,0.78c-0.72,0.79-0.06,2.01-0.84,2.79
				l-0.23,0.19l0.11,0.28c-0.21,0.74-0.29,1.51-0.67,2.19c-0.25,0.21-0.3,0.46-0.15,0.75c-0.68,0.82-0.09,1.99-0.78,2.81
				c-0.26,0.18-0.3,0.4-0.13,0.66c-0.6,0.87-0.08,2.03-0.75,2.89c-0.26,0.19-0.3,0.42-0.13,0.68c-0.61,0.86-0.12,2-0.72,2.86
				c-0.07,0.44-0.14,0.88-0.21,1.32c-0.44,0.99-0.11,2.16-0.71,3.12c-0.25,0.23-0.28,0.49-0.11,0.78c-0.86,1.09,0,2.54-0.75,3.65
				c-0.06,0.5-0.13,1-0.19,1.5c-0.83,1.48,0.16,3.26-0.77,4.72c-0.26,0.2-0.29,0.44-0.09,0.7c-0.96,1.74,0.17,3.77-0.76,5.51
				c-0.3,0.71-0.5,1.42-0.15,2.17c-0.86,2.17,0.15,4.54-0.72,6.71c-0.32,1.33-0.59,2.66-0.17,4.02c-0.61,8.26-0.61,16.52,0,24.77
				c-0.38,1.08-0.16,2.13,0.15,3.18c0.97,2.42-0.19,5.05,0.73,7.47c-0.28,0.79-0.1,1.55,0.18,2.29c0.78,1.52-0.05,3.27,0.7,4.79
				c-0.2,0.5-0.11,0.97,0.16,1.42c0.91,1.43-0.14,3.18,0.78,4.61c-0.19,0.27-0.16,0.51,0.09,0.72c0.8,1.19,0.06,2.67,0.75,3.89
				c0.07,0.48,0.14,0.96,0.21,1.45c0.56,0.9,0.15,2.03,0.68,2.94c-0.19,0.24-0.15,0.44,0.12,0.6c0.91,1.06-0.08,2.57,0.84,3.63
				c-0.16,0.3-0.12,0.58,0.13,0.82c0.62,0.82,0.03,1.97,0.75,2.75c-0.16,0.3-0.11,0.57,0.14,0.8c0.36,0.7,0.48,1.47,0.66,2.23
				l-0.1,0.25l0.2,0.17c0.79,0.82,0.19,2.03,0.83,2.89c-0.16,0.27-0.11,0.49,0.15,0.67c0.41,0.68,0.5,1.46,0.69,2.21l-0.1,0.27
				l0.22,0.18c0.79,0.75,0.09,1.96,0.85,2.72l-0.01-0.03c0.84,0.72,0.14,1.95,0.89,2.71l-0.01-0.04c0.86,0.7,0.14,1.95,0.91,2.68
				l-0.01-0.03c0.85,0.69,0.08,1.95,0.93,2.63l0,0.01c0.5,0.59,0.46,1.39,0.78,2.05c-0.14,0.27-0.09,0.47,0.18,0.62
				c0.44,0.54,0.31,1.31,0.76,1.84l-0.02-0.04c0.61,0.57,0.57,1.4,0.83,2.1l-0.07,0.32l0.25,0.21c0.47,0.52,0.32,1.31,0.79,1.83
				l-0.01-0.03c0.6,0.53,0.5,1.36,0.85,2c-0.13,0.28-0.06,0.5,0.21,0.65c0.29,0.4,0.63,0.77,0.63,1.31l-0.07,0.29l0.24,0.17
				c0.49,0.5,0.32,1.31,0.83,1.8l-0.01-0.02c0.55,0.49,0.43,1.3,0.86,1.84l-0.02-0.05c0.62,0.47,0.5,1.28,0.87,1.86l-0.03-0.06
				c0.7,0.45,0.55,1.32,0.93,1.93c-0.11,0.3-0.03,0.52,0.24,0.68c0.23,0.33,0.43,0.68,0.61,1.04l-0.05-0.08
				c0.73,0.4,0.58,1.25,0.94,1.83l-0.04-0.06c0.72,0.4,0.56,1.25,0.95,1.82l-0.03-0.06c0.68,0.41,0.51,1.26,0.95,1.8l-0.02-0.04
				c0.62,0.43,0.45,1.28,0.94,1.77l-0.01-0.02c0.56,0.44,0.36,1.29,0.94,1.72l0.02,0.04c0.33,0.37,0.67,0.72,0.73,1.25
				c-0.11,0.27-0.03,0.45,0.25,0.54c0.25,0.33,0.47,0.67,0.66,1.03l-0.05-0.07c0.71,0.36,0.52,1.25,1.01,1.74l-0.01-0.02
				c0.43,0.33,0.78,0.72,0.79,1.31l-0.03,0.3l0.26,0.15c0.24,0.34,0.6,0.6,0.69,1.04l-0.05-0.07c0.72,0.34,0.51,1.24,1.04,1.7l0,0
				c0.37,0.33,0.71,0.69,0.78,1.22c-0.09,0.29,0,0.47,0.29,0.56c0.21,0.33,0.43,0.64,0.67,0.95l-0.02-0.04
				c0.45,0.31,0.79,0.69,0.82,1.26l-0.01,0.32l0.28,0.17c0.23,0.32,0.47,0.65,0.7,0.97l-0.03-0.05c0.47,0.29,0.8,0.67,0.85,1.25
				c-0.1,0.27,0,0.44,0.28,0.5c0.22,0.32,0.45,0.64,0.7,0.94l-0.02-0.03c0.43,0.29,0.75,0.66,0.83,1.19
				c-0.08,0.3,0.02,0.48,0.32,0.57c0.18,0.33,0.4,0.62,0.68,0.87l0.01,0.01c0.3,0.32,0.68,0.57,0.78,1.04l-0.06-0.07
				c0.72,0.27,0.46,1.23,1.1,1.56l0.06,0.09c0.24,0.33,0.49,0.66,0.75,0.97l-0.02-0.02c0.36,0.27,0.72,0.56,0.8,1.05l-0.06-0.07
				c0.76,0.22,0.49,1.22,1.13,1.53l0.06,0.1c0.23,0.33,0.48,0.65,0.76,0.95l-0.01-0.01c0.33,0.29,0.7,0.56,0.81,1.02l-0.06-0.07
				c0.53,0.21,0.85,0.6,0.92,1.17c-0.06,0.3,0.06,0.48,0.37,0.54c0.14,0.33,0.36,0.59,0.67,0.78l0.05,0.07
				c0.25,0.32,0.52,0.64,0.79,0.94l-0.01-0.01c0.34,0.28,0.69,0.55,0.84,0.99l-0.05-0.05c0.44,0.21,0.79,0.5,0.86,1.02l-0.06-0.06
				c0.77,0.17,0.48,1.2,1.16,1.44l0.12,0.15c0.16,0.35,0.4,0.63,0.73,0.83l0.06,0.08c0.23,0.33,0.5,0.62,0.79,0.89l0.02,0.02
				c0.29,0.31,0.61,0.58,0.84,0.94l-0.02-0.02c0.36,0.25,0.69,0.54,0.88,0.96l-0.04-0.05c0.42,0.22,0.74,0.52,0.89,0.98l-0.05-0.05
				c0.47,0.17,0.8,0.47,0.9,0.98l-0.06-0.06c0.52,0.12,0.85,0.42,0.91,0.98l-0.06-0.06c0.63,0.11,0.92,0.52,0.99,1.11
				c-0.02,0.33,0.13,0.5,0.46,0.53c0.07,0.34,0.28,0.55,0.62,0.63l0.16,0.17c0.12,0.36,0.36,0.61,0.72,0.74l0.14,0.15
				c0.14,0.36,0.38,0.61,0.74,0.75l0.14,0.14c0.14,0.35,0.39,0.6,0.75,0.75l0.14,0.14c0.15,0.35,0.39,0.61,0.75,0.75l0.14,0.14
				c0.15,0.35,0.39,0.61,0.75,0.75l0.14,0.14c0.14,0.36,0.39,0.6,0.75,0.74l0.15,0.14c0.13,0.36,0.39,0.6,0.74,0.73l0.16,0.15
				c0.12,0.36,0.37,0.6,0.73,0.72l0.17,0.15c0.2,0.69,1.27,0.4,1.36,1.21l-0.05-0.05c0.58,0.02,0.87,0.35,0.97,0.9l-0.05-0.05
				c0.54,0.07,0.84,0.4,0.97,0.91l-0.05-0.05c0.5,0.11,0.8,0.44,0.98,0.89l-0.05-0.05c0.44,0.17,0.74,0.49,0.97,0.89l-0.04-0.04
				c0.4,0.2,0.68,0.52,0.96,0.86l-0.01-0.01c0.31,0.27,0.62,0.54,0.92,0.83l0.04,0.03c0.25,0.3,0.54,0.56,0.87,0.77l0.11,0.08
				c0.15,0.32,0.39,0.54,0.73,0.65c0.04,0.31,0.22,0.45,0.54,0.4c0.58,0.07,0.98,0.37,1.15,0.95l-0.06-0.06
				c0.49,0.1,0.78,0.44,1.01,0.86l-0.04-0.04c0.41,0.18,0.68,0.52,0.98,0.83l0.01,0.01c0.28,0.28,0.58,0.54,0.91,0.76l0.11,0.08
				c0.15,0.32,0.39,0.53,0.73,0.63c0.08,0.32,0.28,0.46,0.61,0.4c0.53,0.1,0.89,0.41,1.13,0.89l-0.05-0.04
				c0.42,0.16,0.68,0.51,0.99,0.8l0.02,0.02c0.25,0.28,0.54,0.51,0.86,0.7c0.04,0.29,0.21,0.39,0.49,0.31
				c0.6,0.04,0.99,0.36,1.22,0.9l-0.06-0.05c0.45,0.12,0.71,0.48,1.02,0.79l0.01,0.01c0.26,0.27,0.55,0.5,0.88,0.69
				c0.06,0.29,0.23,0.39,0.52,0.31c0.57,0.05,0.95,0.38,1.21,0.87l-0.05-0.04c0.41,0.15,0.67,0.51,1,0.76l0.07,0.04
				c0.2,0.3,0.46,0.51,0.79,0.63c0.12,0.31,0.35,0.43,0.68,0.37c0.46,0.14,0.8,0.45,1.11,0.8l0.01,0.01
				c0.25,0.27,0.55,0.49,0.88,0.66c0.11,0.29,0.31,0.4,0.62,0.32c0.5,0.1,0.85,0.42,1.15,0.8l0.01,0.01
				c1.03,0.61,1.34-0.47,1.95-0.82l-0.04,0.06c0.18-0.37,0.41-0.71,0.67-1.04c0.28-0.08,0.36-0.26,0.24-0.52
				c0.05-0.54,0.39-0.9,0.74-1.26l0.01-0.02c0.56-0.44,0.36-1.31,0.97-1.72l-0.03,0.04c0.24-0.3,0.45-0.62,0.64-0.95
				c0.29-0.14,0.39-0.36,0.29-0.66c0.12-0.44,0.43-0.77,0.69-1.12l0.26-0.18l-0.03-0.32c0.03-0.55,0.38-0.92,0.75-1.27l0.01-0.01
				c0.54-0.45,0.35-1.32,0.97-1.73l-0.03,0.05c0.23-0.31,0.45-0.64,0.65-0.97c0.29-0.13,0.38-0.34,0.28-0.64
				c0.12-0.45,0.42-0.79,0.7-1.14l0.26-0.16l-0.03-0.3c0.01-0.57,0.37-0.95,0.76-1.3l0,0c0.52-0.47,0.33-1.34,0.98-1.74l-0.03,0.06
				c0.22-0.32,0.44-0.65,0.65-0.98c0.28-0.12,0.38-0.33,0.27-0.62c0.11-0.47,0.44-0.81,0.72-1.18l0.03-0.07
				c0.62-0.38,0.4-1.24,0.95-1.67l0,0.01c0.51-0.48,0.32-1.35,0.98-1.74l-0.05,0.07c0.2-0.43,0.51-0.74,0.94-0.94l-0.06,0.04
				c0.26-0.34,0.5-0.34,0.71,0.04l-0.06-0.06c0.56,0.22,0.88,0.62,0.92,1.23l-0.04,0.3l0.26,0.16c0.28,0.35,0.58,0.69,0.7,1.14
				c-0.1,0.3,0,0.52,0.29,0.65c0.19,0.33,0.41,0.65,0.64,0.96l-0.03-0.05c0.62,0.4,0.42,1.27,0.97,1.71l0.01,0.02
				c0.34,0.36,0.69,0.72,0.74,1.24c-0.11,0.27-0.03,0.45,0.25,0.54c0.25,0.32,0.47,0.67,0.66,1.02l-0.05-0.07
				c0.7,0.37,0.51,1.25,1,1.74l-0.01-0.02c0.57,0.42,0.35,1.28,0.96,1.68l0.03,0.06c0.29,0.37,0.63,0.71,0.73,1.19
				c-0.1,0.29-0.01,0.5,0.27,0.61c0.21,0.33,0.43,0.66,0.65,0.98l-0.04-0.06c0.65,0.39,0.45,1.27,0.98,1.73l0,0.01
				c0.38,0.35,0.72,0.72,0.76,1.27l-0.03,0.32l0.26,0.18c0.22,0.35,0.59,0.6,0.67,1.05l-0.05-0.07c0.74,0.35,0.55,1.24,1.01,1.75
				l-0.02-0.03c0.6,0.41,0.39,1.28,0.97,1.7l0.02,0.04c0.32,0.36,0.66,0.71,0.73,1.23c-0.11,0.28-0.02,0.47,0.26,0.56
				c0.23,0.33,0.45,0.66,0.66,1.01l-0.04-0.07c0.68,0.38,0.49,1.26,0.99,1.74l0-0.01c0.41,0.35,0.77,0.73,0.78,1.31l-0.04,0.3
				l0.26,0.15c0.29,0.35,0.59,0.69,0.7,1.15c-0.1,0.3,0,0.51,0.29,0.63c0.2,0.33,0.42,0.65,0.65,0.96l-0.03-0.05
				c0.62,0.4,0.43,1.27,0.98,1.72l0.01,0.02c0.36,0.35,0.7,0.72,0.75,1.26c-0.11,0.27-0.03,0.44,0.25,0.52
				c0.25,0.32,0.47,0.67,0.66,1.03l-0.05-0.07c0.72,0.36,0.52,1.25,1.01,1.75l-0.01-0.02c0.58,0.42,0.37,1.28,0.96,1.69l0.02,0.05
				c0.3,0.37,0.64,0.71,0.73,1.2c-0.1,0.29-0.01,0.48,0.27,0.59c0.22,0.33,0.44,0.66,0.66,0.99l-0.04-0.06
				c0.65,0.39,0.46,1.27,0.98,1.73l0,0c0.39,0.35,0.74,0.72,0.76,1.29l-0.03,0.31l0.26,0.17c0.27,0.35,0.57,0.69,0.7,1.12
				c-0.09,0.31,0,0.53,0.29,0.67c0.19,0.33,0.4,0.65,0.64,0.95l-0.02-0.04c0.6,0.41,0.4,1.28,0.97,1.7l0.02,0.03
				c0.33,0.36,0.67,0.72,0.74,1.24c-0.11,0.27-0.03,0.46,0.25,0.55c0.24,0.33,0.46,0.66,0.67,1.01l-0.04-0.07
				c0.69,0.38,0.5,1.26,0.99,1.74l-0.01-0.02c0.56,0.42,0.34,1.28,0.96,1.67l0.03,0.07c0.28,0.37,0.61,0.71,0.72,1.18
				c-0.1,0.29-0.01,0.5,0.28,0.62c0.21,0.33,0.42,0.66,0.65,0.97l-0.03-0.05c0.63,0.4,0.44,1.27,0.98,1.72l0.01,0.01
				c0.37,0.35,0.71,0.72,0.75,1.26c-0.12,0.26-0.04,0.43,0.24,0.51c0.26,0.32,0.48,0.67,0.67,1.04l-0.05-0.07
				c0.72,0.36,0.53,1.25,1.01,1.75l-0.02-0.03c0.59,0.41,0.38,1.28,0.97,1.69l0.02,0.05c0.31,0.36,0.65,0.71,0.73,1.21
				c-0.11,0.28-0.02,0.48,0.26,0.59c0.23,0.33,0.45,0.66,0.66,1l-0.04-0.06c0.67,0.39,0.47,1.26,0.99,1.73l0,0
				c0.62,0.97,0.36,1.77-0.67,2.07c-0.98,0.28-2.06,0.12-3.09,0.12c-25.59,0-51.18,0.03-76.77-0.08c-1.24-0.01-4.15,1.61-3.61-2.05
				l-0.05,0.08c0.19-0.36,0.41-0.7,0.66-1.03c0.28-0.09,0.36-0.27,0.25-0.55c0.06-0.52,0.4-0.88,0.73-1.24l0.02-0.03
				c0.57-0.43,0.37-1.29,0.97-1.71l-0.02,0.03c0.47-0.51,0.27-1.39,1-1.75l-0.05,0.07c0.08-0.44,0.45-0.69,0.66-1.04
				c0.28-0.08,0.36-0.26,0.24-0.52c0.05-0.54,0.39-0.9,0.75-1.26l0.01-0.02c0.55-0.44,0.36-1.31,0.97-1.72l-0.03,0.04
				c0.24-0.3,0.45-0.62,0.64-0.95c0.29-0.14,0.39-0.36,0.29-0.67c0.12-0.44,0.43-0.77,0.7-1.12l0.26-0.18l-0.03-0.32
				c0.03-0.56,0.38-0.92,0.75-1.28l0.01-0.01c0.54-0.45,0.35-1.32,0.98-1.72l-0.03,0.05c0.23-0.32,0.44-0.64,0.64-0.97
				c0.28-0.13,0.38-0.34,0.28-0.64c0.12-0.45,0.42-0.79,0.7-1.14l0.26-0.16l-0.04-0.3c0.02-0.57,0.37-0.95,0.76-1.3l0,0
				c0.52-0.47,0.33-1.34,0.98-1.74l-0.04,0.06c0.22-0.32,0.44-0.65,0.65-0.98c0.1-0.19,0.21-0.37,0.28-0.57
				c0.03-0.09-0.04-0.22-0.07-0.33c-0.34-0.27-0.63-0.58-0.86-0.96l-0.02-0.02c-0.9-0.56-1.87-1.01-2.64-1.76l-0.02-0.01
				c-0.9-0.57-1.89-0.99-2.62-1.79l-0.01-0.01c-0.92-0.53-1.94-0.91-2.59-1.83l0,0c-0.39-0.16-0.72-0.41-0.98-0.74l-0.06-0.04
				c-0.82-0.65-1.88-0.98-2.55-1.84l0.01,0.01c-0.37-0.19-0.68-0.44-0.95-0.76l-0.08-0.06c-0.79-0.69-1.87-0.98-2.51-1.87l0.01,0.01
				c-0.45-0.11-0.7-0.45-0.96-0.79l-0.04-0.03c-0.81-0.66-1.95-0.89-2.47-1.93c-0.53-0.01-0.8-0.35-0.99-0.79l0.01,0.01
				c-0.43-0.13-0.69-0.46-0.95-0.81l-0.03-0.03c-0.3-0.25-0.59-0.5-0.87-0.75l-0.12-0.09c-0.69-0.78-1.88-0.95-2.38-1.96
				c-0.52-0.04-0.79-0.37-0.97-0.82l0.01,0.01c-0.45-0.13-0.72-0.46-0.95-0.84l0,0c-0.34-0.23-0.64-0.51-0.9-0.82l-0.05-0.05
				c-0.28-0.26-0.57-0.51-0.85-0.77l-0.1-0.08c-1.09-0.95-2.44-1.61-3.24-2.89c-0.58,0.01-0.86-0.3-0.92-0.85
				c-0.55-0.03-0.83-0.34-0.92-0.86l-0.18,0.18l0.19-0.17c-0.51-0.07-0.8-0.39-0.94-0.87l0.02,0.02c-0.48-0.12-0.77-0.43-0.93-0.88
				l0.02,0.02c-0.45-0.15-0.75-0.46-0.91-0.9l0.02,0.02c-0.45-0.14-0.75-0.45-0.92-0.89l0.02,0.02c-0.43-0.17-0.73-0.47-0.91-0.9
				l0.02,0.02c-0.43-0.17-0.73-0.47-0.9-0.9l0.02,0.02c-0.43-0.17-0.73-0.47-0.9-0.9l0.02,0.02c-0.43-0.17-0.74-0.47-0.89-0.92
				l0.02,0.02c-0.44-0.17-0.75-0.47-0.9-0.92l0.02,0.02c-0.45-0.16-0.76-0.46-0.89-0.93l0.02,0.02c-0.47-0.14-0.78-0.44-0.88-0.93
				l0.02,0.02c-0.5-0.12-0.82-0.4-0.87-0.94l-0.18,0.2l0.19-0.19c-0.54-0.07-0.86-0.36-0.86-0.93c-1.27-0.8-1.91-2.17-2.9-3.23
				l-0.09-0.11c-0.24-0.3-0.49-0.58-0.77-0.85l-0.05-0.06c-0.3-0.28-0.57-0.58-0.82-0.9l0-0.01c-0.36-0.25-0.69-0.52-0.84-0.95
				l0.02,0.02c-0.43-0.2-0.76-0.48-0.85-0.98l0.03,0.03c-0.51-0.13-0.85-0.4-0.82-0.98l-0.2,0.26l0.22-0.25
				c-0.85-0.1-0.55-1.13-1.16-1.43l-0.09-0.12c-0.23-0.31-0.48-0.6-0.75-0.87l-0.04-0.04c-0.31-0.28-0.64-0.55-0.81-0.95l0.02,0.02
				c-0.41-0.22-0.75-0.5-0.82-1l0.03,0.03c-0.99-0.56-1.22-1.72-1.95-2.48l-0.04-0.05c-0.29-0.3-0.63-0.55-0.79-0.96l0.02,0.03
				c-0.42-0.22-0.77-0.49-0.79-1.02l0.03,0.03c-0.81-0.18-0.54-1.17-1.12-1.52l-0.06-0.09c-0.27-0.3-0.53-0.62-0.76-0.95l0.02,0.02
				c-0.39-0.24-0.75-0.52-0.78-1.03l0.03,0.03c-0.81-0.2-0.54-1.17-1.11-1.55l-0.04-0.07c-0.26-0.32-0.62-0.57-0.75-0.99l0.03,0.03
				c-0.84-0.71-1.23-1.75-1.84-2.62l0,0c-0.36-0.27-0.72-0.54-0.75-1.05l0.04,0.04c-0.82-0.23-0.56-1.18-1.09-1.61l-0.02-0.03
				c-0.31-0.3-0.7-0.54-0.74-1.04l0.04,0.04c-0.78-0.27-0.53-1.2-1.06-1.63l-0.02-0.04c-0.31-0.31-0.71-0.55-0.72-1.05l0.04,0.04
				c-0.8-0.26-0.56-1.19-1.06-1.65l-0.01-0.02c-0.34-0.29-0.72-0.55-0.7-1.08l0.04,0.04c-0.87-0.23-0.63-1.17-1.06-1.67l0.01,0.02
				c-0.63-0.37-0.41-1.25-0.99-1.65l-0.04-0.07c-0.25-0.34-0.66-0.58-0.68-1.07l0.04,0.05c-0.79-0.3-0.57-1.2-1.03-1.7l0.01,0.02
				c-0.61-0.4-0.4-1.26-0.96-1.68l-0.03-0.06c-0.27-0.33-0.7-0.57-0.66-1.09l0.04,0.05c-0.85-0.28-0.64-1.18-1-1.74l0.03,0.04
				c-0.71-0.37-0.52-1.24-0.98-1.75l0.01,0.02c-0.61-0.42-0.42-1.27-0.93-1.74l-0.01-0.02c-0.54-0.44-0.34-1.28-0.91-1.71
				l-0.02-0.05c-0.49-0.46-0.28-1.28-0.88-1.68l-0.03-0.08c-0.32-0.38-0.68-0.75-0.7-1.3l0.05-0.31l-0.26-0.18
				c-0.33-0.38-0.66-0.75-0.68-1.29l0.05-0.31l-0.26-0.18c-0.33-0.38-0.66-0.75-0.68-1.29l0.05-0.31l-0.26-0.18
				c-0.46-0.48-0.24-1.29-0.84-1.7l-0.03-0.07c-0.46-0.5-0.29-1.29-0.84-1.74l-0.02-0.04c-0.49-0.5-0.35-1.29-0.84-1.79l0,0
				c-0.55-0.49-0.43-1.28-0.84-1.84l0.02,0.04c-0.66-0.5-0.55-1.35-0.88-1.99c0.13-0.28,0.06-0.49-0.21-0.64
				c-0.42-0.51-0.22-1.29-0.79-1.73l-0.01-0.04c-0.48-0.52-0.38-1.3-0.8-1.85l0.02,0.04c-0.64-0.56-0.59-1.39-0.85-2.1l0.07-0.31
				l-0.25-0.21c-0.47-0.53-0.34-1.3-0.77-1.85l0.02,0.04c-0.92-0.64-0.11-1.93-0.97-2.59l-0.01-0.03c-0.5-0.58-0.44-1.38-0.78-2.02
				c0.14-0.27,0.08-0.49-0.18-0.64c-0.43-0.55-0.33-1.3-0.72-1.87l0.02,0.05c-0.94-0.67-0.19-1.94-0.94-2.68l0.01,0.03
				c-0.88-0.71-0.17-1.94-0.9-2.7l0.01,0.03c-0.87-0.75-0.2-1.99-0.89-2.79c0.15-0.29,0.09-0.53-0.16-0.73
				c-0.4-0.62-0.38-1.39-0.69-2.04c0.16-0.26,0.11-0.46-0.15-0.62c-0.71-0.76-0.03-1.94-0.81-2.69l0,0.01
				c-0.78-0.84-0.24-2.04-0.81-2.93c0.17-0.25,0.13-0.45-0.14-0.61c-0.7-0.83-0.14-2.01-0.78-2.86c0.17-0.27,0.12-0.5-0.13-0.69
				c-0.66-0.85-0.14-2.01-0.75-2.88c0.17-0.26,0.13-0.49-0.13-0.67c-0.65-0.91-0.23-2.08-0.73-3.02l0.12-0.3l-0.23-0.23
				c-0.91-1.14-0.04-2.65-0.81-3.81c0.19-0.25,0.15-0.46-0.11-0.63c-0.84-1.18-0.07-2.67-0.76-3.87c-0.06-0.49-0.13-0.97-0.19-1.46
				c-0.72-1.18,0.01-2.63-0.71-3.81c-0.06-0.5-0.11-1.01-0.17-1.51c-0.83-1.46,0.12-3.21-0.73-4.67c-0.05-0.52-0.1-1.03-0.15-1.55
				c-0.87-1.82,0.11-3.87-0.72-5.7c0.3-0.79,0.13-1.54-0.16-2.29c-0.98-3.02,0.24-6.22-0.73-9.24c0.38-1.96,0.1-3.91-0.17-5.85
				c-0.58-4.43-0.58-8.87,0-13.3c0.22-2.21,0.61-4.41,0.15-6.63c0.97-2.76-0.21-5.7,0.74-8.46c0.27-0.77,0.43-1.56,0.17-2.37
				c0.86-1.79-0.13-3.82,0.71-5.62c0.28-0.73,0.46-1.47,0.2-2.25c0.75-1.54-0.13-3.34,0.75-4.86c0.26-0.22,0.28-0.46,0.09-0.73
				c0.94-1.42-0.15-3.19,0.8-4.6c0.26-0.2,0.29-0.42,0.1-0.69c0.79-1.14-0.03-2.61,0.75-3.75c0.25-0.23,0.28-0.49,0.11-0.77
				c0.88-1.09-0.05-2.57,0.8-3.67c0.26-0.19,0.29-0.42,0.12-0.68c0.62-0.86,0.12-2,0.72-2.86c0.24-0.24,0.29-0.51,0.13-0.81
				c0.73-0.78,0.15-1.92,0.74-2.74c0.05-0.28,0.09-0.56,0.14-0.83c0.76-0.76,0.14-1.92,0.77-2.72c0.25-0.22,0.3-0.48,0.14-0.77
				c0.71-0.8,0.09-1.98,0.8-2.79c0.26-0.15,0.31-0.36,0.14-0.61c0.3-0.66,0.29-1.42,0.68-2.05c0.25-0.22,0.3-0.48,0.15-0.77
				c0.72-0.79,0.07-2.01,0.86-2.78l0,0.01c0.81-0.73,0.08-1.95,0.86-2.68l0.23-0.18l-0.09-0.28c0.22-0.74,0.25-1.55,0.75-2.2
				l0.23-0.18l-0.09-0.28c0.21-0.75,0.26-1.55,0.77-2.19l0,0.01c0.82-0.7,0.05-1.97,0.94-2.65l-0.02,0.04
				c0.44-0.53,0.33-1.29,0.74-1.84c0.26-0.17,0.32-0.39,0.18-0.67c0.36-0.63,0.28-1.43,0.79-2.01l0-0.01
				c0.54-0.46,0.38-1.22,0.76-1.75c0.26-0.18,0.33-0.42,0.21-0.71c0.39-0.6,0.3-1.41,0.81-1.96l0-0.01
				c0.55-0.46,0.37-1.23,0.78-1.75c0.26-0.16,0.33-0.37,0.2-0.65c0.35-0.64,0.24-1.47,0.87-1.99l-0.02,0.04
				c0.44-0.54,0.33-1.33,0.83-1.85l0-0.01C328.25,323.25,328.06,322.45,328.52,321.95z"/>
			<path class="st1" d="M401.54,646.02c0.02,0.68-0.29,1.56,0.81,1.65c1.03,0.08,2.07,0.06,3.1,0.06
				c25.56-0.02,51.11-0.05,76.67-0.07c0.89,0,1.77,0.01,2.66-0.05c1.07-0.08,0.84-0.96,0.92-1.64c0.92,1.61,0.77,2.44-0.5,2.56
				c-1.03,0.1-2.07,0.08-3.1,0.08c-25.71,0.01-51.42,0.01-77.14,0c-1.03,0-2.07,0.01-3.1-0.1
				C400.58,648.39,400.47,647.44,401.54,646.02z"/>
			<path class="st1" d="M412.1,618.36c1.1,0.26,2.01,0.81,2.64,1.76C413.4,620.22,412.51,619.64,412.1,618.36z"/>
			<path class="st1" d="M409.46,616.55c1.1,0.27,1.99,0.84,2.62,1.79C410.73,618.44,409.84,617.88,409.46,616.55z"/>
			<path class="st1" d="M406.85,614.72c1.11,0.26,1.98,0.86,2.59,1.83C408.07,616.66,407.15,616.13,406.85,614.72z"/>
			<path class="st1" d="M429.05,598.11c-0.6,1.82-0.6,1.82-1.95,0.82C427.75,598.66,428.4,598.38,429.05,598.11z"/>
			<path class="st1" d="M442.33,574.99c-0.05,0.74-0.26,1.38-0.98,1.74C441.34,575.96,441.52,575.3,442.33,574.99z"/>
			<path class="st1" d="M441.35,576.72c0.02,0.75-0.36,1.27-0.95,1.67C440.44,577.68,440.63,577.05,441.35,576.72z"/>
			<path class="st1" d="M447.54,580.23c-0.68-0.37-0.95-0.97-0.97-1.71C447.34,578.84,447.53,579.49,447.54,580.23z"/>
			<path class="st1" d="M438.77,581.2c-0.04,0.74-0.27,1.37-0.98,1.74C437.79,582.17,437.96,581.51,438.77,581.2z"/>
			<path class="st1" d="M450.17,584.74c-0.72-0.36-0.94-1.01-1-1.74C450.01,583.28,450.18,583.96,450.17,584.74z"/>
			<path class="st1" d="M451.11,586.4c-0.63-0.39-0.96-0.94-0.96-1.68C450.89,585.04,451.08,585.68,451.11,586.4z"/>
			<path class="st1" d="M435.2,587.4c-0.03,0.74-0.29,1.36-0.97,1.73C434.24,588.37,434.42,587.72,435.2,587.4z"/>
			<path class="st1" d="M453.74,590.91c-0.7-0.36-0.95-0.99-0.98-1.73C453.56,589.49,453.74,590.15,453.74,590.91z"/>
			<path class="st1" d="M431.64,593.61c-0.02,0.75-0.29,1.35-0.97,1.72C430.68,594.58,430.87,593.93,431.64,593.61z"/>
			<path class="st1" d="M456.36,595.41c-0.73-0.35-0.93-1.02-1.01-1.75C456.25,593.92,456.39,594.62,456.36,595.41z"/>
			<path class="st1" d="M457.31,597.08c-0.66-0.37-0.96-0.95-0.97-1.7C457.11,595.7,457.29,596.34,457.31,597.08z"/>
			<path class="st1" d="M459.94,601.59c-0.71-0.36-0.94-1-0.99-1.74C459.77,600.15,459.95,600.82,459.94,601.59z"/>
			<path class="st1" d="M463.51,607.76c-0.69-0.37-0.95-0.97-0.98-1.72C463.32,606.36,463.5,607.01,463.51,607.76z"/>
			<path class="st1" d="M466.14,612.27c-0.73-0.36-0.94-1.01-1.01-1.75C465.99,610.8,466.15,611.48,466.14,612.27z"/>
			<path class="st1" d="M467.09,613.93c-0.64-0.38-0.96-0.94-0.96-1.69C466.87,612.56,467.06,613.2,467.09,613.93z"/>
			<path class="st1" d="M469.71,618.44c-0.71-0.36-0.94-0.99-0.98-1.73C469.54,617.01,469.71,617.68,469.71,618.44z"/>
			<path class="st1" d="M414.8,622.92c-0.04,0.74-0.27,1.37-0.98,1.74C413.82,623.89,414,623.23,414.8,622.92z"/>
			<path class="st1" d="M473.29,624.61c-0.66-0.37-0.96-0.96-0.97-1.7C473.09,623.22,473.27,623.87,473.29,624.61z"/>
			<path class="st1" d="M475.91,629.12c-0.72-0.36-0.93-1.01-0.99-1.74C475.75,627.67,475.92,628.34,475.91,629.12z"/>
			<path class="st1" d="M411.24,629.13c-0.03,0.74-0.29,1.36-0.98,1.72C410.27,630.1,410.45,629.44,411.24,629.13z"/>
			<path class="st1" d="M476.86,630.77c-0.61-0.39-0.97-0.92-0.96-1.67C476.64,629.42,476.83,630.05,476.86,630.77z"/>
			<path class="st1" d="M479.49,635.29c-0.69-0.37-0.95-0.98-0.98-1.72C479.3,633.88,479.48,634.53,479.49,635.29z"/>
			<path class="st1" d="M482.11,639.79c-0.73-0.36-0.93-1.02-1.01-1.75C482,638.31,482.13,639,482.11,639.79z"/>
			<path class="st1" d="M483.06,641.45c-0.64-0.38-0.96-0.94-0.97-1.69C482.85,640.08,483.04,640.72,483.06,641.45z"/>
			<path class="st1" d="M485.69,645.96c-0.71-0.36-0.94-1-0.99-1.73C485.51,644.53,485.69,645.2,485.69,645.96z"/>
			<path class="st1" d="M443.88,574.2c-0.24,0.01-0.48,0-0.71-0.04c0.13-0.17,0.26-0.34,0.39-0.51
				C443.66,573.83,443.77,574.02,443.88,574.2z"/>
			<path class="st1" d="M443.22,574.12c-0.31,0.31-0.63,0.63-0.94,0.94C442.41,574.55,442.72,574.24,443.22,574.12z"/>
			<path class="st1" d="M444.74,575.37c-0.55-0.23-0.8-0.68-0.92-1.23C444.4,574.34,444.69,574.77,444.74,575.37z"/>
			<path class="st1" d="M445.66,576.96c-0.51-0.21-0.75-0.58-0.7-1.14C445.19,576.21,445.43,576.58,445.66,576.96z"/>
			<path class="st1" d="M446.59,578.57c-0.47-0.15-0.73-0.44-0.64-0.96C446.16,577.93,446.38,578.25,446.59,578.57z"/>
			<path class="st1" d="M440.37,578.47c0.05,0.57-0.19,0.96-0.72,1.18C439.89,579.25,440.13,578.86,440.37,578.47z"/>
			<path class="st1" d="M439.38,580.27c0.09,0.53-0.16,0.83-0.65,0.98C438.95,580.93,439.17,580.6,439.38,580.27z"/>
			<path class="st1" d="M448.3,581.5c-0.54-0.24-0.76-0.67-0.74-1.24C448.03,580.54,448.27,580.96,448.3,581.5z"/>
			<path class="st1" d="M449.21,583.07c-0.5-0.16-0.72-0.5-0.66-1.02C448.77,582.38,448.99,582.73,449.21,583.07z"/>
			<path class="st1" d="M437.79,582.94c0.01,0.59-0.2,1.04-0.76,1.3C437.04,583.66,437.29,583.22,437.79,582.94z"/>
			<path class="st1" d="M408.36,584.89c-0.56-0.1-0.96-0.4-1.15-0.95C407.8,584.01,408.19,584.31,408.36,584.89z"/>
			<path class="st1" d="M409.3,585.69c-0.52-0.06-0.89-0.32-1.01-0.86C408.81,584.9,409.15,585.19,409.3,585.69z"/>
			<path class="st1" d="M436.8,584.7c0.05,0.55-0.19,0.93-0.7,1.14C436.33,585.47,436.57,585.08,436.8,584.7z"/>
			<path class="st1" d="M410.23,586.48c-0.53-0.03-0.86-0.31-0.98-0.83C409.58,585.93,409.91,586.21,410.23,586.48z"/>
			<path class="st1" d="M411.16,587.26c-0.52,0-0.8-0.28-0.91-0.77C410.55,586.75,410.85,587,411.16,587.26z"/>
			<path class="st1" d="M435.82,586.49c0.09,0.53-0.17,0.82-0.65,0.97C435.39,587.13,435.6,586.81,435.82,586.49z"/>
			<path class="st1" d="M451.87,587.65c-0.53-0.22-0.76-0.62-0.73-1.19C451.59,586.73,451.83,587.13,451.87,587.65z"/>
			<path class="st1" d="M412,587.96c-0.44,0.02-0.66-0.23-0.73-0.63C411.51,587.54,411.76,587.75,412,587.96z"/>
			<path class="st1" d="M413.74,589.26c-0.55-0.07-0.95-0.34-1.13-0.89C413.16,588.44,413.54,588.73,413.74,589.26z"/>
			<path class="st1" d="M452.79,589.24c-0.49-0.15-0.74-0.45-0.65-0.98C452.36,588.59,452.58,588.92,452.79,589.24z"/>
			<path class="st1" d="M414.68,590.02c-0.53-0.02-0.86-0.29-0.99-0.8C414.02,589.48,414.35,589.75,414.68,590.02z"/>
			<path class="st1" d="M434.22,589.14c0.02,0.58-0.2,1.03-0.75,1.27C433.49,589.86,433.74,589.43,434.22,589.14z"/>
			<path class="st1" d="M415.56,590.74c-0.52,0.05-0.76-0.24-0.86-0.7C414.99,590.27,415.28,590.5,415.56,590.74z"/>
			<path class="st1" d="M417.27,591.95c-0.57-0.08-1-0.34-1.22-0.9C416.64,591.1,417.06,591.39,417.27,591.95z"/>
			<path class="st1" d="M433.24,590.92c0.05,0.55-0.19,0.92-0.69,1.12C432.77,591.67,433.01,591.29,433.24,590.92z"/>
			<path class="st1" d="M454.5,592.2c-0.55-0.25-0.77-0.69-0.76-1.27C454.24,591.2,454.48,591.63,454.5,592.2z"/>
			<path class="st1" d="M418.22,592.7c-0.53-0.02-0.88-0.27-1.02-0.79C417.7,591.98,418.03,592.24,418.22,592.7z"/>
			<path class="st1" d="M673.97,591.85c-0.13,0.5-0.44,0.77-0.97,0.76C673.32,592.35,673.64,592.1,673.97,591.85z"/>
			<path class="st1" d="M419.11,593.4c-0.52,0.06-0.77-0.24-0.88-0.69C418.53,592.94,418.82,593.17,419.11,593.4z"/>
			<path class="st1" d="M432.25,592.7c0.09,0.52-0.17,0.8-0.64,0.95C431.83,593.34,432.04,593.02,432.25,592.7z"/>
			<path class="st1" d="M455.4,593.74c-0.51-0.17-0.72-0.52-0.67-1.05C455.16,592.91,455.39,593.26,455.4,593.74z"/>
			<path class="st1" d="M420.84,594.58c-0.57-0.06-1-0.31-1.21-0.87C420.21,593.76,420.62,594.04,420.84,594.58z"/>
			<path class="st1" d="M421.79,595.3c-0.54,0.01-0.87-0.25-1-0.76C421.27,594.6,421.6,594.86,421.79,595.3z"/>
			<path class="st1" d="M422.65,595.97c-0.47,0.05-0.69-0.22-0.79-0.63C422.12,595.55,422.39,595.76,422.65,595.97z"/>
			<path class="st1" d="M430.66,595.35c0.02,0.58-0.2,1.02-0.74,1.26C429.94,596.06,430.18,595.63,430.66,595.35z"/>
			<path class="st1" d="M424.44,597.14c-0.55-0.01-0.93-0.27-1.11-0.8C423.84,596.4,424.21,596.67,424.44,597.14z"/>
			<path class="st1" d="M425.32,597.81c-0.51,0.07-0.75-0.22-0.88-0.66C424.74,597.37,425.03,597.59,425.32,597.81z"/>
			<path class="st1" d="M429.68,597.13c0.06,0.53-0.16,0.87-0.67,1.04C429.03,597.69,429.25,597.35,429.68,597.13z"/>
			<path class="st1" d="M458.07,598.35c-0.54-0.23-0.76-0.66-0.73-1.23C457.8,597.4,458.04,597.81,458.07,598.35z"/>
			<path class="st1" d="M427.09,598.93c-0.56-0.01-0.96-0.25-1.15-0.8C426.47,598.18,426.86,598.44,427.09,598.93z"/>
			<path class="st1" d="M458.99,599.92c-0.49-0.16-0.72-0.49-0.66-1.01C458.55,599.25,458.77,599.58,458.99,599.92z"/>
			<path class="st1" d="M460.71,602.89c-0.56-0.26-0.78-0.72-0.78-1.31C460.45,601.87,460.69,602.31,460.71,602.89z"/>
			<path class="st1" d="M461.64,604.5c-0.52-0.21-0.75-0.6-0.7-1.15C461.17,603.73,461.4,604.11,461.64,604.5z"/>
			<path class="st1" d="M462.57,606.09c-0.48-0.15-0.73-0.44-0.65-0.96C462.14,605.45,462.35,605.77,462.57,606.09z"/>
			<path class="st1" d="M464.27,609.04c-0.55-0.24-0.76-0.68-0.75-1.26C464.01,608.06,464.25,608.48,464.27,609.04z"/>
			<path class="st1" d="M465.18,610.59c-0.5-0.16-0.72-0.51-0.66-1.03C464.94,609.78,465.17,610.12,465.18,610.59z"/>
			<path class="st1" d="M467.84,615.19c-0.53-0.23-0.76-0.64-0.73-1.21C467.57,614.25,467.81,614.66,467.84,615.19z"/>
			<path class="st1" d="M468.77,616.77c-0.48-0.16-0.71-0.47-0.66-0.99C468.33,616.11,468.55,616.44,468.77,616.77z"/>
			<path class="st1" d="M470.48,619.73c-0.56-0.25-0.77-0.71-0.76-1.29C470.21,618.73,470.46,619.16,470.48,619.73z"/>
			<path class="st1" d="M414.76,620.14c0.54,0.09,1.1,0.16,0.86,0.96C415.34,620.77,415.05,620.46,414.76,620.14z"/>
			<path class="st1" d="M471.41,621.33c-0.51-0.2-0.75-0.57-0.7-1.12C470.94,620.59,471.18,620.96,471.41,621.33z"/>
			<path class="st1" d="M415.41,621.99c0.09,0.53-0.16,0.84-0.65,0.98C414.98,622.65,415.2,622.32,415.41,621.99z"/>
			<path class="st1" d="M472.34,622.95c-0.46-0.15-0.72-0.43-0.64-0.95C471.92,622.31,472.13,622.63,472.34,622.95z"/>
			<path class="st1" d="M413.82,624.66c0.01,0.59-0.2,1.05-0.76,1.3C413.08,625.39,413.32,624.95,413.82,624.66z"/>
			<path class="st1" d="M474.04,625.88c-0.54-0.24-0.76-0.67-0.74-1.24C473.77,624.92,474.02,625.33,474.04,625.88z"/>
			<path class="st1" d="M412.84,626.42c0.05,0.56-0.19,0.93-0.7,1.14C412.37,627.19,412.6,626.81,412.84,626.42z"/>
			<path class="st1" d="M474.96,627.44c-0.49-0.16-0.73-0.49-0.67-1.01C474.52,626.77,474.74,627.1,474.96,627.44z"/>
			<path class="st1" d="M411.85,628.21c0.09,0.52-0.16,0.82-0.64,0.97C411.42,628.86,411.64,628.53,411.85,628.21z"/>
			<path class="st1" d="M410.26,630.86c0.01,0.58-0.2,1.03-0.75,1.28C409.52,631.58,409.77,631.15,410.26,630.86z"/>
			<path class="st1" d="M477.61,632.02c-0.53-0.22-0.76-0.62-0.72-1.18C477.33,631.11,477.57,631.5,477.61,632.02z"/>
			<path class="st1" d="M409.27,632.64c0.05,0.55-0.19,0.92-0.7,1.12C408.81,633.39,409.04,633.01,409.27,632.64z"/>
			<path class="st1" d="M478.54,633.62c-0.48-0.15-0.74-0.45-0.65-0.97C478.11,632.97,478.33,633.29,478.54,633.62z"/>
			<path class="st1" d="M408.29,634.43c0.09,0.52-0.17,0.81-0.64,0.95C407.86,635.06,408.07,634.74,408.29,634.43z"/>
			<path class="st1" d="M480.25,636.57c-0.55-0.24-0.77-0.68-0.75-1.27C479.98,635.58,480.23,636.01,480.25,636.57z"/>
			<path class="st1" d="M481.16,638.12c-0.5-0.16-0.72-0.51-0.67-1.04C480.91,637.3,481.14,637.64,481.16,638.12z"/>
			<path class="st1" d="M483.81,642.71c-0.54-0.23-0.76-0.64-0.73-1.21C483.54,641.77,483.78,642.18,483.81,642.71z"/>
			<path class="st1" d="M484.74,644.29c-0.48-0.16-0.72-0.48-0.66-1C484.3,643.63,484.52,643.96,484.74,644.29z"/>
			<path class="st1" d="M391.75,563.05c-0.49-0.1-0.77-0.38-0.79-0.89C391.22,562.46,391.48,562.76,391.75,563.05z"/>
			<path class="st1" d="M745.11,563.05c-0.01-0.52,0.24-0.85,0.75-0.97C745.61,562.4,745.36,562.72,745.11,563.05z"/>
			<path class="st1" d="M737.95,529.34c0.02,0.58-0.2,1.02-0.75,1.26C737.22,530.05,737.47,529.62,737.95,529.34z"/>
			<path class="st1" d="M392.6,564.02c-0.51-0.11-0.79-0.42-0.84-0.94C392.04,563.39,392.32,563.7,392.6,564.02z"/>
			<path class="st1" d="M713.83,563.03c-0.01,0.5-0.28,0.76-0.75,0.83C713.33,563.59,713.58,563.31,713.83,563.03z"/>
			<path class="st1" d="M393.46,564.95c-0.53-0.11-0.82-0.43-0.88-0.96C393.05,564.15,393.35,564.47,393.46,564.95z"/>
			<path class="st1" d="M713.02,563.94c-0.03,0.51-0.31,0.79-0.8,0.89C712.49,564.53,712.75,564.23,713.02,563.94z"/>
			<path class="st1" d="M394.31,565.89c-0.53-0.11-0.81-0.45-0.89-0.98C393.92,565.05,394.22,565.38,394.31,565.89z"/>
			<path class="st1" d="M712.2,564.85c-0.05,0.52-0.33,0.82-0.84,0.92C711.64,565.46,711.92,565.15,712.2,564.85z"/>
			<path class="st1" d="M743.2,565.67c0.03-0.52,0.25-0.9,0.79-1.03C743.96,565.16,743.69,565.49,743.2,565.67z"/>
			<path class="st1" d="M395.16,566.82c-0.53-0.11-0.82-0.45-0.9-0.98C394.78,565.96,395.08,566.28,395.16,566.82z"/>
			<path class="st1" d="M711.37,565.76c-0.06,0.53-0.35,0.84-0.87,0.95C710.78,566.39,711.08,566.08,711.37,565.76z"/>
			<path class="st1" d="M742.45,566.6c0-0.52,0.26-0.84,0.77-0.95C742.96,565.97,742.7,566.28,742.45,566.6z"/>
			<path class="st1" d="M396.01,567.73c-0.53-0.11-0.82-0.45-0.91-0.98C395.65,566.86,395.95,567.18,396.01,567.73z"/>
			<path class="st1" d="M710.53,566.67c-0.08,0.53-0.37,0.85-0.9,0.95C709.74,567.13,710.04,566.82,710.53,566.67z"/>
			<path class="st3" d="M578.54,631.51c0.52-0.07,1.04-0.13,1.56-0.2c0.81-0.61,1.95-0.02,2.73-0.74c0.57-0.07,1.14-0.14,1.71-0.21
				c0.59-0.32,1.33-0.25,1.89-0.66c0.55-0.08,1.11-0.15,1.66-0.23c0.58-0.33,1.31-0.23,1.85-0.67c0.3,0.15,0.57,0.1,0.8-0.13
				c0.66-0.4,1.44-0.46,2.16-0.68c0.47-0.08,0.93-0.17,1.4-0.25c0.58-0.37,1.33-0.27,1.88-0.7c0.29,0.14,0.55,0.09,0.77-0.15
				c0.6-0.43,1.37-0.37,2-0.7c0.52-0.1,1.04-0.2,1.56-0.31c0.4-0.16,0.7-0.51,1.16-0.56c0.5-0.11,1-0.21,1.5-0.32
				c0.39-0.16,0.69-0.5,1.13-0.58c0.26,0.14,0.47,0.09,0.63-0.17c0.58-0.47,1.36-0.37,1.97-0.74c0.28,0.13,0.51,0.07,0.69-0.17
				c0.54-0.44,1.33-0.29,1.86-0.75c0.31,0.12,0.58,0.06,0.81-0.19c0.4-0.26,0.77-0.61,1.29-0.62l0.29,0.08l0.19-0.24
				c0.54-0.52,1.36-0.39,1.95-0.79c0.29,0.12,0.53,0.05,0.72-0.19c0.4-0.29,0.77-0.64,1.32-0.63l0.28,0.08l0.17-0.23
				c0.52-0.52,1.34-0.36,1.89-0.81c0.31,0.11,0.58,0.03,0.79-0.22c0.38-0.2,0.69-0.54,1.14-0.62c0.27,0.12,0.48,0.05,0.63-0.2
				c0.39-0.31,0.76-0.65,1.3-0.66l0.29,0.07l0.18-0.24c0.49-0.5,1.3-0.31,1.78-0.83l0.02-0.01c0.49-0.54,1.31-0.39,1.83-0.86
				c0.28-0.09,0.55-0.18,0.83-0.27c0.34-0.17,0.67-0.38,0.98-0.61c0.32,0.09,0.59,0.01,0.79-0.26c0.34-0.19,0.68-0.4,1.01-0.62
				c0.32,0.09,0.57,0,0.77-0.27c0.34-0.19,0.68-0.4,1-0.63c0.33,0.09,0.58-0.01,0.78-0.28c0.34-0.17,0.66-0.38,0.97-0.62
				c0.27-0.1,0.54-0.2,0.81-0.3c0.33-0.15,0.63-0.35,0.9-0.6l-0.01,0c0.44-0.57,1.27-0.38,1.72-0.92l0.03-0.01
				c0.36-0.38,0.73-0.73,1.3-0.75l0.3,0.05l0.17-0.25c0.35-0.3,0.69-0.6,1.16-0.71c0.29,0.1,0.5,0.01,0.63-0.26
				c0.34-0.23,0.68-0.46,1.03-0.67c0.33,0.08,0.58-0.03,0.76-0.32c0.33-0.14,0.62-0.34,0.87-0.61l0.01-0.01
				c0.34-0.39,0.71-0.73,1.26-0.77c0.26,0.12,0.43,0.04,0.51-0.24c0.32-0.26,0.65-0.48,1.01-0.68l-0.05,0.04
				c0.35-0.69,1.24-0.47,1.68-1.02l0.03-0.01c0.33-0.35,0.67-0.67,1.17-0.77c0.29,0.09,0.5-0.01,0.61-0.29
				c0.33-0.2,0.64-0.42,0.93-0.67l-0.02,0.01c0.3-0.43,0.68-0.76,1.23-0.81c0.27,0.1,0.45,0.01,0.52-0.27
				c0.32-0.23,0.64-0.46,0.96-0.69l-0.04,0.03c0.29-0.46,0.67-0.79,1.23-0.84c0.27,0.1,0.44,0.01,0.51-0.27
				c0.32-0.22,0.63-0.45,0.94-0.7l-0.03,0.02c0.29-0.42,0.65-0.74,1.17-0.83c0.3,0.08,0.49-0.02,0.59-0.32
				c0.33-0.17,0.62-0.4,0.87-0.67l0.02-0.01c0.31-0.31,0.56-0.68,1.03-0.77l-0.06,0.05c0.27-0.72,1.22-0.46,1.56-1.09l0.1-0.06
				c0.33-0.25,0.65-0.5,0.97-0.75l-0.03,0.02c0.27-0.41,0.63-0.72,1.12-0.85c0.33,0.06,0.55-0.08,0.65-0.4
				c0.33-0.1,0.58-0.3,0.73-0.62l0.1-0.07c0.32-0.25,0.64-0.5,0.95-0.76l-0.02,0.01c0.27-0.36,0.56-0.7,1.02-0.82l-0.07,0.06
				c0.21-0.56,0.61-0.88,1.22-0.93c0.29,0.07,0.45-0.04,0.48-0.33c0.33-0.17,0.6-0.4,0.81-0.69l0.05-0.04
				c0.33-0.25,0.59-0.58,0.95-0.8l-0.02,0.02c0.26-0.37,0.55-0.7,1-0.85l-0.06,0.05c0.2-0.52,0.58-0.82,1.12-0.93
				c0.33,0.05,0.53-0.09,0.6-0.42c0.34-0.09,0.56-0.3,0.69-0.62l0.14-0.1c0.34-0.19,0.62-0.45,0.86-0.76l0.05-0.04
				c0.31-0.27,0.62-0.54,0.92-0.81l0,0c0.28-0.33,0.56-0.66,0.96-0.86l-0.04,0.04c0.23-0.4,0.53-0.72,0.98-0.89l-0.05,0.05
				c0.19-0.46,0.48-0.79,0.99-0.89l-0.06,0.06c0.13-0.52,0.43-0.85,0.98-0.9l-0.07,0.06c0.12-0.64,0.54-0.94,1.16-1
				c0.31,0.03,0.48-0.11,0.49-0.43c0.33-0.09,0.56-0.3,0.65-0.64l0.16-0.15c0.35-0.14,0.61-0.38,0.76-0.73l0.14-0.12
				c0.34-0.17,0.61-0.42,0.78-0.76l0.11-0.1c0.34-0.19,0.61-0.45,0.81-0.78l0.09-0.08c0.33-0.21,0.6-0.48,0.82-0.8l0.07-0.07
				c0.32-0.22,0.59-0.49,0.81-0.81l0.07-0.07c0.32-0.22,0.6-0.49,0.81-0.81l0.07-0.07c0.32-0.22,0.59-0.49,0.81-0.81l0.07-0.07
				c0.32-0.21,0.58-0.49,0.79-0.82l0.09-0.1c0.34-0.18,0.59-0.45,0.76-0.8l0.12-0.13c0.35-0.16,0.59-0.42,0.74-0.77l0.12-0.13
				c0.93-0.55,1.01-1.88,2.09-2.29l-0.05,0.05c0.02-0.58,0.36-0.87,0.89-0.99l-0.06,0.06c0.09-0.52,0.42-0.83,0.91-0.98l-0.06,0.06
				c0.13-0.48,0.46-0.78,0.88-1l-0.04,0.05c0.18-0.42,0.51-0.71,0.87-0.97l-0.02,0.02c0.23-0.35,0.55-0.63,0.83-0.94l0.02-0.03
				c0.3-0.26,0.56-0.56,0.78-0.89l0.07-0.1c0.32-0.15,0.53-0.4,0.66-0.73c0.31-0.03,0.44-0.2,0.39-0.51c0.06-0.6,0.37-1,0.95-1.18
				l-0.07,0.08c0.11-0.49,0.45-0.78,0.86-1.02l-0.04,0.04c0.19-0.4,0.53-0.67,0.83-0.98l0.01-0.01c0.29-0.27,0.54-0.58,0.76-0.91
				l0.07-0.11c0.65-0.29,0.38-1.3,1.15-1.5l-0.06,0.07c0.08-0.51,0.43-0.8,0.84-1.04l-0.04,0.05c0.18-0.39,0.53-0.66,0.79-0.99
				l0.03-0.04c0.3-0.22,0.52-0.49,0.68-0.82c0.3-0.06,0.42-0.24,0.34-0.55c0.07-0.56,0.39-0.94,0.88-1.19l-0.05,0.06
				c0.16-0.42,0.52-0.68,0.78-1.01l0.02-0.03c0.58-0.39,0.32-1.37,1.13-1.59l-0.06,0.07c0.04-0.52,0.4-0.8,0.78-1.07l-0.02,0.03
				c0.26-0.32,0.5-0.65,0.74-0.99l0.06-0.1c0.65-0.32,0.4-1.27,1.07-1.58l-0.05,0.06c0.14-0.43,0.51-0.68,0.75-1.03l0.03-0.05
				c0.6-0.38,0.36-1.31,1.06-1.63l-0.04,0.05c0.36-0.67,0.4-1.34,0.02-2.02l-0.04-0.02c-0.52-0.38-1.41-0.14-1.67-0.97l-0.04-0.03
				c-1.09-0.23-1.92-0.91-2.76-1.58l-0.04-0.02c-0.48-0.46-1.34-0.25-1.69-0.95l-0.01-0.01c-0.53-0.36-1.42-0.12-1.66-0.97
				l-0.05-0.03c-1.1-0.21-1.93-0.9-2.76-1.58l-0.03-0.02c-0.49-0.45-1.35-0.24-1.69-0.96l-0.02-0.01c-0.54-0.34-1.43-0.09-1.66-0.97
				l-0.05-0.04c-1.12-0.18-1.94-0.87-2.77-1.57l-0.02-0.01c-0.49-0.44-1.36-0.22-1.69-0.96l-0.02-0.01
				c-1.02-0.34-1.86-0.99-2.73-1.6l-0.09-0.05c-0.44-0.51-1.29-0.3-1.67-0.93l-0.01,0c-0.88-0.66-2.16-1.22-0.57-2.45
				c0.26,0.12,0.43,0.04,0.52-0.23c0.35-0.25,0.66-0.55,1.08-0.69c0.31,0.08,0.55-0.02,0.71-0.3c0.33-0.17,0.64-0.38,0.91-0.63
				l-0.01,0.01c0.41-0.58,1.27-0.36,1.67-0.95l0.07-0.03c0.35-0.31,0.69-0.63,1.17-0.73c0.29,0.1,0.49,0.01,0.62-0.26
				c0.34-0.23,0.68-0.46,1.03-0.67c0.33,0.08,0.59-0.03,0.76-0.33c0.33-0.14,0.62-0.34,0.86-0.61l0.01-0.01
				c0.35-0.4,0.72-0.74,1.29-0.77l0.31,0.04l0.17-0.26c0.34-0.28,0.67-0.59,1.11-0.71c0.3,0.09,0.53-0.01,0.68-0.29
				c0.33-0.19,0.64-0.4,0.94-0.64l-0.03,0.02c0.4-0.6,1.27-0.4,1.69-0.96l0.05-0.02c0.35-0.34,0.7-0.67,1.21-0.74
				c0.27,0.11,0.47,0.03,0.57-0.25c0.35-0.23,0.66-0.53,1.06-0.68c0.32,0.08,0.57-0.02,0.73-0.31c0.33-0.16,0.63-0.36,0.89-0.62l0,0
				c0.42-0.56,1.27-0.34,1.66-0.94l0.08-0.03c0.36-0.29,0.69-0.61,1.16-0.72c0.29,0.09,0.51,0,0.64-0.27
				c0.33-0.21,0.65-0.43,0.97-0.65l-0.04,0.03c0.39-0.64,1.26-0.44,1.71-0.97l0.03-0.01c0.34-0.37,0.71-0.71,1.25-0.76
				c0.26,0.12,0.44,0.04,0.52-0.23c0.35-0.26,0.66-0.56,1.09-0.7c0.31,0.08,0.54-0.02,0.7-0.3c0.33-0.18,0.64-0.39,0.92-0.63
				l-0.02,0.01c0.41-0.59,1.27-0.37,1.68-0.95l0.06-0.03c0.35-0.32,0.69-0.64,1.19-0.73c0.28,0.1,0.48,0.01,0.6-0.26
				c0.34-0.24,0.68-0.46,1.03-0.68c0.33,0.08,0.58-0.03,0.76-0.32c0.33-0.14,0.63-0.35,0.87-0.61l0.01-0.01
				c0.34-0.41,0.72-0.75,1.29-0.77l0.3,0.04l0.17-0.26c0.34-0.28,0.68-0.58,1.12-0.71c0.3,0.09,0.52,0,0.67-0.28
				c0.33-0.2,0.65-0.41,0.95-0.64l-0.04,0.02c0.4-0.61,1.27-0.41,1.7-0.96l0.04-0.02c0.35-0.35,0.7-0.68,1.22-0.75
				c0.27,0.11,0.46,0.03,0.56-0.25c0.35-0.24,0.66-0.53,1.06-0.69c0.32,0.08,0.56-0.02,0.72-0.31c0.33-0.16,0.63-0.37,0.9-0.62
				l-0.01,0c0.41-0.57,1.27-0.35,1.66-0.95l0.08-0.03c0.36-0.29,0.69-0.62,1.16-0.73c0.29,0.1,0.5,0.01,0.63-0.27
				c0.33-0.22,0.65-0.44,0.98-0.65l-0.05,0.03c0.39-0.65,1.26-0.45,1.71-0.98l0.02-0.01c0.34-0.38,0.71-0.72,1.26-0.76l0.32,0.03
				l0.19-0.26c0.35-0.26,0.67-0.57,1.09-0.7c0.31,0.09,0.54-0.01,0.69-0.29c0.33-0.18,0.64-0.4,0.93-0.64l-0.02,0.01
				c0.4-0.6,1.27-0.39,1.69-0.96l0.06-0.02c0.35-0.33,0.7-0.66,1.2-0.74c0.28,0.11,0.47,0.02,0.59-0.26
				c0.35-0.22,0.66-0.51,1.04-0.68c0.33,0.08,0.58-0.03,0.75-0.32c0.33-0.15,0.63-0.35,0.88-0.61l0,0c0.41-0.55,1.27-0.32,1.65-0.94
				l0.09-0.04c0.36-0.27,0.69-0.6,1.14-0.72c0.3,0.09,0.52,0,0.66-0.28c0.33-0.2,0.65-0.42,0.96-0.65l-0.04,0.02
				c0.4-0.62,1.26-0.42,1.7-0.97l0.04-0.02c0.36-0.39,0.77-0.68,1.31-0.74l-0.08-0.1c1.93,1.09,0.9,2.92,0.91,4.35
				c0.08,18.98,0.05,37.96,0.07,56.94c0,1.6-0.29,3.24,0.37,4.8c-0.61,1.7-0.32,3.46-0.29,5.19c0.08,4.21-0.38,8.43,0.26,12.62
				c-0.26,0.75-0.35,1.72-1.58,1.16l-0.01,0c-0.52-0.39-1.4-0.16-1.67-0.97l-0.04-0.02c-1.07-0.25-1.91-0.93-2.75-1.58l-0.05-0.03
				c-0.47-0.47-1.33-0.26-1.69-0.94l-0.01-0.01c-0.52-0.38-1.41-0.14-1.67-0.97l-0.04-0.03c-1.09-0.23-1.92-0.91-2.76-1.58
				l-0.04-0.02c-0.48-0.46-1.34-0.25-1.68-0.96l-0.01-0.01c-0.54-0.36-1.42-0.11-1.67-0.97l-0.05-0.03
				c-1.1-0.21-1.93-0.89-2.77-1.58l-0.02-0.02c-0.49-0.45-1.35-0.24-1.69-0.96l-0.02-0.01c-0.54-0.34-1.43-0.08-1.65-0.97
				l-0.07-0.05c-1.12-0.16-1.94-0.86-2.76-1.56l-0.02-0.01c-0.5-0.43-1.36-0.22-1.69-0.96l-0.02-0.02
				c-0.37-0.17-0.73-0.13-1.08,0.08l-0.01,0.02c-0.23,0.34-0.47,0.65-0.74,0.96l-0.05,0.09c-0.6,0.37-0.35,1.29-1.03,1.61l0.03-0.04
				c-0.12,0.42-0.49,0.67-0.73,1.01l-0.05,0.09c-0.59,0.37-0.34,1.3-1.06,1.59l0.04-0.04c-0.09,0.45-0.46,0.7-0.75,1.01l-0.03,0.06
				c-0.55,0.4-0.29,1.36-1.09,1.58l0.04-0.04c-0.04,0.5-0.4,0.78-0.76,1.04l0,0c-0.62,0.87-0.97,1.93-1.88,2.59l0.03-0.04
				c-0.09,0.46-0.46,0.72-0.78,1l-0.02,0.03c-0.67,0.82-0.97,1.92-1.9,2.55l0.03-0.04c-0.09,0.48-0.45,0.74-0.8,1l-0.01,0.01
				c-0.66,0.83-0.9,1.98-1.96,2.5l0.18,0.16l-0.15-0.18c-0.01,0.54-0.36,0.82-0.81,1.01l0.03-0.03c-0.14,0.44-0.47,0.71-0.82,0.97
				l-0.02,0.02c-0.82,1.23-1.65,2.46-2.82,3.41l0.03-0.03c-0.07,0.51-0.4,0.79-0.84,0.99l0.03-0.03c-0.15,0.43-0.48,0.71-0.84,0.96
				l0,0c-0.25,0.33-0.52,0.63-0.82,0.9l-0.05,0.06c-0.91,1.14-1.59,2.49-2.89,3.28c0.03,0.6-0.29,0.87-0.85,0.94l0.2,0.19l-0.18-0.2
				c-0.04,0.55-0.36,0.83-0.87,0.95l0.03-0.03c-0.1,0.5-0.42,0.79-0.88,0.95l0.03-0.03c-0.15,0.45-0.46,0.75-0.89,0.93l0.02-0.02
				c-0.16,0.44-0.47,0.74-0.89,0.92l0.02-0.02c-0.18,0.42-0.49,0.71-0.88,0.92l0.01-0.01c-0.2,0.39-0.51,0.69-0.89,0.91l0.01-0.01
				c-0.21,0.38-0.51,0.67-0.87,0.91l-0.01,0.01c-0.25,0.34-0.54,0.63-0.88,0.88l-0.01,0.01c-0.25,0.34-0.54,0.63-0.88,0.88
				l-0.01,0.01c-0.24,0.35-0.53,0.65-0.89,0.87l0,0c-0.23,0.36-0.52,0.67-0.91,0.87l0.01-0.01c-0.21,0.39-0.5,0.69-0.9,0.89
				l0.01-0.01c-0.2,0.4-0.5,0.71-0.92,0.88l0.02-0.02c-0.18,0.43-0.47,0.74-0.92,0.89l0.02-0.02c-0.17,0.44-0.46,0.76-0.94,0.88
				l0.02-0.02c-0.14,0.48-0.43,0.8-0.94,0.86l0.19,0.17l-0.18-0.18c-0.09,0.53-0.37,0.84-0.93,0.86c-1.23,1.43-2.64,2.68-4.22,3.72
				l-0.05,0.04c-0.26,0.32-0.57,0.59-0.91,0.82l0.01-0.01c-0.22,0.39-0.49,0.72-0.96,0.84l0.02-0.02c-0.16,0.47-0.44,0.8-0.97,0.81
				c-0.48,1.04-1.67,1.22-2.41,1.96l-0.09,0.07c-0.28,0.29-0.58,0.55-0.91,0.79l0,0c-0.24,0.38-0.5,0.73-0.98,0.81l0.01-0.01
				c-1.03,1.07-2.16,2.03-3.48,2.73l-0.01,0.01c-0.22,0.4-0.49,0.74-1,0.77c-0.56,1-1.66,1.29-2.53,1.9l-0.01,0.01
				c-0.25,0.37-0.49,0.75-1.01,0.75c-0.58,0.99-1.64,1.33-2.56,1.86l-0.01,0.01c-0.71,0.83-1.73,1.21-2.6,1.82l-0.03,0.02
				c-0.26,0.35-0.49,0.74-1.02,0.72c-0.22,0.81-1.15,0.55-1.57,1.05l-0.07,0.04c-0.26,0.34-0.59,0.58-1,0.71
				c-0.25,0.78-1.16,0.52-1.59,1.02l-0.07,0.04c-0.26,0.34-0.59,0.58-1.02,0.69c-0.24,0.81-1.16,0.56-1.62,1.03l-0.04,0.02
				c-0.81,0.71-1.73,1.23-2.68,1.7l-0.01,0.01c-0.77,0.78-1.65,1.38-2.72,1.64l-0.04,0.03c-0.25,0.82-1.15,0.58-1.65,0.99
				l-0.01,0.01c-0.37,0.65-1.22,0.43-1.66,0.94l-0.09,0.05c-0.87,0.61-1.7,1.27-2.74,1.58l-0.02,0.02c-0.31,0.77-1.17,0.55-1.7,0.95
				l-0.01,0.01c-0.38,0.66-1.22,0.47-1.72,0.92l-0.03,0.02c-0.41,0.59-1.24,0.4-1.7,0.89l-0.07,0.04c-2.75,1.83-5.76,3.14-8.79,4.41
				l-0.09,0.04c-0.45,0.53-1.24,0.37-1.73,0.83l-0.05,0.02c-0.45,0.58-1.24,0.43-1.78,0.83l-0.02,0.01
				c-0.43,0.64-1.22,0.51-1.81,0.8l-0.03,0.02c-1.25,1.07-2.93,1.13-4.32,1.87l-0.04,0.02c-0.47,0.59-1.23,0.47-1.83,0.75
				l-0.04,0.02c-0.53,1.08-1.85,0.21-2.5,1.01l-0.08,0.03c-0.49,0.55-1.23,0.45-1.83,0.71l-0.04,0.02
				c-0.56,1.09-1.86,0.24-2.55,0.99l-0.02,0.01c-1.42,0.77-2.93,1.28-4.51,1.6l-0.07,0.02c-0.56,1.15-1.81,0.35-2.58,0.9l-0.05,0.02
				c-0.61,1.09-1.82,0.34-2.62,0.86l-0.06,0.02c-1.86,1.16-4.08,1.15-6.06,1.91l-0.04,0.01c-0.73,0.84-1.88,0.22-2.7,0.77
				l-0.04,0.01c-0.89,1.25-2.47,0.06-3.46,0.98l-0.02,0c-0.97,1.07-2.49,0.01-3.51,0.9l-0.04,0.01c-1,1.03-2.5,0-3.54,0.87
				l-0.02-0.01c-1.02,1.04-2.48,0.11-3.58,0.8l-0.04-0.01c-1.23,1.36-3.05,0.02-4.38,0.94l-0.03-0.02
				c-3.42,1.19-7.05,1.17-10.56,1.86l-0.04,0c-1.93,1.23-4.25-0.21-6.2,0.88l-0.02-0.02c-2.54,1.35-5.42-0.24-7.98,0.91l-0.03-0.05
				c-3.39,1.23-6.9,0.22-10.33,0.55c-1.57,0.15-3.21-0.37-4.73,0.4l-0.03-0.07c-2.6,0.87-5.2,0.91-7.79-0.03l-0.03,0.03
				c-0.99-0.85-2.59,0.39-3.43-1l-0.04-0.03c-1.09-0.24-1.96-0.84-2.72-1.63l0.02,0.02c-0.44-0.15-0.72-0.47-0.95-0.85l0.01,0.01
				c-0.38-0.23-0.7-0.52-0.87-0.94l0.03,0.03c-0.43-0.22-0.79-0.49-0.79-1.04l0.05,0.05c-0.89-0.27-0.67-1.17-1-1.75l0.04,0.07
				c-1.07-0.73-0.39-2.04-0.96-2.94c0-1.51,0.01-3.02,0.01-4.52c0.21-0.74,0.29-1.53,0.71-2.2l0.25-0.22l-0.06-0.32
				c0.06-0.52,0.4-0.88,0.72-1.25l0.03-0.05c0.6-0.37,0.35-1.34,1.12-1.59l-0.07,0.07c0.11-0.51,0.43-0.82,0.92-0.97l-0.07,0.06
				c0.17-0.54,0.55-0.84,1.09-0.95c0.3,0.08,0.5-0.03,0.6-0.33c0.33-0.17,0.63-0.39,0.91-0.64l-0.01,0
				c0.48-0.58,1.31-0.42,1.85-0.88c0.3,0.12,0.56,0.07,0.79-0.15c2.76-0.9,5.7,0.26,8.46-0.73c3.41,0.53,6.79,0.01,10.18-0.2
				c1.76-0.78,3.74,0.24,5.47-0.68c1.45,0.23,2.87,0.05,4.29-0.22c0.97-0.45,2.09-0.18,3.06-0.63c1.07,0.24,2.11,0.02,3.15-0.24
				c0.92-0.51,2.04-0.14,2.96-0.65c0.79-0.08,1.58-0.15,2.36-0.23c0.88-0.55,1.99-0.09,2.86-0.68c0.82-0.09,1.65-0.17,2.47-0.26
				C577.18,631.83,577.91,631.83,578.54,631.51z"/>
			<path class="st3" d="M685.68,237.88c0.07,0.33,0.27,0.46,0.6,0.41c0.54,0.1,0.92,0.41,1.12,0.92l-0.06-0.05
				c0.45,0.15,0.74,0.48,1,0.86L688.3,240c0.37,0.21,0.64,0.54,0.95,0.83l0.03,0.02c0.27,0.29,0.56,0.55,0.89,0.78l0.1,0.07
				c0.19,0.33,0.46,0.58,0.81,0.73l0.16,0.13c0.23,0.68,1.27,0.39,1.42,1.18l-0.06-0.06c0.55,0.06,0.84,0.39,0.99,0.9l-0.06-0.06
				c0.49,0.12,0.79,0.45,0.99,0.89l-0.05-0.05c0.43,0.18,0.73,0.5,0.96,0.9l-0.04-0.04c0.4,0.21,0.69,0.53,0.94,0.88l-0.02-0.02
				c0.35,0.24,0.63,0.55,0.92,0.85l0.01,0.01c0.29,0.29,0.59,0.57,0.89,0.84l0.03,0.03c0.26,0.3,0.55,0.58,0.86,0.84l0.05,0.05
				c0.24,0.31,0.53,0.58,0.85,0.82l0.07,0.06c0.23,0.32,0.5,0.59,0.83,0.8l0.09,0.08c0.2,0.33,0.48,0.58,0.81,0.78l0.11,0.1
				c0.18,0.34,0.45,0.59,0.78,0.77l0.11,0.11c0.18,0.34,0.43,0.6,0.77,0.77l0.11,0.11c0.18,0.34,0.43,0.6,0.77,0.78l0.1,0.11
				c0.19,0.34,0.45,0.61,0.78,0.81l0.08,0.09c0.22,0.33,0.48,0.6,0.8,0.83l0.06,0.07c0.23,0.32,0.51,0.6,0.82,0.84l0.05,0.05
				c0.25,0.31,0.53,0.6,0.83,0.86l0.03,0.03c0.27,0.3,0.55,0.6,0.85,0.89l0.01,0.01c0.29,0.3,0.6,0.58,0.85,0.92l-0.01-0.01
				c0.35,0.26,0.67,0.55,0.88,0.94l-0.03-0.04c0.39,0.24,0.71,0.54,0.9,0.96l-0.05-0.05c0.43,0.21,0.76,0.51,0.89,0.99l-0.06-0.06
				c0.5,0.15,0.83,0.45,0.9,0.99l-0.07-0.07c0.63,0.14,0.94,0.56,0.99,1.19c-0.04,0.3,0.09,0.46,0.39,0.47
				c0.13,0.33,0.34,0.58,0.66,0.73l0.08,0.1c0.22,0.33,0.48,0.63,0.78,0.89l0.02,0.03c0.27,0.32,0.6,0.59,0.83,0.95l-0.02-0.03
				c0.37,0.26,0.7,0.55,0.86,1l-0.05-0.06c0.46,0.2,0.8,0.49,0.87,1.02l-0.07-0.07c0.79,0.18,0.51,1.2,1.16,1.48l0.08,0.11
				c0.21,0.34,0.46,0.64,0.76,0.91l0.01,0.02c0.29,0.31,0.64,0.58,0.82,0.99l-0.04-0.05c0.41,0.24,0.76,0.53,0.84,1.03l-0.06-0.07
				c0.77,0.21,0.5,1.21,1.15,1.51l0.07,0.1c0.22,0.34,0.47,0.65,0.75,0.94l0,0c0.33,0.29,0.7,0.56,0.81,1.02l-0.06-0.07
				c0.56,0.23,0.88,0.63,0.92,1.25l0.01,0.32l0.29,0.14c0.2,0.32,0.43,0.62,0.7,0.89l0,0c0.33,0.3,0.67,0.58,0.79,1.04l-0.06-0.07
				c0.72,0.27,0.46,1.23,1.1,1.57l0.05,0.09c0.2,0.37,0.55,0.62,0.75,1l-0.03-0.04c0.44,0.28,0.77,0.65,0.85,1.19
				c-0.09,0.3,0.02,0.48,0.32,0.56c0.18,0.33,0.41,0.62,0.68,0.89l0,0c0.32,0.31,0.69,0.58,0.76,1.07l-0.06-0.07
				c0.78,0.27,0.54,1.22,1.09,1.64l0.01,0.02c0.3,0.32,0.66,0.6,0.75,1.07l-0.06-0.08c0.76,0.29,0.53,1.23,1.08,1.67l0.01,0.01
				c0.35,0.33,0.68,0.68,0.78,1.18c-0.09,0.3,0.01,0.5,0.31,0.61c0.19,0.33,0.41,0.64,0.66,0.92l-0.01-0.02
				c0.43,0.32,0.77,0.7,0.8,1.28l-0.02,0.32l0.27,0.17c0.25,0.32,0.48,0.66,0.69,1.01l-0.05-0.07c0.68,0.37,0.47,1.26,1.01,1.7
				l0.01,0.01c0.36,0.35,0.7,0.71,0.76,1.24c-0.11,0.28-0.03,0.46,0.26,0.55c0.24,0.33,0.46,0.66,0.67,1.01l-0.05-0.07
				c0.68,0.38,0.49,1.26,0.99,1.75l-0.01-0.01c0.56,0.43,0.35,1.28,0.95,1.69l0.02,0.05c0.3,0.38,0.65,0.73,0.72,1.24
				c-0.12,0.27-0.04,0.46,0.25,0.56c0.24,0.36,0.55,0.68,0.67,1.11c-0.1,0.3-0.01,0.53,0.27,0.67c0.21,0.33,0.41,0.66,0.63,0.99
				l-0.04-0.07c0.66,0.42,0.5,1.27,0.95,1.8l-0.02-0.04c0.61,0.44,0.45,1.28,0.92,1.8l-0.01-0.03c0.58,0.46,0.43,1.29,0.9,1.8
				l-0.01-0.03c0.58,0.46,0.43,1.29,0.9,1.8l-0.01-0.03c0.58,0.47,0.44,1.29,0.89,1.82l-0.02-0.04c0.6,0.47,0.47,1.29,0.88,1.84
				l-0.03-0.06c0.66,0.48,0.53,1.34,0.91,1.95c-0.12,0.29-0.05,0.52,0.23,0.68c0.24,0.38,0.56,0.73,0.63,1.2
				c-0.14,0.26-0.07,0.45,0.2,0.57c0.44,0.51,0.25,1.3,0.81,1.75l0,0.01c0.5,0.52,0.39,1.31,0.82,1.86l-0.02-0.05
				c0.63,0.54,0.54,1.37,0.86,2.04c-0.14,0.27-0.08,0.47,0.19,0.6c0.43,0.53,0.28,1.3,0.78,1.8l-0.01-0.02
				c0.56,0.56,0.5,1.38,0.82,2.04c-0.14,0.27-0.08,0.47,0.18,0.62c0.43,0.54,0.31,1.31,0.76,1.84l-0.02-0.04
				c0.59,0.62,0.62,1.45,0.82,2.21l-0.08,0.26l0.22,0.16c0.52,0.59,0.45,1.4,0.77,2.07c-0.16,0.26-0.1,0.46,0.17,0.6
				c0.46,0.59,0.38,1.38,0.74,2.01c-0.15,0.27-0.09,0.49,0.17,0.66c0.43,0.59,0.36,1.37,0.72,1.98c-0.15,0.28-0.1,0.5,0.16,0.68
				c0.43,0.61,0.38,1.38,0.71,2.03c-0.16,0.26-0.11,0.47,0.15,0.63c0.43,0.66,0.48,1.45,0.7,2.18l-0.1,0.29l0.23,0.19
				c0.76,0.78,0.11,1.99,0.83,2.79c-0.15,0.3-0.1,0.55,0.15,0.77c0.37,0.67,0.43,1.43,0.67,2.14l-0.11,0.3l0.23,0.22
				c0.73,0.85,0.19,2.04,0.79,2.92c-0.18,0.26-0.13,0.47,0.13,0.63c0.68,0.87,0.18,2.04,0.75,2.93c-0.18,0.25-0.14,0.45,0.12,0.61
				c0.67,0.93,0.27,2.11,0.75,3.09c0.07,0.45,0.15,0.91,0.22,1.36c0.56,0.9,0.13,2.03,0.69,2.92c-0.19,0.25-0.16,0.45,0.11,0.62
				c0.84,1.18,0.07,2.68,0.77,3.88c0.07,0.48,0.13,0.97,0.2,1.45c0.71,1.18-0.03,2.62,0.71,3.79c0.06,0.51,0.12,1.02,0.18,1.53
				c0.65,1.27,0.09,2.75,0.7,4.02c-0.3,0.76-0.09,1.48,0.19,2.19c0.86,1.78-0.18,3.8,0.72,5.57c-0.24,0.83-0.11,1.63,0.16,2.42
				c0.9,2.46-0.21,5.11,0.73,7.57c-0.44,1.63-0.11,3.25,0.15,4.86c0.57,4.14,0.62,8.28-0.03,12.41c-0.25,0.2-0.29,0.43-0.12,0.7
				c-0.39,0.6-0.29,1.39-0.75,1.96l-0.25,0.18l0.06,0.31c-0.03,0.56-0.37,0.93-0.77,1.26l-0.02,0.03c-0.9,1.45-2.02,2.67-3.55,3.49
				l-0.03,0.02c-4.4,2.98-8.8,3.01-13.2-0.01l-0.02-0.02c-1.53-0.81-2.67-2.02-3.55-3.5l-0.01-0.01c-0.56-0.42-0.35-1.27-0.94-1.67
				l-0.02-0.07c-0.46-0.6-0.42-1.38-0.76-2.02c0.18-0.26,0.14-0.47-0.12-0.64c-1.13-5.43,0.31-10.98-0.77-16.41
				c0.4-1.06,0.18-2.09-0.15-3.12c-0.99-2.36,0.26-4.96-0.75-7.31c0.21-0.54,0.13-1.06-0.14-1.56c-0.8-1.54,0.01-3.33-0.72-4.88
				c0.24-0.48,0.15-0.92-0.14-1.33c-0.92-1.43,0.13-3.19-0.78-4.61c0.19-0.27,0.16-0.51-0.1-0.71c-0.81-1.18-0.05-2.66-0.75-3.86
				l0.13-0.32l-0.23-0.25c-0.9-1.13-0.03-2.64-0.8-3.8c0.19-0.26,0.15-0.47-0.12-0.65c-0.66-0.94-0.28-2.12-0.74-3.1l0.11-0.25
				l-0.21-0.19c-0.75-0.92-0.33-2.14-0.8-3.14l0.1-0.24l-0.19-0.17c-0.77-0.87-0.26-2.08-0.8-3.02l0.1-0.31l-0.24-0.23
				c-0.74-0.8-0.11-1.99-0.82-2.8c0.15-0.3,0.1-0.55-0.15-0.76c-0.39-0.63-0.38-1.39-0.68-2.05c0.17-0.26,0.12-0.46-0.15-0.61
				c-0.44-0.66-0.49-1.45-0.71-2.18l0.1-0.29l-0.24-0.19c-0.49-0.66-0.54-1.47-0.75-2.23l0.09-0.26l-0.22-0.17
				c-0.51-0.63-0.51-1.44-0.76-2.16l0.09-0.3l-0.24-0.2c-0.5-0.59-0.42-1.39-0.75-2.04c0.15-0.27,0.09-0.48-0.18-0.63
				c-0.43-0.54-0.32-1.3-0.74-1.85l0.02,0.04c-0.62-0.6-0.63-1.44-0.84-2.2l0.08-0.27l-0.23-0.16c-0.51-0.52-0.38-1.31-0.78-1.88
				l0.02,0.05c-0.67-0.57-0.64-1.41-0.87-2.16l0.08-0.29l-0.24-0.17c-0.49-0.51-0.33-1.3-0.8-1.82l0.01,0.02
				c-0.58-0.49-0.48-1.28-0.82-1.87l0.03,0.06c-0.74-0.49-0.63-1.36-0.92-2.05c0.14-0.26,0.07-0.44-0.2-0.55
				c-0.45-0.49-0.23-1.29-0.82-1.71l-0.02-0.06c-0.47-0.49-0.31-1.29-0.84-1.75l-0.01-0.03c-0.51-0.48-0.35-1.29-0.86-1.76
				l-0.01-0.02c-0.53-0.47-0.37-1.28-0.87-1.77l-0.01-0.01c-0.54-0.46-0.37-1.28-0.89-1.74l-0.01-0.03
				c-0.52-0.46-0.34-1.28-0.89-1.72l-0.02-0.05c-0.49-0.46-0.28-1.28-0.89-1.68l-0.03-0.08c-0.23-0.36-0.68-0.59-0.64-1.1l0.05,0.06
				c-0.85-0.29-0.64-1.18-1-1.76l0.03,0.05c-0.73-0.36-0.54-1.23-0.99-1.75l0.01,0.02c-0.61-0.4-0.41-1.26-0.96-1.7l-0.02-0.05
				c-0.29-0.32-0.68-0.59-0.66-1.09l0.04,0.05c-0.86-0.26-0.63-1.18-1.04-1.71l0.02,0.03c-0.67-0.36-0.45-1.24-1-1.67l-0.03-0.05
				c-0.28-0.32-0.7-0.56-0.7-1.07l0.04,0.05c-0.81-0.27-0.57-1.2-1.05-1.67l0,0c-0.36-0.28-0.76-0.54-0.69-1.09l-0.15,0.18
				l0.18-0.15c-0.9-0.19-0.64-1.15-1.09-1.64l0.01,0.02c-0.78-0.77-1.23-1.76-1.79-2.67l0.01,0.01c-0.39-0.26-0.78-0.52-0.72-1.08
				l-0.16,0.2l0.19-0.17c-0.89-0.17-0.62-1.15-1.11-1.59l-0.01-0.01c-0.35-0.27-0.71-0.55-0.76-1.04l0.04,0.04
				c-0.78-0.23-0.52-1.19-1.09-1.57l-0.05-0.08c-0.29-0.3-0.54-0.62-0.76-0.98l0.02,0.03c-0.42-0.23-0.79-0.49-0.77-1.05l-0.15,0.19
				l0.18-0.16c-0.85-0.16-0.57-1.15-1.13-1.53l-0.04-0.06c-0.28-0.31-0.62-0.56-0.78-0.97l0.02,0.03c-0.42-0.22-0.78-0.5-0.79-1.03
				l-0.14,0.17l0.17-0.15c-1.05-0.52-1.29-1.68-1.96-2.5l-0.01-0.02c-0.35-0.26-0.69-0.53-0.82-0.98l0.03,0.03
				c-0.46-0.19-0.8-0.46-0.82-1.01l-0.16,0.19l0.18-0.17c-1.06-0.48-1.24-1.69-1.99-2.43l-0.05-0.06c-0.29-0.28-0.56-0.59-0.81-0.91
				l0,0c-0.37-0.24-0.7-0.52-0.85-0.96l0.03,0.03c-0.44-0.19-0.77-0.47-0.85-0.98l0.03,0.03c-0.52-0.12-0.85-0.39-0.85-0.97
				l-0.21,0.24l0.22-0.22c-1.28-0.81-1.93-2.17-2.9-3.26l-0.08-0.09c-0.25-0.29-0.51-0.57-0.78-0.84l-0.06-0.06
				c-0.29-0.27-0.56-0.56-0.82-0.86l-0.03-0.04c-0.31-0.26-0.59-0.56-0.85-0.88l-0.02-0.02c-0.33-0.25-0.62-0.55-0.87-0.89l0,0
				c-0.36-0.23-0.67-0.52-0.87-0.91l0.01,0.01c-0.39-0.21-0.69-0.51-0.89-0.9l0.01,0.01c-0.39-0.21-0.69-0.5-0.9-0.9l0.01,0.01
				c-0.39-0.21-0.69-0.5-0.9-0.9l0.01,0.01c-0.39-0.21-0.69-0.5-0.9-0.89l0.01,0.01c-0.39-0.2-0.67-0.51-0.91-0.87l0,0
				c-0.34-0.25-0.63-0.53-0.89-0.86l-0.02-0.02c-0.32-0.25-0.61-0.53-0.87-0.84l-0.05-0.04c-1.94-1.28-3.51-2.96-5.1-4.63
				c-0.57,0.01-0.84-0.32-0.96-0.83l-0.16,0.17l0.17-0.15c-0.49-0.08-0.77-0.41-0.96-0.84l0.01,0.01c-0.43-0.15-0.7-0.47-0.94-0.83
				l-0.01-0.01c-0.32-0.24-0.61-0.51-0.89-0.79l-0.09-0.07c-0.73-0.74-1.92-0.92-2.41-1.96c-0.53-0.02-0.8-0.36-0.99-0.79l0.01,0.01
				c-0.43-0.13-0.69-0.46-0.95-0.8l-0.05-0.04c-0.81-0.66-1.94-0.91-2.48-1.92c-0.51-0.03-0.78-0.37-1-0.77l-0.01-0.01
				c-0.88-0.57-1.99-0.85-2.51-1.9l-0.16,0.23l0.15-0.24c-0.53,0.01-0.79-0.34-1.02-0.74l-0.01-0.01c-0.9-0.56-1.95-0.91-2.57-1.85
				c-0.48-0.04-0.72-0.41-0.99-0.74l-0.06-0.04c-0.42-0.5-1.37-0.22-1.55-1.07l-0.16,0.24l0.14-0.25c-0.52,0.03-0.78-0.33-1.03-0.7
				l-0.02-0.01c-1.25-0.79-2.5-1.78-3.79-0.07l0.04-0.04c-0.02,0.49-0.43,0.72-0.67,1.08l-0.04,0.09c-0.61,0.39-0.39,1.24-0.93,1.66
				l-0.01,0.02c-0.51,0.47-0.31,1.34-0.98,1.72l0.02-0.04c-0.4,0.54-0.19,1.44-1.01,1.74l0.05-0.06c0.01,0.5-0.42,0.74-0.67,1.08
				l-0.03,0.07c-0.59,0.4-0.37,1.25-0.94,1.67l0,0.01c-0.49,0.48-0.29,1.36-0.98,1.72l0.02-0.04c-0.39,0.55-0.17,1.45-1.01,1.74
				l0.05-0.05c0.03,0.51-0.4,0.75-0.66,1.09l-0.03,0.06c-0.57,0.42-0.36,1.27-0.94,1.68l0,0c-0.48,0.49-0.28,1.37-0.99,1.73
				l0.03-0.04c-0.37,0.56-0.15,1.46-1.02,1.73l0.04-0.05c0.02,0.51-0.37,0.77-0.66,1.1l-0.03,0.05c-0.56,0.43-0.35,1.28-0.95,1.69
				l0.01-0.01c-0.46,0.5-0.26,1.38-1,1.73l0.05-0.07c-1.33,1.27-1.87,0.17-2.45-0.82l0.02,0.03c-0.67-0.38-0.47-1.25-0.98-1.71
				l-0.01-0.02c-0.54-0.41-0.31-1.27-0.93-1.64l-0.05-0.11c-0.21-0.36-0.62-0.6-0.67-1.06l0.04,0.06c-0.76-0.33-0.56-1.22-1.01-1.73
				l0.01,0.02c-0.61-0.4-0.41-1.26-0.96-1.69l-0.03-0.05c-0.29-0.32-0.68-0.59-0.66-1.1l0.04,0.05c-0.87-0.26-0.64-1.17-1.02-1.73
				l0.03,0.04c-0.7-0.36-0.5-1.24-0.99-1.72l0-0.01c-0.56-0.41-0.34-1.27-0.94-1.66l-0.04-0.08c-0.24-0.35-0.65-0.59-0.67-1.08
				l0.05,0.06c-0.8-0.31-0.59-1.21-1.01-1.73l0.02,0.03c-0.64-0.39-0.44-1.25-0.97-1.71l-0.02-0.03c-0.31-0.31-0.71-0.57-0.65-1.11
				l0.04,0.04c-0.91-0.23-0.67-1.15-1.03-1.72l0.03,0.04c-0.73-0.34-0.53-1.23-1-1.73l0.01,0.01c-0.59-0.4-0.38-1.26-0.95-1.68
				l-0.03-0.06c-0.26-0.34-0.69-0.57-0.67-1.09l0.05,0.05c-0.84-0.28-0.62-1.19-1.02-1.73l0.02,0.04c-0.68-0.37-0.47-1.25-0.98-1.71
				l-0.01-0.02c-0.54-0.42-0.32-1.27-0.93-1.64l-0.05-0.1c-0.22-0.36-0.63-0.6-0.67-1.07l0.04,0.06c-0.77-0.32-0.57-1.22-1.01-1.73
				l0.01,0.02c-0.62-0.39-0.42-1.26-0.96-1.7l-0.02-0.05c-0.3-0.32-0.69-0.58-0.66-1.1l0.04,0.05c-0.88-0.26-0.65-1.17-1.02-1.73
				l0.03,0.04c-0.71-0.35-0.51-1.24-1-1.72l0,0c-0.57-0.41-0.35-1.27-0.94-1.67l-0.04-0.08c-0.25-0.34-0.67-0.58-0.67-1.08
				l0.05,0.06c-0.8-0.3-0.6-1.2-1.01-1.73l0.02,0.03c-0.65-0.38-0.45-1.25-0.98-1.71l-0.02-0.03c-0.32-0.31-0.72-0.57-0.64-1.11
				l0.04,0.04c-0.93-0.22-0.68-1.15-1.03-1.71l0.03,0.04c-0.74-0.34-0.54-1.23-1-1.73l0.01,0.02c-0.6-0.4-0.39-1.26-0.95-1.69
				l-0.03-0.06c-0.27-0.33-0.7-0.57-0.67-1.09l0.05,0.06c-0.85-0.28-0.63-1.18-1.02-1.73l0.02,0.04c-0.69-0.37-0.49-1.24-0.98-1.72
				l-0.01-0.01c-0.55-0.41-0.33-1.27-0.94-1.65l-0.04-0.09c-0.23-0.35-0.64-0.59-0.67-1.07l0.05,0.06
				c-0.78-0.31-0.58-1.21-1.01-1.73l0.01,0.03c-0.63-0.39-0.43-1.26-0.96-1.7l-0.02-0.04c-0.3-0.32-0.7-0.58-0.66-1.1l0.04,0.05
				c-0.89-0.25-0.66-1.16-1.03-1.72l0.03,0.04c-0.72-0.35-0.52-1.23-0.99-1.72l0,0c-0.58-0.41-0.37-1.26-0.95-1.67l-0.03-0.07
				c-0.25-0.34-0.68-0.58-0.67-1.08l0.05,0.07c-0.99-0.92-0.5-1.65,0.46-1.95c0.97-0.31,2.06-0.12,3.09-0.12
				c25.59,0,51.18-0.03,76.77,0.09c1.17,0.01,4.16-1.73,3.58,2l0.05-0.07c-0.03,0.48-0.44,0.71-0.66,1.07l-0.04,0.1
				c-0.62,0.37-0.39,1.23-0.93,1.64l-0.01,0.02c-0.51,0.47-0.31,1.33-0.97,1.72l0.02-0.03c-0.41,0.53-0.21,1.43-1,1.74l0.04-0.06
				c-0.01,0.49-0.43,0.72-0.66,1.08l-0.04,0.09c-0.61,0.39-0.38,1.24-0.93,1.66l-0.01,0.01c-0.5,0.47-0.31,1.34-0.98,1.72l0.02-0.04
				c-0.4,0.54-0.19,1.44-1.01,1.74l0.05-0.06c0.01,0.5-0.42,0.74-0.67,1.08l-0.03,0.08c-0.59,0.4-0.37,1.25-0.94,1.67l0,0.01
				c-0.49,0.48-0.29,1.36-0.98,1.72l0.03-0.04c-0.39,0.55-0.17,1.45-1.01,1.74l0.05-0.05c0.03,0.52-0.4,0.75-0.66,1.09l-0.03,0.06
				c-0.57,0.42-0.36,1.27-0.95,1.68l0,0c-0.47,0.49-0.28,1.37-0.99,1.73l0.04-0.04c-0.32,0.88-0.71,1.77,0.11,2.6
				c0.1,0.29,0.3,0.39,0.59,0.31c0.5,0.1,0.84,0.42,1.15,0.8l0.01,0c0.26,0.26,0.56,0.48,0.89,0.66c0.11,0.29,0.31,0.4,0.61,0.32
				c0.5,0.1,0.86,0.42,1.15,0.82l-0.01-0.01c0.29,0.25,0.59,0.48,0.92,0.69c0.07,0.29,0.24,0.39,0.53,0.29
				c0.57,0.06,0.94,0.38,1.21,0.86l-0.05-0.04c0.39,0.17,0.65,0.52,1,0.76l0.07,0.04c0.36,0.61,1.32,0.35,1.58,1.1l-0.06-0.05
				c0.47,0.1,0.75,0.45,1.04,0.79l-0.01-0.01c0.3,0.27,0.62,0.52,0.95,0.74l0.12,0.07c0.31,0.65,1.28,0.38,1.53,1.11l-0.06-0.05
				c0.46,0.12,0.75,0.46,1.02,0.81l-0.01-0.01c0.31,0.27,0.62,0.52,0.95,0.76l0.1,0.07c0.15,0.32,0.4,0.52,0.74,0.63
				c0.09,0.32,0.3,0.46,0.63,0.4c0.52,0.11,0.88,0.42,1.12,0.89l-0.05-0.04c0.41,0.17,0.68,0.51,0.98,0.82l0.01,0.01
				c0.28,0.29,0.58,0.54,0.91,0.76l0.12,0.08C685.1,237.58,685.35,237.78,685.68,237.88z"/>
		</g>
	</g>
	<text transform="matrix(1 0 0 1 151.4836 829.561)" class="st4 st5">femfy</text>
</g>
</svg>
