<svg id="Capa_1" data-name="Capa 1" xmlns="http://www.w3.org/2000/svg" viewBox="0 0 922.07 280.24"><defs><style>.cls-1{fill:#fff;}.cls-2{fill:#fdfdfd;}.cls-3{fill:#a35edf;}.cls-4{fill:#d7b3f7;}.cls-5{font-size:234.47px;font-family:Raleway-SemiBoldItalic, Raleway;font-weight:600;font-style:italic;}.cls-6{letter-spacing:-0.01em;}.cls-7{letter-spacing:0em;}.cls-8{letter-spacing:-0.02em;}</style></defs><title>isologotipoDos</title><path class="cls-1" d="M117.29,516.45c0-2.42,0-4.85,0-7.28.15.29.42.58.43.87q.06,2.77,0,5.55C117.73,515.88,117.45,516.17,117.29,516.45Z" transform="translate(-76 -381)"/><path class="cls-2" d="M345.65,516.92a25.7,25.7,0,0,1,0,8.35Q345.66,521.09,345.65,516.92Z" transform="translate(-76 -381)"/><path class="cls-2" d="M321,618.09a16.42,16.42,0,0,1,3.25-3.51c0,.25,0,.57-.14.73C323.21,616.39,322.46,617.64,321,618.09Z" transform="translate(-76 -381)"/><path class="cls-2" d="M314.41,624.46a12.31,12.31,0,0,1,2.94-2.73A4,4,0,0,1,314.41,624.46Z" transform="translate(-76 -381)"/><path class="cls-2" d="M345.15,508.67a12,12,0,0,1,.42,4.88,1.61,1.61,0,0,1-.48-1.36Z" transform="translate(-76 -381)"/><path class="cls-2" d="M344.62,504.05a6,6,0,0,1,.43,3.25,1.31,1.31,0,0,1-.47-1.07C344.58,505.5,344.6,504.77,344.62,504.05Z" transform="translate(-76 -381)"/><path class="cls-2" d="M125.48,623.81a4.5,4.5,0,0,1,1.9,1.69A1.91,1.91,0,0,1,125.48,623.81Z" transform="translate(-76 -381)"/><path class="cls-2" d="M302.35,634.31a2.41,2.41,0,0,1,1.49-1.1A1.22,1.22,0,0,1,302.35,634.31Z" transform="translate(-76 -381)"/><path class="cls-2" d="M136.85,633.26a2.49,2.49,0,0,1,1.5,1.08A1.34,1.34,0,0,1,136.85,633.26Z" transform="translate(-76 -381)"/><path class="cls-2" d="M304.44,632.76a2.37,2.37,0,0,1,1.47-1.12C305.81,632.52,305.24,632.79,304.44,632.76Z" transform="translate(-76 -381)"/><path class="cls-2" d="M134.78,631.68a2.58,2.58,0,0,1,1.47,1.1A1.32,1.32,0,0,1,134.78,631.68Z" transform="translate(-76 -381)"/><path class="cls-2" d="M132.75,630.08a2.48,2.48,0,0,1,1.45,1.13C133.41,631.22,132.85,630.94,132.75,630.08Z" transform="translate(-76 -381)"/><path class="cls-2" d="M307.08,630.69a2.5,2.5,0,0,1,1.44-1.13C308.41,630.41,307.86,630.7,307.08,630.69Z" transform="translate(-76 -381)"/><path class="cls-2" d="M326.21,612.37a2.6,2.6,0,0,1,1.17-1.4C327.34,611.74,327.06,612.29,326.21,612.37Z" transform="translate(-76 -381)"/><path class="cls-2" d="M129.61,627.48a2.49,2.49,0,0,1,1.4,1.15C130.25,628.6,129.71,628.31,129.61,627.48Z" transform="translate(-76 -381)"/><path class="cls-2" d="M310.24,628.11a2.48,2.48,0,0,1,1.39-1.16C311.56,627.8,311,628.08,310.24,628.11Z" transform="translate(-76 -381)"/><path class="cls-2" d="M343.52,544.8a3,3,0,0,1-.46,2.23C343.06,546.26,342.75,545.42,343.52,544.8Z" transform="translate(-76 -381)"/><path class="cls-2" d="M343,547.41a2.84,2.84,0,0,1-.48,2.13C342.54,548.8,342.24,548,343,547.41Z" transform="translate(-76 -381)"/><path class="cls-2" d="M328.82,609.26a2.55,2.55,0,0,1,1.15-1.45C330,608.6,329.67,609.15,328.82,609.26Z" transform="translate(-76 -381)"/><path class="cls-2" d="M342.52,492.63a2.87,2.87,0,0,1,.49,2.18C342.24,494.22,342.54,493.39,342.52,492.63Z" transform="translate(-76 -381)"/><path class="cls-2" d="M295.55,639a2.34,2.34,0,0,1,1.56-1A1.23,1.23,0,0,1,295.55,639Z" transform="translate(-76 -381)"/><path class="cls-2" d="M297.12,637.93a2.37,2.37,0,0,1,1.55-1A1.25,1.25,0,0,1,297.12,637.93Z" transform="translate(-76 -381)"/><path class="cls-2" d="M343.59,497.74A3.08,3.08,0,0,1,344,500C343.27,499.37,343.59,498.52,343.59,497.74Z" transform="translate(-76 -381)"/><path class="cls-2" d="M298.68,636.89a2.35,2.35,0,0,1,1.53-1.06A1.22,1.22,0,0,1,298.68,636.89Z" transform="translate(-76 -381)"/><path class="cls-2" d="M344.11,500.78a3.18,3.18,0,0,1,.41,2.35C343.78,502.45,344.12,501.59,344.11,500.78Z" transform="translate(-76 -381)"/><path class="cls-2" d="M340.45,484.8a1.9,1.9,0,0,1,.49,1.67C340.28,486.06,340.42,485.41,340.45,484.8Z" transform="translate(-76 -381)"/><path class="cls-2" d="M340.94,486.46a1.79,1.79,0,0,1,.46,1.57C340.83,487.63,340.93,487,340.94,486.46Z" transform="translate(-76 -381)"/><path class="cls-2" d="M341.49,488.46a1.89,1.89,0,0,1,.45,1.66C341.33,489.69,341.46,489.06,341.49,488.46Z" transform="translate(-76 -381)"/><path class="cls-2" d="M337.28,475.55a1.77,1.77,0,0,1,.57,1.53C337.18,476.75,337.29,476.13,337.28,475.55Z" transform="translate(-76 -381)"/><path class="cls-2" d="M341.91,552.1a1.78,1.78,0,0,1-.45,1.6C341.45,553.12,341.34,552.51,341.91,552.1Z" transform="translate(-76 -381)"/><path class="cls-2" d="M342.43,550a1.83,1.83,0,0,1-.44,1.63C342,551.05,341.86,550.44,342.43,550Z" transform="translate(-76 -381)"/><path class="cls-2" d="M336.24,473a1.79,1.79,0,0,1,.6,1.51C336.13,474.16,336.25,473.53,336.24,473Z" transform="translate(-76 -381)"/><path class="cls-2" d="M342,490.51a1.92,1.92,0,0,1,.43,1.69C341.85,491.76,342,491.12,342,490.51Z" transform="translate(-76 -381)"/><path class="cls-2" d="M340.91,555.74a1.87,1.87,0,0,1-.48,1.61C340.41,556.76,340.3,556.14,340.91,555.74Z" transform="translate(-76 -381)"/><path class="cls-2" d="M343.07,495.12a2,2,0,0,1,.4,1.76C342.87,496.4,343,495.75,343.07,495.12Z" transform="translate(-76 -381)"/><path class="cls-2" d="M334.11,574a1,1,0,0,1-.48,1A1,1,0,0,1,334.11,574Z" transform="translate(-76 -381)"/><path class="cls-2" d="M333.62,575a1.07,1.07,0,0,1-.51,1A1.07,1.07,0,0,1,333.62,575Z" transform="translate(-76 -381)"/><path class="cls-2" d="M333.11,576.05a1.07,1.07,0,0,1-.51,1A1,1,0,0,1,333.11,576.05Z" transform="translate(-76 -381)"/><path class="cls-2" d="M332.59,577.09a1.06,1.06,0,0,1-.52,1A1,1,0,0,1,332.59,577.09Z" transform="translate(-76 -381)"/><path class="cls-2" d="M332.07,578.13a1.07,1.07,0,0,1-.53,1A1,1,0,0,1,332.07,578.13Z" transform="translate(-76 -381)"/><path class="cls-2" d="M347.09,580.17a1.27,1.27,0,0,1,.54-1.17C347.68,579.5,347.64,580,347.09,580.17Z" transform="translate(-76 -381)"/><path class="cls-2" d="M346.59,581.22a1.09,1.09,0,0,1,.52-1.08C347.16,580.61,347.1,581,346.59,581.22Z" transform="translate(-76 -381)"/><path class="cls-2" d="M346.08,582.27a1.09,1.09,0,0,1,.52-1.07A.93.93,0,0,1,346.08,582.27Z" transform="translate(-76 -381)"/><path class="cls-2" d="M330.09,581.83a1.12,1.12,0,0,1-.58,1C329.49,582.4,329.56,582,330.09,581.83Z" transform="translate(-76 -381)"/><path class="cls-2" d="M345.57,583.31a1.06,1.06,0,0,1,.52-1.06A.94.94,0,0,1,345.57,583.31Z" transform="translate(-76 -381)"/><path class="cls-2" d="M329.52,582.84a1.06,1.06,0,0,1-.57,1A1,1,0,0,1,329.52,582.84Z" transform="translate(-76 -381)"/><path class="cls-2" d="M345.05,584.35a1.1,1.1,0,0,1,.53-1.05A1,1,0,0,1,345.05,584.35Z" transform="translate(-76 -381)"/><path class="cls-2" d="M344.52,585.39a1.05,1.05,0,0,1,.54-1A1,1,0,0,1,344.52,585.39Z" transform="translate(-76 -381)"/><path class="cls-2" d="M328,585.46a1.13,1.13,0,0,1-.6,1C327.4,586,327.5,585.63,328,585.46Z" transform="translate(-76 -381)"/><path class="cls-2" d="M344,586.42a1.05,1.05,0,0,1,.55-1A.91.91,0,0,1,344,586.42Z" transform="translate(-76 -381)"/><path class="cls-2" d="M343.43,587.44a1.06,1.06,0,0,1,.56-1C344,586.87,344,587.28,343.43,587.44Z" transform="translate(-76 -381)"/><path class="cls-2" d="M342.87,588.45a1.14,1.14,0,0,1,.57-1C343.5,587.9,343.45,588.32,342.87,588.45Z" transform="translate(-76 -381)"/><path class="cls-2" d="M326.4,588.05a1.11,1.11,0,0,1-.6,1A1,1,0,0,1,326.4,588.05Z" transform="translate(-76 -381)"/><path class="cls-2" d="M342,590.09a1,1,0,0,1,.55-1A1,1,0,0,1,342,590.09Z" transform="translate(-76 -381)"/><path class="cls-2" d="M325.39,589.63a1.12,1.12,0,0,1-.62,1A.9.9,0,0,1,325.39,589.63Z" transform="translate(-76 -381)"/><path class="cls-2" d="M341.37,591.1a1.07,1.07,0,0,1,.58-1A.9.9,0,0,1,341.37,591.1Z" transform="translate(-76 -381)"/><path class="cls-2" d="M324.35,591.19a1.12,1.12,0,0,1-.63.94A.9.9,0,0,1,324.35,591.19Z" transform="translate(-76 -381)"/><path class="cls-2" d="M340.79,592.09a1.09,1.09,0,0,1,.6-1C341.42,591.56,341.36,592,340.79,592.09Z" transform="translate(-76 -381)"/><path class="cls-2" d="M339.82,593.71a1.07,1.07,0,0,1,.58-1A.89.89,0,0,1,339.82,593.71Z" transform="translate(-76 -381)"/><path class="cls-2" d="M339.22,594.69a1.09,1.09,0,0,1,.61-1C339.86,594.17,339.79,594.59,339.22,594.69Z" transform="translate(-76 -381)"/><path class="cls-2" d="M321.77,594.86a1.08,1.08,0,0,1-.65.91C321.15,595.34,321.28,595,321.77,594.86Z" transform="translate(-76 -381)"/><path class="cls-2" d="M338.21,596.28a1.09,1.09,0,0,1,.61-1C338.82,595.76,338.72,596.15,338.21,596.28Z" transform="translate(-76 -381)"/><path class="cls-2" d="M320.21,597a1.1,1.1,0,0,1-.66.89C319.59,597.41,319.72,597.05,320.21,597Z" transform="translate(-76 -381)"/><path class="cls-2" d="M337.19,597.86a1.09,1.09,0,0,1,.61-1C337.79,597.34,337.68,597.72,337.19,597.86Z" transform="translate(-76 -381)"/><path class="cls-2" d="M336.15,599.42a1,1,0,0,1,.61-.94C336.75,598.91,336.63,599.29,336.15,599.42Z" transform="translate(-76 -381)"/><path class="cls-2" d="M318.16,599.58a1.1,1.1,0,0,1-.69.88C317.51,600,317.64,599.65,318.16,599.58Z" transform="translate(-76 -381)"/><path class="cls-2" d="M335.09,601a1.06,1.06,0,0,1,.62-.93C335.7,600.47,335.59,600.85,335.09,601Z" transform="translate(-76 -381)"/><path class="cls-2" d="M334,602.48a1.08,1.08,0,0,1,.65-.92C334.65,602,334.55,602.41,334,602.48Z" transform="translate(-76 -381)"/><path class="cls-2" d="M315.55,602.71a1.08,1.08,0,0,1-.69.84C314.91,603.12,315.05,602.76,315.55,602.71Z" transform="translate(-76 -381)"/><path class="cls-2" d="M332.47,604.59a1,1,0,0,1,.64-.9C333.09,604.13,333,604.5,332.47,604.59Z" transform="translate(-76 -381)"/><path class="cls-2" d="M330.89,606.66a1,1,0,0,1,.66-.89C331.53,606.21,331.41,606.59,330.89,606.66Z" transform="translate(-76 -381)"/><path class="cls-2" d="M134.59,612.65a1.09,1.09,0,0,1-.8-.71C134.21,612,134.56,612.15,134.59,612.65Z" transform="translate(-76 -381)"/><path class="cls-2" d="M297.11,620.29a1.1,1.1,0,0,1-.89.66C296.31,620.46,296.68,620.33,297.11,620.29Z" transform="translate(-76 -381)"/><path class="cls-2" d="M300.83,635.38a1,1,0,0,1,.9-.63C301.67,635.3,301.28,635.38,300.83,635.38Z" transform="translate(-76 -381)"/><path class="cls-2" d="M139.44,646.89a1.09,1.09,0,0,1-.57,1A1,1,0,0,1,139.44,646.89Z" transform="translate(-76 -381)"/><path class="cls-2" d="M137.93,649.52a1.13,1.13,0,0,1-.59,1C137.33,650.09,137.4,649.68,137.93,649.52Z" transform="translate(-76 -381)"/><path class="cls-2" d="M137.35,650.53a1.1,1.1,0,0,1-.57,1A1,1,0,0,1,137.35,650.53Z" transform="translate(-76 -381)"/><path class="cls-2" d="M322.71,448.47a1.07,1.07,0,0,1,.65.93C322.83,449.31,322.72,448.92,322.71,448.47Z" transform="translate(-76 -381)"/><path class="cls-2" d="M323.77,450a1.06,1.06,0,0,1,.65.94C323.84,450.87,323.77,450.46,323.77,450Z" transform="translate(-76 -381)"/><path class="cls-2" d="M324.82,451.55a1.08,1.08,0,0,1,.64,1C324.88,452.43,324.81,452,324.82,451.55Z" transform="translate(-76 -381)"/><path class="cls-2" d="M325.85,453.12a1.06,1.06,0,0,1,.62,1C325.94,454,325.85,453.58,325.85,453.12Z" transform="translate(-76 -381)"/><path class="cls-2" d="M326.87,454.72a1.08,1.08,0,0,1,.59,1C327,455.55,326.88,455.16,326.87,454.72Z" transform="translate(-76 -381)"/><path class="cls-2" d="M327.45,455.68a1.14,1.14,0,0,1,.62,1C327.47,456.58,327.42,456.16,327.45,455.68Z" transform="translate(-76 -381)"/><path class="cls-2" d="M328.44,457.31a1.08,1.08,0,0,1,.58,1A.91.91,0,0,1,328.44,457.31Z" transform="translate(-76 -381)"/><path class="cls-2" d="M329,458.29a1.11,1.11,0,0,1,.58,1C329,459.18,329,458.77,329,458.29Z" transform="translate(-76 -381)"/><path class="cls-2" d="M330,460a1.05,1.05,0,0,1,.53,1A1,1,0,0,1,330,460Z" transform="translate(-76 -381)"/><path class="cls-2" d="M330.52,461a1,1,0,0,1,.53,1A1,1,0,0,1,330.52,461Z" transform="translate(-76 -381)"/><path class="cls-2" d="M331.05,462a1.07,1.07,0,0,1,.55,1A1,1,0,0,1,331.05,462Z" transform="translate(-76 -381)"/><path class="cls-2" d="M331.59,463a1.05,1.05,0,0,1,.54,1.05A.92.92,0,0,1,331.59,463Z" transform="translate(-76 -381)"/><path class="cls-2" d="M332.12,464a1.08,1.08,0,0,1,.54,1.06A.92.92,0,0,1,332.12,464Z" transform="translate(-76 -381)"/><path class="cls-2" d="M332.64,465.07a1.06,1.06,0,0,1,.53,1.07A.94.94,0,0,1,332.64,465.07Z" transform="translate(-76 -381)"/><path class="cls-2" d="M333.16,466.12a1,1,0,0,1,.51,1.06A.94.94,0,0,1,333.16,466.12Z" transform="translate(-76 -381)"/><path class="cls-2" d="M333.67,467.17a1,1,0,0,1,.5,1.06A1,1,0,0,1,333.67,467.17Z" transform="translate(-76 -381)"/><path class="cls-2" d="M334.17,468.24a1,1,0,0,1,.49,1.05A1,1,0,0,1,334.17,468.24Z" transform="translate(-76 -381)"/><path class="cls-2" d="M334.67,469.32a1,1,0,0,1,.47,1A1.06,1.06,0,0,1,334.67,469.32Z" transform="translate(-76 -381)"/><path class="cls-2" d="M335.26,470.68a1.22,1.22,0,0,1,.51,1.19C335.25,471.62,335.21,471.17,335.26,470.68Z" transform="translate(-76 -381)"/><path class="cls-2" d="M335.76,471.84a1,1,0,0,1,.47,1.09A1,1,0,0,1,335.76,471.84Z" transform="translate(-76 -381)"/><path class="cls-2" d="M336.83,474.42a1.06,1.06,0,0,1,.45,1.11A1,1,0,0,1,336.83,474.42Z" transform="translate(-76 -381)"/><path class="cls-2" d="M337.84,477.05a1,1,0,0,1,.43,1.09A1.05,1.05,0,0,1,337.84,477.05Z" transform="translate(-76 -381)"/><path class="cls-2" d="M338.38,478.52a1.14,1.14,0,0,1,.44,1.18A1.07,1.07,0,0,1,338.38,478.52Z" transform="translate(-76 -381)"/><path class="cls-2" d="M338.91,480a1.25,1.25,0,0,1,.44,1.24A1.14,1.14,0,0,1,338.91,480Z" transform="translate(-76 -381)"/><path class="cls-2" d="M339.44,481.58a1.25,1.25,0,0,1,.42,1.25A1.13,1.13,0,0,1,339.44,481.58Z" transform="translate(-76 -381)"/><path class="cls-2" d="M340,483.17a1.2,1.2,0,0,1,.41,1.22A1.13,1.13,0,0,1,340,483.17Z" transform="translate(-76 -381)"/><path class="cls-2" d="M341.38,554.18a1.22,1.22,0,0,1-.39,1.23A1.17,1.17,0,0,1,341.38,554.18Z" transform="translate(-76 -381)"/><path class="cls-2" d="M340.33,557.83a1.1,1.1,0,0,1-.41,1.13A1.12,1.12,0,0,1,340.33,557.83Z" transform="translate(-76 -381)"/><path class="cls-2" d="M339.83,559.39a1.13,1.13,0,0,1-.42,1.16A1.1,1.1,0,0,1,339.83,559.39Z" transform="translate(-76 -381)"/><path class="cls-2" d="M339.31,561a1.1,1.1,0,0,1-.43,1.15A1.09,1.09,0,0,1,339.31,561Z" transform="translate(-76 -381)"/><path class="cls-2" d="M338.78,562.51a1.09,1.09,0,0,1-.43,1.11A1.11,1.11,0,0,1,338.78,562.51Z" transform="translate(-76 -381)"/><path class="cls-2" d="M338.24,564.08a1,1,0,0,1-.43,1A1.05,1.05,0,0,1,338.24,564.08Z" transform="translate(-76 -381)"/><path class="cls-2" d="M337.81,565.11a1.18,1.18,0,0,1-.47,1.2A1.08,1.08,0,0,1,337.81,565.11Z" transform="translate(-76 -381)"/><path class="cls-2" d="M337.23,566.68a1,1,0,0,1-.45,1.06A1.05,1.05,0,0,1,337.23,566.68Z" transform="translate(-76 -381)"/><path class="cls-2" d="M336.79,567.73a1.18,1.18,0,0,1-.49,1.19A1,1,0,0,1,336.79,567.73Z" transform="translate(-76 -381)"/><path class="cls-2" d="M336.18,569.28a1,1,0,0,1-.46,1A1.07,1.07,0,0,1,336.18,569.28Z" transform="translate(-76 -381)"/><path class="cls-2" d="M335.72,570.32a1.07,1.07,0,0,1-.48,1.1A1,1,0,0,1,335.72,570.32Z" transform="translate(-76 -381)"/><path class="cls-2" d="M335.26,571.38a1.21,1.21,0,0,1-.53,1.17C334.69,572.06,334.74,571.62,335.26,571.38Z" transform="translate(-76 -381)"/><path class="cls-2" d="M128.9,607a.83.83,0,0,1-.59-.65A.69.69,0,0,1,128.9,607Z" transform="translate(-76 -381)"/><path class="cls-2" d="M312.36,606.29a.63.63,0,0,1-.53.57A.67.67,0,0,1,312.36,606.29Z" transform="translate(-76 -381)"/><path class="cls-2" d="M311.86,606.83a.64.64,0,0,1-.54.57A.65.65,0,0,1,311.86,606.83Z" transform="translate(-76 -381)"/><path class="cls-2" d="M330.44,607.24a.58.58,0,0,1,.47-.6A.6.6,0,0,1,330.44,607.24Z" transform="translate(-76 -381)"/><path class="cls-2" d="M129.53,607.68a.33.33,0,0,1-.36-.37Z" transform="translate(-76 -381)"/><path class="cls-2" d="M311.35,607.37a.63.63,0,0,1-.54.56A.62.62,0,0,1,311.35,607.37Z" transform="translate(-76 -381)"/><path class="cls-2" d="M330,607.79a.55.55,0,0,1,.46-.57A.68.68,0,0,1,330,607.79Z" transform="translate(-76 -381)"/><path class="cls-2" d="M130.05,608.22a.44.44,0,0,1-.43-.44Z" transform="translate(-76 -381)"/><path class="cls-2" d="M310.84,607.9a.64.64,0,0,1-.54.56A.59.59,0,0,1,310.84,607.9Z" transform="translate(-76 -381)"/><path class="cls-2" d="M130.56,608.75a.44.44,0,0,1-.43-.44Z" transform="translate(-76 -381)"/><path class="cls-2" d="M310.33,608.43a.64.64,0,0,1-.55.55A.59.59,0,0,1,310.33,608.43Z" transform="translate(-76 -381)"/><path class="cls-2" d="M131.08,609.27a.43.43,0,0,1-.43-.44Z" transform="translate(-76 -381)"/><path class="cls-2" d="M309.81,609a.64.64,0,0,1-.55.55A.59.59,0,0,1,309.81,609Z" transform="translate(-76 -381)"/><path class="cls-2" d="M131.6,609.79a.43.43,0,0,1-.43-.44Z" transform="translate(-76 -381)"/><path class="cls-2" d="M309.29,609.47a.65.65,0,0,1-.55.55A.59.59,0,0,1,309.29,609.47Z" transform="translate(-76 -381)"/><path class="cls-2" d="M328.35,609.84a.59.59,0,0,1,.48-.59A.61.61,0,0,1,328.35,609.84Z" transform="translate(-76 -381)"/><path class="cls-2" d="M132.13,610.31a.43.43,0,0,1-.44-.44Z" transform="translate(-76 -381)"/><path class="cls-2" d="M308.77,610a.65.65,0,0,1-.56.55A.6.6,0,0,1,308.77,610Z" transform="translate(-76 -381)"/><path class="cls-2" d="M327.88,610.38a.55.55,0,0,1,.48-.56A.66.66,0,0,1,327.88,610.38Z" transform="translate(-76 -381)"/><path class="cls-2" d="M132.65,610.83a.43.43,0,0,1-.44-.44Z" transform="translate(-76 -381)"/><path class="cls-2" d="M308.25,610.51a.64.64,0,0,1-.56.55A.6.6,0,0,1,308.25,610.51Z" transform="translate(-76 -381)"/><path class="cls-2" d="M327.42,610.92a.5.5,0,0,1,.46-.53Z" transform="translate(-76 -381)"/><path class="cls-2" d="M133.17,611.34a.44.44,0,0,1-.44-.43Z" transform="translate(-76 -381)"/><path class="cls-2" d="M307.72,611a.65.65,0,0,1-.56.55A.62.62,0,0,1,307.72,611Z" transform="translate(-76 -381)"/><path class="cls-2" d="M133.69,611.85a.42.42,0,0,1-.43-.42Z" transform="translate(-76 -381)"/><path class="cls-2" d="M307.2,611.54a.66.66,0,0,1-.57.55A.63.63,0,0,1,307.2,611.54Z" transform="translate(-76 -381)"/><path class="cls-2" d="M324.75,590.62a.55.55,0,0,1-.43.61Z" transform="translate(-76 -381)"/><path class="cls-2" d="M306.67,612.06a.64.64,0,0,1-.57.53A.65.65,0,0,1,306.67,612.06Z" transform="translate(-76 -381)"/><path class="cls-2" d="M135.13,613.15a.64.64,0,0,1-.57-.53A.57.57,0,0,1,135.13,613.15Z" transform="translate(-76 -381)"/><path class="cls-2" d="M306.13,612.56a.63.63,0,0,1-.57.53A.69.69,0,0,1,306.13,612.56Z" transform="translate(-76 -381)"/><path class="cls-2" d="M325.72,612.94a.6.6,0,0,1,.49-.58A.57.57,0,0,1,325.72,612.94Z" transform="translate(-76 -381)"/><path class="cls-2" d="M135.67,613.65a.63.63,0,0,1-.57-.53A.61.61,0,0,1,135.67,613.65Z" transform="translate(-76 -381)"/><path class="cls-2" d="M305.59,613.07a.62.62,0,0,1-.56.53A.69.69,0,0,1,305.59,613.07Z" transform="translate(-76 -381)"/><path class="cls-2" d="M325.24,613.49a.58.58,0,0,1,.5-.57A.64.64,0,0,1,325.24,613.49Z" transform="translate(-76 -381)"/><path class="cls-2" d="M136.21,614.15a.62.62,0,0,1-.57-.53A.65.65,0,0,1,136.21,614.15Z" transform="translate(-76 -381)"/><path class="cls-2" d="M305.05,613.57a.59.59,0,0,1-.56.52Z" transform="translate(-76 -381)"/><path class="cls-2" d="M324.75,614a.57.57,0,0,1,.5-.56A.7.7,0,0,1,324.75,614Z" transform="translate(-76 -381)"/><path class="cls-2" d="M136.75,614.64a.62.62,0,0,1-.57-.52A.68.68,0,0,1,136.75,614.64Z" transform="translate(-76 -381)"/><path class="cls-2" d="M304.5,614.08a.57.57,0,0,1-.54.5Z" transform="translate(-76 -381)"/><path class="cls-2" d="M324.26,614.56a.53.53,0,0,1,.49-.53A.67.67,0,0,1,324.26,614.56Z" transform="translate(-76 -381)"/><path class="cls-2" d="M137.29,615.13a.59.59,0,0,1-.56-.51Z" transform="translate(-76 -381)"/><path class="cls-2" d="M304,614.59a.52.52,0,0,1-.53.47Z" transform="translate(-76 -381)"/><path class="cls-2" d="M137.83,615.61a.55.55,0,0,1-.54-.49Z" transform="translate(-76 -381)"/><path class="cls-2" d="M303.38,615.09a.46.46,0,0,1-.49.44C303.06,615.39,303.22,615.24,303.38,615.09Z" transform="translate(-76 -381)"/><path class="cls-2" d="M138.36,616.08a.47.47,0,0,1-.51-.46Z" transform="translate(-76 -381)"/><path class="cls-2" d="M302.81,615.6a.37.37,0,0,1-.4.37Z" transform="translate(-76 -381)"/><path class="cls-2" d="M138.85,616.51c-.26,0-.38-.14-.42-.38Z" transform="translate(-76 -381)"/><path class="cls-2" d="M302.06,616.22a.75.75,0,0,1-.64.55A.7.7,0,0,1,302.06,616.22Z" transform="translate(-76 -381)"/><path class="cls-2" d="M301.45,616.74a.61.61,0,0,1-.59.5A.68.68,0,0,1,301.45,616.74Z" transform="translate(-76 -381)"/><path class="cls-2" d="M300.89,617.22a.57.57,0,0,1-.57.49Z" transform="translate(-76 -381)"/><path class="cls-2" d="M328.36,584.9a.51.51,0,0,1-.4.6Z" transform="translate(-76 -381)"/><path class="cls-2" d="M300.31,617.72a.51.51,0,0,1-.53.45Z" transform="translate(-76 -381)"/><path class="cls-2" d="M299.72,618.21c-.05.24-.17.39-.44.38Z" transform="translate(-76 -381)"/><path class="cls-2" d="M320.48,618.62a.59.59,0,0,1,.51-.54A.5.5,0,0,1,320.48,618.62Z" transform="translate(-76 -381)"/><path class="cls-2" d="M298.94,618.82a.75.75,0,0,1-.67.53A.75.75,0,0,1,298.94,618.82Z" transform="translate(-76 -381)"/><path class="cls-2" d="M320,619.14a.57.57,0,0,1,.51-.53A.5.5,0,0,1,320,619.14Z" transform="translate(-76 -381)"/><path class="cls-2" d="M298.3,619.32a.58.58,0,0,1-.58.49A.74.74,0,0,1,298.3,619.32Z" transform="translate(-76 -381)"/><path class="cls-2" d="M319.44,619.66a.57.57,0,0,1,.53-.52A.52.52,0,0,1,319.44,619.66Z" transform="translate(-76 -381)"/><path class="cls-2" d="M330.44,581.26a.52.52,0,0,1-.38.61A.65.65,0,0,1,330.44,581.26Z" transform="translate(-76 -381)"/><path class="cls-2" d="M297.72,619.81a.52.52,0,0,1-.55.44Z" transform="translate(-76 -381)"/><path class="cls-2" d="M318.92,620.18a.57.57,0,0,1,.53-.52A.51.51,0,0,1,318.92,620.18Z" transform="translate(-76 -381)"/><path class="cls-2" d="M334.61,572.93a.65.65,0,0,1-.38.73A.82.82,0,0,1,334.61,572.93Z" transform="translate(-76 -381)"/><path class="cls-2" d="M318.4,620.7a.57.57,0,0,1,.53-.52A.51.51,0,0,1,318.4,620.7Z" transform="translate(-76 -381)"/><path class="cls-2" d="M296.25,620.92a.6.6,0,0,1-.6.47A.66.66,0,0,1,296.25,620.92Z" transform="translate(-76 -381)"/><path class="cls-2" d="M317.88,621.22a.57.57,0,0,1,.53-.52A.52.52,0,0,1,317.88,621.22Z" transform="translate(-76 -381)"/><path class="cls-2" d="M323.7,592.18a.54.54,0,0,1-.44.59Z" transform="translate(-76 -381)"/><path class="cls-2" d="M340.42,592.7a.54.54,0,0,1,.39-.63A.64.64,0,0,1,340.42,592.7Z" transform="translate(-76 -381)"/><path class="cls-2" d="M317.35,621.73a.57.57,0,0,1,.53-.51A.5.5,0,0,1,317.35,621.73Z" transform="translate(-76 -381)"/><path class="cls-2" d="M323.28,592.74a.77.77,0,0,1-.5.72A.79.79,0,0,1,323.28,592.74Z" transform="translate(-76 -381)"/><path class="cls-2" d="M124.94,623.31a.55.55,0,0,1,.53.5A.5.5,0,0,1,124.94,623.31Z" transform="translate(-76 -381)"/><path class="cls-2" d="M313.85,625a.45.45,0,0,1,.5-.46Z" transform="translate(-76 -381)"/><path class="cls-2" d="M313.3,625.48a.51.51,0,0,1,.52-.48A.67.67,0,0,1,313.3,625.48Z" transform="translate(-76 -381)"/><path class="cls-2" d="M127.44,625.55a.46.46,0,0,1,.5.46Z" transform="translate(-76 -381)"/><path class="cls-2" d="M312.74,626a.55.55,0,0,1,.55-.49A.69.69,0,0,1,312.74,626Z" transform="translate(-76 -381)"/><path class="cls-2" d="M128,626a.54.54,0,0,1,.53.49A.67.67,0,0,1,128,626Z" transform="translate(-76 -381)"/><path class="cls-2" d="M312.19,626.47a.58.58,0,0,1,.56-.5A.63.63,0,0,1,312.19,626.47Z" transform="translate(-76 -381)"/><path class="cls-2" d="M128.5,626.52a.54.54,0,0,1,.55.49A.66.66,0,0,1,128.5,626.52Z" transform="translate(-76 -381)"/><path class="cls-2" d="M311.64,626.94a.56.56,0,0,1,.56-.48A.54.54,0,0,1,311.64,626.94Z" transform="translate(-76 -381)"/><path class="cls-2" d="M331.54,579.17a.73.73,0,0,1-.43.77A.88.88,0,0,1,331.54,579.17Z" transform="translate(-76 -381)"/><path class="cls-2" d="M129.05,627a.56.56,0,0,1,.56.48A.56.56,0,0,1,129.05,627Z" transform="translate(-76 -381)"/><path class="cls-2" d="M309.66,628.61a.47.47,0,0,1,.52-.46Z" transform="translate(-76 -381)"/><path class="cls-2" d="M131.08,628.68a.46.46,0,0,1,.52.45Z" transform="translate(-76 -381)"/><path class="cls-2" d="M309.09,629.1a.54.54,0,0,1,.55-.48A.65.65,0,0,1,309.09,629.1Z" transform="translate(-76 -381)"/><path class="cls-2" d="M131.62,629.14a.54.54,0,0,1,.55.48A.67.67,0,0,1,131.62,629.14Z" transform="translate(-76 -381)"/><path class="cls-2" d="M308.52,629.56a.58.58,0,0,1,.58-.47A.57.57,0,0,1,308.52,629.56Z" transform="translate(-76 -381)"/><path class="cls-2" d="M132.17,629.61a.55.55,0,0,1,.57.46A.54.54,0,0,1,132.17,629.61Z" transform="translate(-76 -381)"/><path class="cls-2" d="M322.6,593.76a.46.46,0,0,1-.41.53C322.33,594.11,322.47,593.94,322.6,593.76Z" transform="translate(-76 -381)"/><path class="cls-2" d="M306.49,631.18a.53.53,0,0,1,.55-.46A.61.61,0,0,1,306.49,631.18Z" transform="translate(-76 -381)"/><path class="cls-2" d="M134.22,631.23a.52.52,0,0,1,.56.46A.64.64,0,0,1,134.22,631.23Z" transform="translate(-76 -381)"/><path class="cls-2" d="M305.91,631.63a.57.57,0,0,1,.59-.45A.57.57,0,0,1,305.91,631.63Z" transform="translate(-76 -381)"/><path class="cls-2" d="M136.3,632.81a.52.52,0,0,1,.56.45A.62.62,0,0,1,136.3,632.81Z" transform="translate(-76 -381)"/><path class="cls-2" d="M322.2,594.29a.59.59,0,0,1-.46.61A.68.68,0,0,1,322.2,594.29Z" transform="translate(-76 -381)"/><path class="cls-2" d="M303.85,633.21a.53.53,0,0,1,.58-.44A.58.58,0,0,1,303.85,633.21Z" transform="translate(-76 -381)"/><path class="cls-2" d="M327.39,586.47a.69.69,0,0,1-.45.72A.83.83,0,0,1,327.39,586.47Z" transform="translate(-76 -381)"/><path class="cls-2" d="M329.57,459.28a.54.54,0,0,1,.38.64A.69.69,0,0,1,329.57,459.28Z" transform="translate(-76 -381)"/><path class="cls-2" d="M138.39,634.36a.53.53,0,0,1,.57.44A.58.58,0,0,1,138.39,634.36Z" transform="translate(-76 -381)"/><path class="cls-2" d="M301.74,634.74a.55.55,0,0,1,.6-.42A.57.57,0,0,1,301.74,634.74Z" transform="translate(-76 -381)"/><path class="cls-2" d="M338.83,595.29a.57.57,0,0,1,.41-.63A.63.63,0,0,1,338.83,595.29Z" transform="translate(-76 -381)"/><path class="cls-2" d="M300.22,635.83a.51.51,0,0,1,.57-.42A.56.56,0,0,1,300.22,635.83Z" transform="translate(-76 -381)"/><path class="cls-2" d="M321.09,595.82a.54.54,0,0,1-.45.57Z" transform="translate(-76 -381)"/><path class="cls-2" d="M328.05,456.65a.56.56,0,0,1,.38.65A.62.62,0,0,1,328.05,456.65Z" transform="translate(-76 -381)"/><path class="cls-2" d="M320.65,596.38a.6.6,0,0,1-.47.61A.69.69,0,0,1,320.65,596.38Z" transform="translate(-76 -381)"/><path class="cls-2" d="M337.82,596.87a.55.55,0,0,1,.42-.62A.7.7,0,0,1,337.82,596.87Z" transform="translate(-76 -381)"/><path class="cls-2" d="M326.78,587.51a.5.5,0,0,1-.4.57Z" transform="translate(-76 -381)"/><path class="cls-2" d="M319.51,597.9a.52.52,0,0,1-.44.55Z" transform="translate(-76 -381)"/><path class="cls-2" d="M336.79,598.43a.54.54,0,0,1,.42-.6A.65.65,0,0,1,336.79,598.43Z" transform="translate(-76 -381)"/><path class="cls-2" d="M319.07,598.45a.6.6,0,0,1-.48.59A.73.73,0,0,1,319.07,598.45Z" transform="translate(-76 -381)"/><path class="cls-2" d="M318.62,599a.65.65,0,0,1-.5.61A.63.63,0,0,1,318.62,599Z" transform="translate(-76 -381)"/><path class="cls-2" d="M335.74,600a.54.54,0,0,1,.43-.6A.66.66,0,0,1,335.74,600Z" transform="translate(-76 -381)"/><path class="cls-2" d="M326.45,454.07a.55.55,0,0,1,.41.63A.66.66,0,0,1,326.45,454.07Z" transform="translate(-76 -381)"/><path class="cls-2" d="M342.52,589.06a.54.54,0,0,1,.37-.64A.66.66,0,0,1,342.52,589.06Z" transform="translate(-76 -381)"/><path class="cls-2" d="M325.44,452.49a.57.57,0,0,1,.41.63A.61.61,0,0,1,325.44,452.49Z" transform="translate(-76 -381)"/><path class="cls-2" d="M331,580.22a.65.65,0,0,1-.41.71A.82.82,0,0,1,331,580.22Z" transform="translate(-76 -381)"/><path class="cls-2" d="M317.43,600.51a.51.51,0,0,1-.45.53Z" transform="translate(-76 -381)"/><path class="cls-2" d="M324.4,450.92a.61.61,0,0,1,.43.63A.6.6,0,0,1,324.4,450.92Z" transform="translate(-76 -381)"/><path class="cls-2" d="M317,601.05a.57.57,0,0,1-.48.57Z" transform="translate(-76 -381)"/><path class="cls-2" d="M334.67,601.54a.55.55,0,0,1,.44-.6A.66.66,0,0,1,334.67,601.54Z" transform="translate(-76 -381)"/><path class="cls-2" d="M325.78,589.05a.55.55,0,0,1-.42.62Z" transform="translate(-76 -381)"/><path class="cls-2" d="M138.87,647.91a.71.71,0,0,1-.44.74A.85.85,0,0,1,138.87,647.91Z" transform="translate(-76 -381)"/><path class="cls-2" d="M316.51,601.6a.65.65,0,0,1-.51.59A.68.68,0,0,1,316.51,601.6Z" transform="translate(-76 -381)"/><path class="cls-2" d="M138.29,649a.52.52,0,0,1-.39.61A.66.66,0,0,1,138.29,649Z" transform="translate(-76 -381)"/><path class="cls-2" d="M316,602.15a.62.62,0,0,1-.51.59A.62.62,0,0,1,316,602.15Z" transform="translate(-76 -381)"/><path class="cls-2" d="M125.35,603.07a.47.47,0,0,1-.44-.49Z" transform="translate(-76 -381)"/><path class="cls-2" d="M333.58,603.08a.58.58,0,0,1,.44-.61A.59.59,0,0,1,333.58,603.08Z" transform="translate(-76 -381)"/><path class="cls-2" d="M136.77,651.55a.68.68,0,0,1-.43.73A.88.88,0,0,1,136.77,651.55Z" transform="translate(-76 -381)"/><path class="cls-2" d="M323.34,449.38a.56.56,0,0,1,.43.61A.61.61,0,0,1,323.34,449.38Z" transform="translate(-76 -381)"/><path class="cls-2" d="M136.2,652.6a.53.53,0,0,1-.39.61Z" transform="translate(-76 -381)"/><path class="cls-3" d="M88.76,462.2l.15-.12,0-.19a1.43,1.43,0,0,1,.38-.73.25.25,0,0,0,.13-.37,2,2,0,0,1,.37-.67.29.29,0,0,0,.14-.4c.22-.36.13-.87.55-1.13l0,0c.22-.34.13-.83.54-1.07l0,0c.22-.34.13-.83.55-1.07l0,0q.17-.3.36-.6a.28.28,0,0,0,.15-.39,2.67,2.67,0,0,1,.39-.65.26.26,0,0,0,.15-.36,1.57,1.57,0,0,1,.4-.68.2.2,0,0,0,.13-.31,1.32,1.32,0,0,1,.42-.75v0c.34-.25.23-.75.55-1h0c.29-.29.19-.8.57-1l0,0c.13-.2.25-.39.39-.59a.24.24,0,0,0,.15-.35,1.59,1.59,0,0,1,.43-.7v0c.35-.24.23-.75.58-1v0c.14-.18.26-.37.38-.56a.26.26,0,0,0,.17-.36,1.52,1.52,0,0,1,.44-.69v0c.34-.24.21-.77.61-1l0,0a5.68,5.68,0,0,1,.41-.59l.15-.09v-.18a.94.94,0,0,1,.49-.75l0,0,.41-.57a.2.2,0,0,0,.16-.3,1,1,0,0,1,.48-.73v0c.14-.18.28-.37.41-.56a.19.19,0,0,0,.16-.29.92.92,0,0,1,.5-.73l0,0c.11-.23.31-.38.43-.59l0-.05c.38-.2.23-.76.63-.93l0,0c.07-.27.29-.42.46-.61h0a1.47,1.47,0,0,0,.39-.5.25.25,0,0,0,.2-.34,1,1,0,0,1,.5-.69l0,0a5.09,5.09,0,0,1,.46-.58l0,0c.35-.21.19-.79.66-.92l0,0a.81.81,0,0,1,.48-.61l0,0a3.17,3.17,0,0,1,.46-.58l0,0a1.37,1.37,0,0,0,.4-.49.22.22,0,0,0,.2-.3.79.79,0,0,1,.54-.69l0,0a1.11,1.11,0,0,1,.49-.6h0c.13-.2.32-.36.46-.56l0,0a1.21,1.21,0,0,0,.4-.47q.25,0,.21-.27a.71.71,0,0,1,.56-.71l0,0a.8.8,0,0,1,.51-.59l0,0a1.48,1.48,0,0,1,.5-.58h0c.14-.2.33-.36.48-.55l0,0a1.84,1.84,0,0,0,.45-.51l.05-.07a.7.7,0,0,0,.39-.42.22.22,0,0,0,.23-.28.69.69,0,0,1,.58-.69l0,0a.64.64,0,0,1,.53-.57l0,0a.82.82,0,0,1,.52-.58l0,0a1.17,1.17,0,0,1,.53-.57l0,0a1.42,1.42,0,0,1,.53-.56l0,0a2.09,2.09,0,0,1,.52-.55h0a6.39,6.39,0,0,1,.5-.54h0l.5-.52,0,0c.17-.16.34-.33.5-.51h0a5.9,5.9,0,0,0,.49-.51l0,0a3.94,3.94,0,0,0,.5-.5l0,0a3.86,3.86,0,0,0,.49-.5l0,0a3.86,3.86,0,0,0,.49-.5l0,0a4.72,4.72,0,0,0,.5-.5l0,0a4.81,4.81,0,0,0,.51-.5h0l.52-.5h0a6.26,6.26,0,0,1,.53-.5h0a2.05,2.05,0,0,1,.55-.51h0a1.4,1.4,0,0,1,.55-.53l0,0a1.11,1.11,0,0,1,.56-.53l0,0a.86.86,0,0,1,.58-.52l0,0a.67.67,0,0,1,.57-.53l0,0a.7.7,0,0,1,.68-.58.22.22,0,0,0,.29-.23.69.69,0,0,0,.42-.38l.07-.06a1.84,1.84,0,0,0,.51-.45l0,0,.54-.48h0a1.38,1.38,0,0,1,.57-.5l0,0a.83.83,0,0,1,.59-.5l0,0a.72.72,0,0,1,.69-.56.22.22,0,0,0,.29-.21,1.11,1.11,0,0,0,.46-.4l0,0,.55-.46h0a1.08,1.08,0,0,1,.58-.49l0,0a.81.81,0,0,1,.68-.54.23.23,0,0,0,.32-.2,1.14,1.14,0,0,0,.47-.4l0,0a3.59,3.59,0,0,1,.57-.46l0,0a1,1,0,0,1,.65-.51.31.31,0,0,0,.38-.23.82.82,0,0,0,.45-.37l0,0c.21-.13.36-.33.58-.44h0a1,1,0,0,1,.67-.5.28.28,0,0,0,.36-.2,1.29,1.29,0,0,0,.48-.39h0c.19-.16.34-.38.59-.45l0,0c.18-.4.73-.25.92-.62l.07,0,.58-.43,0,0a.91.91,0,0,1,.71-.49.23.23,0,0,0,.32-.17l.55-.4h0a1,1,0,0,1,.71-.49.22.22,0,0,0,.32-.16l.55-.4h0a.93.93,0,0,1,.74-.48h.19l.1-.16c.19-.15.38-.28.58-.41l0,0c.21-.38.74-.25,1-.59l0,0a1.74,1.74,0,0,1,.66-.44.29.29,0,0,0,.39-.17,4,4,0,0,0,.54-.38h0c.23-.35.74-.22,1-.57l0,0a1.75,1.75,0,0,1,.67-.43.28.28,0,0,0,.38-.16l.57-.38,0,0c.24-.38.74-.26,1-.57h0c.25-.32.74-.19,1-.54l0,0a1.48,1.48,0,0,1,.71-.42.23.23,0,0,0,.34-.14,2.09,2.09,0,0,1,.66-.39.31.31,0,0,0,.39-.15,3.55,3.55,0,0,1,.62-.38.34.34,0,0,0,.42-.16l.61-.37a.36.36,0,0,0,.43-.16l.6-.37a.37.37,0,0,0,.44-.15l.6-.36a.38.38,0,0,0,.44-.15l.62-.37a.33.33,0,0,0,.42-.14,3.21,3.21,0,0,1,.65-.37.3.3,0,0,0,.39-.13,1.87,1.87,0,0,1,.69-.38.24.24,0,0,0,.35-.12c.29-.26.76-.14,1-.47h0c.3-.29.77-.2,1.08-.49l.49-.14.63-.35a.31.31,0,0,0,.41-.12,1.41,1.41,0,0,1,.74-.37l.18,0,.12-.14c.31-.3.78-.21,1.1-.47a.38.38,0,0,0,.46-.11,1.48,1.48,0,0,1,.73-.36l.18,0,.13-.14c.32-.3.79-.22,1.13-.46a.36.36,0,0,0,.44-.11c.31-.24.76-.14,1.05-.44l.51-.11a1.65,1.65,0,0,1,.73-.35l.83-.19c.24-.1.42-.31.69-.33l.88-.19c.23-.1.41-.31.68-.34l.88-.18a2,2,0,0,1,.71-.33l.85-.17c.32-.2.76-.12,1.05-.41l.51-.09c.35-.22.79-.18,1.14-.4l.95-.16c.33-.18.76-.1,1-.4l.51-.07a6.76,6.76,0,0,1,1.23-.39l.86-.14a8.75,8.75,0,0,1,1.23-.38l.85-.13c.48-.36,1.14,0,1.61-.43l1-.12a12.26,12.26,0,0,1,1.22-.36l1.38-.16a11,11,0,0,1,1.28-.36l1.32-.14c.54-.31,1.2-.09,1.74-.39l1.91-.16c.53-.28,1.17,0,1.68-.37l2-.13c.73-.36,1.57,0,2.29-.38a3.78,3.78,0,0,0,1.77,0c.49.37,1.17.05,1.66.44a.25.25,0,0,0,.36.1,1.92,1.92,0,0,1,.68.39.22.22,0,0,0,.33.14.94.94,0,0,1,.68.51l0,0a1.67,1.67,0,0,1,.56.5h0a1.91,1.91,0,0,1,.52.54l0,0a1.12,1.12,0,0,1,.51.66.26.26,0,0,0,.17.37l.36.58,0,0c.56.43.16,1.18.54,1.66l.09.92a.8.8,0,0,1,0,1l-.1.87a8.61,8.61,0,0,1-.41,1.21.25.25,0,0,0-.12.36,1.84,1.84,0,0,1-.4.69l0,.06c-.36.2-.2.76-.63.91l0,0a.76.76,0,0,1-.52.55h0a.65.65,0,0,1-.56.49l.11.1-.11-.11c-.14.47-.68.32-.93.61l0,0c-.27.32-.73.24-1,.48h0c-.77.68-1.81,0-2.61.51l0,0c-1.29.83-2.82-.08-4.14.55l0,0c-1.1.8-2.46-.1-3.58.57h0c-.78.63-1.81-.06-2.61.49h0c-.75.71-1.8-.05-2.58.54h0c-.6.61-1.46.06-2.1.47h0c-.55.71-1.43.1-2.06.51h0c-.53.75-1.44.07-2,.55h0c-.53.7-1.45,0-2,.57h0c-.42.48-1.1.1-1.56.47h0c-.4.56-1.09.16-1.56.48h0c-.37.62-1.07.19-1.54.5h0c-.35.64-1.08.19-1.53.53h0c-.35.62-1.09.15-1.52.55h0c-.37.57-1.11.1-1.51.55l0,0c-.29.33-.72.27-1.08.4l0,0c-.3.66-1.08.14-1.47.59h0c-.28.35-.72.29-1.08.43l0,0c-.29.65-1.08.12-1.44.6l-.06,0c-.27.31-.72.23-1,.46h0c-.25.37-.71.29-1.05.47h0c-.23.43-.69.34-1,.47l0,0c-2,1.11-4.14,2.09-6.22,3.1l0,0c-.17.49-.67.36-1,.54h0c-.19.44-.69.32-1,.55h0c-.22.38-.71.26-1,.54l0,0a5.35,5.35,0,0,1-1.6.94h0c-.18.44-.69.31-1,.58h0a5.55,5.55,0,0,1-1.59,1h0c-.18.42-.7.28-1,.58l0,0a1.1,1.1,0,0,1-.59.4l.08.13-.09-.13c-.14.47-.68.32-.94.61l0,0a1,1,0,0,1-.59.4l.08.13-.09-.12c-.13.48-.67.32-.93.61l0,0a1,1,0,0,1-.59.42c-.13.46-.68.3-.91.61l-.06,0a1.39,1.39,0,0,1-.56.43h0a5.6,5.6,0,0,1-1.51,1.09h0c-.15.21-.29.42-.59.44-.34.57-1,.75-1.48,1.11h0a.81.81,0,0,1-.57.45c-.35.56-1,.7-1.46,1.12l0,0a2.36,2.36,0,0,1-.54.46h0a.74.74,0,0,1-.57.47c-.32.56-1,.68-1.41,1.14l-.08.06-.5.44,0,0a2.2,2.2,0,0,1-.53.48h0a.91.91,0,0,1-.56.49h0a.65.65,0,0,1-.56.48.5.5,0,0,1-.55.49l.13.15-.14-.15a8.5,8.5,0,0,1-1.89,1.7l-.06.06a5.11,5.11,0,0,0-.48.45l-.05.05-.49.47,0,0c-.16.17-.33.33-.5.48l0,0a4.72,4.72,0,0,1-.5.5h0a4,4,0,0,1-.5.51l0,0a3.94,3.94,0,0,1-.5.5l0,0a3.94,3.94,0,0,1-.5.5l0,0a3.94,3.94,0,0,1-.5.5l0,0a3.94,3.94,0,0,1-.5.5l0,0a5.55,5.55,0,0,1-.48.49l0,0-.47.49,0,.05a13.12,13.12,0,0,1-2.21,2.44c0,.33-.18.49-.49.55l.1.09-.09-.1a.69.69,0,0,1-.5.57v0a1,1,0,0,1-.49.57h0a2.73,2.73,0,0,1-.48.54l0,0a5.47,5.47,0,0,0-.45.51l0,.07c-.35.18-.17.78-.68.83,0,.35-.17.5-.47.59l0,0a.85.85,0,0,1-.48.58h0a3.1,3.1,0,0,1-.47.55l0,0c-.44.45-.58,1.11-1.13,1.47v0a.89.89,0,0,1-.46.58h0c-.37.5-.55,1.15-1.12,1.5l0,0c0,.29-.25.44-.46.6h0a6.81,6.81,0,0,1-1.09,1.52l0,0c-.07.26-.28.4-.44.59l0,0c-.33.23-.18.78-.64.93l0,0c0,.3-.24.44-.43.61v0c-.3.25-.16.81-.63.95l0,0c0,.3-.24.44-.42.62h0c-.3.26-.16.8-.62,1l0,0c0,.29-.25.43-.41.62l0,0c-.32.24-.19.77-.6,1l0,0c-.06.25-.28.39-.4.6l0,.07c-.37.21-.23.72-.56.95h0c-.29.28-.17.81-.59,1l0,0a3.51,3.51,0,0,1-.39.61l-.16.1,0,.18a1,1,0,0,1-.44.75v0c-.31.27-.2.77-.56,1v0c-.26.31-.15.82-.57,1l0,0c-.22.34-.11.85-.57,1.05l0,0c0,.27-.23.42-.36.62a.21.21,0,0,0-.14.32,1.39,1.39,0,0,1-.4.73l-.15.1,0,.18a1.25,1.25,0,0,1-.41.76l0,.05c-.36.23-.22.71-.49,1l-.15.11,0,.18a1.29,1.29,0,0,1-.4.75.2.2,0,0,0-.12.32c-.17.4-.09.92-.56,1.19l0,0c-.17.37-.1.84-.5,1.1v0c-.21.34-.15.81-.49,1.09h0c-.26.31-.19.77-.47,1.07v0c-.53.36,0,1.16-.62,1.49l0,0c-.19.36-.15.81-.46,1.11h0c-.3.29-.21.74-.45,1.05a.26.26,0,0,0-.12.38c-.19.38-.16.85-.46,1.18v0c-.5.4,0,1.15-.56,1.53v0c-.25.32-.18.76-.42,1.08a.29.29,0,0,0-.11.41c-.22.35-.17.81-.43,1.15a.27.27,0,0,0-.09.4c-.21.36-.17.81-.42,1.16a.29.29,0,0,0-.1.41c-.22.36-.18.8-.41,1.15a.34.34,0,0,0-.09.46c-.43.47,0,1.18-.5,1.63l-.13.12.06.16a5.74,5.74,0,0,1-.39,1.28.32.32,0,0,0-.09.44c-.4.48-.05,1.17-.46,1.65a.25.25,0,0,0-.08.39c-.35.51,0,1.19-.44,1.69a.26.26,0,0,0-.07.4c-.36.51-.07,1.17-.42,1.68l-.13.77c-.25.59-.06,1.27-.41,1.84a.32.32,0,0,0-.06.45c-.51.64,0,1.49-.44,2.15l-.12.88c-.48.87.1,1.91-.45,2.77a.26.26,0,0,0-.05.41c-.56,1,.1,2.21-.44,3.23a1.45,1.45,0,0,0-.09,1.27c-.51,1.27.08,2.67-.42,3.94a4.27,4.27,0,0,0-.1,2.35,99.39,99.39,0,0,0,0,14.54,3,3,0,0,0,.09,1.86c.57,1.42-.11,3,.43,4.39a1.88,1.88,0,0,0,.11,1.34c.46.89,0,1.92.41,2.81a.9.9,0,0,0,.09.84c.53.83-.08,1.86.46,2.7a.27.27,0,0,0,0,.42c.47.7,0,1.57.44,2.28L93,545c.33.53.09,1.19.4,1.72a.22.22,0,0,0,.07.36c.53.62,0,1.5.5,2.12a.37.37,0,0,0,.07.48c.36.48,0,1.16.44,1.62a.37.37,0,0,0,.08.47,5.9,5.9,0,0,1,.39,1.3l-.06.15.12.1c.47.48.12,1.19.49,1.7a.25.25,0,0,0,.08.39,4.92,4.92,0,0,1,.41,1.3l-.06.16.13.1c.47.44.06,1.15.51,1.59v0c.49.43.08,1.15.52,1.59v0c.51.41.08,1.14.54,1.57h0c.49.4,0,1.14.54,1.54h0c.3.35.27.81.46,1.2a.23.23,0,0,0,.11.36c.25.32.18.77.44,1.08v0c.36.33.33.82.49,1.23l0,.19.14.13c.28.3.19.76.47,1.07v0c.35.31.29.8.5,1.17a.26.26,0,0,0,.12.38,1.36,1.36,0,0,1,.37.77l0,.17.14.1c.29.3.19.77.49,1.06h0c.32.29.25.76.5,1.08v0c.36.28.29.76.51,1.1l0,0c.41.27.32.78.55,1.13a.29.29,0,0,0,.14.4c.13.2.25.4.36.61l0,0c.43.23.34.73.55,1.07l0,0c.42.24.32.74.55,1.07l0,0c.4.24.3.74.56,1v0c.36.25.26.75.55,1h0c.33.25.21.75.55,1v0a1.44,1.44,0,0,1,.43.73.21.21,0,0,0,.14.32,3.51,3.51,0,0,1,.39.61l0-.05c.42.22.3.74.59,1h0a1,1,0,0,1,.46.77l0,.18.15.08c.14.2.35.36.41.61l0,0c.42.2.3.73.61,1h0a1.18,1.18,0,0,1,.45.71.23.23,0,0,0,.17.33,5.66,5.66,0,0,0,.4.56v0a1,1,0,0,1,.48.74v.19l.16.09.41.57,0,0a.94.94,0,0,1,.5.74c-.06.16,0,.25.16.29s.27.37.41.55v0a1,1,0,0,1,.49.7.23.23,0,0,0,.19.33,1.65,1.65,0,0,0,.39.51h0c.18.18.4.33.45.61l0,0c.42.16.27.72.65.91l0,.06c.14.2.29.39.44.57h0a1,1,0,0,1,.47.61l0,0c.45.13.29.71.67.9l0,0a4.71,4.71,0,0,0,.44.56h0a1.21,1.21,0,0,1,.47.6l0,0a.81.81,0,0,1,.54.69.23.23,0,0,0,.21.31,1,1,0,0,0,.4.46l0,0c.15.19.3.38.46.56h0a1.32,1.32,0,0,1,.49.58l0,0a.78.78,0,0,1,.51.6l0,0c.45.1.28.7.69.84l.06.09a1.14,1.14,0,0,0,.43.49l0,0a3,3,0,0,0,.47.53h0a4.28,4.28,0,0,1,.49.55h0a1.45,1.45,0,0,1,.51.56l0,0a1,1,0,0,1,.52.57l0,0a.75.75,0,0,1,.53.58l0,0a.62.62,0,0,1,.53.57l0,0a.68.68,0,0,1,.59.65.25.25,0,0,0,.26.31.46.46,0,0,0,.37.37l.09.1a.65.65,0,0,0,.43.44l.08.09a.75.75,0,0,0,.43.44l.08.08a.82.82,0,0,0,.44.44l.08.08a.76.76,0,0,0,.44.44l.09.08a.72.72,0,0,0,.43.44l.09.08a.74.74,0,0,0,.44.44l.08.08a.72.72,0,0,0,.44.43l.09.09a.65.65,0,0,0,.43.42l.1.09c.12.41.74.23.8.71l0,0a.57.57,0,0,1,.57.53l0,0a.65.65,0,0,1,.57.53l0,0a.8.8,0,0,1,.57.53l0,0a1,1,0,0,1,.57.52l0,0a1.61,1.61,0,0,1,.56.51h0l.54.49h0a2.47,2.47,0,0,0,.51.46l.07,0a.75.75,0,0,0,.42.38.25.25,0,0,0,.32.23.75.75,0,0,1,.67.56l0,0a.91.91,0,0,1,.6.5l0,0a1.76,1.76,0,0,1,.57.48h0a4,4,0,0,0,.54.45l.06,0a.66.66,0,0,0,.43.37.28.28,0,0,0,.36.24.92.92,0,0,1,.66.52l0,0a1.74,1.74,0,0,1,.58.47h0a2.24,2.24,0,0,0,.51.41c0,.17.12.23.28.18a.83.83,0,0,1,.72.53l0,0a1.39,1.39,0,0,1,.6.47h0a2.24,2.24,0,0,0,.51.41.22.22,0,0,0,.31.18.85.85,0,0,1,.7.51l0,0a2.2,2.2,0,0,1,.59.45l0,0a1,1,0,0,0,.47.37.32.32,0,0,0,.39.22,1.32,1.32,0,0,1,.65.46h0a1.92,1.92,0,0,0,.51.39.29.29,0,0,0,.37.19,1.17,1.17,0,0,1,.67.46h0c.6.36.78-.28,1.14-.49l0,0a3.51,3.51,0,0,1,.39-.61.2.2,0,0,0,.14-.31,1.22,1.22,0,0,1,.44-.73v0c.33-.26.21-.76.57-1l0,0a3.67,3.67,0,0,0,.38-.56.29.29,0,0,0,.17-.39,1.84,1.84,0,0,1,.41-.65l.15-.11v-.19a1.15,1.15,0,0,1,.44-.75h0c.32-.27.2-.78.57-1l0,0c.14-.18.26-.37.38-.56a.29.29,0,0,0,.17-.38,1.87,1.87,0,0,1,.41-.67l.15-.09,0-.18a1.09,1.09,0,0,1,.45-.77h0c.31-.27.19-.78.57-1l0,0,.38-.58a.26.26,0,0,0,.16-.37,2.13,2.13,0,0,1,.42-.69l0,0c.37-.23.24-.73.56-1h0c.29-.28.18-.79.57-1l0,0a1.15,1.15,0,0,1,.56-.55l0,0c.16-.2.3-.2.42,0l0,0a.78.78,0,0,1,.54.73l0,.17.15.09a2,2,0,0,1,.42.67.28.28,0,0,0,.17.38,5.42,5.42,0,0,0,.37.56v0c.36.24.24.75.57,1h0a1.25,1.25,0,0,1,.43.73.22.22,0,0,0,.15.32,6.17,6.17,0,0,1,.39.6l0,0c.41.22.3.73.59,1h0c.34.25.21.75.56,1l0,0a1.68,1.68,0,0,1,.43.7.25.25,0,0,0,.16.36l.38.57,0,0c.38.23.26.74.58,1h0a1.1,1.1,0,0,1,.44.74v.19l.15.11c.13.2.35.35.39.61l0,0c.43.2.32.73.59,1h0c.35.24.23.74.57,1v0a1.41,1.41,0,0,1,.43.72.22.22,0,0,0,.16.33c.13.2.26.39.38.59l0,0c.4.22.28.74.58,1h0a1,1,0,0,1,.45.77l0,.18.15.09a1.73,1.73,0,0,1,.42.67.26.26,0,0,0,.17.37,5.57,5.57,0,0,0,.37.57v0c.36.24.25.75.57,1h0a1.17,1.17,0,0,1,.44.73.21.21,0,0,0,.15.31,3.51,3.51,0,0,1,.39.61l0,0c.42.21.31.73.59,1h0c.34.24.22.75.57,1v0a1.68,1.68,0,0,1,.43.71.24.24,0,0,0,.16.35l.38.58,0,0c.38.24.27.75.58,1h0a1.12,1.12,0,0,1,.45.76l0,.18.15.1a2.15,2.15,0,0,1,.41.66.29.29,0,0,0,.17.39,4.14,4.14,0,0,0,.38.55l0,0c.36.24.24.75.57,1v0a1.33,1.33,0,0,1,.44.72.22.22,0,0,0,.14.33,5.57,5.57,0,0,1,.4.59l0,0c.4.22.29.74.58,1h0c.33.24.2.75.56,1l0,0a1.81,1.81,0,0,1,.42.69.27.27,0,0,0,.16.37q.18.28.39.57l0,0c.37.24.25.75.57,1h0a1.21,1.21,0,0,1,.44.75c-.07.15,0,.25.14.3a3.43,3.43,0,0,1,.39.6l0,0c.42.21.31.73.59,1v0c.34.24.22.75.57,1v0a1.53,1.53,0,0,1,.43.71.24.24,0,0,0,.15.34c.14.19.27.39.39.59l0,0c.39.23.27.74.58,1h0c.36.57.21,1-.4,1.21a6.41,6.41,0,0,1-1.81.07c-15,0-30,0-45,0-.73,0-2.44,1-2.12-1.2l0,.05a3.51,3.51,0,0,1,.39-.61.21.21,0,0,0,.14-.32,1.44,1.44,0,0,1,.43-.73h0c.34-.26.22-.76.57-1v0c.27-.3.16-.82.59-1l0,.05c0-.26.26-.41.39-.61a.2.2,0,0,0,.14-.31,1.21,1.21,0,0,1,.44-.74h0c.33-.26.21-.77.57-1l0,0a5,5,0,0,0,.38-.56.29.29,0,0,0,.17-.39,2,2,0,0,1,.41-.66l.15-.1v-.19a1.09,1.09,0,0,1,.44-.75h0c.32-.26.2-.77.57-1l0,0a5.65,5.65,0,0,0,.38-.57.28.28,0,0,0,.17-.38,1.75,1.75,0,0,1,.41-.66l.15-.1,0-.18a1.07,1.07,0,0,1,.45-.76h0c.3-.28.19-.79.57-1l0,0,.38-.57a2.7,2.7,0,0,0,.17-.34.49.49,0,0,0-.05-.19,2.21,2.21,0,0,1-.5-.56h0a8.08,8.08,0,0,1-1.55-1h0a7.1,7.1,0,0,1-1.54-1.05h0a4.42,4.42,0,0,1-1.52-1.07h0a1.3,1.3,0,0,1-.57-.44l0,0a8.4,8.4,0,0,1-1.5-1.08h0a1.74,1.74,0,0,1-.56-.45l-.05,0c-.46-.4-1.1-.57-1.47-1.1h0a1,1,0,0,1-.56-.46l0,0c-.47-.39-1.14-.53-1.44-1.14a.61.61,0,0,1-.58-.46h0a1.12,1.12,0,0,1-.55-.48h0c-.18-.15-.35-.29-.52-.45l-.07-.05c-.41-.46-1.1-.56-1.4-1.15a.64.64,0,0,1-.56-.48h0a1,1,0,0,1-.55-.49h0a2.47,2.47,0,0,1-.53-.49l0,0-.5-.46-.06-.05a8.31,8.31,0,0,1-1.91-1.69.48.48,0,0,1-.53-.5.54.54,0,0,1-.54-.51l-.11.11.11-.1a.65.65,0,0,1-.55-.51h0a.75.75,0,0,1-.54-.52h0a.82.82,0,0,1-.53-.53h0a.8.8,0,0,1-.54-.52h0a.87.87,0,0,1-.53-.53h0a.92.92,0,0,1-.53-.53h0a.92.92,0,0,1-.53-.53h0a.87.87,0,0,1-.52-.54h0a.85.85,0,0,1-.53-.53h0a.79.79,0,0,1-.53-.55v0a.69.69,0,0,1-.51-.55h0a.57.57,0,0,1-.51-.55l-.11.12.12-.11a.51.51,0,0,1-.51-.54,9.92,9.92,0,0,1-1.7-1.9l0-.06a5.35,5.35,0,0,0-.45-.5l0,0a6,6,0,0,1-.48-.53h0a1.29,1.29,0,0,1-.5-.56h0a.74.74,0,0,1-.5-.57v0a.55.55,0,0,1-.48-.58l-.12.15.13-.14c-.5-.06-.33-.66-.68-.84l0-.07c-.14-.18-.29-.35-.44-.51l0,0a1.53,1.53,0,0,1-.48-.56v0a.8.8,0,0,1-.48-.59l0,0c-.58-.33-.72-1-1.14-1.46l0,0a1.67,1.67,0,0,1-.46-.56h0a.71.71,0,0,1-.46-.6l0,0c-.48-.11-.32-.68-.66-.89l0,0a5.68,5.68,0,0,1-.44-.56h0a.77.77,0,0,1-.46-.61l0,0c-.47-.12-.32-.69-.65-.91l0,0a1.82,1.82,0,0,1-.44-.58l0,0a7.06,7.06,0,0,1-1.08-1.53h0a.79.79,0,0,1-.43-.61l0,0c-.48-.13-.33-.69-.64-.94v0c-.19-.18-.41-.32-.43-.61l0,0c-.46-.16-.31-.71-.62-1l0,0c-.18-.18-.41-.32-.42-.62l0,0c-.47-.16-.33-.7-.63-1h0c-.2-.17-.43-.32-.41-.63l0,0c-.51-.13-.37-.68-.62-1v0c-.37-.22-.24-.74-.58-1l0,0c-.15-.2-.39-.34-.4-.63l0,0c-.47-.18-.34-.71-.61-1h0c-.36-.23-.23-.74-.56-1l0,0c-.16-.2-.41-.33-.39-.64l0,0c-.5-.17-.38-.69-.59-1v0c-.42-.21-.3-.72-.57-1h0c-.36-.25-.25-.75-.55-1h0c-.31-.26-.2-.75-.53-1v0c-.29-.27-.17-.75-.52-1l0,0a1.27,1.27,0,0,1-.41-.76l0-.18-.15-.11a1.23,1.23,0,0,1-.4-.75l0-.18-.15-.11a1.23,1.23,0,0,1-.4-.75l0-.19-.15-.1c-.27-.28-.14-.76-.49-1l0,0c-.27-.29-.17-.76-.49-1v0c-.29-.3-.21-.76-.5-1.06h0c-.32-.28-.25-.75-.49-1.07v0c-.38-.3-.32-.79-.51-1.17a.26.26,0,0,0-.13-.37c-.24-.3-.13-.76-.46-1v0c-.28-.31-.22-.76-.47-1.09v0c-.37-.33-.34-.82-.49-1.24l0-.18-.15-.12c-.27-.31-.2-.77-.45-1.09v0c-.54-.37-.06-1.13-.57-1.52v0c-.29-.34-.26-.8-.45-1.18a.26.26,0,0,0-.11-.38c-.25-.32-.19-.77-.42-1.09v0c-.55-.39-.11-1.13-.55-1.57v0c-.52-.41-.1-1.14-.53-1.58v0c-.51-.44-.12-1.17-.52-1.64a.32.32,0,0,0-.1-.43,8.44,8.44,0,0,1-.4-1.2.23.23,0,0,0-.09-.36c-.42-.45,0-1.14-.48-1.58h0c-.46-.49-.14-1.19-.48-1.72.11-.15.08-.26-.08-.35-.41-.49-.08-1.18-.45-1.68a.28.28,0,0,0-.08-.41c-.38-.5-.08-1.18-.44-1.69a.25.25,0,0,0-.07-.39c-.38-.53-.14-1.22-.43-1.77l.07-.18-.13-.13c-.53-.67,0-1.55-.47-2.24a.23.23,0,0,0-.07-.37c-.49-.69,0-1.56-.45-2.27,0-.28-.07-.57-.11-.85-.42-.7,0-1.55-.42-2.24l-.1-.89c-.48-.86.07-1.88-.42-2.74l-.09-.9c-.51-1.07.06-2.28-.42-3.35a1.83,1.83,0,0,0-.1-1.34c-.57-1.77.14-3.65-.43-5.42a10.39,10.39,0,0,0-.09-3.43,30,30,0,0,1,0-7.81,12.68,12.68,0,0,0,.09-3.89c.57-1.61-.12-3.34.43-5a2.07,2.07,0,0,0,.1-1.39c.51-1.05-.07-2.24.42-3.29a1.88,1.88,0,0,0,.11-1.32c.44-.91-.07-2,.44-2.85a.28.28,0,0,0,0-.43c.56-.83-.09-1.87.47-2.7a.25.25,0,0,0,.06-.4c.46-.67,0-1.53.44-2.2a.32.32,0,0,0,.07-.45c.51-.64,0-1.51.47-2.16a.26.26,0,0,0,.07-.4c.36-.5.07-1.17.42-1.68a.35.35,0,0,0,.07-.47c.43-.46.09-1.13.44-1.61l.08-.49c.44-.44.08-1.12.45-1.59a.33.33,0,0,0,.08-.45c.42-.47.06-1.17.47-1.64a.23.23,0,0,0,.09-.36,10.49,10.49,0,0,1,.39-1.2.33.33,0,0,0,.09-.45c.43-.46,0-1.18.51-1.63h0c.47-.43,0-1.14.5-1.58l.14-.1-.06-.17a3.66,3.66,0,0,1,.44-1.29l.14-.11,0-.16a3.32,3.32,0,0,1,.45-1.29h0c.48-.42,0-1.16.55-1.56v0c.26-.32.19-.76.44-1.08a.27.27,0,0,0,.1-.39c.21-.37.17-.84.47-1.18h0c.32-.27.22-.72.44-1a.32.32,0,0,0,.13-.42c.23-.35.17-.83.47-1.15h0c.32-.27.22-.72.46-1a.27.27,0,0,0,.12-.38c.21-.37.14-.86.51-1.17v0c.25-.32.19-.78.48-1.08h0C88.6,463,88.49,462.49,88.76,462.2Z" transform="translate(-76 -381)"/><path class="cls-2" d="M131.59,652.31c0,.4-.17.92.48,1s1.21,0,1.81,0l45,0c.52,0,1,0,1.56,0s.49-.56.54-1c.53.94.45,1.43-.29,1.5s-1.22.05-1.82.05H133.6c-.61,0-1.22,0-1.82-.06C131,653.7,131,653.14,131.59,652.31Z" transform="translate(-76 -381)"/><path class="cls-2" d="M137.79,636.08a2.52,2.52,0,0,1,1.55,1A1.36,1.36,0,0,1,137.79,636.08Z" transform="translate(-76 -381)"/><path class="cls-2" d="M136.24,635a2.45,2.45,0,0,1,1.54,1.05A1.35,1.35,0,0,1,136.24,635Z" transform="translate(-76 -381)"/><path class="cls-2" d="M134.71,634a2.35,2.35,0,0,1,1.52,1.07A1.25,1.25,0,0,1,134.71,634Z" transform="translate(-76 -381)"/><path class="cls-2" d="M147.73,624.2c-.35,1.07-.35,1.07-1.14.49Z" transform="translate(-76 -381)"/><path class="cls-2" d="M155.52,610.64a1.1,1.1,0,0,1-.57,1A.92.92,0,0,1,155.52,610.64Z" transform="translate(-76 -381)"/><path class="cls-2" d="M155,611.66a1.1,1.1,0,0,1-.56,1A1,1,0,0,1,155,611.66Z" transform="translate(-76 -381)"/><path class="cls-2" d="M158.58,613.72a1.09,1.09,0,0,1-.57-1A1,1,0,0,1,158.58,613.72Z" transform="translate(-76 -381)"/><path class="cls-2" d="M153.43,614.28a1.09,1.09,0,0,1-.57,1A1,1,0,0,1,153.43,614.28Z" transform="translate(-76 -381)"/><path class="cls-2" d="M160.12,616.36a1.12,1.12,0,0,1-.59-1C160,615.51,160.13,615.9,160.12,616.36Z" transform="translate(-76 -381)"/><path class="cls-2" d="M160.67,617.34a1.11,1.11,0,0,1-.56-1A1,1,0,0,1,160.67,617.34Z" transform="translate(-76 -381)"/><path class="cls-2" d="M151.34,617.92a1.12,1.12,0,0,1-.57,1A1,1,0,0,1,151.34,617.92Z" transform="translate(-76 -381)"/><path class="cls-2" d="M162.22,620a1.09,1.09,0,0,1-.58-1A1,1,0,0,1,162.22,620Z" transform="translate(-76 -381)"/><path class="cls-2" d="M149.25,621.57a1.07,1.07,0,0,1-.57,1A1,1,0,0,1,149.25,621.57Z" transform="translate(-76 -381)"/><path class="cls-2" d="M163.75,622.62a1.13,1.13,0,0,1-.59-1C163.69,621.75,163.77,622.16,163.75,622.62Z" transform="translate(-76 -381)"/><path class="cls-2" d="M164.31,623.6a1.08,1.08,0,0,1-.57-1A1,1,0,0,1,164.31,623.6Z" transform="translate(-76 -381)"/><path class="cls-2" d="M165.85,626.25a1.12,1.12,0,0,1-.58-1A.91.91,0,0,1,165.85,626.25Z" transform="translate(-76 -381)"/><path class="cls-2" d="M168,629.87a1.09,1.09,0,0,1-.57-1A1,1,0,0,1,168,629.87Z" transform="translate(-76 -381)"/><path class="cls-2" d="M169.49,632.51a1.12,1.12,0,0,1-.59-1C169.4,631.65,169.5,632.05,169.49,632.51Z" transform="translate(-76 -381)"/><path class="cls-2" d="M170.05,633.48a1.07,1.07,0,0,1-.57-1A1,1,0,0,1,170.05,633.48Z" transform="translate(-76 -381)"/><path class="cls-2" d="M171.59,636.13a1.08,1.08,0,0,1-.58-1A1,1,0,0,1,171.59,636.13Z" transform="translate(-76 -381)"/><path class="cls-2" d="M139.37,638.76a1.11,1.11,0,0,1-.57,1A.94.94,0,0,1,139.37,638.76Z" transform="translate(-76 -381)"/><path class="cls-2" d="M173.68,639.75a1.09,1.09,0,0,1-.57-1A1,1,0,0,1,173.68,639.75Z" transform="translate(-76 -381)"/><path class="cls-2" d="M175.22,642.4a1.13,1.13,0,0,1-.58-1A.92.92,0,0,1,175.22,642.4Z" transform="translate(-76 -381)"/><path class="cls-2" d="M137.28,642.4a1.08,1.08,0,0,1-.57,1A1,1,0,0,1,137.28,642.4Z" transform="translate(-76 -381)"/><path class="cls-2" d="M175.78,643.37a1.09,1.09,0,0,1-.56-1A1,1,0,0,1,175.78,643.37Z" transform="translate(-76 -381)"/><path class="cls-2" d="M177.32,646a1.08,1.08,0,0,1-.57-1A1,1,0,0,1,177.32,646Z" transform="translate(-76 -381)"/><path class="cls-2" d="M178.86,648.66a1.13,1.13,0,0,1-.59-1C178.79,647.79,178.87,648.2,178.86,648.66Z" transform="translate(-76 -381)"/><path class="cls-2" d="M179.42,649.63a1.07,1.07,0,0,1-.57-1A1,1,0,0,1,179.42,649.63Z" transform="translate(-76 -381)"/><path class="cls-2" d="M181,652.28a1.11,1.11,0,0,1-.58-1A.94.94,0,0,1,181,652.28Z" transform="translate(-76 -381)"/><path class="cls-2" d="M156.43,610.18a1.49,1.49,0,0,1-.42,0l.23-.29Z" transform="translate(-76 -381)"/><path class="cls-2" d="M156.05,610.13l-.56.55A.72.72,0,0,1,156.05,610.13Z" transform="translate(-76 -381)"/><path class="cls-2" d="M156.93,610.87a1,1,0,0,1-.54-.73A.77.77,0,0,1,156.93,610.87Z" transform="translate(-76 -381)"/><path class="cls-2" d="M157.48,611.8a.62.62,0,0,1-.42-.67Z" transform="translate(-76 -381)"/><path class="cls-2" d="M158,612.74a.46.46,0,0,1-.37-.56Z" transform="translate(-76 -381)"/><path class="cls-2" d="M154.37,612.68a.62.62,0,0,1-.42.69Z" transform="translate(-76 -381)"/><path class="cls-2" d="M153.79,613.74a.47.47,0,0,1-.38.58Z" transform="translate(-76 -381)"/><path class="cls-2" d="M159,614.46a.68.68,0,0,1-.43-.73A.85.85,0,0,1,159,614.46Z" transform="translate(-76 -381)"/><path class="cls-2" d="M159.56,615.38a.51.51,0,0,1-.39-.6Z" transform="translate(-76 -381)"/><path class="cls-2" d="M152.86,615.3a.76.76,0,0,1-.45.77A.85.85,0,0,1,152.86,615.3Z" transform="translate(-76 -381)"/><path class="cls-2" d="M135.59,616.45a.8.8,0,0,1-.67-.56A.73.73,0,0,1,135.59,616.45Z" transform="translate(-76 -381)"/><path class="cls-2" d="M136.15,616.92a.64.64,0,0,1-.6-.5A.68.68,0,0,1,136.15,616.92Z" transform="translate(-76 -381)"/><path class="cls-2" d="M152.28,616.34a.61.61,0,0,1-.41.67Z" transform="translate(-76 -381)"/><path class="cls-2" d="M136.69,617.38a.57.57,0,0,1-.57-.48Z" transform="translate(-76 -381)"/><path class="cls-2" d="M137.24,617.84a.52.52,0,0,1-.54-.45Z" transform="translate(-76 -381)"/><path class="cls-2" d="M151.7,617.39a.46.46,0,0,1-.38.56C151.45,617.76,151.58,617.58,151.7,617.39Z" transform="translate(-76 -381)"/><path class="cls-2" d="M161.12,618.07a.64.64,0,0,1-.43-.7A.87.87,0,0,1,161.12,618.07Z" transform="translate(-76 -381)"/><path class="cls-2" d="M137.73,618.25a.38.38,0,0,1-.43-.37Z" transform="translate(-76 -381)"/><path class="cls-2" d="M138.75,619a.72.72,0,0,1-.66-.52A.76.76,0,0,1,138.75,619Z" transform="translate(-76 -381)"/><path class="cls-2" d="M161.66,619a.46.46,0,0,1-.38-.57Z" transform="translate(-76 -381)"/><path class="cls-2" d="M139.3,619.46a.56.56,0,0,1-.58-.47Z" transform="translate(-76 -381)"/><path class="cls-2" d="M150.77,618.94a.72.72,0,0,1-.44.75A.84.84,0,0,1,150.77,618.94Z" transform="translate(-76 -381)"/><path class="cls-2" d="M139.82,619.88c-.31,0-.45-.14-.51-.41Z" transform="translate(-76 -381)"/><path class="cls-2" d="M140.82,620.59a.81.81,0,0,1-.72-.53A.78.78,0,0,1,140.82,620.59Z" transform="translate(-76 -381)"/><path class="cls-2" d="M150.19,620a.58.58,0,0,1-.41.65Z" transform="translate(-76 -381)"/><path class="cls-2" d="M162.66,620.73a.71.71,0,0,1-.44-.74A.82.82,0,0,1,162.66,620.73Z" transform="translate(-76 -381)"/><path class="cls-2" d="M141.38,621a.58.58,0,0,1-.6-.47A.73.73,0,0,1,141.38,621Z" transform="translate(-76 -381)"/><path class="cls-2" d="M291.41,620.53a.54.54,0,0,1-.57.45Z" transform="translate(-76 -381)"/><path class="cls-2" d="M141.9,621.44c-.31,0-.45-.14-.51-.41Z" transform="translate(-76 -381)"/><path class="cls-2" d="M149.61,621a.45.45,0,0,1-.38.56Z" transform="translate(-76 -381)"/><path class="cls-2" d="M163.19,621.64a.52.52,0,0,1-.39-.61A.65.65,0,0,1,163.19,621.64Z" transform="translate(-76 -381)"/><path class="cls-2" d="M142.91,622.13a.75.75,0,0,1-.7-.51A.79.79,0,0,1,142.91,622.13Z" transform="translate(-76 -381)"/><path class="cls-2" d="M143.47,622.56a.55.55,0,0,1-.59-.45A.7.7,0,0,1,143.47,622.56Z" transform="translate(-76 -381)"/><path class="cls-2" d="M144,623c-.28,0-.41-.13-.47-.37Z" transform="translate(-76 -381)"/><path class="cls-2" d="M148.68,622.59a.71.71,0,0,1-.44.73A.81.81,0,0,1,148.68,622.59Z" transform="translate(-76 -381)"/><path class="cls-2" d="M145,623.63a.63.63,0,0,1-.65-.46A.76.76,0,0,1,145,623.63Z" transform="translate(-76 -381)"/><path class="cls-2" d="M145.54,624c-.3,0-.44-.13-.51-.39Z" transform="translate(-76 -381)"/><path class="cls-2" d="M148.1,623.63a.53.53,0,0,1-.39.61A.67.67,0,0,1,148.1,623.63Z" transform="translate(-76 -381)"/><path class="cls-2" d="M164.75,624.34a.68.68,0,0,1-.43-.72A.83.83,0,0,1,164.75,624.34Z" transform="translate(-76 -381)"/><path class="cls-2" d="M146.58,624.68a.65.65,0,0,1-.67-.46A.76.76,0,0,1,146.58,624.68Z" transform="translate(-76 -381)"/><path class="cls-2" d="M165.29,625.26a.5.5,0,0,1-.38-.59Z" transform="translate(-76 -381)"/><path class="cls-2" d="M166.3,627a.77.77,0,0,1-.45-.77A.85.85,0,0,1,166.3,627Z" transform="translate(-76 -381)"/><path class="cls-2" d="M166.85,628a.61.61,0,0,1-.42-.67Z" transform="translate(-76 -381)"/><path class="cls-2" d="M167.39,628.89a.47.47,0,0,1-.37-.57Z" transform="translate(-76 -381)"/><path class="cls-2" d="M168.39,630.61a.71.71,0,0,1-.44-.73A.81.81,0,0,1,168.39,630.61Z" transform="translate(-76 -381)"/><path class="cls-2" d="M168.93,631.53a.52.52,0,0,1-.39-.61A.69.69,0,0,1,168.93,631.53Z" transform="translate(-76 -381)"/><path class="cls-2" d="M170.49,634.22a.65.65,0,0,1-.43-.71A.86.86,0,0,1,170.49,634.22Z" transform="translate(-76 -381)"/><path class="cls-2" d="M171,635.15a.49.49,0,0,1-.38-.58Z" transform="translate(-76 -381)"/><path class="cls-2" d="M172,636.89a.73.73,0,0,1-.45-.76A.89.89,0,0,1,172,636.89Z" transform="translate(-76 -381)"/><path class="cls-2" d="M139.35,637.13c.32,0,.65.09.5.56Z" transform="translate(-76 -381)"/><path class="cls-2" d="M172.58,637.83a.59.59,0,0,1-.41-.66Z" transform="translate(-76 -381)"/><path class="cls-2" d="M139.73,638.22a.46.46,0,0,1-.38.57Z" transform="translate(-76 -381)"/><path class="cls-2" d="M173.13,638.77a.46.46,0,0,1-.38-.55Z" transform="translate(-76 -381)"/><path class="cls-2" d="M138.8,639.78a.75.75,0,0,1-.45.76A.85.85,0,0,1,138.8,639.78Z" transform="translate(-76 -381)"/><path class="cls-2" d="M174.13,640.49a.69.69,0,0,1-.44-.72A.85.85,0,0,1,174.13,640.49Z" transform="translate(-76 -381)"/><path class="cls-2" d="M138.22,640.82a.59.59,0,0,1-.41.66Z" transform="translate(-76 -381)"/><path class="cls-2" d="M174.67,641.41a.51.51,0,0,1-.4-.59Z" transform="translate(-76 -381)"/><path class="cls-2" d="M137.64,641.86a.46.46,0,0,1-.38.57Z" transform="translate(-76 -381)"/><path class="cls-2" d="M136.71,643.42a.75.75,0,0,1-.44.75A.84.84,0,0,1,136.71,643.42Z" transform="translate(-76 -381)"/><path class="cls-2" d="M176.22,644.1a.63.63,0,0,1-.42-.69A.82.82,0,0,1,176.22,644.1Z" transform="translate(-76 -381)"/><path class="cls-2" d="M136.13,644.46a.59.59,0,0,1-.41.66Z" transform="translate(-76 -381)"/><path class="cls-2" d="M176.77,645a.47.47,0,0,1-.39-.57Z" transform="translate(-76 -381)"/><path class="cls-2" d="M135.55,645.51a.46.46,0,0,1-.38.56Z" transform="translate(-76 -381)"/><path class="cls-2" d="M177.77,646.77a.74.74,0,0,1-.45-.75A.87.87,0,0,1,177.77,646.77Z" transform="translate(-76 -381)"/><path class="cls-2" d="M178.3,647.67a.5.5,0,0,1-.39-.6A.65.65,0,0,1,178.3,647.67Z" transform="translate(-76 -381)"/><path class="cls-2" d="M179.86,650.37a.66.66,0,0,1-.43-.71A.84.84,0,0,1,179.86,650.37Z" transform="translate(-76 -381)"/><path class="cls-2" d="M180.4,651.3a.51.51,0,0,1-.39-.59Z" transform="translate(-76 -381)"/><path class="cls-2" d="M125.85,603.64a.52.52,0,0,1-.47-.53Z" transform="translate(-76 -381)"/><path class="cls-2" d="M333.15,603.64a.51.51,0,0,1,.44-.57Z" transform="translate(-76 -381)"/><path class="cls-2" d="M329,583.86a.71.71,0,0,1-.44.74A.84.84,0,0,1,329,583.86Z" transform="translate(-76 -381)"/><path class="cls-2" d="M126.35,604.2a.55.55,0,0,1-.49-.55Z" transform="translate(-76 -381)"/><path class="cls-2" d="M314.8,603.63a.46.46,0,0,1-.44.48Z" transform="translate(-76 -381)"/><path class="cls-2" d="M126.85,604.75a.58.58,0,0,1-.51-.56A.73.73,0,0,1,126.85,604.75Z" transform="translate(-76 -381)"/><path class="cls-2" d="M314.32,604.16a.52.52,0,0,1-.47.52Z" transform="translate(-76 -381)"/><path class="cls-2" d="M127.35,605.3a.61.61,0,0,1-.52-.57A.67.67,0,0,1,127.35,605.3Z" transform="translate(-76 -381)"/><path class="cls-2" d="M313.84,604.69a.56.56,0,0,1-.49.54Z" transform="translate(-76 -381)"/><path class="cls-2" d="M332,605.17a.57.57,0,0,1,.46-.6A.64.64,0,0,1,332,605.17Z" transform="translate(-76 -381)"/><path class="cls-2" d="M127.85,605.85a.65.65,0,0,1-.53-.58A.63.63,0,0,1,127.85,605.85Z" transform="translate(-76 -381)"/><path class="cls-2" d="M313.35,605.23a.58.58,0,0,1-.51.55Z" transform="translate(-76 -381)"/><path class="cls-2" d="M331.58,605.72a.53.53,0,0,1,.45-.56Z" transform="translate(-76 -381)"/><path class="cls-2" d="M128.35,606.38a.63.63,0,0,1-.53-.57A.59.59,0,0,1,128.35,606.38Z" transform="translate(-76 -381)"/><path class="cls-2" d="M312.86,605.76a.62.62,0,0,1-.53.56A.72.72,0,0,1,312.86,605.76Z" transform="translate(-76 -381)"/><path class="cls-4" d="M235.43,643.8l.91-.12c.48-.35,1.14,0,1.6-.43l1-.12c.35-.19.77-.15,1.11-.39l1-.13c.34-.2.77-.14,1.09-.4a.37.37,0,0,0,.47-.08,6.16,6.16,0,0,1,1.26-.4l.82-.14c.34-.22.78-.17,1.11-.41a.36.36,0,0,0,.45-.09c.35-.25.81-.22,1.18-.41l.91-.18c.24-.1.42-.3.68-.33l.88-.19c.24-.1.41-.3.67-.34a.25.25,0,0,0,.37-.1c.34-.27.8-.21,1.16-.43a.29.29,0,0,0,.4-.1c.32-.26.78-.17,1.09-.44a.41.41,0,0,0,.48-.11,1.44,1.44,0,0,1,.75-.37l.17,0,.11-.13c.32-.31.8-.23,1.14-.47a.34.34,0,0,0,.43-.11,1.31,1.31,0,0,1,.77-.38l.16.05.1-.14c.31-.3.79-.21,1.11-.47a.41.41,0,0,0,.47-.13,2.12,2.12,0,0,1,.66-.36.26.26,0,0,0,.37-.12,1.33,1.33,0,0,1,.77-.39l.17,0,.1-.14c.29-.29.76-.18,1-.49h0c.29-.32.77-.23,1.08-.5l.49-.16a3.41,3.41,0,0,0,.57-.36.39.39,0,0,0,.47-.15c.2-.11.4-.23.59-.36a.39.39,0,0,0,.45-.16,5.27,5.27,0,0,0,.59-.37.37.37,0,0,0,.45-.16,3.41,3.41,0,0,0,.57-.36l.48-.18a1.83,1.83,0,0,0,.52-.35h0c.25-.33.75-.22,1-.54h0a1.15,1.15,0,0,1,.76-.44l.18,0,.1-.15a1.58,1.58,0,0,1,.68-.41.26.26,0,0,0,.36-.15l.61-.4a.36.36,0,0,0,.44-.19,1.41,1.41,0,0,0,.51-.35h0a1.06,1.06,0,0,1,.74-.45.18.18,0,0,0,.29-.14,4.81,4.81,0,0,1,.6-.4l0,0c.2-.4.73-.27,1-.59h0a1.32,1.32,0,0,1,.68-.45A.26.26,0,0,0,277,627a5.44,5.44,0,0,0,.55-.39h0a1,1,0,0,1,.73-.47.2.2,0,0,0,.3-.16l.56-.41,0,0a.94.94,0,0,1,.73-.5.2.2,0,0,0,.3-.16c.18-.13.37-.26.55-.41h0a1,1,0,0,1,.69-.48.25.25,0,0,0,.34-.19,1.92,1.92,0,0,0,.51-.39h0c.18-.18.33-.4.61-.45l0,0c.16-.43.72-.28.92-.64l0,0,.57-.44h0a1.07,1.07,0,0,1,.65-.49.3.3,0,0,0,.38-.24.72.72,0,0,0,.44-.36l.06,0c.19-.14.37-.29.56-.45h0a1.12,1.12,0,0,1,.59-.48l0,0a.79.79,0,0,1,.72-.54c.17,0,.26,0,.28-.2a1.43,1.43,0,0,0,.48-.4l0,0a6.33,6.33,0,0,1,.56-.47l0,0a1.19,1.19,0,0,1,.59-.5l0,0a.83.83,0,0,1,.66-.54.28.28,0,0,0,.35-.25.59.59,0,0,0,.41-.36l.08-.06a1.8,1.8,0,0,0,.5-.45l0,0,.54-.48h0a1.92,1.92,0,0,1,.56-.5l0,0a1,1,0,0,1,.57-.52l0,0a.78.78,0,0,1,.58-.53l0,0a.61.61,0,0,1,.57-.53l0,0a.68.68,0,0,1,.68-.58c.19,0,.28-.07.29-.25a.52.52,0,0,0,.38-.38l.1-.08a.81.81,0,0,0,.44-.43l.08-.07a1,1,0,0,0,.46-.45l.07-.06a1.35,1.35,0,0,0,.47-.45l.05,0a1.79,1.79,0,0,0,.48-.47l0,0a1.65,1.65,0,0,0,.48-.47l0,0a1.79,1.79,0,0,0,.48-.47l0,0a2,2,0,0,0,.48-.47l0-.05a1.44,1.44,0,0,0,.47-.48l.05-.06a1.13,1.13,0,0,0,.45-.47l.07-.07a.83.83,0,0,0,.43-.45l.07-.08c.55-.32.59-1.1,1.23-1.35l0,0a.57.57,0,0,1,.52-.58l0,0a.71.71,0,0,1,.53-.58l0,0a.89.89,0,0,1,.52-.58l0,0a1.45,1.45,0,0,1,.51-.56h0a5.19,5.19,0,0,1,.49-.55v0a2.29,2.29,0,0,0,.46-.52l.05-.06a.74.74,0,0,0,.38-.43.23.23,0,0,0,.23-.3.76.76,0,0,1,.56-.69l0,0a.93.93,0,0,1,.5-.6l0,0a2.21,2.21,0,0,1,.49-.57h0a2.93,2.93,0,0,0,.45-.54l0-.06c.38-.17.22-.76.67-.88l0,0a.84.84,0,0,1,.49-.61l0,0a3.31,3.31,0,0,1,.47-.58v0a1.16,1.16,0,0,0,.4-.48c.18,0,.25-.14.2-.32a.92.92,0,0,1,.52-.7l0,0a2.42,2.42,0,0,1,.45-.6l0,0c.33-.22.18-.8.66-.93l0,0a.84.84,0,0,1,.46-.62h0c.15-.18.29-.38.43-.57l0-.06c.39-.19.24-.75.63-.93l0,0c.08-.25.3-.4.44-.61l0,0c.35-.22.21-.77.62-1l0,0a1.18,1.18,0,0,0,0-1.19h0c-.31-.22-.83-.08-1-.57l0,0a4.05,4.05,0,0,1-1.61-.92l0,0c-.28-.27-.78-.15-1-.56h0c-.31-.22-.83-.07-1-.57l0,0a3.82,3.82,0,0,1-1.62-.93h0c-.29-.27-.8-.14-1-.57h0c-.32-.2-.84-.05-1-.56l0,0a3.44,3.44,0,0,1-1.62-.93h0c-.29-.26-.8-.13-1-.57h0a6.56,6.56,0,0,1-1.6-.93l0,0c-.26-.3-.76-.18-1-.55h0c-.52-.38-1.27-.72-.33-1.44a.19.19,0,0,0,.3-.13,2.84,2.84,0,0,1,.63-.41.33.33,0,0,0,.42-.18,3.17,3.17,0,0,0,.54-.36h0c.24-.34.74-.21,1-.56l0,0a1.59,1.59,0,0,1,.69-.42A.26.26,0,0,0,304,578l.6-.39a.39.39,0,0,0,.45-.19,1.32,1.32,0,0,0,.51-.36h0a1,1,0,0,1,.75-.45l.18,0,.1-.15a1.87,1.87,0,0,1,.65-.42.31.31,0,0,0,.4-.17,4.07,4.07,0,0,0,.55-.37h0c.24-.36.75-.24,1-.57h0a1.29,1.29,0,0,1,.71-.43.24.24,0,0,0,.34-.15,2.86,2.86,0,0,1,.62-.4.36.36,0,0,0,.43-.18,2.14,2.14,0,0,0,.52-.37h0c.24-.33.75-.2,1-.55l.05,0a1.87,1.87,0,0,1,.68-.43.28.28,0,0,0,.38-.16l.56-.38,0,0c.23-.38.74-.26,1-.57h0a1.08,1.08,0,0,1,.73-.44.21.21,0,0,0,.31-.14,2.35,2.35,0,0,1,.63-.41.33.33,0,0,0,.41-.17,2.62,2.62,0,0,0,.54-.38h0c.24-.34.75-.22,1-.56l0,0a1.5,1.5,0,0,1,.69-.43.25.25,0,0,0,.35-.15c.2-.14.4-.27.61-.39a.38.38,0,0,0,.44-.19,1.73,1.73,0,0,0,.52-.36h0a1.06,1.06,0,0,1,.76-.46l.18,0,.09-.15a1.91,1.91,0,0,1,.66-.42.29.29,0,0,0,.39-.17c.19-.11.38-.24.56-.37h0c.23-.36.74-.24,1-.57h0a1.27,1.27,0,0,1,.71-.44.22.22,0,0,0,.33-.14,3.2,3.2,0,0,1,.63-.4.34.34,0,0,0,.42-.18,2.4,2.4,0,0,0,.53-.37h0c.25-.33.75-.2,1-.55l0,0a1.62,1.62,0,0,1,.68-.43.27.27,0,0,0,.37-.15l.57-.39,0,0c.23-.38.74-.26,1-.57h0a1.12,1.12,0,0,1,.74-.45l.19,0,.11-.15a2.06,2.06,0,0,1,.64-.41.33.33,0,0,0,.41-.17,4,4,0,0,0,.54-.38h0c.24-.35.74-.22,1-.56l0,0a1.43,1.43,0,0,1,.7-.43.25.25,0,0,0,.35-.15,4.28,4.28,0,0,1,.61-.4.36.36,0,0,0,.44-.18,1.82,1.82,0,0,0,.51-.36h0c.24-.33.74-.19,1-.56l.06,0a2,2,0,0,1,.67-.42.29.29,0,0,0,.38-.16c.2-.12.38-.25.57-.38h0c.23-.37.74-.25,1-.57h0a1.18,1.18,0,0,1,.77-.43l-.05-.07c1.13.65.53,1.72.53,2.55.05,11.14,0,22.27.05,33.41a6.9,6.9,0,0,0,.21,2.82,8.19,8.19,0,0,0-.17,3A57.29,57.29,0,0,0,343,605c-.15.43-.2,1-.92.68h0c-.3-.23-.82-.1-1-.57l0,0a4.2,4.2,0,0,1-1.61-.93h0c-.28-.28-.78-.16-1-.56h0c-.3-.22-.82-.08-1-.57l0,0a4,4,0,0,1-1.62-.93h0c-.28-.27-.79-.14-1-.56h0c-.31-.2-.83-.06-1-.56l0,0a3.67,3.67,0,0,1-1.62-.93h0c-.28-.27-.79-.14-1-.57h0c-.32-.2-.84,0-1-.57l0,0a3.29,3.29,0,0,1-1.62-.92h0c-.3-.26-.8-.13-1-.56v0a.67.67,0,0,0-.63.05h0a4.63,4.63,0,0,1-.43.56l0,.06c-.35.21-.21.75-.61.94l0,0c-.07.25-.28.39-.42.59l0,.06c-.35.21-.21.76-.62.93l0,0c-.06.27-.27.41-.44.6l0,0c-.32.23-.17.8-.64.93l0,0a.81.81,0,0,1-.45.61h0a5.47,5.47,0,0,1-1.1,1.52l0,0a1,1,0,0,1-.46.59v0c-.39.48-.57,1.13-1.12,1.5l0,0a1,1,0,0,1-.47.59h0c-.39.48-.53,1.16-1.15,1.47l.11.09-.09-.11a.64.64,0,0,1-.48.59h0a1.26,1.26,0,0,1-.48.57h0a8.8,8.8,0,0,1-1.65,2l0,0a.73.73,0,0,1-.5.58l0,0a1.16,1.16,0,0,1-.5.57h0a4,4,0,0,1-.48.53l0,0a7.27,7.27,0,0,1-1.7,1.92.48.48,0,0,1-.5.55l.12.11-.11-.12a.57.57,0,0,1-.51.56h0a.72.72,0,0,1-.52.56l0,0a.89.89,0,0,1-.52.55v0a.92.92,0,0,1-.52.54h0a1.09,1.09,0,0,1-.52.54h0a1.29,1.29,0,0,1-.53.53h0a1.44,1.44,0,0,1-.51.53h0a2.29,2.29,0,0,1-.51.52h0a2.51,2.51,0,0,1-.51.52h0a1.84,1.84,0,0,1-.52.52h0a1.52,1.52,0,0,1-.53.51h0a1.18,1.18,0,0,1-.53.53h0a1.05,1.05,0,0,1-.54.52h0a.9.9,0,0,1-.54.52h0a.78.78,0,0,1-.55.51h0a.64.64,0,0,1-.55.51l.11.09-.11-.1a.52.52,0,0,1-.54.5,12.06,12.06,0,0,1-2.48,2.19l0,0a2.47,2.47,0,0,1-.53.49h0a.88.88,0,0,1-.56.49h0a.59.59,0,0,1-.57.48c-.28.61-1,.72-1.41,1.15l-.06,0a3.3,3.3,0,0,1-.53.46h0a.88.88,0,0,1-.57.48h0a8.29,8.29,0,0,1-2,1.6h0a.72.72,0,0,1-.59.46c-.33.59-1,.76-1.48,1.11h0c-.15.22-.29.44-.6.44a3.47,3.47,0,0,1-1.5,1.09h0a7,7,0,0,1-1.52,1.06l0,0c-.15.2-.29.43-.6.42-.12.47-.67.32-.92.61l0,0a1.09,1.09,0,0,1-.58.41c-.15.46-.69.31-.94.6l0,0a1,1,0,0,1-.6.4c-.14.48-.68.33-.94.61h0a7.66,7.66,0,0,1-1.58,1h0a3.37,3.37,0,0,1-1.59,1h0c-.15.49-.67.35-1,.59h0c-.22.38-.72.25-1,.55l-.05,0a5.58,5.58,0,0,1-1.6.93h0c-.18.45-.69.32-1,.55h0c-.23.39-.72.28-1,.54h0c-.24.35-.72.23-1,.52l-.05,0a29.86,29.86,0,0,1-5.15,2.58l-.05,0c-.27.31-.73.21-1,.48h0c-.26.34-.72.26-1,.49h0c-.25.38-.71.3-1.06.47h0c-.73.63-1.71.67-2.53,1.1h0c-.28.35-.72.28-1.07.44h0c-.31.64-1.08.13-1.46.59l0,0c-.28.32-.72.27-1.07.42h0c-.33.64-1.09.14-1.5.58h0a9.57,9.57,0,0,1-2.64.94h0c-.33.68-1.06.2-1.52.53h0c-.36.64-1.07.2-1.54.5h0c-1.09.68-2.4.68-3.56,1.12h0c-.43.49-1.11.13-1.59.45h0c-.52.73-1.45,0-2,.58h0c-.57.62-1.46,0-2.06.52h0c-.59.6-1.47,0-2.08.51h0c-.6.61-1.45.06-2.1.46h0c-.73.8-1.79,0-2.57.55h0c-2,.7-4.14.69-6.19,1.09h0c-1.13.73-2.49-.12-3.64.52h0c-1.49.79-3.18-.15-4.68.53l0,0c-2,.72-4,.12-6.06.32-.92.09-1.88-.22-2.77.23l0,0a6.83,6.83,0,0,1-4.57,0h0c-.58-.5-1.52.23-2-.58l0,0a3.05,3.05,0,0,1-1.59-1h0a1.05,1.05,0,0,1-.56-.5h0a1.13,1.13,0,0,1-.51-.55h0a.66.66,0,0,1-.46-.6l0,0c-.52-.15-.39-.68-.59-1l0,0c-.62-.43-.22-1.2-.56-1.73v-2.65A4.87,4.87,0,0,1,203,651l.14-.13,0-.19a1.36,1.36,0,0,1,.42-.73v0c.35-.22.2-.79.66-.93l0,0a.72.72,0,0,1,.54-.57l0,0a.8.8,0,0,1,.64-.56.25.25,0,0,0,.35-.19,2.55,2.55,0,0,0,.53-.38h0c.28-.34.77-.24,1.09-.51a.4.4,0,0,0,.46-.09c1.62-.53,3.34.15,5-.43a27.09,27.09,0,0,0,6-.11c1-.46,2.2.14,3.22-.4a7.31,7.31,0,0,0,2.51-.13c.57-.26,1.23-.11,1.8-.37a4,4,0,0,0,1.85-.14c.54-.3,1.19-.09,1.74-.38l1.38-.14c.52-.32,1.17-.05,1.68-.39l1.45-.15C234.63,644,235.06,644,235.43,643.8Z" transform="translate(-76 -381)"/><path class="cls-4" d="M298.28,412.88a.28.28,0,0,0,.35.24.83.83,0,0,1,.66.54l0,0a1.16,1.16,0,0,1,.59.5h0a3.28,3.28,0,0,1,.56.49h0a3.8,3.8,0,0,0,.52.46l.06,0a1,1,0,0,0,.47.43l.1.07c.13.4.74.23.83.69l0,0a.64.64,0,0,1,.58.52l0,0a.84.84,0,0,1,.58.52l0,0a1.27,1.27,0,0,1,.57.53l0,0a1.55,1.55,0,0,1,.56.52h0a3.64,3.64,0,0,1,.54.5h0l.52.49,0,0a3.86,3.86,0,0,0,.5.49l0,0a2.84,2.84,0,0,0,.5.48l0,0a1.65,1.65,0,0,0,.48.47l0,.05a1.41,1.41,0,0,0,.48.46l.06.06a1.11,1.11,0,0,0,.46.45l.07.07a1,1,0,0,0,.45.45l.07.07a1.05,1.05,0,0,0,.45.46l.06.06a1.3,1.3,0,0,0,.46.47l0,.05a1.72,1.72,0,0,0,.48.49l0,0a2.48,2.48,0,0,0,.48.49l0,0a3.94,3.94,0,0,0,.49.51l0,0c.16.18.32.35.49.52h0a4.27,4.27,0,0,1,.5.54h0a1.68,1.68,0,0,1,.51.55l0,0a1.3,1.3,0,0,1,.53.56l0,0a.9.9,0,0,1,.52.59l0,0a.69.69,0,0,1,.53.58l0,0a.7.7,0,0,1,.58.69c0,.18.05.27.22.28a.78.78,0,0,0,.39.43l.05.06a2.29,2.29,0,0,0,.46.52v0a4.2,4.2,0,0,1,.48.55h0a1.18,1.18,0,0,1,.5.58l0,0a.72.72,0,0,1,.51.6l0,0c.47.1.3.7.69.87l0,.06a2.08,2.08,0,0,0,.45.53h0a2.39,2.39,0,0,1,.48.58l0,0a.84.84,0,0,1,.49.61l0,0c.45.12.29.71.67.89l0,.06a3.79,3.79,0,0,0,.44.55h0a1.17,1.17,0,0,1,.47.6l0-.05a.84.84,0,0,1,.54.74v.18l.17.09a3.48,3.48,0,0,0,.41.52h0a1.24,1.24,0,0,1,.47.61l0-.05c.43.16.28.73.65.92l0,.06c.12.21.32.36.44.58l0,0a1,1,0,0,1,.5.7q-.07.27.18.33a2.06,2.06,0,0,0,.4.52h0a1.09,1.09,0,0,1,.44.63l0-.05c.45.16.31.72.64,1h0a1.29,1.29,0,0,1,.44.62l0,0c.44.17.31.72.63,1h0a1.34,1.34,0,0,1,.46.69.25.25,0,0,0,.18.36,3.29,3.29,0,0,0,.38.54v0a1,1,0,0,1,.48.75l0,.19.16.1a6.19,6.19,0,0,1,.41.59l0,0c.39.21.27.74.59,1h0a1.22,1.22,0,0,1,.44.73.22.22,0,0,0,.16.32c.14.19.27.39.39.59l0,0c.4.23.29.74.58,1h0c.32.25.2.75.55,1l0,0a1.5,1.5,0,0,1,.42.73.22.22,0,0,0,.14.33,2.28,2.28,0,0,1,.4.65.29.29,0,0,0,.16.39c.12.2.24.39.37.58l0,0c.39.25.3.75.56,1.06v0c.35.26.26.76.54,1.06v0c.34.27.25.76.53,1.06v0c.34.27.25.76.53,1.06v0c.34.28.26.76.53,1.07v0c.35.27.27.75.51,1.08v0c.39.28.3.78.53,1.14a.29.29,0,0,0,.13.4,1.93,1.93,0,0,1,.37.71.21.21,0,0,0,.12.33c.25.3.15.76.47,1h0c.29.3.23.76.49,1.08l0,0c.37.31.32.8.51,1.19a.22.22,0,0,0,.11.35c.25.31.17.77.46,1.06h0c.33.33.29.81.48,1.19a.25.25,0,0,0,.11.37c.25.31.18.76.44,1.08v0a2.65,2.65,0,0,1,.49,1.3l-.05.15.13.1c.31.34.27.82.45,1.21a.22.22,0,0,0,.1.35c.27.35.23.81.43,1.18a.27.27,0,0,0,.1.39c.26.34.21.8.43,1.16a.27.27,0,0,0,.09.4c.25.36.23.81.42,1.19a.24.24,0,0,0,.09.37,4.78,4.78,0,0,1,.41,1.28l0,.16.13.12c.45.46.07,1.17.49,1.63a.34.34,0,0,0,.09.46,7,7,0,0,1,.39,1.25l-.06.18.13.12c.43.5.12,1.2.47,1.72a.23.23,0,0,0,.07.37c.4.51.11,1.19.44,1.72a.22.22,0,0,0,.08.36c.39.54.16,1.24.43,1.81l.13.8c.33.53.08,1.19.41,1.71a.22.22,0,0,0,.06.37c.49.69,0,1.57.45,2.27l.12.86c.41.69,0,1.53.41,2.22,0,.3.07.6.11.9.38.74.05,1.61.41,2.36a1.66,1.66,0,0,0,.11,1.29c.5,1-.11,2.23.42,3.26a2.3,2.3,0,0,0,.09,1.42c.53,1.44-.12,3,.43,4.44a6.68,6.68,0,0,0,.09,2.85,25,25,0,0,1,0,7.28.28.28,0,0,0-.07.41c-.23.36-.17.82-.44,1.15l-.15.11,0,.18a1,1,0,0,1-.45.74v0a5.58,5.58,0,0,1-2.08,2l0,0a6.35,6.35,0,0,1-7.75,0h0a5.32,5.32,0,0,1-2.08-2h0c-.33-.25-.21-.75-.55-1l0,0c-.27-.35-.24-.81-.44-1.19a.23.23,0,0,0-.07-.37c-.67-3.19.18-6.45-.46-9.63a2.68,2.68,0,0,0-.08-1.83c-.58-1.39.15-2.91-.44-4.29a1.1,1.1,0,0,0-.08-.92c-.47-.91,0-1.95-.43-2.86a.73.73,0,0,0-.08-.79c-.54-.83.08-1.87-.46-2.7a.28.28,0,0,0-.06-.42c-.47-.69,0-1.56-.44-2.27l.08-.18-.14-.15c-.52-.66,0-1.55-.47-2.23a.23.23,0,0,0-.07-.38c-.38-.55-.16-1.24-.43-1.82l.06-.15-.12-.11c-.43-.54-.19-1.25-.46-1.84l.06-.14-.12-.1c-.45-.51-.15-1.22-.47-1.77l.07-.18-.14-.14c-.44-.46-.07-1.16-.48-1.64a.32.32,0,0,0-.09-.44,8.57,8.57,0,0,1-.4-1.21.21.21,0,0,0-.09-.35,4.47,4.47,0,0,1-.42-1.28l.06-.17-.14-.11a3.63,3.63,0,0,1-.44-1.31l.05-.15-.13-.1a3.63,3.63,0,0,1-.44-1.27l.05-.18-.14-.12c-.3-.34-.25-.81-.45-1.19a.24.24,0,0,0-.1-.37c-.26-.32-.19-.77-.44-1.09v0a2.56,2.56,0,0,1-.49-1.29l0-.16-.13-.09c-.3-.31-.22-.77-.46-1.1l0,0c-.39-.34-.38-.83-.51-1.27l0-.17-.14-.1c-.29-.3-.2-.76-.47-1.07h0c-.34-.28-.28-.75-.48-1.1l0,0c-.43-.29-.37-.8-.54-1.2a.21.21,0,0,0-.12-.33c-.26-.28-.14-.75-.48-1v0c-.28-.29-.18-.76-.5-1v0c-.3-.28-.21-.76-.51-1h0c-.31-.27-.21-.75-.51-1h0c-.32-.27-.22-.75-.53-1v0c-.31-.27-.2-.75-.52-1l0,0c-.29-.26-.16-.75-.52-1l0,0c-.14-.21-.4-.35-.37-.65l0,0c-.5-.17-.38-.69-.59-1l0,0c-.43-.21-.32-.72-.58-1v0c-.36-.24-.24-.74-.56-1l0,0c-.17-.18-.4-.34-.39-.64l0,0c-.51-.15-.37-.69-.61-1v0c-.39-.21-.26-.73-.59-1v0c-.17-.19-.41-.33-.41-.63l0,0c-.48-.16-.34-.7-.62-1h0c-.21-.16-.44-.32-.41-.64l-.09.11.11-.09c-.53-.11-.37-.67-.64-1h0a7.18,7.18,0,0,1-1.05-1.57h0c-.23-.15-.45-.31-.42-.63l-.1.11.11-.1c-.52-.09-.36-.67-.65-.93h0a.91.91,0,0,1-.45-.6l0,0c-.46-.13-.31-.7-.65-.92l0,0a4.21,4.21,0,0,1-.44-.58v0c-.24-.13-.46-.29-.45-.61l-.08.11.1-.09c-.5-.1-.34-.68-.66-.9l0,0a1.93,1.93,0,0,1-.45-.57v0a.71.71,0,0,1-.46-.61l-.09.11.1-.09c-.61-.31-.75-1-1.14-1.47h0a1.07,1.07,0,0,1-.48-.57l0,0a.64.64,0,0,1-.48-.59l-.09.11.1-.1c-.62-.28-.72-1-1.16-1.42l0,0a4.78,4.78,0,0,1-.47-.54h0a1.1,1.1,0,0,1-.5-.56l0,0a.73.73,0,0,1-.5-.58v0a.54.54,0,0,1-.49-.57l-.12.14.13-.13A8.6,8.6,0,0,1,302,436l0-.05c-.15-.17-.3-.34-.46-.5l0,0c-.17-.16-.33-.33-.49-.51l0,0a3,3,0,0,1-.49-.51h0a2.51,2.51,0,0,1-.51-.52h0a1.42,1.42,0,0,1-.52-.54h0a1.26,1.26,0,0,1-.52-.53h0a1.26,1.26,0,0,1-.53-.52h0a1.21,1.21,0,0,1-.53-.52h0a1.21,1.21,0,0,1-.53-.52h0a1.47,1.47,0,0,1-.54-.51h0a2.29,2.29,0,0,1-.52-.51h0a3.39,3.39,0,0,1-.51-.49l0,0a17.08,17.08,0,0,1-3-2.71.54.54,0,0,1-.56-.49l-.09.1.1-.09a.75.75,0,0,1-.57-.49h0a1.14,1.14,0,0,1-.55-.49h0a4.62,4.62,0,0,1-.52-.46l-.06,0c-.43-.44-1.12-.55-1.41-1.15a.64.64,0,0,1-.58-.47h0a1.17,1.17,0,0,1-.56-.47l0,0c-.47-.39-1.14-.53-1.45-1.13a.73.73,0,0,1-.59-.45h0c-.52-.33-1.17-.5-1.48-1.11l-.09.13.08-.14c-.31,0-.46-.2-.59-.43h0a4.27,4.27,0,0,1-1.51-1.08c-.28,0-.42-.24-.58-.44l0,0c-.25-.29-.81-.13-.91-.62l-.09.14.08-.15c-.31,0-.46-.2-.61-.41h0c-.73-.46-1.46-1.05-2.22,0l0,0c0,.29-.26.43-.39.64l0,.05c-.35.22-.22.72-.54,1h0c-.3.27-.18.79-.57,1v0c-.24.31-.11.84-.59,1l0,0c0,.3-.25.43-.39.64l0,0c-.34.24-.21.74-.54,1h0c-.28.29-.17.8-.57,1v0c-.23.33-.1.85-.59,1l0,0c0,.3-.23.44-.39.64v0c-.34.24-.22.74-.55,1h0c-.29.29-.17.81-.59,1l0,0c-.22.33-.09.86-.6,1l0,0c0,.3-.22.45-.39.64v0c-.33.26-.21.76-.56,1h0c-.27.29-.16.81-.59,1l0,0c-.78.75-1.1.1-1.43-.48v0c-.39-.22-.27-.73-.57-1h0c-.32-.25-.18-.75-.55-1l0-.07c-.12-.21-.36-.35-.39-.62l0,0c-.45-.19-.33-.71-.59-1h0c-.36-.23-.24-.74-.56-1v0c-.18-.19-.4-.35-.39-.65l0,0c-.51-.15-.37-.69-.6-1l0,0c-.41-.21-.29-.72-.58-1h0c-.34-.24-.21-.74-.56-1l0-.05c-.14-.21-.38-.34-.39-.63l0,0c-.46-.18-.34-.71-.59-1h0c-.38-.22-.26-.73-.57-1v0c-.18-.18-.42-.33-.38-.65l0,0c-.53-.14-.39-.68-.6-1l0,0c-.43-.21-.32-.73-.59-1h0c-.34-.24-.22-.74-.55-1l0,0c-.16-.2-.41-.34-.39-.64l0,0c-.49-.17-.36-.7-.59-1v0c-.4-.22-.28-.73-.58-1h0c-.32-.24-.19-.74-.55-1l0-.06c-.13-.21-.37-.35-.39-.63l0,0c-.46-.19-.34-.72-.59-1h0c-.36-.23-.24-.73-.56-1l0,0c-.17-.19-.4-.34-.38-.64l0,0c-.51-.15-.38-.69-.6-1l0,0c-.42-.21-.3-.73-.58-1h0c-.33-.24-.2-.75-.55-1l0-.05c-.14-.2-.39-.34-.39-.63l0,0c-.47-.18-.35-.71-.59-1v0c-.38-.23-.26-.74-.57-1v0c-.18-.18-.42-.34-.38-.65l0,0c-.54-.13-.39-.67-.6-1l0,0c-.44-.2-.32-.72-.59-1h0c-.35-.23-.23-.74-.56-1v0c-.16-.2-.41-.33-.39-.64l0,0c-.49-.16-.36-.69-.59-1v0c-.4-.22-.28-.73-.58-1h0c-.33-.25-.2-.75-.55-1l0-.06c-.13-.2-.37-.34-.39-.63l0,0c-.46-.19-.34-.71-.6-1v0c-.37-.23-.25-.74-.56-1l0,0c-.17-.19-.4-.34-.38-.65l0,0c-.52-.15-.38-.68-.6-1l0,0c-.42-.2-.31-.72-.58-1h0c-.34-.24-.22-.74-.56-1l0,0c-.15-.2-.4-.34-.39-.63l0,0c-.58-.54-.29-1,.27-1.15a6.07,6.07,0,0,1,1.81-.07c15,0,30,0,45,.06.69,0,2.44-1,2.1,1.17l0,0c0,.28-.27.42-.39.63l0,.06c-.36.21-.23.71-.55,1h0c-.3.28-.19.78-.57,1v0c-.24.31-.12.84-.59,1l0,0c0,.28-.26.42-.39.63l0,.05c-.35.23-.22.73-.54,1h0c-.29.28-.18.79-.57,1v0c-.23.32-.11.84-.59,1l0,0c0,.29-.25.43-.39.63l0,.05c-.34.23-.21.73-.55,1h0c-.28.28-.17.79-.57,1v0c-.23.32-.1.85-.59,1l0,0c0,.31-.23.45-.39.65v0c-.34.25-.22.75-.56,1h0c-.27.29-.16.8-.57,1l0,0c-.19.52-.42,1,.07,1.53a.23.23,0,0,0,.34.17,1.26,1.26,0,0,1,.68.47h0a2.15,2.15,0,0,0,.52.39.27.27,0,0,0,.36.19,1.11,1.11,0,0,1,.68.48h0a5.47,5.47,0,0,0,.54.41.22.22,0,0,0,.31.17.89.89,0,0,1,.71.5l0,0a4.21,4.21,0,0,1,.58.44l.05,0c.21.35.77.2.92.64l0,0a1.08,1.08,0,0,1,.6.47h0a4.61,4.61,0,0,0,.55.44l.07,0c.18.38.75.22.9.65l0,0a1.14,1.14,0,0,1,.61.47h0c.18.15.36.3.55.44l.06,0a.7.7,0,0,0,.44.37.28.28,0,0,0,.36.23.93.93,0,0,1,.66.53l0,0a1.91,1.91,0,0,1,.58.48h0a3.18,3.18,0,0,0,.53.44l.07.05A.65.65,0,0,0,298.28,412.88Z" transform="translate(-76 -381)"/><text class="cls-5" transform="translate(302.38 223.47)"><tspan class="cls-6">f</tspan><tspan x="79.72" y="0">e</tspan><tspan class="cls-7" x="207.5" y="0">m</tspan><tspan x="414.31" y="0">f</tspan><tspan class="cls-8" x="495.66" y="0">y</tspan></text></svg>