<svg id="Capa_1" data-name="Capa 1" xmlns="http://www.w3.org/2000/svg" viewBox="0 0 928.42 296"><defs><style>.cls-1{fill:#fdfdfd;}.cls-2{fill:#a35edf;}.cls-2,.cls-4{stroke:#fff;}.cls-2,.cls-3,.cls-4{stroke-miterlimit:10;stroke-width:2px;}.cls-3,.cls-4{fill:#d7b3f7;}.cls-3{stroke:#f9f9f9;}</style></defs><title>isologotipoDos</title><path d="M405.81,504.82H390.57l4.22-19.93h15.47l.94-4.92q3-15.24,10.08-26.15a52.72,52.72,0,0,1,16.89-16.88,40.39,40.39,0,0,1,21.33-6A46.88,46.88,0,0,1,473,433a49.88,49.88,0,0,1,12.31,5.51l-9.61,19.22a19.88,19.88,0,0,0-7.15-3.63,29.18,29.18,0,0,0-8.32-1.29,18.22,18.22,0,0,0-14.31,6.8q-5.86,6.8-8.67,19.69l-1.17,5.63H465.6l-4.46,19.93H431.6L400,654.41H374.16Z" transform="translate(-69.66 -371.22)"/><path d="M511.79,606.81q-15.48,0-26.5-6.73a43.87,43.87,0,0,1-16.76-18.35,58.47,58.47,0,0,1-5.75-26.26A72.54,72.54,0,0,1,468.41,527a75,75,0,0,1,69.87-46.12,58.86,58.86,0,0,1,22.16,3.84,32.69,32.69,0,0,1,14.77,11.14q5.28,7.32,5.28,18.46,0,18.57-17,28.33t-51.7,9.75q-6.57,0-14.77-.35t-18.53-1.29L482,534.13q9.38.47,16.65.94t13.6.47q16.63,0,26.26-2.53t13.83-7.25a15.55,15.55,0,0,0,4.22-10.69,13.23,13.23,0,0,0-2.58-8.51,16.24,16.24,0,0,0-7.27-4.94,32.66,32.66,0,0,0-11.25-1.72,40.49,40.49,0,0,0-19,4.51,45,45,0,0,0-14.89,12.49A61.21,61.21,0,0,0,492,534.84a64.55,64.55,0,0,0-3.4,21A42.58,42.58,0,0,0,491.51,572a25,25,0,0,0,9.14,11.57q6.21,4.29,15.59,4.28a40.59,40.59,0,0,0,19.46-5,38.42,38.42,0,0,0,14.78-13.72l20.4,6.34a64,64,0,0,1-15.25,16.29,74.77,74.77,0,0,1-20.75,11.14A69.53,69.53,0,0,1,511.79,606.81Z" transform="translate(-69.66 -371.22)"/><path d="M612.14,482.78h23.21l-5.15,24.6a67.94,67.94,0,0,1,22-19.39,54.38,54.38,0,0,1,26.49-7.09q9.38,0,15.59,3.37a21.5,21.5,0,0,1,9.26,9.52,37.67,37.67,0,0,1,3.52,14.75,80.35,80.35,0,0,1,14.66-15.21A59.08,59.08,0,0,1,738.4,484a52.39,52.39,0,0,1,17.71-3.14q10.3,0,16.29,3.72A20.78,20.78,0,0,1,781,494.84a40.79,40.79,0,0,1,2.58,15.1,68.56,68.56,0,0,1-.71,9.29q-.69,5.12-1.87,11.15L765,604.47h-25.8l14.54-67.91a67.78,67.78,0,0,0,1.88-14.6q0-9.27-4-13.67t-11-4.41a29.7,29.7,0,0,0-13.72,3.57,47.25,47.25,0,0,0-12.89,10,68.69,68.69,0,0,0-10.44,15l-15.24,72H662.55l14.54-68.05a50.3,50.3,0,0,0,1.52-8c.24-2.4.35-4.69.35-6.86q0-9.18-3.75-13.42t-11-4.25q-9.84,0-20.16,7.84a57.41,57.41,0,0,0-16.65,20.52l-15.71,72.23H585.88Z" transform="translate(-69.66 -371.22)"/><path d="M820.12,504.82H804.88l4.22-19.93h15.47l.94-4.92q3-15.24,10.08-26.15a52.8,52.8,0,0,1,16.88-16.88,40.45,40.45,0,0,1,21.34-6,46.88,46.88,0,0,1,13.48,2,49.88,49.88,0,0,1,12.31,5.51L890,457.69a20,20,0,0,0-7.15-3.63,29.25,29.25,0,0,0-8.33-1.29,18.22,18.22,0,0,0-14.3,6.8q-5.87,6.8-8.67,19.69l-1.18,5.63h29.55l-4.46,19.93H845.91L814.25,654.41H788.46Z" transform="translate(-69.66 -371.22)"/><path d="M864.66,636.78a93.81,93.81,0,0,0,16-3,28.17,28.17,0,0,0,10.66-5.92,61.57,61.57,0,0,0,9.5-11.27l6.8-9.75-22-124H912l13.83,99,8-13q8.67-13.94,14.89-25.2t10.67-21.14A196,196,0,0,0,967,502.87q3.16-9.63,5.74-20.09h25.33q-3.06,11.14-6.8,21t-8.91,20.56q-5.16,10.68-13,24t-19.58,31.94L931,610.3a217.45,217.45,0,0,1-15.48,21.84,80.34,80.34,0,0,1-14.65,14.16,52.31,52.31,0,0,1-15.36,7.79,65.07,65.07,0,0,1-17.35,2.67Z" transform="translate(-69.66 -371.22)"/><path class="cls-1" d="M387.41,580.84a1.13,1.13,0,0,1,.58-1.08C388,580.25,388,580.68,387.41,580.84Z" transform="translate(-69.66 -371.22)"/><path class="cls-1" d="M386.83,581.89a1.21,1.21,0,0,1,.59-1.08C387.48,581.32,387.43,581.75,386.83,581.89Z" transform="translate(-69.66 -371.22)"/><path class="cls-1" d="M121.92,625.66a4.68,4.68,0,0,1,2,1.76A2,2,0,0,1,121.92,625.66Z" transform="translate(-69.66 -371.22)"/><path class="cls-1" d="M133.72,635.45a2.7,2.7,0,0,1,1.55,1.12A1.37,1.37,0,0,1,133.72,635.45Z" transform="translate(-69.66 -371.22)"/><path class="cls-1" d="M131.57,633.82a2.64,2.64,0,0,1,1.52,1.14A1.36,1.36,0,0,1,131.57,633.82Z" transform="translate(-69.66 -371.22)"/><path class="cls-1" d="M129.46,632.16a2.51,2.51,0,0,1,1.5,1.17C130.14,633.34,129.56,633.05,129.46,632.16Z" transform="translate(-69.66 -371.22)"/><path class="cls-1" d="M126.21,629.47a2.55,2.55,0,0,1,1.45,1.19C126.87,630.63,126.32,630.32,126.21,629.47Z" transform="translate(-69.66 -371.22)"/><path class="cls-1" d="M346.84,489.73a3.06,3.06,0,0,1,.51,2.26C346.54,491.38,346.86,490.51,346.84,489.73Z" transform="translate(-69.66 -371.22)"/><path class="cls-1" d="M344.69,481.62a2,2,0,0,1,.51,1.72C344.52,482.92,344.66,482.25,344.69,481.62Z" transform="translate(-69.66 -371.22)"/><path class="cls-1" d="M345.19,483.34a1.84,1.84,0,0,1,.48,1.63C345.08,484.55,345.18,483.93,345.19,483.34Z" transform="translate(-69.66 -371.22)"/><path class="cls-1" d="M345.76,485.41a1.93,1.93,0,0,1,.47,1.72C345.6,486.68,345.73,486,345.76,485.41Z" transform="translate(-69.66 -371.22)"/><path class="cls-1" d="M341.41,472a1.84,1.84,0,0,1,.58,1.58C341.3,473.27,341.41,472.63,341.41,472Z" transform="translate(-69.66 -371.22)"/><path class="cls-1" d="M340.32,469.34a1.84,1.84,0,0,1,.63,1.56C340.21,470.59,340.34,469.93,340.32,469.34Z" transform="translate(-69.66 -371.22)"/><path class="cls-1" d="M346.31,487.53a2,2,0,0,1,.45,1.75C346.14,488.82,346.27,488.17,346.31,487.53Z" transform="translate(-69.66 -371.22)"/><path class="cls-1" d="M338.12,574a1.07,1.07,0,0,1-.5,1A1.07,1.07,0,0,1,338.12,574Z" transform="translate(-69.66 -371.22)"/><path class="cls-1" d="M337.61,575.08a1.11,1.11,0,0,1-.52,1.08A1.08,1.08,0,0,1,337.61,575.08Z" transform="translate(-69.66 -371.22)"/><path class="cls-1" d="M337.08,576.17a1.08,1.08,0,0,1-.53,1.07A1.08,1.08,0,0,1,337.08,576.17Z" transform="translate(-69.66 -371.22)"/><path class="cls-1" d="M336.55,577.25a1.13,1.13,0,0,1-.54,1.07A1.07,1.07,0,0,1,336.55,577.25Z" transform="translate(-69.66 -371.22)"/><path class="cls-1" d="M336,578.33a1.12,1.12,0,0,1-.55,1A1.06,1.06,0,0,1,336,578.33Z" transform="translate(-69.66 -371.22)"/><path class="cls-1" d="M334,582.16a1.15,1.15,0,0,1-.6,1.07C333.33,582.75,333.4,582.32,334,582.16Z" transform="translate(-69.66 -371.22)"/><path class="cls-1" d="M333.36,583.21a1.13,1.13,0,0,1-.59,1A1,1,0,0,1,333.36,583.21Z" transform="translate(-69.66 -371.22)"/><path class="cls-1" d="M331.78,585.93a1.15,1.15,0,0,1-.62,1A.94.94,0,0,1,331.78,585.93Z" transform="translate(-69.66 -371.22)"/><path class="cls-1" d="M330.13,588.61a1.14,1.14,0,0,1-.62,1A1,1,0,0,1,330.13,588.61Z" transform="translate(-69.66 -371.22)"/><path class="cls-1" d="M346.25,590.72a1.07,1.07,0,0,1,.56-1A1,1,0,0,1,346.25,590.72Z" transform="translate(-69.66 -371.22)"/><path class="cls-1" d="M329.08,590.24a1.18,1.18,0,0,1-.64,1A1,1,0,0,1,329.08,590.24Z" transform="translate(-69.66 -371.22)"/><path class="cls-1" d="M345.65,591.77a1.1,1.1,0,0,1,.59-1A.94.94,0,0,1,345.65,591.77Z" transform="translate(-69.66 -371.22)"/><path class="cls-1" d="M328,591.86a1.16,1.16,0,0,1-.65,1A.94.94,0,0,1,328,591.86Z" transform="translate(-69.66 -371.22)"/><path class="cls-1" d="M345,592.8a1.15,1.15,0,0,1,.62-1C345.69,592.24,345.63,592.68,345,592.8Z" transform="translate(-69.66 -371.22)"/><path class="cls-1" d="M344,594.47a1.08,1.08,0,0,1,.6-1A.94.94,0,0,1,344,594.47Z" transform="translate(-69.66 -371.22)"/><path class="cls-1" d="M343.41,595.48a1.14,1.14,0,0,1,.64-1C344.07,595,344,595.38,343.41,595.48Z" transform="translate(-69.66 -371.22)"/><path class="cls-1" d="M325.33,595.66a1.13,1.13,0,0,1-.68,1C324.69,596.16,324.82,595.78,325.33,595.66Z" transform="translate(-69.66 -371.22)"/><path class="cls-1" d="M342.37,597.14a1.12,1.12,0,0,1,.63-1C343,596.6,342.9,597,342.37,597.14Z" transform="translate(-69.66 -371.22)"/><path class="cls-1" d="M323.72,597.83a1.14,1.14,0,0,1-.69.92C323.07,598.31,323.21,597.93,323.72,597.83Z" transform="translate(-69.66 -371.22)"/><path class="cls-1" d="M341.31,598.77a1.11,1.11,0,0,1,.63-1C341.93,598.24,341.81,598.63,341.31,598.77Z" transform="translate(-69.66 -371.22)"/><path class="cls-1" d="M340.23,600.39a1.09,1.09,0,0,1,.64-1C340.85,599.87,340.73,600.25,340.23,600.39Z" transform="translate(-69.66 -371.22)"/><path class="cls-1" d="M321.59,600.56a1.14,1.14,0,0,1-.71.9C320.92,601,321.06,600.63,321.59,600.56Z" transform="translate(-69.66 -371.22)"/><path class="cls-1" d="M339.13,602a1.12,1.12,0,0,1,.65-1C339.77,601.48,339.65,601.87,339.13,602Z" transform="translate(-69.66 -371.22)"/><path class="cls-1" d="M318.89,603.8a1.13,1.13,0,0,1-.72.87C318.22,604.23,318.37,603.85,318.89,603.8Z" transform="translate(-69.66 -371.22)"/><path class="cls-1" d="M299.78,622a1.14,1.14,0,0,1-.92.69C299,622.19,299.33,622.05,299.78,622Z" transform="translate(-69.66 -371.22)"/><path class="cls-1" d="M136.4,649.58a1.16,1.16,0,0,1-.59,1A1,1,0,0,1,136.4,649.58Z" transform="translate(-69.66 -371.22)"/><path class="cls-1" d="M134.83,652.31a1.19,1.19,0,0,1-.61,1.06C134.2,652.89,134.29,652.47,134.83,652.31Z" transform="translate(-69.66 -371.22)"/><path class="cls-1" d="M134.23,653.36a1.13,1.13,0,0,1-.59,1A1,1,0,0,1,134.23,653.36Z" transform="translate(-69.66 -371.22)"/><path class="cls-1" d="M326.31,444a1.07,1.07,0,0,1,.66,1C326.43,444.84,326.32,444.44,326.31,444Z" transform="translate(-69.66 -371.22)"/><path class="cls-1" d="M327.41,445.55a1.12,1.12,0,0,1,.67,1C327.48,446.46,327.4,446,327.41,445.55Z" transform="translate(-69.66 -371.22)"/><path class="cls-1" d="M328.49,447.16a1.09,1.09,0,0,1,.66,1C328.55,448.07,328.48,447.64,328.49,447.16Z" transform="translate(-69.66 -371.22)"/><path class="cls-1" d="M329.56,448.79a1.14,1.14,0,0,1,.65,1C329.65,449.68,329.56,449.27,329.56,448.79Z" transform="translate(-69.66 -371.22)"/><path class="cls-1" d="M330.62,450.45a1.08,1.08,0,0,1,.61,1C330.73,451.3,330.62,450.91,330.62,450.45Z" transform="translate(-69.66 -371.22)"/><path class="cls-1" d="M331.22,451.44a1.16,1.16,0,0,1,.64,1C331.24,452.38,331.18,451.94,331.22,451.44Z" transform="translate(-69.66 -371.22)"/><path class="cls-1" d="M332.25,453.13a1.12,1.12,0,0,1,.59,1A.93.93,0,0,1,332.25,453.13Z" transform="translate(-69.66 -371.22)"/><path class="cls-1" d="M332.83,454.15a1.14,1.14,0,0,1,.61,1.06C332.86,455.07,332.79,454.64,332.83,454.15Z" transform="translate(-69.66 -371.22)"/><path class="cls-1" d="M333.83,455.89a1.08,1.08,0,0,1,.56,1A1,1,0,0,1,333.83,455.89Z" transform="translate(-69.66 -371.22)"/><path class="cls-1" d="M334.4,456.92A1.08,1.08,0,0,1,335,458,1,1,0,0,1,334.4,456.92Z" transform="translate(-69.66 -371.22)"/><path class="cls-1" d="M335,458a1.11,1.11,0,0,1,.57,1.07A1,1,0,0,1,335,458Z" transform="translate(-69.66 -371.22)"/><path class="cls-1" d="M335.51,459a1.09,1.09,0,0,1,.56,1.08A.94.94,0,0,1,335.51,459Z" transform="translate(-69.66 -371.22)"/><path class="cls-1" d="M336.06,460.09a1.1,1.1,0,0,1,.55,1.1A1,1,0,0,1,336.06,460.09Z" transform="translate(-69.66 -371.22)"/><path class="cls-1" d="M336.6,461.17a1.08,1.08,0,0,1,.54,1.11A1,1,0,0,1,336.6,461.17Z" transform="translate(-69.66 -371.22)"/><path class="cls-1" d="M337.13,462.26a1.09,1.09,0,0,1,.54,1.1A1,1,0,0,1,337.13,462.26Z" transform="translate(-69.66 -371.22)"/><path class="cls-1" d="M337.66,463.35a1.08,1.08,0,0,1,.52,1.1A1,1,0,0,1,337.66,463.35Z" transform="translate(-69.66 -371.22)"/><path class="cls-1" d="M338.18,464.45a1.07,1.07,0,0,1,.51,1.09A1.07,1.07,0,0,1,338.18,464.45Z" transform="translate(-69.66 -371.22)"/><path class="cls-1" d="M338.7,465.57a1.07,1.07,0,0,1,.49,1.05A1.09,1.09,0,0,1,338.7,465.57Z" transform="translate(-69.66 -371.22)"/><path class="cls-1" d="M339.31,467a1.26,1.26,0,0,1,.53,1.23C339.3,468,339.26,467.49,339.31,467Z" transform="translate(-69.66 -371.22)"/><path class="cls-1" d="M339.83,468.19a1.09,1.09,0,0,1,.49,1.13A1.05,1.05,0,0,1,339.83,468.19Z" transform="translate(-69.66 -371.22)"/><path class="cls-1" d="M340.93,470.86a1.08,1.08,0,0,1,.47,1.15A1,1,0,0,1,340.93,470.86Z" transform="translate(-69.66 -371.22)"/><path class="cls-1" d="M342,473.59a1.05,1.05,0,0,1,.45,1.12A1.07,1.07,0,0,1,342,473.59Z" transform="translate(-69.66 -371.22)"/><path class="cls-1" d="M342.54,475.11a1.18,1.18,0,0,1,.46,1.22A1.13,1.13,0,0,1,342.54,475.11Z" transform="translate(-69.66 -371.22)"/><path class="cls-1" d="M343.09,476.67a1.27,1.27,0,0,1,.45,1.28A1.18,1.18,0,0,1,343.09,476.67Z" transform="translate(-69.66 -371.22)"/><path class="cls-1" d="M343.64,478.27a1.29,1.29,0,0,1,.43,1.3A1.18,1.18,0,0,1,343.64,478.27Z" transform="translate(-69.66 -371.22)"/><path class="cls-1" d="M344.17,479.93a1.21,1.21,0,0,1,.42,1.26A1.17,1.17,0,0,1,344.17,479.93Z" transform="translate(-69.66 -371.22)"/><path class="cls-1" d="M344.56,557.29a1.15,1.15,0,0,1-.42,1.18A1.18,1.18,0,0,1,344.56,557.29Z" transform="translate(-69.66 -371.22)"/><path class="cls-1" d="M344,558.91a1.15,1.15,0,0,1-.43,1.2A1.14,1.14,0,0,1,344,558.91Z" transform="translate(-69.66 -371.22)"/><path class="cls-1" d="M343.51,560.52a1.14,1.14,0,0,1-.44,1.19A1.12,1.12,0,0,1,343.51,560.52Z" transform="translate(-69.66 -371.22)"/><path class="cls-1" d="M343,562.14a1.12,1.12,0,0,1-.45,1.15A1.15,1.15,0,0,1,343,562.14Z" transform="translate(-69.66 -371.22)"/><path class="cls-1" d="M342.4,563.77a1.07,1.07,0,0,1-.45,1.07A1.11,1.11,0,0,1,342.4,563.77Z" transform="translate(-69.66 -371.22)"/><path class="cls-1" d="M342,564.84a1.24,1.24,0,0,1-.48,1.24A1.1,1.1,0,0,1,342,564.84Z" transform="translate(-69.66 -371.22)"/><path class="cls-1" d="M341.36,566.46a1.08,1.08,0,0,1-.47,1.11A1.08,1.08,0,0,1,341.36,566.46Z" transform="translate(-69.66 -371.22)"/><path class="cls-1" d="M340.89,567.55a1.23,1.23,0,0,1-.5,1.23A1.08,1.08,0,0,1,340.89,567.55Z" transform="translate(-69.66 -371.22)"/><path class="cls-1" d="M340.27,569.16a1.07,1.07,0,0,1-.48,1.07A1.09,1.09,0,0,1,340.27,569.16Z" transform="translate(-69.66 -371.22)"/><path class="cls-1" d="M339.79,570.24a1.11,1.11,0,0,1-.5,1.13A1,1,0,0,1,339.79,570.24Z" transform="translate(-69.66 -371.22)"/><path class="cls-1" d="M339.31,571.34a1.26,1.26,0,0,1-.54,1.21C338.72,572,338.77,571.58,339.31,571.34Z" transform="translate(-69.66 -371.22)"/><path class="cls-1" d="M315.58,607.51a.65.65,0,0,1-.55.59A.71.71,0,0,1,315.58,607.51Z" transform="translate(-69.66 -371.22)"/><path class="cls-1" d="M315.06,608.07a.66.66,0,0,1-.56.59A.68.68,0,0,1,315.06,608.07Z" transform="translate(-69.66 -371.22)"/><path class="cls-1" d="M314.54,608.63a.67.67,0,0,1-.57.58A.64.64,0,0,1,314.54,608.63Z" transform="translate(-69.66 -371.22)"/><path class="cls-1" d="M314,609.17a.68.68,0,0,1-.57.59A.64.64,0,0,1,314,609.17Z" transform="translate(-69.66 -371.22)"/><path class="cls-1" d="M313.47,609.72a.67.67,0,0,1-.57.58A.62.62,0,0,1,313.47,609.72Z" transform="translate(-69.66 -371.22)"/><path class="cls-1" d="M312.94,610.26a.69.69,0,0,1-.58.58A.62.62,0,0,1,312.94,610.26Z" transform="translate(-69.66 -371.22)"/><path class="cls-1" d="M312.4,610.8a.69.69,0,0,1-.58.58A.62.62,0,0,1,312.4,610.8Z" transform="translate(-69.66 -371.22)"/><path class="cls-1" d="M311.86,611.34a.68.68,0,0,1-.58.58A.62.62,0,0,1,311.86,611.34Z" transform="translate(-69.66 -371.22)"/><path class="cls-1" d="M311.32,611.88a.66.66,0,0,1-.57.57A.6.6,0,0,1,311.32,611.88Z" transform="translate(-69.66 -371.22)"/><path class="cls-1" d="M310.78,612.42a.67.67,0,0,1-.58.57A.63.63,0,0,1,310.78,612.42Z" transform="translate(-69.66 -371.22)"/><path class="cls-1" d="M310.23,613a.66.66,0,0,1-.58.57A.64.64,0,0,1,310.23,613Z" transform="translate(-69.66 -371.22)"/><path class="cls-1" d="M328.42,591.27a.57.57,0,0,1-.45.63Z" transform="translate(-69.66 -371.22)"/><path class="cls-1" d="M309.68,613.48a.66.66,0,0,1-.59.56A.68.68,0,0,1,309.68,613.48Z" transform="translate(-69.66 -371.22)"/><path class="cls-1" d="M309.12,614a.64.64,0,0,1-.59.55A.71.71,0,0,1,309.12,614Z" transform="translate(-69.66 -371.22)"/><path class="cls-1" d="M308.56,614.53a.64.64,0,0,1-.58.55A.74.74,0,0,1,308.56,614.53Z" transform="translate(-69.66 -371.22)"/><path class="cls-1" d="M308,615.06a.62.62,0,0,1-.58.53C307.62,615.41,307.81,615.23,308,615.06Z" transform="translate(-69.66 -371.22)"/><path class="cls-1" d="M307.44,615.58a.57.57,0,0,1-.56.51Z" transform="translate(-69.66 -371.22)"/><path class="cls-1" d="M306.86,616.11a.53.53,0,0,1-.54.48Z" transform="translate(-69.66 -371.22)"/><path class="cls-1" d="M306.28,616.63a.49.49,0,0,1-.51.46Z" transform="translate(-69.66 -371.22)"/><path class="cls-1" d="M305.68,617.16a.38.38,0,0,1-.41.38Z" transform="translate(-69.66 -371.22)"/><path class="cls-1" d="M304.91,617.8a.8.8,0,0,1-.67.57A.73.73,0,0,1,304.91,617.8Z" transform="translate(-69.66 -371.22)"/><path class="cls-1" d="M304.28,618.34a.65.65,0,0,1-.61.52A.68.68,0,0,1,304.28,618.34Z" transform="translate(-69.66 -371.22)"/><path class="cls-1" d="M303.69,618.84a.59.59,0,0,1-.59.5Z" transform="translate(-69.66 -371.22)"/><path class="cls-1" d="M332.16,585.35a.54.54,0,0,1-.41.62C331.89,585.76,332,585.55,332.16,585.35Z" transform="translate(-69.66 -371.22)"/><path class="cls-1" d="M303.1,619.35a.54.54,0,0,1-.56.47Z" transform="translate(-69.66 -371.22)"/><path class="cls-1" d="M302.48,619.86c-.05.25-.17.41-.45.39Z" transform="translate(-69.66 -371.22)"/><path class="cls-1" d="M301.67,620.49a.76.76,0,0,1-.69.55A.78.78,0,0,1,301.67,620.49Z" transform="translate(-69.66 -371.22)"/><path class="cls-1" d="M301,621a.61.61,0,0,1-.61.5A.77.77,0,0,1,301,621Z" transform="translate(-69.66 -371.22)"/><path class="cls-1" d="M334.31,581.57a.52.52,0,0,1-.39.63A.7.7,0,0,1,334.31,581.57Z" transform="translate(-69.66 -371.22)"/><path class="cls-1" d="M300.41,621.51a.52.52,0,0,1-.57.46Z" transform="translate(-69.66 -371.22)"/><path class="cls-1" d="M338.63,572.94a.66.66,0,0,1-.38.75A.87.87,0,0,1,338.63,572.94Z" transform="translate(-69.66 -371.22)"/><path class="cls-1" d="M298.89,622.67a.63.63,0,0,1-.63.49A.7.7,0,0,1,298.89,622.67Z" transform="translate(-69.66 -371.22)"/><path class="cls-1" d="M327.33,592.89a.57.57,0,0,1-.45.61Z" transform="translate(-69.66 -371.22)"/><path class="cls-1" d="M344.65,593.42a.57.57,0,0,1,.41-.65A.66.66,0,0,1,344.65,593.42Z" transform="translate(-69.66 -371.22)"/><path class="cls-1" d="M326.9,593.47a.81.81,0,0,1-.52.75A.81.81,0,0,1,326.9,593.47Z" transform="translate(-69.66 -371.22)"/><path class="cls-1" d="M121.37,625.14a.58.58,0,0,1,.55.52A.51.51,0,0,1,121.37,625.14Z" transform="translate(-69.66 -371.22)"/><path class="cls-1" d="M124,627.47a.46.46,0,0,1,.51.47Z" transform="translate(-69.66 -371.22)"/><path class="cls-1" d="M124.51,628a.55.55,0,0,1,.55.5A.66.66,0,0,1,124.51,628Z" transform="translate(-69.66 -371.22)"/><path class="cls-1" d="M125.06,628.47a.56.56,0,0,1,.57.51A.66.66,0,0,1,125.06,628.47Z" transform="translate(-69.66 -371.22)"/><path class="cls-1" d="M335.45,579.4a.75.75,0,0,1-.44.8A.93.93,0,0,1,335.45,579.4Z" transform="translate(-69.66 -371.22)"/><path class="cls-1" d="M125.62,629a.58.58,0,0,1,.59.5A.6.6,0,0,1,125.62,629Z" transform="translate(-69.66 -371.22)"/><path class="cls-1" d="M127.74,630.71a.47.47,0,0,1,.53.46Z" transform="translate(-69.66 -371.22)"/><path class="cls-1" d="M128.29,631.19a.55.55,0,0,1,.57.49A.68.68,0,0,1,128.29,631.19Z" transform="translate(-69.66 -371.22)"/><path class="cls-1" d="M128.86,631.67a.59.59,0,0,1,.6.48A.57.57,0,0,1,128.86,631.67Z" transform="translate(-69.66 -371.22)"/><path class="cls-1" d="M326.19,594.53c0,.31-.14.47-.42.54Z" transform="translate(-69.66 -371.22)"/><path class="cls-1" d="M131,633.35a.54.54,0,0,1,.58.48A.66.66,0,0,1,131,633.35Z" transform="translate(-69.66 -371.22)"/><path class="cls-1" d="M133.14,635a.54.54,0,0,1,.58.46A.62.62,0,0,1,133.14,635Z" transform="translate(-69.66 -371.22)"/><path class="cls-1" d="M325.77,595.07a.62.62,0,0,1-.47.64A.73.73,0,0,1,325.77,595.07Z" transform="translate(-69.66 -371.22)"/><path class="cls-1" d="M331.16,587a.72.72,0,0,1-.47.74A.84.84,0,0,1,331.16,587Z" transform="translate(-69.66 -371.22)"/><path class="cls-1" d="M333.41,455.18a.55.55,0,0,1,.4.65A.7.7,0,0,1,333.41,455.18Z" transform="translate(-69.66 -371.22)"/><path class="cls-1" d="M135.3,636.6a.54.54,0,0,1,.6.45A.61.61,0,0,1,135.3,636.6Z" transform="translate(-69.66 -371.22)"/><path class="cls-1" d="M343,596.11a.58.58,0,0,1,.42-.65A.64.64,0,0,1,343,596.11Z" transform="translate(-69.66 -371.22)"/><path class="cls-1" d="M324.62,596.66a.55.55,0,0,1-.46.59C324.32,597.06,324.47,596.86,324.62,596.66Z" transform="translate(-69.66 -371.22)"/><path class="cls-1" d="M331.84,452.45a.59.59,0,0,1,.4.67A.64.64,0,0,1,331.84,452.45Z" transform="translate(-69.66 -371.22)"/><path class="cls-1" d="M324.17,597.24a.62.62,0,0,1-.49.63A.71.71,0,0,1,324.17,597.24Z" transform="translate(-69.66 -371.22)"/><path class="cls-1" d="M342,597.74a.56.56,0,0,1,.43-.63A.68.68,0,0,1,342,597.74Z" transform="translate(-69.66 -371.22)"/><path class="cls-1" d="M330.52,588.05a.52.52,0,0,1-.41.59Z" transform="translate(-69.66 -371.22)"/><path class="cls-1" d="M323,598.82a.55.55,0,0,1-.46.57Z" transform="translate(-69.66 -371.22)"/><path class="cls-1" d="M340.89,599.36a.57.57,0,0,1,.44-.62A.67.67,0,0,1,340.89,599.36Z" transform="translate(-69.66 -371.22)"/><path class="cls-1" d="M322.53,599.38a.61.61,0,0,1-.5.62A.78.78,0,0,1,322.53,599.38Z" transform="translate(-69.66 -371.22)"/><path class="cls-1" d="M322.06,600a.64.64,0,0,1-.51.63A.66.66,0,0,1,322.06,600Z" transform="translate(-69.66 -371.22)"/><path class="cls-1" d="M339.81,601a.55.55,0,0,1,.44-.62A.68.68,0,0,1,339.81,601Z" transform="translate(-69.66 -371.22)"/><path class="cls-1" d="M330.18,449.77a.58.58,0,0,1,.43.65A.68.68,0,0,1,330.18,449.77Z" transform="translate(-69.66 -371.22)"/><path class="cls-1" d="M346.83,589.66a.57.57,0,0,1,.39-.67A.71.71,0,0,1,346.83,589.66Z" transform="translate(-69.66 -371.22)"/><path class="cls-1" d="M329.13,448.13a.6.6,0,0,1,.43.66A.64.64,0,0,1,329.13,448.13Z" transform="translate(-69.66 -371.22)"/><path class="cls-1" d="M334.88,580.49a.66.66,0,0,1-.42.74A.86.86,0,0,1,334.88,580.49Z" transform="translate(-69.66 -371.22)"/><path class="cls-1" d="M320.84,601.52a.54.54,0,0,1-.47.55Z" transform="translate(-69.66 -371.22)"/><path class="cls-1" d="M328.06,446.51a.62.62,0,0,1,.44.65A.61.61,0,0,1,328.06,446.51Z" transform="translate(-69.66 -371.22)"/><path class="cls-1" d="M320.36,602.08a.59.59,0,0,1-.5.59C320,602.47,320.19,602.27,320.36,602.08Z" transform="translate(-69.66 -371.22)"/><path class="cls-1" d="M338.69,602.59a.59.59,0,0,1,.46-.63A.7.7,0,0,1,338.69,602.59Z" transform="translate(-69.66 -371.22)"/><path class="cls-1" d="M329.49,589.65a.56.56,0,0,1-.44.63Z" transform="translate(-69.66 -371.22)"/><path class="cls-1" d="M135.8,650.64a.73.73,0,0,1-.45.76A.87.87,0,0,1,135.8,650.64Z" transform="translate(-69.66 -371.22)"/><path class="cls-1" d="M319.88,602.64a.66.66,0,0,1-.53.62A.73.73,0,0,1,319.88,602.64Z" transform="translate(-69.66 -371.22)"/><path class="cls-1" d="M135.2,651.72a.53.53,0,0,1-.4.63A.68.68,0,0,1,135.2,651.72Z" transform="translate(-69.66 -371.22)"/><path class="cls-1" d="M319.39,603.22a.66.66,0,0,1-.53.61A.62.62,0,0,1,319.39,603.22Z" transform="translate(-69.66 -371.22)"/><path class="cls-1" d="M133.63,654.41a.71.71,0,0,1-.44.76A.88.88,0,0,1,133.63,654.41Z" transform="translate(-69.66 -371.22)"/><path class="cls-1" d="M327,444.91a.6.6,0,0,1,.46.64A.67.67,0,0,1,327,444.91Z" transform="translate(-69.66 -371.22)"/><path class="cls-1" d="M133,655.5a.52.52,0,0,1-.4.62C132.77,655.92,132.9,655.71,133,655.5Z" transform="translate(-69.66 -371.22)"/><path class="cls-2" d="M83.88,458.19l.15-.12,0-.19a1.46,1.46,0,0,1,.39-.76.26.26,0,0,0,.13-.38,2.1,2.1,0,0,1,.39-.7.3.3,0,0,0,.14-.41c.23-.37.13-.91.57-1.18l0,0c.22-.35.14-.86.56-1.11l0,0c.22-.35.13-.86.56-1.11l0,0c.11-.21.24-.42.37-.62a.3.3,0,0,0,.16-.4,2.59,2.59,0,0,1,.4-.68.25.25,0,0,0,.15-.37,1.94,1.94,0,0,1,.41-.71.2.2,0,0,0,.14-.32,1.4,1.4,0,0,1,.44-.77v0c.36-.26.24-.78.57-1h0c.3-.3.19-.83.59-1.07l0,0,.4-.6a.25.25,0,0,0,.16-.37,1.63,1.63,0,0,1,.45-.73v0c.36-.25.23-.79.6-1l0,0a5.45,5.45,0,0,0,.4-.58.28.28,0,0,0,.18-.38,1.51,1.51,0,0,1,.46-.71v0c.34-.25.21-.8.62-1l0,0a6.58,6.58,0,0,1,.42-.61l.17-.1v-.18a.94.94,0,0,1,.5-.78l0,0c.15-.2.29-.39.42-.59a.22.22,0,0,0,.17-.32,1,1,0,0,1,.5-.74v0c.15-.19.29-.38.42-.58.17,0,.23-.13.17-.3a1,1,0,0,1,.52-.76l0,0c.11-.23.32-.38.44-.61l0-.05c.39-.21.24-.78.66-1l0,0c.07-.28.3-.43.47-.63v0a1.42,1.42,0,0,0,.4-.51.25.25,0,0,0,.21-.35,1,1,0,0,1,.52-.71l0,0a6.9,6.9,0,0,1,.47-.6l0,0c.37-.22.21-.82.69-.95l0,0a.85.85,0,0,1,.49-.64l0,0a3.51,3.51,0,0,1,.48-.6l0,0a1.36,1.36,0,0,0,.42-.5.23.23,0,0,0,.21-.31.78.78,0,0,1,.56-.72l0,0a1.24,1.24,0,0,1,.51-.62v0c.14-.22.33-.38.48-.58l0,0a1.11,1.11,0,0,0,.42-.49c.18,0,.25-.1.22-.28a.73.73,0,0,1,.58-.73l0,0a.86.86,0,0,1,.53-.61l0,0a1.51,1.51,0,0,1,.52-.6h0c.15-.21.34-.37.5-.57l0,0a2.16,2.16,0,0,0,.47-.53l0-.07a.72.72,0,0,0,.4-.44.23.23,0,0,0,.25-.29.7.7,0,0,1,.59-.71l0,0a.7.7,0,0,1,.55-.6l0,0a.84.84,0,0,1,.54-.6l0,0a1.17,1.17,0,0,1,.55-.59l0,0a1.44,1.44,0,0,1,.54-.58v0a2.21,2.21,0,0,1,.53-.57h0a4.51,4.51,0,0,1,.52-.55h0l.52-.54v0c.18-.16.35-.34.52-.52l0,0a6.26,6.26,0,0,0,.51-.52l0,0a4.18,4.18,0,0,0,.52-.51l0,0a4.18,4.18,0,0,0,.52-.51l0,0a4.18,4.18,0,0,0,.52-.51l0,0a4.18,4.18,0,0,0,.52-.51l0,0a6.38,6.38,0,0,0,.52-.52h0l.53-.52h0a5.38,5.38,0,0,1,.55-.52h0a2.4,2.4,0,0,1,.57-.53h0a1.55,1.55,0,0,1,.57-.54l0,0a1.24,1.24,0,0,1,.58-.55l0,0a.88.88,0,0,1,.6-.54l0,0a.7.7,0,0,1,.59-.55l0,0a.72.72,0,0,1,.71-.59c.19,0,.29-.06.3-.25a.68.68,0,0,0,.43-.4l.08-.05a1.93,1.93,0,0,0,.52-.47l0,0,.56-.5h0a1.56,1.56,0,0,1,.59-.52l0,0a.89.89,0,0,1,.62-.53l0,0a.75.75,0,0,1,.72-.58c.18,0,.27,0,.29-.22a1.13,1.13,0,0,0,.48-.41l0,0,.58-.48h0a1.18,1.18,0,0,1,.61-.51l0,0a.83.83,0,0,1,.71-.55.24.24,0,0,0,.33-.22,1.22,1.22,0,0,0,.49-.41l0,0a4.58,4.58,0,0,1,.59-.48l0,0a1,1,0,0,1,.68-.52.31.31,0,0,0,.38-.24.85.85,0,0,0,.47-.38l.05,0c.21-.14.37-.35.59-.47l0,0a1.05,1.05,0,0,1,.7-.52.28.28,0,0,0,.37-.21,1.22,1.22,0,0,0,.5-.4h0A1.79,1.79,0,0,1,132,400l0,0c.18-.42.76-.26,1-.65l.06,0,.6-.44h0a1,1,0,0,1,.73-.51.23.23,0,0,0,.33-.17,6,6,0,0,0,.57-.42h0a1,1,0,0,1,.73-.5.23.23,0,0,0,.33-.17,6,6,0,0,0,.57-.42h0a1,1,0,0,1,.77-.49h.19l.1-.17c.2-.15.4-.29.61-.42l0,0c.22-.4.76-.26,1-.61l0,0a1.76,1.76,0,0,1,.69-.45.31.31,0,0,0,.4-.18,3.78,3.78,0,0,0,.56-.4h0c.24-.36.77-.22,1-.59l0,0a2,2,0,0,1,.7-.44.29.29,0,0,0,.39-.17c.2-.12.4-.26.59-.39h0c.24-.38.76-.27,1.05-.58h0c.26-.32.77-.19,1-.56h0a1.52,1.52,0,0,1,.74-.44.24.24,0,0,0,.35-.14,2.06,2.06,0,0,1,.68-.41.3.3,0,0,0,.4-.16,3.86,3.86,0,0,1,.65-.39.35.35,0,0,0,.43-.16l.63-.39a.37.37,0,0,0,.45-.16l.62-.38a.4.4,0,0,0,.46-.16l.62-.38a.38.38,0,0,0,.46-.15c.21-.13.42-.26.64-.38a.36.36,0,0,0,.44-.15,3.33,3.33,0,0,1,.66-.38.31.31,0,0,0,.41-.14,2,2,0,0,1,.72-.39.24.24,0,0,0,.36-.12c.3-.27.78-.14,1.05-.49l0,0c.31-.29.8-.2,1.11-.5l.52-.14.64-.37a.33.33,0,0,0,.43-.12,1.53,1.53,0,0,1,.77-.39l.18.05.12-.15c.33-.31.82-.21,1.15-.48a.43.43,0,0,0,.48-.12,1.58,1.58,0,0,1,.75-.38l.19,0,.13-.14c.34-.31.82-.22,1.18-.47a.37.37,0,0,0,.45-.11c.32-.26.79-.15,1.09-.46l.53-.11a1.64,1.64,0,0,1,.76-.37l.86-.19c.24-.11.43-.33.71-.35l.91-.2c.24-.1.43-.32.71-.34l.91-.19a2.19,2.19,0,0,1,.74-.35l.87-.17c.34-.21.79-.12,1.09-.43l.53-.09c.36-.23.82-.19,1.18-.42l1-.16c.34-.19.79-.1,1.09-.41l.53-.08a7.81,7.81,0,0,1,1.27-.4l.89-.14a6.94,6.94,0,0,1,1.27-.4l.88-.14c.5-.37,1.19,0,1.67-.45l1-.11a12.24,12.24,0,0,1,1.27-.38l1.43-.16a10.11,10.11,0,0,1,1.33-.38l1.37-.15c.56-.32,1.24-.09,1.8-.4l2-.16c.54-.29,1.21,0,1.74-.39l2-.13c.75-.37,1.62,0,2.37-.4a3.66,3.66,0,0,0,1.83,0c.52.39,1.22.06,1.73.46a.26.26,0,0,0,.37.11,1.69,1.69,0,0,1,.7.4.24.24,0,0,0,.34.15,1,1,0,0,1,.72.52l0,0a1.61,1.61,0,0,1,.58.52h0a2.06,2.06,0,0,1,.54.56l0,0a1.11,1.11,0,0,1,.52.68.3.3,0,0,0,.18.39l.38.6,0,0c.59.44.17,1.21.57,1.72l.09.95a.83.83,0,0,1,0,1.07l-.11.9a8,8,0,0,1-.42,1.25.25.25,0,0,0-.12.37,2,2,0,0,1-.42.72l0,.07c-.37.2-.21.78-.66.93l0,0a.81.81,0,0,1-.55.57l0,0a.67.67,0,0,1-.59.51l.12.1-.11-.11c-.14.49-.7.33-1,.63l0,0c-.27.34-.75.25-1.07.5h0c-.79.7-1.87,0-2.7.53l0,0c-1.34.85-2.92-.08-4.29.57l0,0c-1.14.83-2.55-.1-3.71.59h-.05c-.8.66-1.87-.05-2.69.51h0c-.77.75-1.86,0-2.67.56h0c-.62.63-1.51.06-2.18.49h0c-.57.74-1.48.1-2.13.53h0c-.54.77-1.49.08-2.11.57h0c-.55.72-1.49,0-2.09.59h0c-.44.5-1.14.11-1.62.49h0c-.41.58-1.13.17-1.62.5h0c-.38.64-1.11.19-1.59.52h0c-.36.66-1.11.19-1.58.54h0c-.36.65-1.13.16-1.57.57h0c-.37.58-1.14.1-1.56.57h0c-.3.34-.74.29-1.12.42l0,0c-.32.69-1.12.15-1.53.62h0c-.29.37-.74.3-1.11.45l0,0c-.3.67-1.12.12-1.49.62l-.07,0c-.28.32-.75.23-1.07.48h0c-.26.38-.74.3-1.09.49h0c-.23.44-.71.35-1.08.48l0,0c-2.11,1.16-4.28,2.17-6.44,3.22l0,0c-.17.5-.69.37-1,.56h0c-.2.45-.72.32-1,.57h0c-.23.39-.75.26-1,.56l0,0a5.56,5.56,0,0,1-1.66,1h0c-.19.46-.72.32-1,.6h0a5.62,5.62,0,0,1-1.65,1h0c-.18.44-.72.29-1,.6l-.05,0a1.13,1.13,0,0,1-.61.42l.08.13-.09-.13c-.15.48-.7.33-1,.62l0,0a1,1,0,0,1-.62.42l.08.14-.09-.13c-.13.5-.7.34-1,.63l0,0a1.15,1.15,0,0,1-.61.43c-.14.48-.71.32-1,.63l-.06,0a1.57,1.57,0,0,1-.58.44h0a5.43,5.43,0,0,1-1.57,1.12v0c-.15.22-.3.44-.61.45-.35.6-1,.78-1.54,1.15h0a.86.86,0,0,1-.6.48c-.35.57-1,.72-1.5,1.15l0,0a2.89,2.89,0,0,1-.56.48h0a.76.76,0,0,1-.59.49c-.33.58-1,.7-1.46,1.18l-.08.06-.52.45,0,0a2.6,2.6,0,0,1-.55.5h0a1,1,0,0,1-.58.51h0a.66.66,0,0,1-.58.5.52.52,0,0,1-.57.51l.13.15-.14-.15a8.89,8.89,0,0,1-2,1.76l-.06.06a5.56,5.56,0,0,0-.5.47l0,.05-.5.48,0,0c-.17.18-.34.34-.52.5l0,0a6.26,6.26,0,0,1-.52.51l0,0a4.26,4.26,0,0,1-.52.52l0,0a4.26,4.26,0,0,1-.52.52l0,0a4.26,4.26,0,0,1-.52.52l0,0a4.26,4.26,0,0,1-.52.52l0,0a4.26,4.26,0,0,1-.52.52l0,0c-.16.18-.33.35-.5.51l0,0-.48.51-.05,0a13.11,13.11,0,0,1-2.29,2.53.53.53,0,0,1-.51.58l.11.09-.1-.1a.72.72,0,0,1-.51.59v0a1,1,0,0,1-.52.59h0a3,3,0,0,1-.5.56l0,0a4.6,4.6,0,0,0-.46.53l-.06.06c-.36.19-.18.82-.7.87,0,.36-.18.52-.49.61l0,0a.91.91,0,0,1-.5.6h0a3.29,3.29,0,0,1-.48.57l0,0c-.45.47-.6,1.16-1.17,1.52l0,0a1,1,0,0,1-.49.61h0c-.39.51-.57,1.18-1.16,1.55l0,0c0,.3-.26.46-.47.62h0a7,7,0,0,1-1.13,1.58l0,0c-.07.26-.29.41-.45.6l0,0c-.34.24-.18.82-.65,1l0,0c0,.31-.26.46-.45.64h0c-.32.27-.17.84-.66,1l0,0c0,.32-.25.46-.44.64v0c-.31.27-.17.83-.64,1l0,0c0,.3-.26.45-.43.64l0,0c-.33.26-.19.81-.62,1l0,0c-.06.26-.29.41-.42.62l0,.08c-.39.21-.24.74-.58,1h0c-.29.29-.17.84-.61,1l0,0a2.73,2.73,0,0,1-.4.62l-.16.11,0,.19a1.15,1.15,0,0,1-.46.78v0c-.32.27-.2.79-.58,1h0c-.27.31-.16.84-.59,1.07l0,0c-.22.35-.11.88-.59,1.08l0,0c0,.28-.24.43-.37.64a.22.22,0,0,0-.15.33,1.36,1.36,0,0,1-.41.75l-.16.11,0,.19a1.36,1.36,0,0,1-.42.79l0,.05c-.37.24-.23.74-.51,1l-.16.11,0,.19a1.32,1.32,0,0,1-.41.78q-.24.09-.12.33c-.18.42-.09,1-.58,1.23l0,0c-.18.38-.11.87-.52,1.14v0c-.22.35-.15.84-.51,1.13h0c-.28.32-.21.8-.5,1.11v0c-.54.38,0,1.2-.64,1.54l0,0c-.2.36-.15.83-.48,1.15h0c-.3.3-.21.76-.47,1.08a.26.26,0,0,0-.11.39c-.2.4-.17.88-.48,1.23h0c-.51.42,0,1.19-.58,1.59v0c-.26.33-.19.79-.44,1.12a.3.3,0,0,0-.11.43c-.23.36-.18.84-.44,1.19a.28.28,0,0,0-.1.41c-.22.38-.18.85-.44,1.21a.29.29,0,0,0-.1.42c-.22.37-.19.83-.42,1.2a.35.35,0,0,0-.1.47c-.44.48,0,1.22-.51,1.69l-.14.12.06.16a5.13,5.13,0,0,1-.41,1.33.34.34,0,0,0-.09.46c-.41.5,0,1.21-.47,1.71a.26.26,0,0,0-.08.4c-.37.53,0,1.23-.46,1.75a.28.28,0,0,0-.08.42c-.37.52-.07,1.21-.43,1.74l-.13.8c-.27.61-.07,1.32-.43,1.9a.34.34,0,0,0-.06.47c-.53.67,0,1.55-.46,2.23l-.12.91c-.5.9.1,2-.47,2.87a.27.27,0,0,0,0,.42c-.58,1.06.11,2.29-.46,3.35a1.57,1.57,0,0,0-.09,1.32c-.53,1.32.09,2.76-.44,4.08a4.5,4.5,0,0,0-.1,2.44,102.3,102.3,0,0,0,0,15.06,3,3,0,0,0,.09,1.93c.59,1.47-.12,3.07.44,4.55a2,2,0,0,0,.11,1.39c.48.92,0,2,.43,2.91a.93.93,0,0,0,.09.87c.55.86-.08,1.93.48,2.8a.28.28,0,0,0,0,.43c.49.73,0,1.63.46,2.37l.13.87c.34.55.08,1.24.41,1.79a.22.22,0,0,0,.07.37c.55.64,0,1.56.51,2.2a.4.4,0,0,0,.08.5c.38.5,0,1.2.46,1.68a.36.36,0,0,0,.08.48,6,6,0,0,1,.4,1.35l-.06.16.13.1c.48.5.12,1.24.5,1.76a.26.26,0,0,0,.09.4,4.92,4.92,0,0,1,.42,1.35l-.06.16.14.11c.48.45,0,1.19.52,1.65v0c.51.44.09,1.19.54,1.65v0c.52.43.08,1.19.55,1.63h0c.51.42,0,1.18.56,1.6h0c.31.36.28.84.48,1.24a.24.24,0,0,0,.11.38c.26.33.19.79.46,1.12v0c.36.35.34.85.5,1.28l0,.2.15.13c.29.31.2.79.48,1.11v0c.37.32.31.82.52,1.21a.28.28,0,0,0,.13.4,1.4,1.4,0,0,1,.38.79l0,.18.15.1c.3.31.19.8.5,1.1h0c.33.3.26.79.52,1.12l0,0c.38.29.31.78.54,1.13l0,0c.43.28.34.81.57,1.18a.3.3,0,0,0,.15.41,6.88,6.88,0,0,1,.37.63l0,0c.45.24.36.75.57,1.11l0,0c.43.24.34.76.58,1.11l0,0c.42.25.32.77.58,1.1v0c.38.26.27.78.58,1.08h0c.34.26.22.78.57,1v0a1.34,1.34,0,0,1,.44.76.23.23,0,0,0,.16.33,5,5,0,0,1,.4.62l0,0c.43.22.31.76.61,1.06h0a1,1,0,0,1,.48.79v.18l.15.09c.15.21.37.37.42.64l0,0c.44.21.31.76.63,1h0a1.18,1.18,0,0,1,.47.74.24.24,0,0,0,.18.34,5.89,5.89,0,0,0,.41.57v0a1,1,0,0,1,.5.77v.19l.17.1.42.6,0,0a.91.91,0,0,1,.51.75c0,.17,0,.27.18.31s.27.38.42.57v0a1.06,1.06,0,0,1,.5.72.25.25,0,0,0,.2.35,1.89,1.89,0,0,0,.41.53h0c.19.19.42.35.48.63l0,0c.44.17.28.75.67.95l0,.06c.14.2.29.4.45.59v0a1.05,1.05,0,0,1,.49.64l0,0c.46.14.3.74.69.93l0,.06a5,5,0,0,0,.46.57h0a1.18,1.18,0,0,1,.5.62l0,0a.82.82,0,0,1,.55.71.26.26,0,0,0,.23.33,1,1,0,0,0,.4.47l0,0c.15.2.31.39.47.57h0a1.35,1.35,0,0,1,.51.6l0,0a.8.8,0,0,1,.53.62l0,0c.47.1.29.73.71.87l.07.09a1,1,0,0,0,.45.51l0,.05a3.15,3.15,0,0,0,.49.54h0a5.47,5.47,0,0,1,.51.57h0a1.46,1.46,0,0,1,.54.59l0,0a1,1,0,0,1,.54.59l0,0a.77.77,0,0,1,.55.6l0,0a.66.66,0,0,1,.55.6l0,0a.7.7,0,0,1,.61.67.27.27,0,0,0,.27.33.48.48,0,0,0,.38.38l.1.11a.65.65,0,0,0,.44.44l.08.1a.8.8,0,0,0,.45.45l.09.09a.77.77,0,0,0,.45.45l.09.09a.77.77,0,0,0,.45.45l.09.09a.74.74,0,0,0,.45.45l.08.09a.81.81,0,0,0,.46.45l.09.09a.73.73,0,0,0,.45.44l.1.09a.65.65,0,0,0,.44.44l.11.09c.12.42.77.24.82.74l0,0a.56.56,0,0,1,.59.54l0,0a.68.68,0,0,1,.59.56l0,0a.85.85,0,0,1,.6.55l0,0a1.11,1.11,0,0,1,.59.54l0,0a1.71,1.71,0,0,1,.58.52h0l.56.5,0,0a2.63,2.63,0,0,0,.53.47l.07.05a.72.72,0,0,0,.44.4.26.26,0,0,0,.33.24.78.78,0,0,1,.7.58l0,0a.91.91,0,0,1,.61.52l0,0a2,2,0,0,1,.59.5h0a3.44,3.44,0,0,0,.55.46l.07,0a.69.69,0,0,0,.44.38.29.29,0,0,0,.37.25,1,1,0,0,1,.69.54l0,0a2,2,0,0,1,.6.49h0a2.18,2.18,0,0,0,.53.43.2.2,0,0,0,.29.19.82.82,0,0,1,.74.55l0,0a1.37,1.37,0,0,1,.61.48h0a2.79,2.79,0,0,0,.54.42.22.22,0,0,0,.31.19.9.9,0,0,1,.74.53l0,0a2.82,2.82,0,0,1,.62.47l0,0a.87.87,0,0,0,.48.38.32.32,0,0,0,.41.22,1.56,1.56,0,0,1,.67.49h0a2.11,2.11,0,0,0,.53.4.28.28,0,0,0,.38.19,1.29,1.29,0,0,1,.7.49h0c.63.37.81-.28,1.19-.5l0,0a3,3,0,0,1,.41-.63c.17-.05.21-.16.14-.32a1.3,1.3,0,0,1,.45-.77h0c.34-.27.22-.79.59-1l0,0a3.6,3.6,0,0,0,.39-.57.31.31,0,0,0,.18-.41,2.09,2.09,0,0,1,.42-.68l.16-.11,0-.2a1.26,1.26,0,0,1,.46-.77h0c.32-.27.21-.8.59-1.05l0,0c.14-.2.27-.39.39-.59a.28.28,0,0,0,.17-.39,2.1,2.1,0,0,1,.43-.7l.16-.1,0-.18a1.09,1.09,0,0,1,.46-.79h0c.32-.29.2-.82.59-1.06l0,0c.14-.19.27-.39.4-.59a.27.27,0,0,0,.16-.38,2.06,2.06,0,0,1,.44-.72l0,0c.38-.24.24-.76.58-1h0c.31-.29.2-.82.6-1.06l0,0a1.13,1.13,0,0,1,.57-.57l0,0c.16-.2.3-.21.43,0l0,0a.81.81,0,0,1,.56.75l0,.18.16.1a2.06,2.06,0,0,1,.43.69.29.29,0,0,0,.17.39,5.87,5.87,0,0,0,.39.58l0,0c.38.24.26.77.6,1h0a1.37,1.37,0,0,1,.46.76.21.21,0,0,0,.15.32,5.16,5.16,0,0,1,.4.63l0,0c.43.23.31.77.61,1.06h0c.34.26.21.78.58,1v0a1.87,1.87,0,0,1,.45.72.25.25,0,0,0,.16.37c.13.21.26.4.4.6l0,0c.39.24.27.77.6,1.05h0a1.15,1.15,0,0,1,.46.78l0,.19.16.11c.14.21.36.37.41.64l0,0c.45.21.34.75.62,1.06v0c.36.25.24.78.59,1v0a1.45,1.45,0,0,1,.45.75.23.23,0,0,0,.15.34c.15.2.28.4.41.61l0,0c.41.23.3.77.6,1.06h0a1,1,0,0,1,.47.8l0,.18.16.09a2,2,0,0,1,.43.7.28.28,0,0,0,.17.39c.12.2.25.4.39.59l0,0c.38.24.26.77.6,1h0a1.27,1.27,0,0,1,.46.76c-.07.17,0,.27.15.32a4.18,4.18,0,0,1,.4.63l0,0c.44.22.32.76.61,1.06v0c.36.26.23.78.59,1v0a1.63,1.63,0,0,1,.45.73.24.24,0,0,0,.16.36l.4.6,0,0c.39.24.28.77.6,1h0a1.12,1.12,0,0,1,.46.79l0,.19.16.1a2,2,0,0,1,.43.68.29.29,0,0,0,.18.4,3.87,3.87,0,0,0,.38.58v0c.37.25.24.78.59,1v0a1.39,1.39,0,0,1,.45.75.22.22,0,0,0,.15.34,6.49,6.49,0,0,1,.41.61l0,0c.42.23.3.77.6,1.06h0c.34.26.21.78.58,1l0,0a2,2,0,0,1,.44.72.27.27,0,0,0,.17.38c.12.2.25.39.39.59l0,0c.39.24.27.77.6,1h0a1.22,1.22,0,0,1,.46.77c-.07.16,0,.26.15.31a4.18,4.18,0,0,1,.4.63l0,0c.44.22.32.75.61,1.06v0c.36.25.23.78.59,1v0a1.55,1.55,0,0,1,.45.73.25.25,0,0,0,.16.36c.14.2.27.4.4.61l0,0c.41.23.29.77.61,1h0c.38.59.21,1.08-.41,1.26a6.93,6.93,0,0,1-1.88.07c-15.56,0-31.12,0-46.67,0-.76,0-2.53,1-2.2-1.25l0,0a5,5,0,0,1,.4-.62.22.22,0,0,0,.15-.33,1.41,1.41,0,0,1,.45-.76v0c.35-.26.22-.78.59-1l0,0c.29-.31.17-.84.62-1.06l0,0c.05-.26.28-.42.41-.63.17-.05.21-.16.14-.32a1.21,1.21,0,0,1,.46-.76h0c.34-.27.22-.8.59-1v0a5.25,5.25,0,0,0,.38-.58.31.31,0,0,0,.18-.41,2.09,2.09,0,0,1,.42-.68l.16-.11v-.19a1.16,1.16,0,0,1,.45-.78h0c.33-.27.22-.8.6-1l0,0c.14-.19.27-.39.39-.59a.29.29,0,0,0,.17-.39,2.1,2.1,0,0,1,.43-.7l.16-.09,0-.19a1.09,1.09,0,0,1,.46-.79h0c.32-.29.2-.81.59-1.06l0,0,.4-.6a1.89,1.89,0,0,0,.17-.35s0-.13-.05-.2a2.06,2.06,0,0,1-.52-.58h0a8.66,8.66,0,0,1-1.61-1.07h0a6.91,6.91,0,0,1-1.59-1.09h0a4.62,4.62,0,0,1-1.58-1.11h0a1.39,1.39,0,0,1-.59-.45l0,0a8.16,8.16,0,0,1-1.55-1.12h0a1.81,1.81,0,0,1-.57-.46l-.05,0c-.48-.42-1.14-.6-1.53-1.14h0a1.08,1.08,0,0,1-.59-.48l0,0c-.5-.4-1.19-.54-1.51-1.18-.32,0-.48-.21-.6-.48h0a1.2,1.2,0,0,1-.58-.49l0,0-.53-.46-.07-.05c-.43-.48-1.15-.58-1.45-1.19a.69.69,0,0,1-.59-.5h0a1,1,0,0,1-.58-.51h0a2.89,2.89,0,0,1-.55-.5l0,0-.52-.47-.06-.05a8.91,8.91,0,0,1-2-1.76.49.49,0,0,1-.56-.52.57.57,0,0,1-.56-.52l-.1.11.11-.11a.65.65,0,0,1-.57-.53v0a.78.78,0,0,1-.56-.54h0a.85.85,0,0,1-.56-.55h0a.82.82,0,0,1-.56-.54h0a.93.93,0,0,1-.56-.54h0a.9.9,0,0,1-.54-.54h0a.9.9,0,0,1-.54-.54h0a.9.9,0,0,1-.55-.56h0a.88.88,0,0,1-.55-.56v0a.82.82,0,0,1-.54-.57v0a.72.72,0,0,1-.54-.57h0a.6.6,0,0,1-.53-.57l-.11.12.12-.11a.53.53,0,0,1-.53-.56,10.3,10.3,0,0,1-1.76-2l0-.06a5.8,5.8,0,0,0-.47-.52l0,0a4.35,4.35,0,0,1-.5-.55h0a1.2,1.2,0,0,1-.51-.58h0a.78.78,0,0,1-.51-.59v0a.56.56,0,0,1-.5-.6L105,612l.13-.15c-.52-.06-.34-.69-.7-.87l-.06-.08c-.14-.18-.29-.36-.45-.53l0,0a1.85,1.85,0,0,1-.49-.58h0a.79.79,0,0,1-.49-.6v0c-.6-.35-.74-1.05-1.18-1.51l0,0a1.68,1.68,0,0,1-.48-.58h0a.7.7,0,0,1-.48-.62l0,0c-.5-.11-.33-.71-.68-.92l0-.06a4.34,4.34,0,0,1-.46-.58v0a.82.82,0,0,1-.48-.63l0,0c-.49-.12-.33-.71-.67-.94l0,0a2,2,0,0,1-.46-.59h0a7.36,7.36,0,0,1-1.12-1.59h0a.88.88,0,0,1-.46-.64l0,0c-.5-.14-.35-.72-.66-1l0,0c-.19-.18-.42-.33-.44-.63l0,0c-.47-.16-.32-.72-.65-1v0c-.18-.18-.43-.33-.43-.64l0,0c-.49-.16-.34-.73-.65-1h0c-.21-.18-.44-.34-.43-.66l0,0c-.53-.14-.38-.71-.65-1v0c-.39-.23-.25-.77-.6-1l0,0c-.16-.21-.41-.35-.42-.65l0,0c-.48-.18-.35-.73-.63-1v0c-.37-.25-.25-.77-.59-1v0c-.17-.21-.43-.35-.41-.66l0,0c-.52-.18-.39-.72-.61-1.06v0c-.43-.22-.31-.75-.59-1.06h0c-.37-.26-.26-.77-.57-1.06h0c-.32-.27-.21-.77-.55-1v0c-.3-.28-.17-.78-.54-1l0,0a1.33,1.33,0,0,1-.42-.79l0-.19-.16-.11a1.22,1.22,0,0,1-.41-.78l0-.19-.16-.1a1.27,1.27,0,0,1-.41-.79l0-.18-.16-.11c-.28-.29-.14-.79-.51-1v0c-.28-.3-.18-.78-.51-1.06v0c-.3-.3-.22-.79-.52-1.09h0c-.33-.3-.26-.78-.51-1.12l0,0c-.4-.3-.34-.81-.54-1.21a.26.26,0,0,0-.13-.38c-.25-.31-.13-.79-.48-1.05v0c-.3-.32-.24-.79-.49-1.12v0c-.39-.34-.36-.85-.52-1.28l0-.19-.15-.12c-.29-.32-.21-.8-.47-1.13v0c-.56-.39-.07-1.17-.59-1.57v0c-.3-.36-.27-.84-.47-1.23a.26.26,0,0,0-.11-.39c-.26-.34-.2-.8-.44-1.14v0c-.57-.41-.11-1.18-.57-1.63v0c-.53-.43-.1-1.18-.55-1.64v0c-.53-.45-.12-1.2-.54-1.69a.32.32,0,0,0-.1-.45A10.63,10.63,0,0,1,77,560a.24.24,0,0,0-.09-.38c-.43-.46,0-1.18-.49-1.63h0c-.48-.51-.15-1.24-.5-1.78a.22.22,0,0,0-.08-.37c-.43-.51-.08-1.22-.47-1.74a.29.29,0,0,0-.08-.42c-.4-.52-.09-1.23-.46-1.75a.27.27,0,0,0-.07-.41c-.4-.55-.14-1.26-.45-1.84l.08-.18-.14-.13c-.55-.7,0-1.61-.49-2.32a.23.23,0,0,0-.07-.38c-.51-.72,0-1.63-.46-2.36l-.12-.89c-.44-.71,0-1.6-.43-2.32,0-.3-.07-.61-.1-.91-.51-.89.07-2-.45-2.84l-.09-.94c-.53-1.11.07-2.36-.43-3.47a1.92,1.92,0,0,0-.1-1.39c-.6-1.83.14-3.78-.45-5.62a10.85,10.85,0,0,0-.1-3.55,31.3,31.3,0,0,1,0-8.09,13,13,0,0,0,.09-4c.59-1.67-.13-3.46.45-5.14a2.23,2.23,0,0,0,.1-1.44c.52-1.09-.08-2.32.43-3.42a1.94,1.94,0,0,0,.12-1.36c.46-.94-.08-2,.46-3a.29.29,0,0,0,.05-.44c.57-.86-.09-1.94.49-2.79a.28.28,0,0,0,.06-.42c.48-.7,0-1.59.45-2.28a.34.34,0,0,0,.07-.47c.53-.66,0-1.56.49-2.23a.28.28,0,0,0,.07-.42c.37-.52.07-1.21.43-1.73a.39.39,0,0,0,.08-.5c.45-.47.09-1.16.45-1.66l.09-.51c.46-.46.08-1.17.46-1.65a.35.35,0,0,0,.09-.47c.43-.49.06-1.21.49-1.69a.24.24,0,0,0,.08-.38,11.31,11.31,0,0,1,.42-1.24.36.36,0,0,0,.09-.47c.44-.48,0-1.22.52-1.69h0c.49-.44,0-1.18.52-1.63l.14-.11,0-.17a3.67,3.67,0,0,1,.45-1.34l.14-.11-.05-.17a3.52,3.52,0,0,1,.47-1.34h0c.5-.43,0-1.2.57-1.61v0c.27-.32.2-.78.45-1.11a.28.28,0,0,0,.11-.41c.22-.38.17-.87.48-1.22h0c.33-.28.23-.75.46-1.07a.31.31,0,0,0,.12-.43c.24-.37.18-.86.49-1.19h0c.33-.28.22-.75.47-1.07a.27.27,0,0,0,.12-.39c.22-.39.15-.9.53-1.21v0c.27-.33.2-.81.51-1.12h0C83.71,459,83.6,458.5,83.88,458.19Z" transform="translate(-69.66 -371.22)"/><path class="cls-1" d="M134.68,638.38a2.56,2.56,0,0,1,1.61,1.07A1.42,1.42,0,0,1,134.68,638.38Z" transform="translate(-69.66 -371.22)"/><path class="cls-1" d="M133.08,637.28a2.59,2.59,0,0,1,1.59,1.09A1.38,1.38,0,0,1,133.08,637.28Z" transform="translate(-69.66 -371.22)"/><path class="cls-1" d="M131.49,636.17a2.44,2.44,0,0,1,1.58,1.11A1.3,1.3,0,0,1,131.49,636.17Z" transform="translate(-69.66 -371.22)"/><path class="cls-1" d="M145,626.07c-.36,1.11-.36,1.11-1.19.5Z" transform="translate(-69.66 -371.22)"/><path class="cls-1" d="M153.06,612a1.14,1.14,0,0,1-.6,1.06C152.46,612.61,152.56,612.2,153.06,612Z" transform="translate(-69.66 -371.22)"/><path class="cls-1" d="M152.47,613.07a1.16,1.16,0,0,1-.58,1A1,1,0,0,1,152.47,613.07Z" transform="translate(-69.66 -371.22)"/><path class="cls-1" d="M156.23,615.21a1.14,1.14,0,0,1-.6-1A1,1,0,0,1,156.23,615.21Z" transform="translate(-69.66 -371.22)"/><path class="cls-1" d="M150.89,615.79a1.14,1.14,0,0,1-.59,1.06A1,1,0,0,1,150.89,615.79Z" transform="translate(-69.66 -371.22)"/><path class="cls-1" d="M157.82,617.94a1.16,1.16,0,0,1-.61-1.06A.94.94,0,0,1,157.82,617.94Z" transform="translate(-69.66 -371.22)"/><path class="cls-1" d="M158.4,619a1.12,1.12,0,0,1-.58-1A1,1,0,0,1,158.4,619Z" transform="translate(-69.66 -371.22)"/><path class="cls-1" d="M148.73,619.56a1.14,1.14,0,0,1-.59,1.05A1,1,0,0,1,148.73,619.56Z" transform="translate(-69.66 -371.22)"/><path class="cls-1" d="M160,621.7a1.13,1.13,0,0,1-.6-1.05A1,1,0,0,1,160,621.7Z" transform="translate(-69.66 -371.22)"/><path class="cls-1" d="M146.56,623.34a1.1,1.1,0,0,1-.59,1A1,1,0,0,1,146.56,623.34Z" transform="translate(-69.66 -371.22)"/><path class="cls-1" d="M161.59,624.43a1.17,1.17,0,0,1-.62-1.06C161.52,623.53,161.6,624,161.59,624.43Z" transform="translate(-69.66 -371.22)"/><path class="cls-1" d="M162.17,625.45a1.14,1.14,0,0,1-.59-1A1,1,0,0,1,162.17,625.45Z" transform="translate(-69.66 -371.22)"/><path class="cls-1" d="M163.76,628.19a1.16,1.16,0,0,1-.6-1.06A1,1,0,0,1,163.76,628.19Z" transform="translate(-69.66 -371.22)"/><path class="cls-1" d="M165.94,631.94a1.13,1.13,0,0,1-.6-1A1,1,0,0,1,165.94,631.94Z" transform="translate(-69.66 -371.22)"/><path class="cls-1" d="M167.53,634.68a1.18,1.18,0,0,1-.61-1.06C167.44,633.79,167.54,634.2,167.53,634.68Z" transform="translate(-69.66 -371.22)"/><path class="cls-1" d="M168.11,635.69a1.12,1.12,0,0,1-.59-1A1,1,0,0,1,168.11,635.69Z" transform="translate(-69.66 -371.22)"/><path class="cls-1" d="M169.71,638.43a1.13,1.13,0,0,1-.6-1A1,1,0,0,1,169.71,638.43Z" transform="translate(-69.66 -371.22)"/><path class="cls-1" d="M136.32,641.15a1.13,1.13,0,0,1-.59,1.06A1,1,0,0,1,136.32,641.15Z" transform="translate(-69.66 -371.22)"/><path class="cls-1" d="M171.88,642.18a1.14,1.14,0,0,1-.59-1A1,1,0,0,1,171.88,642.18Z" transform="translate(-69.66 -371.22)"/><path class="cls-1" d="M173.47,644.92a1.16,1.16,0,0,1-.6-1.06A.94.94,0,0,1,173.47,644.92Z" transform="translate(-69.66 -371.22)"/><path class="cls-1" d="M134.16,644.93a1.13,1.13,0,0,1-.6,1A1,1,0,0,1,134.16,644.93Z" transform="translate(-69.66 -371.22)"/><path class="cls-1" d="M174.05,645.93a1.13,1.13,0,0,1-.58-1A1,1,0,0,1,174.05,645.93Z" transform="translate(-69.66 -371.22)"/><path class="cls-1" d="M175.65,648.67a1.13,1.13,0,0,1-.6-1A1,1,0,0,1,175.65,648.67Z" transform="translate(-69.66 -371.22)"/><path class="cls-1" d="M177.24,651.41a1.18,1.18,0,0,1-.61-1.06C177.17,650.51,177.26,650.93,177.24,651.41Z" transform="translate(-69.66 -371.22)"/><path class="cls-1" d="M177.82,652.42a1.14,1.14,0,0,1-.59-1A1,1,0,0,1,177.82,652.42Z" transform="translate(-69.66 -371.22)"/><path class="cls-1" d="M179.42,655.16a1.15,1.15,0,0,1-.61-1A1,1,0,0,1,179.42,655.16Z" transform="translate(-69.66 -371.22)"/><path class="cls-1" d="M154,611.54a1.56,1.56,0,0,1-.43,0l.23-.31Z" transform="translate(-69.66 -371.22)"/><path class="cls-1" d="M153.6,611.49l-.57.57A.73.73,0,0,1,153.6,611.49Z" transform="translate(-69.66 -371.22)"/><path class="cls-1" d="M154.52,612.25a1,1,0,0,1-.56-.75A.78.78,0,0,1,154.52,612.25Z" transform="translate(-69.66 -371.22)"/><path class="cls-1" d="M155.09,613.22a.62.62,0,0,1-.43-.69Z" transform="translate(-69.66 -371.22)"/><path class="cls-1" d="M155.65,614.19a.47.47,0,0,1-.39-.58Z" transform="translate(-69.66 -371.22)"/><path class="cls-1" d="M151.87,614.13a.66.66,0,0,1-.44.72Z" transform="translate(-69.66 -371.22)"/><path class="cls-1" d="M151.27,615.23a.48.48,0,0,1-.4.59Z" transform="translate(-69.66 -371.22)"/><path class="cls-1" d="M156.69,616a.74.74,0,0,1-.46-.76A.88.88,0,0,1,156.69,616Z" transform="translate(-69.66 -371.22)"/><path class="cls-1" d="M157.24,616.93a.53.53,0,0,1-.4-.63Z" transform="translate(-69.66 -371.22)"/><path class="cls-1" d="M150.3,616.85a.79.79,0,0,1-.46.79A.86.86,0,0,1,150.3,616.85Z" transform="translate(-69.66 -371.22)"/><path class="cls-1" d="M132.41,618a.84.84,0,0,1-.7-.58A.75.75,0,0,1,132.41,618Z" transform="translate(-69.66 -371.22)"/><path class="cls-1" d="M133,618.52a.63.63,0,0,1-.61-.52A.69.69,0,0,1,133,618.52Z" transform="translate(-69.66 -371.22)"/><path class="cls-1" d="M149.7,617.92a.64.64,0,0,1-.43.7Z" transform="translate(-69.66 -371.22)"/><path class="cls-1" d="M133.55,619a.58.58,0,0,1-.59-.5Z" transform="translate(-69.66 -371.22)"/><path class="cls-1" d="M134.11,619.47a.54.54,0,0,1-.56-.46Z" transform="translate(-69.66 -371.22)"/><path class="cls-1" d="M149.1,619a.48.48,0,0,1-.39.59Z" transform="translate(-69.66 -371.22)"/><path class="cls-1" d="M158.86,619.71a.67.67,0,0,1-.45-.72A.87.87,0,0,1,158.86,619.71Z" transform="translate(-69.66 -371.22)"/><path class="cls-1" d="M134.62,619.9c-.27,0-.4-.13-.44-.38Z" transform="translate(-69.66 -371.22)"/><path class="cls-1" d="M135.68,620.69a.76.76,0,0,1-.69-.54A.79.79,0,0,1,135.68,620.69Z" transform="translate(-69.66 -371.22)"/><path class="cls-1" d="M159.42,620.68a.49.49,0,0,1-.4-.6Z" transform="translate(-69.66 -371.22)"/><path class="cls-1" d="M136.25,621.15a.58.58,0,0,1-.6-.49Z" transform="translate(-69.66 -371.22)"/><path class="cls-1" d="M148.13,620.62a.74.74,0,0,1-.46.77A.88.88,0,0,1,148.13,620.62Z" transform="translate(-69.66 -371.22)"/><path class="cls-1" d="M136.79,621.59c-.32,0-.46-.15-.53-.43Z" transform="translate(-69.66 -371.22)"/><path class="cls-1" d="M137.82,622.33a.86.86,0,0,1-.74-.55A.78.78,0,0,1,137.82,622.33Z" transform="translate(-69.66 -371.22)"/><path class="cls-1" d="M147.53,621.7a.61.61,0,0,1-.42.68Z" transform="translate(-69.66 -371.22)"/><path class="cls-1" d="M160.46,622.48a.75.75,0,0,1-.46-.78A.86.86,0,0,1,160.46,622.48Z" transform="translate(-69.66 -371.22)"/><path class="cls-1" d="M138.4,622.78a.59.59,0,0,1-.61-.48A.74.74,0,0,1,138.4,622.78Z" transform="translate(-69.66 -371.22)"/><path class="cls-1" d="M293.87,622.26a.56.56,0,0,1-.59.47Z" transform="translate(-69.66 -371.22)"/><path class="cls-1" d="M139,623.21a.47.47,0,0,1-.54-.42Z" transform="translate(-69.66 -371.22)"/><path class="cls-1" d="M146.93,622.79a.47.47,0,0,1-.39.57Z" transform="translate(-69.66 -371.22)"/><path class="cls-1" d="M161,623.42a.55.55,0,0,1-.41-.64A.69.69,0,0,1,161,623.42Z" transform="translate(-69.66 -371.22)"/><path class="cls-1" d="M140,623.93a.81.81,0,0,1-.74-.53A.82.82,0,0,1,140,623.93Z" transform="translate(-69.66 -371.22)"/><path class="cls-1" d="M141.1,624.77c-.29,0-.42-.13-.49-.38Z" transform="translate(-69.66 -371.22)"/><path class="cls-1" d="M146,624.39a.72.72,0,0,1-.45.77A.9.9,0,0,1,146,624.39Z" transform="translate(-69.66 -371.22)"/><path class="cls-1" d="M142.18,625.48a.66.66,0,0,1-.67-.49A.8.8,0,0,1,142.18,625.48Z" transform="translate(-69.66 -371.22)"/><path class="cls-1" d="M142.72,625.89c-.31,0-.45-.14-.53-.4Z" transform="translate(-69.66 -371.22)"/><path class="cls-1" d="M145.37,625.48a.54.54,0,0,1-.41.63A.69.69,0,0,1,145.37,625.48Z" transform="translate(-69.66 -371.22)"/><path class="cls-1" d="M162.63,626.22a.71.71,0,0,1-.45-.75A.89.89,0,0,1,162.63,626.22Z" transform="translate(-69.66 -371.22)"/><path class="cls-1" d="M143.8,626.57a.69.69,0,0,1-.7-.49A.82.82,0,0,1,143.8,626.57Z" transform="translate(-69.66 -371.22)"/><path class="cls-1" d="M163.19,627.17a.53.53,0,0,1-.41-.61Z" transform="translate(-69.66 -371.22)"/><path class="cls-1" d="M164.23,629a.8.8,0,0,1-.47-.8A.9.9,0,0,1,164.23,629Z" transform="translate(-69.66 -371.22)"/><path class="cls-1" d="M164.8,630a.62.62,0,0,1-.43-.7Z" transform="translate(-69.66 -371.22)"/><path class="cls-1" d="M165.36,630.93a.48.48,0,0,1-.39-.59Z" transform="translate(-69.66 -371.22)"/><path class="cls-1" d="M166.4,632.71a.73.73,0,0,1-.46-.76A.88.88,0,0,1,166.4,632.71Z" transform="translate(-69.66 -371.22)"/><path class="cls-1" d="M167,633.66a.53.53,0,0,1-.4-.63A.7.7,0,0,1,167,633.66Z" transform="translate(-69.66 -371.22)"/><path class="cls-1" d="M168.57,636.45a.68.68,0,0,1-.45-.73A.87.87,0,0,1,168.57,636.45Z" transform="translate(-69.66 -371.22)"/><path class="cls-1" d="M169.13,637.41a.52.52,0,0,1-.4-.6Z" transform="translate(-69.66 -371.22)"/><path class="cls-1" d="M170.17,639.22a.77.77,0,0,1-.46-.79A.89.89,0,0,1,170.17,639.22Z" transform="translate(-69.66 -371.22)"/><path class="cls-1" d="M136.3,639.46c.33.06.67.1.52.58Z" transform="translate(-69.66 -371.22)"/><path class="cls-1" d="M170.74,640.19a.61.61,0,0,1-.43-.68Z" transform="translate(-69.66 -371.22)"/><path class="cls-1" d="M136.7,640.59a.49.49,0,0,1-.4.6Z" transform="translate(-69.66 -371.22)"/><path class="cls-1" d="M171.3,641.17a.47.47,0,0,1-.38-.58Z" transform="translate(-69.66 -371.22)"/><path class="cls-1" d="M135.73,642.21a.77.77,0,0,1-.46.79A.87.87,0,0,1,135.73,642.21Z" transform="translate(-69.66 -371.22)"/><path class="cls-1" d="M172.34,643a.71.71,0,0,1-.45-.75A.89.89,0,0,1,172.34,643Z" transform="translate(-69.66 -371.22)"/><path class="cls-1" d="M135.13,643.28a.63.63,0,0,1-.43.7Z" transform="translate(-69.66 -371.22)"/><path class="cls-1" d="M172.9,643.9a.53.53,0,0,1-.41-.61Z" transform="translate(-69.66 -371.22)"/><path class="cls-1" d="M134.53,644.37a.48.48,0,0,1-.39.59Z" transform="translate(-69.66 -371.22)"/><path class="cls-1" d="M133.56,646a.75.75,0,0,1-.45.78A.88.88,0,0,1,133.56,646Z" transform="translate(-69.66 -371.22)"/><path class="cls-1" d="M174.51,646.69a.66.66,0,0,1-.44-.72A.88.88,0,0,1,174.51,646.69Z" transform="translate(-69.66 -371.22)"/><path class="cls-1" d="M133,647.06a.6.6,0,0,1-.42.68Z" transform="translate(-69.66 -371.22)"/><path class="cls-1" d="M175.07,647.66a.48.48,0,0,1-.39-.59Z" transform="translate(-69.66 -371.22)"/><path class="cls-1" d="M132.36,648.15a.47.47,0,0,1-.38.58Z" transform="translate(-69.66 -371.22)"/><path class="cls-1" d="M176.11,649.45a.75.75,0,0,1-.46-.77A.86.86,0,0,1,176.11,649.45Z" transform="translate(-69.66 -371.22)"/><path class="cls-1" d="M176.66,650.39a.53.53,0,0,1-.4-.63A.7.7,0,0,1,176.66,650.39Z" transform="translate(-69.66 -371.22)"/><path class="cls-1" d="M178.28,653.18a.69.69,0,0,1-.45-.73A.87.87,0,0,1,178.28,653.18Z" transform="translate(-69.66 -371.22)"/><path class="cls-1" d="M178.84,654.15a.52.52,0,0,1-.4-.61Z" transform="translate(-69.66 -371.22)"/><path class="cls-1" d="M332.77,584.27a.72.72,0,0,1-.46.76A.88.88,0,0,1,332.77,584.27Z" transform="translate(-69.66 -371.22)"/><path class="cls-1" d="M318.1,604.75a.46.46,0,0,1-.45.5Z" transform="translate(-69.66 -371.22)"/><path class="cls-1" d="M317.61,605.3a.53.53,0,0,1-.49.54Z" transform="translate(-69.66 -371.22)"/><path class="cls-1" d="M317.11,605.85a.57.57,0,0,1-.51.56Z" transform="translate(-69.66 -371.22)"/><path class="cls-1" d="M316.61,606.41a.61.61,0,0,1-.53.57Z" transform="translate(-69.66 -371.22)"/><path class="cls-1" d="M316.1,607a.64.64,0,0,1-.55.58A.74.74,0,0,1,316.1,607Z" transform="translate(-69.66 -371.22)"/><path class="cls-3" d="M236.26,646.77l.94-.12c.5-.37,1.19,0,1.66-.45l1-.12c.36-.2.81-.16,1.15-.4l1-.14c.36-.2.8-.14,1.13-.41a.4.4,0,0,0,.49-.08,5.42,5.42,0,0,1,1.31-.42l.85-.15c.35-.23.8-.17,1.14-.43a.37.37,0,0,0,.47-.08c.37-.26.84-.23,1.22-.43l1-.19c.24-.1.43-.31.7-.34l.92-.2c.24-.09.42-.3.69-.35a.25.25,0,0,0,.38-.1c.35-.28.83-.22,1.2-.45a.31.31,0,0,0,.42-.1c.33-.27.8-.18,1.13-.46a.43.43,0,0,0,.49-.11,1.55,1.55,0,0,1,.78-.38l.18,0,.11-.14c.33-.32.83-.24,1.19-.48a.35.35,0,0,0,.44-.12,1.35,1.35,0,0,1,.8-.39l.17.05.1-.14c.32-.32.81-.22,1.15-.5a.39.39,0,0,0,.48-.13,2.55,2.55,0,0,1,.69-.37.27.27,0,0,0,.38-.13,1.43,1.43,0,0,1,.79-.4l.18.05.11-.15c.3-.3.79-.19,1.08-.5h0c.3-.33.8-.23,1.11-.52l.51-.17a3.21,3.21,0,0,0,.59-.36.44.44,0,0,0,.49-.16c.21-.12.41-.24.61-.38a.4.4,0,0,0,.47-.16c.21-.12.41-.24.61-.38a.4.4,0,0,0,.47-.17,3.22,3.22,0,0,0,.58-.38l.5-.18a2,2,0,0,0,.55-.36h0c.27-.35.78-.23,1.05-.56h0a1.15,1.15,0,0,1,.79-.45l.18,0,.1-.16a1.79,1.79,0,0,1,.71-.43.28.28,0,0,0,.38-.15,6.81,6.81,0,0,1,.63-.41.4.4,0,0,0,.46-.2,1.38,1.38,0,0,0,.52-.37h0a1.11,1.11,0,0,1,.77-.47.19.19,0,0,0,.3-.15,5.11,5.11,0,0,1,.62-.41l0,0c.21-.42.75-.29,1-.62h0a1.34,1.34,0,0,1,.72-.47.28.28,0,0,0,.37-.18,4.39,4.39,0,0,0,.56-.4h0a1,1,0,0,1,.75-.49.21.21,0,0,0,.31-.16l.59-.43,0,0a1,1,0,0,1,.75-.51.21.21,0,0,0,.31-.17,6,6,0,0,0,.57-.42h0a1.07,1.07,0,0,1,.71-.51.26.26,0,0,0,.36-.19,2,2,0,0,0,.52-.41h0c.19-.19.35-.42.63-.48l0,0c.16-.44.74-.29.94-.67l.06,0,.59-.46h0a1.16,1.16,0,0,1,.68-.51.32.32,0,0,0,.4-.25.72.72,0,0,0,.45-.37l.06,0,.58-.46h0a1.27,1.27,0,0,1,.62-.5l0,0a.82.82,0,0,1,.74-.57c.17.05.27,0,.29-.2a1.44,1.44,0,0,0,.5-.42l0,0a5.37,5.37,0,0,1,.58-.49h0a1.27,1.27,0,0,1,.61-.51l0,0a.85.85,0,0,1,.68-.56.3.3,0,0,0,.37-.26.6.6,0,0,0,.42-.37l.08-.07a1.53,1.53,0,0,0,.52-.46l0,0,.56-.5h0a1.92,1.92,0,0,1,.58-.52l0,0a1.09,1.09,0,0,1,.59-.53l0,0a.82.82,0,0,1,.6-.55l0,0a.64.64,0,0,1,.59-.55l0,0a.7.7,0,0,1,.71-.61.23.23,0,0,0,.29-.26.53.53,0,0,0,.4-.39l.1-.09a.8.8,0,0,0,.46-.44l.08-.08a1,1,0,0,0,.48-.46l.07-.06a1.38,1.38,0,0,0,.49-.47l.05-.05a1.79,1.79,0,0,0,.5-.49l0,0a2,2,0,0,0,.5-.5l0,0a2,2,0,0,0,.5-.5l0,0a1.79,1.79,0,0,0,.49-.5l.05,0a1.53,1.53,0,0,0,.48-.5L303,610a1.17,1.17,0,0,0,.47-.49l.07-.07a.9.9,0,0,0,.45-.47l.07-.08c.57-.34.62-1.15,1.27-1.4l0,0a.61.61,0,0,1,.55-.61l0,0a.74.74,0,0,1,.55-.6l0,0a1,1,0,0,1,.54-.6l0,0a1.41,1.41,0,0,1,.53-.58h0a6.8,6.8,0,0,1,.5-.57l0,0a2.68,2.68,0,0,0,.47-.54l.05-.06a.78.78,0,0,0,.4-.45.24.24,0,0,0,.24-.31.78.78,0,0,1,.57-.72l0,.05a1,1,0,0,1,.52-.62l0,0a2.62,2.62,0,0,1,.5-.6h0a2.75,2.75,0,0,0,.46-.56l.05-.06c.39-.18.22-.79.69-.92l0,0a.93.93,0,0,1,.51-.63l0,0a3.09,3.09,0,0,1,.48-.6l0,0a1.33,1.33,0,0,0,.41-.5q.27,0,.21-.33a.9.9,0,0,1,.54-.72l0,0a2.32,2.32,0,0,1,.47-.61l0,0c.35-.24.19-.83.69-1l0,.05a.86.86,0,0,1,.47-.65v0l.45-.6,0-.07c.4-.19.24-.77.65-.95l0,0c.08-.25.31-.41.46-.62l0,0c.36-.23.22-.79.64-1l0,0a1.23,1.23,0,0,0,0-1.23l0,0c-.32-.23-.85-.08-1-.59h0a4.3,4.3,0,0,1-1.67-1l0,0c-.29-.28-.81-.15-1-.58h0c-.32-.22-.86-.07-1-.59l0,0a3.93,3.93,0,0,1-1.68-1h0c-.3-.27-.83-.14-1-.58h0c-.33-.21-.87-.06-1-.59l0,0a3.47,3.47,0,0,1-1.68-1h0c-.3-.27-.82-.14-1-.59h0a6.75,6.75,0,0,1-1.66-1l-.05,0c-.27-.31-.79-.18-1-.56h0c-.54-.39-1.32-.74-.35-1.49.16.08.26,0,.32-.14a2.78,2.78,0,0,1,.65-.42.35.35,0,0,0,.43-.18,2.63,2.63,0,0,0,.56-.38h0c.25-.35.77-.22,1-.58h0a1.57,1.57,0,0,1,.71-.45.28.28,0,0,0,.38-.16l.62-.41a.39.39,0,0,0,.46-.19,1.54,1.54,0,0,0,.53-.37h0a1.08,1.08,0,0,1,.78-.46l.19,0,.1-.16a2.26,2.26,0,0,1,.67-.43.32.32,0,0,0,.42-.17,5.72,5.72,0,0,0,.57-.39h0c.24-.37.77-.24,1-.59h0a1.33,1.33,0,0,1,.73-.45.23.23,0,0,0,.35-.15,3.92,3.92,0,0,1,.64-.42.36.36,0,0,0,.45-.19,2,2,0,0,0,.54-.37h0c.25-.34.77-.21,1-.58l0,0a1.89,1.89,0,0,1,.7-.44.28.28,0,0,0,.39-.16l.59-.4,0,0c.24-.39.77-.27,1-.59h0a1.17,1.17,0,0,1,.76-.46.2.2,0,0,0,.31-.14,2.58,2.58,0,0,1,.66-.43.35.35,0,0,0,.43-.18,3.07,3.07,0,0,0,.56-.38h0c.25-.35.77-.22,1-.58h0a1.55,1.55,0,0,1,.72-.45.25.25,0,0,0,.36-.16l.63-.41a.39.39,0,0,0,.46-.19,1.64,1.64,0,0,0,.53-.37h0a1.13,1.13,0,0,1,.78-.47l.19,0,.1-.16a2,2,0,0,1,.68-.43.3.3,0,0,0,.4-.17,5.87,5.87,0,0,0,.58-.39h0c.24-.37.77-.25,1-.59h0a1.27,1.27,0,0,1,.74-.45.23.23,0,0,0,.34-.15,3.15,3.15,0,0,1,.65-.42.35.35,0,0,0,.43-.18,2.15,2.15,0,0,0,.55-.38h0c.25-.35.77-.21,1-.58l.05,0a1.77,1.77,0,0,1,.7-.44.28.28,0,0,0,.39-.16l.59-.4,0,0c.24-.4.77-.27,1-.6h0a1.13,1.13,0,0,1,.76-.46l.2,0,.11-.16a2.26,2.26,0,0,1,.67-.43.34.34,0,0,0,.42-.18,3.67,3.67,0,0,0,.56-.38h0c.24-.37.77-.24,1-.59h0a1.39,1.39,0,0,1,.73-.45.25.25,0,0,0,.35-.16,5.23,5.23,0,0,1,.63-.41.39.39,0,0,0,.46-.19,2,2,0,0,0,.54-.37h0c.25-.33.77-.19,1-.57l.06,0a2,2,0,0,1,.69-.44.3.3,0,0,0,.4-.17c.2-.12.39-.25.58-.39h0c.24-.38.77-.25,1-.59h0a1.27,1.27,0,0,1,.79-.45l-.05-.06c1.17.66.55,1.77.55,2.64.06,11.54,0,23.08.05,34.62a7.15,7.15,0,0,0,.22,2.91,8.63,8.63,0,0,0-.17,3.16,59.48,59.48,0,0,0,.15,7.67c-.15.46-.21,1.05-.95.71h0c-.32-.24-.85-.1-1-.59l0,0a4.37,4.37,0,0,1-1.67-1l0,0c-.29-.28-.81-.16-1-.57h0c-.31-.23-.85-.08-1-.59h0a4.34,4.34,0,0,1-1.68-1l0,0c-.29-.28-.82-.15-1-.58h0c-.33-.21-.87-.06-1-.58l0,0a3.93,3.93,0,0,1-1.68-1h0c-.3-.27-.83-.14-1-.58h0c-.32-.21-.87,0-1-.59l0,0a3.37,3.37,0,0,1-1.68-1h0c-.3-.27-.83-.14-1-.59h0a.68.68,0,0,0-.66,0h0a6.41,6.41,0,0,1-.45.58l0,.06c-.37.23-.22.78-.63,1l0,0c-.08.26-.3.41-.44.61l0,.06c-.36.22-.2.79-.64,1l0,0c-.06.28-.29.43-.46.62l0,0c-.33.25-.18.83-.66,1l0,0a.86.86,0,0,1-.46.63h0a5.64,5.64,0,0,1-1.14,1.57l0,0a1.1,1.1,0,0,1-.47.61v0c-.41.49-.6,1.16-1.16,1.55l0,0a1,1,0,0,1-.49.61h0c-.4.5-.55,1.2-1.19,1.52l.11.1-.09-.12a.68.68,0,0,1-.5.62l0,0a1.2,1.2,0,0,1-.5.59h0a9,9,0,0,1-1.71,2.08l0,0a.75.75,0,0,1-.51.6l0,0a1.23,1.23,0,0,1-.52.58h0a3.27,3.27,0,0,1-.5.55l0,0a7.61,7.61,0,0,1-1.76,2c0,.36-.18.53-.52.57l.12.12-.11-.13a.6.6,0,0,1-.52.58v0a.72.72,0,0,1-.53.58h0a.9.9,0,0,1-.55.56h0a1,1,0,0,1-.55.56h0a1.17,1.17,0,0,1-.54.56h0a1.36,1.36,0,0,1-.54.55h0a1.64,1.64,0,0,1-.53.55h0a2.51,2.51,0,0,1-.54.54h0a2.51,2.51,0,0,1-.54.54h0a1.85,1.85,0,0,1-.54.54h0a1.5,1.5,0,0,1-.56.53h0a1.25,1.25,0,0,1-.55.54h0a1.11,1.11,0,0,1-.56.53h0a.9.9,0,0,1-.57.54h0a.82.82,0,0,1-.57.53h0a.66.66,0,0,1-.57.53l.11.1-.11-.11a.54.54,0,0,1-.56.52,12.25,12.25,0,0,1-2.56,2.26l0,0a2.37,2.37,0,0,1-.55.5h0a.92.92,0,0,1-.58.51h0a.62.62,0,0,1-.59.49c-.3.64-1,.74-1.47,1.19l-.05,0a5.11,5.11,0,0,1-.55.48h0a.88.88,0,0,1-.6.49h0a8.23,8.23,0,0,1-2.11,1.66h0a.75.75,0,0,1-.6.47c-.35.61-1,.78-1.54,1.15h0c-.15.23-.29.46-.61.46a3.66,3.66,0,0,1-1.56,1.13h0a7.77,7.77,0,0,1-1.58,1.11h0c-.16.22-.3.45-.62.44-.13.49-.7.33-1,.64l0,0a1.15,1.15,0,0,1-.61.43c-.15.48-.7.32-1,.63l0,0a1.13,1.13,0,0,1-.61.42c-.15.49-.71.34-1,.63h0a7.52,7.52,0,0,1-1.63,1h0a3.53,3.53,0,0,1-1.65,1l0,0c-.15.5-.7.35-1,.6h0c-.22.39-.74.26-1,.57l-.05,0a6.15,6.15,0,0,1-1.67,1h0c-.19.46-.71.33-1,.57h0c-.23.4-.74.28-1,.56h0c-.25.36-.75.24-1,.54l0,0a31.37,31.37,0,0,1-5.34,2.68l-.06,0c-.27.32-.75.22-1.05.5l0,0c-.27.35-.75.26-1.08.5h0c-.26.4-.74.31-1.1.49h0c-.76.65-1.78.69-2.63,1.14h0c-.29.36-.75.29-1.11.45l0,0c-.33.65-1.13.12-1.52.61l-.05,0c-.3.33-.75.27-1.11.43h0c-.33.66-1.13.15-1.54.6h0a9.53,9.53,0,0,1-2.74,1l0,0c-.34.7-1.1.21-1.57.54h0c-.37.67-1.1.21-1.59.53h0c-1.13.7-2.48.7-3.68,1.16h0c-.45.52-1.14.14-1.64.47h0c-.55.75-1.51,0-2.11.59h0c-.59.65-1.51,0-2.13.55h0c-.6.62-1.52,0-2.15.53h0c-.62.63-1.51.06-2.18.48h0c-.75.83-1.86,0-2.66.57h0c-2.08.73-4.29.71-6.42,1.13h0c-1.17.75-2.58-.13-3.76.54l0,0c-1.54.82-3.29-.15-4.85.55l0,0c-2.06.75-4.19.13-6.28.33-.95.1-1.95-.22-2.87.25l0,0a7.08,7.08,0,0,1-4.74,0l0,0c-.6-.52-1.58.23-2.08-.61l0,0a3.2,3.2,0,0,1-1.65-1h0a1.09,1.09,0,0,1-.58-.52h0a1.2,1.2,0,0,1-.53-.58l0,0a.7.7,0,0,1-.48-.63l0,0c-.54-.16-.41-.71-.61-1.06l0,0c-.65-.45-.23-1.24-.58-1.79v-2.75a5.24,5.24,0,0,1,.43-1.34l.15-.13,0-.19a1.46,1.46,0,0,1,.44-.76v0c.37-.22.21-.81.68-1l0,0a.74.74,0,0,1,.56-.58l0,0a.81.81,0,0,1,.67-.57.27.27,0,0,0,.36-.2,2.73,2.73,0,0,0,.55-.39h0c.29-.35.79-.26,1.12-.53a.41.41,0,0,0,.48-.1c1.68-.55,3.47.16,5.14-.44a28,28,0,0,0,6.2-.12c1.06-.47,2.27.15,3.32-.41a7.39,7.39,0,0,0,2.61-.14c.59-.27,1.27-.11,1.86-.38a4.16,4.16,0,0,0,1.92-.15c.56-.3,1.24-.08,1.8-.39l1.44-.14c.53-.33,1.21-.05,1.73-.41l1.51-.16C235.43,647,235.87,647,236.26,646.77Z" transform="translate(-69.66 -371.22)"/><path class="cls-4" d="M301,407.09a.28.28,0,0,0,.36.25.88.88,0,0,1,.69.56l0,0a1.17,1.17,0,0,1,.6.52l0,0a2.83,2.83,0,0,1,.58.51h0a3.09,3.09,0,0,0,.54.48l.06,0a1,1,0,0,0,.49.44l.1.08c.14.41.77.24.86.72l0,0a.68.68,0,0,1,.6.55l0,0a.88.88,0,0,1,.6.54l0,0a1.24,1.24,0,0,1,.58.55l0,0a1.61,1.61,0,0,1,.57.53h0a3.12,3.12,0,0,1,.57.52h0l.54.51,0,0a5.09,5.09,0,0,0,.53.51l0,0a3,3,0,0,0,.51.5l0,0a1.94,1.94,0,0,0,.5.49l.06.05a1.3,1.3,0,0,0,.49.47l.06.06a1.14,1.14,0,0,0,.48.47l.07.07a1,1,0,0,0,.47.47l.07.07a1.09,1.09,0,0,0,.47.48l.06.06a1.41,1.41,0,0,0,.47.5l.05.05a1.94,1.94,0,0,0,.49.5l0,0a2.2,2.2,0,0,0,.5.51l0,0a4.18,4.18,0,0,0,.5.53l0,0,.52.54h0a6.77,6.77,0,0,1,.52.56h0a1.73,1.73,0,0,1,.54.57l0,0a1.27,1.27,0,0,1,.54.58l0,0a.94.94,0,0,1,.55.6l0,0a.69.69,0,0,1,.55.6l0-.05a.73.73,0,0,1,.6.73c0,.18.05.27.23.28a.82.82,0,0,0,.41.45l0,.06a2.73,2.73,0,0,0,.48.54v0a3.85,3.85,0,0,1,.5.57h0a1.32,1.32,0,0,1,.52.6l0,0a.76.76,0,0,1,.53.62l0,0c.48.1.31.72.71.9l0,.06a2.75,2.75,0,0,0,.46.56h0a2.22,2.22,0,0,1,.5.6l0,0a.9.9,0,0,1,.52.62l0,0c.47.13.3.74.69.92l0,.06a4.34,4.34,0,0,0,.46.58h0a1.28,1.28,0,0,1,.49.63l0,0a.83.83,0,0,1,.56.76v.19l.17.09a3.29,3.29,0,0,0,.43.54h0a1.31,1.31,0,0,1,.48.63l0,0c.44.16.28.75.67,1l0,0c.12.23.33.38.45.61l0,0a1,1,0,0,1,.52.73.24.24,0,0,0,.19.34,2.41,2.41,0,0,0,.41.54h0a1.09,1.09,0,0,1,.46.65l0-.05c.47.16.32.74.66,1h0a1.3,1.3,0,0,1,.45.65l0-.05c.47.18.33.75.66,1h0a1.36,1.36,0,0,1,.47.72.26.26,0,0,0,.19.36,2.48,2.48,0,0,0,.4.56h0a1.05,1.05,0,0,1,.49.77v.2l.16.1a6.58,6.58,0,0,1,.42.61l0,0c.41.22.28.77.62,1h0a1.24,1.24,0,0,1,.46.76.23.23,0,0,0,.16.33,6.49,6.49,0,0,1,.41.61l0,0c.41.23.3.76.6,1.06h0c.34.26.21.78.57,1l0,0a1.58,1.58,0,0,1,.43.75.22.22,0,0,0,.15.34,2.37,2.37,0,0,1,.41.68.3.3,0,0,0,.17.41c.12.2.25.4.38.6l0,0c.4.25.3.77.57,1.09v0c.37.27.27.78.56,1.09v0c.36.28.26.78.55,1.1v0c.36.28.26.78.55,1.1v0c.35.28.27.78.55,1.1l0,0c.37.29.29.78.54,1.12l0,0c.41.29.32.81.55,1.19a.31.31,0,0,0,.14.41,1.83,1.83,0,0,1,.38.73.22.22,0,0,0,.13.34c.26.31.15.79.49,1.07h0c.3.31.24.79.5,1.13v0c.38.32.33.83.52,1.24a.23.23,0,0,0,.11.36c.27.32.18.79.48,1.1h0c.34.34.3.83.5,1.23a.25.25,0,0,0,.11.38c.27.33.19.79.46,1.12v0a2.74,2.74,0,0,1,.5,1.34l-.05.16.14.1c.31.36.27.85.47,1.26a.22.22,0,0,0,.1.36c.28.36.23.84.45,1.23a.27.27,0,0,0,.1.4c.26.36.22.83.44,1.2a.28.28,0,0,0,.1.41c.26.38.23.85.43,1.24a.25.25,0,0,0,.1.38,5.1,5.1,0,0,1,.43,1.32l-.07.18.15.12c.46.47.06,1.21.5,1.69a.36.36,0,0,0,.09.47,7.54,7.54,0,0,1,.41,1.3l-.07.18.14.13c.45.52.12,1.24.48,1.78a.25.25,0,0,0,.08.39c.41.52.11,1.23.46,1.78a.22.22,0,0,0,.07.37c.41.57.17,1.29.46,1.88l.13.83c.34.54.08,1.23.42,1.77a.23.23,0,0,0,.07.38c.51.71,0,1.62.46,2.36,0,.29.08.59.13.88.43.72,0,1.6.43,2.31,0,.31.07.62.1.93.4.77.06,1.67.43,2.44a1.74,1.74,0,0,0,.11,1.34c.52,1.08-.11,2.31.44,3.38a2.31,2.31,0,0,0,.1,1.47c.54,1.5-.13,3.11.44,4.6a6.87,6.87,0,0,0,.09,3,25.41,25.41,0,0,1,0,7.54.3.3,0,0,0-.07.43c-.24.36-.18.84-.46,1.19l-.15.11,0,.19a1,1,0,0,1-.46.76v0a5.78,5.78,0,0,1-2.16,2.12l0,0a6.57,6.57,0,0,1-8,0h0a5.4,5.4,0,0,1-2.16-2.13h0c-.34-.25-.21-.77-.57-1l0,0c-.28-.36-.25-.83-.46-1.22a.26.26,0,0,0-.07-.4c-.69-3.3.19-6.67-.47-10a2.82,2.82,0,0,0-.09-1.9c-.6-1.44.16-3-.46-4.45a1.1,1.1,0,0,0-.08-.95c-.49-.93,0-2-.44-3a.73.73,0,0,0-.09-.81c-.56-.87.08-1.94-.47-2.81a.29.29,0,0,0-.06-.43c-.49-.72,0-1.62-.46-2.35l.08-.19-.14-.15c-.55-.69,0-1.61-.49-2.31a.25.25,0,0,0-.07-.4c-.4-.57-.17-1.29-.45-1.88l.07-.16-.13-.11c-.45-.56-.2-1.3-.48-1.91l.06-.14-.12-.11c-.47-.53-.16-1.26-.48-1.83l.06-.19-.14-.14c-.45-.48-.07-1.21-.5-1.7a.33.33,0,0,0-.09-.46,11.47,11.47,0,0,1-.42-1.25.23.23,0,0,0-.09-.37,4.44,4.44,0,0,1-.43-1.32l.06-.18-.15-.12a3.78,3.78,0,0,1-.45-1.35l.05-.16-.13-.1a3.92,3.92,0,0,1-.46-1.32l0-.18-.15-.13c-.3-.35-.26-.84-.46-1.23a.25.25,0,0,0-.11-.39c-.26-.33-.19-.79-.45-1.12v0a2.72,2.72,0,0,1-.51-1.34l0-.16-.14-.1c-.31-.32-.23-.8-.47-1.14v0c-.4-.35-.39-.86-.53-1.31l.05-.18-.15-.1c-.3-.31-.2-.79-.49-1.11h0c-.36-.3-.29-.78-.5-1.14l0,0c-.45-.3-.39-.83-.56-1.25a.21.21,0,0,0-.12-.33c-.28-.3-.15-.79-.5-1l0,0c-.28-.3-.18-.78-.51-1.06v0c-.31-.3-.21-.79-.52-1.08h0c-.32-.28-.22-.78-.53-1.07h0c-.33-.28-.22-.78-.54-1.06h0c-.32-.28-.2-.78-.54-1.05v0c-.3-.28-.18-.78-.55-1l0-.05c-.14-.22-.41-.36-.38-.67l0,0c-.52-.17-.4-.72-.61-1.07l0,0c-.45-.21-.33-.75-.6-1.06h0c-.38-.24-.25-.76-.59-1v0c-.18-.19-.41-.35-.4-.66l0,0c-.52-.16-.38-.72-.63-1v0c-.4-.22-.27-.76-.6-1l0,0c-.17-.19-.42-.34-.42-.65l0,0c-.49-.16-.35-.72-.64-1h0c-.22-.17-.46-.33-.42-.66l-.09.11.11-.09c-.55-.12-.39-.7-.66-1h0a7.69,7.69,0,0,1-1.08-1.63h0c-.24-.15-.47-.31-.44-.65l-.1.12.12-.1c-.54-.11-.37-.7-.68-1h0a.92.92,0,0,1-.46-.63l0,0c-.47-.14-.32-.73-.66-.95l0-.05a3,3,0,0,1-.46-.6v0c-.26-.14-.48-.3-.47-.63l-.09.11.11-.09c-.52-.1-.35-.7-.68-.94l0,0a2,2,0,0,1-.47-.59h0a.73.73,0,0,1-.48-.62l-.09.1.11-.08c-.64-.32-.79-1-1.19-1.53h0a1.2,1.2,0,0,1-.5-.59l0,0a.65.65,0,0,1-.49-.61l-.1.11.11-.1c-.64-.29-.75-1-1.21-1.48l0,0a6.55,6.55,0,0,1-.49-.56h0a1.13,1.13,0,0,1-.52-.58l0,0a.78.78,0,0,1-.52-.6l0,0a.56.56,0,0,1-.52-.59l-.12.14.13-.13a9.22,9.22,0,0,1-1.76-2l-.05-.06q-.22-.25-.48-.51l0,0a6.14,6.14,0,0,1-.5-.52l0,0a4.34,4.34,0,0,1-.52-.53h0a3,3,0,0,1-.52-.54h0a1.4,1.4,0,0,1-.53-.55h0a1.25,1.25,0,0,1-.54-.55h0a1.25,1.25,0,0,1-.54-.55h0a1.25,1.25,0,0,1-.54-.55h0a1.3,1.3,0,0,1-.54-.55h0a1.55,1.55,0,0,1-.55-.53h0a2.47,2.47,0,0,1-.54-.53h0a4.23,4.23,0,0,1-.53-.51l0,0a18,18,0,0,1-3.1-2.81.55.55,0,0,1-.58-.51l-.1.11.11-.1a.75.75,0,0,1-.59-.51h0a1.23,1.23,0,0,1-.58-.5h0a4.2,4.2,0,0,1-.54-.48l-.06,0c-.44-.45-1.17-.57-1.47-1.19a.68.68,0,0,1-.6-.49h0a1.14,1.14,0,0,1-.57-.49l0,0c-.49-.4-1.18-.55-1.51-1.17-.31,0-.47-.22-.61-.47h0c-.54-.35-1.21-.52-1.53-1.16l-.1.14.09-.14a.71.71,0,0,1-.62-.45h0a4.39,4.39,0,0,1-1.57-1.12c-.29,0-.44-.25-.6-.45l0,0c-.26-.31-.84-.14-.95-.65l-.09.14.08-.15c-.32,0-.47-.2-.63-.43h0c-.76-.48-1.52-1.09-2.3-.05l0,0c0,.29-.27.44-.41.65l0,.05c-.37.24-.23.76-.57,1h0c-.31.29-.19.82-.6,1.05l0,0c-.25.33-.12.88-.62,1.06l0,0c0,.3-.25.44-.4.66l0,0c-.36.25-.23.76-.57,1h0c-.29.29-.17.82-.59,1.05v0c-.23.33-.1.88-.61,1.05l0,0c0,.31-.24.45-.4.66l0,0c-.35.25-.22.77-.57,1h0c-.29.3-.17.83-.6,1l0,0c-.23.33-.1.89-.62,1.05l0,0c0,.31-.22.47-.39.66l0,0c-.34.26-.22.78-.58,1h0c-.29.3-.16.84-.61,1.05l0,0c-.81.77-1.14.1-1.49-.5l0,0c-.41-.23-.29-.76-.6-1h0c-.33-.26-.19-.78-.57-1l0-.06c-.13-.22-.38-.37-.41-.65l0,0c-.46-.2-.34-.74-.61-1.05v0c-.37-.25-.24-.77-.58-1v0c-.18-.2-.42-.36-.41-.67l0,0c-.53-.16-.39-.71-.62-1.05v0c-.42-.21-.3-.75-.6-1h0c-.34-.25-.21-.77-.57-1l0-.05c-.15-.22-.4-.36-.41-.66l0,0c-.49-.19-.36-.74-.62-1.06v0c-.39-.23-.27-.76-.59-1v0c-.19-.2-.43-.35-.39-.68l0,0c-.55-.14-.41-.7-.63-1.05l0,0c-.44-.21-.32-.75-.61-1.05h0c-.36-.25-.23-.77-.58-1l0,0c-.16-.21-.42-.35-.4-.67l0,0c-.5-.17-.37-.72-.62-1.05l0,0c-.41-.23-.29-.76-.6-1h0c-.33-.26-.19-.78-.56-1l0-.06c-.13-.22-.38-.37-.41-.65l0,0c-.47-.19-.34-.74-.61-1.05h0c-.38-.23-.26-.76-.59-1v0c-.18-.2-.42-.36-.4-.67l0,0c-.53-.16-.39-.71-.62-1l0,0c-.44-.21-.31-.75-.61-1h0c-.35-.25-.21-.77-.57-1l0,0c-.15-.21-.41-.36-.41-.66l0,0c-.49-.19-.37-.73-.62-1.06v0c-.39-.23-.27-.76-.59-1h0c-.19-.19-.44-.35-.39-.68l0,0c-.56-.13-.41-.69-.63-1l0,0c-.45-.21-.33-.75-.61-1.05h0c-.37-.25-.24-.77-.58-1l0,0c-.16-.21-.42-.35-.4-.67l0,0c-.51-.17-.38-.72-.62-1.06l0,0c-.42-.23-.3-.76-.6-1.05h0c-.34-.25-.2-.78-.57-1l0-.05c-.14-.22-.39-.36-.41-.66l0,0c-.47-.19-.35-.74-.61-1v0c-.39-.24-.26-.77-.59-1v0c-.19-.2-.43-.36-.4-.67l0,0c-.54-.15-.4-.7-.62-1l0,0c-.44-.21-.32-.75-.61-1.05h0c-.35-.25-.22-.77-.57-1l0,0c-.16-.21-.41-.36-.41-.66l0,0c-.6-.56-.3-1,.28-1.18a6.2,6.2,0,0,1,1.88-.08c15.56,0,31.11,0,46.67.06.71,0,2.53-1.06,2.17,1.22l0-.05c0,.29-.27.44-.4.65l0,.06c-.38.23-.24.75-.56,1v0c-.31.28-.19.81-.59,1v0c-.25.33-.13.87-.61,1.06l0,0c0,.3-.27.44-.41.66l0,.05c-.37.24-.23.76-.57,1h0c-.31.28-.19.81-.6,1l0,0c-.25.33-.12.88-.62,1.06l0,0c0,.31-.25.45-.4.66l0,.05c-.36.24-.23.76-.57,1h0c-.29.29-.17.82-.59,1v0c-.23.34-.1.88-.61,1.06l0,0c0,.32-.24.46-.4.67l0,0c-.35.25-.22.77-.57,1h0c-.29.3-.17.83-.6,1.05l0,0c-.19.54-.43,1.08.07,1.59a.26.26,0,0,0,.36.18,1.22,1.22,0,0,1,.7.49h0a2.36,2.36,0,0,0,.54.4.27.27,0,0,0,.37.19,1.15,1.15,0,0,1,.7.5h0a3.72,3.72,0,0,0,.56.42.22.22,0,0,0,.32.18,1,1,0,0,1,.73.52l0,0a4.64,4.64,0,0,1,.61.46l.05,0c.21.37.8.21.95.66l0,0a1.16,1.16,0,0,1,.63.48h0a6.41,6.41,0,0,0,.58.45l.07,0c.18.4.78.23.93.68l0,0a1.14,1.14,0,0,1,.62.5h0c.18.16.38.32.57.46l.07,0a.67.67,0,0,0,.44.38.31.31,0,0,0,.38.25.94.94,0,0,1,.68.54l0,0a1.71,1.71,0,0,1,.6.5h0a4.06,4.06,0,0,0,.55.46l.08,0A.65.65,0,0,0,301,407.09Z" transform="translate(-69.66 -371.22)"/></svg>