<svg id="Capa_1" data-name="Capa 1" xmlns="http://www.w3.org/2000/svg" viewBox="0 0 787.69 718.16"><defs><style>.cls-1{fill:#fdfdfd;}.cls-2{fill:#a35edf;}.cls-2,.cls-4{stroke:#fff;}.cls-2,.cls-3,.cls-4{stroke-miterlimit:10;stroke-width:2px;}.cls-3,.cls-4{fill:#d7b3f7;}.cls-3{stroke:#f9f9f9;}</style></defs><title>isologotipo</title><path d="M186.12,703.76H166.88l5.32-25.17h19.54l1.19-6.21q3.84-19.25,12.72-33A66.6,66.6,0,0,1,227,618.06a51,51,0,0,1,26.93-7.55,59.24,59.24,0,0,1,17,2.52,63.51,63.51,0,0,1,15.54,7l-12.14,24.28a25.25,25.25,0,0,0-9-4.59A37,37,0,0,0,254.79,638q-10.65,0-18,8.59t-11,24.86l-1.48,7.1h37.3L256,703.76h-37.3l-40,188.85H146.16Z" transform="translate(-146.16 -177.41)"/><path d="M319.91,832.52q-19.53,0-33.45-8.5a55.38,55.38,0,0,1-21.16-23.17q-7.26-14.67-7.25-33.15a91.68,91.68,0,0,1,7.1-35.92,94.64,94.64,0,0,1,88.21-58.22q16,0,28,4.84T400,692.47q6.66,9.24,6.66,23.3,0,23.44-21.46,35.76t-65.28,12.32q-8.28,0-18.64-.45t-23.39-1.63l4.44-21q11.83.59,21,1.18t17.17.59q21,0,33.15-3.19t17.46-9.14a19.66,19.66,0,0,0,5.33-13.5q0-6.68-3.25-10.74a20.49,20.49,0,0,0-9.18-6.24,41.34,41.34,0,0,0-14.21-2.18,51.17,51.17,0,0,0-24,5.7A56.79,56.79,0,0,0,307,719a77.22,77.22,0,0,0-12.14,22.64,81.73,81.73,0,0,0-4.29,26.58,53.94,53.94,0,0,0,3.7,20.31,31.55,31.55,0,0,0,11.54,14.6q7.84,5.4,19.69,5.4a51.19,51.19,0,0,0,24.57-6.36,48.59,48.59,0,0,0,18.65-17.32l25.75,8a80.83,80.83,0,0,1-19.24,20.57,94.64,94.64,0,0,1-26.2,14.06A87.69,87.69,0,0,1,319.91,832.52Z" transform="translate(-146.16 -177.41)"/><path d="M446.61,675.93h29.3L469.4,707a86,86,0,0,1,27.83-24.48,68.57,68.57,0,0,1,33.45-9q11.84,0,19.68,4.25a27.09,27.09,0,0,1,11.69,12,47.39,47.39,0,0,1,4.44,18.63A101.63,101.63,0,0,1,585,689.25a74.67,74.67,0,0,1,21-11.73,66.11,66.11,0,0,1,22.35-4q13,0,20.57,4.7a26.16,26.16,0,0,1,10.81,12.9A51.46,51.46,0,0,1,663,710.22a87,87,0,0,1-.88,11.73q-.9,6.45-2.37,14.07l-20.13,93.54H607.05l18.35-85.73a85.46,85.46,0,0,0,2.37-18.44q0-11.7-5-17.26t-13.92-5.56a37.43,37.43,0,0,0-17.31,4.51,59.43,59.43,0,0,0-16.28,12.66,86.42,86.42,0,0,0-13.18,18.92l-19.24,90.9H510.25l18.35-85.92a64.06,64.06,0,0,0,1.93-10.11q.44-4.54.44-8.65,0-11.6-4.73-17t-13.92-5.36q-12.44,0-25.46,9.89a72.74,72.74,0,0,0-21,25.91L446,829.56H413.45Z" transform="translate(-146.16 -177.41)"/><path d="M709.17,703.76H689.93l5.33-25.17H714.8l1.18-6.21q3.84-19.25,12.73-33A66.67,66.67,0,0,1,750,618.06,51,51,0,0,1,777,610.51,59.17,59.17,0,0,1,794,613a63.17,63.17,0,0,1,15.54,7l-12.13,24.28a25.25,25.25,0,0,0-9-4.59A37.13,37.13,0,0,0,777.85,638q-10.67,0-18.06,8.59t-10.95,24.86l-1.48,7.1h37.3L779,703.76H741.74l-40,188.85H669.21Z" transform="translate(-146.16 -177.41)"/><path d="M765.41,870.36a119.51,119.51,0,0,0,20.13-3.82A35.63,35.63,0,0,0,799,859.06a78,78,0,0,0,12-14.22l8.58-12.31-27.82-156.6h33.45l17.46,124.92,10.07-16.42q10.95-17.59,18.79-31.82T885,725.93a246.58,246.58,0,0,0,9.62-24.64q4-12.16,7.26-25.36h32Q930,690,925.26,702.47T914,728.42q-6.51,13.49-16.43,30.35t-24.71,40.32l-23.69,37.83a274.1,274.1,0,0,1-19.53,27.57,102.2,102.2,0,0,1-18.5,17.89,66.2,66.2,0,0,1-19.39,9.82,81.49,81.49,0,0,1-21.91,3.37Z" transform="translate(-146.16 -177.41)"/><path class="cls-1" d="M822,519.58a1.88,1.88,0,0,1,1-1.79C823.05,518.6,822.94,519.31,822,519.58Z" transform="translate(-146.16 -177.41)"/><path class="cls-1" d="M821.07,521.3c.1-.72.23-1.42,1-1.77C822.15,520.36,822.06,521.08,821.07,521.3Z" transform="translate(-146.16 -177.41)"/><path class="cls-1" d="M385,593.35a7.7,7.7,0,0,1,3.25,2.89A3.3,3.3,0,0,1,385,593.35Z" transform="translate(-146.16 -177.41)"/><path class="cls-1" d="M404.45,609.46a4.32,4.32,0,0,1,2.55,1.85A2.26,2.26,0,0,1,404.45,609.46Z" transform="translate(-146.16 -177.41)"/><path class="cls-1" d="M400.91,606.78a4.34,4.34,0,0,1,2.51,1.87A2.23,2.23,0,0,1,400.91,606.78Z" transform="translate(-146.16 -177.41)"/><path class="cls-1" d="M397.45,604a4.21,4.21,0,0,1,2.47,1.93C398.57,606,397.62,605.52,397.45,604Z" transform="translate(-146.16 -177.41)"/><path class="cls-1" d="M392.1,599.61a4.3,4.3,0,0,1,2.39,2C393.19,601.53,392.27,601,392.1,599.61Z" transform="translate(-146.16 -177.41)"/><path class="cls-1" d="M755.25,369.6a5,5,0,0,1,.83,3.72C754.76,372.32,755.28,370.9,755.25,369.6Z" transform="translate(-146.16 -177.41)"/><path class="cls-1" d="M751.71,356.26a3.18,3.18,0,0,1,.83,2.83C751.43,358.4,751.66,357.3,751.71,356.26Z" transform="translate(-146.16 -177.41)"/><path class="cls-1" d="M752.54,359.09a3,3,0,0,1,.79,2.68C752.35,361.08,752.53,360.06,752.54,359.09Z" transform="translate(-146.16 -177.41)"/><path class="cls-1" d="M753.48,362.49a3.19,3.19,0,0,1,.77,2.83C753.21,364.59,753.42,363.52,753.48,362.49Z" transform="translate(-146.16 -177.41)"/><path class="cls-1" d="M746.31,340.48a3.05,3.05,0,0,1,1,2.6C746.13,342.52,746.32,341.46,746.31,340.48Z" transform="translate(-146.16 -177.41)"/><path class="cls-1" d="M744.53,336a3.13,3.13,0,0,1,1,2.57C744.34,338.1,744.55,337,744.53,336Z" transform="translate(-146.16 -177.41)"/><path class="cls-1" d="M754.38,366a3.23,3.23,0,0,1,.74,2.88C754.09,368.12,754.32,367,754.38,366Z" transform="translate(-146.16 -177.41)"/><path class="cls-1" d="M740.9,508.34a1.79,1.79,0,0,1-.83,1.73A1.79,1.79,0,0,1,740.9,508.34Z" transform="translate(-146.16 -177.41)"/><path class="cls-1" d="M740.06,510.1a1.82,1.82,0,0,1-.86,1.77A1.79,1.79,0,0,1,740.06,510.1Z" transform="translate(-146.16 -177.41)"/><path class="cls-1" d="M739.19,511.89a1.8,1.8,0,0,1-.88,1.76A1.77,1.77,0,0,1,739.19,511.89Z" transform="translate(-146.16 -177.41)"/><path class="cls-1" d="M738.31,513.66a1.84,1.84,0,0,1-.89,1.77A1.78,1.78,0,0,1,738.31,513.66Z" transform="translate(-146.16 -177.41)"/><path class="cls-1" d="M737.42,515.44a1.79,1.79,0,0,1-.9,1.73A1.77,1.77,0,0,1,737.42,515.44Z" transform="translate(-146.16 -177.41)"/><path class="cls-1" d="M734,521.74a1.93,1.93,0,0,1-1,1.77C733,522.72,733.14,522,734,521.74Z" transform="translate(-146.16 -177.41)"/><path class="cls-1" d="M733.07,523.47a1.85,1.85,0,0,1-1,1.73A1.63,1.63,0,0,1,733.07,523.47Z" transform="translate(-146.16 -177.41)"/><path class="cls-1" d="M730.46,528a1.88,1.88,0,0,1-1,1.71C729.45,528.89,729.63,528.22,730.46,528Z" transform="translate(-146.16 -177.41)"/><path class="cls-1" d="M727.75,532.36a1.92,1.92,0,0,1-1,1.64A1.61,1.61,0,0,1,727.75,532.36Z" transform="translate(-146.16 -177.41)"/><path class="cls-1" d="M754.27,535.83a1.78,1.78,0,0,1,.93-1.67A1.65,1.65,0,0,1,754.27,535.83Z" transform="translate(-146.16 -177.41)"/><path class="cls-1" d="M726,535.05a1.88,1.88,0,0,1-1,1.64A1.56,1.56,0,0,1,726,535.05Z" transform="translate(-146.16 -177.41)"/><path class="cls-1" d="M753.29,537.57a1.83,1.83,0,0,1,1-1.72A1.54,1.54,0,0,1,753.29,537.57Z" transform="translate(-146.16 -177.41)"/><path class="cls-1" d="M724.24,537.72a1.91,1.91,0,0,1-1.07,1.61C723.23,538.59,723.44,538,724.24,537.72Z" transform="translate(-146.16 -177.41)"/><path class="cls-1" d="M752.29,539.26a1.88,1.88,0,0,1,1-1.73C753.36,538.34,753.26,539.06,752.29,539.26Z" transform="translate(-146.16 -177.41)"/><path class="cls-1" d="M750.64,542a1.82,1.82,0,0,1,1-1.68A1.57,1.57,0,0,1,750.64,542Z" transform="translate(-146.16 -177.41)"/><path class="cls-1" d="M749.61,543.68a1.88,1.88,0,0,1,1-1.69C750.7,542.8,750.59,543.51,749.61,543.68Z" transform="translate(-146.16 -177.41)"/><path class="cls-1" d="M719.85,544a1.89,1.89,0,0,1-1.12,1.56C718.79,544.79,719,544.16,719.85,544Z" transform="translate(-146.16 -177.41)"/><path class="cls-1" d="M747.9,546.4a1.84,1.84,0,0,1,1-1.66C748.94,545.51,748.76,546.17,747.9,546.4Z" transform="translate(-146.16 -177.41)"/><path class="cls-1" d="M717.19,547.54a1.87,1.87,0,0,1-1.13,1.52C716.13,548.33,716.36,547.7,717.19,547.54Z" transform="translate(-146.16 -177.41)"/><path class="cls-1" d="M746.15,549.09a1.83,1.83,0,0,1,1-1.63C747.17,548.21,747,548.85,746.15,549.09Z" transform="translate(-146.16 -177.41)"/><path class="cls-1" d="M744.37,551.75a1.81,1.81,0,0,1,1-1.61C745.39,550.89,745.2,551.52,744.37,551.75Z" transform="translate(-146.16 -177.41)"/><path class="cls-1" d="M713.69,552a1.89,1.89,0,0,1-1.18,1.49C712.59,552.77,712.81,552.14,713.69,552Z" transform="translate(-146.16 -177.41)"/><path class="cls-1" d="M742.56,554.38a1.8,1.8,0,0,1,1.07-1.59C743.61,553.55,743.42,554.19,742.56,554.38Z" transform="translate(-146.16 -177.41)"/><path class="cls-1" d="M709.25,557.36a1.89,1.89,0,0,1-1.19,1.44C708.15,558.07,708.38,557.45,709.25,557.36Z" transform="translate(-146.16 -177.41)"/><path class="cls-1" d="M677.79,587.35a1.86,1.86,0,0,1-1.52,1.12C676.43,587.63,677.05,587.41,677.79,587.35Z" transform="translate(-146.16 -177.41)"/><path class="cls-1" d="M408.86,632.72a1.83,1.83,0,0,1-1,1.72A1.65,1.65,0,0,1,408.86,632.72Z" transform="translate(-146.16 -177.41)"/><path class="cls-1" d="M406.29,637.21a2,2,0,0,1-1,1.76C405.25,638.17,405.39,637.47,406.29,637.21Z" transform="translate(-146.16 -177.41)"/><path class="cls-1" d="M405.3,638.93a1.86,1.86,0,0,1-1,1.71A1.66,1.66,0,0,1,405.3,638.93Z" transform="translate(-146.16 -177.41)"/><path class="cls-1" d="M721.46,294.29a1.8,1.8,0,0,1,1.09,1.58C721.65,295.71,721.47,295.06,721.46,294.29Z" transform="translate(-146.16 -177.41)"/><path class="cls-1" d="M723.27,296.89a1.85,1.85,0,0,1,1.1,1.61C723.38,298.38,723.26,297.68,723.27,296.89Z" transform="translate(-146.16 -177.41)"/><path class="cls-1" d="M725.05,299.54a1.82,1.82,0,0,1,1.09,1.63C725.15,301,725,300.34,725.05,299.54Z" transform="translate(-146.16 -177.41)"/><path class="cls-1" d="M726.81,302.23a1.83,1.83,0,0,1,1.06,1.66C727,303.69,726.8,303,726.81,302.23Z" transform="translate(-146.16 -177.41)"/><path class="cls-1" d="M728.55,305a1.82,1.82,0,0,1,1,1.67C728.74,306.36,728.56,305.71,728.55,305Z" transform="translate(-146.16 -177.41)"/><path class="cls-1" d="M729.54,306.59a1.91,1.91,0,0,1,1.05,1.69C729.58,308.13,729.48,307.41,729.54,306.59Z" transform="translate(-146.16 -177.41)"/><path class="cls-1" d="M731.23,309.37a1.82,1.82,0,0,1,1,1.71A1.55,1.55,0,0,1,731.23,309.37Z" transform="translate(-146.16 -177.41)"/><path class="cls-1" d="M732.19,311a1.87,1.87,0,0,1,1,1.74C732.24,312.56,732.13,311.85,732.19,311Z" transform="translate(-146.16 -177.41)"/><path class="cls-1" d="M733.84,313.9a1.77,1.77,0,0,1,.91,1.67A1.72,1.72,0,0,1,733.84,313.9Z" transform="translate(-146.16 -177.41)"/><path class="cls-1" d="M734.77,315.6a1.77,1.77,0,0,1,.91,1.73A1.64,1.64,0,0,1,734.77,315.6Z" transform="translate(-146.16 -177.41)"/><path class="cls-1" d="M735.69,317.33a1.82,1.82,0,0,1,.92,1.76A1.59,1.59,0,0,1,735.69,317.33Z" transform="translate(-146.16 -177.41)"/><path class="cls-1" d="M736.6,319.07a1.81,1.81,0,0,1,.92,1.79A1.57,1.57,0,0,1,736.6,319.07Z" transform="translate(-146.16 -177.41)"/><path class="cls-1" d="M737.51,320.83a1.83,1.83,0,0,1,.91,1.8A1.54,1.54,0,0,1,737.51,320.83Z" transform="translate(-146.16 -177.41)"/><path class="cls-1" d="M738.4,322.6a1.81,1.81,0,0,1,.89,1.82A1.57,1.57,0,0,1,738.4,322.6Z" transform="translate(-146.16 -177.41)"/><path class="cls-1" d="M739.27,324.39a1.79,1.79,0,0,1,.88,1.82A1.63,1.63,0,0,1,739.27,324.39Z" transform="translate(-146.16 -177.41)"/><path class="cls-1" d="M740.14,326.19A1.78,1.78,0,0,1,741,328,1.68,1.68,0,0,1,740.14,326.19Z" transform="translate(-146.16 -177.41)"/><path class="cls-1" d="M741,328a1.75,1.75,0,0,1,.84,1.78A1.75,1.75,0,0,1,741,328Z" transform="translate(-146.16 -177.41)"/><path class="cls-1" d="M741.85,329.85a1.71,1.71,0,0,1,.81,1.71A1.78,1.78,0,0,1,741.85,329.85Z" transform="translate(-146.16 -177.41)"/><path class="cls-1" d="M742.86,332.17a2.06,2.06,0,0,1,.87,2C742.84,333.78,742.78,333,742.86,332.17Z" transform="translate(-146.16 -177.41)"/><path class="cls-1" d="M743.72,334.15a1.78,1.78,0,0,1,.8,1.86A1.72,1.72,0,0,1,743.72,334.15Z" transform="translate(-146.16 -177.41)"/><path class="cls-1" d="M745.53,338.55a1.8,1.8,0,0,1,.77,1.9A1.7,1.7,0,0,1,745.53,338.55Z" transform="translate(-146.16 -177.41)"/><path class="cls-1" d="M747.26,343a1.76,1.76,0,0,1,.74,1.85A1.76,1.76,0,0,1,747.26,343Z" transform="translate(-146.16 -177.41)"/><path class="cls-1" d="M748.18,345.54a2,2,0,0,1,.74,2A1.85,1.85,0,0,1,748.18,345.54Z" transform="translate(-146.16 -177.41)"/><path class="cls-1" d="M749.09,348.12a2.09,2.09,0,0,1,.74,2.1A1.91,1.91,0,0,1,749.09,348.12Z" transform="translate(-146.16 -177.41)"/><path class="cls-1" d="M750,350.75a2.12,2.12,0,0,1,.72,2.14A2,2,0,0,1,750,350.75Z" transform="translate(-146.16 -177.41)"/><path class="cls-1" d="M750.86,353.48a2,2,0,0,1,.69,2.07A1.92,1.92,0,0,1,750.86,353.48Z" transform="translate(-146.16 -177.41)"/><path class="cls-1" d="M751.51,480.81a1.93,1.93,0,0,1-.7,1.94A1.93,1.93,0,0,1,751.51,480.81Z" transform="translate(-146.16 -177.41)"/><path class="cls-1" d="M750.65,483.47a1.92,1.92,0,0,1-.71,2A1.88,1.88,0,0,1,750.65,483.47Z" transform="translate(-146.16 -177.41)"/><path class="cls-1" d="M749.77,486.13a1.9,1.9,0,0,1-.73,2A1.87,1.87,0,0,1,749.77,486.13Z" transform="translate(-146.16 -177.41)"/><path class="cls-1" d="M748.87,488.8a1.88,1.88,0,0,1-.74,1.89A1.88,1.88,0,0,1,748.87,488.8Z" transform="translate(-146.16 -177.41)"/><path class="cls-1" d="M747.94,491.47a1.78,1.78,0,0,1-.74,1.77A1.85,1.85,0,0,1,747.94,491.47Z" transform="translate(-146.16 -177.41)"/><path class="cls-1" d="M747.2,493.24a2,2,0,0,1-.79,2.05A1.83,1.83,0,0,1,747.2,493.24Z" transform="translate(-146.16 -177.41)"/><path class="cls-1" d="M746.22,495.9a1.77,1.77,0,0,1-.77,1.83A1.82,1.82,0,0,1,746.22,495.9Z" transform="translate(-146.16 -177.41)"/><path class="cls-1" d="M745.46,497.7a2,2,0,0,1-.83,2A1.78,1.78,0,0,1,745.46,497.7Z" transform="translate(-146.16 -177.41)"/><path class="cls-1" d="M744.43,500.35a1.75,1.75,0,0,1-.78,1.77A1.81,1.81,0,0,1,744.43,500.35Z" transform="translate(-146.16 -177.41)"/><path class="cls-1" d="M743.64,502.12a1.82,1.82,0,0,1-.82,1.87A1.75,1.75,0,0,1,743.64,502.12Z" transform="translate(-146.16 -177.41)"/><path class="cls-1" d="M742.85,503.93a2,2,0,0,1-.89,2C741.89,505.09,742,504.33,742.85,503.93Z" transform="translate(-146.16 -177.41)"/><path class="cls-1" d="M703.79,563.47a1.07,1.07,0,0,1-.9,1A1.19,1.19,0,0,1,703.79,563.47Z" transform="translate(-146.16 -177.41)"/><path class="cls-1" d="M702.94,564.4a1.07,1.07,0,0,1-.91,1A1.07,1.07,0,0,1,702.94,564.4Z" transform="translate(-146.16 -177.41)"/><path class="cls-1" d="M702.08,565.31a1.09,1.09,0,0,1-.93,1A1.07,1.07,0,0,1,702.08,565.31Z" transform="translate(-146.16 -177.41)"/><path class="cls-1" d="M701.21,566.21a1.09,1.09,0,0,1-.93,1A1,1,0,0,1,701.21,566.21Z" transform="translate(-146.16 -177.41)"/><path class="cls-1" d="M700.33,567.12a1.09,1.09,0,0,1-.94.94A1,1,0,0,1,700.33,567.12Z" transform="translate(-146.16 -177.41)"/><path class="cls-1" d="M699.45,568a1.1,1.1,0,0,1-1,.94A1,1,0,0,1,699.45,568Z" transform="translate(-146.16 -177.41)"/><path class="cls-1" d="M698.56,568.89a1.1,1.1,0,0,1-.94,1A1,1,0,0,1,698.56,568.89Z" transform="translate(-146.16 -177.41)"/><path class="cls-1" d="M697.67,569.78a1.08,1.08,0,0,1-.94.94A1,1,0,0,1,697.67,569.78Z" transform="translate(-146.16 -177.41)"/><path class="cls-1" d="M696.78,570.67a1.08,1.08,0,0,1-.94.94A1,1,0,0,1,696.78,570.67Z" transform="translate(-146.16 -177.41)"/><path class="cls-1" d="M695.89,571.56a1.09,1.09,0,0,1-.95.93A1,1,0,0,1,695.89,571.56Z" transform="translate(-146.16 -177.41)"/><path class="cls-1" d="M695,572.43a1.08,1.08,0,0,1-1,.93A1.06,1.06,0,0,1,695,572.43Z" transform="translate(-146.16 -177.41)"/><path class="cls-1" d="M724.93,536.74a.93.93,0,0,1-.74,1C724.44,537.44,724.69,537.09,724.93,536.74Z" transform="translate(-146.16 -177.41)"/><path class="cls-1" d="M694.09,573.31a1.08,1.08,0,0,1-1,.91A1.08,1.08,0,0,1,694.09,573.31Z" transform="translate(-146.16 -177.41)"/><path class="cls-1" d="M693.17,574.17a1.06,1.06,0,0,1-1,.9A1.17,1.17,0,0,1,693.17,574.17Z" transform="translate(-146.16 -177.41)"/><path class="cls-1" d="M692.25,575a1,1,0,0,1-1,.9A1.21,1.21,0,0,1,692.25,575Z" transform="translate(-146.16 -177.41)"/><path class="cls-1" d="M691.33,575.89a1,1,0,0,1-1,.88Z" transform="translate(-146.16 -177.41)"/><path class="cls-1" d="M690.4,576.76a1,1,0,0,1-.93.84Z" transform="translate(-146.16 -177.41)"/><path class="cls-1" d="M689.45,577.62a.9.9,0,0,1-.89.81Z" transform="translate(-146.16 -177.41)"/><path class="cls-1" d="M688.48,578.49a.77.77,0,0,1-.83.74Z" transform="translate(-146.16 -177.41)"/><path class="cls-1" d="M687.51,579.35a.63.63,0,0,1-.68.63Z" transform="translate(-146.16 -177.41)"/><path class="cls-1" d="M686.24,580.4a1.33,1.33,0,0,1-1.11,1A1.25,1.25,0,0,1,686.24,580.4Z" transform="translate(-146.16 -177.41)"/><path class="cls-1" d="M685.19,581.29a1,1,0,0,1-1,.86A1.18,1.18,0,0,1,685.19,581.29Z" transform="translate(-146.16 -177.41)"/><path class="cls-1" d="M684.23,582.12a1,1,0,0,1-1,.83Z" transform="translate(-146.16 -177.41)"/><path class="cls-1" d="M731.09,527a.87.87,0,0,1-.68,1Z" transform="translate(-146.16 -177.41)"/><path class="cls-1" d="M683.25,583a.86.86,0,0,1-.91.77Z" transform="translate(-146.16 -177.41)"/><path class="cls-1" d="M682.23,583.8c-.07.42-.28.67-.73.65Z" transform="translate(-146.16 -177.41)"/><path class="cls-1" d="M680.9,584.84a1.27,1.27,0,0,1-1.13.91A1.27,1.27,0,0,1,680.9,584.84Z" transform="translate(-146.16 -177.41)"/><path class="cls-1" d="M679.83,585.7a1,1,0,0,1-1,.82A1.25,1.25,0,0,1,679.83,585.7Z" transform="translate(-146.16 -177.41)"/><path class="cls-1" d="M734.63,520.78a.87.87,0,0,1-.64,1A1.11,1.11,0,0,1,734.63,520.78Z" transform="translate(-146.16 -177.41)"/><path class="cls-1" d="M678.83,586.52a.88.88,0,0,1-.94.76Z" transform="translate(-146.16 -177.41)"/><path class="cls-1" d="M741.74,506.57a1.08,1.08,0,0,1-.63,1.24A1.4,1.4,0,0,1,741.74,506.57Z" transform="translate(-146.16 -177.41)"/><path class="cls-1" d="M676.33,588.42a1,1,0,0,1-1,.81A1.15,1.15,0,0,1,676.33,588.42Z" transform="translate(-146.16 -177.41)"/><path class="cls-1" d="M723.13,539.4a.92.92,0,0,1-.74,1Z" transform="translate(-146.16 -177.41)"/><path class="cls-1" d="M751.65,540.29a1,1,0,0,1,.68-1.08A1.12,1.12,0,0,1,751.65,540.29Z" transform="translate(-146.16 -177.41)"/><path class="cls-1" d="M722.43,540.36a1.32,1.32,0,0,1-.86,1.23A1.36,1.36,0,0,1,722.43,540.36Z" transform="translate(-146.16 -177.41)"/><path class="cls-1" d="M384.12,592.49a1,1,0,0,1,.92.86A.86.86,0,0,1,384.12,592.49Z" transform="translate(-146.16 -177.41)"/><path class="cls-1" d="M388.39,596.32a.77.77,0,0,1,.85.78Z" transform="translate(-146.16 -177.41)"/><path class="cls-1" d="M389.29,597.15a.9.9,0,0,1,.91.82A1.12,1.12,0,0,1,389.29,597.15Z" transform="translate(-146.16 -177.41)"/><path class="cls-1" d="M390.2,598a1,1,0,0,1,.95.84A1.12,1.12,0,0,1,390.2,598Z" transform="translate(-146.16 -177.41)"/><path class="cls-1" d="M736.51,517.21a1.26,1.26,0,0,1-.72,1.32A1.48,1.48,0,0,1,736.51,517.21Z" transform="translate(-146.16 -177.41)"/><path class="cls-1" d="M391.13,598.79a1,1,0,0,1,1,.83A1,1,0,0,1,391.13,598.79Z" transform="translate(-146.16 -177.41)"/><path class="cls-1" d="M394.61,601.67a.76.76,0,0,1,.87.75Z" transform="translate(-146.16 -177.41)"/><path class="cls-1" d="M395.52,602.45a.9.9,0,0,1,.94.81A1.13,1.13,0,0,1,395.52,602.45Z" transform="translate(-146.16 -177.41)"/><path class="cls-1" d="M396.45,603.25a1,1,0,0,1,1,.79A1,1,0,0,1,396.45,603.25Z" transform="translate(-146.16 -177.41)"/><path class="cls-1" d="M721.27,542.1a.78.78,0,0,1-.7.9Z" transform="translate(-146.16 -177.41)"/><path class="cls-1" d="M400,606a.91.91,0,0,1,1,.79A1.1,1.1,0,0,1,400,606Z" transform="translate(-146.16 -177.41)"/><path class="cls-1" d="M403.5,608.71a.88.88,0,0,1,1,.76A1.06,1.06,0,0,1,403.5,608.71Z" transform="translate(-146.16 -177.41)"/><path class="cls-1" d="M720.57,543a1,1,0,0,1-.78,1A1.19,1.19,0,0,1,720.57,543Z" transform="translate(-146.16 -177.41)"/><path class="cls-1" d="M729.44,529.66a1.21,1.21,0,0,1-.77,1.23A1.4,1.4,0,0,1,729.44,529.66Z" transform="translate(-146.16 -177.41)"/><path class="cls-1" d="M733.15,312.73a.92.92,0,0,1,.66,1.08A1.16,1.16,0,0,1,733.15,312.73Z" transform="translate(-146.16 -177.41)"/><path class="cls-1" d="M407.06,611.35a.89.89,0,0,1,1,.74A1,1,0,0,1,407.06,611.35Z" transform="translate(-146.16 -177.41)"/><path class="cls-1" d="M749,544.71a.94.94,0,0,1,.7-1.07A1.08,1.08,0,0,1,749,544.71Z" transform="translate(-146.16 -177.41)"/><path class="cls-1" d="M718.68,545.62a.91.91,0,0,1-.76,1Z" transform="translate(-146.16 -177.41)"/><path class="cls-1" d="M730.55,308.24a1,1,0,0,1,.66,1.1A1.06,1.06,0,0,1,730.55,308.24Z" transform="translate(-146.16 -177.41)"/><path class="cls-1" d="M717.94,546.56a1,1,0,0,1-.81,1.05A1.2,1.2,0,0,1,717.94,546.56Z" transform="translate(-146.16 -177.41)"/><path class="cls-1" d="M747.22,547.4a.93.93,0,0,1,.71-1A1.17,1.17,0,0,1,747.22,547.4Z" transform="translate(-146.16 -177.41)"/><path class="cls-1" d="M728.39,531.44a.84.84,0,0,1-.68,1Z" transform="translate(-146.16 -177.41)"/><path class="cls-1" d="M716,549.16a.89.89,0,0,1-.75.94Z" transform="translate(-146.16 -177.41)"/><path class="cls-1" d="M745.46,550.06a.9.9,0,0,1,.73-1A1.13,1.13,0,0,1,745.46,550.06Z" transform="translate(-146.16 -177.41)"/><path class="cls-1" d="M715.24,550.1a1,1,0,0,1-.82,1A1.24,1.24,0,0,1,715.24,550.1Z" transform="translate(-146.16 -177.41)"/><path class="cls-1" d="M714.47,551.05a1.09,1.09,0,0,1-.84,1A1.06,1.06,0,0,1,714.47,551.05Z" transform="translate(-146.16 -177.41)"/><path class="cls-1" d="M743.67,552.72a.92.92,0,0,1,.74-1A1.12,1.12,0,0,1,743.67,552.72Z" transform="translate(-146.16 -177.41)"/><path class="cls-1" d="M727.83,303.84a.93.93,0,0,1,.7,1.07A1.14,1.14,0,0,1,727.83,303.84Z" transform="translate(-146.16 -177.41)"/><path class="cls-1" d="M755.23,534.08a.92.92,0,0,1,.65-1.09A1.12,1.12,0,0,1,755.23,534.08Z" transform="translate(-146.16 -177.41)"/><path class="cls-1" d="M726.11,301.14a1,1,0,0,1,.7,1.08A1,1,0,0,1,726.11,301.14Z" transform="translate(-146.16 -177.41)"/><path class="cls-1" d="M735.57,519a1.09,1.09,0,0,1-.69,1.21A1.39,1.39,0,0,1,735.57,519Z" transform="translate(-146.16 -177.41)"/><path class="cls-1" d="M712.45,553.61a.88.88,0,0,1-.77.91Z" transform="translate(-146.16 -177.41)"/><path class="cls-1" d="M724.34,298.47a1,1,0,0,1,.72,1.08A1,1,0,0,1,724.34,298.47Z" transform="translate(-146.16 -177.41)"/><path class="cls-1" d="M711.67,554.53a1,1,0,0,1-.84,1Z" transform="translate(-146.16 -177.41)"/><path class="cls-1" d="M741.84,555.37a1,1,0,0,1,.76-1A1.14,1.14,0,0,1,741.84,555.37Z" transform="translate(-146.16 -177.41)"/><path class="cls-1" d="M726.69,534.07a.93.93,0,0,1-.72,1Z" transform="translate(-146.16 -177.41)"/><path class="cls-1" d="M407.88,634.46a1.2,1.2,0,0,1-.74,1.26A1.43,1.43,0,0,1,407.88,634.46Z" transform="translate(-146.16 -177.41)"/><path class="cls-1" d="M710.87,555.46a1.06,1.06,0,0,1-.86,1A1.19,1.19,0,0,1,710.87,555.46Z" transform="translate(-146.16 -177.41)"/><path class="cls-1" d="M406.9,636.24a.88.88,0,0,1-.67,1A1.14,1.14,0,0,1,406.9,636.24Z" transform="translate(-146.16 -177.41)"/><path class="cls-1" d="M710.06,556.41a1.08,1.08,0,0,1-.87,1A1,1,0,0,1,710.06,556.41Z" transform="translate(-146.16 -177.41)"/><path class="cls-1" d="M404.32,640.67a1.2,1.2,0,0,1-.74,1.25A1.44,1.44,0,0,1,404.32,640.67Z" transform="translate(-146.16 -177.41)"/><path class="cls-1" d="M722.52,295.84a1,1,0,0,1,.74,1.05A1.08,1.08,0,0,1,722.52,295.84Z" transform="translate(-146.16 -177.41)"/><path class="cls-1" d="M403.33,642.46a.87.87,0,0,1-.66,1Z" transform="translate(-146.16 -177.41)"/><path class="cls-2" d="M322.42,317.7l.25-.2-.06-.32a2.48,2.48,0,0,1,.65-1.25.43.43,0,0,0,.22-.62,3.45,3.45,0,0,1,.63-1.16.49.49,0,0,0,.24-.67c.37-.62.22-1.49.94-1.94l0,.07c.37-.58.23-1.43.93-1.84l0,.06c.37-.58.22-1.42.93-1.84l0,.08c.19-.35.4-.69.62-1a.49.49,0,0,0,.25-.67,4.79,4.79,0,0,1,.66-1.11.42.42,0,0,0,.25-.61,3,3,0,0,1,.68-1.17.33.33,0,0,0,.23-.52,2.18,2.18,0,0,1,.72-1.27l0,0c.58-.42.38-1.28.94-1.71h0c.5-.49.32-1.35,1-1.75l0,.06c.22-.33.43-.66.66-1a.42.42,0,0,0,.27-.6,2.54,2.54,0,0,1,.73-1.2l0-.05c.59-.4.38-1.28,1-1.68l0,0a7.6,7.6,0,0,0,.65-1,.45.45,0,0,0,.3-.62,2.6,2.6,0,0,1,.75-1.18l0,0c.57-.43.35-1.33,1-1.68l0,.06a10,10,0,0,1,.69-1l.27-.15,0-.31a1.55,1.55,0,0,1,.83-1.28l0,0q.36-.46.69-1a.35.35,0,0,0,.28-.52,1.67,1.67,0,0,1,.82-1.23l0,0a10.29,10.29,0,0,0,.69-.94.34.34,0,0,0,.29-.5,1.57,1.57,0,0,1,.85-1.25l0,.05c.18-.38.54-.64.74-1l.05-.09c.64-.34.38-1.29,1.08-1.58l0,.06a2.71,2.71,0,0,1,.77-1l0,0a2.35,2.35,0,0,0,.66-.84.44.44,0,0,0,.35-.59,1.63,1.63,0,0,1,.86-1.16l0,0a10.5,10.5,0,0,1,.77-1l0-.06c.6-.35.34-1.34,1.14-1.56l-.06.07a1.41,1.41,0,0,1,.81-1.05l0,.05a5.43,5.43,0,0,1,.79-1l0,0a2.2,2.2,0,0,0,.69-.82.37.37,0,0,0,.34-.51,1.33,1.33,0,0,1,.92-1.19l-.06.07a2,2,0,0,1,.84-1l0,0c.23-.35.56-.61.79-.95l0-.06a1.93,1.93,0,0,0,.7-.8c.29,0,.41-.18.35-.47a1.22,1.22,0,0,1,1-1.2l-.07.07a1.37,1.37,0,0,1,.87-1l-.05.05a2.4,2.4,0,0,1,.86-1h0c.25-.34.57-.61.82-.93l0,0a3.61,3.61,0,0,0,.77-.88l.08-.11a1.22,1.22,0,0,0,.67-.72c.3,0,.43-.18.4-.49a1.15,1.15,0,0,1,1-1.16l-.06.07a1.09,1.09,0,0,1,.9-1l-.06.06a1.41,1.41,0,0,1,.9-1l-.05,0a1.85,1.85,0,0,1,.9-1l0,0a2.33,2.33,0,0,1,.9-.94l0,0a3.58,3.58,0,0,1,.88-.94h0a9.15,9.15,0,0,1,.85-.91l0,0c.29-.29.57-.58.85-.88l0,0c.3-.28.58-.57.85-.87l0,0a9.85,9.85,0,0,0,.85-.86l0,0a6.21,6.21,0,0,0,.85-.85l0,0a6.83,6.83,0,0,0,.85-.85l0,0a6.83,6.83,0,0,0,.85-.85l0,0a8.53,8.53,0,0,0,.86-.84l0,0c.3-.27.59-.56.87-.86l0,0c.3-.28.6-.57.88-.86h0a12.33,12.33,0,0,1,.91-.86h0a3.9,3.9,0,0,1,.94-.87l0,0a2.39,2.39,0,0,1,.94-.9l0,0a2,2,0,0,1,1-.91l-.05.05a1.45,1.45,0,0,1,1-.89l-.05.05a1.11,1.11,0,0,1,1-.9l-.06.06a1.17,1.17,0,0,1,1.16-1,.38.38,0,0,0,.49-.41,1.09,1.09,0,0,0,.71-.65l.13-.09a3.29,3.29,0,0,0,.86-.76l0,0,.93-.82h0a2.41,2.41,0,0,1,1-.85l0,0a1.4,1.4,0,0,1,1-.86l-.07,0a1.24,1.24,0,0,1,1.19-.95c.29.06.45-.06.49-.36a1.77,1.77,0,0,0,.78-.68l.07-.05,1-.78h0a1.88,1.88,0,0,1,1-.83l-.06,0a1.36,1.36,0,0,1,1.17-.92.4.4,0,0,0,.54-.35,2,2,0,0,0,.8-.67l.06,0a5.69,5.69,0,0,1,1-.78l0,0a1.74,1.74,0,0,1,1.12-.86.51.51,0,0,0,.64-.39,1.35,1.35,0,0,0,.76-.63l.08-.05a11.7,11.7,0,0,1,1-.76l0,0a1.73,1.73,0,0,1,1.14-.85.46.46,0,0,0,.61-.35,2.21,2.21,0,0,0,.83-.65l0,0c.33-.27.58-.64,1-.77l-.05,0c.3-.69,1.24-.43,1.56-1.07l.11-.06,1-.73,0,0a1.62,1.62,0,0,1,1.2-.84A.37.37,0,0,0,406,219c.32-.22.64-.44.94-.69l0,0a1.68,1.68,0,0,1,1.21-.82.38.38,0,0,0,.54-.29c.33-.21.64-.44,1-.68h0a1.63,1.63,0,0,1,1.25-.82l.32,0,.17-.27q.48-.36,1-.69l0,0c.35-.65,1.25-.43,1.65-1l.06,0a2.89,2.89,0,0,1,1.14-.74.5.5,0,0,0,.65-.3,6,6,0,0,0,.93-.65h0c.4-.59,1.27-.36,1.66-1l.08,0a2.88,2.88,0,0,1,1.15-.72.48.48,0,0,0,.64-.28c.33-.21.65-.42,1-.65l0,0c.4-.64,1.26-.45,1.73-1h0c.44-.54,1.28-.33,1.68-.93l.08,0a2.46,2.46,0,0,1,1.2-.71.4.4,0,0,0,.58-.23,3.4,3.4,0,0,1,1.12-.68.5.5,0,0,0,.66-.25,7.9,7.9,0,0,1,1.07-.66.58.58,0,0,0,.71-.25c.35-.22.69-.44,1-.64a.64.64,0,0,0,.74-.27c.35-.2.68-.41,1-.63a.65.65,0,0,0,.76-.26c.35-.2.69-.41,1-.62a.63.63,0,0,0,.75-.25c.35-.22.7-.43,1.06-.63a.6.6,0,0,0,.72-.24,5.67,5.67,0,0,1,1.09-.64.51.51,0,0,0,.68-.22,3.08,3.08,0,0,1,1.18-.64.4.4,0,0,0,.59-.2c.49-.45,1.29-.24,1.72-.82h.06c.51-.5,1.32-.34,1.83-.83l.85-.24,1.06-.6a.54.54,0,0,0,.7-.2,2.45,2.45,0,0,1,1.27-.64l.3.07.2-.23c.53-.51,1.34-.36,1.89-.8a.68.68,0,0,0,.79-.2,2.75,2.75,0,0,1,1.24-.62l.31.07.21-.23c.55-.51,1.35-.37,1.94-.78a.58.58,0,0,0,.73-.18c.54-.42,1.31-.25,1.8-.76l.87-.18a2.8,2.8,0,0,1,1.25-.6l1.42-.32c.4-.18.71-.54,1.18-.58l1.49-.32c.4-.17.7-.53,1.16-.57l1.5-.31a3.41,3.41,0,0,1,1.22-.57l1.44-.29c.56-.34,1.3-.19,1.79-.7l.87-.14c.59-.39,1.35-.32,2-.7l1.61-.26c.57-.31,1.3-.17,1.78-.68l.88-.13a12.68,12.68,0,0,1,2.09-.66l1.46-.24a13.18,13.18,0,0,1,2.11-.65l1.44-.22c.82-.62,2,0,2.74-.74l1.71-.19c.66-.33,1.41-.37,2.09-.63l2.35-.26a16.42,16.42,0,0,1,2.18-.62l2.26-.24c.92-.53,2-.16,3-.66l3.26-.27c.9-.48,2-.07,2.87-.64l3.34-.22c1.24-.61,2.67,0,3.9-.65a6.3,6.3,0,0,0,3,0c.84.63,2,.09,2.83.75a.43.43,0,0,0,.62.17,3.07,3.07,0,0,1,1.16.67.38.38,0,0,0,.56.24,1.55,1.55,0,0,1,1.17.86l0,0a2.67,2.67,0,0,1,1,.87h0a3.25,3.25,0,0,1,.88.93l0,0a1.81,1.81,0,0,1,.86,1.13.46.46,0,0,0,.3.63c.2.33.4.66.61,1l0-.07c1,.73.27,2,.93,2.84l.15,1.55a1.39,1.39,0,0,1,0,1.77c-.06.49-.11,1-.17,1.48a13.11,13.11,0,0,1-.69,2.06.42.42,0,0,0-.21.61,3,3,0,0,1-.69,1.18l-.05.11c-.63.33-.36,1.29-1.09,1.54l0,0a1.28,1.28,0,0,1-.89.94l0,0a1.12,1.12,0,0,1-1,.83l.19.17-.18-.18c-.24.8-1.16.54-1.6,1l-.06,0c-.46.55-1.24.4-1.76.82h0c-1.31,1.16-3.08-.05-4.44.87l0,0c-2.21,1.4-4.81-.14-7.07.93l0,0c-1.87,1.37-4.2-.17-6.11,1h-.07c-1.33,1.08-3.08-.09-4.43.84l0,0c-1.27,1.22-3.08-.07-4.4.92h0c-1,1-2.49.09-3.58.8h0c-.94,1.21-2.45.16-3.52.86h-.05c-.9,1.28-2.45.13-3.48.94h0c-.9,1.19-2.46,0-3.44,1l-.06,0c-.73.82-1.89.17-2.67.8h0c-.67,1-1.86.27-2.66.82h0c-.62,1.06-1.83.32-2.63.86l0,0c-.59,1.09-1.83.31-2.6.89h0c-.6,1.06-1.86.26-2.59.94h0c-.61,1-1.87.17-2.56.94l-.07,0c-.49.55-1.22.46-1.84.68l-.06,0c-.52,1.14-1.85.25-2.51,1h0c-.47.6-1.22.49-1.83.73l-.05,0c-.49,1.11-1.84.21-2.45,1l-.1.05c-.48.52-1.25.38-1.77.79h0c-.43.63-1.22.49-1.8.8l0,0c-.39.74-1.17.58-1.78.8l-.06,0c-3.47,1.91-7.06,3.57-10.61,5.3l-.05,0c-.28.83-1.14.61-1.7.92l0,0c-.33.74-1.19.53-1.7.94h0c-.38.65-1.22.44-1.69.93l-.06,0a9.64,9.64,0,0,1-2.73,1.61h0c-.3.76-1.18.53-1.66,1l0,0a9.39,9.39,0,0,1-2.71,1.68h0c-.3.71-1.19.48-1.62,1l-.08,0a2,2,0,0,1-1,.68l.14.21-.15-.21c-.24.8-1.16.55-1.6,1l-.05,0a1.66,1.66,0,0,1-1,.69l.13.23-.15-.22c-.22.82-1.15.56-1.58,1.05l-.05,0a1.88,1.88,0,0,1-1,.72c-.23.78-1.16.52-1.56,1l-.09.06a2.79,2.79,0,0,1-1,.73h0A9.62,9.62,0,0,1,413,243.9h0c-.25.37-.5.73-1,.76-.58,1-1.67,1.27-2.53,1.89l0,0a1.39,1.39,0,0,1-1,.77c-.58,1-1.71,1.2-2.48,1.91l-.08.06a4.58,4.58,0,0,1-.92.78h0a1.24,1.24,0,0,1-1,.8c-.54,1-1.71,1.15-2.4,1.93l-.13.11c-.29.24-.58.49-.85.75l-.06,0a4.18,4.18,0,0,1-.91.82h0a1.55,1.55,0,0,1-.95.84h0a1.1,1.1,0,0,1-.95.83c-.09.53-.36.85-.94.82l.22.25-.23-.24c-.78,1.29-2.15,1.93-3.22,2.9l-.11.1a8.39,8.39,0,0,0-.82.76l-.08.08-.83.8-.07.07a10.84,10.84,0,0,1-.84.82l-.05,0a6.83,6.83,0,0,1-.85.85l0,0a6.91,6.91,0,0,1-.85.86l0,0a6.28,6.28,0,0,1-.86.85l0,0a6.28,6.28,0,0,1-.86.85l0,0a6.28,6.28,0,0,1-.86.85l0,0a7.59,7.59,0,0,1-.84.86l-.05,0a11.1,11.1,0,0,1-.82.86l-.06.05-.8.84-.07.08a21.6,21.6,0,0,1-3.77,4.16.88.88,0,0,1-.84.95l.17.15-.15-.17a1.18,1.18,0,0,1-.85,1l0,0a1.67,1.67,0,0,1-.85,1h0a4.47,4.47,0,0,1-.82.92l0,.05a10.38,10.38,0,0,0-.76.86l-.08.12c-.6.31-.3,1.34-1.16,1.43.05.58-.3.85-.8,1l0,0a1.46,1.46,0,0,1-.82,1h0a6.45,6.45,0,0,1-.79.94l-.05.06c-.74.77-1,1.9-1.93,2.5l0,0a1.6,1.6,0,0,1-.8,1h0c-.64.85-.94,2-1.91,2.56l0,0c-.05.51-.42.76-.78,1h0a11.37,11.37,0,0,1-1.87,2.6l0,0c-.11.43-.47.68-.74,1l0,.06c-.56.4-.31,1.34-1.08,1.59l0,0c0,.5-.42.74-.73,1l0,0c-.52.43-.27,1.38-1.08,1.62l0,0c0,.52-.4.76-.71,1.05l0,0c-.52.44-.28,1.37-1.05,1.65l0-.05c0,.49-.42.73-.71,1.05l0,.05c-.56.43-.33,1.33-1,1.66l0-.05c-.11.43-.48.67-.69,1l-.06.12c-.63.35-.39,1.22-1,1.62h0c-.49.48-.28,1.37-1,1.71l0-.05a4.83,4.83,0,0,1-.65,1l-.27.17,0,.31a1.87,1.87,0,0,1-.75,1.28l0,0c-.53.45-.34,1.31-.95,1.71v0c-.44.52-.26,1.39-1,1.76l0,0c-.37.57-.18,1.44-1,1.78l0-.06c0,.46-.4.71-.62,1.06a.36.36,0,0,0-.24.55,2.25,2.25,0,0,1-.68,1.23l-.26.18.05.31a2.2,2.2,0,0,1-.7,1.3l0,.08c-.61.39-.38,1.21-.84,1.68l-.26.18,0,.31a2.14,2.14,0,0,1-.67,1.29.34.34,0,0,0-.21.54c-.28.69-.14,1.58-.95,2l0,0c-.29.62-.17,1.43-.86,1.87l0,0c-.37.58-.25,1.38-.84,1.86v0c-.46.53-.34,1.31-.82,1.83V332c-.9.62,0,2-1.06,2.53l0-.05c-.32.6-.24,1.38-.78,1.89h0c-.5.49-.35,1.26-.77,1.79a.43.43,0,0,0-.19.64c-.34.65-.27,1.45-.79,2v0c-.84.68-.05,1.95-1,2.61v0c-.44.53-.32,1.29-.73,1.83a.51.51,0,0,0-.18.71c-.38.6-.29,1.38-.73,2a.46.46,0,0,0-.17.67c-.35.63-.29,1.4-.71,2a.5.5,0,0,0-.17.7c-.36.61-.3,1.37-.69,2a.57.57,0,0,0-.16.77c-.73.8-.06,2-.85,2.79l-.23.19.11.28a9.9,9.9,0,0,1-.67,2.19.52.52,0,0,0-.15.74c-.68.82-.09,2-.78,2.81a.44.44,0,0,0-.14.67c-.6.87-.08,2-.75,2.89a.45.45,0,0,0-.13.68c-.61.86-.11,2-.71,2.86l-.21,1.33c-.44,1-.12,2.16-.71,3.12a.58.58,0,0,0-.11.78c-.86,1.09,0,2.54-.75,3.66-.06.5-.12,1-.19,1.5-.83,1.48.17,3.26-.77,4.72a.45.45,0,0,0-.09.7c-1,1.74.17,3.77-.76,5.52a2.58,2.58,0,0,0-.15,2.17c-.86,2.17.15,4.54-.72,6.71a7.52,7.52,0,0,0-.17,4,169.52,169.52,0,0,0,0,24.79,5.09,5.09,0,0,0,.15,3.18c1,2.42-.19,5.05.73,7.47a3.26,3.26,0,0,0,.18,2.3c.79,1.52-.05,3.27.7,4.79a1.53,1.53,0,0,0,.16,1.42c.91,1.43-.14,3.19.78,4.61a.48.48,0,0,0,.09.72c.81,1.19.07,2.68.75,3.89l.21,1.45c.56.9.15,2,.69,2.94a.36.36,0,0,0,.11.6c.91,1.07-.08,2.57.84,3.63a.65.65,0,0,0,.13.82c.62.82,0,2,.75,2.76a.6.6,0,0,0,.14.79,9.83,9.83,0,0,1,.66,2.23l-.1.25.21.18c.79.81.19,2,.82,2.89a.45.45,0,0,0,.15.67,8.13,8.13,0,0,1,.7,2.21l-.1.27.22.18c.79.74.09,2,.86,2.71v0c.84.72.14,2,.89,2.71v0c.86.7.13,1.95.91,2.69v0c.85.69.08,1.95.93,2.63v0c.5.59.46,1.39.77,2.05a.41.41,0,0,0,.18.62c.44.53.32,1.3.76,1.84v0c.6.57.56,1.39.83,2.1l-.07.32.25.22c.47.52.32,1.3.79,1.83l0,0c.61.54.5,1.36.85,2a.46.46,0,0,0,.21.65,2.26,2.26,0,0,1,.64,1.31l-.07.29.24.17c.5.5.33,1.31.83,1.81v0c.54.49.42,1.3.85,1.85l0-.05c.62.47.5,1.28.87,1.86l0-.06c.7.45.55,1.32.93,1.93a.51.51,0,0,0,.25.69,8.2,8.2,0,0,1,.61,1l-.05-.08c.73.4.58,1.25.94,1.84l0-.07c.72.4.56,1.26.95,1.82l0,0c.67.4.51,1.26.95,1.79l0,0c.62.43.45,1.28.94,1.77h0c.56.44.37,1.28.94,1.71l0,0a2.25,2.25,0,0,1,.73,1.25.36.36,0,0,0,.25.54,6.93,6.93,0,0,1,.66,1l-.05-.07c.71.36.52,1.25,1,1.74v0a1.67,1.67,0,0,1,.79,1.31l0,.3.26.15c.24.34.6.6.69,1l-.05-.07c.72.33.5,1.24,1,1.7h0a2,2,0,0,1,.78,1.22.39.39,0,0,0,.29.56,9,9,0,0,0,.68.94l0,0a1.62,1.62,0,0,1,.83,1.26v.32l.27.17c.24.32.47.65.7,1l0,0a1.55,1.55,0,0,1,.84,1.25.34.34,0,0,0,.28.5c.22.32.46.63.7.94l0,0a1.71,1.71,0,0,1,.83,1.19.41.41,0,0,0,.32.57,3.4,3.4,0,0,0,.68.87h0c.3.31.68.57.78,1l-.06-.07c.72.27.46,1.24,1.1,1.56l.06.09c.24.34.49.66.75,1l0,0a1.69,1.69,0,0,1,.8,1l-.06-.07c.76.23.49,1.22,1.14,1.53l.06.1a7.62,7.62,0,0,0,.76.94h0a2.06,2.06,0,0,1,.81,1l-.05-.06a1.37,1.37,0,0,1,.92,1.17.4.4,0,0,0,.36.54,1.66,1.66,0,0,0,.68.78l.05.07c.25.32.51.64.79.94h0a2.38,2.38,0,0,1,.84,1l-.05-.05a1.35,1.35,0,0,1,.87,1l-.06-.07c.76.18.48,1.2,1.16,1.44l.12.15a1.74,1.74,0,0,0,.73.83l.06.08a5.72,5.72,0,0,0,.8.9l0,0a7.44,7.44,0,0,1,.83.94l0,0a2.27,2.27,0,0,1,.88,1l0,0a1.64,1.64,0,0,1,.89,1l-.05-.06a1.27,1.27,0,0,1,.9,1l0,0a1.05,1.05,0,0,1,.91,1l-.06-.06a1.14,1.14,0,0,1,1,1.11.44.44,0,0,0,.46.53.75.75,0,0,0,.61.64l.17.17a1.13,1.13,0,0,0,.72.74l.14.15a1.27,1.27,0,0,0,.74.75l.14.14a1.29,1.29,0,0,0,.75.75l.14.14a1.29,1.29,0,0,0,.75.75l.14.14a1.29,1.29,0,0,0,.75.75l.13.14a1.33,1.33,0,0,0,.75.74l.15.14a1.22,1.22,0,0,0,.75.74l.15.15a1.08,1.08,0,0,0,.74.71l.16.16c.2.69,1.27.39,1.37,1.21l0,0a1,1,0,0,1,1,.9l-.05-.05a1.09,1.09,0,0,1,1,.91l-.06-.05a1.33,1.33,0,0,1,1,.89l-.05,0a1.91,1.91,0,0,1,1,.89l0,0a2.83,2.83,0,0,1,1,.86h0l.92.83,0,0a3.8,3.8,0,0,0,.87.78l.12.08a1.19,1.19,0,0,0,.72.65.42.42,0,0,0,.54.4,1.27,1.27,0,0,1,1.15.95l-.07-.06a1.5,1.5,0,0,1,1,.86l0,0a3.26,3.26,0,0,1,1,.83h0a6,6,0,0,0,.91.76l.11.08a1.14,1.14,0,0,0,.73.63.48.48,0,0,0,.61.41,1.53,1.53,0,0,1,1.13.89l-.05,0a2.94,2.94,0,0,1,1,.8l0,0a3.43,3.43,0,0,0,.86.7c0,.29.2.39.48.31a1.34,1.34,0,0,1,1.22.91l-.06,0a2.21,2.21,0,0,1,1,.79h0a4,4,0,0,0,.88.69.36.36,0,0,0,.52.31,1.5,1.5,0,0,1,1.21.87l-.05,0a4.33,4.33,0,0,1,1,.76l.07,0a1.5,1.5,0,0,0,.79.63.54.54,0,0,0,.68.37,2.47,2.47,0,0,1,1.11.8h0a3.13,3.13,0,0,0,.87.66.46.46,0,0,0,.62.32,2,2,0,0,1,1.15.8h0c1,.61,1.34-.47,2-.83l-.05.06a6.27,6.27,0,0,1,.67-1,.34.34,0,0,0,.24-.53,2.08,2.08,0,0,1,.74-1.25v0c.56-.44.36-1.3,1-1.72l0,.05a8.77,8.77,0,0,0,.64-1,.5.5,0,0,0,.29-.67,3.33,3.33,0,0,1,.69-1.12l.27-.18,0-.32a1.93,1.93,0,0,1,.75-1.28h0c.54-.45.34-1.32,1-1.73l0,.05c.23-.31.44-.63.65-1a.47.47,0,0,0,.28-.64,3.2,3.2,0,0,1,.7-1.14l.26-.16,0-.31a1.77,1.77,0,0,1,.76-1.3h0c.52-.47.33-1.34,1-1.74l0,.06c.22-.33.44-.65.65-1a.46.46,0,0,0,.28-.63,3.24,3.24,0,0,1,.71-1.18l0-.07c.62-.38.41-1.25.95-1.67h0c.51-.48.32-1.36,1-1.75l-.05.07a1.89,1.89,0,0,1,.95-.94l-.06,0c.26-.34.5-.34.71,0l-.06-.06a1.33,1.33,0,0,1,.92,1.23l0,.3.26.16a3.37,3.37,0,0,1,.71,1.14.48.48,0,0,0,.28.65,8.85,8.85,0,0,0,.65,1l0,0c.62.4.41,1.27,1,1.71l0,0a2.21,2.21,0,0,1,.74,1.25.36.36,0,0,0,.25.54,8.53,8.53,0,0,1,.67,1l-.05-.07c.7.37.51,1.26,1,1.75v0c.57.42.36,1.28,1,1.68l0,.06a2.77,2.77,0,0,1,.73,1.19.43.43,0,0,0,.28.61c.21.33.43.66.65,1l0,0c.65.39.45,1.27,1,1.72h0a1.89,1.89,0,0,1,.76,1.28l0,.32.27.18c.22.34.59.6.66,1l-.05-.07c.74.35.54,1.24,1,1.75l0,0c.6.41.4,1.28,1,1.7l0,0a2.38,2.38,0,0,1,.74,1.23.39.39,0,0,0,.26.57c.23.32.45.66.66,1l0-.06c.68.38.48,1.26,1,1.74h0a1.74,1.74,0,0,1,.77,1.31l0,.3.25.15a3.08,3.08,0,0,1,.71,1.16.46.46,0,0,0,.28.63c.2.33.42.65.65,1l0,0c.62.41.43,1.28,1,1.72v0a2.11,2.11,0,0,1,.75,1.26.33.33,0,0,0,.24.52,6.35,6.35,0,0,1,.67,1l-.05-.08c.71.37.52,1.25,1,1.75v0c.58.41.37,1.28,1,1.68l0,.06a2.6,2.6,0,0,1,.72,1.2.41.41,0,0,0,.28.59c.22.33.44.66.65,1l0-.06c.65.4.46,1.27,1,1.74h0a1.86,1.86,0,0,1,.77,1.29l0,.31.26.17a3.84,3.84,0,0,1,.7,1.12.5.5,0,0,0,.29.67,7.52,7.52,0,0,0,.64,1l0,0c.6.41.4,1.28,1,1.71v0a2.22,2.22,0,0,1,.74,1.24.37.37,0,0,0,.26.55,10.93,10.93,0,0,1,.66,1l0-.06c.69.38.49,1.26,1,1.74h0c.57.42.35,1.28,1,1.67l0,.07a3.06,3.06,0,0,1,.72,1.18.45.45,0,0,0,.28.62c.21.33.43.66.65,1l0-.06c.63.4.44,1.27,1,1.72v0a2,2,0,0,1,.75,1.27.33.33,0,0,0,.24.51,6.27,6.27,0,0,1,.67,1l-.05-.07c.72.36.53,1.25,1,1.75l0,0c.59.42.38,1.29,1,1.7l0,0a2.57,2.57,0,0,1,.73,1.21.41.41,0,0,0,.26.59c.23.33.45.66.66,1l0-.07c.67.39.48,1.27,1,1.74h0c.63,1,.36,1.77-.67,2.07a11.37,11.37,0,0,1-3.09.11c-25.61,0-51.22,0-76.82-.08-1.24,0-4.16,1.61-3.62-2l-.05.08a7.49,7.49,0,0,1,.66-1,.36.36,0,0,0,.25-.54,2.24,2.24,0,0,1,.74-1.25v0c.57-.43.37-1.29,1-1.71l0,0c.47-.51.28-1.4,1-1.76l-.06.07c.09-.43.45-.69.67-1a.34.34,0,0,0,.24-.52,2.07,2.07,0,0,1,.75-1.26v0c.56-.44.36-1.31,1-1.72l0,.05a8.9,8.9,0,0,0,.64-1,.51.51,0,0,0,.29-.66,3.24,3.24,0,0,1,.69-1.12l.27-.18,0-.32a1.87,1.87,0,0,1,.75-1.28h0c.55-.46.35-1.33,1-1.73l0,.05c.23-.31.44-.64.64-1a.46.46,0,0,0,.28-.64,3.22,3.22,0,0,1,.71-1.14l.26-.17,0-.3a1.82,1.82,0,0,1,.77-1.3h0c.52-.47.33-1.34,1-1.74l0,.06c.22-.33.44-.66.65-1a4.3,4.3,0,0,0,.28-.57c0-.09-.05-.22-.07-.33a3.39,3.39,0,0,1-.86-.95l0,0a14.35,14.35,0,0,1-2.65-1.76l0,0a11.37,11.37,0,0,1-2.62-1.79h0a7.37,7.37,0,0,1-2.59-1.83h0a2.23,2.23,0,0,1-1-.74l-.06,0c-.82-.66-1.88-1-2.55-1.85h0a2.93,2.93,0,0,1-.95-.76l-.09-.06c-.78-.69-1.87-1-2.51-1.87h0a1.74,1.74,0,0,1-1-.79l0,0c-.81-.66-2-.89-2.48-1.93a1.1,1.1,0,0,1-1-.79h0a2,2,0,0,1-1-.81l0,0-.87-.75-.12-.1c-.7-.77-1.89-1-2.39-2a1.11,1.11,0,0,1-1-.82l0,0a1.64,1.64,0,0,1-.95-.84h0a4.73,4.73,0,0,1-.91-.82l-.05-.05-.85-.78-.1-.08c-1.09-.95-2.45-1.61-3.25-2.89a.83.83,0,0,1-.92-.85.94.94,0,0,1-.92-.87l-.17.18.18-.17a1.07,1.07,0,0,1-.93-.87l0,0a1.31,1.31,0,0,1-.94-.88l0,0a1.46,1.46,0,0,1-.92-.91l0,0a1.41,1.41,0,0,1-.92-.89l0,0a1.53,1.53,0,0,1-.91-.9h0a1.55,1.55,0,0,1-.91-.9h0a1.51,1.51,0,0,1-.9-.9v0a1.48,1.48,0,0,1-.89-.92l0,0a1.48,1.48,0,0,1-.91-.92l0,0a1.33,1.33,0,0,1-.89-.92l0,0a1.17,1.17,0,0,1-.89-.94l0,0a1,1,0,0,1-.87-.94l-.18.2.2-.19a.85.85,0,0,1-.86-.93c-1.27-.8-1.91-2.17-2.9-3.23l-.09-.11a8.71,8.71,0,0,0-.77-.84l0-.06a7.74,7.74,0,0,1-.82-.9h0a2.06,2.06,0,0,1-.85-1l0,0a1.31,1.31,0,0,1-.85-1l0,0c-.5-.13-.85-.4-.82-1l-.2.25.21-.24c-.85-.1-.55-1.13-1.15-1.43l-.1-.13a10.15,10.15,0,0,0-.75-.87l0,0a2.85,2.85,0,0,1-.81-1l0,0a1.35,1.35,0,0,1-.82-1l0,0c-1-.56-1.22-1.72-1.95-2.48l0-.06a3,3,0,0,1-.79-1l0,0a1.2,1.2,0,0,1-.79-1l0,0c-.82-.18-.54-1.16-1.12-1.51l-.06-.1a7.72,7.72,0,0,1-.76-.95v0a1.29,1.29,0,0,1-.77-1l0,0c-.81-.2-.54-1.17-1.11-1.55l0-.07a3.2,3.2,0,0,1-.76-1l0,0a12.35,12.35,0,0,1-1.85-2.63h0a1.44,1.44,0,0,1-.75-1l0,0c-.82-.23-.56-1.18-1.09-1.61l0,0c-.31-.3-.7-.54-.73-1l0,0c-.78-.26-.54-1.2-1.07-1.62l0,0c-.3-.31-.71-.55-.72-1.06l0,.05c-.8-.26-.56-1.2-1.06-1.65v0c-.34-.28-.72-.55-.7-1.08l0,0c-.87-.22-.63-1.16-1.07-1.66l0,0c-.64-.37-.41-1.25-1-1.66l0-.07c-.25-.34-.66-.57-.68-1.06l0,.05c-.79-.3-.57-1.21-1-1.71v0c-.61-.4-.39-1.26-1-1.69l0-.05c-.26-.34-.7-.57-.66-1.09l0,0c-.85-.29-.63-1.18-1-1.74l0,0c-.72-.36-.53-1.23-1-1.74h0c-.61-.42-.42-1.26-.94-1.73v0c-.53-.45-.34-1.28-.9-1.71l0,0c-.48-.46-.28-1.29-.88-1.69l0-.08a2.12,2.12,0,0,1-.7-1.3l.05-.31-.26-.17a2.15,2.15,0,0,1-.68-1.29l.05-.31-.26-.18a2.15,2.15,0,0,1-.68-1.29l.05-.31-.25-.18c-.46-.47-.24-1.29-.84-1.7l0-.07c-.45-.49-.29-1.29-.84-1.74l0,0c-.49-.5-.35-1.29-.84-1.79h0c-.55-.49-.43-1.29-.84-1.84l0,0c-.66-.5-.54-1.34-.88-2a.43.43,0,0,0-.21-.63c-.42-.51-.22-1.29-.79-1.73v0c-.49-.53-.38-1.3-.8-1.85l0,0c-.64-.56-.6-1.39-.85-2.1l.07-.32-.25-.2c-.47-.53-.34-1.31-.77-1.85v0c-.92-.64-.1-1.94-1-2.6v0c-.5-.58-.44-1.38-.78-2a.42.42,0,0,0-.18-.64c-.43-.55-.32-1.3-.72-1.87l0,.05c-.94-.67-.19-1.94-.94-2.68l0,0c-.88-.7-.17-1.94-.9-2.7v0c-.87-.75-.2-2-.89-2.8a.52.52,0,0,0-.17-.73,14.79,14.79,0,0,1-.68-2,.39.39,0,0,0-.15-.62c-.72-.76,0-1.95-.82-2.69h0c-.78-.83-.24-2-.81-2.93a.37.37,0,0,0-.14-.61c-.7-.83-.14-2-.77-2.86a.47.47,0,0,0-.14-.69c-.65-.86-.13-2-.75-2.88a.43.43,0,0,0-.12-.67c-.65-.91-.23-2.08-.73-3l.12-.3-.23-.23c-.9-1.14,0-2.65-.8-3.81a.38.38,0,0,0-.11-.63c-.84-1.18-.07-2.68-.77-3.88-.06-.49-.13-1-.19-1.46-.72-1.18,0-2.63-.71-3.82-.06-.5-.11-1-.17-1.51-.83-1.46.12-3.21-.73-4.67l-.15-1.54c-.87-1.83.11-3.88-.71-5.71a3.13,3.13,0,0,0-.17-2.29c-1-3,.24-6.22-.73-9.25a17.69,17.69,0,0,0-.17-5.85,51.12,51.12,0,0,1,0-13.31,21.74,21.74,0,0,0,.15-6.64c1-2.75-.21-5.7.74-8.46a3.63,3.63,0,0,0,.16-2.37c.87-1.79-.13-3.82.71-5.62a3.24,3.24,0,0,0,.2-2.25c.75-1.54-.13-3.34.75-4.86a.48.48,0,0,0,.09-.73c.94-1.42-.16-3.19.8-4.6a.44.44,0,0,0,.1-.69c.79-1.14,0-2.6.75-3.75a.55.55,0,0,0,.11-.77c.88-1.09,0-2.58.8-3.67a.45.45,0,0,0,.12-.69c.62-.86.12-2,.72-2.86a.63.63,0,0,0,.12-.81c.74-.78.15-1.92.75-2.74l.13-.83c.77-.77.14-1.92.77-2.72a.58.58,0,0,0,.15-.77c.71-.81.09-2,.8-2.79a.38.38,0,0,0,.14-.61,16.41,16.41,0,0,1,.68-2A.59.59,0,0,0,311,348c.72-.79.07-2,.86-2.77h0c.81-.73.08-1.95.86-2.69l.23-.18-.09-.28a6.11,6.11,0,0,1,.75-2.2l.23-.18-.09-.29a5.74,5.74,0,0,1,.77-2.19h0c.82-.71.05-2,.94-2.65v0c.44-.53.32-1.3.74-1.84a.46.46,0,0,0,.18-.67c.36-.63.29-1.43.8-2h0c.54-.46.38-1.23.76-1.76a.52.52,0,0,0,.2-.71c.4-.6.3-1.41.81-2v0c.54-.45.37-1.23.78-1.75a.45.45,0,0,0,.2-.65c.35-.64.25-1.47.87-2l0,0c.44-.54.33-1.34.83-1.85h0C322.14,319,322,318.2,322.42,317.7Z" transform="translate(-146.16 -177.41)"/><path class="cls-1" d="M406,614.29a4.22,4.22,0,0,1,2.65,1.76A2.34,2.34,0,0,1,406,614.29Z" transform="translate(-146.16 -177.41)"/><path class="cls-1" d="M403.4,612.48a4.22,4.22,0,0,1,2.62,1.79A2.28,2.28,0,0,1,403.4,612.48Z" transform="translate(-146.16 -177.41)"/><path class="cls-1" d="M400.79,610.64a4,4,0,0,1,2.59,1.83A2.14,2.14,0,0,1,400.79,610.64Z" transform="translate(-146.16 -177.41)"/><path class="cls-1" d="M423,594c-.6,1.83-.6,1.83-2,.83Z" transform="translate(-146.16 -177.41)"/><path class="cls-1" d="M436.29,570.89a1.9,1.9,0,0,1-1,1.75A1.6,1.6,0,0,1,436.29,570.89Z" transform="translate(-146.16 -177.41)"/><path class="cls-1" d="M435.31,572.63a1.87,1.87,0,0,1-.95,1.67A1.71,1.71,0,0,1,435.31,572.63Z" transform="translate(-146.16 -177.41)"/><path class="cls-1" d="M441.5,576.14a1.84,1.84,0,0,1-1-1.71A1.62,1.62,0,0,1,441.5,576.14Z" transform="translate(-146.16 -177.41)"/><path class="cls-1" d="M432.72,577.1a1.87,1.87,0,0,1-1,1.74A1.61,1.61,0,0,1,432.72,577.1Z" transform="translate(-146.16 -177.41)"/><path class="cls-1" d="M444.13,580.65a1.92,1.92,0,0,1-1-1.75C444,579.19,444.14,579.87,444.13,580.65Z" transform="translate(-146.16 -177.41)"/><path class="cls-1" d="M445.08,582.31a1.84,1.84,0,0,1-1-1.68A1.68,1.68,0,0,1,445.08,582.31Z" transform="translate(-146.16 -177.41)"/><path class="cls-1" d="M429.16,583.31a1.86,1.86,0,0,1-1,1.73A1.62,1.62,0,0,1,429.16,583.31Z" transform="translate(-146.16 -177.41)"/><path class="cls-1" d="M447.71,586.82a1.87,1.87,0,0,1-1-1.72A1.61,1.61,0,0,1,447.71,586.82Z" transform="translate(-146.16 -177.41)"/><path class="cls-1" d="M425.59,589.52a1.81,1.81,0,0,1-1,1.72A1.67,1.67,0,0,1,425.59,589.52Z" transform="translate(-146.16 -177.41)"/><path class="cls-1" d="M450.33,591.33a2,2,0,0,1-1-1.75C450.22,589.84,450.36,590.54,450.33,591.33Z" transform="translate(-146.16 -177.41)"/><path class="cls-1" d="M451.28,593a1.86,1.86,0,0,1-1-1.7A1.64,1.64,0,0,1,451.28,593Z" transform="translate(-146.16 -177.41)"/><path class="cls-1" d="M453.91,597.51a1.9,1.9,0,0,1-1-1.74A1.58,1.58,0,0,1,453.91,597.51Z" transform="translate(-146.16 -177.41)"/><path class="cls-1" d="M457.49,603.68a1.85,1.85,0,0,1-1-1.72A1.63,1.63,0,0,1,457.49,603.68Z" transform="translate(-146.16 -177.41)"/><path class="cls-1" d="M460.11,608.19a1.92,1.92,0,0,1-1-1.75A1.54,1.54,0,0,1,460.11,608.19Z" transform="translate(-146.16 -177.41)"/><path class="cls-1" d="M461.06,609.85a1.86,1.86,0,0,1-1-1.68A1.65,1.65,0,0,1,461.06,609.85Z" transform="translate(-146.16 -177.41)"/><path class="cls-1" d="M463.69,614.37a1.87,1.87,0,0,1-1-1.74A1.61,1.61,0,0,1,463.69,614.37Z" transform="translate(-146.16 -177.41)"/><path class="cls-1" d="M408.74,618.85a1.87,1.87,0,0,1-1,1.74A1.59,1.59,0,0,1,408.74,618.85Z" transform="translate(-146.16 -177.41)"/><path class="cls-1" d="M467.27,620.54a1.83,1.83,0,0,1-1-1.71A1.67,1.67,0,0,1,467.27,620.54Z" transform="translate(-146.16 -177.41)"/><path class="cls-1" d="M469.89,625.05a1.91,1.91,0,0,1-1-1.74A1.56,1.56,0,0,1,469.89,625.05Z" transform="translate(-146.16 -177.41)"/><path class="cls-1" d="M405.18,625.06a1.88,1.88,0,0,1-1,1.73A1.63,1.63,0,0,1,405.18,625.06Z" transform="translate(-146.16 -177.41)"/><path class="cls-1" d="M470.84,626.71a1.87,1.87,0,0,1-1-1.67A1.67,1.67,0,0,1,470.84,626.71Z" transform="translate(-146.16 -177.41)"/><path class="cls-1" d="M473.47,631.22a1.86,1.86,0,0,1-1-1.72A1.63,1.63,0,0,1,473.47,631.22Z" transform="translate(-146.16 -177.41)"/><path class="cls-1" d="M476.1,635.73a1.9,1.9,0,0,1-1-1.75C476,634.25,476.12,634.94,476.1,635.73Z" transform="translate(-146.16 -177.41)"/><path class="cls-1" d="M477.05,637.4a1.85,1.85,0,0,1-1-1.7A1.69,1.69,0,0,1,477.05,637.4Z" transform="translate(-146.16 -177.41)"/><path class="cls-1" d="M479.67,641.91a1.92,1.92,0,0,1-1-1.74A1.58,1.58,0,0,1,479.67,641.91Z" transform="translate(-146.16 -177.41)"/><path class="cls-1" d="M437.84,570.1a2.83,2.83,0,0,1-.71,0l.39-.51C437.62,569.74,437.73,569.92,437.84,570.1Z" transform="translate(-146.16 -177.41)"/><path class="cls-1" d="M437.19,570l-.95.94A1.21,1.21,0,0,1,437.19,570Z" transform="translate(-146.16 -177.41)"/><path class="cls-1" d="M438.7,571.27a1.57,1.57,0,0,1-.92-1.23A1.32,1.32,0,0,1,438.7,571.27Z" transform="translate(-146.16 -177.41)"/><path class="cls-1" d="M439.63,572.87a1,1,0,0,1-.71-1.14Z" transform="translate(-146.16 -177.41)"/><path class="cls-1" d="M440.56,574.47a.79.79,0,0,1-.65-1Z" transform="translate(-146.16 -177.41)"/><path class="cls-1" d="M434.33,574.37a1.07,1.07,0,0,1-.71,1.18Z" transform="translate(-146.16 -177.41)"/><path class="cls-1" d="M433.34,576.18a.79.79,0,0,1-.65,1Z" transform="translate(-146.16 -177.41)"/><path class="cls-1" d="M442.26,577.41a1.2,1.2,0,0,1-.74-1.25A1.44,1.44,0,0,1,442.26,577.41Z" transform="translate(-146.16 -177.41)"/><path class="cls-1" d="M443.18,579a.87.87,0,0,1-.67-1C442.73,578.29,443,578.63,443.18,579Z" transform="translate(-146.16 -177.41)"/><path class="cls-1" d="M431.75,578.84a1.28,1.28,0,0,1-.76,1.3A1.43,1.43,0,0,1,431.75,578.84Z" transform="translate(-146.16 -177.41)"/><path class="cls-1" d="M402.3,580.8a1.37,1.37,0,0,1-1.15-.95A1.25,1.25,0,0,1,402.3,580.8Z" transform="translate(-146.16 -177.41)"/><path class="cls-1" d="M403.24,581.6a1.07,1.07,0,0,1-1-.86A1.14,1.14,0,0,1,403.24,581.6Z" transform="translate(-146.16 -177.41)"/><path class="cls-1" d="M430.76,580.61a1,1,0,0,1-.7,1.14C430.29,581.37,430.52,581,430.76,580.61Z" transform="translate(-146.16 -177.41)"/><path class="cls-1" d="M404.18,582.39a1,1,0,0,1-1-.83Z" transform="translate(-146.16 -177.41)"/><path class="cls-1" d="M405.1,583.16a.86.86,0,0,1-.91-.76Z" transform="translate(-146.16 -177.41)"/><path class="cls-1" d="M429.78,582.39a.79.79,0,0,1-.65,1Z" transform="translate(-146.16 -177.41)"/><path class="cls-1" d="M445.83,583.56a1.11,1.11,0,0,1-.73-1.19A1.41,1.41,0,0,1,445.83,583.56Z" transform="translate(-146.16 -177.41)"/><path class="cls-1" d="M405.94,583.87a.65.65,0,0,1-.73-.63Z" transform="translate(-146.16 -177.41)"/><path class="cls-1" d="M407.68,585.17a1.25,1.25,0,0,1-1.13-.89A1.28,1.28,0,0,1,407.68,585.17Z" transform="translate(-146.16 -177.41)"/><path class="cls-1" d="M446.76,585.15a.79.79,0,0,1-.65-1C446.32,584.5,446.54,584.83,446.76,585.15Z" transform="translate(-146.16 -177.41)"/><path class="cls-1" d="M408.62,585.93a1,1,0,0,1-1-.8Z" transform="translate(-146.16 -177.41)"/><path class="cls-1" d="M428.18,585.05a1.24,1.24,0,0,1-.75,1.28A1.46,1.46,0,0,1,428.18,585.05Z" transform="translate(-146.16 -177.41)"/><path class="cls-1" d="M409.51,586.65c-.52.05-.76-.24-.86-.7Z" transform="translate(-146.16 -177.41)"/><path class="cls-1" d="M411.21,587.87A1.41,1.41,0,0,1,410,587,1.31,1.31,0,0,1,411.21,587.87Z" transform="translate(-146.16 -177.41)"/><path class="cls-1" d="M427.19,586.83a1,1,0,0,1-.69,1.12Z" transform="translate(-146.16 -177.41)"/><path class="cls-1" d="M448.47,588.11a1.26,1.26,0,0,1-.76-1.28A1.42,1.42,0,0,1,448.47,588.11Z" transform="translate(-146.16 -177.41)"/><path class="cls-1" d="M412.17,588.61a1,1,0,0,1-1-.79A1.24,1.24,0,0,1,412.17,588.61Z" transform="translate(-146.16 -177.41)"/><path class="cls-1" d="M668.07,587.76a.92.92,0,0,1-1,.76Z" transform="translate(-146.16 -177.41)"/><path class="cls-1" d="M413.06,589.31c-.52.06-.77-.23-.88-.69Z" transform="translate(-146.16 -177.41)"/><path class="cls-1" d="M426.21,588.62a.8.8,0,0,1-.64,1Z" transform="translate(-146.16 -177.41)"/><path class="cls-1" d="M449.37,589.65a.88.88,0,0,1-.66-1A1.12,1.12,0,0,1,449.37,589.65Z" transform="translate(-146.16 -177.41)"/><path class="cls-1" d="M414.79,590.49a1.32,1.32,0,0,1-1.21-.87A1.33,1.33,0,0,1,414.79,590.49Z" transform="translate(-146.16 -177.41)"/><path class="cls-1" d="M416.6,591.88c-.47,0-.69-.22-.79-.63Z" transform="translate(-146.16 -177.41)"/><path class="cls-1" d="M424.61,591.27a1.19,1.19,0,0,1-.74,1.25A1.42,1.42,0,0,1,424.61,591.27Z" transform="translate(-146.16 -177.41)"/><path class="cls-1" d="M418.39,593.05a1.08,1.08,0,0,1-1.11-.8A1.37,1.37,0,0,1,418.39,593.05Z" transform="translate(-146.16 -177.41)"/><path class="cls-1" d="M419.27,593.72c-.51.08-.75-.22-.87-.66Z" transform="translate(-146.16 -177.41)"/><path class="cls-1" d="M423.63,593.05a.87.87,0,0,1-.67,1A1.14,1.14,0,0,1,423.63,593.05Z" transform="translate(-146.16 -177.41)"/><path class="cls-1" d="M452,594.26a1.17,1.17,0,0,1-.74-1.23A1.44,1.44,0,0,1,452,594.26Z" transform="translate(-146.16 -177.41)"/><path class="cls-1" d="M421,594.84a1.12,1.12,0,0,1-1.15-.8A1.33,1.33,0,0,1,421,594.84Z" transform="translate(-146.16 -177.41)"/><path class="cls-1" d="M453,595.83a.85.85,0,0,1-.66-1Z" transform="translate(-146.16 -177.41)"/><path class="cls-1" d="M454.68,598.81a1.29,1.29,0,0,1-.77-1.31A1.46,1.46,0,0,1,454.68,598.81Z" transform="translate(-146.16 -177.41)"/><path class="cls-1" d="M455.61,600.42a1.06,1.06,0,0,1-.71-1.16Z" transform="translate(-146.16 -177.41)"/><path class="cls-1" d="M456.54,602a.8.8,0,0,1-.65-1Z" transform="translate(-146.16 -177.41)"/><path class="cls-1" d="M458.25,605a1.2,1.2,0,0,1-.75-1.26A1.45,1.45,0,0,1,458.25,605Z" transform="translate(-146.16 -177.41)"/><path class="cls-1" d="M459.16,606.52a.9.9,0,0,1-.67-1A1.16,1.16,0,0,1,459.16,606.52Z" transform="translate(-146.16 -177.41)"/><path class="cls-1" d="M461.81,611.11a1.11,1.11,0,0,1-.72-1.2A1.41,1.41,0,0,1,461.81,611.11Z" transform="translate(-146.16 -177.41)"/><path class="cls-1" d="M462.74,612.69a.85.85,0,0,1-.65-1C462.31,612,462.53,612.36,462.74,612.69Z" transform="translate(-146.16 -177.41)"/><path class="cls-1" d="M464.46,615.66a1.26,1.26,0,0,1-.77-1.29A1.46,1.46,0,0,1,464.46,615.66Z" transform="translate(-146.16 -177.41)"/><path class="cls-1" d="M408.71,616.07c.54.09,1.1.16.86.95Z" transform="translate(-146.16 -177.41)"/><path class="cls-1" d="M465.39,617.26a1,1,0,0,1-.7-1.12Z" transform="translate(-146.16 -177.41)"/><path class="cls-1" d="M409.36,617.92a.8.8,0,0,1-.65,1Z" transform="translate(-146.16 -177.41)"/><path class="cls-1" d="M466.32,618.88a.8.8,0,0,1-.64-1C465.9,618.24,466.11,618.56,466.32,618.88Z" transform="translate(-146.16 -177.41)"/><path class="cls-1" d="M407.77,620.59a1.28,1.28,0,0,1-.77,1.3A1.45,1.45,0,0,1,407.77,620.59Z" transform="translate(-146.16 -177.41)"/><path class="cls-1" d="M468,621.81a1.19,1.19,0,0,1-.74-1.24A1.43,1.43,0,0,1,468,621.81Z" transform="translate(-146.16 -177.41)"/><path class="cls-1" d="M406.78,622.36a1,1,0,0,1-.71,1.14Z" transform="translate(-146.16 -177.41)"/><path class="cls-1" d="M468.94,623.37a.86.86,0,0,1-.66-1Z" transform="translate(-146.16 -177.41)"/><path class="cls-1" d="M405.79,624.14a.78.78,0,0,1-.64,1C405.36,624.79,405.58,624.47,405.79,624.14Z" transform="translate(-146.16 -177.41)"/><path class="cls-1" d="M404.2,626.8a1.25,1.25,0,0,1-.75,1.28A1.44,1.44,0,0,1,404.2,626.8Z" transform="translate(-146.16 -177.41)"/><path class="cls-1" d="M471.59,628a1.1,1.1,0,0,1-.72-1.18A1.39,1.39,0,0,1,471.59,628Z" transform="translate(-146.16 -177.41)"/><path class="cls-1" d="M403.21,628.58a1,1,0,0,1-.69,1.12Z" transform="translate(-146.16 -177.41)"/><path class="cls-1" d="M472.52,629.56a.81.81,0,0,1-.65-1Z" transform="translate(-146.16 -177.41)"/><path class="cls-1" d="M402.23,630.36a.8.8,0,0,1-.64,1Z" transform="translate(-146.16 -177.41)"/><path class="cls-1" d="M474.23,632.51a1.22,1.22,0,0,1-.75-1.27A1.43,1.43,0,0,1,474.23,632.51Z" transform="translate(-146.16 -177.41)"/><path class="cls-1" d="M475.14,634.05a.89.89,0,0,1-.67-1A1.13,1.13,0,0,1,475.14,634.05Z" transform="translate(-146.16 -177.41)"/><path class="cls-1" d="M477.8,638.65a1.12,1.12,0,0,1-.73-1.21A1.43,1.43,0,0,1,477.8,638.65Z" transform="translate(-146.16 -177.41)"/><path class="cls-1" d="M478.72,640.24a.86.86,0,0,1-.66-1Z" transform="translate(-146.16 -177.41)"/><path class="cls-1" d="M732.09,525.22a1.22,1.22,0,0,1-.75,1.26A1.41,1.41,0,0,1,732.09,525.22Z" transform="translate(-146.16 -177.41)"/><path class="cls-1" d="M708,558.93a.78.78,0,0,1-.75.83Z" transform="translate(-146.16 -177.41)"/><path class="cls-1" d="M707.14,559.83a.87.87,0,0,1-.8.89C706.61,560.42,706.88,560.13,707.14,559.83Z" transform="translate(-146.16 -177.41)"/><path class="cls-1" d="M706.32,560.74a1,1,0,0,1-.84.93Z" transform="translate(-146.16 -177.41)"/><path class="cls-1" d="M705.49,561.66a1,1,0,0,1-.88.94C704.91,562.29,705.2,562,705.49,561.66Z" transform="translate(-146.16 -177.41)"/><path class="cls-1" d="M704.65,562.57a1,1,0,0,1-.9.95A1.2,1.2,0,0,1,704.65,562.57Z" transform="translate(-146.16 -177.41)"/><path class="cls-3" d="M573.23,628.1l1.56-.2c.81-.61,2,0,2.73-.74l1.71-.21c.6-.32,1.33-.25,1.9-.66l1.66-.23c.58-.32,1.31-.23,1.85-.67a.63.63,0,0,0,.8-.13,9.19,9.19,0,0,1,2.16-.68l1.4-.26c.58-.37,1.33-.27,1.89-.7a.59.59,0,0,0,.77-.14c.6-.43,1.37-.37,2-.71l1.57-.3c.4-.16.7-.52,1.16-.57l1.5-.32c.39-.16.69-.5,1.13-.57a.43.43,0,0,0,.63-.17c.58-.47,1.36-.37,2-.74a.51.51,0,0,0,.69-.17c.54-.44,1.33-.3,1.86-.76A.69.69,0,0,0,605,619a2.44,2.44,0,0,1,1.29-.62l.29.08.18-.23c.55-.53,1.36-.39,2-.79a.57.57,0,0,0,.72-.2,2.19,2.19,0,0,1,1.32-.63l.27.07.17-.23c.52-.52,1.34-.36,1.89-.81a.68.68,0,0,0,.79-.22,3.83,3.83,0,0,1,1.14-.62.45.45,0,0,0,.63-.2,2.2,2.2,0,0,1,1.3-.66l.3.07.17-.24c.49-.5,1.3-.31,1.78-.83h0c.49-.54,1.31-.39,1.84-.86l.83-.27a6.66,6.66,0,0,0,1-.61.67.67,0,0,0,.79-.26c.34-.19.68-.39,1-.61a.66.66,0,0,0,.77-.27c.34-.19.67-.4,1-.63a.66.66,0,0,0,.78-.28,5.42,5.42,0,0,0,1-.62l.82-.29a3.18,3.18,0,0,0,.9-.61h0c.43-.57,1.27-.38,1.72-.92l0,0a1.88,1.88,0,0,1,1.3-.75l.3.05.17-.25a2.75,2.75,0,0,1,1.15-.71.45.45,0,0,0,.63-.26l1-.67a.63.63,0,0,0,.76-.32,2.41,2.41,0,0,0,.87-.61h0a1.86,1.86,0,0,1,1.26-.77.33.33,0,0,0,.51-.24,6.37,6.37,0,0,1,1-.68l-.06,0c.35-.69,1.25-.48,1.69-1h0a2.26,2.26,0,0,1,1.17-.77.46.46,0,0,0,.62-.29,7.44,7.44,0,0,0,.92-.67h0a1.69,1.69,0,0,1,1.24-.81.35.35,0,0,0,.52-.27l1-.69,0,0a1.58,1.58,0,0,1,1.23-.84.34.34,0,0,0,.51-.27c.32-.22.64-.46.94-.7l0,0a1.76,1.76,0,0,1,1.18-.84.41.41,0,0,0,.58-.32,3,3,0,0,0,.87-.67h0c.31-.31.56-.68,1-.77l-.06,0c.27-.73,1.23-.46,1.56-1.09l.1-.06,1-.75,0,0a1.91,1.91,0,0,1,1.12-.85.52.52,0,0,0,.65-.4,1.15,1.15,0,0,0,.74-.62l.1-.06c.33-.25.65-.5,1-.76h0a2,2,0,0,1,1-.83l-.07.06a1.33,1.33,0,0,1,1.22-.93q.43.11.48-.33a2.38,2.38,0,0,0,.82-.69l.05,0a10.31,10.31,0,0,1,.95-.8l0,0a2,2,0,0,1,1-.85l-.06,0a1.4,1.4,0,0,1,1.12-.92.47.47,0,0,0,.6-.42,1,1,0,0,0,.69-.62l.13-.11a2.7,2.7,0,0,0,.86-.75l0,0,.93-.81h0a3.16,3.16,0,0,1,1-.86l0,0a1.86,1.86,0,0,1,1-.89l-.06,0a1.33,1.33,0,0,1,1-.89l-.06.05a1.07,1.07,0,0,1,1-.9l-.07.06a1.16,1.16,0,0,1,1.16-1c.32,0,.48-.11.49-.42a.88.88,0,0,0,.65-.64l.17-.15a1.31,1.31,0,0,0,.75-.73l.14-.12a1.69,1.69,0,0,0,.78-.76l.11-.1a2.17,2.17,0,0,0,.81-.78l.09-.08a2.84,2.84,0,0,0,.82-.8l.07-.08a3.32,3.32,0,0,0,.82-.81l.07-.08a3.12,3.12,0,0,0,.81-.81l.08-.07a3.16,3.16,0,0,0,.81-.82l.07-.07a2.72,2.72,0,0,0,.8-.82l.08-.11a1.76,1.76,0,0,0,.76-.79l.12-.13a1.45,1.45,0,0,0,.75-.77l.12-.13c.93-.55,1-1.88,2.09-2.3l-.05.06a1,1,0,0,1,.89-1l-.06.06a1.21,1.21,0,0,1,.91-1l0,.06a1.6,1.6,0,0,1,.88-1l0,0a2.4,2.4,0,0,1,.87-1l0,0a10.71,10.71,0,0,1,.83-.94l0,0a4.16,4.16,0,0,0,.78-.89l.07-.1a1.25,1.25,0,0,0,.66-.73.39.39,0,0,0,.39-.51,1.32,1.32,0,0,1,1-1.19l-.06.08a1.61,1.61,0,0,1,.85-1l0,0a4,4,0,0,1,.82-1v0a4.13,4.13,0,0,0,.76-.91l.08-.11c.65-.29.37-1.3,1.15-1.5l-.07.07a1.48,1.48,0,0,1,.84-1l0,0a5.37,5.37,0,0,1,.79-1l0,0a2.09,2.09,0,0,0,.68-.82.39.39,0,0,0,.34-.55,1.53,1.53,0,0,1,.89-1.19l0,.06a4.07,4.07,0,0,1,.78-1l0,0c.58-.39.32-1.38,1.14-1.59l-.07.07a1.48,1.48,0,0,1,.79-1.07l0,0c.26-.32.51-.65.74-1l.06-.1c.65-.32.39-1.27,1.07-1.58l-.05.07c.14-.43.51-.69.75-1l0,0c.6-.38.36-1.31,1.06-1.63l0,0a2,2,0,0,0,0-2l0,0c-.53-.38-1.41-.14-1.67-1l0,0a7,7,0,0,1-2.76-1.58l0,0c-.48-.46-1.34-.25-1.68-.95h0c-.53-.36-1.42-.12-1.66-1l-.05,0a6.41,6.41,0,0,1-2.77-1.58h0c-.49-.46-1.36-.24-1.69-1h0c-.55-.34-1.43-.09-1.67-1l0,0a5.87,5.87,0,0,1-2.77-1.57l0,0c-.49-.43-1.36-.22-1.69-1h0a10.93,10.93,0,0,1-2.72-1.6l-.09-.05c-.44-.52-1.29-.3-1.67-.93h0c-.88-.65-2.17-1.22-.57-2.45a.33.33,0,0,0,.52-.23,4.22,4.22,0,0,1,1.08-.69.58.58,0,0,0,.71-.3,4.35,4.35,0,0,0,.91-.63h0c.41-.58,1.27-.37,1.67-1l.07,0a2.53,2.53,0,0,1,1.17-.73.45.45,0,0,0,.62-.27l1-.67a.63.63,0,0,0,.76-.33,2.38,2.38,0,0,0,.87-.6h0a1.8,1.8,0,0,1,1.29-.77l.3,0,.17-.26a3.29,3.29,0,0,1,1.12-.71.51.51,0,0,0,.67-.29,6.76,6.76,0,0,0,.94-.64l0,0c.41-.6,1.27-.4,1.7-1l0,0a2.14,2.14,0,0,1,1.2-.74.4.4,0,0,0,.58-.25,6.55,6.55,0,0,1,1.05-.69.61.61,0,0,0,.74-.31,3.24,3.24,0,0,0,.89-.62h0c.41-.56,1.27-.34,1.66-.94l.08,0a3,3,0,0,1,1.16-.72.49.49,0,0,0,.64-.27c.32-.22.65-.43,1-.66l-.05,0c.4-.64,1.27-.44,1.72-1l0,0a1.93,1.93,0,0,1,1.25-.75.34.34,0,0,0,.52-.24,4,4,0,0,1,1.09-.69.56.56,0,0,0,.7-.3,4.88,4.88,0,0,0,.92-.64l0,0c.41-.59,1.27-.38,1.68-1l.07,0a2.51,2.51,0,0,1,1.18-.73.42.42,0,0,0,.6-.26c.34-.24.69-.46,1-.68a.64.64,0,0,0,.76-.32,2.5,2.5,0,0,0,.87-.61h0a1.76,1.76,0,0,1,1.29-.78l.3,0,.17-.25a3.14,3.14,0,0,1,1.12-.71.52.52,0,0,0,.67-.28c.32-.2.64-.42,1-.65l0,0c.4-.61,1.27-.41,1.7-1l0,0a2.15,2.15,0,0,1,1.22-.75.37.37,0,0,0,.56-.25,5.39,5.39,0,0,1,1.07-.68.58.58,0,0,0,.72-.31,3.7,3.7,0,0,0,.9-.62h0c.42-.57,1.28-.35,1.67-.95l.08,0a2.83,2.83,0,0,1,1.16-.73.46.46,0,0,0,.63-.26l1-.66,0,0c.39-.65,1.26-.45,1.72-1h0a1.88,1.88,0,0,1,1.26-.76l.32,0,.19-.26a3.57,3.57,0,0,1,1.09-.7.54.54,0,0,0,.69-.29,6.5,6.5,0,0,0,.94-.64l0,0c.41-.6,1.27-.39,1.69-1l0,0a2.31,2.31,0,0,1,1.2-.73.41.41,0,0,0,.59-.26,8.09,8.09,0,0,1,1-.68.63.63,0,0,0,.75-.32,2.84,2.84,0,0,0,.88-.61h0c.41-.56,1.27-.33,1.64-.95l.1,0a3.67,3.67,0,0,1,1.14-.72.5.5,0,0,0,.66-.27c.33-.21.65-.42,1-.65l0,0c.39-.62,1.26-.42,1.7-1l0,0a2.12,2.12,0,0,1,1.31-.74l-.08-.1c1.92,1.09.9,2.92.9,4.35.09,19,0,38,.07,57,0,1.61-.29,3.25.37,4.81-.61,1.7-.32,3.46-.28,5.19.08,4.21-.38,8.43.25,12.63-.26.75-.35,1.72-1.57,1.16h0c-.51-.39-1.4-.16-1.67-1l0,0a7.42,7.42,0,0,1-2.76-1.59l-.05,0c-.47-.47-1.33-.26-1.68-.94h0c-.52-.38-1.4-.14-1.66-1l0,0a6.76,6.76,0,0,1-2.76-1.58l0,0c-.48-.46-1.34-.24-1.69-1h0c-.54-.36-1.42-.11-1.67-1l0,0a6.3,6.3,0,0,1-2.77-1.58h0c-.49-.45-1.36-.24-1.69-1h0c-.54-.34-1.43-.08-1.65-1l-.06,0a5.68,5.68,0,0,1-2.77-1.56l0,0c-.5-.43-1.36-.22-1.69-1l0,0a1.1,1.1,0,0,0-1.08.08h0a8.74,8.74,0,0,1-.74,1l0,.1c-.6.37-.36,1.28-1,1.6l0,0c-.13.42-.49.67-.73,1l-.05.09c-.6.36-.35,1.3-1.06,1.58l0,0c-.09.45-.46.7-.75,1l0,.05c-.56.4-.29,1.36-1.1,1.59l0,0a1.41,1.41,0,0,1-.76,1h0a9.6,9.6,0,0,1-1.88,2.59l0,0a1.87,1.87,0,0,1-.78,1l0,0c-.67.82-1,1.92-1.9,2.55l0,0a1.63,1.63,0,0,1-.8,1h0c-.66.83-.9,2-2,2.51l.19.16-.16-.19a1.1,1.1,0,0,1-.81,1l0,0a2,2,0,0,1-.82,1l0,0a14.49,14.49,0,0,1-2.82,3.42l0,0a1.24,1.24,0,0,1-.83,1l0,0a2,2,0,0,1-.84,1h0a7.74,7.74,0,0,1-.82.9l0,.06c-.91,1.14-1.59,2.49-2.89,3.28,0,.6-.29.87-.85.94l.2.18-.18-.2a1,1,0,0,1-.87.95l0,0a1.24,1.24,0,0,1-.88,1l0,0a1.46,1.46,0,0,1-.9.93l0,0a1.57,1.57,0,0,1-.9.92h0a1.88,1.88,0,0,1-.88.92h0a2.15,2.15,0,0,1-.89.9h0a2.77,2.77,0,0,1-.87.9h0a4.32,4.32,0,0,1-.88.88h0a4.08,4.08,0,0,1-.88.88h0a3,3,0,0,1-.89.87h0a2.4,2.4,0,0,1-.91.88h0a2.06,2.06,0,0,1-.91.89h0a1.78,1.78,0,0,1-.93.88l0,0a1.45,1.45,0,0,1-.92.89l0,0a1.32,1.32,0,0,1-.94.88l0,0a1.09,1.09,0,0,1-.94.87l.19.16-.18-.18a.89.89,0,0,1-.93.86,20.28,20.28,0,0,1-4.22,3.73l0,0a4,4,0,0,1-.92.83h0a1.54,1.54,0,0,1-1,.84l0,0a1,1,0,0,1-1,.81c-.48,1-1.67,1.23-2.41,2l-.08.07a6.88,6.88,0,0,1-.91.79h0a1.47,1.47,0,0,1-1,.81h0a14,14,0,0,1-3.48,2.73h0a1.24,1.24,0,0,1-1,.77c-.56,1-1.66,1.29-2.52,1.9h0c-.25.38-.49.75-1,.76-.58,1-1.64,1.33-2.56,1.86h0a12,12,0,0,1-2.6,1.82l0,0c-.26.36-.49.74-1,.72-.22.82-1.15.55-1.57,1l-.07.05a1.92,1.92,0,0,1-1,.7c-.25.78-1.17.53-1.6,1l-.06,0a1.81,1.81,0,0,1-1,.69c-.24.81-1.16.56-1.62,1l0,0a12.39,12.39,0,0,1-2.69,1.71h0a5.78,5.78,0,0,1-2.73,1.64l0,0c-.25.82-1.15.58-1.65,1h0c-.37.65-1.22.43-1.66.94l-.09.05a9.74,9.74,0,0,1-2.74,1.58l0,0c-.32.77-1.18.55-1.7.95h0c-.38.66-1.22.47-1.71.92l0,0c-.41.59-1.24.39-1.7.88l-.08,0a51.61,51.61,0,0,1-8.79,4.41l-.09.05c-.45.53-1.24.36-1.73.82l-.05,0c-.45.57-1.24.43-1.77.82h0c-.44.65-1.22.51-1.81.8l0,0c-1.25,1.07-2.93,1.13-4.32,1.87l0,0c-.47.59-1.23.48-1.83.75l0,0c-.54,1.08-1.85.21-2.5,1l-.08,0c-.49.55-1.23.45-1.83.71l0,0c-.55,1.09-1.86.24-2.55,1h0a16.07,16.07,0,0,1-4.51,1.6l-.07,0c-.56,1.16-1.81.35-2.58.91h0c-.61,1.09-1.82.34-2.62.86l-.05,0c-1.86,1.16-4.08,1.15-6.06,1.91h-.05c-.73.84-1.88.22-2.7.77h0c-.89,1.24-2.47.06-3.46,1h0c-1,1.07-2.49,0-3.51.9h0c-1,1-2.5,0-3.53.87h0c-1,1-2.48.1-3.58.8h0c-1.24,1.36-3.05,0-4.38.94h0c-3.42,1.19-7.06,1.16-10.57,1.85h0c-1.94,1.23-4.25-.21-6.2.88l0,0c-2.55,1.36-5.42-.24-8,.91l0-.05c-3.39,1.23-6.9.21-10.34.55-1.57.15-3.21-.37-4.73.4l0-.08a11.6,11.6,0,0,1-7.8,0l0,0c-1-.86-2.6.39-3.43-1l-.05,0a5.35,5.35,0,0,1-2.72-1.63h0a1.81,1.81,0,0,1-.94-.85h0a2,2,0,0,1-.88-.94l0,0a1.15,1.15,0,0,1-.79-1l.05,0c-.89-.27-.67-1.17-1-1.75l0,.07c-1.07-.74-.39-2-1-2.94,0-1.51,0-3,0-4.53a8.45,8.45,0,0,1,.71-2.2l.25-.22-.07-.32a2.5,2.5,0,0,1,.72-1.26l0,0c.6-.37.34-1.34,1.12-1.58l-.07.07a1.22,1.22,0,0,1,.92-1l-.06.06a1.33,1.33,0,0,1,1.09-.95.44.44,0,0,0,.6-.33,4.33,4.33,0,0,0,.9-.64h0c.48-.59,1.31-.43,1.86-.88a.69.69,0,0,0,.79-.15c2.76-.91,5.7.25,8.46-.73,3.41.53,6.8,0,10.19-.2,1.76-.78,3.74.24,5.48-.68a12.15,12.15,0,0,0,4.29-.23c1-.44,2.1-.18,3.07-.63a6.73,6.73,0,0,0,3.15-.23c.92-.51,2-.15,3-.65l2.37-.23c.87-.55,2-.09,2.86-.68l2.47-.26C571.87,628.42,572.6,628.42,573.23,628.1Z" transform="translate(-146.16 -177.41)"/><path class="cls-4" d="M679.78,233.58a.47.47,0,0,0,.6.42,1.38,1.38,0,0,1,1.12.92l-.06,0a1.94,1.94,0,0,1,1,.85l0,0a5.34,5.34,0,0,1,1,.83l0,0a5.6,5.6,0,0,0,.9.78l.09.07a1.69,1.69,0,0,0,.81.73l.16.13c.23.68,1.27.39,1.42,1.18l-.06-.06a1.11,1.11,0,0,1,1,.9l-.06-.06a1.45,1.45,0,0,1,1,.89l0-.05a2,2,0,0,1,1,.9l0,0a2.67,2.67,0,0,1,1,.88l0,0a6.32,6.32,0,0,1,.93.86h0c.29.29.59.57.89.84l0,0a7.66,7.66,0,0,0,.87.84l0,0a4.35,4.35,0,0,0,.85.81l.07.07a3.12,3.12,0,0,0,.82.8l.09.08a2.33,2.33,0,0,0,.81.78l.11.1a1.81,1.81,0,0,0,.78.77l.12.11a1.71,1.71,0,0,0,.77.78l.12.11a1.83,1.83,0,0,0,.77.79l.1.1a2.27,2.27,0,0,0,.78.82l.08.08a3,3,0,0,0,.8.83l.06.06a4.72,4.72,0,0,0,.82.85l.05,0a6.75,6.75,0,0,0,.83.86l0,0c.27.31.55.6.84.89h0a8.29,8.29,0,0,1,.86.92h0a3.33,3.33,0,0,1,.88.95l0,0a2.2,2.2,0,0,1,.9,1l0-.05a1.51,1.51,0,0,1,.89,1l-.05-.06a1.15,1.15,0,0,1,.9,1l-.07-.07a1.2,1.2,0,0,1,1,1.19c-.05.3.08.45.39.47a1.25,1.25,0,0,0,.66.73l.08.1a3.67,3.67,0,0,0,.78.89l0,0a9.41,9.41,0,0,1,.83.95l0,0a2.15,2.15,0,0,1,.86,1l-.05-.06a1.27,1.27,0,0,1,.87,1l-.07-.07c.79.18.51,1.2,1.17,1.48l.08.12a3.6,3.6,0,0,0,.75.9v0a3.7,3.7,0,0,1,.82,1l0-.05a1.49,1.49,0,0,1,.85,1l-.07-.07c.77.2.5,1.21,1.15,1.51l.06.1a6.94,6.94,0,0,0,.76.94h0a2.09,2.09,0,0,1,.81,1l-.06-.07a1.34,1.34,0,0,1,.92,1.25v.32l.29.14a5,5,0,0,0,.71.89h0a2.27,2.27,0,0,1,.79,1l-.06-.07c.72.27.46,1.23,1.1,1.56l0,.09c.2.37.55.63.75,1l0,0a1.71,1.71,0,0,1,.85,1.2.4.4,0,0,0,.31.56,3.64,3.64,0,0,0,.68.88h0a2,2,0,0,1,.76,1.07l-.06-.07c.78.27.54,1.22,1.09,1.64v0a2.25,2.25,0,0,1,.75,1.07l-.06-.08c.76.29.53,1.23,1.07,1.67h0a2.3,2.3,0,0,1,.78,1.18.43.43,0,0,0,.3.61,5.5,5.5,0,0,0,.66.92v0a1.68,1.68,0,0,1,.8,1.27l0,.32.27.17a11.12,11.12,0,0,1,.69,1l0-.06c.68.36.47,1.26,1,1.7v0a2.12,2.12,0,0,1,.76,1.23.36.36,0,0,0,.25.55c.24.33.46.66.67,1l0-.07c.69.38.5,1.26,1,1.75v0c.56.43.35,1.29,1,1.69l0,.06a2.48,2.48,0,0,1,.72,1.24.37.37,0,0,0,.25.56,3.92,3.92,0,0,1,.67,1.11.5.5,0,0,0,.27.67l.63,1,0-.07c.66.42.5,1.27.95,1.8l0,0c.61.45.45,1.28.92,1.8v0c.58.46.43,1.29.9,1.8v0c.58.47.43,1.29.9,1.81v0c.58.47.44,1.29.89,1.82l0,0c.6.47.47,1.29.88,1.85l0-.06c.66.49.52,1.34.9,2a.49.49,0,0,0,.23.68,3.14,3.14,0,0,1,.63,1.2.36.36,0,0,0,.2.57c.44.51.26,1.3.81,1.75v0c.5.52.39,1.3.82,1.85l0,0c.63.53.55,1.37.86,2a.38.38,0,0,0,.19.59c.44.53.29,1.31.78,1.81v0c.56.56.49,1.38.82,2a.4.4,0,0,0,.18.62c.43.53.31,1.3.76,1.83l0,0a4.66,4.66,0,0,1,.83,2.21l-.09.27.23.16c.52.59.45,1.4.77,2.07a.38.38,0,0,0,.16.6c.46.59.39,1.38.74,2a.45.45,0,0,0,.17.66c.43.59.36,1.36.73,2a.46.46,0,0,0,.16.68c.43.61.38,1.39.71,2a.4.4,0,0,0,.16.63,7.94,7.94,0,0,1,.7,2.18l-.1.29.23.19c.77.79.11,2,.84,2.79a.56.56,0,0,0,.15.77,12.59,12.59,0,0,1,.66,2.14l-.1.3.23.22c.73.85.19,2,.79,2.92a.4.4,0,0,0,.13.64c.67.86.18,2,.75,2.93a.38.38,0,0,0,.12.62c.67.93.28,2.11.75,3.09l.22,1.36c.56.89.13,2,.69,2.92a.37.37,0,0,0,.11.62c.84,1.18.07,2.68.77,3.88.06.49.13,1,.2,1.46.71,1.17,0,2.62.71,3.79.06.51.11,1,.17,1.54.65,1.27.1,2.74.7,4a2.88,2.88,0,0,0,.19,2.19c.85,1.78-.18,3.81.72,5.58a3.86,3.86,0,0,0,.16,2.42c.9,2.46-.21,5.11.73,7.57a11.38,11.38,0,0,0,.15,4.86,42.38,42.38,0,0,1,0,12.42.47.47,0,0,0-.12.7c-.39.6-.29,1.39-.75,2l-.26.19.06.3a1.75,1.75,0,0,1-.77,1.26v0a9.44,9.44,0,0,1-3.55,3.49l0,0c-4.41,3-8.81,3-13.21,0l0,0a9.07,9.07,0,0,1-3.55-3.51h0c-.56-.42-.34-1.27-.94-1.67l0-.07c-.46-.6-.42-1.38-.76-2a.41.41,0,0,0-.12-.65c-1.13-5.43.32-11-.77-16.42a4.59,4.59,0,0,0-.15-3.12c-1-2.36.26-5-.75-7.32A1.79,1.79,0,0,0,741,392c-.8-1.55,0-3.33-.72-4.88a1.23,1.23,0,0,0-.14-1.34c-.92-1.43.13-3.19-.79-4.62a.46.46,0,0,0-.1-.71c-.8-1.18,0-2.66-.75-3.86l.13-.32-.23-.25c-.89-1.14,0-2.64-.8-3.8a.4.4,0,0,0-.12-.65c-.65-.94-.27-2.12-.74-3.1l.11-.26-.2-.18c-.75-.93-.33-2.15-.8-3.14l.1-.24-.19-.18c-.77-.87-.26-2.08-.8-3l.11-.31-.24-.23c-.74-.79-.11-2-.82-2.8a.55.55,0,0,0-.15-.76,16.41,16.41,0,0,1-.68-2.05.38.38,0,0,0-.16-.61,7.63,7.63,0,0,1-.71-2.18l.1-.29-.24-.19a6.26,6.26,0,0,1-.75-2.23l.09-.26-.22-.17a6.4,6.4,0,0,1-.76-2.16l.09-.31-.24-.2c-.5-.59-.43-1.39-.76-2a.41.41,0,0,0-.18-.63c-.43-.54-.32-1.3-.74-1.85v.05a4.44,4.44,0,0,1-.84-2.2l.08-.27-.23-.16c-.5-.53-.38-1.31-.78-1.88l0,.05c-.67-.57-.64-1.41-.87-2.16l.07-.29-.24-.17c-.49-.51-.34-1.3-.8-1.82v0c-.59-.49-.49-1.28-.83-1.88l0,.06c-.73-.49-.63-1.36-.92-2.05a.34.34,0,0,0-.2-.55c-.44-.49-.23-1.29-.82-1.71l0-.06c-.47-.49-.31-1.29-.84-1.75l0,0c-.51-.48-.35-1.29-.86-1.76v0c-.53-.47-.37-1.28-.87-1.77h0c-.54-.46-.37-1.28-.89-1.75v0c-.52-.46-.34-1.28-.9-1.72l0-.05c-.49-.46-.28-1.28-.89-1.68l0-.08c-.23-.36-.68-.59-.63-1.11l0,.06c-.85-.29-.64-1.19-1-1.76l0,0c-.73-.35-.53-1.23-1-1.74v0c-.61-.4-.41-1.27-1-1.7l0-.05c-.3-.32-.68-.59-.67-1.09l.05.05c-.87-.26-.63-1.18-1-1.71l0,0c-.67-.36-.45-1.25-1-1.67l0-.05c-.28-.33-.69-.56-.69-1.07l0,0c-.81-.27-.57-1.2-1-1.67h0c-.37-.28-.76-.54-.7-1.09l-.15.18.18-.15c-.9-.19-.64-1.15-1.09-1.64v0a13.47,13.47,0,0,1-1.79-2.68v0c-.39-.26-.78-.53-.72-1.08l-.17.2.2-.17c-.89-.17-.62-1.15-1.12-1.59v0a1.56,1.56,0,0,1-.76-1l0,.05c-.79-.23-.53-1.19-1.1-1.57l0-.07a6,6,0,0,1-.76-1l0,0c-.42-.23-.79-.5-.77-1l-.15.19.18-.16c-.86-.16-.58-1.15-1.13-1.53l0-.07a3.21,3.21,0,0,1-.78-1l0,0a1.19,1.19,0,0,1-.79-1l-.14.18.17-.15c-1.05-.52-1.29-1.68-2-2.5v0a1.93,1.93,0,0,1-.82-1l0,0a1.1,1.1,0,0,1-.81-1l-.16.19.18-.17c-1.06-.48-1.24-1.69-2-2.43l0-.06a8.88,8.88,0,0,1-.81-.92h0a2,2,0,0,1-.85-1l0,0a1.24,1.24,0,0,1-.85-1l0,0a.92.92,0,0,1-.85-1l-.21.24.22-.22c-1.28-.81-1.93-2.17-2.9-3.26l-.08-.09q-.37-.44-.78-.84l-.06-.07c-.29-.27-.56-.56-.82-.85l0,0a5.83,5.83,0,0,1-.84-.88l0,0a4.32,4.32,0,0,1-.87-.89h0a2.38,2.38,0,0,1-.87-.91h0a2.17,2.17,0,0,1-.9-.9h0a2.11,2.11,0,0,1-.9-.9h0a2,2,0,0,1-.89-.9h0a2,2,0,0,1-.9-.89h0a2.61,2.61,0,0,1-.91-.87h0a4.27,4.27,0,0,1-.89-.86l0,0a5.76,5.76,0,0,1-.87-.84l0,0a30.71,30.71,0,0,1-5.1-4.63.93.93,0,0,1-1-.84l-.15.17.17-.15a1.3,1.3,0,0,1-1-.84h0a2,2,0,0,1-.95-.83h0a8.37,8.37,0,0,1-.89-.79l-.09-.07c-.73-.74-1.92-.93-2.41-2a1.1,1.1,0,0,1-1-.8h0a2,2,0,0,1-.95-.8l0,0c-.81-.67-2-.91-2.48-1.93a1.23,1.23,0,0,1-1-.77h0c-.89-.57-2-.85-2.52-1.9l-.16.23.15-.24c-.53,0-.79-.34-1-.74h0a7.17,7.17,0,0,1-2.57-1.85c-.48,0-.73-.41-1-.74l-.06,0c-.42-.5-1.37-.22-1.55-1.07l-.16.24.14-.25c-.53,0-.78-.34-1-.7l0,0c-1.25-.79-2.49-1.78-3.79-.07l0,0c0,.48-.44.72-.67,1.08l0,.08c-.61.39-.38,1.24-.93,1.66v0c-.51.47-.31,1.34-1,1.72l0,0c-.4.54-.19,1.44-1,1.74l.05-.06c0,.5-.42.74-.67,1.09l0,.07c-.59.4-.37,1.26-.94,1.67h0c-.49.48-.29,1.36-1,1.73l0,0c-.39.55-.17,1.45-1,1.73l0-.05c0,.52-.4.75-.66,1.09l0,.06c-.57.42-.37,1.27-.94,1.69h0c-.48.49-.28,1.37-1,1.72l0,0c-.37.56-.15,1.47-1,1.74l0,0c0,.5-.37.77-.66,1.09l0,.06c-.56.43-.35,1.28-1,1.69h0c-.47.5-.27,1.38-1,1.73l0-.07c-1.34,1.27-1.87.16-2.45-.82l0,0c-.66-.37-.46-1.25-1-1.71v0c-.54-.42-.31-1.27-.93-1.64l0-.11c-.21-.36-.62-.6-.67-1.06l0,.06c-.76-.33-.55-1.22-1-1.73v0c-.61-.4-.41-1.26-1-1.7l0-.05c-.29-.32-.68-.59-.66-1.1l0,.06c-.87-.27-.65-1.18-1-1.73l0,0c-.7-.36-.5-1.24-1-1.72h0c-.57-.41-.35-1.27-1-1.66l0-.08c-.23-.35-.65-.59-.67-1.08l0,.06c-.8-.31-.59-1.21-1-1.74l0,0c-.65-.39-.45-1.26-1-1.71v0c-.31-.32-.72-.58-.65-1.11l0,0c-.92-.23-.68-1.15-1-1.72l0,0c-.74-.34-.54-1.23-1-1.72h0c-.59-.41-.38-1.27-.95-1.68l0-.07c-.26-.34-.69-.57-.67-1.09l.05.06c-.84-.29-.62-1.19-1-1.73l0,0c-.68-.37-.47-1.24-1-1.71v0c-.55-.41-.32-1.27-.94-1.64l0-.1c-.22-.36-.63-.6-.67-1.07l0,.06c-.77-.33-.56-1.22-1-1.74l0,0c-.62-.4-.42-1.26-1-1.7l0,0c-.29-.32-.69-.59-.66-1.1l0,0c-.88-.25-.66-1.17-1-1.72l0,0c-.71-.36-.51-1.24-1-1.72h0c-.57-.42-.35-1.27-.94-1.67l0-.08c-.24-.34-.66-.58-.67-1.08l0,.06c-.81-.31-.6-1.2-1-1.73v0c-.65-.38-.45-1.26-1-1.71l0,0c-.31-.31-.72-.57-.64-1.11l0,0c-.93-.22-.69-1.15-1-1.72l0,0c-.75-.33-.55-1.22-1-1.73v0c-.6-.4-.39-1.26-1-1.69l0-.06c-.27-.33-.7-.57-.67-1.09l.05.06c-.85-.28-.63-1.19-1-1.73l0,0c-.69-.36-.49-1.24-1-1.72h0c-.56-.41-.33-1.27-.94-1.65l0-.09c-.23-.35-.65-.59-.67-1.07l0,0c-.78-.31-.57-1.21-1-1.72l0,0c-.63-.39-.43-1.26-1-1.7l0,0c-.3-.32-.7-.58-.66-1.1l0,0c-.9-.24-.66-1.16-1-1.72l0,0c-.72-.35-.52-1.23-1-1.73h0c-.58-.41-.36-1.27-.94-1.68l0-.07c-.25-.34-.67-.58-.67-1.08l.06.07c-1-.92-.5-1.65.46-1.95a10.26,10.26,0,0,1,3.09-.12c25.6,0,51.21,0,76.81.09,1.18,0,4.17-1.73,3.58,2l0-.07c0,.48-.44.72-.66,1.08l0,.1c-.62.37-.39,1.22-.93,1.64v0c-.52.47-.32,1.33-1,1.72l0,0c-.42.53-.21,1.42-1,1.74l0-.06c0,.49-.44.73-.67,1.08l0,.09c-.6.38-.38,1.24-.93,1.65v0c-.5.47-.3,1.34-1,1.72l0,0c-.4.55-.19,1.44-1,1.74l0-.05c0,.5-.42.74-.66,1.08l0,.08c-.59.4-.37,1.25-.94,1.67h0c-.49.49-.29,1.36-1,1.73l0,0c-.39.55-.17,1.45-1,1.74l0-.06c0,.52-.4.75-.66,1.1l0,.06c-.57.41-.36,1.27-.94,1.68h0c-.48.49-.28,1.37-1,1.73l0,0c-.32.88-.72,1.77.11,2.6a.43.43,0,0,0,.6.31,2,2,0,0,1,1.15.8h0a3.82,3.82,0,0,0,.88.66.46.46,0,0,0,.62.32,1.94,1.94,0,0,1,1.15.81h0a7.77,7.77,0,0,0,.91.69.37.37,0,0,0,.53.29,1.54,1.54,0,0,1,1.21.86l-.05,0a6.75,6.75,0,0,1,1,.76l.07,0c.36.61,1.32.35,1.58,1.1l-.06-.05a1.86,1.86,0,0,1,1,.79h0a8.7,8.7,0,0,0,1,.75l.11.07c.31.65,1.28.38,1.53,1.1l-.06-.05a1.93,1.93,0,0,1,1,.81h0c.3.27.62.52.94.76l.11.07a1.17,1.17,0,0,0,.73.63.5.5,0,0,0,.63.4,1.58,1.58,0,0,1,1.12.89l-.05-.05a3.23,3.23,0,0,1,1,.82h0a5.1,5.1,0,0,0,.91.76l.12.09A1.07,1.07,0,0,0,679.78,233.58Z" transform="translate(-146.16 -177.41)"/></svg>