<svg id="Capa_1" data-name="Capa 1" xmlns="http://www.w3.org/2000/svg" viewBox="0 0 801.69 735.77"><defs><style>.cls-1{fill:#fdfdfd;}.cls-2{fill:#612067;}.cls-2,.cls-4{stroke:#fff;}.cls-2,.cls-3,.cls-4{stroke-miterlimit:10;stroke-width:2px;}.cls-3,.cls-4{fill:#a35edf;}.cls-3{stroke:#f9f9f9;}</style></defs><title>isotipo</title><path class="cls-1" d="M981.85,695.9c.09-1.13.3-2.19,1.47-2.73C983.43,694.4,983.26,695.48,981.85,695.9Z" transform="translate(-181.66 -173.07)"/><path class="cls-1" d="M980.39,698.54c.14-1.1.35-2.17,1.5-2.71C982,697.09,981.91,698.2,980.39,698.54Z" transform="translate(-181.66 -173.07)"/><path class="cls-1" d="M312,809a11.68,11.68,0,0,1,5,4.42A5.05,5.05,0,0,1,312,809Z" transform="translate(-181.66 -173.07)"/><path class="cls-1" d="M341.76,833.68a6.64,6.64,0,0,1,3.91,2.83A3.47,3.47,0,0,1,341.76,833.68Z" transform="translate(-181.66 -173.07)"/><path class="cls-1" d="M336.34,829.57a6.74,6.74,0,0,1,3.85,2.87C338.17,832.47,336.8,831.63,336.34,829.57Z" transform="translate(-181.66 -173.07)"/><path class="cls-1" d="M331,825.37a6.38,6.38,0,0,1,3.79,3C332.75,828.36,331.29,827.63,331,825.37Z" transform="translate(-181.66 -173.07)"/><path class="cls-1" d="M322.83,818.58a6.55,6.55,0,0,1,3.65,3C324.5,821.52,323.09,820.74,322.83,818.58Z" transform="translate(-181.66 -173.07)"/><path class="cls-1" d="M879.49,466c1.42,1.68,1.36,3.69,1.28,5.71C878.74,470.17,879.53,468,879.49,466Z" transform="translate(-181.66 -173.07)"/><path class="cls-1" d="M874.06,445.55c1.3,1.19,1.39,2.74,1.28,4.35C873.63,448.83,874,447.15,874.06,445.55Z" transform="translate(-181.66 -173.07)"/><path class="cls-1" d="M875.34,449.89a4.63,4.63,0,0,1,1.21,4.1C875.05,453,875.32,451.38,875.34,449.89Z" transform="translate(-181.66 -173.07)"/><path class="cls-1" d="M876.77,455.11a4.87,4.87,0,0,1,1.19,4.33C876.37,458.32,876.69,456.68,876.77,455.11Z" transform="translate(-181.66 -173.07)"/><path class="cls-1" d="M865.78,421.36a4.68,4.68,0,0,1,1.49,4C865.52,424.49,865.8,422.87,865.78,421.36Z" transform="translate(-181.66 -173.07)"/><path class="cls-1" d="M863.06,414.56a4.77,4.77,0,0,1,1.58,3.94C862.78,417.72,863.09,416.07,863.06,414.56Z" transform="translate(-181.66 -173.07)"/><path class="cls-1" d="M878.16,460.47a5,5,0,0,1,1.14,4.42C877.71,463.73,878.06,462.07,878.16,460.47Z" transform="translate(-181.66 -173.07)"/><path class="cls-1" d="M857.5,678.67a2.76,2.76,0,0,1-1.28,2.65A2.76,2.76,0,0,1,857.5,678.67Z" transform="translate(-181.66 -173.07)"/><path class="cls-1" d="M856.2,681.37a2.79,2.79,0,0,1-1.32,2.72A2.79,2.79,0,0,1,856.2,681.37Z" transform="translate(-181.66 -173.07)"/><path class="cls-1" d="M854.88,684.11a2.77,2.77,0,0,1-1.35,2.7A2.69,2.69,0,0,1,854.88,684.11Z" transform="translate(-181.66 -173.07)"/><path class="cls-1" d="M853.52,686.83a2.8,2.8,0,0,1-1.35,2.71A2.7,2.7,0,0,1,853.52,686.83Z" transform="translate(-181.66 -173.07)"/><path class="cls-1" d="M852.16,689.56a2.78,2.78,0,0,1-1.38,2.65A2.7,2.7,0,0,1,852.16,689.56Z" transform="translate(-181.66 -173.07)"/><path class="cls-1" d="M847,699.22a3,3,0,0,1-1.53,2.71C845.4,700.71,845.59,699.63,847,699.22Z" transform="translate(-181.66 -173.07)"/><path class="cls-1" d="M845.49,701.87a2.84,2.84,0,0,1-1.49,2.65A2.51,2.51,0,0,1,845.49,701.87Z" transform="translate(-181.66 -173.07)"/><path class="cls-1" d="M841.49,708.73a2.89,2.89,0,0,1-1.56,2.62C839.94,710.17,840.22,709.15,841.49,708.73Z" transform="translate(-181.66 -173.07)"/><path class="cls-1" d="M837.33,715.49a2.88,2.88,0,0,1-1.56,2.51A2.48,2.48,0,0,1,837.33,715.49Z" transform="translate(-181.66 -173.07)"/><path class="cls-1" d="M878,720.82a2.75,2.75,0,0,1,1.42-2.57A2.53,2.53,0,0,1,878,720.82Z" transform="translate(-181.66 -173.07)"/><path class="cls-1" d="M834.68,719.62a2.91,2.91,0,0,1-1.62,2.5A2.38,2.38,0,0,1,834.68,719.62Z" transform="translate(-181.66 -173.07)"/><path class="cls-1" d="M876.48,723.48a2.84,2.84,0,0,1,1.5-2.64C878,722,877.74,723,876.48,723.48Z" transform="translate(-181.66 -173.07)"/><path class="cls-1" d="M832,723.71a2.91,2.91,0,0,1-1.64,2.46A2.36,2.36,0,0,1,832,723.71Z" transform="translate(-181.66 -173.07)"/><path class="cls-1" d="M875,726.06a2.9,2.9,0,0,1,1.56-2.64C876.6,724.67,876.44,725.76,875,726.06Z" transform="translate(-181.66 -173.07)"/><path class="cls-1" d="M872.42,730.3a2.79,2.79,0,0,1,1.52-2.57A2.4,2.4,0,0,1,872.42,730.3Z" transform="translate(-181.66 -173.07)"/><path class="cls-1" d="M870.84,732.84a2.86,2.86,0,0,1,1.61-2.58C872.51,731.49,872.34,732.58,870.84,732.84Z" transform="translate(-181.66 -173.07)"/><path class="cls-1" d="M825.23,733.3a2.89,2.89,0,0,1-1.71,2.39C823.61,734.55,823.94,733.58,825.23,733.3Z" transform="translate(-181.66 -173.07)"/><path class="cls-1" d="M868.22,737a2.83,2.83,0,0,1,1.59-2.55C869.81,735.65,869.55,736.67,868.22,737Z" transform="translate(-181.66 -173.07)"/><path class="cls-1" d="M821.16,738.76a2.92,2.92,0,0,1-1.74,2.33C819.53,740,819.87,739,821.16,738.76Z" transform="translate(-181.66 -173.07)"/><path class="cls-1" d="M865.55,741.14a2.79,2.79,0,0,1,1.58-2.5C867.1,739.79,866.81,740.77,865.55,741.14Z" transform="translate(-181.66 -173.07)"/><path class="cls-1" d="M862.82,745.21a2.78,2.78,0,0,1,1.6-2.46C864.38,743.9,864.08,744.87,862.82,745.21Z" transform="translate(-181.66 -173.07)"/><path class="cls-1" d="M815.78,745.64a2.88,2.88,0,0,1-1.8,2.29C814.1,746.78,814.44,745.82,815.78,745.64Z" transform="translate(-181.66 -173.07)"/><path class="cls-1" d="M860,749.25a2.78,2.78,0,0,1,1.64-2.44C861.65,748,861.35,749,860,749.25Z" transform="translate(-181.66 -173.07)"/><path class="cls-1" d="M809,753.82a2.83,2.83,0,0,1-1.82,2.2C807.29,754.9,807.65,754,809,753.82Z" transform="translate(-181.66 -173.07)"/><path class="cls-1" d="M760.75,799.78a2.86,2.86,0,0,1-2.33,1.73C758.67,800.22,759.63,799.88,760.75,799.78Z" transform="translate(-181.66 -173.07)"/><path class="cls-1" d="M348.52,869.33A2.82,2.82,0,0,1,347,872,2.51,2.51,0,0,1,348.52,869.33Z" transform="translate(-181.66 -173.07)"/><path class="cls-1" d="M344.57,876.22A3,3,0,0,1,343,878.9C343,877.69,343.2,876.62,344.57,876.22Z" transform="translate(-181.66 -173.07)"/><path class="cls-1" d="M343.06,878.86a2.82,2.82,0,0,1-1.48,2.61A2.53,2.53,0,0,1,343.06,878.86Z" transform="translate(-181.66 -173.07)"/><path class="cls-1" d="M827.69,350.56a2.76,2.76,0,0,1,1.68,2.43C828,352.74,827.72,351.74,827.69,350.56Z" transform="translate(-181.66 -173.07)"/><path class="cls-1" d="M830.47,354.55a2.79,2.79,0,0,1,1.68,2.47C830.64,356.84,830.45,355.76,830.47,354.55Z" transform="translate(-181.66 -173.07)"/><path class="cls-1" d="M833.21,358.6a2.82,2.82,0,0,1,1.66,2.51C833.36,360.91,833.18,359.83,833.21,358.6Z" transform="translate(-181.66 -173.07)"/><path class="cls-1" d="M835.9,362.72a2.82,2.82,0,0,1,1.62,2.55C836.13,365,835.88,363.93,835.9,362.72Z" transform="translate(-181.66 -173.07)"/><path class="cls-1" d="M838.57,366.9a2.8,2.8,0,0,1,1.54,2.56C838.86,369.06,838.58,368.06,838.57,366.9Z" transform="translate(-181.66 -173.07)"/><path class="cls-1" d="M840.08,369.41c1.16.48,1.43,1.51,1.61,2.6C840.14,371.77,840,370.67,840.08,369.41Z" transform="translate(-181.66 -173.07)"/><path class="cls-1" d="M842.67,373.68a2.79,2.79,0,0,1,1.5,2.61A2.36,2.36,0,0,1,842.67,373.68Z" transform="translate(-181.66 -173.07)"/><path class="cls-1" d="M844.14,376.24c1.17.52,1.41,1.56,1.54,2.67C844.22,378.57,844.05,377.48,844.14,376.24Z" transform="translate(-181.66 -173.07)"/><path class="cls-1" d="M846.68,380.63a2.69,2.69,0,0,1,1.39,2.55A2.6,2.6,0,0,1,846.68,380.63Z" transform="translate(-181.66 -173.07)"/><path class="cls-1" d="M848.1,383.23a2.74,2.74,0,0,1,1.4,2.65A2.52,2.52,0,0,1,848.1,383.23Z" transform="translate(-181.66 -173.07)"/><path class="cls-1" d="M849.5,385.88a2.75,2.75,0,0,1,1.42,2.7A2.46,2.46,0,0,1,849.5,385.88Z" transform="translate(-181.66 -173.07)"/><path class="cls-1" d="M850.9,388.54a2.8,2.8,0,0,1,1.42,2.75C851.07,390.78,850.83,389.74,850.9,388.54Z" transform="translate(-181.66 -173.07)"/><path class="cls-1" d="M852.29,391.24a2.82,2.82,0,0,1,1.4,2.77C852.42,393.49,852.2,392.44,852.29,391.24Z" transform="translate(-181.66 -173.07)"/><path class="cls-1" d="M853.66,394a2.8,2.8,0,0,1,1.37,2.8A2.44,2.44,0,0,1,853.66,394Z" transform="translate(-181.66 -173.07)"/><path class="cls-1" d="M855,396.69a2.78,2.78,0,0,1,1.35,2.79A2.48,2.48,0,0,1,855,396.69Z" transform="translate(-181.66 -173.07)"/><path class="cls-1" d="M856.33,399.45a2.74,2.74,0,0,1,1.31,2.78A2.56,2.56,0,0,1,856.33,399.45Z" transform="translate(-181.66 -173.07)"/><path class="cls-1" d="M857.65,402.24a2.72,2.72,0,0,1,1.28,2.74A2.68,2.68,0,0,1,857.65,402.24Z" transform="translate(-181.66 -173.07)"/><path class="cls-1" d="M859,405.06a2.66,2.66,0,0,1,1.23,2.64A2.75,2.75,0,0,1,859,405.06Z" transform="translate(-181.66 -173.07)"/><path class="cls-1" d="M860.5,408.63c1.18.72,1.34,1.87,1.34,3.1C860.47,411.09,860.37,409.91,860.5,408.63Z" transform="translate(-181.66 -173.07)"/><path class="cls-1" d="M861.81,411.66a2.72,2.72,0,0,1,1.23,2.85A2.65,2.65,0,0,1,861.81,411.66Z" transform="translate(-181.66 -173.07)"/><path class="cls-1" d="M864.59,418.41a2.74,2.74,0,0,1,1.18,2.91A2.6,2.6,0,0,1,864.59,418.41Z" transform="translate(-181.66 -173.07)"/><path class="cls-1" d="M867.24,425.29a2.66,2.66,0,0,1,1.13,2.83A2.72,2.72,0,0,1,867.24,425.29Z" transform="translate(-181.66 -173.07)"/><path class="cls-1" d="M868.65,429.12a3,3,0,0,1,1.14,3.09C868.61,431.48,868.52,430.34,868.65,429.12Z" transform="translate(-181.66 -173.07)"/><path class="cls-1" d="M870,433.07a3.21,3.21,0,0,1,1.14,3.23C870,435.52,869.89,434.34,870,433.07Z" transform="translate(-181.66 -173.07)"/><path class="cls-1" d="M871.41,437.11a3.24,3.24,0,0,1,1.1,3.27C871.29,439.58,871.25,438.38,871.41,437.11Z" transform="translate(-181.66 -173.07)"/><path class="cls-1" d="M872.75,441.28a3.1,3.1,0,0,1,1.07,3.18C872.66,443.67,872.6,442.51,872.75,441.28Z" transform="translate(-181.66 -173.07)"/><path class="cls-1" d="M873.75,636.47a2.92,2.92,0,0,1-1.06,3A3,3,0,0,1,873.75,636.47Z" transform="translate(-181.66 -173.07)"/><path class="cls-1" d="M872.43,640.55a2.89,2.89,0,0,1-1.08,3A2.89,2.89,0,0,1,872.43,640.55Z" transform="translate(-181.66 -173.07)"/><path class="cls-1" d="M871.09,644.63a2.88,2.88,0,0,1-1.12,3A2.88,2.88,0,0,1,871.09,644.63Z" transform="translate(-181.66 -173.07)"/><path class="cls-1" d="M869.71,648.72a2.86,2.86,0,0,1-1.13,2.9A2.86,2.86,0,0,1,869.71,648.72Z" transform="translate(-181.66 -173.07)"/><path class="cls-1" d="M868.28,652.81a2.72,2.72,0,0,1-1.13,2.72A2.85,2.85,0,0,1,868.28,652.81Z" transform="translate(-181.66 -173.07)"/><path class="cls-1" d="M867.15,655.53a3.09,3.09,0,0,1-1.21,3.13C865.8,657.41,865.9,656.24,867.15,655.53Z" transform="translate(-181.66 -173.07)"/><path class="cls-1" d="M865.65,659.61a2.7,2.7,0,0,1-1.17,2.79A2.74,2.74,0,0,1,865.65,659.61Z" transform="translate(-181.66 -173.07)"/><path class="cls-1" d="M864.49,662.36a3.08,3.08,0,0,1-1.28,3.1C863.09,664.2,863.19,663,864.49,662.36Z" transform="translate(-181.66 -173.07)"/><path class="cls-1" d="M862.91,666.42a2.72,2.72,0,0,1-1.21,2.72A2.8,2.8,0,0,1,862.91,666.42Z" transform="translate(-181.66 -173.07)"/><path class="cls-1" d="M861.7,669.14a2.8,2.8,0,0,1-1.25,2.86A2.63,2.63,0,0,1,861.7,669.14Z" transform="translate(-181.66 -173.07)"/><path class="cls-1" d="M860.48,671.92a3.12,3.12,0,0,1-1.36,3.05C859,673.7,859.13,672.53,860.48,671.92Z" transform="translate(-181.66 -173.07)"/><path class="cls-1" d="M800.61,763.19a1.63,1.63,0,0,1-1.38,1.49A1.79,1.79,0,0,1,800.61,763.19Z" transform="translate(-181.66 -173.07)"/><path class="cls-1" d="M799.31,764.6a1.67,1.67,0,0,1-1.4,1.49A1.69,1.69,0,0,1,799.31,764.6Z" transform="translate(-181.66 -173.07)"/><path class="cls-1" d="M798,766a1.67,1.67,0,0,1-1.42,1.47A1.63,1.63,0,0,1,798,766Z" transform="translate(-181.66 -173.07)"/><path class="cls-1" d="M796.65,767.38a1.68,1.68,0,0,1-1.42,1.47A1.58,1.58,0,0,1,796.65,767.38Z" transform="translate(-181.66 -173.07)"/><path class="cls-1" d="M795.31,768.77a1.66,1.66,0,0,1-1.44,1.44A1.55,1.55,0,0,1,795.31,768.77Z" transform="translate(-181.66 -173.07)"/><path class="cls-1" d="M794,770.13a1.68,1.68,0,0,1-1.44,1.45A1.56,1.56,0,0,1,794,770.13Z" transform="translate(-181.66 -173.07)"/><path class="cls-1" d="M792.59,771.49a1.69,1.69,0,0,1-1.44,1.45A1.57,1.57,0,0,1,792.59,771.49Z" transform="translate(-181.66 -173.07)"/><path class="cls-1" d="M791.23,772.86a1.68,1.68,0,0,1-1.45,1.44A1.57,1.57,0,0,1,791.23,772.86Z" transform="translate(-181.66 -173.07)"/><path class="cls-1" d="M789.87,774.22a1.68,1.68,0,0,1-1.45,1.44A1.56,1.56,0,0,1,789.87,774.22Z" transform="translate(-181.66 -173.07)"/><path class="cls-1" d="M788.5,775.58A1.67,1.67,0,0,1,787,777,1.57,1.57,0,0,1,788.5,775.58Z" transform="translate(-181.66 -173.07)"/><path class="cls-1" d="M787.12,776.92a1.67,1.67,0,0,1-1.47,1.42A1.64,1.64,0,0,1,787.12,776.92Z" transform="translate(-181.66 -173.07)"/><path class="cls-1" d="M833,722.21a1.45,1.45,0,0,1-1.14,1.6Z" transform="translate(-181.66 -173.07)"/><path class="cls-1" d="M785.74,778.26a1.66,1.66,0,0,1-1.49,1.4A1.69,1.69,0,0,1,785.74,778.26Z" transform="translate(-181.66 -173.07)"/><path class="cls-1" d="M784.33,779.58a1.65,1.65,0,0,1-1.48,1.39A1.77,1.77,0,0,1,784.33,779.58Z" transform="translate(-181.66 -173.07)"/><path class="cls-1" d="M782.92,780.9a1.61,1.61,0,0,1-1.47,1.38A1.86,1.86,0,0,1,782.92,780.9Z" transform="translate(-181.66 -173.07)"/><path class="cls-1" d="M781.51,782.23a1.52,1.52,0,0,1-1.45,1.34Z" transform="translate(-181.66 -173.07)"/><path class="cls-1" d="M780.08,783.56a1.45,1.45,0,0,1-1.42,1.28Z" transform="translate(-181.66 -173.07)"/><path class="cls-1" d="M778.62,784.87a1.33,1.33,0,0,1-1.36,1.23Z" transform="translate(-181.66 -173.07)"/><path class="cls-1" d="M777.15,786.2a1.2,1.2,0,0,1-1.28,1.14Z" transform="translate(-181.66 -173.07)"/><path class="cls-1" d="M775.65,787.52a.94.94,0,0,1-1,1Z" transform="translate(-181.66 -173.07)"/><path class="cls-1" d="M773.71,789.14a2,2,0,0,1-1.7,1.44A1.86,1.86,0,0,1,773.71,789.14Z" transform="translate(-181.66 -173.07)"/><path class="cls-1" d="M772.1,790.5a1.61,1.61,0,0,1-1.54,1.32A1.79,1.79,0,0,1,772.1,790.5Z" transform="translate(-181.66 -173.07)"/><path class="cls-1" d="M770.63,791.77a1.5,1.5,0,0,1-1.49,1.27Z" transform="translate(-181.66 -173.07)"/><path class="cls-1" d="M842.45,707.27a1.33,1.33,0,0,1-1,1.56C841.77,708.31,842.11,707.79,842.45,707.27Z" transform="translate(-181.66 -173.07)"/><path class="cls-1" d="M769.12,793.06a1.33,1.33,0,0,1-1.4,1.18Z" transform="translate(-181.66 -173.07)"/><path class="cls-1" d="M767.57,794.35c-.12.63-.44,1-1.13,1Z" transform="translate(-181.66 -173.07)"/><path class="cls-1" d="M765.53,795.94a2,2,0,0,1-1.74,1.39A2,2,0,0,1,765.53,795.94Z" transform="translate(-181.66 -173.07)"/><path class="cls-1" d="M763.88,797.26a1.54,1.54,0,0,1-1.53,1.26A1.88,1.88,0,0,1,763.88,797.26Z" transform="translate(-181.66 -173.07)"/><path class="cls-1" d="M847.89,697.74a1.33,1.33,0,0,1-1,1.59A1.72,1.72,0,0,1,847.89,697.74Z" transform="translate(-181.66 -173.07)"/><path class="cls-1" d="M762.35,798.52a1.36,1.36,0,0,1-1.44,1.16Z" transform="translate(-181.66 -173.07)"/><path class="cls-1" d="M858.79,676a1.71,1.71,0,0,1-1,1.92A2.2,2.2,0,0,1,858.79,676Z" transform="translate(-181.66 -173.07)"/><path class="cls-1" d="M758.51,801.43a1.57,1.57,0,0,1-1.59,1.23A1.76,1.76,0,0,1,758.51,801.43Z" transform="translate(-181.66 -173.07)"/><path class="cls-1" d="M830.26,726.28a1.42,1.42,0,0,1-1.14,1.56Z" transform="translate(-181.66 -173.07)"/><path class="cls-1" d="M874,727.65a1.44,1.44,0,0,1,1-1.66A1.72,1.72,0,0,1,874,727.65Z" transform="translate(-181.66 -173.07)"/><path class="cls-1" d="M829.18,727.76a2,2,0,0,1-1.31,1.89A2.06,2.06,0,0,1,829.18,727.76Z" transform="translate(-181.66 -173.07)"/><path class="cls-1" d="M310.6,807.67A1.48,1.48,0,0,1,312,809,1.3,1.3,0,0,1,310.6,807.67Z" transform="translate(-181.66 -173.07)"/><path class="cls-1" d="M317.14,813.54a1.18,1.18,0,0,1,1.31,1.19Z" transform="translate(-181.66 -173.07)"/><path class="cls-1" d="M318.53,814.8a1.37,1.37,0,0,1,1.38,1.27A1.7,1.7,0,0,1,318.53,814.8Z" transform="translate(-181.66 -173.07)"/><path class="cls-1" d="M319.91,816.06a1.45,1.45,0,0,1,1.46,1.29A1.72,1.72,0,0,1,319.91,816.06Z" transform="translate(-181.66 -173.07)"/><path class="cls-1" d="M850.76,692.27a1.93,1.93,0,0,1-1.1,2A2.27,2.27,0,0,1,850.76,692.27Z" transform="translate(-181.66 -173.07)"/><path class="cls-1" d="M321.35,817.33a1.48,1.48,0,0,1,1.48,1.26A1.49,1.49,0,0,1,321.35,817.33Z" transform="translate(-181.66 -173.07)"/><path class="cls-1" d="M326.67,821.73a1.19,1.19,0,0,1,1.35,1.16Z" transform="translate(-181.66 -173.07)"/><path class="cls-1" d="M328.07,822.93a1.41,1.41,0,0,1,1.45,1.24A1.73,1.73,0,0,1,328.07,822.93Z" transform="translate(-181.66 -173.07)"/><path class="cls-1" d="M329.5,824.15a1.46,1.46,0,0,1,1.51,1.21A1.48,1.48,0,0,1,329.5,824.15Z" transform="translate(-181.66 -173.07)"/><path class="cls-1" d="M827.4,730.42c.09.81-.35,1.2-1.07,1.38Z" transform="translate(-181.66 -173.07)"/><path class="cls-1" d="M334.88,828.38a1.39,1.39,0,0,1,1.47,1.21A1.69,1.69,0,0,1,334.88,828.38Z" transform="translate(-181.66 -173.07)"/><path class="cls-1" d="M340.31,832.53a1.34,1.34,0,0,1,1.46,1.16A1.59,1.59,0,0,1,340.31,832.53Z" transform="translate(-181.66 -173.07)"/><path class="cls-1" d="M826.34,731.79a1.54,1.54,0,0,1-1.21,1.61A1.88,1.88,0,0,1,826.34,731.79Z" transform="translate(-181.66 -173.07)"/><path class="cls-1" d="M839.93,711.36a1.85,1.85,0,0,1-1.19,1.88A2.15,2.15,0,0,1,839.93,711.36Z" transform="translate(-181.66 -173.07)"/><path class="cls-1" d="M845.62,378.83a1.4,1.4,0,0,1,1,1.66A1.79,1.79,0,0,1,845.62,378.83Z" transform="translate(-181.66 -173.07)"/><path class="cls-1" d="M345.77,836.57a1.36,1.36,0,0,1,1.49,1.15A1.53,1.53,0,0,1,345.77,836.57Z" transform="translate(-181.66 -173.07)"/><path class="cls-1" d="M869.83,734.43a1.47,1.47,0,0,1,1.07-1.65A1.65,1.65,0,0,1,869.83,734.43Z" transform="translate(-181.66 -173.07)"/><path class="cls-1" d="M823.44,735.81a1.4,1.4,0,0,1-1.17,1.49Z" transform="translate(-181.66 -173.07)"/><path class="cls-1" d="M841.63,372a1.48,1.48,0,0,1,1,1.68A1.61,1.61,0,0,1,841.63,372Z" transform="translate(-181.66 -173.07)"/><path class="cls-1" d="M822.3,737.26a1.57,1.57,0,0,1-1.23,1.6A1.81,1.81,0,0,1,822.3,737.26Z" transform="translate(-181.66 -173.07)"/><path class="cls-1" d="M867.19,738.54a1.42,1.42,0,0,1,1.09-1.6A1.8,1.8,0,0,1,867.19,738.54Z" transform="translate(-181.66 -173.07)"/><path class="cls-1" d="M838.32,714.08a1.3,1.3,0,0,1-1,1.49C837.63,715.07,838,714.58,838.32,714.08Z" transform="translate(-181.66 -173.07)"/><path class="cls-1" d="M819.31,741.25a1.35,1.35,0,0,1-1.15,1.43Z" transform="translate(-181.66 -173.07)"/><path class="cls-1" d="M864.49,742.63a1.39,1.39,0,0,1,1.11-1.56A1.72,1.72,0,0,1,864.49,742.63Z" transform="translate(-181.66 -173.07)"/><path class="cls-1" d="M818.16,742.68a1.52,1.52,0,0,1-1.26,1.55A2,2,0,0,1,818.16,742.68Z" transform="translate(-181.66 -173.07)"/><path class="cls-1" d="M817,744.14a1.65,1.65,0,0,1-1.29,1.59A1.65,1.65,0,0,1,817,744.14Z" transform="translate(-181.66 -173.07)"/><path class="cls-1" d="M861.74,746.71a1.42,1.42,0,0,1,1.13-1.56A1.7,1.7,0,0,1,861.74,746.71Z" transform="translate(-181.66 -173.07)"/><path class="cls-1" d="M837.47,365.2a1.44,1.44,0,0,1,1.07,1.63A1.68,1.68,0,0,1,837.47,365.2Z" transform="translate(-181.66 -173.07)"/><path class="cls-1" d="M879.46,718.14a1.43,1.43,0,0,1,1-1.68A1.73,1.73,0,0,1,879.46,718.14Z" transform="translate(-181.66 -173.07)"/><path class="cls-1" d="M834.82,361.06a1.52,1.52,0,0,1,1.08,1.66A1.61,1.61,0,0,1,834.82,361.06Z" transform="translate(-181.66 -173.07)"/><path class="cls-1" d="M849.33,695a1.68,1.68,0,0,1-1.06,1.86A2.13,2.13,0,0,1,849.33,695Z" transform="translate(-181.66 -173.07)"/><path class="cls-1" d="M813.89,748.06a1.36,1.36,0,0,1-1.19,1.4C813.1,749,813.49,748.53,813.89,748.06Z" transform="translate(-181.66 -173.07)"/><path class="cls-1" d="M832.11,357a1.54,1.54,0,0,1,1.1,1.65A1.59,1.59,0,0,1,832.11,357Z" transform="translate(-181.66 -173.07)"/><path class="cls-1" d="M812.69,749.48a1.51,1.51,0,0,1-1.28,1.49C811.83,750.47,812.26,750,812.69,749.48Z" transform="translate(-181.66 -173.07)"/><path class="cls-1" d="M858.94,750.76a1.47,1.47,0,0,1,1.16-1.58A1.74,1.74,0,0,1,858.94,750.76Z" transform="translate(-181.66 -173.07)"/><path class="cls-1" d="M835.71,718.12a1.41,1.41,0,0,1-1.11,1.6Z" transform="translate(-181.66 -173.07)"/><path class="cls-1" d="M347,872a1.84,1.84,0,0,1-1.14,1.93A2.2,2.2,0,0,1,347,872Z" transform="translate(-181.66 -173.07)"/><path class="cls-1" d="M811.46,750.91a1.62,1.62,0,0,1-1.32,1.54A1.8,1.8,0,0,1,811.46,750.91Z" transform="translate(-181.66 -173.07)"/><path class="cls-1" d="M345.51,874.73a1.35,1.35,0,0,1-1,1.6A1.75,1.75,0,0,1,345.51,874.73Z" transform="translate(-181.66 -173.07)"/><path class="cls-1" d="M810.22,752.36a1.67,1.67,0,0,1-1.33,1.55A1.58,1.58,0,0,1,810.22,752.36Z" transform="translate(-181.66 -173.07)"/><path class="cls-1" d="M341.55,881.52a1.81,1.81,0,0,1-1.12,1.91A2.19,2.19,0,0,1,341.55,881.52Z" transform="translate(-181.66 -173.07)"/><path class="cls-1" d="M829.32,352.93a1.49,1.49,0,0,1,1.14,1.61A1.64,1.64,0,0,1,829.32,352.93Z" transform="translate(-181.66 -173.07)"/><path class="cls-1" d="M340,884.26a1.33,1.33,0,0,1-1,1.58C339.37,885.32,339.71,884.79,340,884.26Z" transform="translate(-181.66 -173.07)"/><path class="cls-2" d="M216,386.44l.39-.31-.09-.48a3.82,3.82,0,0,1,1-1.92.65.65,0,0,0,.34-1,5.28,5.28,0,0,1,1-1.77.74.74,0,0,0,.36-1c.58-1,.34-2.29,1.45-3l-.06.1c.57-.9.34-2.19,1.42-2.82l-.06.1c.57-.9.34-2.19,1.43-2.82l-.07.11c.29-.53.61-1.05.95-1.56a.75.75,0,0,0,.39-1,7,7,0,0,1,1-1.71.64.64,0,0,0,.38-.93,4.55,4.55,0,0,1,1.05-1.8.51.51,0,0,0,.35-.8,3.37,3.37,0,0,1,1.1-1.94l0-.07c.89-.64.59-2,1.44-2.61v0c.77-.75.48-2.08,1.5-2.69l-.06.09c.33-.51.66-1,1-1.52a.63.63,0,0,0,.41-.91,4,4,0,0,1,1.12-1.85l0-.07c.91-.62.58-2,1.51-2.58l0,.06a14.45,14.45,0,0,0,1-1.45.68.68,0,0,0,.44-.95,4,4,0,0,1,1.16-1.8l0,0c.88-.64.54-2,1.58-2.57l-.07.09a14.61,14.61,0,0,1,1.07-1.54l.41-.24,0-.47a2.39,2.39,0,0,1,1.27-2l0,.08c.36-.49.71-1,1.05-1.48a.54.54,0,0,0,.43-.8,2.55,2.55,0,0,1,1.26-1.89l0,.06c.37-.47.73-.95,1.06-1.45a.52.52,0,0,0,.44-.77,2.34,2.34,0,0,1,1.29-1.9l0,.07c.28-.59.83-1,1.13-1.54l.08-.14c1-.51.58-2,1.65-2.42l-.08.1a4.35,4.35,0,0,1,1.19-1.59l0,0a3.59,3.59,0,0,0,1-1.29.66.66,0,0,0,.52-.9,2.53,2.53,0,0,1,1.32-1.78l0,.07a13.27,13.27,0,0,1,1.18-1.53l.05-.08c.93-.55.52-2.07,1.75-2.39l-.09.1a2.15,2.15,0,0,1,1.25-1.61l-.05.07a8.09,8.09,0,0,1,1.21-1.52l0-.06a3.52,3.52,0,0,0,1.06-1.27.56.56,0,0,0,.52-.78,2,2,0,0,1,1.42-1.82l-.09.1a3.09,3.09,0,0,1,1.27-1.56l0,0c.35-.54.85-.94,1.21-1.47l.07-.09a3.13,3.13,0,0,0,1.06-1.22q.68-.06.54-.72a1.86,1.86,0,0,1,1.46-1.84l-.1.11a2.17,2.17,0,0,1,1.33-1.56l-.07.08a3.66,3.66,0,0,1,1.31-1.5v0c.37-.52.86-.94,1.25-1.43l.05-.06a5.43,5.43,0,0,0,1.19-1.34l.13-.17a1.88,1.88,0,0,0,1-1.11.58.58,0,0,0,.61-.75,1.78,1.78,0,0,1,1.51-1.78l-.1.1a1.7,1.7,0,0,1,1.39-1.5l-.09.08a2.18,2.18,0,0,1,1.38-1.51l-.08.08a2.93,2.93,0,0,1,1.38-1.48l-.06.06a3.7,3.7,0,0,1,1.38-1.45l0,0a5.37,5.37,0,0,1,1.34-1.43h0a14.57,14.57,0,0,1,1.32-1.4l0,0c.44-.44.88-.89,1.31-1.35l0,0a18.11,18.11,0,0,0,1.3-1.33l.05,0a12.46,12.46,0,0,0,1.3-1.32l.06-.06a10,10,0,0,0,1.3-1.3l.06-.06a10,10,0,0,0,1.3-1.3l.06-.06a10.64,10.64,0,0,0,1.3-1.3l.06-.06a11.58,11.58,0,0,0,1.32-1.3l.05,0a18.15,18.15,0,0,0,1.33-1.3l0,0c.46-.43.91-.87,1.35-1.31l0,0c.46-.44.89-.91,1.39-1.31h0a5.53,5.53,0,0,1,1.43-1.34l0,0a3.61,3.61,0,0,1,1.44-1.38l-.06.06a3,3,0,0,1,1.47-1.39l-.07.07a2.19,2.19,0,0,1,1.51-1.36l-.08.08a1.7,1.7,0,0,1,1.49-1.38l-.1.09a1.8,1.8,0,0,1,1.78-1.5.59.59,0,0,0,.76-.62,1.75,1.75,0,0,0,1.09-1l.19-.15a4.79,4.79,0,0,0,1.33-1.17l.07-.06c.47-.42.94-.84,1.42-1.25h0a3.82,3.82,0,0,1,1.49-1.3l-.07.06a2.2,2.2,0,0,1,1.55-1.32l-.1.09a1.89,1.89,0,0,1,1.82-1.46c.45.09.7-.09.74-.55a2.78,2.78,0,0,0,1.21-1l.11-.08,1.45-1.2h0a3,3,0,0,1,1.53-1.27l-.09.08a2.11,2.11,0,0,1,1.79-1.41.61.61,0,0,0,.83-.54,3,3,0,0,0,1.24-1l.08-.06a11.43,11.43,0,0,1,1.5-1.2l0,0a2.64,2.64,0,0,1,1.71-1.33.78.78,0,0,0,1-.59,2.12,2.12,0,0,0,1.17-1l.13-.08c.53-.34.93-.87,1.5-1.17l-.06,0a2.62,2.62,0,0,1,1.76-1.3.71.71,0,0,0,.93-.54,3.27,3.27,0,0,0,1.27-1l.07,0a4.64,4.64,0,0,1,1.56-1.18l-.08.07c.45-1.05,1.9-.65,2.4-1.64l.17-.09,1.51-1.12-.05,0a2.46,2.46,0,0,1,1.84-1.29.57.57,0,0,0,.83-.44c.5-.33,1-.68,1.44-1l0,0a2.58,2.58,0,0,1,1.85-1.26.57.57,0,0,0,.83-.43c.5-.33,1-.68,1.45-1l0,0a2.46,2.46,0,0,1,1.91-1.26l.49,0,.27-.41c.49-.38,1-.74,1.52-1.07l-.07,0c.54-1,1.92-.66,2.54-1.55l.08,0a4.32,4.32,0,0,1,1.75-1.14.78.78,0,0,0,1-.46,10.11,10.11,0,0,0,1.43-1l0,0c.6-.91,1.94-.57,2.54-1.49l.11-.05a4.7,4.7,0,0,1,1.77-1.11.75.75,0,0,0,1-.43c.51-.32,1-.65,1.49-1l-.06,0c.61-1,1.93-.68,2.64-1.48h0c.66-.82,2-.5,2.57-1.42l.12,0a3.81,3.81,0,0,1,1.85-1.1.61.61,0,0,0,.89-.35,5,5,0,0,1,1.71-1,.78.78,0,0,0,1-.39,10.47,10.47,0,0,1,1.63-1,.88.88,0,0,0,1.09-.4l1.59-1a1,1,0,0,0,1.14-.41c.53-.3,1.05-.62,1.55-1a1,1,0,0,0,1.17-.4c.53-.31,1.06-.63,1.57-.95a1,1,0,0,0,1.15-.39q.79-.49,1.62-1a.88.88,0,0,0,1.1-.37,8.06,8.06,0,0,1,1.68-1,.8.8,0,0,0,1-.34,4.51,4.51,0,0,1,1.81-1,.63.63,0,0,0,.91-.31c.75-.69,2-.37,2.63-1.25l.09,0c.79-.75,2-.52,2.81-1.27l1.29-.36,1.63-.92a.84.84,0,0,0,1.08-.31,3.62,3.62,0,0,1,1.95-1l.46.1.3-.36c.81-.78,2.05-.54,2.9-1.23a1,1,0,0,0,1.2-.3,4.06,4.06,0,0,1,1.9-.94l.48.1.33-.36c.84-.77,2.07-.57,3-1.19a.91.91,0,0,0,1.13-.28c.81-.64,2-.37,2.75-1.16l1.34-.28a4.31,4.31,0,0,1,1.91-.92l2.18-.49c.61-.28,1.08-.83,1.8-.89l2.28-.49c.62-.26,1.09-.8,1.79-.87l2.3-.47a5.14,5.14,0,0,1,1.86-.88l2.22-.44c.85-.53,2-.3,2.74-1.08l1.33-.22c.91-.59,2.07-.48,3-1.06l2.48-.4c.86-.48,2-.27,2.73-1l1.34-.2a18.84,18.84,0,0,1,3.22-1l2.23-.36a20.13,20.13,0,0,1,3.23-1l2.22-.34c1.24-.94,3,0,4.19-1.14l2.62-.29a32.66,32.66,0,0,1,3.2-1l3.61-.4a25.51,25.51,0,0,1,3.34-1l3.46-.36c1.41-.81,3.13-.24,4.54-1l5-.42c1.37-.73,3.05-.11,4.4-1l5.12-.35c1.89-.93,4.09,0,6-1a9.67,9.67,0,0,0,4.63,0c1.29,1,3.06.13,4.35,1.14a.65.65,0,0,0,.94.28,4.67,4.67,0,0,1,1.78,1,.58.58,0,0,0,.85.36,2.41,2.41,0,0,1,1.8,1.32l-.07-.06a4.36,4.36,0,0,1,1.47,1.33l0,0a5.11,5.11,0,0,1,1.35,1.43l0-.05a2.8,2.8,0,0,1,1.31,1.72.71.71,0,0,0,.46,1c.31.52.62,1,.94,1.53l-.06-.11c1.47,1.12.42,3.07,1.43,4.35.08.79.15,1.59.23,2.38a2.11,2.11,0,0,1,0,2.71c-.09.76-.17,1.52-.26,2.28-.45,1-.43,2.19-1.06,3.16a.62.62,0,0,0-.31.93,4.75,4.75,0,0,1-1.07,1.81l-.08.17c-1,.5-.55,2-1.67,2.35l.06-.06a2,2,0,0,1-1.37,1.44l0,0a1.74,1.74,0,0,1-1.48,1.29l.3.25-.28-.27c-.36,1.22-1.78.83-2.44,1.58l-.1.06c-.7.85-1.9.62-2.7,1.26h0c-2,1.79-4.73-.07-6.82,1.33l-.05-.06c-3.39,2.15-7.38-.21-10.84,1.44l0-.06c-2.87,2.1-6.44-.25-9.37,1.49l-.11,0c-2,1.65-4.72-.14-6.8,1.28l0,0c-1.95,1.88-4.71-.11-6.74,1.42h0c-1.56,1.58-3.81.14-5.48,1.23h-.07c-1.45,1.86-3.76.25-5.4,1.33h-.08c-1.38,2-3.76.2-5.33,1.44h-.05c-1.38,1.82-3.78,0-5.27,1.48l-.1,0c-1.11,1.25-2.9.26-4.09,1.22h-.05c-1,1.47-2.85.42-4.09,1.26l-.07,0c-1,1.62-2.81.49-4,1.31l-.08,0c-.91,1.67-2.81.48-4,1.37l-.06,0c-.91,1.63-2.85.4-4,1.44h0c-1,1.48-2.88.26-3.93,1.44l-.11,0c-.75.86-1.87.72-2.82,1.05l-.09.05c-.79,1.74-2.83.39-3.85,1.56l-.05,0c-.72.91-1.87.75-2.81,1.12l-.08.05c-.75,1.7-2.81.32-3.76,1.58l-.15.06c-.73.81-1.91.6-2.72,1.21l0,0c-.67,1-1.87.76-2.76,1.24l-.05,0c-.59,1.13-1.79.89-2.74,1.21l-.09.06c-5.31,2.92-10.81,5.47-16.26,8.12l-.08,0c-.42,1.28-1.73.93-2.59,1.42l0,0c-.51,1.14-1.82.82-2.61,1.44l0,0c-.57,1-1.87.68-2.58,1.42l-.1.06a14.29,14.29,0,0,1-4.19,2.47l0,0c-.47,1.15-1.82.8-2.55,1.5l-.05,0a13.9,13.9,0,0,1-4.15,2.56l0,0c-.47,1.1-1.82.73-2.48,1.52l-.13.08a3,3,0,0,1-1.54,1l.21.32-.23-.32c-.37,1.23-1.77.84-2.46,1.58l-.07.05a2.59,2.59,0,0,1-1.56,1.06l.2.35-.22-.34c-.33,1.26-1.76.86-2.42,1.6l-.09.06a2.76,2.76,0,0,1-1.54,1.09c-.35,1.21-1.78.8-2.4,1.6l-.13.09a4.1,4.1,0,0,1-1.48,1.13h0c-1,1.37-2.62,1.91-3.94,2.83l0,0c-.38.56-.76,1.12-1.54,1.16-.89,1.5-2.57,1.95-3.87,2.9l0,0a2.13,2.13,0,0,1-1.5,1.19c-.9,1.45-2.62,1.84-3.8,2.92l-.12.09a6.84,6.84,0,0,1-1.42,1.21h0a1.93,1.93,0,0,1-1.5,1.23c-.83,1.47-2.61,1.77-3.68,3l-.2.15c-.44.37-.88.76-1.3,1.15l-.09.07a6,6,0,0,1-1.4,1.25h0a2.39,2.39,0,0,1-1.46,1.29l0,0a1.69,1.69,0,0,1-1.46,1.28,1.28,1.28,0,0,1-1.44,1.26l.34.39-.36-.37c-1.2,2-3.3,2.95-4.94,4.44l-.17.14a13.83,13.83,0,0,0-1.24,1.18l-.14.12c-.41.42-.84.83-1.27,1.23l-.1.1a17.07,17.07,0,0,1-1.29,1.26l-.07.06a10.72,10.72,0,0,1-1.31,1.3l-.05.05a9.54,9.54,0,0,1-1.31,1.31l-.05,0a10.13,10.13,0,0,1-1.31,1.31l-.06.05a9,9,0,0,1-1.31,1.31l-.05.06a10.13,10.13,0,0,1-1.31,1.31l-.05.05a10.64,10.64,0,0,1-1.29,1.31l-.07.07c-.4.45-.82.89-1.26,1.3l-.09.09-1.23,1.29-.1.12a33.7,33.7,0,0,1-5.79,6.37,1.35,1.35,0,0,1-1.29,1.46l.27.23-.24-.26a1.79,1.79,0,0,1-1.3,1.49l0,0a2.53,2.53,0,0,1-1.31,1.47l0,0a7.71,7.71,0,0,1-1.25,1.42l-.07.08a14.6,14.6,0,0,0-1.16,1.32l-.13.18c-.92.47-.46,2.05-1.78,2.19.08.89-.46,1.3-1.23,1.52l0-.05a2.28,2.28,0,0,1-1.26,1.53l0,0a8.79,8.79,0,0,1-1.21,1.45l-.07.09c-1.12,1.17-1.51,2.91-2.95,3.84l.05-.06a2.5,2.5,0,0,1-1.23,1.54h0c-1,1.31-1.44,3-2.93,3.92l.05-.05c-.07.77-.65,1.16-1.19,1.57h0c-1,1.33-1.51,2.94-2.85,4l0-.06c-.17.67-.73,1-1.14,1.54l-.06.1c-.86.6-.47,2.05-1.66,2.43l.06-.06c-.05.76-.65,1.14-1.13,1.59l0,.05c-.8.66-.41,2.11-1.65,2.48l.05-.06c0,.79-.61,1.16-1.1,1.62l0,0c-.79.68-.42,2.1-1.61,2.52l.06-.07c-.05.75-.66,1.12-1.09,1.61l0,.08c-.84.65-.49,2-1.56,2.54l0-.07c-.16.65-.74,1-1.06,1.57l-.09.19c-1,.54-.6,1.87-1.46,2.47h0c-.75.74-.43,2.1-1.55,2.62l.06-.08a7.71,7.71,0,0,1-1,1.58l-.41.26,0,.48a2.77,2.77,0,0,1-1.15,2l0,.06c-.82.69-.52,2-1.46,2.63l0,0c-.68.8-.4,2.13-1.49,2.7l0-.06c-.56.87-.27,2.21-1.48,2.72l.06-.08c0,.71-.62,1.09-.95,1.62a.54.54,0,0,0-.36.84,3.58,3.58,0,0,1-1.06,1.89l-.39.28.08.47a3.4,3.4,0,0,1-1.07,2l-.05.12c-.94.61-.58,1.87-1.29,2.59l-.4.27.08.48a3.3,3.3,0,0,1-1,2,.51.51,0,0,0-.31.82c-.44,1.06-.23,2.43-1.47,3.11l0-.09c-.44,1-.26,2.2-1.31,2.87l0-.07c-.56.89-.38,2.11-1.28,2.85v0c-.7.81-.51,2-1.25,2.8l0,.07c-1.37,1,0,3.05-1.62,3.89l.05-.08c-.5.92-.38,2.11-1.21,2.9h0c-.76.75-.53,1.94-1.18,2.74a.66.66,0,0,0-.29,1c-.51,1-.42,2.21-1.21,3.09v0c-1.29,1-.08,3-1.46,4l0-.05c-.67.82-.49,2-1.12,2.81a.78.78,0,0,0-.28,1.08c-.58.92-.45,2.12-1.11,3a.7.7,0,0,0-.26,1c-.54.95-.44,2.14-1.1,3.05a.75.75,0,0,0-.25,1.07c-.56.93-.47,2.09-1.07,3a.92.92,0,0,0-.25,1.2c-1.11,1.21-.08,3.08-1.29,4.27l-.35.29.16.42a13.62,13.62,0,0,1-1,3.36.82.82,0,0,0-.22,1.14c-1.05,1.26-.14,3.06-1.2,4.31a.67.67,0,0,0-.21,1c-.92,1.33-.12,3.12-1.15,4.43a.69.69,0,0,0-.2,1.05c-.93,1.32-.18,3.06-1.09,4.39-.11.67-.22,1.35-.32,2-.68,1.53-.18,3.32-1.09,4.79a.87.87,0,0,0-.16,1.2c-1.33,1.67,0,3.89-1.16,5.6-.09.77-.19,1.54-.29,2.31-1.27,2.26.25,5-1.18,7.23a.69.69,0,0,0-.13,1.08c-1.47,2.66.26,5.77-1.17,8.45a4,4,0,0,0-.23,3.33c-1.32,3.32.23,7-1.1,10.28a11.32,11.32,0,0,0-.26,6.16,257.75,257.75,0,0,0,0,38,7.76,7.76,0,0,0,.22,4.88c1.49,3.71-.29,7.74,1.12,11.46a5,5,0,0,0,.28,3.52c1.2,2.32-.08,5,1.08,7.35a2.3,2.3,0,0,0,.23,2.17c1.4,2.19-.21,4.88,1.2,7.07a.73.73,0,0,0,.14,1.1c1.24,1.82.1,4.1,1.15,6l.32,2.22c.86,1.38.22,3.12,1.05,4.51a.54.54,0,0,0,.18.92c1.39,1.63-.13,3.94,1.29,5.57a1,1,0,0,0,.2,1.25c.94,1.26,0,3,1.15,4.23a.93.93,0,0,0,.21,1.22,15,15,0,0,1,1,3.42l-.15.38.32.26c1.21,1.26.29,3.12,1.26,4.44a.68.68,0,0,0,.23,1,12.33,12.33,0,0,1,1.06,3.4l-.14.41.34.27c1.21,1.14.13,3,1.31,4.16v0c1.28,1.11.21,3,1.36,4.16l0-.06c1.32,1.08.21,3,1.4,4.11v0c1.3,1.06.12,3,1.42,4v0c.77.91.7,2.13,1.19,3.14a.62.62,0,0,0,.28.95c.67.83.48,2,1.16,2.83l0-.07c.92.88.87,2.14,1.27,3.23l-.1.49.38.33c.71.8.49,2,1.21,2.81l0,0c.92.81.76,2.08,1.3,3.06a.68.68,0,0,0,.32,1,3.53,3.53,0,0,1,1,2l-.1.45.37.26c.76.76.5,2,1.27,2.76v0c.84.76.65,2,1.31,2.83l0-.08c1,.72.76,2,1.34,2.86l-.05-.1c1.08.7.84,2,1.43,3a.76.76,0,0,0,.38,1,15.81,15.81,0,0,1,.94,1.59l-.08-.12c1.12.61.89,1.91,1.44,2.82l-.06-.1c1.09.61.85,1.92,1.45,2.79l-.05-.09c1,.62.79,1.94,1.46,2.75l0-.06c.95.65.68,2,1.45,2.72l0,0c.86.67.56,2,1.44,2.63l0,.05a3.56,3.56,0,0,1,1.12,1.92.54.54,0,0,0,.38.83,10.86,10.86,0,0,1,1,1.58l-.07-.11c1.09.56.79,1.92,1.54,2.67v0a2.57,2.57,0,0,1,1.21,2l-.05.46.4.23c.36.53.92.93,1.06,1.6l-.08-.11c1.1.52.78,1.91,1.59,2.61h0a3.09,3.09,0,0,1,1.19,1.87.59.59,0,0,0,.45.86,15.92,15.92,0,0,0,1,1.45l0-.06a2.47,2.47,0,0,1,1.26,1.93v.5l.42.25,1.07,1.49-.05-.07a2.38,2.38,0,0,1,1.3,1.91.51.51,0,0,0,.43.76c.34.5.69,1,1.07,1.45l0-.05a2.68,2.68,0,0,1,1.27,1.83.61.61,0,0,0,.49.86,5,5,0,0,0,1,1.34h0c.47.49,1.05.88,1.2,1.6l-.09-.1c1.1.41.7,1.89,1.69,2.39l.09.14c.36.52.74,1,1.14,1.49l0,0a2.61,2.61,0,0,1,1.23,1.6l-.1-.1c1.17.34.76,1.86,1.74,2.34l.1.15a13.4,13.4,0,0,0,1.16,1.45h0a3.2,3.2,0,0,1,1.25,1.56l-.09-.1a2.11,2.11,0,0,1,1.41,1.8.61.61,0,0,0,.56.82,2.5,2.5,0,0,0,1,1.19l.08.11c.39.5.79,1,1.21,1.45v0a3.66,3.66,0,0,1,1.29,1.52l-.07-.08a2,2,0,0,1,1.32,1.56l-.09-.1c1.17.27.73,1.84,1.78,2.21l.18.23a2.73,2.73,0,0,0,1.13,1.27l.09.13a9.34,9.34,0,0,0,1.22,1.37l0,0a10.3,10.3,0,0,1,1.28,1.44l0,0a3.68,3.68,0,0,1,1.35,1.47l-.07-.07a2.51,2.51,0,0,1,1.37,1.5l-.08-.08a2,2,0,0,1,1.39,1.51l-.09-.09a1.63,1.63,0,0,1,1.4,1.49l-.1-.09a1.76,1.76,0,0,1,1.53,1.7.67.67,0,0,0,.69.82,1.18,1.18,0,0,0,.95,1l.25.26a1.68,1.68,0,0,0,1.11,1.13l.22.24a1.94,1.94,0,0,0,1.13,1.15l.21.22a2.06,2.06,0,0,0,1.15,1.15l.21.21a2,2,0,0,0,1.15,1.15l.21.21a2,2,0,0,0,1.15,1.15l.22.21a1.93,1.93,0,0,0,1.15,1.14l.22.22a1.84,1.84,0,0,0,1.14,1.12l.24.24a1.68,1.68,0,0,0,1.13,1.1l.26.23c.3,1.06,1.94.61,2.08,1.85l-.07-.07a1.45,1.45,0,0,1,1.48,1.38l-.07-.08a1.67,1.67,0,0,1,1.48,1.4l-.08-.08a2,2,0,0,1,1.51,1.36l-.07-.07a2.83,2.83,0,0,1,1.48,1.37l-.06-.06a4.37,4.37,0,0,1,1.47,1.33h0q.72.62,1.41,1.26l.06.05a6.06,6.06,0,0,0,1.34,1.19l.18.13a1.86,1.86,0,0,0,1.11,1,.63.63,0,0,0,.82.61,1.92,1.92,0,0,1,1.76,1.45l-.1-.08a2.31,2.31,0,0,1,1.55,1.31l-.07-.06a5.1,5.1,0,0,1,1.5,1.27l0,0a9.87,9.87,0,0,0,1.4,1.17l.17.12a1.76,1.76,0,0,0,1.11,1,.75.75,0,0,0,.94.62,2.36,2.36,0,0,1,1.73,1.36l-.08-.06a4.77,4.77,0,0,1,1.52,1.23l0,0a5.29,5.29,0,0,0,1.32,1.08.52.52,0,0,0,.75.48,2.05,2.05,0,0,1,1.86,1.39l-.09-.08a3.48,3.48,0,0,1,1.56,1.22h0a6,6,0,0,0,1.35,1.06.55.55,0,0,0,.79.48,2.27,2.27,0,0,1,1.86,1.33l-.08-.05a6.7,6.7,0,0,1,1.54,1.16l.1.06a2.39,2.39,0,0,0,1.21,1,.84.84,0,0,0,1,.57,3.6,3.6,0,0,1,1.7,1.23h0a5.08,5.08,0,0,0,1.34,1,.72.72,0,0,0,.95.5,3.07,3.07,0,0,1,1.77,1.22h0c1.57.94,2.05-.72,3-1.27l-.07.1a8.28,8.28,0,0,1,1-1.59.52.52,0,0,0,.37-.8,3.16,3.16,0,0,1,1.14-1.93v0c.86-.67.55-2,1.49-2.63l0,.07a12.83,12.83,0,0,0,1-1.46.77.77,0,0,0,.45-1,5.1,5.1,0,0,1,1.06-1.72l.41-.28,0-.49a2.94,2.94,0,0,1,1.15-2v0c.83-.69.53-2,1.5-2.64l-.05.08c.35-.48.68-1,1-1.49a.72.72,0,0,0,.43-1,4.81,4.81,0,0,1,1.08-1.75l.4-.25-.06-.47a2.82,2.82,0,0,1,1.17-2h0c.81-.72.51-2,1.5-2.66l-.05.08q.51-.74,1-1.5a.69.69,0,0,0,.43-1,4.93,4.93,0,0,1,1.09-1.81l.05-.11c.95-.59.62-1.91,1.46-2.56h0c.78-.73.49-2.07,1.51-2.67l-.07.1a2.89,2.89,0,0,1,1.44-1.44l-.09.06c.4-.52.77-.52,1.09.07l-.1-.1a2,2,0,0,1,1.42,1.89l-.06.46.4.24a5.09,5.09,0,0,1,1.08,1.74.73.73,0,0,0,.44,1,14.53,14.53,0,0,0,1,1.47l-.05-.07c.95.62.64,1.95,1.5,2.62l0,0a3.32,3.32,0,0,1,1.14,1.91.54.54,0,0,0,.38.82,13.16,13.16,0,0,1,1,1.57l-.07-.1c1.08.56.78,1.92,1.53,2.67v0c.87.64.54,2,1.47,2.58l0,.09a4.5,4.5,0,0,1,1.11,1.82.67.67,0,0,0,.42.94c.33.51.66,1,1,1.51l-.05-.09c1,.61.69,1.95,1.51,2.65h0a3,3,0,0,1,1.16,2l-.05.48.41.28c.34.53.91.92,1,1.61l-.08-.12c1.13.54.83,1.91,1.55,2.68l0,0c.92.63.6,2,1.49,2.6l0,.06a3.64,3.64,0,0,1,1.12,1.88.59.59,0,0,0,.4.87c.36.5.7,1,1,1.54l-.07-.1c1,.58.75,1.93,1.53,2.67v0a2.7,2.7,0,0,1,1.19,2l-.06.45.4.24a4.64,4.64,0,0,1,1.08,1.76.71.71,0,0,0,.44,1,14.53,14.53,0,0,0,1,1.47l-.05-.07c1,.62.65,1.95,1.5,2.63v0a3.13,3.13,0,0,1,1.15,1.93.52.52,0,0,0,.38.8,10.63,10.63,0,0,1,1,1.58l-.08-.11c1.1.56.8,1.92,1.54,2.68l0,0c.89.64.57,2,1.48,2.59l0,.08a4.09,4.09,0,0,1,1.11,1.85.63.63,0,0,0,.42.91l1,1.51-.06-.09c1,.61.7,1.94,1.51,2.66h0a2.8,2.8,0,0,1,1.17,2l-.05.48.41.26a5.66,5.66,0,0,1,1.07,1.72.76.76,0,0,0,.45,1,10.85,10.85,0,0,0,1,1.45l0-.06c.93.62.62,2,1.49,2.61l0,.05a3.48,3.48,0,0,1,1.13,1.9.56.56,0,0,0,.39.84,16.07,16.07,0,0,1,1,1.56l-.07-.11c1.05.58.76,1.93,1.52,2.68v0c.86.65.53,2,1.47,2.57l.05.1a4.82,4.82,0,0,1,1.1,1.81.69.69,0,0,0,.43,1c.32.51.65,1,1,1.49l-.05-.08c1,.61.67,2,1.5,2.64v0a3.07,3.07,0,0,1,1.16,1.94c-.18.41-.06.67.37.79a9.36,9.36,0,0,1,1,1.59l-.08-.11c1.11.55.82,1.91,1.54,2.68l0,0c.9.63.58,2,1.48,2.59l0,.07a4,4,0,0,1,1.12,1.86.61.61,0,0,0,.4.89c.35.51.69,1,1,1.53l-.06-.09c1,.59.72,1.94,1.52,2.66h0c1,1.49.55,2.72-1,3.18a17.09,17.09,0,0,1-4.75.18c-39.25,0-78.5,0-117.75-.13-1.9,0-6.37,2.47-5.54-3.14l-.08.12a11.43,11.43,0,0,1,1-1.58.55.55,0,0,0,.38-.84,3.46,3.46,0,0,1,1.13-1.9l0,0c.88-.65.57-2,1.48-2.62l0,0c.71-.78.42-2.14,1.54-2.69l-.08.12c.12-.67.69-1.06,1-1.6a.52.52,0,0,0,.37-.8,3.16,3.16,0,0,1,1.14-1.93l0,0c.84-.68.54-2,1.48-2.64l0,.07a12,12,0,0,0,1-1.46.76.76,0,0,0,.44-1,5.47,5.47,0,0,1,1.07-1.72l.41-.27,0-.49a3,3,0,0,1,1.15-2v0c.83-.7.53-2,1.5-2.65l-.05.08c.35-.48.68-1,1-1.49a.72.72,0,0,0,.43-1,4.81,4.81,0,0,1,1.08-1.75l.4-.25-.06-.47a2.82,2.82,0,0,1,1.17-2h0c.8-.72.51-2.05,1.5-2.66l0,.09c.34-.5.67-1,1-1.51a6.38,6.38,0,0,0,.43-.87c.05-.15-.07-.34-.11-.51a5.41,5.41,0,0,1-1.31-1.47l0,0a22,22,0,0,1-4.05-2.71l0,0a17.75,17.75,0,0,1-4-2.74l0,0c-1.4-.82-3-1.4-4-2.8h0a3.5,3.5,0,0,1-1.5-1.14l-.09-.07c-1.26-1-2.88-1.5-3.91-2.82h0a4.71,4.71,0,0,1-1.46-1.16l-.13-.09c-1.2-1.06-2.87-1.5-3.85-2.87h0a2.68,2.68,0,0,1-1.47-1.2l-.06,0c-1.24-1-3-1.37-3.79-3a1.66,1.66,0,0,1-1.52-1.21l0,0a3,3,0,0,1-1.45-1.24l-.06-.05c-.45-.37-.9-.76-1.34-1.15l-.19-.14c-1.06-1.2-2.89-1.46-3.65-3a1.7,1.7,0,0,1-1.49-1.25l0,0a2.58,2.58,0,0,1-1.46-1.29h0a6.93,6.93,0,0,1-1.39-1.26l-.08-.07-1.3-1.19-.16-.13c-1.67-1.46-3.75-2.47-5-4.43a1.26,1.26,0,0,1-1.41-1.31,1.41,1.41,0,0,1-1.41-1.33l-.27.28.28-.26a1.65,1.65,0,0,1-1.43-1.33l0,0a2,2,0,0,1-1.43-1.36l0,0a2.16,2.16,0,0,1-1.4-1.38l0,0a2.17,2.17,0,0,1-1.41-1.37l0,0a2.35,2.35,0,0,1-1.38-1.38l0,0a2.38,2.38,0,0,1-1.39-1.39l0,0a2.38,2.38,0,0,1-1.39-1.39l0,0a2.23,2.23,0,0,1-1.37-1.41l0,0a2.26,2.26,0,0,1-1.39-1.41l0,0a2.08,2.08,0,0,1-1.37-1.42l0,0a1.79,1.79,0,0,1-1.36-1.43l0,0a1.53,1.53,0,0,1-1.33-1.44l-.28.31.3-.29a1.31,1.31,0,0,1-1.32-1.42c-2-1.22-2.93-3.33-4.44-5l-.14-.17a16.09,16.09,0,0,0-1.18-1.3l-.07-.09a10.32,10.32,0,0,1-1.26-1.38h0a3.15,3.15,0,0,1-1.29-1.46l0,0a2,2,0,0,1-1.31-1.49l.05,0c-.78-.2-1.31-.61-1.27-1.5l-.31.39.33-.37c-1.3-.16-.84-1.74-1.77-2.2l-.14-.19a14.62,14.62,0,0,0-1.15-1.33l-.06-.07a4.37,4.37,0,0,1-1.24-1.46l0,0a2.08,2.08,0,0,1-1.26-1.53l.05,0c-1.52-.86-1.87-2.63-3-3.8l-.06-.09a4.37,4.37,0,0,1-1.2-1.47l0,0a1.81,1.81,0,0,1-1.22-1.56l.05.05c-1.25-.28-.83-1.79-1.72-2.33l-.09-.14a15,15,0,0,1-1.17-1.46l0,0a2,2,0,0,1-1.2-1.59l.05,0c-1.24-.31-.83-1.8-1.7-2.37l-.06-.11a4.88,4.88,0,0,1-1.16-1.51l0,.05c-1.29-1.1-1.89-2.68-2.83-4h0a2.16,2.16,0,0,1-1.15-1.61l.06.06c-1.26-.35-.87-1.81-1.67-2.46l0,0c-.48-.46-1.08-.83-1.13-1.6l.06.07c-1.19-.41-.82-1.84-1.63-2.49l0-.06c-.47-.47-1.08-.84-1.1-1.62l.06.07c-1.23-.4-.86-1.83-1.63-2.53v0c-.53-.44-1.11-.85-1.07-1.65l.05.06c-1.33-.35-1-1.79-1.63-2.56l0,0c-1-.56-.62-1.92-1.51-2.53l-.06-.11c-.39-.52-1-.89-1-1.64l.06.08c-1.21-.46-.88-1.85-1.58-2.61l0,0c-.94-.6-.61-1.93-1.48-2.58l0-.09c-.41-.51-1.07-.87-1-1.67l.07.08c-1.3-.43-1-1.81-1.54-2.67l0,.06c-1.1-.56-.8-1.9-1.5-2.68l0,0c-.93-.65-.65-1.94-1.44-2.67v0c-.82-.68-.53-1.95-1.39-2.61l0-.08c-.74-.71-.43-2-1.35-2.59l-.05-.12a3.3,3.3,0,0,1-1.07-2l.07-.47-.39-.28a3.23,3.23,0,0,1-1-2l.07-.48-.39-.27a3.23,3.23,0,0,1-1-2l.07-.48-.39-.27c-.71-.73-.36-2-1.28-2.61l0-.1c-.71-.77-.45-2-1.3-2.68l0-.06c-.76-.76-.54-2-1.29-2.75h0c-.85-.75-.66-2-1.29-2.82l0,.06c-1-.77-.84-2.06-1.35-3a.67.67,0,0,0-.32-1c-.64-.77-.35-2-1.21-2.65l0-.06c-.74-.8-.59-2-1.23-2.84l0,.06c-1-.86-.91-2.14-1.3-3.23l.1-.48-.37-.32c-.73-.8-.52-2-1.19-2.83l0,.06c-1.42-1-.17-3-1.5-4v-.05c-.76-.9-.68-2.12-1.19-3.11a.66.66,0,0,0-.27-1c-.67-.84-.51-2-1.12-2.86l0,.07c-1.45-1-.3-3-1.44-4.11l0,.05c-1.35-1.08-.25-3-1.38-4.14l0,.06c-1.34-1.15-.31-3-1.37-4.29a.8.8,0,0,0-.25-1.12c-.61-1-.58-2.13-1.05-3.14a.59.59,0,0,0-.23-.94c-1.09-1.17-.06-3-1.25-4.12v0c-1.19-1.29-.37-3.13-1.24-4.5a.58.58,0,0,0-.21-.93c-1.08-1.28-.22-3.08-1.2-4.38a.72.72,0,0,0-.2-1.07c-1-1.31-.21-3.08-1.15-4.41a.67.67,0,0,0-.19-1c-1-1.4-.35-3.19-1.12-4.63l.19-.46-.35-.35c-1.39-1.74-.07-4.06-1.24-5.85a.58.58,0,0,0-.16-1c-1.29-1.8-.11-4.1-1.18-5.94-.1-.75-.19-1.5-.29-2.24-1.11-1.81,0-4-1.09-5.85-.09-.77-.17-1.55-.26-2.32-1.27-2.25.18-4.92-1.12-7.16-.07-.79-.15-1.58-.22-2.37-1.34-2.79.16-5.94-1.11-8.74a4.69,4.69,0,0,0-.25-3.51c-1.5-4.64.37-9.54-1.12-14.18a27,27,0,0,0-.26-9,78.7,78.7,0,0,1,0-20.4c.34-3.38.93-6.76.23-10.17,1.49-4.23-.32-8.74,1.13-13a5.49,5.49,0,0,0,.25-3.64c1.33-2.75-.19-5.86,1.09-8.62a5,5,0,0,0,.3-3.45c1.16-2.36-.19-5.11,1.15-7.45a.72.72,0,0,0,.14-1.11c1.44-2.17-.24-4.89,1.23-7.06a.66.66,0,0,0,.15-1.05c1.21-1.75-.05-4,1.16-5.75a.85.85,0,0,0,.16-1.18c1.34-1.67-.07-3.95,1.23-5.63a.69.69,0,0,0,.18-1c.94-1.32.19-3.06,1.1-4.39a1,1,0,0,0,.2-1.24c1.12-1.2.22-2.95,1.14-4.2l.2-1.28c1.17-1.17.21-2.94,1.18-4.17a.87.87,0,0,0,.22-1.18c1.09-1.23.14-3,1.23-4.27a.59.59,0,0,0,.22-.94c.46-1,.44-2.17,1-3.14a.9.9,0,0,0,.23-1.19c1.11-1.21.11-3.08,1.32-4.26v0c1.23-1.11.13-3,1.32-4.11l.36-.29-.15-.43c.34-1.14.39-2.37,1.15-3.37l.36-.28-.14-.43a8.61,8.61,0,0,1,1.18-3.36h0c1.26-1.08.08-3,1.44-4.06l0,.06c.68-.82.5-2,1.14-2.82a.72.72,0,0,0,.28-1c.54-1,.43-2.2,1.21-3.07v0c.83-.71.58-1.88,1.16-2.69a.81.81,0,0,0,.32-1.09c.6-.93.45-2.16,1.24-3v0c.84-.7.58-1.89,1.2-2.69a.69.69,0,0,0,.31-1c.54-1,.38-2.25,1.33-3.05l0,.06c.68-.83.5-2,1.28-2.83h0C215.59,388.44,215.31,387.21,216,386.44Z" transform="translate(-181.66 -173.07)"/><path class="cls-1" d="M344.2,841.07a6.44,6.44,0,0,1,4.05,2.71A3.58,3.58,0,0,1,344.2,841.07Z" transform="translate(-181.66 -173.07)"/><path class="cls-1" d="M340.15,838.31a6.46,6.46,0,0,1,4,2.74A3.49,3.49,0,0,1,340.15,838.31Z" transform="translate(-181.66 -173.07)"/><path class="cls-1" d="M336.15,835.49a6.22,6.22,0,0,1,4,2.8C338,838.47,336.6,837.66,336.15,835.49Z" transform="translate(-181.66 -173.07)"/><path class="cls-1" d="M370.21,810c-.92,2.8-.92,2.8-3,1.27Z" transform="translate(-181.66 -173.07)"/><path class="cls-1" d="M390.57,774.56a2.87,2.87,0,0,1-1.51,2.67A2.44,2.44,0,0,1,390.57,774.56Z" transform="translate(-181.66 -173.07)"/><path class="cls-1" d="M389.07,777.22a2.91,2.91,0,0,1-1.46,2.56A2.61,2.61,0,0,1,389.07,777.22Z" transform="translate(-181.66 -173.07)"/><path class="cls-1" d="M398.56,782.6a2.84,2.84,0,0,1-1.5-2.62A2.49,2.49,0,0,1,398.56,782.6Z" transform="translate(-181.66 -173.07)"/><path class="cls-1" d="M385.1,784.08a2.88,2.88,0,0,1-1.5,2.66A2.46,2.46,0,0,1,385.1,784.08Z" transform="translate(-181.66 -173.07)"/><path class="cls-1" d="M402.58,789.51a3,3,0,0,1-1.53-2.67C402.34,787.28,402.6,788.31,402.58,789.51Z" transform="translate(-181.66 -173.07)"/><path class="cls-1" d="M404,792.06a2.83,2.83,0,0,1-1.47-2.58A2.6,2.6,0,0,1,404,792.06Z" transform="translate(-181.66 -173.07)"/><path class="cls-1" d="M379.64,793.6a2.88,2.88,0,0,1-1.5,2.65A2.5,2.5,0,0,1,379.64,793.6Z" transform="translate(-181.66 -173.07)"/><path class="cls-1" d="M408.07,799a2.88,2.88,0,0,1-1.51-2.65A2.47,2.47,0,0,1,408.07,799Z" transform="translate(-181.66 -173.07)"/><path class="cls-1" d="M374.17,803.12a2.82,2.82,0,0,1-1.49,2.63A2.53,2.53,0,0,1,374.17,803.12Z" transform="translate(-181.66 -173.07)"/><path class="cls-1" d="M412.09,805.88a3,3,0,0,1-1.55-2.68C411.92,803.6,412.13,804.67,412.09,805.88Z" transform="translate(-181.66 -173.07)"/><path class="cls-1" d="M413.55,808.44a2.83,2.83,0,0,1-1.49-2.6A2.53,2.53,0,0,1,413.55,808.44Z" transform="translate(-181.66 -173.07)"/><path class="cls-1" d="M417.58,815.36a2.92,2.92,0,0,1-1.53-2.67C417.32,813.15,417.59,814.17,417.58,815.36Z" transform="translate(-181.66 -173.07)"/><path class="cls-1" d="M423.06,824.82a2.84,2.84,0,0,1-1.5-2.63A2.51,2.51,0,0,1,423.06,824.82Z" transform="translate(-181.66 -173.07)"/><path class="cls-1" d="M427.08,831.73a3,3,0,0,1-1.54-2.68C426.85,829.49,427.11,830.53,427.08,831.73Z" transform="translate(-181.66 -173.07)"/><path class="cls-1" d="M428.54,834.28a2.86,2.86,0,0,1-1.48-2.59A2.56,2.56,0,0,1,428.54,834.28Z" transform="translate(-181.66 -173.07)"/><path class="cls-1" d="M432.57,841.2a2.86,2.86,0,0,1-1.51-2.66A2.46,2.46,0,0,1,432.57,841.2Z" transform="translate(-181.66 -173.07)"/><path class="cls-1" d="M348.34,848.07a2.85,2.85,0,0,1-1.5,2.66A2.47,2.47,0,0,1,348.34,848.07Z" transform="translate(-181.66 -173.07)"/><path class="cls-1" d="M438.05,850.66a2.83,2.83,0,0,1-1.49-2.61A2.52,2.52,0,0,1,438.05,850.66Z" transform="translate(-181.66 -173.07)"/><path class="cls-1" d="M442.07,857.58a2.94,2.94,0,0,1-1.52-2.68C441.83,855.36,442.09,856.39,442.07,857.58Z" transform="translate(-181.66 -173.07)"/><path class="cls-1" d="M342.88,857.59a2.86,2.86,0,0,1-1.5,2.65A2.5,2.5,0,0,1,342.88,857.59Z" transform="translate(-181.66 -173.07)"/><path class="cls-1" d="M443.53,860.12a2.85,2.85,0,0,1-1.47-2.57A2.59,2.59,0,0,1,443.53,860.12Z" transform="translate(-181.66 -173.07)"/><path class="cls-1" d="M447.56,867a2.88,2.88,0,0,1-1.5-2.64A2.48,2.48,0,0,1,447.56,867Z" transform="translate(-181.66 -173.07)"/><path class="cls-1" d="M451.58,874a3,3,0,0,1-1.54-2.68C451.4,871.67,451.62,872.74,451.58,874Z" transform="translate(-181.66 -173.07)"/><path class="cls-1" d="M453,876.5a2.84,2.84,0,0,1-1.48-2.59A2.52,2.52,0,0,1,453,876.5Z" transform="translate(-181.66 -173.07)"/><path class="cls-1" d="M457.07,883.42a2.92,2.92,0,0,1-1.52-2.66C456.8,881.22,457.07,882.24,457.07,883.42Z" transform="translate(-181.66 -173.07)"/><path class="cls-1" d="M392.94,773.35a4.44,4.44,0,0,1-1.09-.07l.6-.78Z" transform="translate(-181.66 -173.07)"/><path class="cls-1" d="M391.94,773.22l-1.44,1.44A1.81,1.81,0,0,1,391.94,773.22Z" transform="translate(-181.66 -173.07)"/><path class="cls-1" d="M394.26,775.14a2.44,2.44,0,0,1-1.42-1.89A2,2,0,0,1,394.26,775.14Z" transform="translate(-181.66 -173.07)"/><path class="cls-1" d="M395.68,777.58a1.56,1.56,0,0,1-1.08-1.74Z" transform="translate(-181.66 -173.07)"/><path class="cls-1" d="M397.11,780.05a1.21,1.21,0,0,1-1-1.47Z" transform="translate(-181.66 -173.07)"/><path class="cls-1" d="M387.56,779.89a1.65,1.65,0,0,1-1.09,1.81Z" transform="translate(-181.66 -173.07)"/><path class="cls-1" d="M386,782.66a1.21,1.21,0,0,1-1,1.5Z" transform="translate(-181.66 -173.07)"/><path class="cls-1" d="M399.72,784.55a1.82,1.82,0,0,1-1.14-1.91A2.21,2.21,0,0,1,399.72,784.55Z" transform="translate(-181.66 -173.07)"/><path class="cls-1" d="M401.12,786.94a1.33,1.33,0,0,1-1-1.57Z" transform="translate(-181.66 -173.07)"/><path class="cls-1" d="M383.6,786.74a2,2,0,0,1-1.17,2A2.25,2.25,0,0,1,383.6,786.74Z" transform="translate(-181.66 -173.07)"/><path class="cls-1" d="M338.46,789.74a2.1,2.1,0,0,1-1.76-1.45A1.91,1.91,0,0,1,338.46,789.74Z" transform="translate(-181.66 -173.07)"/><path class="cls-1" d="M339.91,791a1.62,1.62,0,0,1-1.55-1.31A1.75,1.75,0,0,1,339.91,791Z" transform="translate(-181.66 -173.07)"/><path class="cls-1" d="M382.09,789.46a1.59,1.59,0,0,1-1.08,1.75Z" transform="translate(-181.66 -173.07)"/><path class="cls-1" d="M341.34,792.18a1.49,1.49,0,0,1-1.5-1.27Z" transform="translate(-181.66 -173.07)"/><path class="cls-1" d="M342.76,793.37a1.33,1.33,0,0,1-1.4-1.17Z" transform="translate(-181.66 -173.07)"/><path class="cls-1" d="M380.58,792.19a1.22,1.22,0,0,1-1,1.49Z" transform="translate(-181.66 -173.07)"/><path class="cls-1" d="M405.19,794a1.68,1.68,0,0,1-1.11-1.82A2.16,2.16,0,0,1,405.19,794Z" transform="translate(-181.66 -173.07)"/><path class="cls-1" d="M344,794.46a1,1,0,0,1-1.11-1Z" transform="translate(-181.66 -173.07)"/><path class="cls-1" d="M346.71,796.44a1.93,1.93,0,0,1-1.73-1.36A2,2,0,0,1,346.71,796.44Z" transform="translate(-181.66 -173.07)"/><path class="cls-1" d="M406.61,796.42a1.23,1.23,0,0,1-1-1.51C406,795.41,406.28,795.92,406.61,796.42Z" transform="translate(-181.66 -173.07)"/><path class="cls-1" d="M348.15,797.61a1.49,1.49,0,0,1-1.52-1.23Z" transform="translate(-181.66 -173.07)"/><path class="cls-1" d="M378.13,796.27a1.87,1.87,0,0,1-1.15,2A2.19,2.19,0,0,1,378.13,796.27Z" transform="translate(-181.66 -173.07)"/><path class="cls-1" d="M349.51,798.71c-.8.08-1.16-.37-1.32-1.08Z" transform="translate(-181.66 -173.07)"/><path class="cls-1" d="M352.12,800.58a2.15,2.15,0,0,1-1.86-1.39A2,2,0,0,1,352.12,800.58Z" transform="translate(-181.66 -173.07)"/><path class="cls-1" d="M376.62,799a1.55,1.55,0,0,1-1.06,1.72C375.91,800.13,376.27,799.56,376.62,799Z" transform="translate(-181.66 -173.07)"/><path class="cls-1" d="M409.24,801a1.9,1.9,0,0,1-1.16-2A2.21,2.21,0,0,1,409.24,801Z" transform="translate(-181.66 -173.07)"/><path class="cls-1" d="M353.59,801.72A1.51,1.51,0,0,1,352,800.5,1.89,1.89,0,0,1,353.59,801.72Z" transform="translate(-181.66 -173.07)"/><path class="cls-1" d="M745.85,800.41a1.38,1.38,0,0,1-1.48,1.17Z" transform="translate(-181.66 -173.07)"/><path class="cls-1" d="M355,802.79c-.81.1-1.18-.36-1.35-1.06Z" transform="translate(-181.66 -173.07)"/><path class="cls-1" d="M375.11,801.73a1.21,1.21,0,0,1-1,1.46Z" transform="translate(-181.66 -173.07)"/><path class="cls-1" d="M410.62,803.32a1.36,1.36,0,0,1-1-1.61A1.75,1.75,0,0,1,410.62,803.32Z" transform="translate(-181.66 -173.07)"/><path class="cls-1" d="M357.61,804.6a2,2,0,0,1-1.86-1.33A2,2,0,0,1,357.61,804.6Z" transform="translate(-181.66 -173.07)"/><path class="cls-1" d="M360.38,806.73c-.71.08-1.05-.33-1.21-1Z" transform="translate(-181.66 -173.07)"/><path class="cls-1" d="M372.67,805.79a1.87,1.87,0,0,1-1.14,1.93A2.18,2.18,0,0,1,372.67,805.79Z" transform="translate(-181.66 -173.07)"/><path class="cls-1" d="M363.12,808.53a1.67,1.67,0,0,1-1.7-1.23A2,2,0,0,1,363.12,808.53Z" transform="translate(-181.66 -173.07)"/><path class="cls-1" d="M364.48,809.55c-.79.12-1.15-.34-1.34-1Z" transform="translate(-181.66 -173.07)"/><path class="cls-1" d="M371.16,808.52a1.35,1.35,0,0,1-1,1.59A1.73,1.73,0,0,1,371.16,808.52Z" transform="translate(-181.66 -173.07)"/><path class="cls-1" d="M414.7,810.38a1.78,1.78,0,0,1-1.12-1.88A2.18,2.18,0,0,1,414.7,810.38Z" transform="translate(-181.66 -173.07)"/><path class="cls-1" d="M367.2,811.27a1.74,1.74,0,0,1-1.77-1.22A2,2,0,0,1,367.2,811.27Z" transform="translate(-181.66 -173.07)"/><path class="cls-1" d="M416.12,812.79a1.33,1.33,0,0,1-1-1.54Z" transform="translate(-181.66 -173.07)"/><path class="cls-1" d="M418.76,817.36a2,2,0,0,1-1.19-2A2.26,2.26,0,0,1,418.76,817.36Z" transform="translate(-181.66 -173.07)"/><path class="cls-1" d="M420.18,819.81a1.59,1.59,0,0,1-1.08-1.76Z" transform="translate(-181.66 -173.07)"/><path class="cls-1" d="M421.61,822.26a1.2,1.2,0,0,1-1-1.47Z" transform="translate(-181.66 -173.07)"/><path class="cls-1" d="M424.22,826.78a1.86,1.86,0,0,1-1.15-1.93A2.19,2.19,0,0,1,424.22,826.78Z" transform="translate(-181.66 -173.07)"/><path class="cls-1" d="M425.62,829.16a1.35,1.35,0,0,1-1-1.58A1.76,1.76,0,0,1,425.62,829.16Z" transform="translate(-181.66 -173.07)"/><path class="cls-1" d="M429.69,836.21a1.72,1.72,0,0,1-1.11-1.85A2.21,2.21,0,0,1,429.69,836.21Z" transform="translate(-181.66 -173.07)"/><path class="cls-1" d="M431.12,838.63a1.3,1.3,0,0,1-1-1.51Z" transform="translate(-181.66 -173.07)"/><path class="cls-1" d="M433.74,843.18a1.94,1.94,0,0,1-1.17-2A2.22,2.22,0,0,1,433.74,843.18Z" transform="translate(-181.66 -173.07)"/><path class="cls-1" d="M348.29,843.8c.82.15,1.69.25,1.31,1.47Z" transform="translate(-181.66 -173.07)"/><path class="cls-1" d="M435.17,845.64a1.54,1.54,0,0,1-1.07-1.72Z" transform="translate(-181.66 -173.07)"/><path class="cls-1" d="M349.28,846.65a1.22,1.22,0,0,1-1,1.51Z" transform="translate(-181.66 -173.07)"/><path class="cls-1" d="M436.6,848.11a1.2,1.2,0,0,1-1-1.45Z" transform="translate(-181.66 -173.07)"/><path class="cls-1" d="M346.84,850.73a1.94,1.94,0,0,1-1.17,2A2.25,2.25,0,0,1,346.84,850.73Z" transform="translate(-181.66 -173.07)"/><path class="cls-1" d="M439.21,852.61a1.79,1.79,0,0,1-1.13-1.9A2.2,2.2,0,0,1,439.21,852.61Z" transform="translate(-181.66 -173.07)"/><path class="cls-1" d="M345.33,853.45a1.57,1.57,0,0,1-1.08,1.75Z" transform="translate(-181.66 -173.07)"/><path class="cls-1" d="M440.62,855a1.33,1.33,0,0,1-1-1.56Z" transform="translate(-181.66 -173.07)"/><path class="cls-1" d="M343.82,856.18a1.21,1.21,0,0,1-1,1.49Z" transform="translate(-181.66 -173.07)"/><path class="cls-1" d="M341.37,860.26a1.9,1.9,0,0,1-1.15,2A2.22,2.22,0,0,1,341.37,860.26Z" transform="translate(-181.66 -173.07)"/><path class="cls-1" d="M444.68,862a1.65,1.65,0,0,1-1.1-1.81A2.19,2.19,0,0,1,444.68,862Z" transform="translate(-181.66 -173.07)"/><path class="cls-1" d="M339.86,863a1.54,1.54,0,0,1-1.07,1.72Z" transform="translate(-181.66 -173.07)"/><path class="cls-1" d="M446.11,864.48a1.22,1.22,0,0,1-1-1.49Z" transform="translate(-181.66 -173.07)"/><path class="cls-1" d="M338.35,865.72a1.2,1.2,0,0,1-1,1.46C337.7,866.69,338,866.2,338.35,865.72Z" transform="translate(-181.66 -173.07)"/><path class="cls-1" d="M448.73,869a1.87,1.87,0,0,1-1.16-1.94A2.22,2.22,0,0,1,448.73,869Z" transform="translate(-181.66 -173.07)"/><path class="cls-1" d="M450.12,871.38a1.35,1.35,0,0,1-1-1.59A1.76,1.76,0,0,1,450.12,871.38Z" transform="translate(-181.66 -173.07)"/><path class="cls-1" d="M454.2,878.43a1.73,1.73,0,0,1-1.12-1.86A2.2,2.2,0,0,1,454.2,878.43Z" transform="translate(-181.66 -173.07)"/><path class="cls-1" d="M455.61,880.85a1.31,1.31,0,0,1-1-1.53C454.94,879.83,455.28,880.34,455.61,880.85Z" transform="translate(-181.66 -173.07)"/><path class="cls-1" d="M844,704.54a1.86,1.86,0,0,1-1.15,1.93A2.19,2.19,0,0,1,844,704.54Z" transform="translate(-181.66 -173.07)"/><path class="cls-1" d="M807,756.21a1.19,1.19,0,0,1-1.15,1.28C806.23,757.07,806.61,756.64,807,756.21Z" transform="translate(-181.66 -173.07)"/><path class="cls-1" d="M805.75,757.61a1.34,1.34,0,0,1-1.23,1.35Z" transform="translate(-181.66 -173.07)"/><path class="cls-1" d="M804.49,759a1.48,1.48,0,0,1-1.29,1.42Z" transform="translate(-181.66 -173.07)"/><path class="cls-1" d="M803.21,760.4a1.51,1.51,0,0,1-1.34,1.45Z" transform="translate(-181.66 -173.07)"/><path class="cls-1" d="M801.92,761.79a1.59,1.59,0,0,1-1.38,1.47A1.9,1.9,0,0,1,801.92,761.79Z" transform="translate(-181.66 -173.07)"/><path class="cls-3" d="M600.48,862.25l2.39-.31c1.24-.93,3,0,4.18-1.13l2.63-.32c.91-.5,2-.38,2.9-1l2.55-.35c.89-.5,2-.36,2.84-1a1,1,0,0,0,1.23-.2,13.86,13.86,0,0,1,3.31-1l2.14-.39c.89-.57,2-.42,2.89-1.07a.94.94,0,0,0,1.19-.22c.92-.66,2.1-.57,3.07-1.08l2.4-.47c.61-.25,1.08-.79,1.77-.87l2.31-.49c.6-.25,1.06-.77,1.73-.88a.66.66,0,0,0,1-.26c.88-.71,2.09-.57,3-1.13a.78.78,0,0,0,1.06-.27c.83-.68,2-.45,2.85-1.16a1,1,0,0,0,1.24-.28,3.82,3.82,0,0,1,2-.95l.44.13.29-.36c.83-.8,2.07-.6,3-1.21a.87.87,0,0,0,1.11-.3,3.42,3.42,0,0,1,2-1l.43.13.26-.36c.8-.81,2.05-.55,2.9-1.25a1,1,0,0,0,1.21-.34,6.11,6.11,0,0,1,1.74-.94.69.69,0,0,0,1-.31,3.41,3.41,0,0,1,2-1l.44.11.28-.37c.75-.77,2-.48,2.72-1.28h0c.75-.83,2-.59,2.81-1.32l1.28-.41a10.44,10.44,0,0,0,1.5-.93,1.06,1.06,0,0,0,1.22-.4c.52-.29,1-.61,1.54-.95a1,1,0,0,0,1.18-.4c.52-.3,1-.62,1.53-1a1,1,0,0,0,1.2-.44,8.27,8.27,0,0,0,1.48-.95l1.25-.45a4.71,4.71,0,0,0,1.37-.92h0c.67-.87,2-.58,2.65-1.41l0,0a2.91,2.91,0,0,1,2-1.15l.46.08.26-.39a4.14,4.14,0,0,1,1.78-1.08.7.7,0,0,0,1-.4c.51-.36,1-.7,1.58-1a1,1,0,0,0,1.16-.5,3.64,3.64,0,0,0,1.33-.93l0,0a2.89,2.89,0,0,1,1.93-1.18.5.5,0,0,0,.78-.36,10.73,10.73,0,0,1,1.54-1.05l-.08.06c.54-1.06,1.91-.72,2.58-1.56l.05,0a3.41,3.41,0,0,1,1.79-1.18.69.69,0,0,0,.94-.44,11.94,11.94,0,0,0,1.42-1l0,0a2.52,2.52,0,0,1,1.89-1.24.53.53,0,0,0,.79-.42c.5-.34,1-.7,1.47-1.06l-.06,0a2.49,2.49,0,0,1,1.9-1.29.52.52,0,0,0,.78-.42c.49-.34,1-.69,1.44-1.07l0,0a2.7,2.7,0,0,1,1.8-1.28.64.64,0,0,0,.89-.49,5.17,5.17,0,0,0,1.34-1l0,0a3.19,3.19,0,0,1,1.59-1.19l-.09.08c.41-1.11,1.87-.71,2.39-1.67l.15-.09c.5-.38,1-.77,1.48-1.16l0,0a2.88,2.88,0,0,1,1.71-1.29.81.81,0,0,0,1-.62,1.78,1.78,0,0,0,1.12-.94l.16-.11c.5-.37,1-.76,1.47-1.16l0,0a3.05,3.05,0,0,1,1.56-1.27l-.1.09a2,2,0,0,1,1.86-1.42c.44.11.69-.06.74-.52a3.43,3.43,0,0,0,1.25-1l.08-.06a17,17,0,0,1,1.46-1.23l0,0a3,3,0,0,1,1.53-1.3l-.09.08a2.15,2.15,0,0,1,1.71-1.42.72.72,0,0,0,.92-.64,1.51,1.51,0,0,0,1.06-1l.21-.16a4.46,4.46,0,0,0,1.32-1.16l.08-.07,1.41-1.25h0a4.89,4.89,0,0,1,1.47-1.32l-.06.06a2.81,2.81,0,0,1,1.5-1.36l-.08.07a2,2,0,0,1,1.51-1.37l-.08.09a1.63,1.63,0,0,1,1.5-1.39l-.11.1A1.78,1.78,0,0,1,756,782a.6.6,0,0,0,.74-.66,1.35,1.35,0,0,0,1-1l.24-.23a2,2,0,0,0,1.16-1.12l.21-.19a2.66,2.66,0,0,0,1.21-1.16l.16-.16A3.37,3.37,0,0,0,762,776.3l.14-.12a4.44,4.44,0,0,0,1.25-1.23l.12-.12a4.61,4.61,0,0,0,1.24-1.25l.12-.11a4.79,4.79,0,0,0,1.25-1.25l.11-.11a5,5,0,0,0,1.25-1.25l.11-.11a4,4,0,0,0,1.21-1.26l.14-.16a2.79,2.79,0,0,0,1.16-1.22l.18-.19a2.19,2.19,0,0,0,1.14-1.18l.19-.21c1.43-.84,1.54-2.88,3.2-3.51l-.08.08a1.53,1.53,0,0,1,1.38-1.52l-.09.09a1.81,1.81,0,0,1,1.39-1.5l-.09.09a2.46,2.46,0,0,1,1.36-1.53l-.07.08a3.71,3.71,0,0,1,1.34-1.49l0,0a14.48,14.48,0,0,1,1.27-1.45l0,0a6.77,6.77,0,0,0,1.2-1.36l.11-.15a1.94,1.94,0,0,0,1-1.13.6.6,0,0,0,.6-.79,2,2,0,0,1,1.46-1.81l-.1.12a2.46,2.46,0,0,1,1.32-1.57l-.06.07a5.89,5.89,0,0,1,1.27-1.5v0a6.5,6.5,0,0,0,1.16-1.4l.12-.16c1-.45.57-2,1.76-2.31l-.1.11a2.31,2.31,0,0,1,1.28-1.6l-.06.08a8.56,8.56,0,0,1,1.22-1.52l0-.07a3.18,3.18,0,0,0,1-1.26.6.6,0,0,0,.53-.83,2.32,2.32,0,0,1,1.35-1.83l-.07.09a6,6,0,0,1,1.2-1.55l0-.05c.89-.59.49-2.1,1.74-2.43l-.09.1c.05-.8.62-1.22,1.2-1.64l0,0c.39-.49.77-1,1.13-1.51l.09-.16c1-.5.6-1.94,1.64-2.42l-.08.1c.21-.65.78-1,1.15-1.58l.05-.09c.92-.58.55-2,1.63-2.49l-.07.08a3,3,0,0,0,0-3.1l-.06,0c-.8-.58-2.16-.21-2.56-1.49l-.06,0a10.54,10.54,0,0,1-4.23-2.42l-.06,0c-.73-.71-2.05-.38-2.58-1.46l0,0c-.81-.55-2.17-.18-2.55-1.48l-.07-.05a9.84,9.84,0,0,1-4.24-2.42l0,0c-.74-.7-2.07-.37-2.58-1.48l0,0c-.83-.52-2.19-.14-2.54-1.48l-.09-.06a8.92,8.92,0,0,1-4.24-2.4l0,0c-.76-.68-2.09-.35-2.59-1.48l0,0a17,17,0,0,1-4.18-2.45l-.14-.08c-.67-.79-2-.46-2.55-1.42h0c-1.35-1-3.32-1.87-.88-3.76a.51.51,0,0,0,.8-.35,6.89,6.89,0,0,1,1.66-1.06.87.87,0,0,0,1.08-.46,7.21,7.21,0,0,0,1.41-1h0c.63-.88,1.95-.55,2.57-1.46l.11,0a4,4,0,0,1,1.8-1.12.68.68,0,0,0,.94-.4c.52-.36,1-.7,1.58-1a1,1,0,0,0,1.17-.5,3.49,3.49,0,0,0,1.32-.93h0a2.79,2.79,0,0,1,2-1.18l.47.06.26-.39a5,5,0,0,1,1.7-1.09.8.8,0,0,0,1-.44,12.6,12.6,0,0,0,1.44-1l-.05,0c.62-.93,2-.61,2.6-1.48l.08,0a3.37,3.37,0,0,1,1.85-1.14.6.6,0,0,0,.88-.38,9.17,9.17,0,0,1,1.62-1.05.93.93,0,0,0,1.12-.48,5,5,0,0,0,1.37-.95h0c.64-.86,2-.52,2.55-1.45l.13,0a4.55,4.55,0,0,1,1.77-1.11.72.72,0,0,0,1-.42c.5-.32,1-.65,1.49-1l-.07,0c.6-1,1.93-.68,2.63-1.5l0,0a2.94,2.94,0,0,1,1.91-1.16.51.51,0,0,0,.8-.36,6.07,6.07,0,0,1,1.67-1.06.86.86,0,0,0,1.07-.46,7.21,7.21,0,0,0,1.41-1l0,0c.62-.9,1.94-.58,2.57-1.47l.1,0a3.73,3.73,0,0,1,1.81-1.12.67.67,0,0,0,.93-.4c.51-.37,1-.71,1.58-1a1,1,0,0,0,1.16-.49,3.92,3.92,0,0,0,1.34-.94h0a2.69,2.69,0,0,1,2-1.18l.46.06.25-.39a5,5,0,0,1,1.72-1.09.78.78,0,0,0,1-.43,14.4,14.4,0,0,0,1.46-1l-.05,0c.61-.94,1.94-.63,2.6-1.48l.07,0a3.25,3.25,0,0,1,1.86-1.14.58.58,0,0,0,.86-.38,8,8,0,0,1,1.64-1.05.9.9,0,0,0,1.1-.47,5.75,5.75,0,0,0,1.39-1h0c.63-.88,2-.54,2.55-1.46l.12,0a4.36,4.36,0,0,1,1.78-1.11.71.71,0,0,0,1-.41l1.5-1-.08,0c.6-1,1.93-.69,2.63-1.5l0,0a2.93,2.93,0,0,1,1.94-1.16l.49,0,.29-.4a5.43,5.43,0,0,1,1.68-1.08.81.81,0,0,0,1.05-.44,8.82,8.82,0,0,0,1.43-1l0,0c.62-.91,1.94-.59,2.58-1.47l.09,0a3.62,3.62,0,0,1,1.83-1.13.62.62,0,0,0,.9-.39,12.89,12.89,0,0,1,1.6-1,1,1,0,0,0,1.15-.49,4.37,4.37,0,0,0,1.35-.94h0c.63-.85,2-.5,2.52-1.45l.15-.06a5.24,5.24,0,0,1,1.75-1.1.77.77,0,0,0,1-.42c.5-.32,1-.65,1.47-1l-.06,0c.61-1,1.94-.64,2.61-1.48l.06,0a3.21,3.21,0,0,1,2-1.14l-.12-.16c3,1.68,1.38,4.48,1.39,6.67.13,29.11.07,58.23.11,87.34,0,2.46-.45,5,.56,7.36-.94,2.61-.49,5.31-.44,8,.13,6.45-.58,12.93.4,19.36-.4,1.15-.54,2.64-2.42,1.79h0c-.8-.6-2.15-.24-2.56-1.49l-.06,0a11.45,11.45,0,0,1-4.22-2.43l-.07,0c-.73-.73-2-.41-2.59-1.45l0,0c-.8-.58-2.16-.21-2.55-1.49l-.07,0a10.54,10.54,0,0,1-4.23-2.42l0,0c-.74-.71-2.06-.38-2.59-1.46l0,0c-.82-.55-2.18-.17-2.56-1.48l-.06-.05a9.62,9.62,0,0,1-4.25-2.42l0,0c-.75-.69-2.08-.37-2.59-1.48l0,0c-.83-.52-2.2-.12-2.53-1.48l-.1-.08a8.46,8.46,0,0,1-4.24-2.39h0c-.76-.67-2.08-.35-2.59-1.47l0,0a1.7,1.7,0,0,0-1.65.12l0,0a17.91,17.91,0,0,1-1.13,1.47l-.08.14c-.92.57-.55,2-1.59,2.46l0-.07c-.19.65-.75,1-1.11,1.55l-.08.14c-.91.56-.53,2-1.62,2.43l.06-.07c-.15.7-.71,1.08-1.15,1.56l-.05.09c-.85.61-.45,2.08-1.68,2.42l.06-.06a2.18,2.18,0,0,1-1.17,1.59h0c-1,1.33-1.49,3-2.88,4l0-.06a2.94,2.94,0,0,1-1.19,1.54l0,0c-1,1.26-1.49,2.94-2.92,3.91l.06-.06a2.62,2.62,0,0,1-1.23,1.54l0,0c-1,1.27-1.38,3-3,3.83l.28.25-.23-.29a1.72,1.72,0,0,1-1.25,1.56l0-.05a3.08,3.08,0,0,1-1.25,1.49l0,0a23.12,23.12,0,0,1-4.32,5.23l0,0A1.89,1.89,0,0,1,811,778.9l0,0a3,3,0,0,1-1.29,1.47h0a10.32,10.32,0,0,1-1.26,1.38l-.07.09c-1.39,1.75-2.43,3.82-4.43,5,0,.92-.45,1.34-1.3,1.44l.3.29-.28-.32a1.51,1.51,0,0,1-1.33,1.46l0,0a1.85,1.85,0,0,1-1.35,1.46l0,0a2.24,2.24,0,0,1-1.37,1.43l0,0a2.43,2.43,0,0,1-1.37,1.42l0,0a2.89,2.89,0,0,1-1.36,1.42l0,0a3.43,3.43,0,0,1-1.36,1.39h0a3.93,3.93,0,0,1-1.34,1.38v0a6.55,6.55,0,0,1-1.34,1.34l0,0a6.59,6.59,0,0,1-1.34,1.35h0a4.46,4.46,0,0,1-1.36,1.34h0a3.7,3.7,0,0,1-1.39,1.33h0a3.07,3.07,0,0,1-1.39,1.37l0,0a2.66,2.66,0,0,1-1.41,1.35l0,0a2.24,2.24,0,0,1-1.41,1.36l0,0a2,2,0,0,1-1.44,1.35l0,0a1.67,1.67,0,0,1-1.45,1.33l.29.26-.27-.28a1.39,1.39,0,0,1-1.43,1.32,30.9,30.9,0,0,1-6.47,5.71l-.08.07a6.23,6.23,0,0,1-1.4,1.26h0a2.33,2.33,0,0,1-1.47,1.29l0,0a1.58,1.58,0,0,1-1.49,1.25c-.75,1.6-2.57,1.87-3.7,3l-.13.1a10,10,0,0,1-1.39,1.21h0a2.28,2.28,0,0,1-1.51,1.23l0,0a21.7,21.7,0,0,1-5.34,4.19h0a1.92,1.92,0,0,1-1.54,1.19c-.86,1.53-2.55,2-3.87,2.91l0,0c-.37.57-.75,1.15-1.55,1.15-.89,1.53-2.52,2-3.93,2.85v0c-1.09,1.27-2.66,1.86-4,2.78l0,0c-.4.54-.76,1.13-1.57,1.1-.33,1.25-1.76.84-2.41,1.61l-.1.07a3,3,0,0,1-1.54,1.08c-.38,1.19-1.78.8-2.44,1.57l-.11.07a2.73,2.73,0,0,1-1.55,1c-.38,1.25-1.78.86-2.48,1.58l-.06,0a18.81,18.81,0,0,1-4.11,2.61l0,0a8.86,8.86,0,0,1-4.17,2.52l-.06,0c-.39,1.26-1.76.89-2.53,1.52l0,0c-.57,1-1.87.65-2.55,1.43l-.13.08a14.92,14.92,0,0,1-4.2,2.42l0,0c-.48,1.18-1.8.85-2.6,1.45l0,0c-.59,1-1.88.72-2.64,1.41l0,0c-.63.9-1.9.61-2.61,1.36l-.11.06A79,79,0,0,1,690,871.56l-.14.06c-.69.82-1.9.57-2.65,1.27l-.07,0c-.7.88-1.91.66-2.73,1.27h0c-.67,1-1.87.78-2.78,1.23l0,0c-1.91,1.63-4.49,1.73-6.62,2.86l-.07,0c-.72.9-1.88.73-2.8,1.15l-.05,0c-.82,1.66-2.84.32-3.83,1.54l-.12,0c-.75.84-1.88.69-2.8,1.09l-.07,0c-.85,1.67-2.85.37-3.9,1.52h0a24.27,24.27,0,0,1-6.91,2.46l-.1,0c-.87,1.77-2.78.53-4,1.38l-.07,0c-.94,1.66-2.8.52-4,1.31l-.09,0c-2.84,1.77-6.25,1.77-9.29,2.92l-.07,0c-1.12,1.29-2.88.35-4.13,1.19h-.06c-1.37,1.91-3.8.1-5.31,1.51h0c-1.49,1.64-3.82,0-5.38,1.38h-.06c-1.53,1.58-3.83,0-5.42,1.34h0c-1.57,1.6-3.81.16-5.5,1.22h-.07c-1.89,2.09-4.67,0-6.71,1.45l0,0c-5.24,1.83-10.82,1.79-16.2,2.85h-.07c-3,1.88-6.51-.33-9.51,1.34l0,0c-3.9,2.07-8.31-.38-12.25,1.39l0-.08c-5.2,1.89-10.58.33-15.85.84-2.41.23-4.92-.56-7.25.61l-.05-.11a17.76,17.76,0,0,1-11.95,0l-.06.05c-1.52-1.31-4,.6-5.26-1.53l-.06,0a8.13,8.13,0,0,1-4.17-2.5l0,0a2.75,2.75,0,0,1-1.45-1.3h0a3,3,0,0,1-1.33-1.44l0,0c-.66-.33-1.22-.75-1.21-1.59l.07.08c-1.36-.41-1-1.79-1.53-2.69l.06.11c-1.64-1.13-.59-3.14-1.48-4.51,0-2.31,0-4.62,0-6.94a12.72,12.72,0,0,1,1.09-3.38l.38-.33-.1-.49a3.73,3.73,0,0,1,1.1-1.92l0-.08c.92-.57.53-2.06,1.71-2.43l-.1.11a1.89,1.89,0,0,1,1.42-1.49l-.11.1a2.07,2.07,0,0,1,1.68-1.46.68.68,0,0,0,.92-.5,6.7,6.7,0,0,0,1.38-1h0c.74-.89,2-.65,2.84-1.34a1.05,1.05,0,0,0,1.21-.24c4.24-1.38,8.75.4,13-1.11,5.22.81,10.41,0,15.62-.31,2.69-1.19,5.73.37,8.39-1.05a19,19,0,0,0,6.59-.33c1.49-.69,3.2-.28,4.7-1a10.37,10.37,0,0,0,4.82-.36c1.42-.78,3.13-.22,4.55-1l3.62-.35c1.35-.84,3.06-.14,4.39-1l3.79-.39C598.4,862.74,599.52,862.74,600.48,862.25Z" transform="translate(-181.66 -173.07)"/><path class="cls-4" d="M763.81,257.51a.72.72,0,0,0,.92.63,2.15,2.15,0,0,1,1.72,1.41l-.1-.08a3,3,0,0,1,1.53,1.32l0,0a8.43,8.43,0,0,1,1.46,1.27l0,0a8.24,8.24,0,0,0,1.37,1.2l.15.11a2.51,2.51,0,0,0,1.24,1.12l.24.19c.35,1,1.95.6,2.17,1.81l-.09-.09a1.68,1.68,0,0,1,1.51,1.38l-.08-.09a2.23,2.23,0,0,1,1.52,1.36l-.08-.07a3.14,3.14,0,0,1,1.48,1.38l-.06-.06a4.38,4.38,0,0,1,1.45,1.36l0,0a9.34,9.34,0,0,1,1.42,1.32h0c.44.44.9.87,1.36,1.3l.05,0a11.38,11.38,0,0,0,1.32,1.28l.08.07a6.69,6.69,0,0,0,1.29,1.26l.11.09a4.75,4.75,0,0,0,1.26,1.23l.13.13a3.65,3.65,0,0,0,1.25,1.19l.16.15a2.89,2.89,0,0,0,1.21,1.19l.17.17a2.69,2.69,0,0,0,1.19,1.19l.17.17a2.84,2.84,0,0,0,1.19,1.21l.15.16a3.4,3.4,0,0,0,1.2,1.24l.12.13a4.65,4.65,0,0,0,1.23,1.27l.1.1a6.16,6.16,0,0,0,1.25,1.3l.07.07a10.66,10.66,0,0,0,1.28,1.32l.05.06c.42.46.85.92,1.3,1.35l0,0a10.87,10.87,0,0,1,1.3,1.41v0a4.76,4.76,0,0,1,1.35,1.44l-.06-.05a3.25,3.25,0,0,1,1.38,1.48l-.07-.08a2.32,2.32,0,0,1,1.36,1.52l-.08-.1a1.78,1.78,0,0,1,1.38,1.52l-.11-.11a1.84,1.84,0,0,1,1.52,1.82.55.55,0,0,0,.59.72,2,2,0,0,0,1,1.12l.12.16a6.19,6.19,0,0,0,1.19,1.36l0,.05a11.59,11.59,0,0,1,1.26,1.45l0,0a3.26,3.26,0,0,1,1.31,1.53l-.07-.09A1.93,1.93,0,0,1,814,307.3l-.1-.1c1.21.27.78,1.84,1.78,2.27l.12.17A6.22,6.22,0,0,0,817,311l0,0a5.94,5.94,0,0,1,1.26,1.52l-.07-.08a2.27,2.27,0,0,1,1.3,1.59l-.1-.11c1.18.32.76,1.86,1.76,2.32l.1.16a10.52,10.52,0,0,0,1.15,1.44h0a3.3,3.3,0,0,1,1.24,1.57l-.09-.11a2.1,2.1,0,0,1,1.41,1.91v.49l.45.22a7.05,7.05,0,0,0,1.07,1.36h0a3.42,3.42,0,0,1,1.22,1.59l-.09-.1c1.11.41.71,1.89,1.69,2.4l.08.13c.3.57.84,1,1.14,1.53l0-.07a2.59,2.59,0,0,1,1.3,1.84.6.6,0,0,0,.49.85,5.52,5.52,0,0,0,1,1.36h0a2.94,2.94,0,0,1,1.17,1.64l-.1-.12c1.2.42.83,1.88,1.68,2.52l0,0a3.45,3.45,0,0,1,1.14,1.64l-.09-.12c1.17.45.81,1.89,1.65,2.55v0a3.44,3.44,0,0,1,1.2,1.81.67.67,0,0,0,.47.93,7.73,7.73,0,0,0,1,1.41l0,0a2.65,2.65,0,0,1,1.23,2l0,.49.42.25a16.17,16.17,0,0,1,1.06,1.54l-.08-.1c1,.56.72,1.93,1.56,2.61v0a3.26,3.26,0,0,1,1.17,1.9.56.56,0,0,0,.39.84,17.09,17.09,0,0,1,1,1.54l-.07-.1c1,.59.76,1.93,1.53,2.68v0c.85.65.53,2,1.45,2.58l0,.09a3.81,3.81,0,0,1,1.1,1.9.57.57,0,0,0,.38.86,6.54,6.54,0,0,1,1,1.7.76.76,0,0,0,.41,1c.32.51.64,1,1,1.52l-.06-.1c1,.64.76,1.94,1.45,2.75l0-.06c.94.68.69,2,1.42,2.76l0,0c.89.71.66,2,1.38,2.77l0-.05c.89.71.66,2,1.38,2.77l0,0c.89.71.67,2,1.37,2.78l0-.05c.92.72.72,2,1.35,2.82l0-.08c1,.74.81,2.05,1.39,3a.75.75,0,0,0,.35,1,4.78,4.78,0,0,1,1,1.84.55.55,0,0,0,.31.87c.67.78.39,2,1.24,2.69v0c.76.8.6,2,1.26,2.85l0-.07c1,.82.84,2.1,1.32,3.12a.59.59,0,0,0,.29.92c.67.81.44,2,1.2,2.77v0c.85.86.76,2.11,1.25,3.12a.62.62,0,0,0,.29,1c.66.83.47,2,1.15,2.82l0-.07c.9.95.94,2.22,1.26,3.39l-.12.41.34.25c.8.9.69,2.14,1.18,3.16a.59.59,0,0,0,.26.93c.7.91.59,2.11,1.13,3.08a.68.68,0,0,0,.26,1c.66.91.55,2.09,1.11,3a.71.71,0,0,0,.25,1c.65.94.59,2.12,1.09,3.11a.63.63,0,0,0,.24,1,12.67,12.67,0,0,1,1.08,3.34l-.16.44.36.3c1.17,1.2.17,3.05,1.28,4.27a.88.88,0,0,0,.23,1.19,17.81,17.81,0,0,1,1,3.28l-.16.46.35.33c1.13,1.3.3,3.13,1.21,4.48a.61.61,0,0,0,.2,1c1,1.33.28,3.13,1.16,4.5a.57.57,0,0,0,.19.94c1,1.43.41,3.25,1.14,4.74l.34,2.08c.86,1.38.2,3.11,1.06,4.49a.57.57,0,0,0,.16.95c1.29,1.8.11,4.1,1.18,5.95.1.74.2,1.49.31,2.23,1.09,1.8,0,4,1.08,5.81.09.79.18,1.57.28,2.36,1,1.94.14,4.21,1.06,6.17a4.37,4.37,0,0,0,.29,3.36c1.31,2.72-.28,5.83,1.1,8.54a6,6,0,0,0,.25,3.71c1.38,3.77-.31,7.84,1.12,11.61-.67,2.5-.17,5,.23,7.45a65.32,65.32,0,0,1,0,19,.73.73,0,0,0-.19,1.07c-.59.92-.44,2.13-1.15,3l-.39.28.09.47a2.73,2.73,0,0,1-1.18,1.93l0,0a14.59,14.59,0,0,1-5.43,5.35l-.05,0c-6.75,4.57-13.5,4.62-20.24,0l0,0a13.9,13.9,0,0,1-5.44-5.37v0c-.86-.65-.53-2-1.44-2.57l0-.1c-.7-.91-.64-2.12-1.16-3.1a.63.63,0,0,0-.18-1c-1.74-8.33.48-16.84-1.19-25.17a7.17,7.17,0,0,0-.22-4.79c-1.52-3.62.4-7.6-1.16-11.22a2.76,2.76,0,0,0-.21-2.39c-1.23-2.37,0-5.1-1.11-7.48a1.85,1.85,0,0,0-.21-2.05c-1.41-2.19.2-4.89-1.2-7.08a.71.71,0,0,0-.16-1.09c-1.23-1.81-.07-4.08-1.15-5.92l.2-.49-.35-.39c-1.37-1.73-.05-4-1.23-5.82a.62.62,0,0,0-.18-1c-1-1.44-.43-3.26-1.14-4.76l.17-.39-.31-.29c-1.15-1.42-.5-3.29-1.22-4.81l.15-.37-.29-.26c-1.19-1.34-.4-3.2-1.23-4.63l.16-.48-.36-.35c-1.14-1.22-.17-3.05-1.25-4.29a.86.86,0,0,0-.23-1.17c-.61-1-.59-2.13-1-3.14a.59.59,0,0,0-.24-.94,11.89,11.89,0,0,1-1.09-3.34l.15-.44-.36-.29a9.68,9.68,0,0,1-1.15-3.42l.14-.41-.34-.26c-.79-1-.79-2.2-1.17-3.31l.13-.46-.37-.32c-.76-.9-.65-2.12-1.15-3.12a.63.63,0,0,0-.28-1c-.67-.83-.49-2-1.14-2.83l0,.06c-1-.92-1-2.2-1.29-3.37l.12-.41-.35-.25c-.78-.8-.59-2-1.2-2.88l0,.08c-1-.86-1-2.16-1.34-3.3l.12-.44-.37-.27c-.75-.78-.52-2-1.23-2.8v0c-.89-.75-.74-2-1.26-2.88l0,.09c-1.13-.75-1-2.08-1.41-3.14a.53.53,0,0,0-.31-.85c-.69-.74-.36-2-1.26-2.61l0-.1c-.72-.76-.47-2-1.3-2.69l0,0c-.78-.74-.53-2-1.32-2.71v0c-.82-.72-.57-2-1.34-2.71v0c-.83-.7-.56-2-1.37-2.68l0,0c-.8-.7-.51-2-1.37-2.63l0-.08c-.75-.7-.43-2-1.36-2.57l0-.13c-.36-.55-1-.91-1-1.69l.07.08c-1.3-.45-1-1.81-1.53-2.69l.05.06c-1.12-.54-.82-1.88-1.51-2.67l0,0c-.94-.62-.63-1.94-1.47-2.6l0-.08c-.45-.49-1-.9-1-1.68l.07.08c-1.32-.39-1-1.8-1.59-2.62l0,0c-1-.55-.69-1.91-1.53-2.56l0-.08c-.44-.49-1.07-.86-1.07-1.64l.07.08c-1.24-.41-.88-1.83-1.62-2.56h0c-.56-.43-1.16-.83-1.07-1.68l-.22.29.28-.23c-1.39-.29-1-1.77-1.68-2.52l0,0a20.28,20.28,0,0,1-2.75-4.1l0,0c-.6-.4-1.19-.8-1.11-1.65l-.25.3.29-.26c-1.36-.25-.94-1.76-1.71-2.44v0a2.36,2.36,0,0,1-1.16-1.59l.06.07c-1.2-.35-.8-1.83-1.68-2.4l-.07-.12a8.84,8.84,0,0,1-1.16-1.5l0,.05c-.64-.35-1.21-.76-1.18-1.61l-.23.29.28-.24c-1.31-.25-.88-1.77-1.73-2.35l-.07-.1a4.93,4.93,0,0,1-1.19-1.49l0,.05a1.84,1.84,0,0,1-1.22-1.58l-.22.27.27-.23c-1.61-.8-2-2.57-3-3.84l0,0a3,3,0,0,1-1.26-1.5l.05,0a1.68,1.68,0,0,1-1.25-1.55l-.24.3.28-.26c-1.63-.74-1.9-2.59-3-3.73l-.08-.09a11.91,11.91,0,0,1-1.24-1.41h0a2.92,2.92,0,0,1-1.3-1.47l0,0a1.93,1.93,0,0,1-1.31-1.5l0,0a1.41,1.41,0,0,1-1.3-1.48l-.31.36.34-.34c-2-1.24-3-3.33-4.45-5l-.12-.15c-.39-.44-.79-.87-1.2-1.28l-.09-.1c-.44-.42-.86-.86-1.26-1.31l-.06-.06a9.16,9.16,0,0,1-1.29-1.35l0,0a6.65,6.65,0,0,1-1.33-1.37h0a3.68,3.68,0,0,1-1.34-1.4v0a3.31,3.31,0,0,1-1.37-1.38h0A3.1,3.1,0,0,1,764,308.2h0a3.13,3.13,0,0,1-1.37-1.37h0a3.2,3.2,0,0,1-1.38-1.37h0a3.73,3.73,0,0,1-1.4-1.33h0a7.39,7.39,0,0,1-1.36-1.32l0,0a9,9,0,0,1-1.33-1.28l-.08-.07a45.8,45.8,0,0,1-7.82-7.1,1.39,1.39,0,0,1-1.46-1.27l-.24.25.26-.23a2,2,0,0,1-1.48-1.28l0,0a3,3,0,0,1-1.44-1.28l0,0a13.17,13.17,0,0,1-1.37-1.21l-.13-.11c-1.13-1.13-3-1.42-3.7-3a1.69,1.69,0,0,1-1.52-1.22l0,0a3,3,0,0,1-1.45-1.23l-.07-.06c-1.25-1-3-1.39-3.81-2.94a1.88,1.88,0,0,1-1.54-1.19h0c-1.35-.88-3-1.31-3.85-2.92l-.25.36.22-.37c-.8,0-1.2-.53-1.55-1.14h0c-1.38-.86-3-1.4-3.94-2.84-.74-.06-1.11-.62-1.52-1.13l-.09-.06c-.64-.76-2.1-.33-2.38-1.63l-.24.37.21-.39c-.8.05-1.19-.51-1.58-1.07l0,0c-1.92-1.21-3.83-2.73-5.82-.1l.06-.07c0,.74-.67,1.11-1,1.65l-.06.14c-.93.59-.59,1.89-1.43,2.54l0,0c-.77.72-.47,2.06-1.5,2.64l0-.06c-.62.83-.3,2.21-1.55,2.67l.07-.09c0,.77-.64,1.13-1,1.66l0,.12c-.91.61-.58,1.92-1.44,2.56h0c-.75.74-.45,2.08-1.5,2.64l0-.05c-.59.84-.26,2.22-1.55,2.66l.07-.08c0,.79-.62,1.15-1,1.67l0,.1c-.88.63-.56,1.94-1.44,2.58h0c-.74.75-.43,2.1-1.52,2.65l0-.06c-.57.85-.23,2.24-1.56,2.66l.07-.08c0,.78-.57,1.18-1,1.68l0,.08c-.86.66-.54,2-1.45,2.6v0c-.72.77-.41,2.12-1.53,2.65l.07-.11c-2,1.95-2.86.26-3.75-1.25l0,0c-1-.58-.71-1.92-1.5-2.63v0c-.83-.64-.48-1.95-1.43-2.51l-.08-.16c-.33-.55-.95-.92-1-1.63l.07.08c-1.16-.5-.85-1.87-1.54-2.65l0,0c-.94-.61-.63-1.93-1.47-2.59l0-.08c-.45-.5-1-.9-1-1.68l.07.07c-1.33-.4-1-1.8-1.57-2.64l0,.06c-1.07-.55-.76-1.9-1.52-2.64h0c-.87-.63-.53-1.94-1.45-2.54l-.06-.13c-.36-.54-1-.9-1-1.65l.07.09c-1.22-.48-.91-1.85-1.56-2.66l0,.05c-1-.6-.67-1.93-1.49-2.62l0-.05c-.48-.48-1.1-.88-1-1.7l.06.06c-1.4-.35-1-1.77-1.58-2.63l.05.07c-1.13-.53-.82-1.89-1.54-2.65h0c-.91-.62-.58-1.94-1.46-2.57l0-.1c-.4-.52-1.06-.88-1-1.67l.07.08c-1.29-.43-1-1.82-1.57-2.65l0,.06c-1-.57-.73-1.92-1.51-2.63l0,0c-.83-.64-.48-1.95-1.43-2.52l-.07-.15c-.34-.55-1-.92-1-1.64l.07.09c-1.19-.5-.87-1.87-1.55-2.66l0,0c-1-.6-.64-1.93-1.48-2.6l0-.07c-.46-.49-1.06-.9-1-1.69l.07.07c-1.35-.39-1-1.79-1.57-2.64l0,.06c-1.09-.54-.78-1.89-1.53-2.64h0c-.88-.63-.54-1.94-1.45-2.56l-.05-.11c-.38-.53-1-.9-1-1.66l.07.09c-1.24-.47-.92-1.84-1.55-2.66l0,0c-1-.58-.7-1.92-1.5-2.62l0,0c-.49-.48-1.11-.88-1-1.7l.06,0c-1.43-.34-1-1.76-1.58-2.63l0,.07c-1.14-.52-.83-1.88-1.54-2.65l0,0c-.92-.62-.61-1.94-1.47-2.59l0-.08c-.41-.52-1.08-.88-1-1.68l.08.09c-1.3-.43-1-1.82-1.57-2.66l0,.06c-1.05-.56-.74-1.91-1.51-2.63v0c-.85-.63-.51-1.95-1.44-2.53l-.06-.14c-.35-.54-1-.91-1-1.65l.07.09c-1.2-.48-.88-1.86-1.55-2.65l0,0c-1-.6-.65-1.93-1.48-2.61l0-.06c-.46-.49-1.07-.89-1-1.69l.06.07c-1.37-.38-1-1.79-1.57-2.64l0,.06c-1.11-.54-.8-1.89-1.53-2.65h0c-.9-.63-.57-1.94-1.46-2.57l-.05-.1c-.39-.53-1-.89-1-1.66l.09.11c-1.53-1.41-.77-2.53.7-3s3.15-.19,4.74-.19c39.25,0,78.5-.05,117.75.14,1.8,0,6.38-2.66,5.48,3.07l.08-.11c0,.73-.68,1.09-1,1.64l-.07.16c-.95.57-.6,1.88-1.43,2.52v0c-.79.72-.49,2.05-1.49,2.63l0-.05c-.64.82-.32,2.19-1.54,2.67l.06-.08c0,.74-.66,1.11-1,1.65l-.06.13c-.93.6-.59,1.9-1.44,2.54v0c-.77.72-.47,2.06-1.5,2.63l0,0c-.62.83-.3,2.2-1.55,2.67l.07-.09c0,.77-.64,1.13-1,1.66l0,.12c-.9.61-.57,1.92-1.44,2.56h0c-.75.74-.44,2.08-1.5,2.64l0-.06c-.59.85-.26,2.23-1.55,2.67l.07-.09c0,.79-.62,1.15-1,1.68l-.05.09c-.88.64-.56,2-1.45,2.58h0c-.72.75-.42,2.1-1.51,2.65l.06-.06c-.5,1.36-1.1,2.72.18,4a.66.66,0,0,0,.91.47,3.14,3.14,0,0,1,1.76,1.22h0a5.86,5.86,0,0,0,1.36,1,.7.7,0,0,0,.94.49,2.93,2.93,0,0,1,1.77,1.25h0a10.88,10.88,0,0,0,1.4,1.05.55.55,0,0,0,.81.45,2.36,2.36,0,0,1,1.86,1.32l-.08-.05a9.62,9.62,0,0,1,1.53,1.16l.12.06c.55.93,2,.54,2.41,1.69l-.09-.09a2.86,2.86,0,0,1,1.59,1.22h0a14.54,14.54,0,0,0,1.45,1.14l.18.11c.47,1,2,.58,2.34,1.69l-.09-.08a2.93,2.93,0,0,1,1.57,1.24h0c.47.4,1,.79,1.46,1.16l.16.11a1.82,1.82,0,0,0,1.12,1,.77.77,0,0,0,1,.61,2.46,2.46,0,0,1,1.71,1.36l-.08-.06a4.71,4.71,0,0,1,1.51,1.26h0a8.62,8.62,0,0,0,1.39,1.17l.19.13A1.66,1.66,0,0,0,763.81,257.51Z" transform="translate(-181.66 -173.07)"/></svg>