<?xml version="1.0" encoding="utf-8"?>
<!-- Generator: Adobe Illustrator 23.0.5, SVG Export Plug-In . SVG Version: 6.00 Build 0)  -->
<svg version="1.1" id="Capa_1" xmlns="http://www.w3.org/2000/svg" xmlns:xlink="http://www.w3.org/1999/xlink" x="0px" y="0px"
	 viewBox="0 0 1080 1080" style="enable-background:new 0 0 1080 1080;" xml:space="preserve">
<style type="text/css">
	.st0{fill:#FFFFFF;}
	.st1{fill:#FDFDFD;}
	.st2{fill:#A35EDF;}
	.st3{fill:#D7B3F7;}
</style>
<g>
	<path class="st0" d="M290.25,527.8c0.01-6.35,0.03-12.69,0.04-19.04c0.39,0.76,1.11,1.51,1.13,2.27c0.1,4.84,0.1,9.68-0.01,14.51
		C291.39,526.31,290.65,527.05,290.25,527.8z"/>
	<g>
		<path class="st1" d="M887.3,529.02c1.18,5.8,1.19,15.7,0.02,21.83C887.31,543.57,887.31,536.29,887.3,529.02z"/>
		<path class="st1" d="M822.82,793.52c2.42-3.43,5.18-6.55,8.48-9.16c-0.1,0.65,0.01,1.47-0.35,1.91
			C828.61,789.08,826.65,792.36,822.82,793.52z"/>
		<path class="st1" d="M805.6,810.19c2.17-2.81,4.74-5.19,7.7-7.15C811.93,806.71,809.5,809.24,805.6,810.19z"/>
		<path class="st1" d="M885.98,507.46c1.55,4.15,1.3,8.45,1.1,12.75c-1.13-0.94-1.27-2.23-1.25-3.57
			C885.88,513.58,885.93,510.52,885.98,507.46z"/>
		<path class="st1" d="M884.59,495.36c1.4,2.7,1.32,5.6,1.13,8.51c-0.86-0.73-1.24-1.69-1.23-2.8
			C884.5,499.17,884.55,497.26,884.59,495.36z"/>
		<path class="st1" d="M311.64,808.49c2.08,1.01,3.75,2.47,4.97,4.42C313.86,812.67,312.17,811.22,311.64,808.49z"/>
		<path class="st1" d="M774.07,835.94c0.91-1.49,2.22-2.44,3.91-2.87C777.63,835.32,776.18,836.08,774.07,835.94z"/>
		<path class="st1" d="M341.39,833.18c1.65,0.47,2.97,1.38,3.91,2.83C343.26,836.08,341.89,835.23,341.39,833.18z"/>
		<path class="st1" d="M779.54,831.88c0.88-1.5,2.18-2.46,3.83-2.94C783.12,831.25,781.63,831.96,779.54,831.88z"/>
		<path class="st1" d="M335.96,829.07c1.63,0.49,2.94,1.42,3.85,2.87C337.79,831.97,336.42,831.13,335.96,829.07z"/>
		<path class="st1" d="M330.65,824.87c1.64,0.51,2.91,1.47,3.79,2.96C332.38,827.86,330.91,827.13,330.65,824.87z"/>
		<path class="st1" d="M786.45,826.49c0.87-1.48,2.13-2.45,3.76-2.97C789.93,825.74,788.49,826.49,786.45,826.49z"/>
		<path class="st1" d="M836.45,778.59c0.59-1.58,1.6-2.82,3.07-3.67C839.43,776.92,838.68,778.37,836.45,778.59z"/>
		<path class="st1" d="M322.45,818.08c1.59,0.55,2.82,1.55,3.66,3.01C324.13,821.02,322.72,820.24,322.45,818.08z"/>
		<path class="st1" d="M794.71,819.72c0.83-1.47,2.06-2.46,3.64-3.03C798.15,818.91,796.71,819.65,794.71,819.72z"/>
		<path class="st1" d="M881.72,601.92c0.14,2.06,0.18,4.09-1.2,5.83C880.52,605.72,879.72,603.53,881.72,601.92z"/>
		<path class="st1" d="M880.34,608.72c0.2,2,0.01,3.91-1.28,5.57C879.16,612.36,878.38,610.23,880.34,608.72z"/>
		<path class="st1" d="M843.28,770.45c0.54-1.63,1.51-2.92,3.01-3.79C846.27,768.71,845.51,770.16,843.28,770.45z"/>
		<path class="st1" d="M879.12,465.5c1.42,1.68,1.36,3.69,1.28,5.7C878.36,469.67,879.16,467.49,879.12,465.5z"/>
		<path class="st1" d="M756.29,848.07c1-1.45,2.36-2.34,4.09-2.65C759.83,847.56,758.46,848.43,756.29,848.07z"/>
		<path class="st1" d="M760.4,845.4c0.98-1.46,2.34-2.36,4.06-2.71C763.93,844.83,762.55,845.68,760.4,845.4z"/>
		<path class="st1" d="M881.91,478.86c1.39,1.79,1.28,3.87,1.13,5.95C881.07,483.13,881.89,480.92,881.91,478.86z"/>
		<path class="st1" d="M764.48,842.67c0.96-1.47,2.3-2.39,4.01-2.76C768.05,842.13,766.63,842.94,764.48,842.67z"/>
		<path class="st1" d="M883.27,486.81c1.41,1.87,1.25,4.02,1.08,6.17C882.41,491.2,883.29,488.93,883.27,486.81z"/>
		<path class="st1" d="M873.69,445.05c1.3,1.19,1.39,2.74,1.28,4.35C873.26,448.33,873.61,446.65,873.69,445.05z"/>
		<path class="st1" d="M874.97,449.39c1.11,1.16,1.44,2.55,1.21,4.11C874.68,452.45,874.94,450.88,874.97,449.39z"/>
		<path class="st1" d="M876.4,454.61c1.23,1.22,1.36,2.74,1.19,4.34C876,457.82,876.32,456.18,876.4,454.61z"/>
		<path class="st1" d="M865.41,420.86c1.21,1.06,1.56,2.45,1.49,3.99C865.14,423.99,865.43,422.37,865.41,420.86z"/>
		<path class="st1" d="M877.52,620.99c0.24,1.58-0.06,3-1.18,4.2C876.31,623.67,876.02,622.08,877.52,620.99z"/>
		<path class="st1" d="M878.87,615.54c0.23,1.58-0.01,3.04-1.15,4.25C877.67,618.26,877.37,616.66,878.87,615.54z"/>
		<path class="st1" d="M862.68,414.06c1.25,1.02,1.57,2.42,1.58,3.94C862.4,417.22,862.72,415.57,862.68,414.06z"/>
		<path class="st1" d="M877.79,459.97c1.23,1.25,1.33,2.8,1.14,4.41C877.34,463.23,877.69,461.57,877.79,459.97z"/>
		<path class="st1" d="M874.89,630.51c0.17,1.58-0.07,3.05-1.26,4.22C873.59,633.19,873.3,631.57,874.89,630.51z"/>
		<path class="st1" d="M880.55,472.03c1.22,1.34,1.26,2.95,1.05,4.61C880.03,475.38,880.43,473.67,880.55,472.03z"/>
		<path class="st1" d="M857.13,678.17c0.14,1.15-0.39,1.99-1.28,2.65C855.86,679.74,856.1,678.76,857.13,678.17z"/>
		<path class="st1" d="M855.83,680.87c0.1,1.17-0.36,2.06-1.32,2.71C854.51,682.47,854.76,681.47,855.83,680.87z"/>
		<path class="st1" d="M854.5,683.61c0.08,1.17-0.36,2.07-1.35,2.71C853.15,685.19,853.41,684.19,854.5,683.61z"/>
		<path class="st1" d="M853.15,686.33c0.07,1.16-0.36,2.07-1.35,2.7C851.79,687.91,852.05,686.91,853.15,686.33z"/>
		<path class="st1" d="M851.78,689.06c0.07,1.16-0.41,2.03-1.38,2.66C850.43,690.6,850.7,689.62,851.78,689.06z"/>
		<path class="st1" d="M891.06,694.38c0.05-1.21,0.23-2.36,1.41-3.05C892.59,692.62,892.48,693.81,891.06,694.38z"/>
		<path class="st1" d="M889.75,697.13c0.02-1.14,0.19-2.22,1.35-2.83C891.24,695.53,891.08,696.61,889.75,697.13z"/>
		<path class="st1" d="M888.42,699.87c0.01-1.15,0.23-2.19,1.36-2.79C889.88,698.28,889.66,699.32,888.42,699.87z"/>
		<path class="st1" d="M846.61,698.72c-0.1,1.13-0.39,2.16-1.53,2.71C845.02,700.21,845.22,699.13,846.61,698.72z"/>
		<path class="st1" d="M887.09,702.6c0-1.15,0.23-2.18,1.35-2.78C888.53,701.01,888.3,702.05,887.09,702.6z"/>
		<path class="st1" d="M845.12,701.37c-0.03,1.14-0.43,2.08-1.49,2.65C843.64,702.86,843.92,701.86,845.12,701.37z"/>
		<path class="st1" d="M885.72,705.32c0.02-1.14,0.28-2.15,1.39-2.74C887.17,703.76,886.93,704.79,885.72,705.32z"/>
		<path class="st1" d="M884.32,708.03c0.03-1.14,0.27-2.17,1.41-2.74C885.8,706.48,885.56,707.51,884.32,708.03z"/>
		<path class="st1" d="M841.12,708.23c-0.1,1.13-0.46,2.09-1.56,2.62C839.57,709.67,839.85,708.65,841.12,708.23z"/>
		<path class="st1" d="M882.91,710.72c0.06-1.13,0.29-2.18,1.44-2.74C884.43,709.19,884.2,710.23,882.91,710.72z"/>
		<path class="st1" d="M881.47,713.4c0.09-1.12,0.31-2.18,1.47-2.73C883.05,711.9,882.88,712.98,881.47,713.4z"/>
		<path class="st1" d="M880.02,716.04c0.14-1.1,0.35-2.17,1.5-2.71C881.67,714.59,881.53,715.7,880.02,716.04z"/>
		<path class="st1" d="M836.96,714.99c-0.05,1.13-0.59,1.95-1.56,2.51C835.47,716.39,835.78,715.42,836.96,714.99z"/>
		<path class="st1" d="M877.62,720.32c-0.03-1.14,0.46-1.98,1.42-2.57C879.01,718.85,878.74,719.82,877.62,720.32z"/>
		<path class="st1" d="M834.31,719.12c-0.11,1.11-0.59,1.98-1.61,2.5C832.76,720.48,833.07,719.5,834.31,719.12z"/>
		<path class="st1" d="M876.11,722.98c0.07-1.12,0.41-2.09,1.5-2.64C877.63,721.52,877.36,722.53,876.11,722.98z"/>
		<path class="st1" d="M831.59,723.21c-0.11,1.11-0.63,1.94-1.63,2.46C830.03,724.54,830.35,723.57,831.59,723.21z"/>
		<path class="st1" d="M874.57,725.56c0.15-1.1,0.41-2.14,1.57-2.64C876.23,724.17,876.07,725.26,874.57,725.56z"/>
		<path class="st1" d="M872.05,729.8c0.06-1.12,0.47-2.03,1.51-2.57C873.55,728.38,873.27,729.36,872.05,729.8z"/>
		<path class="st1" d="M870.47,732.34c0.17-1.09,0.45-2.11,1.61-2.59C872.14,730.99,871.97,732.08,870.47,732.34z"/>
		<path class="st1" d="M824.85,732.8c-0.16,1.09-0.68,1.92-1.71,2.39C823.24,734.05,823.57,733.08,824.85,732.8z"/>
		<path class="st1" d="M867.85,736.52c0.12-1.1,0.5-2.05,1.59-2.55C869.44,735.15,869.18,736.17,867.85,736.52z"/>
		<path class="st1" d="M820.78,738.26c-0.17,1.08-0.73,1.87-1.74,2.33C819.16,739.47,819.5,738.51,820.78,738.26z"/>
		<path class="st1" d="M865.17,740.64c0.1-1.1,0.53-2,1.59-2.49C866.73,739.29,866.44,740.27,865.17,740.64z"/>
		<path class="st1" d="M862.45,744.71c0.11-1.1,0.55-1.98,1.6-2.46C864.01,743.4,863.71,744.37,862.45,744.71z"/>
		<path class="st1" d="M815.41,745.14c-0.22,1.06-0.76,1.87-1.8,2.28C813.72,746.28,814.06,745.32,815.41,745.14z"/>
		<path class="st1" d="M859.67,748.75c0.14-1.09,0.57-1.98,1.64-2.44C861.27,747.47,860.98,748.45,859.67,748.75z"/>
		<path class="st1" d="M856.84,752.73c0.19-1.07,0.59-2,1.7-2.42C858.52,751.5,858.27,752.53,856.84,752.73z"/>
		<path class="st1" d="M808.6,753.32c-0.22,1.06-0.82,1.8-1.83,2.19C806.92,754.4,807.28,753.46,808.6,753.32z"/>
		<path class="st1" d="M852.82,758.23c0.17-1.07,0.61-1.94,1.69-2.36C854.46,757.03,854.16,758,852.82,758.23z"/>
		<path class="st1" d="M848.7,763.64c0.18-1.06,0.66-1.91,1.73-2.32C850.36,762.47,850.07,763.46,848.7,763.64z"/>
		<path class="st1" d="M335.46,779.31c-1.04-0.23-1.7-0.89-2.09-1.85C334.47,777.62,335.38,778,335.46,779.31z"/>
		<path class="st1" d="M760.38,799.28c-0.45,1.02-1.26,1.55-2.33,1.72C758.3,799.72,759.25,799.38,760.38,799.28z"/>
		<path class="st1" d="M770.11,838.73c0.39-1.11,1.29-1.49,2.35-1.65C772.3,838.52,771.28,838.73,770.11,838.73z"/>
		<path class="st1" d="M348.15,868.83c-0.03,1.14-0.44,2.07-1.48,2.64C346.68,870.32,346.96,869.32,348.15,868.83z"/>
		<path class="st1" d="M344.2,875.72c-0.11,1.13-0.42,2.14-1.54,2.69C342.62,877.19,342.83,876.12,344.2,875.72z"/>
		<path class="st1" d="M342.69,878.36c-0.01,1.14-0.47,2.04-1.48,2.62C341.23,879.84,341.51,878.85,342.69,878.36z"/>
		<path class="st1" d="M827.32,350.06c1.11,0.43,1.51,1.35,1.68,2.43C827.62,352.24,827.34,351.24,827.32,350.06z"/>
		<path class="st1" d="M830.09,354.05c1.14,0.43,1.5,1.39,1.68,2.47C830.27,356.34,830.08,355.26,830.09,354.05z"/>
		<path class="st1" d="M832.83,358.1c1.15,0.44,1.48,1.43,1.66,2.51C832.99,360.41,832.8,359.33,832.83,358.1z"/>
		<path class="st1" d="M835.53,362.22c1.13,0.47,1.47,1.45,1.62,2.55C835.76,364.46,835.51,363.43,835.53,362.22z"/>
		<path class="st1" d="M838.2,366.4c1.07,0.52,1.46,1.45,1.54,2.56C838.49,368.56,838.21,367.56,838.2,366.4z"/>
		<path class="st1" d="M839.71,368.91c1.16,0.48,1.43,1.51,1.61,2.59C839.77,371.27,839.62,370.17,839.71,368.91z"/>
		<path class="st1" d="M842.3,373.18c1.08,0.54,1.44,1.49,1.5,2.61C842.56,375.35,842.29,374.34,842.3,373.18z"/>
		<path class="st1" d="M843.77,375.74c1.16,0.51,1.41,1.56,1.54,2.67C843.85,378.07,843.68,376.98,843.77,375.74z"/>
		<path class="st1" d="M846.31,380.13c0.93,0.6,1.46,1.41,1.39,2.55C846.62,382.16,846.34,381.21,846.31,380.13z"/>
		<path class="st1" d="M847.72,382.73c1.04,0.58,1.42,1.51,1.4,2.65C847.98,384.86,847.72,383.87,847.72,382.73z"/>
		<path class="st1" d="M849.13,385.38c1.09,0.57,1.41,1.56,1.42,2.7C849.34,387.57,849.09,386.55,849.13,385.38z"/>
		<path class="st1" d="M850.53,388.04c1.14,0.57,1.38,1.6,1.42,2.74C850.69,390.28,850.46,389.24,850.53,388.04z"/>
		<path class="st1" d="M851.92,390.74c1.15,0.58,1.36,1.63,1.4,2.77C852.05,392.99,851.82,391.94,851.92,390.74z"/>
		<path class="st1" d="M853.29,393.45c1.16,0.59,1.35,1.65,1.37,2.79C853.41,395.7,853.18,394.66,853.29,393.45z"/>
		<path class="st1" d="M854.63,396.19c1.13,0.6,1.36,1.64,1.35,2.79C854.76,398.42,854.54,397.38,854.63,396.19z"/>
		<path class="st1" d="M855.96,398.95c1.09,0.62,1.36,1.62,1.31,2.78C856.11,401.15,855.89,400.12,855.96,398.95z"/>
		<path class="st1" d="M857.28,401.74c1.02,0.64,1.37,1.58,1.28,2.74C857.47,403.88,857.24,402.87,857.28,401.74z"/>
		<path class="st1" d="M858.59,404.56c0.89,0.65,1.39,1.49,1.23,2.63C858.81,406.6,858.58,405.63,858.59,404.56z"/>
		<path class="st1" d="M860.13,408.13c1.17,0.72,1.34,1.87,1.34,3.1C860.1,410.59,860,409.41,860.13,408.13z"/>
		<path class="st1" d="M861.44,411.16c1.11,0.65,1.31,1.68,1.23,2.84C861.54,413.37,861.33,412.33,861.44,411.16z"/>
		<path class="st1" d="M864.22,417.91c1.12,0.67,1.27,1.74,1.18,2.91C864.25,420.15,864.06,419.1,864.22,417.91z"/>
		<path class="st1" d="M866.87,424.79c1.03,0.68,1.28,1.68,1.13,2.83C866.94,426.95,866.77,425.93,866.87,424.79z"/>
		<path class="st1" d="M868.28,428.62c1.11,0.76,1.28,1.87,1.14,3.09C868.24,430.98,868.14,429.84,868.28,428.62z"/>
		<path class="st1" d="M869.67,432.57c1.13,0.81,1.26,1.97,1.13,3.23C869.58,435.02,869.52,433.84,869.67,432.57z"/>
		<path class="st1" d="M871.04,436.61c1.12,0.84,1.24,2.01,1.1,3.27C870.92,439.08,870.88,437.88,871.04,436.61z"/>
		<path class="st1" d="M872.38,440.78c1.08,0.82,1.23,1.94,1.06,3.18C872.28,443.17,872.23,442.01,872.38,440.78z"/>
		<path class="st1" d="M876.13,626.44c0.18,1.24,0.03,2.36-1.02,3.21C874.95,628.42,874.99,627.25,876.13,626.44z"/>
		<path class="st1" d="M873.38,635.97c0.18,1.18-0.08,2.21-1.07,2.97C872.21,637.79,872.34,636.72,873.38,635.97z"/>
		<path class="st1" d="M872.06,640.05c0.17,1.2-0.04,2.27-1.09,3.03C870.86,641.9,870.94,640.79,872.06,640.05z"/>
		<path class="st1" d="M870.72,644.13c0.17,1.2-0.09,2.25-1.12,3C869.49,645.95,869.59,644.85,870.72,644.13z"/>
		<path class="st1" d="M869.33,648.22c0.17,1.18-0.16,2.17-1.13,2.9C868.12,649.98,868.28,648.93,869.33,648.22z"/>
		<path class="st1" d="M867.91,652.31c0.18,1.14-0.24,2.02-1.13,2.72C866.75,653.95,866.93,652.97,867.91,652.31z"/>
		<path class="st1" d="M866.78,655.03c0.08,1.23-0.06,2.38-1.22,3.14C865.43,656.91,865.53,655.74,866.78,655.03z"/>
		<path class="st1" d="M865.28,659.11c0.16,1.16-0.19,2.11-1.18,2.79C864.04,660.78,864.23,659.76,865.28,659.11z"/>
		<path class="st1" d="M864.12,661.86c0.05,1.23-0.11,2.38-1.28,3.11C862.71,663.7,862.82,662.53,864.12,661.86z"/>
		<path class="st1" d="M862.54,665.92c0.16,1.16-0.29,2.04-1.21,2.72C861.31,667.54,861.52,666.55,862.54,665.92z"/>
		<path class="st1" d="M861.33,668.64c0.07,1.17-0.16,2.21-1.26,2.86C859.97,670.32,860.18,669.27,861.33,668.64z"/>
		<path class="st1" d="M860.11,671.42c0,1.22-0.19,2.36-1.36,3.05C858.64,673.2,858.76,672.03,860.11,671.42z"/>
		<path class="st1" d="M320.59,764.53c-0.83-0.28-1.34-0.84-1.53-1.71C319.98,763.03,320.47,763.62,320.59,764.53z"/>
		<path class="st1" d="M800.24,762.69c-0.12,0.81-0.56,1.33-1.38,1.49C799.01,763.4,799.47,762.9,800.24,762.69z"/>
		<path class="st1" d="M798.94,764.1c-0.13,0.81-0.59,1.32-1.4,1.49C797.67,764.78,798.14,764.28,798.94,764.1z"/>
		<path class="st1" d="M847.52,765.16c0.06-0.79,0.4-1.37,1.22-1.57C848.72,764.41,848.3,764.92,847.52,765.16z"/>
		<path class="st1" d="M322.23,766.32c-0.61-0.03-0.94-0.35-0.94-0.97C321.6,765.68,321.91,766,322.23,766.32z"/>
		<path class="st1" d="M797.62,765.5c-0.14,0.81-0.61,1.31-1.43,1.47C796.32,766.14,796.8,765.66,797.62,765.5z"/>
		<path class="st1" d="M846.33,766.6c0.04-0.8,0.42-1.31,1.22-1.48C847.43,765.84,847.02,766.34,846.33,766.6z"/>
		<path class="st1" d="M323.59,767.72c-0.67-0.08-1.05-0.45-1.11-1.13C322.85,766.96,323.22,767.34,323.59,767.72z"/>
		<path class="st1" d="M796.28,766.88c-0.15,0.8-0.61,1.31-1.42,1.47C794.97,767.51,795.45,767.03,796.28,766.88z"/>
		<path class="st1" d="M324.94,769.1c-0.7-0.07-1.08-0.45-1.13-1.15C324.19,768.34,324.56,768.72,324.94,769.1z"/>
		<path class="st1" d="M794.94,768.27c-0.15,0.81-0.63,1.29-1.44,1.44C793.62,768.87,794.1,768.39,794.94,768.27z"/>
		<path class="st1" d="M326.3,770.47c-0.7-0.06-1.08-0.45-1.15-1.15C325.54,769.7,325.92,770.08,326.3,770.47z"/>
		<path class="st1" d="M793.58,769.63c-0.15,0.81-0.63,1.29-1.44,1.44C792.26,770.24,792.74,769.75,793.58,769.63z"/>
		<path class="st1" d="M327.66,771.83c-0.7-0.06-1.08-0.45-1.15-1.15C326.9,771.06,327.28,771.45,327.66,771.83z"/>
		<path class="st1" d="M792.22,770.99c-0.15,0.81-0.63,1.29-1.44,1.44C790.9,771.6,791.38,771.12,792.22,770.99z"/>
		<path class="st1" d="M842.06,771.95c0.08-0.79,0.44-1.35,1.26-1.53C843.27,771.23,842.84,771.73,842.06,771.95z"/>
		<path class="st1" d="M329.02,773.19c-0.7-0.06-1.09-0.45-1.15-1.15C328.26,772.43,328.64,772.81,329.02,773.19z"/>
		<path class="st1" d="M790.85,772.36c-0.15,0.81-0.63,1.29-1.44,1.44C789.53,772.96,790.01,772.48,790.85,772.36z"/>
		<path class="st1" d="M840.83,773.38c0.06-0.8,0.45-1.32,1.26-1.48C841.97,772.65,841.54,773.14,840.83,773.38z"/>
		<path class="st1" d="M330.39,774.55c-0.71-0.06-1.09-0.44-1.15-1.14C329.62,773.78,330,774.16,330.39,774.55z"/>
		<path class="st1" d="M789.49,773.72c-0.15,0.81-0.63,1.29-1.44,1.44C788.17,774.32,788.65,773.84,789.49,773.72z"/>
		<path class="st1" d="M839.61,774.79c0.02-0.79,0.44-1.24,1.2-1.39C840.41,773.87,840.01,774.33,839.61,774.79z"/>
		<path class="st1" d="M331.75,775.89c-0.69-0.06-1.07-0.44-1.14-1.12C330.99,775.14,331.37,775.51,331.75,775.89z"/>
		<path class="st1" d="M788.13,775.08c-0.16,0.81-0.66,1.28-1.47,1.42C786.81,775.67,787.29,775.19,788.13,775.08z"/>
		<path class="st1" d="M333.12,777.22c-0.68-0.05-1.05-0.43-1.13-1.1C332.37,776.48,332.74,776.85,333.12,777.22z"/>
		<path class="st1" d="M786.75,776.42c-0.16,0.81-0.66,1.28-1.47,1.42C785.44,777.02,785.92,776.55,786.75,776.42z"/>
		<path class="st1" d="M832.65,721.71c0.04,0.83-0.34,1.36-1.13,1.6C831.89,722.77,832.27,722.24,832.65,721.71z"/>
		<path class="st1" d="M785.36,777.76c-0.17,0.82-0.68,1.27-1.49,1.4C784.06,778.36,784.55,777.89,785.36,777.76z"/>
		<path class="st1" d="M336.88,780.61c-0.8-0.13-1.31-0.57-1.49-1.38C336.25,779.3,336.74,779.76,336.88,780.61z"/>
		<path class="st1" d="M783.96,779.08c-0.16,0.82-0.68,1.26-1.48,1.39C782.68,779.7,783.17,779.23,783.96,779.08z"/>
		<path class="st1" d="M835.19,780.06c0.09-0.79,0.47-1.33,1.28-1.49C836.44,779.4,836,779.89,835.19,780.06z"/>
		<path class="st1" d="M338.29,781.93c-0.8-0.14-1.32-0.58-1.49-1.39C337.63,780.64,338.13,781.1,338.29,781.93z"/>
		<path class="st1" d="M782.55,780.4c-0.16,0.81-0.66,1.26-1.47,1.38C781.3,781.03,781.79,780.57,782.55,780.4z"/>
		<path class="st1" d="M833.92,781.49c0.09-0.81,0.5-1.32,1.31-1.48C835.12,780.8,834.68,781.29,833.92,781.49z"/>
		<path class="st1" d="M339.71,783.22c-0.81-0.12-1.34-0.55-1.51-1.37C339.01,781.97,339.51,782.43,339.71,783.22z"/>
		<path class="st1" d="M781.14,781.73c-0.15,0.8-0.64,1.25-1.45,1.35C780.17,782.62,780.65,782.18,781.14,781.73z"/>
		<path class="st1" d="M832.65,782.91c0.08-0.8,0.49-1.3,1.3-1.45C833.8,782.2,833.36,782.68,832.65,782.91z"/>
		<path class="st1" d="M341.12,784.51c-0.81-0.12-1.32-0.56-1.49-1.37C340.41,783.3,340.9,783.76,341.12,784.51z"/>
		<path class="st1" d="M779.71,783.06c-0.15,0.78-0.62,1.22-1.42,1.29C778.76,783.91,779.23,783.48,779.71,783.06z"/>
		<path class="st1" d="M831.37,784.29c0.07-0.79,0.49-1.25,1.28-1.38C832.48,783.62,832.06,784.08,831.37,784.29z"/>
		<path class="st1" d="M342.53,785.78c-0.82-0.08-1.31-0.52-1.47-1.32C341.55,784.9,342.04,785.34,342.53,785.78z"/>
		<path class="st1" d="M778.25,784.37c-0.14,0.75-0.57,1.19-1.36,1.23C777.34,785.19,777.8,784.78,778.25,784.37z"/>
		<path class="st1" d="M343.93,787.04c-0.79-0.06-1.25-0.5-1.42-1.27C342.99,786.19,343.46,786.61,343.93,787.04z"/>
		<path class="st1" d="M776.78,785.7c-0.12,0.73-0.52,1.14-1.28,1.15C775.92,786.46,776.35,786.08,776.78,785.7z"/>
		<path class="st1" d="M345.33,788.27c-0.81,0.01-1.22-0.42-1.34-1.19C344.44,787.48,344.89,787.88,345.33,788.27z"/>
		<path class="st1" d="M775.28,787.02c-0.07,0.62-0.39,0.97-1.04,0.96C774.58,787.66,774.93,787.34,775.28,787.02z"/>
		<path class="st1" d="M346.62,789.4c-0.69,0.02-1.01-0.36-1.11-1C345.88,788.73,346.25,789.07,346.62,789.4z"/>
		<path class="st1" d="M773.33,788.64c-0.27,0.83-0.84,1.3-1.7,1.45C771.88,789.22,772.46,788.75,773.33,788.64z"/>
		<path class="st1" d="M771.73,790c-0.18,0.82-0.73,1.22-1.54,1.32C770.43,790.56,770.94,790.12,771.73,790z"/>
		<path class="st1" d="M770.25,791.27c-0.18,0.79-0.67,1.22-1.48,1.28C769.26,792.12,769.76,791.69,770.25,791.27z"/>
		<path class="st1" d="M842.08,706.77c0.08,0.8-0.27,1.32-1.03,1.56C841.39,707.81,841.74,707.29,842.08,706.77z"/>
		<path class="st1" d="M768.75,792.56c-0.17,0.74-0.61,1.18-1.4,1.19C767.82,793.35,768.29,792.95,768.75,792.56z"/>
		<path class="st1" d="M767.19,793.85c-0.11,0.63-0.44,1.02-1.13,0.98C766.44,794.51,766.82,794.18,767.19,793.85z"/>
		<path class="st1" d="M821.48,794.91c0.11-0.79,0.55-1.26,1.34-1.39C822.78,794.37,822.33,794.83,821.48,794.91z"/>
		<path class="st1" d="M765.15,795.44c-0.28,0.84-0.88,1.27-1.74,1.39C763.7,796,764.29,795.55,765.15,795.44z"/>
		<path class="st1" d="M820.13,796.28c0.11-0.79,0.57-1.25,1.36-1.38C821.43,795.74,820.98,796.2,820.13,796.28z"/>
		<path class="st1" d="M763.5,796.76c-0.19,0.8-0.71,1.21-1.53,1.26C762.25,797.31,762.75,796.89,763.5,796.76z"/>
		<path class="st1" d="M818.77,797.64c0.12-0.79,0.57-1.25,1.37-1.37C820.07,797.11,819.62,797.57,818.77,797.64z"/>
		<path class="st1" d="M847.52,697.24c0.1,0.8-0.22,1.34-0.99,1.6C846.54,698.1,846.88,697.58,847.52,697.24z"/>
		<path class="st1" d="M761.97,798.02c-0.19,0.74-0.63,1.17-1.43,1.16C761.02,798.79,761.5,798.41,761.97,798.02z"/>
		<path class="st1" d="M817.41,799c0.12-0.79,0.57-1.25,1.37-1.37C818.71,798.48,818.25,798.93,817.41,799z"/>
		<path class="st1" d="M858.41,675.45c0.12,0.86-0.17,1.52-0.98,1.91C857.44,676.56,857.75,675.92,858.41,675.45z"/>
		<path class="st1" d="M816.05,800.36c0.12-0.79,0.57-1.25,1.37-1.37C817.35,799.84,816.89,800.29,816.05,800.36z"/>
		<path class="st1" d="M758.14,800.93c-0.21,0.82-0.78,1.18-1.59,1.23C756.83,801.42,757.35,801,758.14,800.93z"/>
		<path class="st1" d="M814.68,801.71c0.12-0.79,0.58-1.24,1.37-1.36C815.98,801.2,815.53,801.65,814.68,801.71z"/>
		<path class="st1" d="M829.89,725.78c0.04,0.82-0.36,1.33-1.14,1.56C829.13,726.82,829.51,726.3,829.89,725.78z"/>
		<path class="st1" d="M873.6,727.15c-0.05-0.8,0.22-1.4,1.03-1.66C874.65,726.26,874.29,726.81,873.6,727.15z"/>
		<path class="st1" d="M813.3,803.04c0.13-0.79,0.6-1.22,1.39-1.33C814.61,802.56,814.15,803.01,813.3,803.04z"/>
		<path class="st1" d="M828.81,727.26c-0.08,0.88-0.46,1.55-1.31,1.89C827.56,728.26,827.98,727.62,828.81,727.26z"/>
		<path class="st1" d="M310.23,807.17c0.78,0.1,1.26,0.52,1.4,1.31C310.78,808.46,310.32,808.02,310.23,807.17z"/>
		<path class="st1" d="M804.15,811.51c0.08-0.77,0.5-1.19,1.29-1.19C805.01,810.72,804.58,811.12,804.15,811.51z"/>
		<path class="st1" d="M802.7,812.86c0.12-0.78,0.57-1.2,1.36-1.26C803.86,812.29,803.4,812.7,802.7,812.86z"/>
		<path class="st1" d="M316.77,813.04c0.8-0.01,1.22,0.41,1.3,1.19C317.64,813.83,317.21,813.44,316.77,813.04z"/>
		<path class="st1" d="M801.25,814.16c0.13-0.81,0.63-1.22,1.43-1.29C802.46,813.58,801.98,814.01,801.25,814.16z"/>
		<path class="st1" d="M318.16,814.3c0.79,0.06,1.26,0.47,1.39,1.26C318.83,815.42,318.36,815,318.16,814.3z"/>
		<path class="st1" d="M799.81,815.45c0.14-0.82,0.65-1.22,1.46-1.3C801.07,814.9,800.59,815.34,799.81,815.45z"/>
		<path class="st1" d="M319.54,815.56c0.81,0.07,1.31,0.47,1.46,1.29C320.24,816.72,319.76,816.29,319.54,815.56z"/>
		<path class="st1" d="M798.36,816.68c0.16-0.81,0.69-1.18,1.47-1.26C799.67,816.22,799.19,816.66,798.36,816.68z"/>
		<path class="st1" d="M850.39,691.77c0.05,0.9-0.26,1.61-1.1,2.02C849.3,692.92,849.65,692.24,850.39,691.77z"/>
		<path class="st1" d="M320.97,816.83c0.79,0.08,1.33,0.44,1.48,1.26C321.65,818.04,321.16,817.61,320.97,816.83z"/>
		<path class="st1" d="M793.2,821.02c0.1-0.79,0.54-1.19,1.35-1.18C794.1,820.24,793.65,820.63,793.2,821.02z"/>
		<path class="st1" d="M326.3,821.23c0.8-0.03,1.24,0.38,1.34,1.16C327.2,822,326.75,821.61,326.3,821.23z"/>
		<path class="st1" d="M791.7,822.31c0.14-0.81,0.65-1.19,1.45-1.24C792.92,821.77,792.44,822.19,791.7,822.31z"/>
		<path class="st1" d="M327.7,822.43c0.8,0.05,1.31,0.43,1.45,1.24C328.41,823.55,327.93,823.13,327.7,822.43z"/>
		<path class="st1" d="M790.22,823.52c0.16-0.82,0.72-1.16,1.5-1.23C791.51,823.06,791.02,823.49,790.22,823.52z"/>
		<path class="st1" d="M329.13,823.65c0.78,0.06,1.34,0.39,1.51,1.21C329.83,824.84,329.34,824.42,329.13,823.65z"/>
		<path class="st1" d="M827.03,729.92c0.09,0.8-0.35,1.2-1.07,1.38C826.31,730.84,826.67,730.38,827.03,729.92z"/>
		<path class="st1" d="M784.91,827.76c0.15-0.8,0.65-1.17,1.44-1.2C786.13,827.27,785.65,827.67,784.91,827.76z"/>
		<path class="st1" d="M334.5,827.88c0.79,0.04,1.32,0.39,1.47,1.21C335.23,828.99,334.75,828.58,334.5,827.88z"/>
		<path class="st1" d="M783.4,828.94c0.18-0.82,0.75-1.13,1.52-1.18C784.7,828.52,784.21,828.93,783.4,828.94z"/>
		<path class="st1" d="M339.94,832.03c0.79,0.01,1.3,0.36,1.46,1.16C340.66,833.12,340.17,832.73,339.94,832.03z"/>
		<path class="st1" d="M825.97,731.29c-0.02,0.82-0.39,1.38-1.2,1.61C824.84,732.13,825.25,731.6,825.97,731.29z"/>
		<path class="st1" d="M777.99,833.07c0.18-0.83,0.76-1.13,1.54-1.17C779.27,832.63,778.78,833.04,777.99,833.07z"/>
		<path class="st1" d="M839.55,710.86c0.01,0.88-0.34,1.53-1.18,1.88C838.42,711.9,838.81,711.26,839.55,710.86z"/>
		<path class="st1" d="M845.24,378.33c0.81,0.26,1.08,0.86,1,1.66C845.59,379.63,845.24,379.08,845.24,378.33z"/>
		<path class="st1" d="M345.39,836.07c0.78,0.01,1.33,0.32,1.5,1.14C346.12,837.19,345.63,836.79,345.39,836.07z"/>
		<path class="st1" d="M772.49,837.06c0.21-0.81,0.8-1.08,1.56-1.1C773.8,836.7,773.3,837.1,772.49,837.06z"/>
		<path class="st1" d="M869.46,733.93c-0.02-0.8,0.25-1.4,1.07-1.65C870.54,733.07,870.17,733.61,869.46,733.93z"/>
		<path class="st1" d="M768.5,839.92c0.17-0.82,0.74-1.11,1.51-1.12C769.76,839.52,769.27,839.91,768.5,839.92z"/>
		<path class="st1" d="M823.07,735.31c0.02,0.81-0.4,1.28-1.16,1.49C822.29,736.31,822.68,735.81,823.07,735.31z"/>
		<path class="st1" d="M841.26,371.45c0.81,0.28,1.06,0.89,1.01,1.68C841.57,372.8,841.21,372.25,841.26,371.45z"/>
		<path class="st1" d="M821.93,736.76c-0.05,0.82-0.42,1.38-1.24,1.6C820.77,737.57,821.19,737.05,821.93,736.76z"/>
		<path class="st1" d="M866.82,738.04c-0.03-0.8,0.28-1.37,1.09-1.6C867.86,737.19,867.49,737.72,866.82,738.04z"/>
		<path class="st1" d="M837.95,713.58c0.08,0.79-0.31,1.26-1.04,1.49C837.26,714.57,837.6,714.08,837.95,713.58z"/>
		<path class="st1" d="M818.94,740.75c0,0.79-0.42,1.24-1.16,1.43C818.17,741.71,818.56,741.23,818.94,740.75z"/>
		<path class="st1" d="M864.12,742.13c-0.03-0.8,0.31-1.35,1.11-1.56C865.18,741.32,864.8,741.83,864.12,742.13z"/>
		<path class="st1" d="M817.79,742.18c-0.04,0.82-0.45,1.34-1.26,1.54C816.66,742.98,817.09,742.47,817.79,742.18z"/>
		<path class="st1" d="M816.61,743.64c-0.09,0.8-0.46,1.38-1.28,1.59C815.37,744.4,815.81,743.88,816.61,743.64z"/>
		<path class="st1" d="M861.37,746.21c-0.02-0.8,0.32-1.35,1.12-1.56C862.45,745.4,862.06,745.92,861.37,746.21z"/>
		<path class="st1" d="M837.09,364.7c0.82,0.24,1.11,0.83,1.07,1.63C837.47,366.01,837.1,365.47,837.09,364.7z"/>
		<path class="st1" d="M879.09,717.64c-0.07-0.8,0.18-1.4,0.99-1.68C880.1,716.72,879.76,717.27,879.09,717.64z"/>
		<path class="st1" d="M834.45,360.56c0.82,0.25,1.08,0.86,1.08,1.65C834.79,361.91,834.42,361.37,834.45,360.56z"/>
		<path class="st1" d="M848.96,694.51c0.08,0.87-0.25,1.5-1.06,1.86C847.92,695.56,848.27,694.94,848.96,694.51z"/>
		<path class="st1" d="M813.51,747.56c-0.01,0.79-0.44,1.23-1.18,1.4C812.72,748.5,813.12,748.03,813.51,747.56z"/>
		<path class="st1" d="M831.73,356.47c0.82,0.25,1.1,0.86,1.11,1.65C832.09,357.82,831.7,357.29,831.73,356.47z"/>
		<path class="st1" d="M812.31,748.98c-0.05,0.82-0.48,1.31-1.28,1.49C811.46,749.97,811.89,749.48,812.31,748.98z"/>
		<path class="st1" d="M858.57,750.26c0.01-0.8,0.34-1.37,1.15-1.58C859.67,749.45,859.27,749.97,858.57,750.26z"/>
		<path class="st1" d="M835.34,717.62c0.06,0.83-0.32,1.36-1.11,1.6C834.6,718.68,834.97,718.15,835.34,717.62z"/>
		<path class="st1" d="M346.65,871.5c0.03,0.88-0.31,1.56-1.14,1.93C345.54,872.58,345.91,871.93,346.65,871.5z"/>
		<path class="st1" d="M811.09,750.41c-0.1,0.81-0.5,1.35-1.32,1.54C809.89,751.16,810.34,750.65,811.09,750.41z"/>
		<path class="st1" d="M345.14,874.23c0.09,0.81-0.24,1.34-1.02,1.6C344.14,875.09,344.49,874.57,345.14,874.23z"/>
		<path class="st1" d="M809.85,751.86c-0.11,0.8-0.52,1.36-1.34,1.55C808.58,752.56,809.03,752.05,809.85,751.86z"/>
		<path class="st1" d="M311.3,754.25c-0.71-0.13-1.12-0.52-1.13-1.27C310.55,753.41,310.92,753.83,311.3,754.25z"/>
		<path class="st1" d="M855.72,754.29c0.04-0.79,0.34-1.39,1.16-1.61C856.89,753.5,856.48,754.03,855.72,754.29z"/>
		<path class="st1" d="M341.18,881.02c0.04,0.88-0.29,1.54-1.13,1.9C340.09,882.09,340.46,881.45,341.18,881.02z"/>
		<path class="st1" d="M828.95,352.43c0.82,0.22,1.13,0.81,1.14,1.61C829.36,353.75,828.96,353.23,828.95,352.43z"/>
		<path class="st1" d="M339.67,883.76c0.09,0.8-0.25,1.33-1.01,1.58C339,884.82,339.33,884.29,339.67,883.76z"/>
		<path class="st2" d="M215.64,385.94l0.39-0.31l-0.08-0.49c0.05-0.78,0.56-1.33,0.98-1.92c0.42-0.21,0.53-0.52,0.34-0.95
			c0.12-0.7,0.63-1.19,0.97-1.77c0.42-0.24,0.54-0.58,0.37-1.03c0.58-0.95,0.33-2.29,1.45-2.97l-0.06,0.1
			c0.57-0.89,0.34-2.18,1.42-2.82l-0.06,0.1c0.56-0.89,0.34-2.19,1.42-2.82l-0.07,0.11c0.3-0.54,0.61-1.06,0.95-1.57
			c0.43-0.23,0.56-0.57,0.39-1.02c0.18-0.66,0.67-1.14,1.01-1.7c0.43-0.19,0.55-0.5,0.38-0.93c0.15-0.72,0.62-1.24,1.04-1.8
			c0.42-0.13,0.54-0.4,0.35-0.8c0.06-0.82,0.6-1.38,1.11-1.95l0.03-0.06c0.89-0.64,0.59-1.95,1.44-2.62l-0.01,0.02
			c0.77-0.75,0.48-2.08,1.5-2.69l-0.06,0.1c0.33-0.51,0.66-1.02,1.01-1.52c0.43-0.17,0.57-0.47,0.41-0.91
			c0.14-0.76,0.65-1.29,1.12-1.85l0.03-0.07c0.9-0.63,0.58-1.97,1.51-2.58l-0.04,0.06c0.37-0.46,0.7-0.95,1-1.46
			c0.44-0.18,0.59-0.49,0.45-0.95c0.16-0.75,0.66-1.27,1.16-1.81l0.02-0.04c0.87-0.64,0.54-2.03,1.57-2.57l-0.07,0.1
			c0.32-0.54,0.68-1.05,1.07-1.54l0.41-0.23l-0.03-0.47c0.03-0.91,0.56-1.5,1.28-1.97l-0.05,0.07c0.36-0.49,0.71-0.98,1.05-1.48
			c0.44-0.11,0.58-0.38,0.43-0.8c0.08-0.86,0.59-1.42,1.26-1.88l-0.03,0.05c0.38-0.47,0.73-0.95,1.06-1.45
			c0.44-0.09,0.58-0.35,0.44-0.77c0.07-0.88,0.58-1.47,1.3-1.9l-0.05,0.08c0.28-0.59,0.82-0.98,1.13-1.55l0.07-0.13
			c0.98-0.52,0.59-1.97,1.66-2.43l-0.08,0.1c0.18-0.69,0.76-1.08,1.19-1.59l0.02-0.04c0.44-0.35,0.78-0.79,1.02-1.3
			c0.46-0.13,0.64-0.43,0.52-0.89c0.14-0.82,0.63-1.38,1.32-1.79l-0.05,0.07c0.29-0.59,0.82-0.99,1.18-1.52l0.05-0.08
			c0.92-0.55,0.52-2.07,1.75-2.39l-0.09,0.1c0.08-0.8,0.63-1.23,1.25-1.61l-0.05,0.07c0.28-0.6,0.82-1.01,1.21-1.52l0.04-0.06
			c0.46-0.33,0.8-0.76,1.05-1.26c0.46-0.07,0.63-0.34,0.53-0.79c0.09-0.9,0.57-1.5,1.41-1.82l-0.09,0.11
			c0.2-0.7,0.72-1.15,1.28-1.56l-0.03,0.04c0.35-0.54,0.85-0.94,1.21-1.47l0.07-0.09c0.46-0.31,0.82-0.72,1.06-1.22
			c0.45-0.04,0.63-0.28,0.54-0.72c0.06-0.95,0.54-1.58,1.47-1.85l-0.1,0.11c0.14-0.78,0.66-1.23,1.33-1.55l-0.07,0.08
			c0.26-0.66,0.78-1.09,1.31-1.5l-0.02,0.02c0.37-0.52,0.86-0.94,1.26-1.43l0.05-0.06c0.47-0.38,0.87-0.82,1.19-1.34l0.13-0.17
			c0.49-0.23,0.83-0.6,1.01-1.11c0.47-0.03,0.67-0.28,0.61-0.74c0.08-0.95,0.54-1.59,1.51-1.79l-0.1,0.11
			c0.1-0.83,0.61-1.29,1.38-1.51l-0.08,0.09c0.18-0.76,0.68-1.22,1.37-1.51l-0.08,0.08c0.26-0.68,0.76-1.14,1.38-1.49l-0.06,0.06
			c0.31-0.62,0.8-1.08,1.38-1.45l-0.04,0.04c0.35-0.57,0.83-1.02,1.35-1.43l-0.01,0.01c0.39-0.51,0.86-0.95,1.32-1.4l0.02-0.02
			c0.44-0.44,0.88-0.9,1.31-1.35l0.04-0.04c0.46-0.42,0.89-0.87,1.31-1.33l0.05-0.05c0.47-0.41,0.9-0.84,1.3-1.32l0.06-0.06
			c0.47-0.4,0.91-0.83,1.3-1.3l0.06-0.06c0.47-0.4,0.91-0.83,1.3-1.3l0.06-0.06c0.47-0.4,0.91-0.83,1.3-1.3l0.06-0.06
			c0.47-0.4,0.91-0.83,1.32-1.3l0.05-0.05c0.47-0.41,0.91-0.85,1.33-1.3l0.04-0.04c0.46-0.43,0.91-0.87,1.35-1.31l0.02-0.02
			c0.45-0.45,0.89-0.92,1.39-1.31l-0.01,0.01c0.42-0.51,0.86-0.99,1.43-1.34l-0.04,0.04c0.37-0.58,0.82-1.07,1.45-1.38l-0.06,0.06
			c0.34-0.62,0.81-1.11,1.47-1.38l-0.08,0.07c0.3-0.68,0.76-1.18,1.51-1.36l-0.08,0.08c0.21-0.77,0.67-1.27,1.5-1.38l-0.1,0.09
			c0.2-0.96,0.84-1.41,1.78-1.5c0.47,0.06,0.72-0.15,0.76-0.62c0.51-0.17,0.88-0.5,1.09-1l0.19-0.14c0.52-0.31,0.95-0.7,1.33-1.17
			l0.07-0.06c0.47-0.42,0.94-0.84,1.42-1.25l-0.01,0.01c0.42-0.53,0.85-1.04,1.5-1.3l-0.07,0.06c0.33-0.66,0.78-1.17,1.54-1.32
			l-0.1,0.09c0.26-0.91,0.88-1.38,1.82-1.46c0.45,0.09,0.7-0.09,0.75-0.55c0.5-0.23,0.91-0.58,1.2-1.04l0.11-0.08
			c0.48-0.4,0.97-0.8,1.45-1.21l-0.02,0.02c0.41-0.54,0.83-1.09,1.54-1.27l-0.09,0.08c0.33-0.81,0.91-1.29,1.79-1.4
			c0.46,0.1,0.74-0.08,0.83-0.55c0.5-0.23,0.92-0.57,1.23-1.03l0.09-0.06c0.51-0.39,0.91-0.91,1.5-1.2l-0.06,0.04
			c0.4-0.67,0.94-1.14,1.71-1.33c0.5,0.09,0.83-0.11,0.98-0.59c0.51-0.17,0.9-0.5,1.17-0.97l0.13-0.08c0.54-0.34,0.93-0.87,1.5-1.17
			l-0.05,0.04c0.42-0.66,0.96-1.15,1.76-1.3c0.48,0.11,0.79-0.07,0.93-0.54c0.51-0.23,0.93-0.56,1.27-1l0.07-0.04
			c0.5-0.42,0.89-0.98,1.56-1.18l-0.08,0.07c0.46-1.05,1.9-0.65,2.4-1.63l0.17-0.09c0.5-0.38,1.01-0.75,1.52-1.12l-0.06,0.04
			c0.43-0.69,1-1.19,1.84-1.29c0.43,0.14,0.7,0,0.83-0.43c0.5-0.33,0.98-0.68,1.44-1.05l-0.04,0.02c0.45-0.66,1.01-1.16,1.85-1.26
			c0.43,0.14,0.71,0,0.84-0.43c0.5-0.33,0.98-0.68,1.44-1.05l-0.04,0.03c0.46-0.69,1.04-1.2,1.92-1.26l0.49,0.03l0.27-0.41
			c0.49-0.38,1-0.73,1.52-1.06l-0.07,0.05c0.55-1.01,1.92-0.66,2.54-1.55l0.09-0.04c0.53-0.47,1.04-0.96,1.75-1.14
			c0.46,0.13,0.8-0.02,1-0.45c0.5-0.29,0.98-0.62,1.42-1l-0.03,0.02c0.61-0.9,1.94-0.56,2.54-1.48l0.12-0.05
			c0.54-0.44,1.05-0.94,1.76-1.12c0.45,0.14,0.78,0,0.99-0.42c0.5-0.32,1-0.65,1.49-0.99l-0.06,0.04c0.61-0.98,1.93-0.68,2.65-1.48
			l0.03-0.01c0.66-0.82,1.96-0.49,2.57-1.41l0.12-0.05c0.56-0.47,1.09-0.98,1.85-1.09c0.41,0.17,0.71,0.05,0.89-0.36
			c0.55-0.39,1.03-0.87,1.72-1.04c0.44,0.15,0.78,0.02,1.01-0.39c0.55-0.32,1.02-0.78,1.63-1c0.46,0.14,0.83,0.01,1.09-0.4
			c0.53-0.33,1.06-0.66,1.59-0.98c0.48,0.14,0.86,0,1.14-0.41c0.53-0.31,1.04-0.63,1.55-0.96c0.48,0.14,0.87,0,1.17-0.4
			c0.53-0.31,1.05-0.62,1.57-0.95c0.47,0.15,0.86,0.02,1.15-0.38c0.53-0.33,1.07-0.65,1.62-0.96c0.46,0.15,0.83,0.03,1.1-0.37
			c0.57-0.31,1.03-0.8,1.68-0.97c0.43,0.16,0.78,0.05,1.04-0.34c0.57-0.39,1.09-0.87,1.81-0.99c0.4,0.19,0.71,0.08,0.91-0.31
			c0.75-0.68,1.98-0.36,2.63-1.25l0.09-0.03c0.79-0.75,2.02-0.52,2.8-1.27c0.43-0.12,0.87-0.24,1.3-0.36
			c0.54-0.31,1.08-0.62,1.63-0.92c0.44,0.17,0.8,0.07,1.08-0.31c0.6-0.43,1.15-0.94,1.94-0.97l0.46,0.11l0.3-0.36
			c0.81-0.78,2.05-0.54,2.9-1.22c0.47,0.17,0.87,0.07,1.2-0.3c0.6-0.39,1.14-0.89,1.9-0.94l0.48,0.11l0.33-0.36
			c0.84-0.77,2.07-0.57,2.97-1.2c0.44,0.18,0.82,0.09,1.13-0.28c0.81-0.64,2.01-0.37,2.76-1.16c0.44-0.09,0.89-0.19,1.33-0.28
			c0.61-0.36,1.15-0.87,1.91-0.91c0.73-0.16,1.45-0.33,2.18-0.49c0.61-0.28,1.08-0.82,1.8-0.89c0.76-0.16,1.52-0.33,2.29-0.49
			c0.61-0.26,1.08-0.8,1.79-0.87c0.77-0.16,1.53-0.31,2.3-0.47c0.61-0.31,1.13-0.82,1.86-0.87c0.74-0.15,1.48-0.3,2.22-0.44
			c0.85-0.53,1.99-0.3,2.74-1.08c0.45-0.07,0.89-0.14,1.34-0.21c0.91-0.59,2.07-0.48,2.98-1.06c0.83-0.14,1.65-0.27,2.48-0.41
			c0.86-0.47,1.98-0.26,2.73-1.04c0.45-0.06,0.89-0.13,1.34-0.19c0.99-0.59,2.16-0.62,3.21-1.02c0.74-0.12,1.49-0.24,2.23-0.36
			c1-0.57,2.17-0.62,3.22-1c0.74-0.11,1.48-0.23,2.22-0.34c1.25-0.95,2.99-0.04,4.2-1.14c0.87-0.1,1.74-0.19,2.62-0.29
			c1.01-0.5,2.16-0.57,3.2-0.96c1.2-0.14,2.4-0.27,3.6-0.41c1.08-0.45,2.23-0.64,3.35-0.95c1.15-0.12,2.31-0.24,3.46-0.37
			c1.41-0.81,3.13-0.23,4.54-1.01c1.66-0.14,3.33-0.27,4.99-0.41c1.38-0.73,3.06-0.11,4.4-0.98c1.71-0.11,3.42-0.23,5.12-0.34
			c1.89-0.93,4.09-0.02,5.97-0.99c1.54,0.39,3.08,0.32,4.62-0.04c1.29,0.97,3.07,0.14,4.35,1.15c0.23,0.37,0.55,0.46,0.94,0.27
			c0.7,0.14,1.22,0.61,1.78,1.02c0.16,0.41,0.45,0.53,0.86,0.36c0.83,0.12,1.4,0.61,1.8,1.32l-0.07-0.06
			c0.62,0.3,1.06,0.8,1.47,1.32l-0.01-0.01c0.53,0.41,1.01,0.85,1.35,1.43l-0.05-0.06c0.65,0.41,1.13,0.96,1.32,1.72
			c-0.14,0.46,0.02,0.78,0.46,0.96c0.31,0.51,0.62,1.02,0.94,1.52l-0.06-0.11c1.47,1.12,0.41,3.07,1.43,4.35
			c0.08,0.8,0.15,1.59,0.23,2.39c0.65,0.9,0.65,1.81-0.01,2.71c-0.09,0.76-0.17,1.52-0.26,2.28c-0.45,1.02-0.43,2.2-1.06,3.16
			c-0.41,0.21-0.51,0.52-0.31,0.94c-0.14,0.73-0.65,1.24-1.06,1.81l-0.08,0.17c-0.96,0.5-0.55,1.97-1.67,2.36l0.06-0.06
			c-0.19,0.73-0.67,1.19-1.37,1.44l0.04-0.04c-0.26,0.7-0.69,1.2-1.47,1.28l0.29,0.25l-0.27-0.27c-0.37,1.22-1.78,0.83-2.45,1.59
			l-0.09,0.05c-0.7,0.85-1.91,0.62-2.7,1.26l-0.02,0.01c-2.01,1.79-4.73-0.07-6.81,1.33l-0.05-0.06c-3.39,2.15-7.38-0.21-10.84,1.43
			l-0.05-0.05c-2.87,2.09-6.44-0.25-9.37,1.48l-0.11,0.02c-2.04,1.65-4.72-0.14-6.8,1.28l-0.04-0.03c-1.95,1.88-4.71-0.11-6.74,1.41
			l-0.04-0.01c-1.57,1.58-3.81,0.14-5.49,1.23l-0.07,0c-1.45,1.86-3.75,0.25-5.39,1.33l-0.09,0c-1.38,1.95-3.76,0.19-5.32,1.44
			l-0.05,0c-1.38,1.82-3.78,0.04-5.27,1.48l-0.11,0.03c-1.11,1.26-2.89,0.27-4.09,1.23l-0.05,0.01c-1.04,1.47-2.85,0.42-4.09,1.26
			l-0.08,0.02c-0.96,1.62-2.81,0.49-4.02,1.31l-0.08,0.03c-0.91,1.67-2.81,0.48-3.99,1.37l-0.07,0.02c-0.91,1.62-2.85,0.4-3.97,1.44
			l-0.04,0.01c-0.94,1.48-2.88,0.26-3.93,1.44l-0.11,0.04c-0.75,0.85-1.87,0.72-2.82,1.05l-0.09,0.05
			c-0.79,1.74-2.83,0.38-3.85,1.55l-0.05,0.02c-0.72,0.91-1.87,0.75-2.81,1.12l-0.08,0.04c-0.76,1.71-2.82,0.32-3.76,1.58
			l-0.15,0.06c-0.73,0.81-1.9,0.6-2.72,1.21l-0.04,0.02c-0.67,0.97-1.87,0.76-2.76,1.23l-0.05,0.03c-0.59,1.13-1.79,0.89-2.73,1.22
			l-0.09,0.06c-5.32,2.92-10.81,5.47-16.26,8.12l-0.08,0.04c-0.43,1.28-1.74,0.93-2.6,1.41l-0.04,0.03
			c-0.51,1.14-1.82,0.82-2.61,1.44l-0.03,0.02c-0.58,0.99-1.87,0.67-2.58,1.42l-0.1,0.06c-1.3,0.99-2.6,1.96-4.18,2.47l-0.04,0.03
			c-0.46,1.15-1.82,0.81-2.55,1.5l-0.04,0.03c-1.24,1.09-2.62,1.96-4.16,2.57l-0.02,0.02c-0.47,1.1-1.83,0.73-2.48,1.51l-0.13,0.08
			c-0.4,0.51-0.91,0.86-1.54,1.04l0.21,0.33l-0.23-0.32c-0.37,1.22-1.78,0.83-2.46,1.57l-0.08,0.05c-0.38,0.55-0.9,0.9-1.55,1.06
			l0.2,0.35l-0.23-0.33c-0.33,1.26-1.75,0.85-2.42,1.6l-0.08,0.06c-0.39,0.54-0.9,0.91-1.54,1.09c-0.35,1.21-1.78,0.8-2.4,1.6
			l-0.14,0.09c-0.41,0.49-0.9,0.87-1.48,1.12l0,0c-1.01,1.37-2.62,1.91-3.94,2.83l-0.04,0.03c-0.38,0.56-0.76,1.12-1.54,1.16
			c-0.89,1.5-2.57,1.95-3.88,2.9l-0.03,0.03c-0.38,0.56-0.77,1.1-1.51,1.19c-0.89,1.45-2.61,1.83-3.8,2.92l-0.12,0.09
			c-0.42,0.47-0.89,0.87-1.42,1.21l0.01-0.01c-0.33,0.62-0.73,1.15-1.5,1.23c-0.83,1.47-2.62,1.77-3.68,2.97l-0.2,0.15
			c-0.44,0.37-0.88,0.76-1.3,1.15l-0.09,0.07c-0.4,0.49-0.87,0.9-1.4,1.25l0.01-0.01c-0.33,0.6-0.75,1.1-1.46,1.29l0.02-0.02
			c-0.25,0.7-0.68,1.2-1.47,1.28c-0.13,0.81-0.54,1.31-1.43,1.27l0.34,0.38l-0.35-0.37c-1.2,1.97-3.3,2.95-4.94,4.44l-0.17,0.15
			c-0.44,0.37-0.86,0.76-1.25,1.18l-0.13,0.13c-0.42,0.41-0.84,0.82-1.27,1.23l-0.1,0.1c-0.41,0.45-0.84,0.87-1.3,1.26l-0.07,0.06
			c-0.4,0.47-0.84,0.9-1.31,1.3l-0.05,0.05c-0.4,0.48-0.83,0.92-1.31,1.31l-0.05,0.05c-0.4,0.48-0.83,0.92-1.31,1.31l-0.05,0.05
			c-0.4,0.48-0.83,0.92-1.31,1.31l-0.05,0.05c-0.4,0.48-0.83,0.92-1.31,1.31l-0.05,0.05c-0.4,0.47-0.83,0.91-1.3,1.31l-0.06,0.07
			c-0.4,0.46-0.82,0.89-1.27,1.3l-0.09,0.09c-0.41,0.43-0.82,0.86-1.23,1.29l-0.11,0.12c-1.72,2.31-3.52,4.56-5.78,6.38
			c0.02,0.88-0.48,1.3-1.29,1.46l0.27,0.24l-0.24-0.27c-0.1,0.79-0.6,1.22-1.3,1.49l0.04-0.04c-0.2,0.7-0.71,1.12-1.3,1.47
			l0.02-0.02c-0.36,0.52-0.78,1-1.25,1.42l-0.06,0.07c-0.41,0.42-0.8,0.86-1.16,1.33l-0.14,0.18c-0.91,0.47-0.46,2.05-1.77,2.19
			c0.08,0.9-0.46,1.3-1.23,1.52l0.04-0.05c-0.14,0.74-0.65,1.17-1.26,1.53l0.02-0.03c-0.35,0.53-0.76,1.01-1.21,1.45l-0.07,0.1
			c-1.13,1.17-1.51,2.91-2.95,3.83l0.05-0.05c-0.12,0.74-0.67,1.14-1.22,1.54l-0.01,0.01c-0.98,1.31-1.44,3-2.93,3.92l0.05-0.05
			c-0.07,0.77-0.64,1.16-1.19,1.57l-0.01,0.02c-0.96,1.33-1.51,2.94-2.85,3.99l0.04-0.05c-0.17,0.67-0.73,1.05-1.15,1.54l-0.06,0.1
			c-0.86,0.6-0.47,2.05-1.65,2.44l0.06-0.06c-0.05,0.76-0.65,1.14-1.13,1.59l-0.03,0.05c-0.8,0.66-0.41,2.11-1.65,2.48l0.05-0.06
			c0.01,0.79-0.61,1.16-1.1,1.62l-0.03,0.04c-0.79,0.68-0.43,2.1-1.62,2.52l0.06-0.07c-0.05,0.75-0.66,1.12-1.09,1.61l-0.04,0.08
			c-0.85,0.65-0.5,2.03-1.56,2.54l0.05-0.07c-0.16,0.65-0.74,1.02-1.06,1.57l-0.09,0.19c-0.97,0.54-0.6,1.88-1.47,2.48l-0.01,0.01
			c-0.75,0.73-0.43,2.1-1.55,2.61l0.05-0.08c-0.27,0.57-0.61,1.09-1.01,1.58l-0.41,0.26l0.04,0.48c-0.03,0.86-0.56,1.43-1.15,1.96
			l-0.03,0.05c-0.82,0.69-0.51,2.01-1.46,2.63l0.02-0.03c-0.68,0.8-0.4,2.12-1.48,2.7l0.04-0.06c-0.56,0.87-0.27,2.21-1.49,2.72
			l0.06-0.09c-0.03,0.71-0.62,1.09-0.95,1.63c-0.43,0.15-0.55,0.43-0.36,0.84c-0.08,0.78-0.57,1.33-1.05,1.89l-0.39,0.28l0.07,0.47
			c-0.03,0.84-0.58,1.4-1.07,1.99l-0.05,0.13c-0.94,0.61-0.58,1.86-1.29,2.58l-0.39,0.28l0.08,0.47c-0.03,0.82-0.55,1.39-1.03,1.97
			c-0.42,0.15-0.53,0.43-0.32,0.82c-0.44,1.06-0.23,2.43-1.47,3.11l0.06-0.09c-0.44,0.95-0.26,2.2-1.32,2.87l0.04-0.07
			c-0.56,0.89-0.39,2.11-1.29,2.85l0.01-0.03c-0.7,0.81-0.51,2.01-1.25,2.8l-0.02,0.07c-1.37,0.95,0,3.04-1.62,3.89l0.05-0.09
			c-0.5,0.93-0.37,2.11-1.21,2.9l0,0c-0.76,0.75-0.53,1.94-1.18,2.74c-0.41,0.24-0.51,0.57-0.3,0.99c-0.51,0.99-0.41,2.22-1.21,3.1
			l-0.01,0.03c-1.29,1.04-0.08,3-1.46,4.01l0.02-0.05c-0.67,0.82-0.49,1.98-1.12,2.81c-0.4,0.28-0.49,0.64-0.27,1.08
			c-0.58,0.93-0.45,2.12-1.12,3.01c-0.4,0.26-0.49,0.61-0.26,1.03c-0.54,0.96-0.44,2.14-1.1,3.05c-0.39,0.28-0.48,0.64-0.25,1.07
			c-0.57,0.93-0.47,2.09-1.07,3.01c-0.39,0.33-0.47,0.73-0.25,1.19c-1.11,1.22-0.09,3.08-1.29,4.27l-0.35,0.29l0.16,0.42
			c-0.31,1.13-0.44,2.32-1.03,3.36c-0.39,0.32-0.46,0.7-0.22,1.14c-1.04,1.26-0.14,3.05-1.2,4.31c-0.4,0.27-0.47,0.61-0.21,1.02
			c-0.93,1.34-0.13,3.12-1.15,4.43c-0.4,0.29-0.46,0.64-0.2,1.05c-0.94,1.32-0.18,3.06-1.1,4.39c-0.11,0.68-0.21,1.35-0.32,2.03
			c-0.67,1.53-0.18,3.32-1.08,4.79c-0.38,0.36-0.43,0.75-0.16,1.2c-1.32,1.68,0,3.9-1.15,5.6c-0.1,0.77-0.19,1.54-0.29,2.3
			c-1.28,2.27,0.25,5-1.19,7.24c-0.4,0.31-0.44,0.67-0.13,1.07c-1.47,2.67,0.26,5.78-1.16,8.45c-0.46,1.08-0.76,2.18-0.23,3.33
			c-1.33,3.33,0.22,6.96-1.11,10.29c-0.48,2.04-0.9,4.08-0.26,6.16c-0.94,12.67-0.93,25.33,0,38c-0.58,1.66-0.25,3.27,0.23,4.87
			c1.48,3.71-0.3,7.74,1.12,11.46c-0.42,1.21-0.15,2.37,0.28,3.52c1.2,2.33-0.08,5.02,1.07,7.35c-0.31,0.77-0.17,1.49,0.24,2.17
			c1.39,2.19-0.22,4.88,1.19,7.06c-0.29,0.41-0.24,0.78,0.14,1.1c1.23,1.82,0.1,4.1,1.15,5.96c0.11,0.74,0.22,1.48,0.32,2.22
			c0.86,1.39,0.22,3.12,1.05,4.51c-0.29,0.37-0.23,0.68,0.18,0.92c1.39,1.63-0.13,3.94,1.29,5.57c-0.24,0.47-0.18,0.88,0.2,1.25
			c0.94,1.26,0.04,3.01,1.15,4.22c-0.24,0.46-0.17,0.87,0.21,1.22c0.55,1.08,0.73,2.26,1.01,3.42l-0.15,0.38l0.31,0.27
			c1.21,1.25,0.3,3.11,1.27,4.44c-0.25,0.41-0.17,0.75,0.23,1.02c0.63,1.04,0.76,2.25,1.07,3.39l-0.15,0.41l0.34,0.27
			c1.21,1.14,0.14,3.01,1.31,4.16l-0.01-0.05c1.29,1.11,0.22,3,1.36,4.15l-0.02-0.06c1.33,1.08,0.21,2.99,1.4,4.12l-0.01-0.04
			c1.3,1.05,0.12,2.98,1.43,4.04l0.01,0.02c0.77,0.91,0.71,2.13,1.19,3.14c-0.22,0.41-0.13,0.72,0.28,0.95
			c0.67,0.82,0.48,2,1.16,2.82l-0.03-0.07c0.93,0.88,0.87,2.14,1.28,3.23l-0.1,0.49l0.38,0.33c0.72,0.8,0.5,2.01,1.21,2.81
			l-0.02-0.05c0.92,0.81,0.77,2.08,1.3,3.06c-0.2,0.43-0.09,0.76,0.32,1c0.44,0.61,0.97,1.18,0.97,2.01l-0.1,0.44l0.37,0.26
			c0.76,0.77,0.5,2.01,1.27,2.77l-0.01-0.02c0.84,0.76,0.65,1.99,1.31,2.83l-0.03-0.07c0.95,0.72,0.76,1.96,1.34,2.86l-0.05-0.1
			c1.08,0.7,0.84,2.03,1.43,2.97c-0.17,0.46-0.05,0.8,0.37,1.05c0.35,0.51,0.66,1.04,0.94,1.59l-0.08-0.12
			c1.12,0.61,0.89,1.91,1.44,2.81l-0.06-0.1c1.1,0.61,0.86,1.92,1.45,2.79l-0.05-0.09c1.04,0.62,0.79,1.94,1.46,2.76l-0.04-0.07
			c0.95,0.66,0.69,1.96,1.45,2.72l-0.01-0.03c0.85,0.67,0.55,1.97,1.44,2.63l0.02,0.05c0.5,0.56,1.03,1.11,1.12,1.91
			c-0.17,0.42-0.05,0.69,0.38,0.83c0.38,0.5,0.72,1.02,1.01,1.58l-0.07-0.11c1.09,0.56,0.79,1.92,1.55,2.67l-0.02-0.03
			c0.66,0.51,1.19,1.1,1.21,2l-0.05,0.46l0.4,0.23c0.36,0.52,0.92,0.92,1.06,1.59l-0.08-0.11c1.11,0.52,0.78,1.91,1.59,2.61l0,0
			c0.57,0.51,1.08,1.06,1.19,1.86c-0.15,0.44,0,0.73,0.45,0.86c0.32,0.5,0.66,0.99,1.03,1.45l-0.04-0.06
			c0.69,0.47,1.21,1.05,1.26,1.93l-0.02,0.49l0.42,0.25c0.36,0.5,0.72,0.99,1.07,1.49l-0.05-0.08c0.72,0.44,1.23,1.03,1.3,1.91
			c-0.15,0.42,0,0.67,0.43,0.76c0.34,0.5,0.69,0.98,1.07,1.44l-0.03-0.05c0.65,0.45,1.15,1.01,1.27,1.83
			c-0.13,0.45,0.04,0.74,0.49,0.87c0.27,0.51,0.62,0.95,1.04,1.33l0.01,0.01c0.46,0.48,1.04,0.88,1.19,1.6l-0.09-0.1
			c1.1,0.41,0.7,1.89,1.69,2.39l0.09,0.14c0.36,0.51,0.75,1.01,1.15,1.49l-0.03-0.04c0.56,0.42,1.1,0.85,1.23,1.61l-0.09-0.1
			c1.17,0.35,0.75,1.86,1.74,2.34l0.09,0.15c0.35,0.51,0.74,1,1.16,1.45l-0.01-0.01c0.51,0.44,1.07,0.85,1.25,1.56l-0.08-0.1
			c0.82,0.33,1.3,0.92,1.41,1.8c-0.09,0.47,0.09,0.74,0.56,0.82c0.22,0.51,0.56,0.91,1.03,1.19l0.08,0.11
			c0.39,0.49,0.79,0.98,1.21,1.45l-0.01-0.02c0.52,0.43,1.05,0.85,1.29,1.52l-0.07-0.08c0.68,0.32,1.2,0.77,1.32,1.56l-0.09-0.1
			c1.18,0.27,0.74,1.84,1.79,2.21l0.18,0.23c0.24,0.54,0.62,0.97,1.13,1.27l0.1,0.12c0.36,0.5,0.77,0.96,1.22,1.37l0.03,0.03
			c0.44,0.47,0.93,0.9,1.28,1.45l-0.03-0.03c0.56,0.39,1.06,0.83,1.35,1.47l-0.06-0.07c0.64,0.33,1.14,0.79,1.37,1.5l-0.08-0.08
			c0.73,0.26,1.23,0.72,1.38,1.51l-0.09-0.09c0.8,0.19,1.3,0.65,1.39,1.5l-0.09-0.1c0.96,0.16,1.4,0.79,1.53,1.71
			c-0.04,0.5,0.2,0.77,0.7,0.82c0.11,0.53,0.42,0.85,0.94,0.97l0.25,0.26c0.18,0.56,0.55,0.93,1.11,1.13l0.22,0.24
			c0.21,0.55,0.59,0.93,1.13,1.15l0.21,0.21c0.22,0.54,0.6,0.93,1.15,1.15l0.21,0.21c0.23,0.54,0.6,0.93,1.15,1.15l0.21,0.21
			c0.23,0.54,0.6,0.93,1.15,1.15l0.21,0.21c0.22,0.54,0.6,0.93,1.15,1.14l0.22,0.22c0.21,0.55,0.59,0.92,1.14,1.12l0.24,0.23
			c0.19,0.56,0.57,0.92,1.13,1.1l0.26,0.24c0.3,1.06,1.95,0.61,2.09,1.85l-0.07-0.07c0.89,0.04,1.34,0.54,1.49,1.38l-0.08-0.08
			c0.83,0.11,1.29,0.61,1.49,1.39l-0.08-0.08c0.77,0.17,1.22,0.67,1.51,1.37l-0.08-0.07c0.68,0.25,1.14,0.75,1.49,1.37l-0.06-0.05
			c0.61,0.3,1.05,0.8,1.47,1.32l-0.01-0.01c0.48,0.41,0.95,0.84,1.42,1.27l0.06,0.05c0.38,0.47,0.83,0.86,1.34,1.19l0.17,0.13
			c0.23,0.49,0.6,0.82,1.11,1c0.07,0.48,0.34,0.69,0.82,0.61c0.9,0.11,1.5,0.57,1.76,1.45l-0.1-0.09c0.75,0.16,1.2,0.68,1.55,1.31
			l-0.06-0.06c0.63,0.27,1.04,0.79,1.5,1.27l0.02,0.01c0.43,0.44,0.9,0.83,1.4,1.17l0.17,0.12c0.23,0.49,0.6,0.81,1.11,0.97
			c0.12,0.49,0.44,0.7,0.94,0.62c0.81,0.16,1.37,0.63,1.73,1.36l-0.08-0.06c0.64,0.24,1.05,0.78,1.52,1.23l0.04,0.03
			c0.38,0.43,0.82,0.79,1.32,1.08c0.07,0.44,0.32,0.6,0.75,0.48c0.92,0.06,1.52,0.56,1.87,1.39l-0.09-0.07
			c0.7,0.18,1.1,0.74,1.56,1.22l0.02,0.01c0.4,0.42,0.85,0.77,1.35,1.06c0.09,0.44,0.36,0.6,0.79,0.48
			c0.88,0.08,1.46,0.58,1.85,1.33l-0.08-0.06c0.63,0.23,1.02,0.78,1.54,1.17l0.1,0.06c0.3,0.45,0.7,0.78,1.21,0.96
			c0.19,0.47,0.53,0.66,1.04,0.57c0.71,0.21,1.23,0.68,1.7,1.22l0.02,0.01c0.39,0.41,0.84,0.75,1.34,1.01
			c0.17,0.45,0.48,0.61,0.95,0.49c0.76,0.16,1.3,0.64,1.77,1.22l0.01,0.01c1.57,0.94,2.05-0.72,3-1.26l-0.07,0.1
			c0.28-0.57,0.63-1.1,1.02-1.59c0.43-0.13,0.55-0.39,0.37-0.8c0.07-0.83,0.6-1.38,1.14-1.93l0.02-0.03c0.85-0.68,0.55-2,1.49-2.63
			l-0.04,0.07c0.36-0.46,0.69-0.95,0.98-1.46c0.44-0.21,0.59-0.55,0.45-1.02c0.18-0.68,0.66-1.18,1.06-1.72l0.41-0.28l-0.05-0.49
			c0.05-0.85,0.58-1.41,1.15-1.95l0.01-0.02c0.83-0.7,0.53-2.03,1.49-2.65l-0.05,0.08c0.35-0.48,0.68-0.98,0.99-1.49
			c0.44-0.2,0.58-0.53,0.43-0.98c0.18-0.69,0.64-1.21,1.08-1.75l0.4-0.25l-0.05-0.47c0.02-0.88,0.56-1.46,1.17-2l0,0
			c0.8-0.72,0.51-2.05,1.5-2.66l-0.05,0.09c0.34-0.49,0.67-1,1-1.5c0.44-0.19,0.58-0.51,0.42-0.96c0.17-0.73,0.68-1.24,1.1-1.81
			l0.05-0.11c0.95-0.59,0.62-1.91,1.46-2.56l-0.01,0.01c0.78-0.73,0.49-2.07,1.51-2.67l-0.07,0.11c0.31-0.66,0.79-1.14,1.44-1.44
			l-0.09,0.06c0.4-0.52,0.76-0.52,1.09,0.07l-0.1-0.1c0.86,0.34,1.35,0.95,1.41,1.89l-0.06,0.46l0.4,0.24
			c0.43,0.54,0.89,1.06,1.08,1.74c-0.15,0.46,0,0.79,0.44,1c0.3,0.51,0.63,1,0.99,1.47l-0.04-0.07c0.94,0.62,0.64,1.96,1.5,2.63
			l0.02,0.04c0.53,0.55,1.05,1.1,1.14,1.91c-0.17,0.42-0.04,0.69,0.38,0.83c0.38,0.5,0.72,1.02,1.02,1.57l-0.07-0.11
			c1.08,0.57,0.78,1.92,1.54,2.67l-0.02-0.03c0.87,0.64,0.54,1.97,1.47,2.58l0.04,0.09c0.45,0.56,0.96,1.08,1.12,1.82
			c-0.16,0.45-0.02,0.76,0.42,0.94c0.33,0.51,0.66,1.01,1,1.51l-0.05-0.09c0.99,0.6,0.69,1.95,1.51,2.65l0.01,0.01
			c0.58,0.54,1.11,1.1,1.16,1.95l-0.05,0.49l0.41,0.28c0.34,0.53,0.91,0.92,1.02,1.61l-0.08-0.11c1.14,0.53,0.84,1.9,1.55,2.68
			l-0.03-0.05c0.92,0.63,0.6,1.96,1.49,2.61l0.03,0.06c0.5,0.55,1.02,1.09,1.13,1.88c-0.17,0.43-0.03,0.72,0.4,0.87
			c0.36,0.5,0.7,1.02,1.01,1.54l-0.07-0.1c1.04,0.58,0.74,1.93,1.52,2.67l-0.01-0.02c0.63,0.53,1.17,1.12,1.19,2.02l-0.06,0.46
			l0.39,0.23c0.45,0.54,0.9,1.07,1.08,1.77c-0.15,0.46,0,0.78,0.44,0.97c0.31,0.51,0.64,1,0.99,1.48l-0.05-0.08
			c0.96,0.62,0.65,1.95,1.5,2.64l0.01,0.03c0.55,0.54,1.07,1.1,1.15,1.92c-0.17,0.41-0.05,0.68,0.38,0.8
			c0.39,0.5,0.72,1.03,1.02,1.58l-0.08-0.11c1.1,0.56,0.8,1.92,1.54,2.68l-0.02-0.04c0.89,0.64,0.56,1.97,1.48,2.59l0.04,0.08
			c0.46,0.56,0.98,1.09,1.11,1.85c-0.16,0.44-0.02,0.74,0.42,0.91c0.34,0.5,0.67,1.01,1.01,1.51l-0.06-0.09
			c1,0.6,0.7,1.94,1.51,2.66l0,0c0.6,0.53,1.14,1.11,1.17,1.98l-0.05,0.48l0.4,0.26c0.42,0.54,0.87,1.05,1.07,1.72
			c-0.14,0.47,0.01,0.81,0.45,1.02c0.29,0.51,0.61,1,0.98,1.45l-0.04-0.06c0.93,0.63,0.61,1.96,1.49,2.61l0.02,0.05
			c0.51,0.55,1.03,1.1,1.13,1.9c-0.17,0.42-0.04,0.7,0.39,0.84c0.37,0.5,0.71,1.02,1.02,1.55l-0.07-0.1
			c1.05,0.58,0.76,1.93,1.52,2.68l-0.01-0.02c0.86,0.64,0.53,1.97,1.47,2.56l0.04,0.1c0.43,0.57,0.94,1.08,1.11,1.81
			c-0.15,0.45-0.01,0.77,0.43,0.96c0.32,0.51,0.65,1.01,1,1.49l-0.05-0.08c0.97,0.61,0.67,1.95,1.5,2.64l0.01,0.02
			c0.56,0.54,1.09,1.1,1.15,1.94c-0.18,0.4-0.05,0.67,0.37,0.78c0.4,0.49,0.74,1.03,1.02,1.59l-0.08-0.11
			c1.11,0.55,0.82,1.91,1.54,2.68l-0.02-0.04c0.9,0.63,0.58,1.96,1.48,2.59l0.03,0.07c0.47,0.56,0.99,1.09,1.12,1.86
			c-0.16,0.43-0.03,0.73,0.4,0.9c0.35,0.5,0.69,1.01,1.01,1.53l-0.06-0.1c1.02,0.59,0.72,1.94,1.52,2.66l0,0
			c0.96,1.49,0.55,2.72-1.03,3.18c-1.51,0.44-3.16,0.18-4.74,0.18c-39.25,0-78.5,0.04-117.75-0.13c-1.9-0.01-6.37,2.47-5.54-3.14
			l-0.08,0.12c0.29-0.55,0.63-1.08,1.01-1.58c0.43-0.14,0.56-0.42,0.38-0.84c0.09-0.8,0.62-1.35,1.13-1.9l0.02-0.05
			c0.88-0.66,0.57-1.98,1.48-2.62l-0.03,0.05c0.72-0.78,0.42-2.14,1.54-2.69l-0.08,0.11c0.12-0.67,0.69-1.06,1.02-1.6
			c0.42-0.13,0.55-0.4,0.37-0.8c0.07-0.83,0.6-1.38,1.14-1.93l0.01-0.03c0.85-0.68,0.55-2.01,1.48-2.64l-0.04,0.07
			c0.36-0.46,0.69-0.95,0.98-1.46c0.44-0.21,0.59-0.55,0.45-1.02c0.18-0.68,0.66-1.18,1.07-1.72l0.41-0.27l-0.05-0.49
			c0.05-0.85,0.58-1.42,1.15-1.96l0.01-0.02c0.83-0.69,0.53-2.03,1.5-2.64l-0.05,0.08c0.35-0.48,0.68-0.98,0.99-1.49
			c0.44-0.2,0.58-0.53,0.43-0.99c0.19-0.69,0.64-1.21,1.08-1.75l0.4-0.25l-0.05-0.47c0.02-0.88,0.56-1.46,1.17-2l0,0
			c0.8-0.72,0.51-2.05,1.5-2.66l-0.05,0.09c0.34-0.5,0.67-1,1-1.51c0.15-0.29,0.33-0.57,0.43-0.87c0.05-0.14-0.07-0.34-0.11-0.51
			c-0.53-0.41-0.97-0.9-1.32-1.47l-0.03-0.02c-1.38-0.86-2.87-1.55-4.06-2.7l-0.03-0.02c-1.37-0.87-2.9-1.51-4.02-2.75l-0.02-0.02
			c-1.41-0.82-2.98-1.4-3.98-2.8l0,0.01c-0.6-0.24-1.1-0.62-1.5-1.14l-0.1-0.07c-1.26-1-2.88-1.51-3.91-2.83l0.01,0.01
			c-0.56-0.29-1.05-0.68-1.46-1.16l-0.12-0.09c-1.21-1.06-2.87-1.5-3.85-2.87l0.01,0.01c-0.68-0.17-1.08-0.68-1.47-1.21l-0.07-0.05
			c-1.24-1.01-3-1.37-3.79-2.96c-0.82-0.02-1.23-0.54-1.52-1.21l0.02,0.01c-0.66-0.21-1.06-0.71-1.45-1.24l-0.05-0.04
			c-0.46-0.38-0.9-0.76-1.34-1.16l-0.19-0.14c-1.06-1.19-2.89-1.46-3.66-3c-0.79-0.06-1.22-0.57-1.48-1.26l0.02,0.02
			c-0.69-0.2-1.11-0.7-1.46-1.29l0,0c-0.52-0.36-0.98-0.78-1.39-1.26l-0.08-0.07c-0.44-0.39-0.87-0.79-1.3-1.19l-0.16-0.13
			c-1.68-1.45-3.75-2.46-4.98-4.43c-0.9,0.02-1.32-0.46-1.41-1.31c-0.84-0.05-1.28-0.53-1.41-1.33l-0.27,0.28l0.28-0.26
			c-0.79-0.11-1.23-0.59-1.44-1.33l0.03,0.03c-0.73-0.19-1.18-0.66-1.43-1.36l0.03,0.03c-0.69-0.24-1.15-0.7-1.4-1.38l0.03,0.03
			c-0.7-0.22-1.15-0.7-1.41-1.36l0.03,0.02c-0.67-0.26-1.13-0.72-1.39-1.38l0.02,0.02c-0.66-0.26-1.12-0.72-1.39-1.38l0.02,0.02
			c-0.66-0.26-1.12-0.72-1.38-1.39l0.03,0.03c-0.67-0.27-1.14-0.72-1.37-1.41l0.03,0.03c-0.68-0.26-1.14-0.72-1.39-1.4l0.04,0.04
			c-0.69-0.25-1.16-0.71-1.37-1.42l0.03,0.03c-0.72-0.22-1.2-0.67-1.36-1.43l0.03,0.03c-0.77-0.18-1.26-0.62-1.33-1.44l-0.28,0.31
			l0.3-0.29c-0.83-0.11-1.32-0.54-1.32-1.42c-1.95-1.23-2.93-3.33-4.44-4.96l-0.14-0.16c-0.37-0.46-0.76-0.89-1.18-1.3l-0.08-0.09
			c-0.46-0.42-0.88-0.88-1.25-1.38l-0.01-0.01c-0.55-0.38-1.05-0.8-1.29-1.46l0.03,0.04c-0.66-0.3-1.16-0.74-1.3-1.5l0.04,0.04
			c-0.78-0.2-1.3-0.61-1.26-1.5l-0.31,0.39l0.33-0.38c-1.3-0.16-0.85-1.73-1.77-2.19l-0.14-0.19c-0.35-0.47-0.74-0.92-1.15-1.34
			l-0.06-0.07c-0.47-0.43-0.98-0.84-1.24-1.45l0.03,0.03c-0.63-0.34-1.15-0.77-1.26-1.53l0.04,0.05c-1.52-0.86-1.87-2.63-2.99-3.81
			l-0.06-0.08c-0.45-0.45-0.97-0.85-1.21-1.48l0.03,0.04c-0.65-0.33-1.19-0.75-1.22-1.57l0.05,0.05c-1.25-0.28-0.82-1.79-1.72-2.33
			l-0.09-0.14c-0.42-0.46-0.81-0.95-1.16-1.46l0.02,0.03c-0.61-0.37-1.15-0.79-1.19-1.59l0.05,0.05c-1.24-0.31-0.83-1.8-1.7-2.38
			l-0.07-0.11c-0.41-0.49-0.95-0.88-1.16-1.51l0.04,0.05c-1.29-1.09-1.88-2.68-2.82-4.02l-0.01-0.01c-0.56-0.41-1.11-0.83-1.15-1.61
			l0.06,0.06c-1.25-0.35-0.86-1.81-1.66-2.46l-0.03-0.05c-0.48-0.46-1.08-0.83-1.13-1.59l0.06,0.07c-1.19-0.41-0.82-1.84-1.63-2.5
			l-0.03-0.06c-0.47-0.47-1.08-0.84-1.1-1.61l0.06,0.07c-1.23-0.4-0.86-1.83-1.63-2.53l-0.01-0.02c-0.53-0.44-1.11-0.85-1.07-1.65
			l0.06,0.06c-1.34-0.35-0.96-1.79-1.63-2.56l0.02,0.03c-0.97-0.57-0.63-1.92-1.52-2.54l-0.05-0.11c-0.39-0.52-1.02-0.88-1.05-1.63
			l0.06,0.08c-1.21-0.46-0.88-1.85-1.58-2.61l0.01,0.03c-0.93-0.61-0.61-1.94-1.48-2.58l-0.04-0.09c-0.41-0.51-1.07-0.87-1.02-1.67
			l0.07,0.08c-1.3-0.44-0.98-1.81-1.54-2.67l0.04,0.06c-1.1-0.56-0.8-1.9-1.5-2.68l0.02,0.03c-0.93-0.64-0.65-1.94-1.43-2.66
			l-0.02-0.03c-0.82-0.68-0.53-1.96-1.39-2.62l-0.03-0.08c-0.75-0.71-0.43-1.97-1.35-2.58l-0.05-0.12c-0.5-0.59-1.04-1.15-1.07-1.99
			l0.08-0.47l-0.39-0.27c-0.5-0.58-1.01-1.15-1.05-1.97l0.08-0.47l-0.39-0.28c-0.5-0.58-1.01-1.15-1.05-1.97l0.08-0.47l-0.39-0.28
			c-0.71-0.73-0.36-1.98-1.29-2.6l-0.04-0.11c-0.7-0.76-0.45-1.98-1.29-2.67l-0.02-0.06c-0.75-0.76-0.54-1.98-1.29-2.75l0,0
			c-0.85-0.75-0.66-1.97-1.29-2.82l0.03,0.06c-1.01-0.77-0.84-2.06-1.35-3.05c0.2-0.43,0.09-0.75-0.32-0.97
			c-0.64-0.78-0.34-1.98-1.21-2.65l-0.02-0.06c-0.74-0.8-0.59-1.99-1.22-2.84l0.03,0.06c-0.97-0.86-0.91-2.14-1.3-3.23l0.11-0.48
			l-0.38-0.32c-0.72-0.81-0.52-2-1.18-2.83l0.02,0.06c-1.41-0.98-0.17-2.96-1.49-3.98l-0.01-0.05c-0.76-0.89-0.68-2.11-1.19-3.1
			c0.22-0.42,0.13-0.74-0.27-0.99c-0.66-0.84-0.5-2-1.11-2.86l0.03,0.08c-1.44-1.03-0.29-2.97-1.43-4.11l0.02,0.05
			c-1.35-1.08-0.25-2.98-1.38-4.14l0.02,0.05c-1.33-1.15-0.31-3.05-1.36-4.29c0.23-0.44,0.14-0.82-0.25-1.12
			c-0.61-0.96-0.58-2.13-1.05-3.13c0.25-0.4,0.17-0.71-0.23-0.94c-1.09-1.17-0.05-2.98-1.25-4.12l0,0.02
			c-1.2-1.28-0.37-3.13-1.25-4.5c0.27-0.39,0.2-0.7-0.21-0.93c-1.08-1.28-0.21-3.08-1.19-4.39c0.26-0.42,0.19-0.77-0.2-1.06
			c-1.01-1.31-0.21-3.09-1.15-4.41c0.27-0.41,0.2-0.75-0.19-1.03c-1-1.39-0.35-3.18-1.12-4.63l0.19-0.46l-0.35-0.35
			c-1.39-1.74-0.07-4.06-1.24-5.85c0.29-0.38,0.23-0.7-0.17-0.96c-1.29-1.8-0.1-4.09-1.17-5.94c-0.1-0.75-0.2-1.49-0.29-2.24
			c-1.11-1.81,0.01-4.04-1.09-5.85c-0.09-0.77-0.18-1.55-0.26-2.32c-1.27-2.25,0.18-4.92-1.12-7.16c-0.08-0.79-0.15-1.58-0.23-2.37
			c-1.33-2.79,0.17-5.94-1.1-8.74c0.46-1.21,0.2-2.37-0.25-3.51c-1.51-4.64,0.37-9.54-1.12-14.18c0.58-3.01,0.16-5.99-0.25-8.97
			c-0.89-6.8-0.89-13.6,0-20.4c0.34-3.39,0.93-6.77,0.23-10.17c1.49-4.23-0.33-8.74,1.13-12.97c0.42-1.19,0.65-2.39,0.25-3.63
			c1.32-2.75-0.2-5.86,1.08-8.62c0.43-1.12,0.7-2.26,0.3-3.45c1.16-2.36-0.2-5.12,1.15-7.45c0.39-0.33,0.44-0.7,0.13-1.12
			c1.44-2.17-0.23-4.89,1.23-7.05c0.4-0.3,0.45-0.65,0.15-1.05c1.21-1.75-0.05-4,1.15-5.75c0.38-0.35,0.43-0.75,0.16-1.18
			c1.34-1.67-0.07-3.95,1.23-5.63c0.39-0.29,0.45-0.64,0.18-1.05c0.94-1.32,0.19-3.06,1.1-4.39c0.37-0.36,0.44-0.78,0.2-1.24
			c1.12-1.2,0.22-2.95,1.14-4.2c0.07-0.43,0.14-0.85,0.21-1.28c1.17-1.17,0.21-2.94,1.18-4.17c0.38-0.34,0.45-0.73,0.22-1.18
			c1.09-1.23,0.14-3.04,1.23-4.27c0.4-0.24,0.48-0.55,0.22-0.94c0.47-1.01,0.45-2.17,1.04-3.14c0.38-0.34,0.46-0.73,0.24-1.19
			c1.11-1.21,0.1-3.08,1.32-4.26l-0.01,0.02c1.24-1.12,0.13-2.99,1.32-4.12l0.36-0.28l-0.14-0.43c0.34-1.14,0.39-2.38,1.14-3.37
			l0.36-0.28l-0.14-0.43c0.33-1.14,0.39-2.38,1.18-3.36l0,0.01c1.26-1.08,0.08-3.02,1.45-4.06l-0.02,0.06
			c0.68-0.82,0.5-1.98,1.14-2.82c0.4-0.26,0.49-0.6,0.28-1.02c0.55-0.97,0.44-2.2,1.22-3.08l0.01-0.02c0.83-0.7,0.59-1.87,1.16-2.69
			c0.41-0.28,0.51-0.64,0.31-1.09c0.6-0.93,0.46-2.16,1.24-3.01l0.01-0.02c0.84-0.7,0.57-1.89,1.2-2.69c0.4-0.24,0.51-0.57,0.31-1
			c0.54-0.98,0.37-2.26,1.33-3.05l-0.03,0.06c0.68-0.83,0.5-2.05,1.28-2.83l0-0.01C215.22,387.94,214.93,386.71,215.64,385.94z"/>
		<path class="st1" d="M327.63,883c0.03,1.04-0.45,2.4,1.24,2.53c1.58,0.13,3.17,0.09,4.75,0.09c39.2-0.03,78.4-0.07,117.59-0.11
			c1.36,0,2.72,0.02,4.07-0.08c1.65-0.12,1.29-1.48,1.41-2.52c1.4,2.47,1.18,3.74-0.76,3.93c-1.57,0.15-3.17,0.13-4.75,0.13
			c-39.44,0.01-78.87,0.01-118.31,0.01c-1.58,0-3.18,0.01-4.75-0.15C326.16,886.63,326,885.18,327.63,883z"/>
		<path class="st1" d="M343.83,840.57c1.69,0.4,3.08,1.24,4.06,2.7C345.82,843.43,344.46,842.55,343.83,840.57z"/>
		<path class="st1" d="M339.77,837.81c1.68,0.42,3.06,1.28,4.02,2.75C341.73,840.7,340.36,839.84,339.77,837.81z"/>
		<path class="st1" d="M335.78,834.99c1.7,0.4,3.04,1.32,3.98,2.8C337.64,837.97,336.23,837.16,335.78,834.99z"/>
		<path class="st1" d="M369.83,809.51c-0.91,2.8-0.91,2.8-3,1.26C367.84,810.36,368.83,809.94,369.83,809.51z"/>
		<path class="st1" d="M390.2,774.06c-0.07,1.13-0.41,2.12-1.51,2.67C388.68,775.55,388.95,774.53,390.2,774.06z"/>
		<path class="st1" d="M388.7,776.72c0.03,1.15-0.54,1.95-1.46,2.56C387.29,778.18,387.59,777.22,388.7,776.72z"/>
		<path class="st1" d="M398.19,782.1c-1.04-0.56-1.46-1.48-1.5-2.63C397.88,779.96,398.17,780.95,398.19,782.1z"/>
		<path class="st1" d="M384.73,783.58c-0.06,1.14-0.42,2.1-1.5,2.66C383.23,785.07,383.5,784.05,384.73,783.58z"/>
		<path class="st1" d="M402.21,789.01c-1.11-0.55-1.44-1.55-1.54-2.67C401.97,786.78,402.23,787.81,402.21,789.01z"/>
		<path class="st1" d="M403.67,791.56c-0.96-0.59-1.48-1.44-1.47-2.58C403.33,789.48,403.62,790.45,403.67,791.56z"/>
		<path class="st1" d="M379.26,793.1c-0.04,1.14-0.44,2.08-1.49,2.65C377.78,794.59,378.06,793.58,379.26,793.1z"/>
		<path class="st1" d="M407.7,798.48c-1.07-0.56-1.45-1.51-1.51-2.65C407.41,796.3,407.69,797.31,407.7,798.48z"/>
		<path class="st1" d="M373.8,802.62c-0.02,1.14-0.44,2.07-1.49,2.63C372.33,804.11,372.61,803.11,373.8,802.62z"/>
		<path class="st1" d="M411.72,805.38c-1.13-0.54-1.43-1.56-1.55-2.68C411.55,803.1,411.76,804.17,411.72,805.38z"/>
		<path class="st1" d="M413.18,807.94c-1.01-0.57-1.47-1.46-1.49-2.61C412.86,805.82,413.15,806.81,413.18,807.94z"/>
		<path class="st1" d="M417.2,814.86c-1.09-0.55-1.44-1.53-1.52-2.67C416.95,812.65,417.21,813.67,417.2,814.86z"/>
		<path class="st1" d="M422.69,824.32c-1.05-0.56-1.46-1.49-1.5-2.64C422.39,822.17,422.67,823.17,422.69,824.32z"/>
		<path class="st1" d="M426.71,831.23c-1.11-0.55-1.44-1.55-1.54-2.68C426.48,828.99,426.74,830.03,426.71,831.23z"/>
		<path class="st1" d="M428.17,833.78c-0.97-0.59-1.48-1.44-1.48-2.59C427.84,831.68,428.13,832.66,428.17,833.78z"/>
		<path class="st1" d="M432.2,840.7c-1.09-0.56-1.44-1.52-1.51-2.66C431.92,838.51,432.2,839.53,432.2,840.7z"/>
		<path class="st1" d="M347.97,847.57c-0.06,1.14-0.42,2.1-1.5,2.67C346.47,849.06,346.74,848.05,347.97,847.57z"/>
		<path class="st1" d="M437.68,850.16c-1.02-0.57-1.47-1.47-1.49-2.61C437.37,848.03,437.65,849.02,437.68,850.16z"/>
		<path class="st1" d="M441.7,857.08c-1.11-0.55-1.43-1.55-1.52-2.68C441.46,854.86,441.72,855.89,441.7,857.08z"/>
		<path class="st1" d="M342.51,857.09c-0.04,1.14-0.44,2.08-1.5,2.64C341.02,858.58,341.3,857.57,342.51,857.09z"/>
		<path class="st1" d="M443.16,859.62c-0.94-0.6-1.49-1.42-1.47-2.56C442.81,857.55,443.11,858.51,443.16,859.62z"/>
		<path class="st1" d="M447.19,866.54c-1.06-0.56-1.45-1.5-1.5-2.64C446.9,864.37,447.18,865.38,447.19,866.54z"/>
		<path class="st1" d="M451.21,873.45c-1.12-0.54-1.43-1.56-1.54-2.68C451.03,871.17,451.24,872.24,451.21,873.45z"/>
		<path class="st1" d="M452.67,876c-0.99-0.58-1.48-1.45-1.48-2.59C452.34,873.89,452.63,874.87,452.67,876z"/>
		<path class="st1" d="M456.7,882.92c-1.09-0.55-1.44-1.53-1.52-2.66C456.43,880.72,456.7,881.74,456.7,882.92z"/>
		<path class="st1" d="M392.57,772.85c-0.37,0.02-0.73,0-1.09-0.07c0.2-0.26,0.4-0.52,0.59-0.78
			C392.24,772.28,392.41,772.57,392.57,772.85z"/>
		<path class="st1" d="M391.57,772.72c-0.48,0.48-0.96,0.96-1.44,1.44C390.31,773.39,390.79,772.91,391.57,772.72z"/>
		<path class="st1" d="M393.89,774.64c-0.84-0.36-1.23-1.05-1.41-1.89C393.37,773.07,393.81,773.72,393.89,774.64z"/>
		<path class="st1" d="M395.31,777.08c-0.79-0.32-1.15-0.89-1.08-1.74C394.59,775.92,394.95,776.5,395.31,777.08z"/>
		<path class="st1" d="M396.73,779.55c-0.72-0.23-1.12-0.67-0.99-1.47C396.08,778.57,396.41,779.06,396.73,779.55z"/>
		<path class="st1" d="M387.19,779.39c0.07,0.87-0.29,1.48-1.1,1.81C386.46,780.6,386.83,779.99,387.19,779.39z"/>
		<path class="st1" d="M385.67,782.16c0.13,0.81-0.24,1.28-1,1.5C385.01,783.16,385.34,782.66,385.67,782.16z"/>
		<path class="st1" d="M399.35,784.05c-0.83-0.36-1.17-1.03-1.14-1.91C398.93,782.57,399.31,783.21,399.35,784.05z"/>
		<path class="st1" d="M400.75,786.44c-0.76-0.25-1.11-0.77-1.02-1.57C400.07,785.4,400.41,785.92,400.75,786.44z"/>
		<path class="st1" d="M383.23,786.24c0.01,0.9-0.31,1.6-1.17,2C382.09,787.36,382.46,786.69,383.23,786.24z"/>
		<path class="st1" d="M338.09,789.24c-0.86-0.15-1.47-0.61-1.76-1.45C337.23,787.89,337.83,788.36,338.09,789.24z"/>
		<path class="st1" d="M339.53,790.47c-0.8-0.1-1.36-0.49-1.55-1.31C338.79,789.26,339.3,789.71,339.53,790.47z"/>
		<path class="st1" d="M381.71,788.96c0.07,0.85-0.29,1.43-1.08,1.75C381,790.12,381.36,789.54,381.71,788.96z"/>
		<path class="st1" d="M340.97,791.68c-0.81-0.05-1.32-0.47-1.5-1.27C339.97,790.84,340.47,791.26,340.97,791.68z"/>
		<path class="st1" d="M342.39,792.87c-0.79,0-1.22-0.44-1.4-1.17C341.45,792.09,341.92,792.48,342.39,792.87z"/>
		<path class="st1" d="M380.21,791.69c0.13,0.81-0.26,1.26-0.99,1.49C379.55,792.68,379.88,792.19,380.21,791.69z"/>
		<path class="st1" d="M404.82,793.47c-0.81-0.34-1.17-0.95-1.12-1.82C404.39,792.06,404.76,792.67,404.82,793.47z"/>
		<path class="st1" d="M343.67,793.96c-0.68,0.03-1.01-0.35-1.12-0.97C342.93,793.31,343.3,793.63,343.67,793.96z"/>
		<path class="st1" d="M346.34,795.94c-0.85-0.11-1.45-0.53-1.73-1.36C345.46,794.68,346.04,795.13,346.34,795.94z"/>
		<path class="st1" d="M406.24,795.92c-0.75-0.22-1.14-0.69-1-1.51C405.57,794.91,405.91,795.42,406.24,795.92z"/>
		<path class="st1" d="M347.78,797.11c-0.82-0.03-1.33-0.44-1.52-1.23C346.77,796.29,347.27,796.7,347.78,797.11z"/>
		<path class="st1" d="M377.76,795.77c0.02,0.89-0.31,1.57-1.15,1.95C376.64,796.86,377.01,796.2,377.76,795.77z"/>
		<path class="st1" d="M349.14,798.21c-0.8,0.08-1.16-0.37-1.32-1.08C348.26,797.49,348.7,797.85,349.14,798.21z"/>
		<path class="st1" d="M351.75,800.08c-0.88-0.12-1.54-0.53-1.87-1.39C350.79,798.77,351.43,799.2,351.75,800.08z"/>
		<path class="st1" d="M376.25,798.49c0.08,0.84-0.29,1.41-1.06,1.72C375.54,799.63,375.89,799.06,376.25,798.49z"/>
		<path class="st1" d="M408.87,800.45c-0.85-0.38-1.18-1.06-1.16-1.96C408.46,798.92,408.83,799.58,408.87,800.45z"/>
		<path class="st1" d="M353.22,801.22c-0.82-0.02-1.35-0.41-1.56-1.22C352.41,800.11,352.93,800.52,353.22,801.22z"/>
		<path class="st1" d="M745.48,799.91c-0.2,0.76-0.67,1.19-1.48,1.17C744.49,800.69,744.98,800.3,745.48,799.91z"/>
		<path class="st1" d="M354.58,802.29c-0.8,0.09-1.17-0.36-1.35-1.06C353.69,801.58,354.14,801.94,354.58,802.29z"/>
		<path class="st1" d="M374.74,801.23c0.13,0.79-0.26,1.23-0.98,1.46C374.08,802.2,374.41,801.71,374.74,801.23z"/>
		<path class="st1" d="M410.25,802.82c-0.78-0.25-1.11-0.8-1.02-1.61C409.88,801.55,410.23,802.07,410.25,802.82z"/>
		<path class="st1" d="M357.23,804.1c-0.87-0.1-1.53-0.48-1.85-1.33C356.26,802.84,356.89,803.27,357.23,804.1z"/>
		<path class="st1" d="M358.7,805.21c-0.82,0.02-1.33-0.38-1.54-1.17C357.89,804.14,358.4,804.54,358.7,805.21z"/>
		<path class="st1" d="M360.01,806.23c-0.72,0.07-1.05-0.34-1.22-0.96C359.2,805.59,359.61,805.91,360.01,806.23z"/>
		<path class="st1" d="M372.29,805.29c0.03,0.88-0.3,1.56-1.14,1.93C371.19,806.37,371.56,805.72,372.29,805.29z"/>
		<path class="st1" d="M362.75,808.03c-0.85-0.01-1.43-0.41-1.7-1.22C361.84,806.9,362.41,807.3,362.75,808.03z"/>
		<path class="st1" d="M364.11,809.05c-0.79,0.11-1.15-0.34-1.34-1.02C363.21,808.38,363.66,808.71,364.11,809.05z"/>
		<path class="st1" d="M370.79,808.02c0.09,0.81-0.25,1.34-1.02,1.59C369.79,808.88,370.14,808.35,370.79,808.02z"/>
		<path class="st1" d="M414.33,809.88c-0.83-0.36-1.16-1.01-1.13-1.88C413.92,808.42,414.29,809.05,414.33,809.88z"/>
		<path class="st1" d="M366.82,810.77c-0.86-0.02-1.47-0.39-1.77-1.22C365.88,809.62,366.47,810.03,366.82,810.77z"/>
		<path class="st1" d="M415.75,812.29c-0.75-0.25-1.1-0.75-1.01-1.54C415.07,811.26,415.41,811.78,415.75,812.29z"/>
		<path class="st1" d="M418.39,816.86c-0.86-0.4-1.19-1.11-1.19-2.02C417.98,815.28,418.36,815.97,418.39,816.86z"/>
		<path class="st1" d="M419.81,819.31c-0.79-0.32-1.15-0.91-1.08-1.77C419.09,818.14,419.45,818.72,419.81,819.31z"/>
		<path class="st1" d="M421.24,821.76c-0.73-0.23-1.12-0.68-0.99-1.48C420.57,820.78,420.91,821.27,421.24,821.76z"/>
		<path class="st1" d="M423.85,826.28c-0.84-0.37-1.17-1.04-1.15-1.93C423.44,824.78,423.81,825.43,423.85,826.28z"/>
		<path class="st1" d="M425.25,828.66c-0.77-0.25-1.1-0.78-1.02-1.58C424.87,827.41,425.22,827.94,425.25,828.66z"/>
		<path class="st1" d="M429.32,835.71c-0.82-0.35-1.16-0.98-1.11-1.85C428.9,834.28,429.27,834.9,429.32,835.71z"/>
		<path class="st1" d="M430.74,838.13c-0.73-0.24-1.1-0.73-1.01-1.51C430.07,837.12,430.41,837.63,430.74,838.13z"/>
		<path class="st1" d="M433.37,842.68c-0.85-0.39-1.18-1.08-1.17-1.98C432.96,841.14,433.34,841.81,433.37,842.68z"/>
		<path class="st1" d="M347.91,843.3c0.82,0.14,1.69,0.25,1.32,1.47C348.79,844.28,348.35,843.79,347.91,843.3z"/>
		<path class="st1" d="M434.8,845.14c-0.78-0.31-1.15-0.88-1.07-1.72C434.08,843.99,434.44,844.56,434.8,845.14z"/>
		<path class="st1" d="M348.91,846.15c0.13,0.81-0.24,1.28-1,1.51C348.25,847.15,348.58,846.65,348.91,846.15z"/>
		<path class="st1" d="M436.23,847.61c-0.71-0.23-1.11-0.66-0.98-1.45C435.57,846.64,435.9,847.13,436.23,847.61z"/>
		<path class="st1" d="M346.47,850.23c0.01,0.9-0.31,1.6-1.17,2C345.33,851.35,345.7,850.68,346.47,850.23z"/>
		<path class="st1" d="M438.83,852.11c-0.83-0.36-1.16-1.02-1.13-1.9C438.42,850.64,438.79,851.27,438.83,852.11z"/>
		<path class="st1" d="M344.96,852.95c0.08,0.85-0.29,1.43-1.08,1.75C344.24,854.11,344.6,853.53,344.96,852.95z"/>
		<path class="st1" d="M440.25,854.51c-0.76-0.25-1.11-0.75-1.02-1.55C439.57,853.47,439.91,853.99,440.25,854.51z"/>
		<path class="st1" d="M343.45,855.68c0.13,0.8-0.25,1.26-0.99,1.49C342.79,856.68,343.12,856.18,343.45,855.68z"/>
		<path class="st1" d="M341,859.76c0.02,0.89-0.3,1.58-1.15,1.96C339.88,860.86,340.25,860.2,341,859.76z"/>
		<path class="st1" d="M444.31,861.53c-0.81-0.34-1.17-0.95-1.11-1.81C443.88,860.13,444.25,860.74,444.31,861.53z"/>
		<path class="st1" d="M339.49,862.48c0.08,0.84-0.29,1.41-1.07,1.72C338.78,863.62,339.13,863.05,339.49,862.48z"/>
		<path class="st1" d="M445.74,863.98c-0.74-0.22-1.13-0.68-1-1.49C445.07,862.99,445.4,863.48,445.74,863.98z"/>
		<path class="st1" d="M337.98,865.22c0.14,0.8-0.26,1.24-0.98,1.46C337.32,866.19,337.65,865.7,337.98,865.22z"/>
		<path class="st1" d="M448.35,868.5c-0.84-0.37-1.18-1.05-1.15-1.94C447.94,866.99,448.32,867.65,448.35,868.5z"/>
		<path class="st1" d="M449.75,870.88c-0.77-0.25-1.11-0.78-1.02-1.59C449.37,869.62,449.72,870.14,449.75,870.88z"/>
		<path class="st1" d="M453.82,877.93c-0.82-0.35-1.17-0.98-1.12-1.86C453.4,876.49,453.78,877.11,453.82,877.93z"/>
		<path class="st1" d="M455.24,880.35c-0.74-0.24-1.11-0.73-1.01-1.53C454.57,879.33,454.9,879.84,455.24,880.35z"/>
		<path class="st1" d="M312.61,755.75c-0.75-0.15-1.19-0.58-1.22-1.37C311.8,754.84,312.21,755.29,312.61,755.75z"/>
		<path class="st1" d="M854.6,755.74c-0.01-0.8,0.37-1.3,1.15-1.49C855.37,754.75,854.98,755.24,854.6,755.74z"/>
		<path class="st1" d="M843.62,704.04c0.02,0.89-0.31,1.56-1.15,1.93C842.5,705.12,842.87,704.47,843.62,704.04z"/>
		<path class="st1" d="M313.92,757.22c-0.78-0.17-1.22-0.64-1.28-1.45C313.07,756.26,313.49,756.74,313.92,757.22z"/>
		<path class="st1" d="M806.62,755.71c-0.01,0.76-0.42,1.16-1.15,1.28C805.85,756.57,806.24,756.14,806.62,755.71z"/>
		<path class="st1" d="M315.24,758.66c-0.81-0.16-1.26-0.65-1.35-1.47C314.62,757.43,315.07,757.92,315.24,758.66z"/>
		<path class="st1" d="M805.38,757.11c-0.04,0.79-0.48,1.22-1.23,1.36C804.56,758.01,804.97,757.56,805.38,757.11z"/>
		<path class="st1" d="M316.54,760.1c-0.82-0.17-1.25-0.7-1.37-1.5C315.94,758.81,316.4,759.31,316.54,760.1z"/>
		<path class="st1" d="M804.12,758.5c-0.07,0.8-0.51,1.26-1.29,1.42C803.26,759.44,803.69,758.97,804.12,758.5z"/>
		<path class="st1" d="M851.67,759.76c0.05-0.8,0.38-1.37,1.2-1.58C852.83,758.98,852.41,759.49,851.67,759.76z"/>
		<path class="st1" d="M317.85,761.52c-0.82-0.17-1.26-0.69-1.38-1.51C317.27,760.2,317.73,760.7,317.85,761.52z"/>
		<path class="st1" d="M802.84,759.9c-0.09,0.82-0.54,1.3-1.34,1.45C801.95,760.87,802.39,760.38,802.84,759.9z"/>
		<path class="st1" d="M850.51,761.19c0-0.8,0.4-1.28,1.18-1.46C851.29,760.22,850.9,760.7,850.51,761.19z"/>
		<path class="st1" d="M319.16,762.93c-0.81-0.17-1.26-0.69-1.39-1.5C318.6,761.59,319.06,762.08,319.16,762.93z"/>
		<path class="st1" d="M801.55,761.29c-0.12,0.81-0.57,1.3-1.38,1.46C800.35,762,800.81,761.52,801.55,761.29z"/>
		<path class="st3" d="M599.11,860.75c0.8-0.1,1.59-0.21,2.39-0.31c1.25-0.93,2.99-0.03,4.19-1.13c0.88-0.11,1.75-0.21,2.63-0.32
			c0.91-0.5,2.03-0.38,2.9-1.01c0.85-0.12,1.7-0.24,2.55-0.35c0.89-0.5,2.02-0.35,2.84-1.03c0.46,0.23,0.87,0.16,1.23-0.2
			c1.02-0.62,2.21-0.7,3.31-1.05c0.71-0.13,1.43-0.26,2.14-0.39c0.88-0.57,2.04-0.42,2.89-1.07c0.45,0.22,0.85,0.14,1.19-0.22
			c0.92-0.65,2.1-0.57,3.07-1.08c0.8-0.16,1.6-0.31,2.4-0.47c0.61-0.25,1.08-0.79,1.77-0.86c0.77-0.16,1.54-0.33,2.31-0.49
			c0.6-0.25,1.06-0.77,1.73-0.88c0.4,0.22,0.72,0.13,0.97-0.26c0.88-0.72,2.09-0.57,3.03-1.14c0.43,0.2,0.78,0.11,1.06-0.26
			c0.83-0.68,2.03-0.45,2.85-1.16c0.48,0.18,0.89,0.09,1.24-0.29c0.62-0.41,1.17-0.93,1.98-0.94l0.44,0.13l0.28-0.36
			c0.84-0.8,2.08-0.6,2.99-1.21c0.45,0.18,0.82,0.08,1.11-0.3c0.61-0.44,1.19-0.98,2.02-0.97l0.43,0.12l0.26-0.36
			c0.8-0.8,2.05-0.55,2.89-1.25c0.48,0.16,0.89,0.05,1.22-0.33c0.58-0.31,1.06-0.83,1.74-0.95c0.42,0.19,0.74,0.08,0.97-0.31
			c0.6-0.47,1.17-0.99,1.99-1.01l0.45,0.11l0.27-0.37c0.75-0.76,1.99-0.48,2.72-1.27l0.03-0.01c0.75-0.84,2.01-0.59,2.81-1.32
			c0.43-0.14,0.85-0.28,1.28-0.41c0.53-0.26,1.03-0.58,1.5-0.93c0.5,0.14,0.9,0.01,1.22-0.39c0.53-0.3,1.04-0.61,1.55-0.95
			c0.49,0.14,0.88,0.01,1.18-0.41c0.53-0.3,1.04-0.62,1.54-0.96c0.5,0.13,0.9-0.01,1.19-0.43c0.52-0.27,1.02-0.58,1.48-0.95
			c0.42-0.15,0.83-0.3,1.25-0.46c0.51-0.23,0.97-0.53,1.38-0.92l-0.01,0c0.67-0.87,1.95-0.58,2.64-1.41l0.05-0.02
			c0.55-0.58,1.13-1.12,1.99-1.15l0.46,0.07l0.26-0.39c0.53-0.46,1.06-0.92,1.78-1.08c0.44,0.15,0.76,0.02,0.96-0.4
			c0.52-0.36,1.04-0.7,1.58-1.03c0.51,0.12,0.9-0.05,1.16-0.5c0.51-0.21,0.95-0.53,1.33-0.94l0.02-0.01
			c0.52-0.6,1.08-1.12,1.93-1.18c0.4,0.18,0.66,0.06,0.78-0.37c0.49-0.39,1-0.74,1.55-1.04l-0.08,0.06
			c0.53-1.06,1.91-0.73,2.58-1.56l0.04-0.02c0.51-0.53,1.04-1.03,1.79-1.18c0.45,0.14,0.76-0.01,0.94-0.45
			c0.5-0.3,0.98-0.64,1.42-1.02l-0.03,0.02c0.47-0.66,1.04-1.17,1.89-1.25c0.42,0.16,0.68,0.02,0.8-0.41
			c0.49-0.35,0.98-0.7,1.47-1.06l-0.06,0.04c0.44-0.7,1.02-1.21,1.89-1.29c0.42,0.15,0.68,0.01,0.78-0.42
			c0.49-0.34,0.97-0.69,1.44-1.07l-0.04,0.03c0.44-0.65,0.99-1.14,1.8-1.27c0.46,0.13,0.76-0.04,0.9-0.49
			c0.5-0.27,0.95-0.61,1.33-1.02l0.03-0.02c0.47-0.47,0.86-1.05,1.59-1.19l-0.09,0.08c0.41-1.11,1.88-0.71,2.39-1.67l0.15-0.09
			c0.5-0.38,0.99-0.77,1.49-1.16l-0.04,0.03c0.42-0.63,0.96-1.11,1.71-1.3c0.51,0.09,0.85-0.12,1-0.61
			c0.51-0.15,0.89-0.47,1.13-0.95l0.16-0.1c0.5-0.38,0.98-0.77,1.46-1.17l-0.02,0.02c0.41-0.55,0.85-1.07,1.56-1.26l-0.1,0.09
			c0.33-0.86,0.94-1.35,1.86-1.42c0.44,0.11,0.69-0.06,0.74-0.51c0.5-0.25,0.91-0.61,1.25-1.06l0.08-0.06
			c0.5-0.39,0.91-0.89,1.46-1.23l-0.04,0.03c0.4-0.57,0.84-1.08,1.53-1.3l-0.09,0.08c0.3-0.8,0.88-1.26,1.72-1.42
			c0.51,0.07,0.82-0.14,0.92-0.64c0.52-0.13,0.86-0.46,1.06-0.95l0.21-0.16c0.52-0.3,0.96-0.68,1.32-1.16l0.08-0.06
			c0.47-0.41,0.94-0.83,1.41-1.25l-0.01,0c0.43-0.51,0.86-1.01,1.47-1.32l-0.06,0.05c0.36-0.61,0.82-1.11,1.5-1.36l-0.08,0.08
			c0.28-0.7,0.74-1.21,1.52-1.37l-0.09,0.09c0.2-0.79,0.66-1.3,1.5-1.39l-0.11,0.1c0.18-0.99,0.83-1.44,1.78-1.53
			c0.48,0.04,0.73-0.17,0.75-0.66c0.51-0.14,0.85-0.46,1-0.97l0.25-0.23c0.54-0.21,0.93-0.58,1.16-1.12l0.21-0.19
			c0.53-0.26,0.93-0.64,1.2-1.16l0.17-0.16c0.52-0.29,0.93-0.69,1.24-1.19l0.14-0.12c0.5-0.33,0.92-0.74,1.25-1.23l0.11-0.11
			c0.49-0.34,0.91-0.76,1.25-1.25l0.11-0.11c0.49-0.34,0.91-0.75,1.25-1.25l0.11-0.11c0.5-0.34,0.91-0.76,1.25-1.25l0.11-0.11
			c0.5-0.33,0.9-0.75,1.21-1.26l0.14-0.16c0.52-0.28,0.9-0.7,1.17-1.22l0.18-0.2c0.53-0.25,0.91-0.64,1.14-1.18l0.19-0.21
			c1.43-0.85,1.54-2.89,3.2-3.52l-0.08,0.08c0.03-0.89,0.55-1.34,1.37-1.52l-0.09,0.09c0.14-0.8,0.65-1.27,1.4-1.51l-0.09,0.09
			c0.2-0.73,0.71-1.19,1.36-1.53l-0.07,0.07c0.28-0.64,0.79-1.08,1.34-1.48l-0.03,0.03c0.36-0.54,0.85-0.96,1.27-1.45l0.03-0.04
			c0.46-0.4,0.86-0.85,1.2-1.36l0.11-0.15c0.49-0.24,0.82-0.62,1.01-1.13c0.48-0.05,0.68-0.31,0.6-0.79
			c0.1-0.92,0.57-1.53,1.46-1.81l-0.1,0.12c0.17-0.75,0.69-1.2,1.31-1.56l-0.06,0.07c0.29-0.61,0.81-1.03,1.27-1.5l0.02-0.02
			c0.45-0.41,0.83-0.88,1.16-1.4l0.11-0.17c1-0.45,0.58-1.99,1.76-2.3l-0.1,0.11c0.12-0.78,0.66-1.22,1.28-1.59l-0.06,0.07
			c0.28-0.61,0.82-1.01,1.22-1.52l0.04-0.06c0.45-0.33,0.79-0.76,1.04-1.26c0.47-0.1,0.64-0.38,0.53-0.84
			c0.11-0.86,0.6-1.44,1.36-1.82l-0.07,0.09c0.24-0.64,0.79-1.04,1.2-1.55l0.03-0.05c0.88-0.59,0.49-2.1,1.74-2.44l-0.1,0.11
			c0.05-0.8,0.62-1.23,1.2-1.65l-0.04,0.05c0.39-0.49,0.77-1,1.13-1.51l0.09-0.16c1-0.5,0.61-1.94,1.64-2.42l-0.07,0.1
			c0.21-0.65,0.78-1.05,1.15-1.59l0.05-0.08c0.92-0.59,0.55-2.01,1.63-2.5l-0.07,0.08c0.55-1.03,0.61-2.06,0.03-3.1l-0.06-0.04
			c-0.8-0.58-2.16-0.22-2.56-1.49l-0.06-0.04c-1.67-0.36-2.94-1.4-4.23-2.42l-0.06-0.04c-0.74-0.71-2.05-0.39-2.59-1.46l-0.02-0.02
			c-0.82-0.55-2.17-0.18-2.55-1.48l-0.07-0.05c-1.69-0.32-2.96-1.37-4.24-2.42l-0.04-0.02c-0.75-0.69-2.08-0.37-2.58-1.48
			l-0.02-0.02c-0.83-0.52-2.19-0.14-2.55-1.48l-0.08-0.06c-1.71-0.28-2.98-1.34-4.24-2.41l-0.03-0.02
			c-0.76-0.67-2.09-0.34-2.59-1.48l-0.03-0.02c-1.56-0.53-2.86-1.52-4.18-2.45l-0.14-0.08c-0.68-0.79-1.98-0.46-2.55-1.42
			l-0.02-0.01c-1.35-1.01-3.32-1.87-0.87-3.76c0.4,0.18,0.66,0.07,0.8-0.35c0.53-0.38,1.02-0.84,1.65-1.06
			c0.48,0.13,0.85-0.03,1.09-0.46c0.51-0.26,0.98-0.58,1.4-0.96l-0.02,0.01c0.63-0.89,1.95-0.56,2.57-1.46l0.1-0.04
			c0.54-0.47,1.06-0.97,1.8-1.12c0.44,0.15,0.75,0.02,0.95-0.4c0.52-0.36,1.04-0.7,1.57-1.03c0.51,0.12,0.9-0.05,1.17-0.5
			c0.51-0.21,0.96-0.52,1.32-0.93l0.02-0.01c0.53-0.61,1.11-1.14,1.97-1.18l0.47,0.06l0.26-0.39c0.53-0.42,1.02-0.9,1.7-1.08
			c0.47,0.13,0.81-0.01,1.04-0.44c0.51-0.29,0.99-0.62,1.44-0.98l-0.05,0.03c0.62-0.93,1.94-0.61,2.6-1.47l0.07-0.03
			c0.53-0.52,1.07-1.03,1.85-1.14c0.42,0.17,0.71,0.04,0.88-0.38c0.54-0.35,1.01-0.81,1.62-1.05c0.5,0.12,0.87-0.04,1.12-0.48
			c0.51-0.24,0.97-0.56,1.37-0.95l0,0c0.64-0.86,1.95-0.52,2.55-1.45l0.13-0.05c0.55-0.44,1.06-0.94,1.77-1.11
			c0.45,0.14,0.78,0.01,0.98-0.42c0.5-0.33,1-0.66,1.48-1l-0.07,0.04c0.6-0.98,1.93-0.67,2.63-1.49l0.04-0.02
			c0.53-0.57,1.08-1.09,1.91-1.16c0.4,0.18,0.67,0.06,0.8-0.36c0.53-0.39,1.02-0.86,1.67-1.07c0.48,0.13,0.83-0.02,1.07-0.46
			c0.51-0.27,0.98-0.59,1.41-0.97l-0.03,0.02c0.63-0.9,1.95-0.57,2.58-1.46l0.09-0.04c0.54-0.48,1.06-0.99,1.82-1.12
			c0.43,0.16,0.74,0.02,0.92-0.4c0.52-0.36,1.05-0.71,1.59-1.04c0.51,0.12,0.89-0.05,1.16-0.49c0.51-0.22,0.96-0.53,1.34-0.94
			l0.01-0.01c0.52-0.62,1.1-1.15,1.98-1.19l0.46,0.06l0.26-0.39c0.53-0.44,1.04-0.88,1.72-1.09c0.46,0.14,0.8-0.01,1.02-0.43
			c0.5-0.3,0.99-0.63,1.46-0.99l-0.05,0.03c0.61-0.94,1.94-0.63,2.61-1.48l0.06-0.03c0.53-0.53,1.07-1.05,1.87-1.14
			c0.42,0.17,0.7,0.04,0.86-0.38c0.54-0.36,1.01-0.82,1.63-1.05c0.49,0.13,0.86-0.03,1.11-0.47c0.51-0.25,0.97-0.57,1.39-0.96
			l-0.01,0.01c0.63-0.87,1.95-0.54,2.55-1.46l0.12-0.05c0.54-0.45,1.06-0.95,1.79-1.11c0.44,0.15,0.76,0.01,0.96-0.41
			c0.5-0.33,1-0.67,1.5-1l-0.07,0.05c0.59-1,1.93-0.69,2.63-1.5l0.03-0.02c0.53-0.58,1.09-1.11,1.94-1.17l0.49,0.05l0.29-0.4
			c0.53-0.4,1.02-0.87,1.68-1.07c0.47,0.13,0.82-0.02,1.06-0.44c0.51-0.28,0.98-0.61,1.43-0.98l-0.04,0.02
			c0.62-0.91,1.94-0.59,2.59-1.47l0.08-0.04c0.54-0.5,1.07-1.01,1.84-1.13c0.43,0.16,0.73,0.03,0.9-0.39
			c0.54-0.34,1.01-0.78,1.6-1.04c0.5,0.12,0.89-0.04,1.15-0.48c0.51-0.23,0.96-0.54,1.35-0.94l0.01,0c0.64-0.84,1.95-0.5,2.53-1.45
			l0.14-0.06c0.55-0.42,1.06-0.92,1.76-1.1c0.45,0.14,0.79,0,1.01-0.42c0.5-0.31,0.99-0.65,1.47-1l-0.06,0.04
			c0.61-0.96,1.94-0.64,2.61-1.49l0.06-0.03c0.55-0.59,1.17-1.04,2-1.14l-0.12-0.16c2.95,1.68,1.38,4.48,1.39,6.67
			c0.13,29.11,0.07,58.23,0.11,87.34c0,2.46-0.45,4.97,0.57,7.36c-0.94,2.61-0.49,5.31-0.44,7.96c0.13,6.45-0.58,12.93,0.39,19.36
			c-0.4,1.15-0.54,2.64-2.42,1.79l-0.02-0.01c-0.79-0.6-2.15-0.24-2.56-1.49l-0.05-0.04c-1.65-0.39-2.93-1.42-4.22-2.43l-0.08-0.05
			c-0.73-0.72-2.04-0.4-2.59-1.45l-0.02-0.02c-0.8-0.58-2.16-0.21-2.56-1.49l-0.06-0.04c-1.67-0.35-2.94-1.4-4.23-2.42l-0.06-0.04
			c-0.74-0.71-2.06-0.38-2.58-1.47l-0.02-0.02c-0.82-0.55-2.18-0.17-2.56-1.48l-0.07-0.05c-1.69-0.32-2.96-1.37-4.24-2.42
			l-0.04-0.02c-0.75-0.69-2.08-0.37-2.59-1.48l-0.02-0.02c-0.82-0.53-2.2-0.13-2.53-1.49l-0.1-0.07c-1.72-0.25-2.98-1.32-4.24-2.39
			l-0.03-0.02c-0.76-0.67-2.09-0.34-2.59-1.47l-0.03-0.03c-0.57-0.26-1.12-0.2-1.65,0.12l-0.01,0.03c-0.35,0.51-0.73,1-1.14,1.47
			l-0.08,0.14c-0.92,0.57-0.54,1.97-1.58,2.46l0.05-0.07c-0.19,0.65-0.75,1.02-1.12,1.55l-0.08,0.14c-0.91,0.56-0.53,1.99-1.62,2.43
			l0.06-0.07c-0.14,0.69-0.71,1.08-1.14,1.56l-0.05,0.09c-0.85,0.61-0.45,2.08-1.68,2.43l0.06-0.07c-0.06,0.77-0.61,1.19-1.17,1.6
			l0,0.01c-0.95,1.33-1.48,2.97-2.88,3.98l0.05-0.06c-0.14,0.71-0.7,1.1-1.2,1.54l-0.03,0.05c-1.04,1.26-1.49,2.94-2.92,3.91
			l0.05-0.06c-0.14,0.73-0.68,1.13-1.23,1.53l-0.02,0.02c-1.01,1.27-1.38,3.04-3,3.84l0.28,0.24l-0.24-0.28
			c-0.02,0.83-0.56,1.25-1.24,1.55l0.04-0.05c-0.21,0.67-0.73,1.08-1.25,1.49l-0.03,0.03c-1.26,1.89-2.53,3.77-4.32,5.23l0.05-0.05
			c-0.1,0.78-0.61,1.22-1.29,1.52l0.04-0.04c-0.23,0.67-0.74,1.09-1.29,1.47l0,0c-0.38,0.5-0.8,0.96-1.26,1.39l-0.07,0.09
			c-1.4,1.75-2.44,3.82-4.43,5.03c0.05,0.91-0.45,1.34-1.3,1.44l0.3,0.29l-0.28-0.31c-0.06,0.84-0.55,1.28-1.33,1.46l0.04-0.04
			c-0.15,0.76-0.64,1.21-1.35,1.46l0.04-0.04c-0.23,0.7-0.7,1.16-1.37,1.43l0.03-0.04c-0.24,0.68-0.72,1.13-1.37,1.42l0.03-0.03
			c-0.27,0.64-0.75,1.09-1.36,1.41l0.02-0.02c-0.31,0.61-0.78,1.06-1.36,1.39l0.01-0.01c-0.32,0.58-0.79,1.02-1.34,1.39l-0.01,0.01
			c-0.38,0.51-0.83,0.96-1.35,1.35l-0.02,0.02c-0.38,0.51-0.83,0.96-1.34,1.34l-0.02,0.02c-0.36,0.54-0.81,1-1.36,1.34l0,0
			c-0.36,0.56-0.8,1.03-1.4,1.34l0.01-0.01c-0.32,0.6-0.77,1.06-1.39,1.37l0.02-0.02c-0.31,0.62-0.76,1.09-1.41,1.35l0.03-0.03
			c-0.28,0.66-0.73,1.14-1.42,1.36l0.03-0.03c-0.26,0.68-0.71,1.16-1.44,1.35l0.03-0.03c-0.21,0.74-0.65,1.22-1.45,1.33l0.29,0.26
			l-0.28-0.28c-0.14,0.81-0.57,1.29-1.42,1.31c-1.89,2.2-4.05,4.11-6.47,5.71l-0.08,0.07c-0.4,0.49-0.87,0.91-1.4,1.26l0.01-0.01
			c-0.34,0.6-0.76,1.11-1.47,1.29l0.03-0.03c-0.25,0.71-0.67,1.23-1.49,1.25c-0.74,1.6-2.57,1.88-3.69,3.01l-0.13,0.1
			c-0.43,0.45-0.89,0.85-1.39,1.21l0,0c-0.37,0.58-0.77,1.11-1.51,1.24l0.02-0.02c-1.59,1.64-3.31,3.11-5.34,4.19l-0.01,0.01
			c-0.34,0.61-0.76,1.13-1.53,1.19c-0.86,1.54-2.55,1.98-3.87,2.91l-0.02,0.02c-0.38,0.57-0.75,1.15-1.55,1.16
			c-0.9,1.52-2.52,2.04-3.93,2.85l-0.01,0.01c-1.09,1.27-2.65,1.86-3.98,2.79l-0.05,0.04c-0.4,0.54-0.76,1.14-1.56,1.1
			c-0.33,1.25-1.77,0.84-2.42,1.61l-0.1,0.07c-0.4,0.52-0.9,0.89-1.53,1.09c-0.38,1.19-1.79,0.8-2.45,1.57l-0.1,0.07
			c-0.4,0.53-0.91,0.89-1.56,1.05c-0.37,1.24-1.78,0.86-2.48,1.58l-0.05,0.04c-1.24,1.08-2.65,1.89-4.12,2.61l-0.02,0.02
			c-1.18,1.19-2.52,2.11-4.18,2.52l-0.06,0.04c-0.39,1.26-1.76,0.89-2.53,1.52l-0.02,0.02c-0.56,0.99-1.87,0.66-2.55,1.44
			l-0.13,0.07c-1.33,0.93-2.6,1.96-4.2,2.42l-0.04,0.02c-0.48,1.18-1.8,0.85-2.6,1.45l-0.02,0.02c-0.59,1.01-1.88,0.72-2.63,1.41
			l-0.04,0.03c-0.63,0.91-1.9,0.61-2.61,1.36l-0.11,0.06c-4.22,2.8-8.83,4.81-13.48,6.76l-0.14,0.06c-0.7,0.82-1.9,0.57-2.66,1.27
			l-0.07,0.04c-0.69,0.89-1.9,0.66-2.72,1.27l-0.03,0.01c-0.67,0.99-1.86,0.78-2.77,1.23l-0.04,0.03c-1.91,1.63-4.49,1.73-6.62,2.87
			l-0.06,0.03c-0.72,0.9-1.88,0.73-2.8,1.15l-0.05,0.03c-0.82,1.66-2.84,0.32-3.83,1.54l-0.12,0.05c-0.75,0.84-1.88,0.69-2.8,1.09
			l-0.06,0.03c-0.85,1.67-2.86,0.37-3.91,1.52l-0.03,0.01c-2.17,1.18-4.49,1.97-6.91,2.46l-0.11,0.03
			c-0.86,1.77-2.77,0.53-3.96,1.38l-0.07,0.02c-0.94,1.67-2.79,0.52-4.02,1.31l-0.09,0.03c-2.85,1.77-6.25,1.77-9.29,2.92
			l-0.07,0.02c-1.12,1.29-2.88,0.34-4.13,1.18l-0.06,0.01c-1.37,1.91-3.79,0.1-5.31,1.5l-0.03-0.01c-1.49,1.64-3.82,0.01-5.38,1.38
			l-0.06,0.01c-1.53,1.57-3.83,0-5.42,1.34l-0.03-0.01c-1.57,1.6-3.81,0.16-5.49,1.23l-0.07-0.01c-1.89,2.09-4.68,0.03-6.71,1.45
			l-0.04-0.03c-5.25,1.83-10.82,1.79-16.2,2.85l-0.07,0c-2.97,1.89-6.51-0.32-9.51,1.35l-0.03-0.03c-3.9,2.07-8.31-0.38-12.24,1.39
			l-0.04-0.08c-5.2,1.89-10.58,0.33-15.85,0.84c-2.42,0.23-4.92-0.57-7.25,0.61l-0.05-0.11c-3.99,1.33-7.97,1.39-11.95-0.04
			l-0.05,0.05c-1.52-1.31-3.98,0.6-5.26-1.53l-0.07-0.04c-1.67-0.36-3.01-1.29-4.17-2.5l0.03,0.03c-0.67-0.23-1.1-0.73-1.45-1.31
			l0.02,0.02c-0.58-0.35-1.07-0.79-1.33-1.44l0.04,0.05c-0.66-0.34-1.22-0.75-1.21-1.59l0.07,0.08c-1.36-0.41-1.02-1.79-1.53-2.69
			l0.06,0.1c-1.64-1.13-0.59-3.13-1.48-4.51c0-2.31,0.01-4.62,0.01-6.94c0.33-1.14,0.44-2.34,1.09-3.38l0.38-0.33l-0.1-0.49
			c0.09-0.8,0.62-1.35,1.1-1.92l0.04-0.08c0.92-0.56,0.53-2.05,1.72-2.43l-0.11,0.11c0.17-0.79,0.66-1.26,1.42-1.49l-0.1,0.1
			c0.26-0.83,0.85-1.28,1.68-1.46c0.46,0.12,0.77-0.05,0.91-0.51c0.5-0.27,0.97-0.59,1.39-0.98l-0.01,0.01
			c0.74-0.89,2.01-0.65,2.84-1.34c0.45,0.18,0.86,0.1,1.21-0.24c4.24-1.39,8.75,0.4,12.97-1.12c5.22,0.82,10.42,0.01,15.62-0.3
			c2.69-1.19,5.73,0.36,8.4-1.05c2.22,0.36,4.4,0.08,6.58-0.34c1.49-0.68,3.21-0.28,4.7-0.97c1.65,0.37,3.24,0.03,4.83-0.36
			c1.42-0.78,3.13-0.22,4.54-1c1.21-0.12,2.42-0.23,3.63-0.35c1.34-0.84,3.06-0.14,4.39-1.04c1.26-0.13,2.53-0.26,3.79-0.39
			C597.03,861.24,598.15,861.24,599.11,860.75z"/>
		<path class="st3" d="M763.44,257.01c0.11,0.5,0.42,0.71,0.92,0.63c0.83,0.16,1.41,0.62,1.72,1.42l-0.09-0.08
			c0.69,0.23,1.14,0.74,1.53,1.32l-0.05-0.04c0.57,0.33,0.99,0.83,1.46,1.27l0.04,0.03c0.41,0.45,0.87,0.85,1.37,1.2l0.15,0.11
			c0.29,0.51,0.7,0.88,1.24,1.11l0.24,0.2c0.36,1.04,1.95,0.6,2.17,1.81l-0.09-0.09c0.84,0.09,1.29,0.61,1.51,1.38l-0.09-0.08
			c0.75,0.18,1.21,0.69,1.52,1.36l-0.08-0.07c0.66,0.28,1.12,0.77,1.48,1.38l-0.06-0.06c0.61,0.32,1.06,0.81,1.45,1.36l-0.03-0.02
			c0.54,0.37,0.97,0.85,1.42,1.31l0.02,0.02c0.45,0.44,0.9,0.87,1.36,1.29l0.05,0.05c0.41,0.46,0.85,0.89,1.32,1.28l0.07,0.07
			c0.38,0.48,0.81,0.89,1.3,1.25l0.1,0.1c0.35,0.49,0.77,0.9,1.27,1.23l0.13,0.12c0.31,0.5,0.73,0.9,1.24,1.2l0.16,0.15
			c0.28,0.52,0.68,0.91,1.2,1.18l0.17,0.17c0.27,0.52,0.66,0.92,1.19,1.19l0.17,0.17c0.27,0.52,0.67,0.92,1.18,1.2l0.15,0.16
			c0.29,0.52,0.69,0.93,1.2,1.24l0.12,0.13c0.33,0.5,0.74,0.92,1.23,1.27l0.1,0.1c0.36,0.49,0.78,0.92,1.25,1.29l0.07,0.08
			c0.38,0.48,0.81,0.92,1.28,1.32l0.05,0.05c0.42,0.47,0.85,0.92,1.3,1.36l0.02,0.02c0.45,0.46,0.93,0.89,1.31,1.41l-0.02-0.02
			c0.53,0.41,1.02,0.85,1.35,1.45l-0.05-0.06c0.6,0.36,1.09,0.83,1.38,1.48l-0.07-0.08c0.66,0.32,1.17,0.78,1.37,1.52l-0.09-0.09
			c0.76,0.23,1.27,0.69,1.38,1.52l-0.11-0.11c0.97,0.22,1.44,0.86,1.52,1.82c-0.07,0.46,0.13,0.7,0.6,0.73
			c0.19,0.51,0.52,0.89,1.01,1.12l0.12,0.16c0.33,0.51,0.73,0.96,1.2,1.36l0.04,0.04c0.42,0.49,0.92,0.9,1.27,1.45l-0.03-0.04
			c0.56,0.4,1.07,0.85,1.31,1.53l-0.08-0.09c0.7,0.3,1.23,0.75,1.33,1.56l-0.1-0.1c1.21,0.27,0.78,1.84,1.79,2.27l0.12,0.17
			c0.32,0.52,0.7,0.99,1.16,1.39l0.02,0.03c0.45,0.48,0.97,0.89,1.25,1.51l-0.06-0.07c0.63,0.36,1.17,0.81,1.29,1.58l-0.1-0.11
			c1.18,0.32,0.76,1.86,1.76,2.32l0.1,0.16c0.34,0.51,0.73,1,1.16,1.44l0-0.01c0.5,0.45,1.07,0.86,1.24,1.57l-0.09-0.11
			c0.85,0.35,1.35,0.97,1.41,1.91l0.02,0.49l0.44,0.21c0.3,0.5,0.67,0.95,1.08,1.36l0,0c0.5,0.46,1.03,0.89,1.22,1.59l-0.09-0.11
			c1.11,0.42,0.71,1.89,1.69,2.4l0.08,0.14c0.31,0.57,0.84,0.96,1.14,1.53l-0.05-0.07c0.68,0.43,1.18,1,1.3,1.83
			c-0.13,0.45,0.03,0.74,0.49,0.86c0.28,0.5,0.62,0.96,1.04,1.36l0,0c0.5,0.47,1.06,0.9,1.17,1.64l-0.1-0.11
			c1.19,0.42,0.83,1.87,1.68,2.52l0.01,0.03c0.46,0.49,1.01,0.92,1.15,1.64l-0.1-0.12c1.17,0.45,0.82,1.89,1.65,2.55l0.01,0.01
			c0.54,0.51,1.04,1.04,1.19,1.81c-0.14,0.46,0.01,0.77,0.47,0.93c0.29,0.51,0.62,0.98,1.01,1.41l-0.02-0.04
			c0.66,0.5,1.18,1.08,1.23,1.96l-0.03,0.49l0.42,0.25c0.38,0.49,0.73,1.01,1.05,1.54l-0.07-0.1c1.04,0.56,0.72,1.93,1.56,2.61
			l0.01,0.02c0.55,0.54,1.07,1.09,1.16,1.9c-0.17,0.42-0.04,0.7,0.4,0.84c0.37,0.5,0.71,1.01,1.02,1.55l-0.07-0.1
			c1.05,0.59,0.75,1.93,1.52,2.68l-0.01-0.02c0.85,0.65,0.53,1.97,1.45,2.59l0.04,0.08c0.47,0.58,1,1.12,1.1,1.9
			c-0.18,0.42-0.05,0.71,0.38,0.86c0.36,0.55,0.84,1.04,1.03,1.7c-0.16,0.46-0.02,0.81,0.42,1.03c0.31,0.51,0.64,1.02,0.96,1.52
			l-0.06-0.1c1.01,0.64,0.76,1.95,1.45,2.76l-0.03-0.06c0.93,0.68,0.69,1.97,1.42,2.76l-0.02-0.04c0.89,0.71,0.66,1.97,1.38,2.76
			l-0.02-0.04c0.89,0.71,0.66,1.98,1.38,2.77l-0.02-0.04c0.89,0.72,0.67,1.98,1.37,2.79l-0.03-0.06c0.91,0.72,0.72,1.97,1.35,2.83
			l-0.04-0.09c1.02,0.74,0.81,2.05,1.39,3c-0.19,0.45-0.07,0.8,0.35,1.04c0.37,0.59,0.86,1.11,0.96,1.84
			c-0.21,0.4-0.11,0.69,0.31,0.87c0.67,0.78,0.39,1.99,1.24,2.69l0.01,0.02c0.76,0.8,0.6,2,1.26,2.85l-0.03-0.07
			c0.96,0.82,0.84,2.1,1.32,3.13c-0.22,0.41-0.12,0.71,0.29,0.92c0.66,0.81,0.44,2,1.19,2.77l-0.01-0.03
			c0.86,0.86,0.76,2.11,1.26,3.12c-0.22,0.41-0.13,0.73,0.28,0.95c0.66,0.83,0.47,2,1.16,2.82l-0.02-0.07
			c0.9,0.95,0.94,2.22,1.26,3.39l-0.13,0.41l0.34,0.25c0.79,0.91,0.69,2.15,1.18,3.17c-0.24,0.4-0.15,0.71,0.26,0.92
			c0.7,0.91,0.59,2.11,1.13,3.08c-0.23,0.42-0.14,0.76,0.26,1.01c0.66,0.91,0.55,2.1,1.11,3.04c-0.24,0.42-0.15,0.77,0.25,1.04
			c0.65,0.94,0.59,2.12,1.09,3.11c-0.25,0.4-0.17,0.73,0.24,0.97c0.66,1.02,0.73,2.22,1.08,3.34l-0.16,0.44l0.36,0.3
			c1.17,1.2,0.17,3.06,1.28,4.27c-0.24,0.46-0.16,0.85,0.23,1.19c0.57,1.02,0.66,2.19,1.02,3.28l-0.16,0.46l0.36,0.33
			c1.12,1.3,0.3,3.13,1.21,4.48c-0.27,0.39-0.21,0.71,0.2,0.97c1.04,1.33,0.28,3.13,1.16,4.5c-0.28,0.38-0.22,0.7,0.19,0.94
			c1.02,1.42,0.42,3.24,1.14,4.74c0.11,0.69,0.23,1.39,0.34,2.08c0.86,1.37,0.2,3.11,1.06,4.48c-0.3,0.38-0.24,0.69,0.16,0.95
			c1.29,1.81,0.11,4.1,1.18,5.95c0.1,0.74,0.2,1.49,0.3,2.23c1.09,1.8-0.04,4.02,1.09,5.82c0.09,0.78,0.18,1.57,0.27,2.35
			c0.99,1.95,0.14,4.21,1.07,6.17c-0.47,1.17-0.14,2.27,0.28,3.36c1.32,2.73-0.27,5.83,1.11,8.55c-0.37,1.27-0.17,2.49,0.25,3.71
			c1.38,3.77-0.32,7.84,1.11,11.6c-0.67,2.51-0.16,4.98,0.23,7.45c0.88,6.35,0.95,12.69-0.04,19.04c-0.38,0.3-0.45,0.66-0.19,1.07
			c-0.6,0.92-0.44,2.13-1.15,3.01l-0.39,0.28l0.09,0.47c-0.05,0.85-0.57,1.42-1.18,1.94l-0.03,0.05c-1.38,2.22-3.11,4.09-5.44,5.35
			l-0.05,0.04c-6.75,4.57-13.5,4.62-20.24-0.02l-0.03-0.03c-2.35-1.24-4.1-3.11-5.44-5.37l-0.01-0.02
			c-0.86-0.64-0.53-1.95-1.44-2.56l-0.04-0.1c-0.71-0.91-0.64-2.12-1.16-3.1c0.27-0.39,0.21-0.72-0.19-0.99
			c-1.74-8.33,0.48-16.84-1.18-25.17c0.61-1.63,0.27-3.21-0.22-4.79c-1.52-3.62,0.4-7.6-1.16-11.22c0.32-0.83,0.19-1.63-0.21-2.4
			c-1.23-2.37,0.02-5.1-1.11-7.48c0.37-0.73,0.24-1.4-0.22-2.05c-1.41-2.19,0.2-4.89-1.2-7.08c0.3-0.41,0.25-0.78-0.15-1.09
			c-1.24-1.81-0.08-4.08-1.15-5.92l0.19-0.49l-0.35-0.39c-1.37-1.74-0.05-4.04-1.23-5.82c0.29-0.39,0.23-0.72-0.18-0.99
			c-1.01-1.44-0.43-3.25-1.14-4.76l0.18-0.39l-0.31-0.29c-1.14-1.42-0.5-3.29-1.22-4.81l0.16-0.37l-0.3-0.27
			c-1.19-1.34-0.4-3.19-1.22-4.63l0.16-0.48l-0.36-0.35c-1.14-1.22-0.17-3.05-1.25-4.29c0.23-0.45,0.16-0.84-0.24-1.17
			c-0.61-0.96-0.59-2.13-1.05-3.14c0.26-0.4,0.18-0.71-0.24-0.93c-0.67-1.01-0.75-2.22-1.1-3.34l0.15-0.44l-0.36-0.3
			c-0.75-1.02-0.83-2.26-1.15-3.42l0.14-0.4l-0.34-0.26c-0.78-0.96-0.78-2.21-1.17-3.31l0.13-0.47l-0.37-0.31
			c-0.76-0.9-0.65-2.13-1.16-3.12c0.23-0.41,0.14-0.74-0.28-0.97c-0.67-0.83-0.48-2-1.14-2.83l0.03,0.06
			c-0.95-0.93-0.97-2.21-1.29-3.37l0.12-0.41l-0.35-0.25c-0.77-0.8-0.58-2.01-1.19-2.88l0.04,0.08c-1.03-0.87-0.98-2.17-1.34-3.31
			l0.12-0.44l-0.37-0.26c-0.75-0.78-0.51-2-1.23-2.8l0.01,0.03c-0.89-0.75-0.74-1.96-1.26-2.88l0.05,0.09
			c-1.13-0.75-0.96-2.08-1.41-3.14c0.22-0.4,0.11-0.68-0.31-0.85c-0.68-0.75-0.36-1.98-1.26-2.62l-0.03-0.09
			c-0.72-0.76-0.47-1.98-1.29-2.69l-0.02-0.05c-0.78-0.74-0.53-1.97-1.32-2.71l-0.01-0.03c-0.81-0.72-0.57-1.97-1.34-2.71
			l-0.01-0.02c-0.83-0.7-0.56-1.96-1.37-2.68l-0.02-0.04c-0.8-0.7-0.51-1.96-1.37-2.64l-0.03-0.07c-0.76-0.7-0.44-1.97-1.36-2.57
			l-0.05-0.13c-0.36-0.55-1.04-0.9-0.97-1.69l0.07,0.09c-1.31-0.45-0.99-1.82-1.53-2.7l0.05,0.07c-1.12-0.55-0.83-1.89-1.51-2.68
			l0.02,0.03c-0.94-0.61-0.62-1.93-1.47-2.6l-0.04-0.07c-0.45-0.49-1.04-0.9-1.02-1.68l0.07,0.08c-1.32-0.39-0.97-1.8-1.59-2.62
			l0.03,0.05c-1.02-0.55-0.69-1.91-1.53-2.57l-0.04-0.08c-0.43-0.5-1.07-0.86-1.07-1.64l0.07,0.08c-1.24-0.41-0.88-1.83-1.62-2.56
			l0,0c-0.56-0.43-1.16-0.83-1.07-1.67l-0.23,0.28l0.28-0.23c-1.38-0.29-0.98-1.76-1.67-2.51l0.02,0.03
			c-1.19-1.18-1.89-2.69-2.75-4.1l0.01,0.02c-0.6-0.4-1.19-0.8-1.11-1.65l-0.25,0.31l0.3-0.26c-1.37-0.25-0.95-1.76-1.71-2.44
			l-0.01-0.02c-0.54-0.42-1.08-0.84-1.16-1.59l0.06,0.07c-1.2-0.35-0.8-1.82-1.68-2.4l-0.07-0.12c-0.44-0.46-0.83-0.96-1.16-1.5
			l0.04,0.05c-0.65-0.35-1.21-0.76-1.18-1.6l-0.23,0.29l0.27-0.24c-1.31-0.25-0.88-1.77-1.73-2.35l-0.07-0.1
			c-0.43-0.47-0.95-0.86-1.19-1.49l0.04,0.04c-0.65-0.34-1.19-0.76-1.22-1.58l-0.22,0.27l0.26-0.22c-1.61-0.81-1.98-2.58-3-3.84
			l-0.02-0.02c-0.53-0.4-1.06-0.81-1.25-1.5l0.05,0.05c-0.7-0.29-1.23-0.71-1.25-1.55l-0.24,0.3l0.28-0.26
			c-1.63-0.74-1.9-2.59-3.05-3.73l-0.07-0.1c-0.45-0.44-0.86-0.9-1.24-1.4l0.01,0.01c-0.57-0.37-1.07-0.8-1.3-1.47l0.04,0.04
			c-0.68-0.29-1.18-0.73-1.31-1.5l0.04,0.04c-0.8-0.18-1.31-0.6-1.3-1.48l-0.32,0.36l0.34-0.34c-1.96-1.24-2.96-3.33-4.45-5
			l-0.12-0.14c-0.39-0.44-0.79-0.87-1.2-1.28l-0.09-0.1c-0.44-0.42-0.86-0.86-1.26-1.32l-0.05-0.06c-0.48-0.41-0.91-0.85-1.3-1.35
			l-0.03-0.03c-0.51-0.39-0.95-0.85-1.33-1.36l0,0c-0.56-0.36-1.03-0.8-1.34-1.4l0.01,0.01c-0.6-0.32-1.06-0.78-1.37-1.38l0.02,0.02
			c-0.6-0.32-1.06-0.77-1.38-1.38l0.02,0.02c-0.6-0.32-1.06-0.77-1.38-1.38l0.02,0.02c-0.6-0.31-1.06-0.77-1.38-1.37l0.01,0.01
			c-0.59-0.31-1.03-0.78-1.4-1.33l-0.01-0.01c-0.52-0.38-0.97-0.82-1.36-1.32l-0.04-0.03c-0.49-0.38-0.93-0.81-1.33-1.28l-0.07-0.07
			c-2.98-1.96-5.39-4.54-7.82-7.1c-0.87,0.01-1.29-0.5-1.46-1.28l-0.24,0.25l0.26-0.23c-0.75-0.13-1.19-0.62-1.48-1.28l0.02,0.02
			c-0.65-0.23-1.07-0.73-1.45-1.28l-0.02-0.02c-0.48-0.37-0.94-0.78-1.36-1.21l-0.14-0.11c-1.13-1.13-2.94-1.42-3.7-3
			c-0.81-0.03-1.22-0.55-1.51-1.22l0.02,0.02c-0.66-0.21-1.06-0.71-1.45-1.23l-0.07-0.06c-1.24-1.02-2.98-1.39-3.8-2.95
			c-0.79-0.04-1.2-0.57-1.54-1.18l-0.01-0.01c-1.35-0.88-3.05-1.31-3.85-2.92l-0.25,0.36l0.23-0.37c-0.81,0.02-1.21-0.52-1.56-1.14
			l-0.01-0.01c-1.38-0.86-2.99-1.39-3.95-2.84c-0.73-0.06-1.11-0.62-1.52-1.13l-0.08-0.06c-0.65-0.76-2.11-0.33-2.38-1.64
			l-0.24,0.37l0.22-0.39c-0.8,0.05-1.2-0.51-1.59-1.07l-0.03-0.02c-1.92-1.21-3.83-2.74-5.82-0.11l0.06-0.07
			c-0.03,0.75-0.67,1.11-1.02,1.65l-0.06,0.14c-0.93,0.59-0.59,1.9-1.43,2.54l-0.01,0.02c-0.77,0.72-0.47,2.06-1.5,2.64l0.03-0.05
			c-0.62,0.83-0.3,2.2-1.55,2.67l0.07-0.09c0.01,0.77-0.64,1.13-1.02,1.66l-0.05,0.11c-0.9,0.62-0.57,1.92-1.44,2.56l-0.01,0.01
			c-0.75,0.74-0.45,2.08-1.51,2.64l0.04-0.06c-0.59,0.84-0.26,2.22-1.55,2.66l0.07-0.08c0.04,0.79-0.62,1.15-1.02,1.67l-0.05,0.1
			c-0.88,0.64-0.56,1.94-1.44,2.58l0,0c-0.74,0.75-0.43,2.1-1.52,2.65l0.04-0.06c-0.57,0.86-0.23,2.25-1.56,2.66l0.07-0.08
			c0.03,0.78-0.57,1.18-1.01,1.68l-0.04,0.08c-0.86,0.66-0.54,1.97-1.45,2.6l0.01-0.02c-0.71,0.77-0.4,2.12-1.53,2.65l0.08-0.11
			c-2.04,1.95-2.87,0.25-3.75-1.26l0.03,0.05c-1.02-0.58-0.71-1.91-1.5-2.63l-0.02-0.03c-0.83-0.64-0.47-1.95-1.43-2.51l-0.07-0.16
			c-0.33-0.55-0.95-0.92-1.03-1.63l0.07,0.09c-1.16-0.51-0.85-1.87-1.54-2.65l0.02,0.03c-0.94-0.61-0.62-1.93-1.47-2.6l-0.04-0.08
			c-0.45-0.49-1.04-0.9-1.01-1.68l0.07,0.08c-1.33-0.4-0.99-1.8-1.57-2.65l0.04,0.06c-1.07-0.55-0.77-1.9-1.52-2.64l-0.01-0.01
			c-0.87-0.63-0.53-1.94-1.44-2.54l-0.06-0.13c-0.37-0.54-1-0.9-1.03-1.65l0.07,0.09c-1.22-0.48-0.9-1.85-1.55-2.66l0.03,0.05
			c-0.99-0.59-0.68-1.92-1.49-2.62l-0.03-0.05c-0.48-0.48-1.09-0.88-1-1.7l0.06,0.06c-1.4-0.35-1.03-1.77-1.58-2.63l0.05,0.07
			c-1.13-0.53-0.82-1.89-1.53-2.65l0.01,0.01c-0.91-0.62-0.58-1.94-1.46-2.58l-0.05-0.1c-0.4-0.52-1.06-0.88-1.02-1.67l0.07,0.08
			c-1.28-0.43-0.95-1.82-1.56-2.65l0.04,0.06c-1.04-0.57-0.73-1.91-1.51-2.63l-0.02-0.03c-0.83-0.64-0.48-1.95-1.43-2.52l-0.07-0.15
			c-0.34-0.55-0.97-0.91-1.03-1.64l0.07,0.09c-1.18-0.5-0.87-1.86-1.55-2.65l0.02,0.04c-0.96-0.6-0.64-1.93-1.48-2.6l-0.03-0.07
			c-0.45-0.49-1.05-0.9-1.01-1.69l0.07,0.07c-1.35-0.39-1-1.79-1.57-2.65l0.04,0.06c-1.09-0.54-0.78-1.89-1.53-2.64l0,0
			c-0.87-0.63-0.54-1.94-1.44-2.56l-0.06-0.12c-0.38-0.53-1.02-0.89-1.03-1.65l0.07,0.09c-1.23-0.47-0.91-1.84-1.55-2.66l0.03,0.05
			c-1-0.58-0.69-1.92-1.5-2.62l-0.02-0.04c-0.48-0.48-1.11-0.88-0.99-1.7l0.06,0.06c-1.42-0.34-1.04-1.76-1.58-2.63l0.05,0.07
			c-1.14-0.52-0.83-1.88-1.54-2.65l0.01,0.02c-0.92-0.62-0.6-1.94-1.46-2.59l-0.04-0.08c-0.41-0.51-1.08-0.87-1.03-1.67l0.07,0.09
			c-1.3-0.43-0.96-1.82-1.56-2.66l0.04,0.06c-1.05-0.56-0.75-1.91-1.51-2.64l-0.01-0.02c-0.85-0.63-0.51-1.95-1.44-2.53l-0.06-0.14
			c-0.35-0.54-0.99-0.91-1.03-1.65l0.07,0.09c-1.2-0.48-0.88-1.86-1.55-2.65l0.02,0.04c-0.96-0.6-0.65-1.93-1.48-2.61l-0.03-0.06
			c-0.46-0.49-1.07-0.89-1-1.69l0.06,0.07c-1.37-0.38-1.01-1.78-1.57-2.64l0.04,0.06c-1.1-0.54-0.8-1.89-1.53-2.64l0,0.01
			c-0.89-0.62-0.56-1.94-1.45-2.56l-0.05-0.11c-0.39-0.52-1.04-0.89-1.03-1.66l0.08,0.11c-1.52-1.41-0.76-2.53,0.71-2.99
			c1.49-0.47,3.15-0.19,4.74-0.19c39.25,0,78.5-0.05,117.75,0.14c1.8,0.01,6.39-2.66,5.49,3.07l0.08-0.11
			c-0.05,0.73-0.68,1.09-1.02,1.64l-0.07,0.15c-0.95,0.57-0.6,1.88-1.43,2.52l-0.02,0.04c-0.79,0.71-0.48,2.04-1.49,2.63l0.03-0.05
			c-0.63,0.82-0.32,2.19-1.54,2.67l0.07-0.09c-0.02,0.75-0.66,1.11-1.02,1.65l-0.06,0.14c-0.93,0.59-0.59,1.9-1.43,2.54l-0.01,0.02
			c-0.77,0.72-0.47,2.06-1.5,2.64l0.03-0.06c-0.61,0.83-0.29,2.21-1.55,2.67l0.07-0.09c0.01,0.77-0.64,1.13-1.02,1.66l-0.05,0.12
			c-0.9,0.62-0.57,1.92-1.44,2.56l-0.01,0.01c-0.75,0.74-0.45,2.08-1.51,2.65l0.04-0.06c-0.59,0.84-0.26,2.23-1.55,2.66l0.07-0.08
			c0.05,0.79-0.62,1.15-1.02,1.67l-0.04,0.09c-0.88,0.64-0.56,1.95-1.45,2.58l0-0.01c-0.73,0.76-0.43,2.1-1.51,2.66l0.06-0.06
			c-0.49,1.36-1.1,2.72,0.18,3.99c0.16,0.45,0.46,0.6,0.91,0.47c0.76,0.16,1.29,0.65,1.77,1.22l0.01,0.01
			c0.4,0.4,0.86,0.74,1.36,1.01c0.16,0.45,0.48,0.61,0.94,0.49c0.77,0.16,1.31,0.64,1.76,1.25l-0.02-0.01
			c0.44,0.39,0.91,0.74,1.4,1.06c0.11,0.44,0.37,0.59,0.81,0.45c0.87,0.09,1.44,0.59,1.86,1.32l-0.07-0.05
			c0.6,0.26,0.99,0.8,1.53,1.16l0.11,0.06c0.55,0.93,2.02,0.54,2.42,1.68l-0.09-0.08c0.73,0.15,1.16,0.68,1.59,1.22l-0.01-0.01
			c0.46,0.41,0.94,0.79,1.45,1.14l0.18,0.11c0.47,1,1.96,0.58,2.35,1.7l-0.09-0.08c0.71,0.18,1.15,0.7,1.57,1.24l-0.02-0.01
			c0.47,0.41,0.95,0.8,1.45,1.17l0.16,0.1c0.24,0.49,0.62,0.8,1.13,0.96c0.14,0.49,0.46,0.7,0.96,0.61
			c0.79,0.18,1.35,0.65,1.72,1.36l-0.08-0.07c0.64,0.26,1.05,0.79,1.51,1.26l0.02,0.02c0.42,0.44,0.89,0.83,1.4,1.16l0.18,0.13
			C762.56,256.54,762.93,256.85,763.44,257.01z"/>
	</g>
</g>
</svg>
