<svg id="Capa_1" data-name="Capa 1" xmlns="http://www.w3.org/2000/svg" viewBox="0 0 736.59 266.57"><title>logotipo</title><path d="M209.08,509.41h-18l5-23.53h18.27l1.1-5.81q3.6-18,11.91-30.86a62.14,62.14,0,0,1,19.93-19.93,47.61,47.61,0,0,1,25.19-7.06,55.34,55.34,0,0,1,15.91,2.35,59,59,0,0,1,14.53,6.51l-11.34,22.69a23.66,23.66,0,0,0-8.45-4.29A34.6,34.6,0,0,0,273.3,448q-10,0-16.89,8t-10.24,23.25l-1.39,6.64h34.88l-5.26,23.53H239.53L202.16,686H171.71Z" transform="translate(-171.71 -422.22)"/><path d="M334.19,629.83q-18.27,0-31.28-8a51.81,51.81,0,0,1-19.79-21.66q-6.78-13.73-6.78-31A85.6,85.6,0,0,1,283,535.62a88.49,88.49,0,0,1,82.49-54.44q15,0,26.16,4.52a38.74,38.74,0,0,1,17.44,13.16q6.23,8.64,6.23,21.79,0,21.93-20.07,33.44t-61,11.51q-7.76,0-17.44-.41t-21.86-1.52L299,544q11.07.57,19.65,1.11t16.06.55q19.65,0,31-3t16.33-8.55a18.42,18.42,0,0,0,5-12.63q0-6.24-3-10a19.1,19.1,0,0,0-8.58-5.83,38.6,38.6,0,0,0-13.29-2,47.84,47.84,0,0,0-22.42,5.33,53.21,53.21,0,0,0-17.58,14.75,72.26,72.26,0,0,0-11.35,21.17,76.51,76.51,0,0,0-4,24.86,50.33,50.33,0,0,0,3.46,19A29.5,29.5,0,0,0,321,602.35q7.33,5.05,18.41,5a48,48,0,0,0,23-5.95,45.38,45.38,0,0,0,17.44-16.19L404,592.73A75.61,75.61,0,0,1,386,612a88.46,88.46,0,0,1-24.5,13.15A82.09,82.09,0,0,1,334.19,629.83Z" transform="translate(-171.71 -422.22)"/><path d="M452.67,483.39h27.4L474,512.44a80.49,80.49,0,0,1,26-22.9,64.28,64.28,0,0,1,31.28-8.36q11.07,0,18.41,4a25.36,25.36,0,0,1,10.93,11.24,44.48,44.48,0,0,1,4.15,17.42,95.15,95.15,0,0,1,17.31-18,69.66,69.66,0,0,1,19.65-11,61.75,61.75,0,0,1,20.9-3.7q12.18,0,19.24,4.39A24.49,24.49,0,0,1,652,497.63a48.14,48.14,0,0,1,3,17.82,79.91,79.91,0,0,1-.83,11q-.82,6-2.21,13.16l-18.82,87.48H602.7l17.16-80.17a80.41,80.41,0,0,0,2.22-17.24q0-10.95-4.71-16.15t-13-5.2a35,35,0,0,0-16.19,4.22,55.59,55.59,0,0,0-15.23,11.84,81.5,81.5,0,0,0-12.32,17.69l-18,85H512.18l17.16-80.35a59.36,59.36,0,0,0,1.8-9.45c.28-2.84.42-5.53.42-8.09q0-10.84-4.43-15.85t-13-5q-11.62,0-23.81,9.26a67.79,67.79,0,0,0-19.65,24.22l-18.55,85.28H421.66Z" transform="translate(-171.71 -422.22)"/><path d="M698.2,509.41h-18l5-23.53h18.27l1.1-5.81q3.6-18,11.91-30.86a62.14,62.14,0,0,1,19.93-19.93,47.61,47.61,0,0,1,25.19-7.06,55.29,55.29,0,0,1,15.91,2.35A59.24,59.24,0,0,1,792,431.08l-11.35,22.69a23.69,23.69,0,0,0-8.44-4.29,34.72,34.72,0,0,0-9.83-1.52q-10,0-16.89,8t-10.24,23.25l-1.38,6.64h34.87l-5.25,23.53H728.65L691.28,686H660.83Z" transform="translate(-171.71 -422.22)"/><path d="M750.79,665.2a111.19,111.19,0,0,0,18.82-3.56,33.56,33.56,0,0,0,12.6-7,74,74,0,0,0,11.21-13.3l8-11.52-26-146.44H806.7L823,600.21l9.41-15.35Q842.68,568.41,850,555.1t12.6-25a235.62,235.62,0,0,0,9-23q3.74-11.39,6.78-23.72h29.89q-3.6,13.17-8,24.82t-10.51,24.27q-6.11,12.62-15.37,28.38t-23.11,37.71l-22.14,35.37a258.36,258.36,0,0,1-18.27,25.78,95.44,95.44,0,0,1-17.31,16.73,61.67,61.67,0,0,1-18.13,9.18,76.46,76.46,0,0,1-20.48,3.16Z" transform="translate(-171.71 -422.22)"/></svg>